G04 #@! TF.GenerationSoftware,KiCad,Pcbnew,(5.1.5)-3*
G04 #@! TF.CreationDate,2020-07-02T20:42:19-07:00*
G04 #@! TF.ProjectId,keypadV2,6b657970-6164-4563-922e-6b696361645f,rev?*
G04 #@! TF.SameCoordinates,Original*
G04 #@! TF.FileFunction,Profile,NP*
%FSLAX46Y46*%
G04 Gerber Fmt 4.6, Leading zero omitted, Abs format (unit mm)*
G04 Created by KiCad (PCBNEW (5.1.5)-3) date 2020-07-02 20:42:19*
%MOMM*%
%LPD*%
G04 APERTURE LIST*
%ADD10C,0.050000*%
%ADD11C,0.120000*%
G04 APERTURE END LIST*
D10*
X154178000Y-69024500D02*
X154178000Y-63436500D01*
X146812000Y-69024500D02*
X154178000Y-69024500D01*
X154178000Y-63436500D02*
X146812000Y-63436500D01*
X146812000Y-63436500D02*
X146812000Y-69024500D01*
X154178000Y-88836500D02*
X154178000Y-83248500D01*
X146812000Y-88836500D02*
X154178000Y-88836500D01*
X154178000Y-83248500D02*
X146812000Y-83248500D01*
X146812000Y-83248500D02*
X146812000Y-88836500D01*
X155829000Y-108648500D02*
X155829000Y-103060500D01*
X148463000Y-108648500D02*
X155829000Y-108648500D01*
X155829000Y-103060500D02*
X148463000Y-103060500D01*
X148463000Y-103060500D02*
X148463000Y-108648500D01*
X155829000Y-128460500D02*
X155829000Y-122872500D01*
X148463000Y-128460500D02*
X155829000Y-128460500D01*
X155829000Y-122872500D02*
X148463000Y-122872500D01*
X148463000Y-122872500D02*
X148463000Y-128460500D01*
X175641000Y-128460500D02*
X175641000Y-122872500D01*
X168275000Y-128460500D02*
X175641000Y-128460500D01*
X175641000Y-122872500D02*
X168275000Y-122872500D01*
X168275000Y-122872500D02*
X168275000Y-128460500D01*
X175641000Y-108648500D02*
X175641000Y-103060500D01*
X168275000Y-108648500D02*
X175641000Y-108648500D01*
X175641000Y-103060500D02*
X168275000Y-103060500D01*
X168275000Y-103060500D02*
X168275000Y-108648500D01*
X195453000Y-108648500D02*
X195453000Y-103060500D01*
X188087000Y-108648500D02*
X195453000Y-108648500D01*
X195453000Y-103060500D02*
X188087000Y-103060500D01*
X188087000Y-103060500D02*
X188087000Y-108648500D01*
X195453000Y-128460500D02*
X195453000Y-122872500D01*
X188087000Y-128460500D02*
X195453000Y-128460500D01*
X195453000Y-122872500D02*
X188087000Y-122872500D01*
X188087000Y-122872500D02*
X188087000Y-128460500D01*
X215265000Y-128460500D02*
X215265000Y-122872500D01*
X207899000Y-128460500D02*
X215265000Y-128460500D01*
X215265000Y-122872500D02*
X207899000Y-122872500D01*
X207899000Y-122872500D02*
X207899000Y-128460500D01*
X215265000Y-108648500D02*
X215265000Y-103060500D01*
X207899000Y-108648500D02*
X215265000Y-108648500D01*
X215265000Y-103060500D02*
X207899000Y-103060500D01*
X207899000Y-103060500D02*
X207899000Y-108648500D01*
X216916000Y-83248500D02*
X209550000Y-83248500D01*
X209550000Y-88836500D02*
X216916000Y-88836500D01*
X216916000Y-88836500D02*
X216916000Y-83248500D01*
X209550000Y-83248500D02*
X209550000Y-88836500D01*
X216916000Y-69024500D02*
X216916000Y-63436500D01*
X209550000Y-69024500D02*
X216916000Y-69024500D01*
X209550000Y-63436500D02*
X209550000Y-69024500D01*
X216916000Y-63436500D02*
X209550000Y-63436500D01*
X224282000Y-45402500D02*
X204089000Y-45402500D01*
X199459533Y-43557442D02*
X164268467Y-43557442D01*
X199728941Y-43669034D02*
G75*
G03X204089000Y-45402500I4360059J4616534D01*
G01*
X199728941Y-43669034D02*
G75*
G03X199459533Y-43557442I-269408J-269408D01*
G01*
X163999059Y-43669034D02*
G75*
G02X164268467Y-43557442I269408J-269408D01*
G01*
X163999059Y-43669034D02*
G75*
G02X159639000Y-45402500I-4360059J4616534D01*
G01*
X139446000Y-45402500D02*
X159639000Y-45402500D01*
X135001000Y-49847500D02*
X135001000Y-132397500D01*
X224282000Y-136842500D02*
X139446000Y-136842500D01*
X228727000Y-49847500D02*
X228727000Y-132397500D01*
D11*
X135001000Y-49847500D02*
G75*
G02X139446000Y-45402500I4445000J0D01*
G01*
X224282000Y-45402500D02*
G75*
G02X228727000Y-49847500I0J-4445000D01*
G01*
X228727000Y-132397500D02*
G75*
G02X224282000Y-136842500I-4445000J0D01*
G01*
X139446000Y-136842500D02*
G75*
G02X135001000Y-132397500I0J4445000D01*
G01*
M02*
