G04 #@! TF.GenerationSoftware,KiCad,Pcbnew,(5.1.5)-3*
G04 #@! TF.CreationDate,2020-07-02T20:42:19-07:00*
G04 #@! TF.ProjectId,keypadV2,6b657970-6164-4563-922e-6b696361645f,rev?*
G04 #@! TF.SameCoordinates,Original*
G04 #@! TF.FileFunction,Paste,Bot*
G04 #@! TF.FilePolarity,Positive*
%FSLAX46Y46*%
G04 Gerber Fmt 4.6, Leading zero omitted, Abs format (unit mm)*
G04 Created by KiCad (PCBNEW (5.1.5)-3) date 2020-07-02 20:42:19*
%MOMM*%
%LPD*%
G04 APERTURE LIST*
%ADD10C,0.050000*%
%ADD11C,0.120000*%
%ADD12R,1.500000X1.000000*%
%ADD13C,0.100000*%
%ADD14R,1.000000X1.000000*%
%ADD15R,1.300000X1.550000*%
%ADD16R,1.130000X2.440000*%
%ADD17R,2.550000X2.500000*%
G04 APERTURE END LIST*
D10*
X154178000Y-69024500D02*
X154178000Y-63436500D01*
X146812000Y-69024500D02*
X154178000Y-69024500D01*
X154178000Y-63436500D02*
X146812000Y-63436500D01*
X146812000Y-63436500D02*
X146812000Y-69024500D01*
X154178000Y-88836500D02*
X154178000Y-83248500D01*
X146812000Y-88836500D02*
X154178000Y-88836500D01*
X154178000Y-83248500D02*
X146812000Y-83248500D01*
X146812000Y-83248500D02*
X146812000Y-88836500D01*
X155829000Y-108648500D02*
X155829000Y-103060500D01*
X148463000Y-108648500D02*
X155829000Y-108648500D01*
X155829000Y-103060500D02*
X148463000Y-103060500D01*
X148463000Y-103060500D02*
X148463000Y-108648500D01*
X155829000Y-128460500D02*
X155829000Y-122872500D01*
X148463000Y-128460500D02*
X155829000Y-128460500D01*
X155829000Y-122872500D02*
X148463000Y-122872500D01*
X148463000Y-122872500D02*
X148463000Y-128460500D01*
X175641000Y-128460500D02*
X175641000Y-122872500D01*
X168275000Y-128460500D02*
X175641000Y-128460500D01*
X175641000Y-122872500D02*
X168275000Y-122872500D01*
X168275000Y-122872500D02*
X168275000Y-128460500D01*
X175641000Y-108648500D02*
X175641000Y-103060500D01*
X168275000Y-108648500D02*
X175641000Y-108648500D01*
X175641000Y-103060500D02*
X168275000Y-103060500D01*
X168275000Y-103060500D02*
X168275000Y-108648500D01*
X195453000Y-108648500D02*
X195453000Y-103060500D01*
X188087000Y-108648500D02*
X195453000Y-108648500D01*
X195453000Y-103060500D02*
X188087000Y-103060500D01*
X188087000Y-103060500D02*
X188087000Y-108648500D01*
X195453000Y-128460500D02*
X195453000Y-122872500D01*
X188087000Y-128460500D02*
X195453000Y-128460500D01*
X195453000Y-122872500D02*
X188087000Y-122872500D01*
X188087000Y-122872500D02*
X188087000Y-128460500D01*
X215265000Y-128460500D02*
X215265000Y-122872500D01*
X207899000Y-128460500D02*
X215265000Y-128460500D01*
X215265000Y-122872500D02*
X207899000Y-122872500D01*
X207899000Y-122872500D02*
X207899000Y-128460500D01*
X215265000Y-108648500D02*
X215265000Y-103060500D01*
X207899000Y-108648500D02*
X215265000Y-108648500D01*
X215265000Y-103060500D02*
X207899000Y-103060500D01*
X207899000Y-103060500D02*
X207899000Y-108648500D01*
X216916000Y-83248500D02*
X209550000Y-83248500D01*
X209550000Y-88836500D02*
X216916000Y-88836500D01*
X216916000Y-88836500D02*
X216916000Y-83248500D01*
X209550000Y-83248500D02*
X209550000Y-88836500D01*
X216916000Y-69024500D02*
X216916000Y-63436500D01*
X209550000Y-69024500D02*
X216916000Y-69024500D01*
X209550000Y-63436500D02*
X209550000Y-69024500D01*
X216916000Y-63436500D02*
X209550000Y-63436500D01*
X224282000Y-45402500D02*
X204089000Y-45402500D01*
X199459533Y-43557442D02*
X164268467Y-43557442D01*
X199728941Y-43669034D02*
G75*
G03X204089000Y-45402500I4360059J4616534D01*
G01*
X199728941Y-43669034D02*
G75*
G03X199459533Y-43557442I-269408J-269408D01*
G01*
X163999059Y-43669034D02*
G75*
G02X164268467Y-43557442I269408J-269408D01*
G01*
X163999059Y-43669034D02*
G75*
G02X159639000Y-45402500I-4360059J4616534D01*
G01*
X139446000Y-45402500D02*
X159639000Y-45402500D01*
X135001000Y-49847500D02*
X135001000Y-132397500D01*
X224282000Y-136842500D02*
X139446000Y-136842500D01*
X228727000Y-49847500D02*
X228727000Y-132397500D01*
D11*
X135001000Y-49847500D02*
G75*
G02X139446000Y-45402500I4445000J0D01*
G01*
X224282000Y-45402500D02*
G75*
G02X228727000Y-49847500I0J-4445000D01*
G01*
X228727000Y-132397500D02*
G75*
G02X224282000Y-136842500I-4445000J0D01*
G01*
X139446000Y-136842500D02*
G75*
G02X135001000Y-132397500I0J4445000D01*
G01*
D12*
X164502000Y-108826500D03*
X164502000Y-112026500D03*
X159602000Y-108826500D03*
X159602000Y-112026500D03*
D13*
G36*
X160724504Y-64975704D02*
G01*
X160748773Y-64979304D01*
X160772571Y-64985265D01*
X160795671Y-64993530D01*
X160817849Y-65004020D01*
X160838893Y-65016633D01*
X160858598Y-65031247D01*
X160876777Y-65047723D01*
X160893253Y-65065902D01*
X160907867Y-65085607D01*
X160920480Y-65106651D01*
X160930970Y-65128829D01*
X160939235Y-65151929D01*
X160945196Y-65175727D01*
X160948796Y-65199996D01*
X160950000Y-65224500D01*
X160950000Y-66474500D01*
X160948796Y-66499004D01*
X160945196Y-66523273D01*
X160939235Y-66547071D01*
X160930970Y-66570171D01*
X160920480Y-66592349D01*
X160907867Y-66613393D01*
X160893253Y-66633098D01*
X160876777Y-66651277D01*
X160858598Y-66667753D01*
X160838893Y-66682367D01*
X160817849Y-66694980D01*
X160795671Y-66705470D01*
X160772571Y-66713735D01*
X160748773Y-66719696D01*
X160724504Y-66723296D01*
X160700000Y-66724500D01*
X159775000Y-66724500D01*
X159750496Y-66723296D01*
X159726227Y-66719696D01*
X159702429Y-66713735D01*
X159679329Y-66705470D01*
X159657151Y-66694980D01*
X159636107Y-66682367D01*
X159616402Y-66667753D01*
X159598223Y-66651277D01*
X159581747Y-66633098D01*
X159567133Y-66613393D01*
X159554520Y-66592349D01*
X159544030Y-66570171D01*
X159535765Y-66547071D01*
X159529804Y-66523273D01*
X159526204Y-66499004D01*
X159525000Y-66474500D01*
X159525000Y-65224500D01*
X159526204Y-65199996D01*
X159529804Y-65175727D01*
X159535765Y-65151929D01*
X159544030Y-65128829D01*
X159554520Y-65106651D01*
X159567133Y-65085607D01*
X159581747Y-65065902D01*
X159598223Y-65047723D01*
X159616402Y-65031247D01*
X159636107Y-65016633D01*
X159657151Y-65004020D01*
X159679329Y-64993530D01*
X159702429Y-64985265D01*
X159726227Y-64979304D01*
X159750496Y-64975704D01*
X159775000Y-64974500D01*
X160700000Y-64974500D01*
X160724504Y-64975704D01*
G37*
G36*
X157749504Y-64975704D02*
G01*
X157773773Y-64979304D01*
X157797571Y-64985265D01*
X157820671Y-64993530D01*
X157842849Y-65004020D01*
X157863893Y-65016633D01*
X157883598Y-65031247D01*
X157901777Y-65047723D01*
X157918253Y-65065902D01*
X157932867Y-65085607D01*
X157945480Y-65106651D01*
X157955970Y-65128829D01*
X157964235Y-65151929D01*
X157970196Y-65175727D01*
X157973796Y-65199996D01*
X157975000Y-65224500D01*
X157975000Y-66474500D01*
X157973796Y-66499004D01*
X157970196Y-66523273D01*
X157964235Y-66547071D01*
X157955970Y-66570171D01*
X157945480Y-66592349D01*
X157932867Y-66613393D01*
X157918253Y-66633098D01*
X157901777Y-66651277D01*
X157883598Y-66667753D01*
X157863893Y-66682367D01*
X157842849Y-66694980D01*
X157820671Y-66705470D01*
X157797571Y-66713735D01*
X157773773Y-66719696D01*
X157749504Y-66723296D01*
X157725000Y-66724500D01*
X156800000Y-66724500D01*
X156775496Y-66723296D01*
X156751227Y-66719696D01*
X156727429Y-66713735D01*
X156704329Y-66705470D01*
X156682151Y-66694980D01*
X156661107Y-66682367D01*
X156641402Y-66667753D01*
X156623223Y-66651277D01*
X156606747Y-66633098D01*
X156592133Y-66613393D01*
X156579520Y-66592349D01*
X156569030Y-66570171D01*
X156560765Y-66547071D01*
X156554804Y-66523273D01*
X156551204Y-66499004D01*
X156550000Y-66474500D01*
X156550000Y-65224500D01*
X156551204Y-65199996D01*
X156554804Y-65175727D01*
X156560765Y-65151929D01*
X156569030Y-65128829D01*
X156579520Y-65106651D01*
X156592133Y-65085607D01*
X156606747Y-65065902D01*
X156623223Y-65047723D01*
X156641402Y-65031247D01*
X156661107Y-65016633D01*
X156682151Y-65004020D01*
X156704329Y-64993530D01*
X156727429Y-64985265D01*
X156751227Y-64979304D01*
X156775496Y-64975704D01*
X156800000Y-64974500D01*
X157725000Y-64974500D01*
X157749504Y-64975704D01*
G37*
G36*
X164026504Y-104980704D02*
G01*
X164050773Y-104984304D01*
X164074571Y-104990265D01*
X164097671Y-104998530D01*
X164119849Y-105009020D01*
X164140893Y-105021633D01*
X164160598Y-105036247D01*
X164178777Y-105052723D01*
X164195253Y-105070902D01*
X164209867Y-105090607D01*
X164222480Y-105111651D01*
X164232970Y-105133829D01*
X164241235Y-105156929D01*
X164247196Y-105180727D01*
X164250796Y-105204996D01*
X164252000Y-105229500D01*
X164252000Y-106479500D01*
X164250796Y-106504004D01*
X164247196Y-106528273D01*
X164241235Y-106552071D01*
X164232970Y-106575171D01*
X164222480Y-106597349D01*
X164209867Y-106618393D01*
X164195253Y-106638098D01*
X164178777Y-106656277D01*
X164160598Y-106672753D01*
X164140893Y-106687367D01*
X164119849Y-106699980D01*
X164097671Y-106710470D01*
X164074571Y-106718735D01*
X164050773Y-106724696D01*
X164026504Y-106728296D01*
X164002000Y-106729500D01*
X163077000Y-106729500D01*
X163052496Y-106728296D01*
X163028227Y-106724696D01*
X163004429Y-106718735D01*
X162981329Y-106710470D01*
X162959151Y-106699980D01*
X162938107Y-106687367D01*
X162918402Y-106672753D01*
X162900223Y-106656277D01*
X162883747Y-106638098D01*
X162869133Y-106618393D01*
X162856520Y-106597349D01*
X162846030Y-106575171D01*
X162837765Y-106552071D01*
X162831804Y-106528273D01*
X162828204Y-106504004D01*
X162827000Y-106479500D01*
X162827000Y-105229500D01*
X162828204Y-105204996D01*
X162831804Y-105180727D01*
X162837765Y-105156929D01*
X162846030Y-105133829D01*
X162856520Y-105111651D01*
X162869133Y-105090607D01*
X162883747Y-105070902D01*
X162900223Y-105052723D01*
X162918402Y-105036247D01*
X162938107Y-105021633D01*
X162959151Y-105009020D01*
X162981329Y-104998530D01*
X163004429Y-104990265D01*
X163028227Y-104984304D01*
X163052496Y-104980704D01*
X163077000Y-104979500D01*
X164002000Y-104979500D01*
X164026504Y-104980704D01*
G37*
G36*
X161051504Y-104980704D02*
G01*
X161075773Y-104984304D01*
X161099571Y-104990265D01*
X161122671Y-104998530D01*
X161144849Y-105009020D01*
X161165893Y-105021633D01*
X161185598Y-105036247D01*
X161203777Y-105052723D01*
X161220253Y-105070902D01*
X161234867Y-105090607D01*
X161247480Y-105111651D01*
X161257970Y-105133829D01*
X161266235Y-105156929D01*
X161272196Y-105180727D01*
X161275796Y-105204996D01*
X161277000Y-105229500D01*
X161277000Y-106479500D01*
X161275796Y-106504004D01*
X161272196Y-106528273D01*
X161266235Y-106552071D01*
X161257970Y-106575171D01*
X161247480Y-106597349D01*
X161234867Y-106618393D01*
X161220253Y-106638098D01*
X161203777Y-106656277D01*
X161185598Y-106672753D01*
X161165893Y-106687367D01*
X161144849Y-106699980D01*
X161122671Y-106710470D01*
X161099571Y-106718735D01*
X161075773Y-106724696D01*
X161051504Y-106728296D01*
X161027000Y-106729500D01*
X160102000Y-106729500D01*
X160077496Y-106728296D01*
X160053227Y-106724696D01*
X160029429Y-106718735D01*
X160006329Y-106710470D01*
X159984151Y-106699980D01*
X159963107Y-106687367D01*
X159943402Y-106672753D01*
X159925223Y-106656277D01*
X159908747Y-106638098D01*
X159894133Y-106618393D01*
X159881520Y-106597349D01*
X159871030Y-106575171D01*
X159862765Y-106552071D01*
X159856804Y-106528273D01*
X159853204Y-106504004D01*
X159852000Y-106479500D01*
X159852000Y-105229500D01*
X159853204Y-105204996D01*
X159856804Y-105180727D01*
X159862765Y-105156929D01*
X159871030Y-105133829D01*
X159881520Y-105111651D01*
X159894133Y-105090607D01*
X159908747Y-105070902D01*
X159925223Y-105052723D01*
X159943402Y-105036247D01*
X159963107Y-105021633D01*
X159984151Y-105009020D01*
X160006329Y-104998530D01*
X160029429Y-104990265D01*
X160053227Y-104984304D01*
X160077496Y-104980704D01*
X160102000Y-104979500D01*
X161027000Y-104979500D01*
X161051504Y-104980704D01*
G37*
G36*
X203650504Y-104980704D02*
G01*
X203674773Y-104984304D01*
X203698571Y-104990265D01*
X203721671Y-104998530D01*
X203743849Y-105009020D01*
X203764893Y-105021633D01*
X203784598Y-105036247D01*
X203802777Y-105052723D01*
X203819253Y-105070902D01*
X203833867Y-105090607D01*
X203846480Y-105111651D01*
X203856970Y-105133829D01*
X203865235Y-105156929D01*
X203871196Y-105180727D01*
X203874796Y-105204996D01*
X203876000Y-105229500D01*
X203876000Y-106479500D01*
X203874796Y-106504004D01*
X203871196Y-106528273D01*
X203865235Y-106552071D01*
X203856970Y-106575171D01*
X203846480Y-106597349D01*
X203833867Y-106618393D01*
X203819253Y-106638098D01*
X203802777Y-106656277D01*
X203784598Y-106672753D01*
X203764893Y-106687367D01*
X203743849Y-106699980D01*
X203721671Y-106710470D01*
X203698571Y-106718735D01*
X203674773Y-106724696D01*
X203650504Y-106728296D01*
X203626000Y-106729500D01*
X202701000Y-106729500D01*
X202676496Y-106728296D01*
X202652227Y-106724696D01*
X202628429Y-106718735D01*
X202605329Y-106710470D01*
X202583151Y-106699980D01*
X202562107Y-106687367D01*
X202542402Y-106672753D01*
X202524223Y-106656277D01*
X202507747Y-106638098D01*
X202493133Y-106618393D01*
X202480520Y-106597349D01*
X202470030Y-106575171D01*
X202461765Y-106552071D01*
X202455804Y-106528273D01*
X202452204Y-106504004D01*
X202451000Y-106479500D01*
X202451000Y-105229500D01*
X202452204Y-105204996D01*
X202455804Y-105180727D01*
X202461765Y-105156929D01*
X202470030Y-105133829D01*
X202480520Y-105111651D01*
X202493133Y-105090607D01*
X202507747Y-105070902D01*
X202524223Y-105052723D01*
X202542402Y-105036247D01*
X202562107Y-105021633D01*
X202583151Y-105009020D01*
X202605329Y-104998530D01*
X202628429Y-104990265D01*
X202652227Y-104984304D01*
X202676496Y-104980704D01*
X202701000Y-104979500D01*
X203626000Y-104979500D01*
X203650504Y-104980704D01*
G37*
G36*
X200675504Y-104980704D02*
G01*
X200699773Y-104984304D01*
X200723571Y-104990265D01*
X200746671Y-104998530D01*
X200768849Y-105009020D01*
X200789893Y-105021633D01*
X200809598Y-105036247D01*
X200827777Y-105052723D01*
X200844253Y-105070902D01*
X200858867Y-105090607D01*
X200871480Y-105111651D01*
X200881970Y-105133829D01*
X200890235Y-105156929D01*
X200896196Y-105180727D01*
X200899796Y-105204996D01*
X200901000Y-105229500D01*
X200901000Y-106479500D01*
X200899796Y-106504004D01*
X200896196Y-106528273D01*
X200890235Y-106552071D01*
X200881970Y-106575171D01*
X200871480Y-106597349D01*
X200858867Y-106618393D01*
X200844253Y-106638098D01*
X200827777Y-106656277D01*
X200809598Y-106672753D01*
X200789893Y-106687367D01*
X200768849Y-106699980D01*
X200746671Y-106710470D01*
X200723571Y-106718735D01*
X200699773Y-106724696D01*
X200675504Y-106728296D01*
X200651000Y-106729500D01*
X199726000Y-106729500D01*
X199701496Y-106728296D01*
X199677227Y-106724696D01*
X199653429Y-106718735D01*
X199630329Y-106710470D01*
X199608151Y-106699980D01*
X199587107Y-106687367D01*
X199567402Y-106672753D01*
X199549223Y-106656277D01*
X199532747Y-106638098D01*
X199518133Y-106618393D01*
X199505520Y-106597349D01*
X199495030Y-106575171D01*
X199486765Y-106552071D01*
X199480804Y-106528273D01*
X199477204Y-106504004D01*
X199476000Y-106479500D01*
X199476000Y-105229500D01*
X199477204Y-105204996D01*
X199480804Y-105180727D01*
X199486765Y-105156929D01*
X199495030Y-105133829D01*
X199505520Y-105111651D01*
X199518133Y-105090607D01*
X199532747Y-105070902D01*
X199549223Y-105052723D01*
X199567402Y-105036247D01*
X199587107Y-105021633D01*
X199608151Y-105009020D01*
X199630329Y-104998530D01*
X199653429Y-104990265D01*
X199677227Y-104984304D01*
X199701496Y-104980704D01*
X199726000Y-104979500D01*
X200651000Y-104979500D01*
X200675504Y-104980704D01*
G37*
D14*
X145181000Y-52387500D03*
X147681000Y-52387500D03*
X143784000Y-72072500D03*
X146284000Y-72072500D03*
X202839000Y-75628500D03*
X205339000Y-75628500D03*
X204724000Y-55542500D03*
X204724000Y-53042500D03*
X148316000Y-91884500D03*
X145816000Y-91884500D03*
X163576000Y-95166500D03*
X163576000Y-92666500D03*
X183388000Y-92666500D03*
X183388000Y-95166500D03*
X203200000Y-92666500D03*
X203200000Y-95166500D03*
X148316000Y-111696500D03*
X145816000Y-111696500D03*
X161798000Y-116629500D03*
X161798000Y-114129500D03*
X183388000Y-112478500D03*
X183388000Y-114978500D03*
X201295000Y-117772500D03*
X201295000Y-115272500D03*
D13*
G36*
X210707504Y-51258704D02*
G01*
X210731773Y-51262304D01*
X210755571Y-51268265D01*
X210778671Y-51276530D01*
X210800849Y-51287020D01*
X210821893Y-51299633D01*
X210841598Y-51314247D01*
X210859777Y-51330723D01*
X210876253Y-51348902D01*
X210890867Y-51368607D01*
X210903480Y-51389651D01*
X210913970Y-51411829D01*
X210922235Y-51434929D01*
X210928196Y-51458727D01*
X210931796Y-51482996D01*
X210933000Y-51507500D01*
X210933000Y-52432500D01*
X210931796Y-52457004D01*
X210928196Y-52481273D01*
X210922235Y-52505071D01*
X210913970Y-52528171D01*
X210903480Y-52550349D01*
X210890867Y-52571393D01*
X210876253Y-52591098D01*
X210859777Y-52609277D01*
X210841598Y-52625753D01*
X210821893Y-52640367D01*
X210800849Y-52652980D01*
X210778671Y-52663470D01*
X210755571Y-52671735D01*
X210731773Y-52677696D01*
X210707504Y-52681296D01*
X210683000Y-52682500D01*
X209433000Y-52682500D01*
X209408496Y-52681296D01*
X209384227Y-52677696D01*
X209360429Y-52671735D01*
X209337329Y-52663470D01*
X209315151Y-52652980D01*
X209294107Y-52640367D01*
X209274402Y-52625753D01*
X209256223Y-52609277D01*
X209239747Y-52591098D01*
X209225133Y-52571393D01*
X209212520Y-52550349D01*
X209202030Y-52528171D01*
X209193765Y-52505071D01*
X209187804Y-52481273D01*
X209184204Y-52457004D01*
X209183000Y-52432500D01*
X209183000Y-51507500D01*
X209184204Y-51482996D01*
X209187804Y-51458727D01*
X209193765Y-51434929D01*
X209202030Y-51411829D01*
X209212520Y-51389651D01*
X209225133Y-51368607D01*
X209239747Y-51348902D01*
X209256223Y-51330723D01*
X209274402Y-51314247D01*
X209294107Y-51299633D01*
X209315151Y-51287020D01*
X209337329Y-51276530D01*
X209360429Y-51268265D01*
X209384227Y-51262304D01*
X209408496Y-51258704D01*
X209433000Y-51257500D01*
X210683000Y-51257500D01*
X210707504Y-51258704D01*
G37*
G36*
X210707504Y-48283704D02*
G01*
X210731773Y-48287304D01*
X210755571Y-48293265D01*
X210778671Y-48301530D01*
X210800849Y-48312020D01*
X210821893Y-48324633D01*
X210841598Y-48339247D01*
X210859777Y-48355723D01*
X210876253Y-48373902D01*
X210890867Y-48393607D01*
X210903480Y-48414651D01*
X210913970Y-48436829D01*
X210922235Y-48459929D01*
X210928196Y-48483727D01*
X210931796Y-48507996D01*
X210933000Y-48532500D01*
X210933000Y-49457500D01*
X210931796Y-49482004D01*
X210928196Y-49506273D01*
X210922235Y-49530071D01*
X210913970Y-49553171D01*
X210903480Y-49575349D01*
X210890867Y-49596393D01*
X210876253Y-49616098D01*
X210859777Y-49634277D01*
X210841598Y-49650753D01*
X210821893Y-49665367D01*
X210800849Y-49677980D01*
X210778671Y-49688470D01*
X210755571Y-49696735D01*
X210731773Y-49702696D01*
X210707504Y-49706296D01*
X210683000Y-49707500D01*
X209433000Y-49707500D01*
X209408496Y-49706296D01*
X209384227Y-49702696D01*
X209360429Y-49696735D01*
X209337329Y-49688470D01*
X209315151Y-49677980D01*
X209294107Y-49665367D01*
X209274402Y-49650753D01*
X209256223Y-49634277D01*
X209239747Y-49616098D01*
X209225133Y-49596393D01*
X209212520Y-49575349D01*
X209202030Y-49553171D01*
X209193765Y-49530071D01*
X209187804Y-49506273D01*
X209184204Y-49482004D01*
X209183000Y-49457500D01*
X209183000Y-48532500D01*
X209184204Y-48507996D01*
X209187804Y-48483727D01*
X209193765Y-48459929D01*
X209202030Y-48436829D01*
X209212520Y-48414651D01*
X209225133Y-48393607D01*
X209239747Y-48373902D01*
X209256223Y-48355723D01*
X209274402Y-48339247D01*
X209294107Y-48324633D01*
X209315151Y-48312020D01*
X209337329Y-48301530D01*
X209360429Y-48293265D01*
X209384227Y-48287304D01*
X209408496Y-48283704D01*
X209433000Y-48282500D01*
X210683000Y-48282500D01*
X210707504Y-48283704D01*
G37*
D12*
X156363500Y-71577000D03*
X156363500Y-68377000D03*
X161263500Y-71577000D03*
X161263500Y-68377000D03*
X199353000Y-111899500D03*
X199353000Y-108699500D03*
X204253000Y-111899500D03*
X204253000Y-108699500D03*
X202020000Y-72402500D03*
X202020000Y-69202500D03*
X206920000Y-72402500D03*
X206920000Y-69202500D03*
D13*
G36*
X207913504Y-48283704D02*
G01*
X207937773Y-48287304D01*
X207961571Y-48293265D01*
X207984671Y-48301530D01*
X208006849Y-48312020D01*
X208027893Y-48324633D01*
X208047598Y-48339247D01*
X208065777Y-48355723D01*
X208082253Y-48373902D01*
X208096867Y-48393607D01*
X208109480Y-48414651D01*
X208119970Y-48436829D01*
X208128235Y-48459929D01*
X208134196Y-48483727D01*
X208137796Y-48507996D01*
X208139000Y-48532500D01*
X208139000Y-49457500D01*
X208137796Y-49482004D01*
X208134196Y-49506273D01*
X208128235Y-49530071D01*
X208119970Y-49553171D01*
X208109480Y-49575349D01*
X208096867Y-49596393D01*
X208082253Y-49616098D01*
X208065777Y-49634277D01*
X208047598Y-49650753D01*
X208027893Y-49665367D01*
X208006849Y-49677980D01*
X207984671Y-49688470D01*
X207961571Y-49696735D01*
X207937773Y-49702696D01*
X207913504Y-49706296D01*
X207889000Y-49707500D01*
X206639000Y-49707500D01*
X206614496Y-49706296D01*
X206590227Y-49702696D01*
X206566429Y-49696735D01*
X206543329Y-49688470D01*
X206521151Y-49677980D01*
X206500107Y-49665367D01*
X206480402Y-49650753D01*
X206462223Y-49634277D01*
X206445747Y-49616098D01*
X206431133Y-49596393D01*
X206418520Y-49575349D01*
X206408030Y-49553171D01*
X206399765Y-49530071D01*
X206393804Y-49506273D01*
X206390204Y-49482004D01*
X206389000Y-49457500D01*
X206389000Y-48532500D01*
X206390204Y-48507996D01*
X206393804Y-48483727D01*
X206399765Y-48459929D01*
X206408030Y-48436829D01*
X206418520Y-48414651D01*
X206431133Y-48393607D01*
X206445747Y-48373902D01*
X206462223Y-48355723D01*
X206480402Y-48339247D01*
X206500107Y-48324633D01*
X206521151Y-48312020D01*
X206543329Y-48301530D01*
X206566429Y-48293265D01*
X206590227Y-48287304D01*
X206614496Y-48283704D01*
X206639000Y-48282500D01*
X207889000Y-48282500D01*
X207913504Y-48283704D01*
G37*
G36*
X207913504Y-51258704D02*
G01*
X207937773Y-51262304D01*
X207961571Y-51268265D01*
X207984671Y-51276530D01*
X208006849Y-51287020D01*
X208027893Y-51299633D01*
X208047598Y-51314247D01*
X208065777Y-51330723D01*
X208082253Y-51348902D01*
X208096867Y-51368607D01*
X208109480Y-51389651D01*
X208119970Y-51411829D01*
X208128235Y-51434929D01*
X208134196Y-51458727D01*
X208137796Y-51482996D01*
X208139000Y-51507500D01*
X208139000Y-52432500D01*
X208137796Y-52457004D01*
X208134196Y-52481273D01*
X208128235Y-52505071D01*
X208119970Y-52528171D01*
X208109480Y-52550349D01*
X208096867Y-52571393D01*
X208082253Y-52591098D01*
X208065777Y-52609277D01*
X208047598Y-52625753D01*
X208027893Y-52640367D01*
X208006849Y-52652980D01*
X207984671Y-52663470D01*
X207961571Y-52671735D01*
X207937773Y-52677696D01*
X207913504Y-52681296D01*
X207889000Y-52682500D01*
X206639000Y-52682500D01*
X206614496Y-52681296D01*
X206590227Y-52677696D01*
X206566429Y-52671735D01*
X206543329Y-52663470D01*
X206521151Y-52652980D01*
X206500107Y-52640367D01*
X206480402Y-52625753D01*
X206462223Y-52609277D01*
X206445747Y-52591098D01*
X206431133Y-52571393D01*
X206418520Y-52550349D01*
X206408030Y-52528171D01*
X206399765Y-52505071D01*
X206393804Y-52481273D01*
X206390204Y-52457004D01*
X206389000Y-52432500D01*
X206389000Y-51507500D01*
X206390204Y-51482996D01*
X206393804Y-51458727D01*
X206399765Y-51434929D01*
X206408030Y-51411829D01*
X206418520Y-51389651D01*
X206431133Y-51368607D01*
X206445747Y-51348902D01*
X206462223Y-51330723D01*
X206480402Y-51314247D01*
X206500107Y-51299633D01*
X206521151Y-51287020D01*
X206543329Y-51276530D01*
X206566429Y-51268265D01*
X206590227Y-51262304D01*
X206614496Y-51258704D01*
X206639000Y-51257500D01*
X207889000Y-51257500D01*
X207913504Y-51258704D01*
G37*
D15*
X170398000Y-59017000D03*
X170398000Y-66967000D03*
X165898000Y-59017000D03*
X165898000Y-66967000D03*
X165898000Y-79159000D03*
X165898000Y-71209000D03*
X170398000Y-79159000D03*
X170398000Y-71209000D03*
X194600000Y-77381000D03*
X194600000Y-69431000D03*
X199100000Y-77381000D03*
X199100000Y-69431000D03*
D16*
X199898000Y-56147000D03*
X199898000Y-64757000D03*
X197358000Y-56147000D03*
X197358000Y-64757000D03*
X194818000Y-56147000D03*
X194818000Y-64757000D03*
D17*
X156785000Y-55816500D03*
X142935000Y-58356500D03*
X142935000Y-78168500D03*
X156785000Y-75628500D03*
X219523000Y-75628500D03*
X205673000Y-78168500D03*
X205673000Y-58356500D03*
X219523000Y-55816500D03*
X158436000Y-95440500D03*
X144586000Y-97980500D03*
X178248000Y-95440500D03*
X164398000Y-97980500D03*
X184210000Y-97980500D03*
X198060000Y-95440500D03*
X217872000Y-95440500D03*
X204022000Y-97980500D03*
X144586000Y-117792500D03*
X158436000Y-115252500D03*
X164398000Y-117792500D03*
X178248000Y-115252500D03*
X198060000Y-115252500D03*
X184210000Y-117792500D03*
X204022000Y-117792500D03*
X217872000Y-115252500D03*
D13*
G36*
X140349504Y-58307204D02*
G01*
X140373773Y-58310804D01*
X140397571Y-58316765D01*
X140420671Y-58325030D01*
X140442849Y-58335520D01*
X140463893Y-58348133D01*
X140483598Y-58362747D01*
X140501777Y-58379223D01*
X140518253Y-58397402D01*
X140532867Y-58417107D01*
X140545480Y-58438151D01*
X140555970Y-58460329D01*
X140564235Y-58483429D01*
X140570196Y-58507227D01*
X140573796Y-58531496D01*
X140575000Y-58556000D01*
X140575000Y-59481000D01*
X140573796Y-59505504D01*
X140570196Y-59529773D01*
X140564235Y-59553571D01*
X140555970Y-59576671D01*
X140545480Y-59598849D01*
X140532867Y-59619893D01*
X140518253Y-59639598D01*
X140501777Y-59657777D01*
X140483598Y-59674253D01*
X140463893Y-59688867D01*
X140442849Y-59701480D01*
X140420671Y-59711970D01*
X140397571Y-59720235D01*
X140373773Y-59726196D01*
X140349504Y-59729796D01*
X140325000Y-59731000D01*
X139075000Y-59731000D01*
X139050496Y-59729796D01*
X139026227Y-59726196D01*
X139002429Y-59720235D01*
X138979329Y-59711970D01*
X138957151Y-59701480D01*
X138936107Y-59688867D01*
X138916402Y-59674253D01*
X138898223Y-59657777D01*
X138881747Y-59639598D01*
X138867133Y-59619893D01*
X138854520Y-59598849D01*
X138844030Y-59576671D01*
X138835765Y-59553571D01*
X138829804Y-59529773D01*
X138826204Y-59505504D01*
X138825000Y-59481000D01*
X138825000Y-58556000D01*
X138826204Y-58531496D01*
X138829804Y-58507227D01*
X138835765Y-58483429D01*
X138844030Y-58460329D01*
X138854520Y-58438151D01*
X138867133Y-58417107D01*
X138881747Y-58397402D01*
X138898223Y-58379223D01*
X138916402Y-58362747D01*
X138936107Y-58348133D01*
X138957151Y-58335520D01*
X138979329Y-58325030D01*
X139002429Y-58316765D01*
X139026227Y-58310804D01*
X139050496Y-58307204D01*
X139075000Y-58306000D01*
X140325000Y-58306000D01*
X140349504Y-58307204D01*
G37*
G36*
X140349504Y-55332204D02*
G01*
X140373773Y-55335804D01*
X140397571Y-55341765D01*
X140420671Y-55350030D01*
X140442849Y-55360520D01*
X140463893Y-55373133D01*
X140483598Y-55387747D01*
X140501777Y-55404223D01*
X140518253Y-55422402D01*
X140532867Y-55442107D01*
X140545480Y-55463151D01*
X140555970Y-55485329D01*
X140564235Y-55508429D01*
X140570196Y-55532227D01*
X140573796Y-55556496D01*
X140575000Y-55581000D01*
X140575000Y-56506000D01*
X140573796Y-56530504D01*
X140570196Y-56554773D01*
X140564235Y-56578571D01*
X140555970Y-56601671D01*
X140545480Y-56623849D01*
X140532867Y-56644893D01*
X140518253Y-56664598D01*
X140501777Y-56682777D01*
X140483598Y-56699253D01*
X140463893Y-56713867D01*
X140442849Y-56726480D01*
X140420671Y-56736970D01*
X140397571Y-56745235D01*
X140373773Y-56751196D01*
X140349504Y-56754796D01*
X140325000Y-56756000D01*
X139075000Y-56756000D01*
X139050496Y-56754796D01*
X139026227Y-56751196D01*
X139002429Y-56745235D01*
X138979329Y-56736970D01*
X138957151Y-56726480D01*
X138936107Y-56713867D01*
X138916402Y-56699253D01*
X138898223Y-56682777D01*
X138881747Y-56664598D01*
X138867133Y-56644893D01*
X138854520Y-56623849D01*
X138844030Y-56601671D01*
X138835765Y-56578571D01*
X138829804Y-56554773D01*
X138826204Y-56530504D01*
X138825000Y-56506000D01*
X138825000Y-55581000D01*
X138826204Y-55556496D01*
X138829804Y-55532227D01*
X138835765Y-55508429D01*
X138844030Y-55485329D01*
X138854520Y-55463151D01*
X138867133Y-55442107D01*
X138881747Y-55422402D01*
X138898223Y-55404223D01*
X138916402Y-55387747D01*
X138936107Y-55373133D01*
X138957151Y-55360520D01*
X138979329Y-55350030D01*
X139002429Y-55341765D01*
X139026227Y-55335804D01*
X139050496Y-55332204D01*
X139075000Y-55331000D01*
X140325000Y-55331000D01*
X140349504Y-55332204D01*
G37*
M02*
