M48
; DRILL file {KiCad (5.1.5)-3} date 7/2/2020 8:42:22 PM
; FORMAT={-:-/ absolute / inch / decimal}
; #@! TF.CreationDate,2020-07-02T20:42:22-07:00
; #@! TF.GenerationSoftware,Kicad,Pcbnew,(5.1.5)-3
; #@! TF.FileFunction,Plated,1,2,PTH
FMAT,2
INCH
T1C0.0118
T2C0.0157
T3C0.0276
T4C0.0394
T5C0.0433
T6C0.1260
%
G90
G05
T1
X5.8142Y-2.0625
X5.93Y-1.9855
X6.1915Y-2.592
X6.2376Y-3.7575
X6.2376Y-4.5375
X6.3086Y-2.5925
X6.3675Y-1.9
X7.1125Y-3.7658
X7.15Y-3.76
X7.22Y-3.65
X7.22Y-4.5267
X7.252Y-4.6355
X7.925Y-4.5383
X7.9925Y-4.0725
X8.0Y-3.6483
X8.0375Y-3.6075
X8.1075Y-4.4575
T2
X5.5825Y-3.5225
X5.64Y-2.12
X5.87Y-3.5225
X6.29Y-3.92
X6.29Y-3.96
X6.29Y-4.0
X6.29Y-4.04
X6.33Y-3.92
X6.33Y-3.96
X6.33Y-4.0
X6.33Y-4.04
X6.36Y-3.03
X6.395Y-3.155
X6.44Y-3.22
X6.4765Y-4.4105
X6.495Y-3.305
X6.495Y-3.615
X6.97Y-2.935
X7.015Y-2.0364
X7.015Y-2.1536
X7.03Y-3.06
X7.125Y-2.155
X7.37Y-2.6
X7.38Y-2.705
X7.6614Y-2.7335
X7.9535Y-2.8505
X8.005Y-3.995
X8.085Y-3.55
X8.12Y-2.9019
T3
X7.7Y-2.34
X7.73Y-2.39
X7.77Y-2.34
X7.8Y-2.39
X7.84Y-2.34
X8.47Y-1.91
X8.47Y-1.97
X8.47Y-2.03
X8.53Y-1.91
X8.53Y-1.97
X8.53Y-2.03
X8.59Y-1.91
X8.59Y-1.97
X8.59Y-2.03
T4
X6.9575Y-3.455
X7.0575Y-3.455
X7.1575Y-3.455
X7.2575Y-3.455
X7.3575Y-3.455
X7.4575Y-3.455
X7.5575Y-3.455
X5.4Y-2.4475
X5.5Y-2.4475
X5.6Y-2.4475
X8.72Y-2.4475
X8.82Y-2.4475
X8.92Y-2.4475
T5
X6.86Y-1.82
X6.86Y-1.92
X6.86Y-2.02
X6.86Y-2.12
X6.86Y-2.22
X6.86Y-2.32
X6.86Y-2.42
X6.86Y-2.52
X6.86Y-2.62
X6.86Y-2.72
X6.86Y-2.82
X6.86Y-2.92
X6.86Y-3.02
X6.86Y-3.12
X6.96Y-3.12
X7.06Y-3.12
X7.16Y-3.12
X7.26Y-3.12
X7.36Y-3.12
X7.46Y-1.82
X7.46Y-1.92
X7.46Y-2.02
X7.46Y-2.12
X7.46Y-2.22
X7.46Y-2.32
X7.46Y-2.42
X7.46Y-2.52
X7.46Y-2.62
X7.46Y-2.72
X7.46Y-2.82
X7.46Y-2.92
X7.46Y-3.02
X7.46Y-3.12
T6
X6.627Y-1.9
X6.627Y-3.455
X7.887Y-1.9
X7.887Y-3.455
T0
M30
