G04 #@! TF.GenerationSoftware,KiCad,Pcbnew,(5.1.5)-3*
G04 #@! TF.CreationDate,2020-07-02T20:42:19-07:00*
G04 #@! TF.ProjectId,keypadV2,6b657970-6164-4563-922e-6b696361645f,rev?*
G04 #@! TF.SameCoordinates,Original*
G04 #@! TF.FileFunction,Legend,Top*
G04 #@! TF.FilePolarity,Positive*
%FSLAX46Y46*%
G04 Gerber Fmt 4.6, Leading zero omitted, Abs format (unit mm)*
G04 Created by KiCad (PCBNEW (5.1.5)-3) date 2020-07-02 20:42:19*
%MOMM*%
%LPD*%
G04 APERTURE LIST*
%ADD10C,0.050000*%
%ADD11C,0.120000*%
%ADD12C,0.150000*%
G04 APERTURE END LIST*
D10*
X154178000Y-69024500D02*
X154178000Y-63436500D01*
X146812000Y-69024500D02*
X154178000Y-69024500D01*
X154178000Y-63436500D02*
X146812000Y-63436500D01*
X146812000Y-63436500D02*
X146812000Y-69024500D01*
X154178000Y-88836500D02*
X154178000Y-83248500D01*
X146812000Y-88836500D02*
X154178000Y-88836500D01*
X154178000Y-83248500D02*
X146812000Y-83248500D01*
X146812000Y-83248500D02*
X146812000Y-88836500D01*
X155829000Y-108648500D02*
X155829000Y-103060500D01*
X148463000Y-108648500D02*
X155829000Y-108648500D01*
X155829000Y-103060500D02*
X148463000Y-103060500D01*
X148463000Y-103060500D02*
X148463000Y-108648500D01*
X155829000Y-128460500D02*
X155829000Y-122872500D01*
X148463000Y-128460500D02*
X155829000Y-128460500D01*
X155829000Y-122872500D02*
X148463000Y-122872500D01*
X148463000Y-122872500D02*
X148463000Y-128460500D01*
X175641000Y-128460500D02*
X175641000Y-122872500D01*
X168275000Y-128460500D02*
X175641000Y-128460500D01*
X175641000Y-122872500D02*
X168275000Y-122872500D01*
X168275000Y-122872500D02*
X168275000Y-128460500D01*
X175641000Y-108648500D02*
X175641000Y-103060500D01*
X168275000Y-108648500D02*
X175641000Y-108648500D01*
X175641000Y-103060500D02*
X168275000Y-103060500D01*
X168275000Y-103060500D02*
X168275000Y-108648500D01*
X195453000Y-108648500D02*
X195453000Y-103060500D01*
X188087000Y-108648500D02*
X195453000Y-108648500D01*
X195453000Y-103060500D02*
X188087000Y-103060500D01*
X188087000Y-103060500D02*
X188087000Y-108648500D01*
X195453000Y-128460500D02*
X195453000Y-122872500D01*
X188087000Y-128460500D02*
X195453000Y-128460500D01*
X195453000Y-122872500D02*
X188087000Y-122872500D01*
X188087000Y-122872500D02*
X188087000Y-128460500D01*
X215265000Y-128460500D02*
X215265000Y-122872500D01*
X207899000Y-128460500D02*
X215265000Y-128460500D01*
X215265000Y-122872500D02*
X207899000Y-122872500D01*
X207899000Y-122872500D02*
X207899000Y-128460500D01*
X215265000Y-108648500D02*
X215265000Y-103060500D01*
X207899000Y-108648500D02*
X215265000Y-108648500D01*
X215265000Y-103060500D02*
X207899000Y-103060500D01*
X207899000Y-103060500D02*
X207899000Y-108648500D01*
X216916000Y-83248500D02*
X209550000Y-83248500D01*
X209550000Y-88836500D02*
X216916000Y-88836500D01*
X216916000Y-88836500D02*
X216916000Y-83248500D01*
X209550000Y-83248500D02*
X209550000Y-88836500D01*
X216916000Y-69024500D02*
X216916000Y-63436500D01*
X209550000Y-69024500D02*
X216916000Y-69024500D01*
X209550000Y-63436500D02*
X209550000Y-69024500D01*
X216916000Y-63436500D02*
X209550000Y-63436500D01*
X224282000Y-45402500D02*
X204089000Y-45402500D01*
X199459533Y-43557442D02*
X164268467Y-43557442D01*
X199728941Y-43669034D02*
G75*
G03X204089000Y-45402500I4360059J4616534D01*
G01*
X199728941Y-43669034D02*
G75*
G03X199459533Y-43557442I-269408J-269408D01*
G01*
X163999059Y-43669034D02*
G75*
G02X164268467Y-43557442I269408J-269408D01*
G01*
X163999059Y-43669034D02*
G75*
G02X159639000Y-45402500I-4360059J4616534D01*
G01*
X139446000Y-45402500D02*
X159639000Y-45402500D01*
X135001000Y-49847500D02*
X135001000Y-132397500D01*
X224282000Y-136842500D02*
X139446000Y-136842500D01*
X228727000Y-49847500D02*
X228727000Y-132397500D01*
D11*
X135001000Y-49847500D02*
G75*
G02X139446000Y-45402500I4445000J0D01*
G01*
X224282000Y-45402500D02*
G75*
G02X228727000Y-49847500I0J-4445000D01*
G01*
X228727000Y-132397500D02*
G75*
G02X224282000Y-136842500I-4445000J0D01*
G01*
X139446000Y-136842500D02*
G75*
G02X135001000Y-132397500I0J4445000D01*
G01*
X195453000Y-54825900D02*
X168275000Y-54825900D01*
X195453000Y-81191100D02*
X168275000Y-81191100D01*
X181864000Y-81191100D02*
X181864000Y-54825900D01*
X168275000Y-81191100D02*
X168275000Y-54825900D01*
X192582800Y-87757000D02*
G75*
G03X192582800Y-87757000I-254000J0D01*
G01*
X165785800Y-90258900D02*
X165785800Y-45758100D01*
X202869800Y-90258900D02*
X165785800Y-90258900D01*
X176580800Y-87757000D02*
G75*
G03X176580800Y-87757000I-254000J0D01*
G01*
X202869800Y-90258900D02*
X202869800Y-45758100D01*
X202869800Y-45758100D02*
X165785800Y-45758100D01*
X195453000Y-81191100D02*
X195453000Y-54825900D01*
X184327800Y-90258900D02*
X184124600Y-90258900D01*
X195453000Y-68008500D02*
X168275000Y-68008500D01*
X176326800Y-87757000D02*
X178866800Y-87757000D01*
X192328800Y-87757000D02*
X189788800Y-87757000D01*
X190042800Y-87757000D02*
G75*
G03X190042800Y-87757000I-254000J0D01*
G01*
X179120800Y-87757000D02*
G75*
G03X179120800Y-87757000I-254000J0D01*
G01*
X181406800Y-87757000D02*
X178866800Y-87757000D01*
X187248800Y-87757000D02*
X189788800Y-87757000D01*
X184708800Y-87757000D02*
X187248800Y-87757000D01*
X181406800Y-87757000D02*
X183946800Y-87757000D01*
X181660800Y-87757000D02*
G75*
G03X181660800Y-87757000I-254000J0D01*
G01*
X187502800Y-87757000D02*
G75*
G03X187502800Y-87757000I-254000J0D01*
G01*
X184581800Y-87757000D02*
G75*
G03X184581800Y-87757000I-254000J0D01*
G01*
X184327800Y-87757000D02*
X184327800Y-87236300D01*
X184327800Y-87757000D02*
X184327800Y-88277700D01*
X184327800Y-87757000D02*
X184848500Y-87757000D01*
X184327800Y-87757000D02*
X183807100Y-87757000D01*
X199496000Y-69690064D02*
X199496000Y-68485936D01*
X201316000Y-69690064D02*
X201316000Y-68485936D01*
X180792000Y-54354000D02*
X181722000Y-54354000D01*
X183952000Y-54354000D02*
X183022000Y-54354000D01*
X183952000Y-54354000D02*
X183952000Y-52194000D01*
X180792000Y-54354000D02*
X180792000Y-52894000D01*
X182847064Y-50313000D02*
X181642936Y-50313000D01*
X182847064Y-48493000D02*
X181642936Y-48493000D01*
X177271000Y-52610936D02*
X177271000Y-53815064D01*
X179091000Y-52610936D02*
X179091000Y-53815064D01*
X175390500Y-89087000D02*
X175390500Y-87757000D01*
X176720500Y-89087000D02*
X175390500Y-89087000D01*
X177990500Y-89087000D02*
X177990500Y-86427000D01*
X177990500Y-86427000D02*
X193290500Y-86427000D01*
X177990500Y-89087000D02*
X193290500Y-89087000D01*
X193290500Y-89087000D02*
X193290500Y-86427000D01*
D12*
X143495000Y-54896500D02*
X143495000Y-53896500D01*
X143495000Y-67896500D02*
X144495000Y-67896500D01*
X144495000Y-53896500D02*
X143495000Y-53896500D01*
X143495000Y-67896500D02*
X143495000Y-66896500D01*
X157495000Y-66896500D02*
X157495000Y-67896500D01*
X157495000Y-53896500D02*
X156495000Y-53896500D01*
X156495000Y-67896500D02*
X157495000Y-67896500D01*
X157495000Y-53896500D02*
X157495000Y-54896500D01*
X157495000Y-73708500D02*
X157495000Y-74708500D01*
X156495000Y-87708500D02*
X157495000Y-87708500D01*
X157495000Y-73708500D02*
X156495000Y-73708500D01*
X157495000Y-86708500D02*
X157495000Y-87708500D01*
X143495000Y-87708500D02*
X143495000Y-86708500D01*
X144495000Y-73708500D02*
X143495000Y-73708500D01*
X143495000Y-87708500D02*
X144495000Y-87708500D01*
X143495000Y-74708500D02*
X143495000Y-73708500D01*
X206233000Y-74708500D02*
X206233000Y-73708500D01*
X206233000Y-87708500D02*
X207233000Y-87708500D01*
X207233000Y-73708500D02*
X206233000Y-73708500D01*
X206233000Y-87708500D02*
X206233000Y-86708500D01*
X220233000Y-86708500D02*
X220233000Y-87708500D01*
X220233000Y-73708500D02*
X219233000Y-73708500D01*
X219233000Y-87708500D02*
X220233000Y-87708500D01*
X220233000Y-73708500D02*
X220233000Y-74708500D01*
X220233000Y-53896500D02*
X220233000Y-54896500D01*
X219233000Y-67896500D02*
X220233000Y-67896500D01*
X220233000Y-53896500D02*
X219233000Y-53896500D01*
X220233000Y-66896500D02*
X220233000Y-67896500D01*
X206233000Y-67896500D02*
X206233000Y-66896500D01*
X207233000Y-53896500D02*
X206233000Y-53896500D01*
X206233000Y-67896500D02*
X207233000Y-67896500D01*
X206233000Y-54896500D02*
X206233000Y-53896500D01*
X145146000Y-94520500D02*
X145146000Y-93520500D01*
X145146000Y-107520500D02*
X146146000Y-107520500D01*
X146146000Y-93520500D02*
X145146000Y-93520500D01*
X145146000Y-107520500D02*
X145146000Y-106520500D01*
X159146000Y-106520500D02*
X159146000Y-107520500D01*
X159146000Y-93520500D02*
X158146000Y-93520500D01*
X158146000Y-107520500D02*
X159146000Y-107520500D01*
X159146000Y-93520500D02*
X159146000Y-94520500D01*
X164958000Y-94520500D02*
X164958000Y-93520500D01*
X164958000Y-107520500D02*
X165958000Y-107520500D01*
X165958000Y-93520500D02*
X164958000Y-93520500D01*
X164958000Y-107520500D02*
X164958000Y-106520500D01*
X178958000Y-106520500D02*
X178958000Y-107520500D01*
X178958000Y-93520500D02*
X177958000Y-93520500D01*
X177958000Y-107520500D02*
X178958000Y-107520500D01*
X178958000Y-93520500D02*
X178958000Y-94520500D01*
X198770000Y-93520500D02*
X198770000Y-94520500D01*
X197770000Y-107520500D02*
X198770000Y-107520500D01*
X198770000Y-93520500D02*
X197770000Y-93520500D01*
X198770000Y-106520500D02*
X198770000Y-107520500D01*
X184770000Y-107520500D02*
X184770000Y-106520500D01*
X185770000Y-93520500D02*
X184770000Y-93520500D01*
X184770000Y-107520500D02*
X185770000Y-107520500D01*
X184770000Y-94520500D02*
X184770000Y-93520500D01*
X204582000Y-94520500D02*
X204582000Y-93520500D01*
X204582000Y-107520500D02*
X205582000Y-107520500D01*
X205582000Y-93520500D02*
X204582000Y-93520500D01*
X204582000Y-107520500D02*
X204582000Y-106520500D01*
X218582000Y-106520500D02*
X218582000Y-107520500D01*
X218582000Y-93520500D02*
X217582000Y-93520500D01*
X217582000Y-107520500D02*
X218582000Y-107520500D01*
X218582000Y-93520500D02*
X218582000Y-94520500D01*
X159146000Y-113332500D02*
X159146000Y-114332500D01*
X158146000Y-127332500D02*
X159146000Y-127332500D01*
X159146000Y-113332500D02*
X158146000Y-113332500D01*
X159146000Y-126332500D02*
X159146000Y-127332500D01*
X145146000Y-127332500D02*
X145146000Y-126332500D01*
X146146000Y-113332500D02*
X145146000Y-113332500D01*
X145146000Y-127332500D02*
X146146000Y-127332500D01*
X145146000Y-114332500D02*
X145146000Y-113332500D01*
X178958000Y-113332500D02*
X178958000Y-114332500D01*
X177958000Y-127332500D02*
X178958000Y-127332500D01*
X178958000Y-113332500D02*
X177958000Y-113332500D01*
X178958000Y-126332500D02*
X178958000Y-127332500D01*
X164958000Y-127332500D02*
X164958000Y-126332500D01*
X165958000Y-113332500D02*
X164958000Y-113332500D01*
X164958000Y-127332500D02*
X165958000Y-127332500D01*
X164958000Y-114332500D02*
X164958000Y-113332500D01*
X184770000Y-114332500D02*
X184770000Y-113332500D01*
X184770000Y-127332500D02*
X185770000Y-127332500D01*
X185770000Y-113332500D02*
X184770000Y-113332500D01*
X184770000Y-127332500D02*
X184770000Y-126332500D01*
X198770000Y-126332500D02*
X198770000Y-127332500D01*
X198770000Y-113332500D02*
X197770000Y-113332500D01*
X197770000Y-127332500D02*
X198770000Y-127332500D01*
X198770000Y-113332500D02*
X198770000Y-114332500D01*
X218582000Y-113332500D02*
X218582000Y-114332500D01*
X217582000Y-127332500D02*
X218582000Y-127332500D01*
X218582000Y-113332500D02*
X217582000Y-113332500D01*
X218582000Y-126332500D02*
X218582000Y-127332500D01*
X204582000Y-127332500D02*
X204582000Y-126332500D01*
X205582000Y-113332500D02*
X204582000Y-113332500D01*
X204582000Y-127332500D02*
X205582000Y-127332500D01*
X204582000Y-114332500D02*
X204582000Y-113332500D01*
D11*
X187508000Y-72900000D02*
X186578000Y-72900000D01*
X184348000Y-72900000D02*
X185278000Y-72900000D01*
X184348000Y-72900000D02*
X184348000Y-75060000D01*
X187508000Y-72900000D02*
X187508000Y-74360000D01*
X197325064Y-75459000D02*
X196120936Y-75459000D01*
X197325064Y-73639000D02*
X196120936Y-73639000D01*
X185325936Y-75798000D02*
X186530064Y-75798000D01*
X185325936Y-77618000D02*
X186530064Y-77618000D01*
X185018000Y-68358936D02*
X185018000Y-69563064D01*
X186838000Y-68358936D02*
X186838000Y-69563064D01*
D12*
X182143495Y-69337180D02*
X182143495Y-68337180D01*
X182143495Y-68813371D02*
X182714923Y-68813371D01*
X182714923Y-69337180D02*
X182714923Y-68337180D01*
X183667304Y-68337180D02*
X183191114Y-68337180D01*
X183143495Y-68813371D01*
X183191114Y-68765752D01*
X183286352Y-68718133D01*
X183524447Y-68718133D01*
X183619685Y-68765752D01*
X183667304Y-68813371D01*
X183714923Y-68908609D01*
X183714923Y-69146704D01*
X183667304Y-69241942D01*
X183619685Y-69289561D01*
X183524447Y-69337180D01*
X183286352Y-69337180D01*
X183191114Y-69289561D01*
X183143495Y-69241942D01*
X198350142Y-69603857D02*
X198397761Y-69651476D01*
X198445380Y-69794333D01*
X198445380Y-69889571D01*
X198397761Y-70032428D01*
X198302523Y-70127666D01*
X198207285Y-70175285D01*
X198016809Y-70222904D01*
X197873952Y-70222904D01*
X197683476Y-70175285D01*
X197588238Y-70127666D01*
X197493000Y-70032428D01*
X197445380Y-69889571D01*
X197445380Y-69794333D01*
X197493000Y-69651476D01*
X197540619Y-69603857D01*
X198445380Y-68651476D02*
X198445380Y-69222904D01*
X198445380Y-68937190D02*
X197445380Y-68937190D01*
X197588238Y-69032428D01*
X197683476Y-69127666D01*
X197731095Y-69222904D01*
X197445380Y-67794333D02*
X197445380Y-67984809D01*
X197493000Y-68080047D01*
X197540619Y-68127666D01*
X197683476Y-68222904D01*
X197873952Y-68270523D01*
X198254904Y-68270523D01*
X198350142Y-68222904D01*
X198397761Y-68175285D01*
X198445380Y-68080047D01*
X198445380Y-67889571D01*
X198397761Y-67794333D01*
X198350142Y-67746714D01*
X198254904Y-67699095D01*
X198016809Y-67699095D01*
X197921571Y-67746714D01*
X197873952Y-67794333D01*
X197826333Y-67889571D01*
X197826333Y-68080047D01*
X197873952Y-68175285D01*
X197921571Y-68222904D01*
X198016809Y-68270523D01*
X183292761Y-56516519D02*
X183197523Y-56468900D01*
X183102285Y-56373661D01*
X182959428Y-56230804D01*
X182864190Y-56183185D01*
X182768952Y-56183185D01*
X182816571Y-56421280D02*
X182721333Y-56373661D01*
X182626095Y-56278423D01*
X182578476Y-56087947D01*
X182578476Y-55754614D01*
X182626095Y-55564138D01*
X182721333Y-55468900D01*
X182816571Y-55421280D01*
X183007047Y-55421280D01*
X183102285Y-55468900D01*
X183197523Y-55564138D01*
X183245142Y-55754614D01*
X183245142Y-56087947D01*
X183197523Y-56278423D01*
X183102285Y-56373661D01*
X183007047Y-56421280D01*
X182816571Y-56421280D01*
X184197523Y-56421280D02*
X183626095Y-56421280D01*
X183911809Y-56421280D02*
X183911809Y-55421280D01*
X183816571Y-55564138D01*
X183721333Y-55659376D01*
X183626095Y-55706995D01*
X182967333Y-48090080D02*
X182634000Y-47613890D01*
X182395904Y-48090080D02*
X182395904Y-47090080D01*
X182776857Y-47090080D01*
X182872095Y-47137700D01*
X182919714Y-47185319D01*
X182967333Y-47280557D01*
X182967333Y-47423414D01*
X182919714Y-47518652D01*
X182872095Y-47566271D01*
X182776857Y-47613890D01*
X182395904Y-47613890D01*
X183348285Y-47185319D02*
X183395904Y-47137700D01*
X183491142Y-47090080D01*
X183729238Y-47090080D01*
X183824476Y-47137700D01*
X183872095Y-47185319D01*
X183919714Y-47280557D01*
X183919714Y-47375795D01*
X183872095Y-47518652D01*
X183300666Y-48090080D01*
X183919714Y-48090080D01*
X180453380Y-53379666D02*
X179977190Y-53713000D01*
X180453380Y-53951095D02*
X179453380Y-53951095D01*
X179453380Y-53570142D01*
X179501000Y-53474904D01*
X179548619Y-53427285D01*
X179643857Y-53379666D01*
X179786714Y-53379666D01*
X179881952Y-53427285D01*
X179929571Y-53474904D01*
X179977190Y-53570142D01*
X179977190Y-53951095D01*
X179453380Y-53046333D02*
X179453380Y-52427285D01*
X179834333Y-52760619D01*
X179834333Y-52617761D01*
X179881952Y-52522523D01*
X179929571Y-52474904D01*
X180024809Y-52427285D01*
X180262904Y-52427285D01*
X180358142Y-52474904D01*
X180405761Y-52522523D01*
X180453380Y-52617761D01*
X180453380Y-52903476D01*
X180405761Y-52998714D01*
X180358142Y-53046333D01*
X173842880Y-88518904D02*
X174652404Y-88518904D01*
X174747642Y-88471285D01*
X174795261Y-88423666D01*
X174842880Y-88328428D01*
X174842880Y-88137952D01*
X174795261Y-88042714D01*
X174747642Y-87995095D01*
X174652404Y-87947476D01*
X173842880Y-87947476D01*
X173938119Y-87518904D02*
X173890500Y-87471285D01*
X173842880Y-87376047D01*
X173842880Y-87137952D01*
X173890500Y-87042714D01*
X173938119Y-86995095D01*
X174033357Y-86947476D01*
X174128595Y-86947476D01*
X174271452Y-86995095D01*
X174842880Y-87566523D01*
X174842880Y-86947476D01*
X183975619Y-73755238D02*
X183928000Y-73850476D01*
X183832761Y-73945714D01*
X183689904Y-74088571D01*
X183642285Y-74183809D01*
X183642285Y-74279047D01*
X183880380Y-74231428D02*
X183832761Y-74326666D01*
X183737523Y-74421904D01*
X183547047Y-74469523D01*
X183213714Y-74469523D01*
X183023238Y-74421904D01*
X182928000Y-74326666D01*
X182880380Y-74231428D01*
X182880380Y-74040952D01*
X182928000Y-73945714D01*
X183023238Y-73850476D01*
X183213714Y-73802857D01*
X183547047Y-73802857D01*
X183737523Y-73850476D01*
X183832761Y-73945714D01*
X183880380Y-74040952D01*
X183880380Y-74231428D01*
X182975619Y-73421904D02*
X182928000Y-73374285D01*
X182880380Y-73279047D01*
X182880380Y-73040952D01*
X182928000Y-72945714D01*
X182975619Y-72898095D01*
X183070857Y-72850476D01*
X183166095Y-72850476D01*
X183308952Y-72898095D01*
X183880380Y-73469523D01*
X183880380Y-72850476D01*
X196556333Y-76821380D02*
X196223000Y-76345190D01*
X195984904Y-76821380D02*
X195984904Y-75821380D01*
X196365857Y-75821380D01*
X196461095Y-75869000D01*
X196508714Y-75916619D01*
X196556333Y-76011857D01*
X196556333Y-76154714D01*
X196508714Y-76249952D01*
X196461095Y-76297571D01*
X196365857Y-76345190D01*
X195984904Y-76345190D01*
X196889666Y-75821380D02*
X197556333Y-75821380D01*
X197127761Y-76821380D01*
X182364119Y-76477833D02*
X182840309Y-76144500D01*
X182364119Y-75906404D02*
X183364119Y-75906404D01*
X183364119Y-76287357D01*
X183316500Y-76382595D01*
X183268880Y-76430214D01*
X183173642Y-76477833D01*
X183030785Y-76477833D01*
X182935547Y-76430214D01*
X182887928Y-76382595D01*
X182840309Y-76287357D01*
X182840309Y-75906404D01*
X182935547Y-77049261D02*
X182983166Y-76954023D01*
X183030785Y-76906404D01*
X183126023Y-76858785D01*
X183173642Y-76858785D01*
X183268880Y-76906404D01*
X183316500Y-76954023D01*
X183364119Y-77049261D01*
X183364119Y-77239738D01*
X183316500Y-77334976D01*
X183268880Y-77382595D01*
X183173642Y-77430214D01*
X183126023Y-77430214D01*
X183030785Y-77382595D01*
X182983166Y-77334976D01*
X182935547Y-77239738D01*
X182935547Y-77049261D01*
X182887928Y-76954023D01*
X182840309Y-76906404D01*
X182745071Y-76858785D01*
X182554595Y-76858785D01*
X182459357Y-76906404D01*
X182411738Y-76954023D01*
X182364119Y-77049261D01*
X182364119Y-77239738D01*
X182411738Y-77334976D01*
X182459357Y-77382595D01*
X182554595Y-77430214D01*
X182745071Y-77430214D01*
X182840309Y-77382595D01*
X182887928Y-77334976D01*
X182935547Y-77239738D01*
X185697833Y-65933580D02*
X185364500Y-65457390D01*
X185126404Y-65933580D02*
X185126404Y-64933580D01*
X185507357Y-64933580D01*
X185602595Y-64981200D01*
X185650214Y-65028819D01*
X185697833Y-65124057D01*
X185697833Y-65266914D01*
X185650214Y-65362152D01*
X185602595Y-65409771D01*
X185507357Y-65457390D01*
X185126404Y-65457390D01*
X186174023Y-65933580D02*
X186364500Y-65933580D01*
X186459738Y-65885961D01*
X186507357Y-65838342D01*
X186602595Y-65695485D01*
X186650214Y-65505009D01*
X186650214Y-65124057D01*
X186602595Y-65028819D01*
X186554976Y-64981200D01*
X186459738Y-64933580D01*
X186269261Y-64933580D01*
X186174023Y-64981200D01*
X186126404Y-65028819D01*
X186078785Y-65124057D01*
X186078785Y-65362152D01*
X186126404Y-65457390D01*
X186174023Y-65505009D01*
X186269261Y-65552628D01*
X186459738Y-65552628D01*
X186554976Y-65505009D01*
X186602595Y-65457390D01*
X186650214Y-65362152D01*
M02*
