G04 #@! TF.GenerationSoftware,KiCad,Pcbnew,(5.1.5)-3*
G04 #@! TF.CreationDate,2020-07-02T20:42:19-07:00*
G04 #@! TF.ProjectId,keypadV2,6b657970-6164-4563-922e-6b696361645f,rev?*
G04 #@! TF.SameCoordinates,Original*
G04 #@! TF.FileFunction,Legend,Bot*
G04 #@! TF.FilePolarity,Positive*
%FSLAX46Y46*%
G04 Gerber Fmt 4.6, Leading zero omitted, Abs format (unit mm)*
G04 Created by KiCad (PCBNEW (5.1.5)-3) date 2020-07-02 20:42:19*
%MOMM*%
%LPD*%
G04 APERTURE LIST*
%ADD10C,0.120000*%
%ADD11C,0.150000*%
%ADD12C,0.050000*%
%ADD13C,0.100000*%
G04 APERTURE END LIST*
D10*
X177038000Y-85217000D02*
X187198000Y-85217000D01*
X177038000Y-81407000D02*
X177038000Y-85217000D01*
X187198000Y-81407000D02*
X177038000Y-81407000D01*
X187198000Y-85217000D02*
X187198000Y-81407000D01*
D11*
X186356095Y-82939380D02*
X186451333Y-82891761D01*
X186498952Y-82796523D01*
X186498952Y-81939380D01*
X185546571Y-82939380D02*
X185546571Y-82415571D01*
X185594190Y-82320333D01*
X185689428Y-82272714D01*
X185879904Y-82272714D01*
X185975142Y-82320333D01*
X185546571Y-82891761D02*
X185641809Y-82939380D01*
X185879904Y-82939380D01*
X185975142Y-82891761D01*
X186022761Y-82796523D01*
X186022761Y-82701285D01*
X185975142Y-82606047D01*
X185879904Y-82558428D01*
X185641809Y-82558428D01*
X185546571Y-82510809D01*
X185165619Y-82272714D02*
X184641809Y-82272714D01*
X185165619Y-82939380D01*
X184641809Y-82939380D01*
X184356095Y-82272714D02*
X184118000Y-82939380D01*
X183879904Y-82272714D02*
X184118000Y-82939380D01*
X184213238Y-83177476D01*
X184260857Y-83225095D01*
X184356095Y-83272714D01*
X183498952Y-82558428D02*
X182737047Y-82558428D01*
X182260857Y-82939380D02*
X182260857Y-81939380D01*
X182260857Y-82320333D02*
X182165619Y-82272714D01*
X181975142Y-82272714D01*
X181879904Y-82320333D01*
X181832285Y-82367952D01*
X181784666Y-82463190D01*
X181784666Y-82748904D01*
X181832285Y-82844142D01*
X181879904Y-82891761D01*
X181975142Y-82939380D01*
X182165619Y-82939380D01*
X182260857Y-82891761D01*
X181213238Y-82939380D02*
X181308476Y-82891761D01*
X181356095Y-82844142D01*
X181403714Y-82748904D01*
X181403714Y-82463190D01*
X181356095Y-82367952D01*
X181308476Y-82320333D01*
X181213238Y-82272714D01*
X181070380Y-82272714D01*
X180975142Y-82320333D01*
X180927523Y-82367952D01*
X180879904Y-82463190D01*
X180879904Y-82748904D01*
X180927523Y-82844142D01*
X180975142Y-82891761D01*
X181070380Y-82939380D01*
X181213238Y-82939380D01*
X180022761Y-82939380D02*
X180022761Y-82415571D01*
X180070380Y-82320333D01*
X180165619Y-82272714D01*
X180356095Y-82272714D01*
X180451333Y-82320333D01*
X180022761Y-82891761D02*
X180118000Y-82939380D01*
X180356095Y-82939380D01*
X180451333Y-82891761D01*
X180498952Y-82796523D01*
X180498952Y-82701285D01*
X180451333Y-82606047D01*
X180356095Y-82558428D01*
X180118000Y-82558428D01*
X180022761Y-82510809D01*
X179546571Y-82939380D02*
X179546571Y-82272714D01*
X179546571Y-82463190D02*
X179498952Y-82367952D01*
X179451333Y-82320333D01*
X179356095Y-82272714D01*
X179260857Y-82272714D01*
X178498952Y-82939380D02*
X178498952Y-81939380D01*
X178498952Y-82891761D02*
X178594190Y-82939380D01*
X178784666Y-82939380D01*
X178879904Y-82891761D01*
X178927523Y-82844142D01*
X178975142Y-82748904D01*
X178975142Y-82463190D01*
X178927523Y-82367952D01*
X178879904Y-82320333D01*
X178784666Y-82272714D01*
X178594190Y-82272714D01*
X178498952Y-82320333D01*
X186498952Y-83922714D02*
X186260857Y-84589380D01*
X186022761Y-83922714D01*
X185689428Y-83684619D02*
X185641809Y-83637000D01*
X185546571Y-83589380D01*
X185308476Y-83589380D01*
X185213238Y-83637000D01*
X185165619Y-83684619D01*
X185118000Y-83779857D01*
X185118000Y-83875095D01*
X185165619Y-84017952D01*
X185737047Y-84589380D01*
X185118000Y-84589380D01*
X184689428Y-84494142D02*
X184641809Y-84541761D01*
X184689428Y-84589380D01*
X184737047Y-84541761D01*
X184689428Y-84494142D01*
X184689428Y-84589380D01*
X184022761Y-83589380D02*
X183927523Y-83589380D01*
X183832285Y-83637000D01*
X183784666Y-83684619D01*
X183737047Y-83779857D01*
X183689428Y-83970333D01*
X183689428Y-84208428D01*
X183737047Y-84398904D01*
X183784666Y-84494142D01*
X183832285Y-84541761D01*
X183927523Y-84589380D01*
X184022761Y-84589380D01*
X184118000Y-84541761D01*
X184165619Y-84494142D01*
X184213238Y-84398904D01*
X184260857Y-84208428D01*
X184260857Y-83970333D01*
X184213238Y-83779857D01*
X184165619Y-83684619D01*
X184118000Y-83637000D01*
X184022761Y-83589380D01*
X182213238Y-84922714D02*
X182451333Y-84922714D01*
X182451333Y-83494142D01*
X182213238Y-83494142D01*
X181879904Y-83684619D02*
X181832285Y-83637000D01*
X181737047Y-83589380D01*
X181498952Y-83589380D01*
X181403714Y-83637000D01*
X181356095Y-83684619D01*
X181308476Y-83779857D01*
X181308476Y-83875095D01*
X181356095Y-84017952D01*
X181927523Y-84589380D01*
X181308476Y-84589380D01*
X180689428Y-83589380D02*
X180594190Y-83589380D01*
X180498952Y-83637000D01*
X180451333Y-83684619D01*
X180403714Y-83779857D01*
X180356095Y-83970333D01*
X180356095Y-84208428D01*
X180403714Y-84398904D01*
X180451333Y-84494142D01*
X180498952Y-84541761D01*
X180594190Y-84589380D01*
X180689428Y-84589380D01*
X180784666Y-84541761D01*
X180832285Y-84494142D01*
X180879904Y-84398904D01*
X180927523Y-84208428D01*
X180927523Y-83970333D01*
X180879904Y-83779857D01*
X180832285Y-83684619D01*
X180784666Y-83637000D01*
X180689428Y-83589380D01*
X179975142Y-83684619D02*
X179927523Y-83637000D01*
X179832285Y-83589380D01*
X179594190Y-83589380D01*
X179498952Y-83637000D01*
X179451333Y-83684619D01*
X179403714Y-83779857D01*
X179403714Y-83875095D01*
X179451333Y-84017952D01*
X180022761Y-84589380D01*
X179403714Y-84589380D01*
X178784666Y-83589380D02*
X178689428Y-83589380D01*
X178594190Y-83637000D01*
X178546571Y-83684619D01*
X178498952Y-83779857D01*
X178451333Y-83970333D01*
X178451333Y-84208428D01*
X178498952Y-84398904D01*
X178546571Y-84494142D01*
X178594190Y-84541761D01*
X178689428Y-84589380D01*
X178784666Y-84589380D01*
X178879904Y-84541761D01*
X178927523Y-84494142D01*
X178975142Y-84398904D01*
X179022761Y-84208428D01*
X179022761Y-83970333D01*
X178975142Y-83779857D01*
X178927523Y-83684619D01*
X178879904Y-83637000D01*
X178784666Y-83589380D01*
X178118000Y-84922714D02*
X177879904Y-84922714D01*
X177879904Y-83494142D01*
X178118000Y-83494142D01*
D12*
X154178000Y-69024500D02*
X154178000Y-63436500D01*
X146812000Y-69024500D02*
X154178000Y-69024500D01*
X154178000Y-63436500D02*
X146812000Y-63436500D01*
X146812000Y-63436500D02*
X146812000Y-69024500D01*
X154178000Y-88836500D02*
X154178000Y-83248500D01*
X146812000Y-88836500D02*
X154178000Y-88836500D01*
X154178000Y-83248500D02*
X146812000Y-83248500D01*
X146812000Y-83248500D02*
X146812000Y-88836500D01*
X155829000Y-108648500D02*
X155829000Y-103060500D01*
X148463000Y-108648500D02*
X155829000Y-108648500D01*
X155829000Y-103060500D02*
X148463000Y-103060500D01*
X148463000Y-103060500D02*
X148463000Y-108648500D01*
X155829000Y-128460500D02*
X155829000Y-122872500D01*
X148463000Y-128460500D02*
X155829000Y-128460500D01*
X155829000Y-122872500D02*
X148463000Y-122872500D01*
X148463000Y-122872500D02*
X148463000Y-128460500D01*
X175641000Y-128460500D02*
X175641000Y-122872500D01*
X168275000Y-128460500D02*
X175641000Y-128460500D01*
X175641000Y-122872500D02*
X168275000Y-122872500D01*
X168275000Y-122872500D02*
X168275000Y-128460500D01*
X175641000Y-108648500D02*
X175641000Y-103060500D01*
X168275000Y-108648500D02*
X175641000Y-108648500D01*
X175641000Y-103060500D02*
X168275000Y-103060500D01*
X168275000Y-103060500D02*
X168275000Y-108648500D01*
X195453000Y-108648500D02*
X195453000Y-103060500D01*
X188087000Y-108648500D02*
X195453000Y-108648500D01*
X195453000Y-103060500D02*
X188087000Y-103060500D01*
X188087000Y-103060500D02*
X188087000Y-108648500D01*
X195453000Y-128460500D02*
X195453000Y-122872500D01*
X188087000Y-128460500D02*
X195453000Y-128460500D01*
X195453000Y-122872500D02*
X188087000Y-122872500D01*
X188087000Y-122872500D02*
X188087000Y-128460500D01*
X215265000Y-128460500D02*
X215265000Y-122872500D01*
X207899000Y-128460500D02*
X215265000Y-128460500D01*
X215265000Y-122872500D02*
X207899000Y-122872500D01*
X207899000Y-122872500D02*
X207899000Y-128460500D01*
X215265000Y-108648500D02*
X215265000Y-103060500D01*
X207899000Y-108648500D02*
X215265000Y-108648500D01*
X215265000Y-103060500D02*
X207899000Y-103060500D01*
X207899000Y-103060500D02*
X207899000Y-108648500D01*
X216916000Y-83248500D02*
X209550000Y-83248500D01*
X209550000Y-88836500D02*
X216916000Y-88836500D01*
X216916000Y-88836500D02*
X216916000Y-83248500D01*
X209550000Y-83248500D02*
X209550000Y-88836500D01*
X216916000Y-69024500D02*
X216916000Y-63436500D01*
X209550000Y-69024500D02*
X216916000Y-69024500D01*
X209550000Y-63436500D02*
X209550000Y-69024500D01*
X216916000Y-63436500D02*
X209550000Y-63436500D01*
X224282000Y-45402500D02*
X204089000Y-45402500D01*
X199459533Y-43557442D02*
X164268467Y-43557442D01*
X199728941Y-43669034D02*
G75*
G03X204089000Y-45402500I4360059J4616534D01*
G01*
X199728941Y-43669034D02*
G75*
G03X199459533Y-43557442I-269408J-269408D01*
G01*
X163999059Y-43669034D02*
G75*
G02X164268467Y-43557442I269408J-269408D01*
G01*
X163999059Y-43669034D02*
G75*
G02X159639000Y-45402500I-4360059J4616534D01*
G01*
X139446000Y-45402500D02*
X159639000Y-45402500D01*
X135001000Y-49847500D02*
X135001000Y-132397500D01*
X224282000Y-136842500D02*
X139446000Y-136842500D01*
X228727000Y-49847500D02*
X228727000Y-132397500D01*
D10*
X135001000Y-49847500D02*
G75*
G02X139446000Y-45402500I4445000J0D01*
G01*
X224282000Y-45402500D02*
G75*
G02X228727000Y-49847500I0J-4445000D01*
G01*
X228727000Y-132397500D02*
G75*
G02X224282000Y-136842500I-4445000J0D01*
G01*
X139446000Y-136842500D02*
G75*
G02X135001000Y-132397500I0J4445000D01*
G01*
X222758000Y-60836500D02*
X222758000Y-63496500D01*
X222758000Y-60836500D02*
X227898000Y-60836500D01*
X227898000Y-60836500D02*
X227898000Y-63496500D01*
X222758000Y-63496500D02*
X227898000Y-63496500D01*
X220158000Y-63496500D02*
X221488000Y-63496500D01*
X220158000Y-62166500D02*
X220158000Y-63496500D01*
X158402000Y-113176500D02*
X158402000Y-112026500D01*
X165702000Y-113176500D02*
X158402000Y-113176500D01*
X165702000Y-107676500D02*
X158402000Y-107676500D01*
X159352064Y-64939500D02*
X158147936Y-64939500D01*
X159352064Y-66759500D02*
X158147936Y-66759500D01*
X162654064Y-104944500D02*
X161449936Y-104944500D01*
X162654064Y-106764500D02*
X161449936Y-106764500D01*
X202278064Y-104944500D02*
X201073936Y-104944500D01*
X202278064Y-106764500D02*
X201073936Y-106764500D01*
X148331000Y-51537500D02*
X145181000Y-51537500D01*
X148331000Y-53237500D02*
X145181000Y-53237500D01*
X148331000Y-51537500D02*
X148331000Y-53237500D01*
X146934000Y-71222500D02*
X143784000Y-71222500D01*
X146934000Y-72922500D02*
X143784000Y-72922500D01*
X146934000Y-71222500D02*
X146934000Y-72922500D01*
X202189000Y-76478500D02*
X202189000Y-74778500D01*
X202189000Y-74778500D02*
X205339000Y-74778500D01*
X202189000Y-76478500D02*
X205339000Y-76478500D01*
X203874000Y-52392500D02*
X203874000Y-55542500D01*
X205574000Y-52392500D02*
X205574000Y-55542500D01*
X203874000Y-52392500D02*
X205574000Y-52392500D01*
X148966000Y-91034500D02*
X148966000Y-92734500D01*
X148966000Y-92734500D02*
X145816000Y-92734500D01*
X148966000Y-91034500D02*
X145816000Y-91034500D01*
X162726000Y-92016500D02*
X162726000Y-95166500D01*
X164426000Y-92016500D02*
X164426000Y-95166500D01*
X162726000Y-92016500D02*
X164426000Y-92016500D01*
X182538000Y-92016500D02*
X184238000Y-92016500D01*
X184238000Y-92016500D02*
X184238000Y-95166500D01*
X182538000Y-92016500D02*
X182538000Y-95166500D01*
X202350000Y-92016500D02*
X204050000Y-92016500D01*
X204050000Y-92016500D02*
X204050000Y-95166500D01*
X202350000Y-92016500D02*
X202350000Y-95166500D01*
X148966000Y-110846500D02*
X148966000Y-112546500D01*
X148966000Y-112546500D02*
X145816000Y-112546500D01*
X148966000Y-110846500D02*
X145816000Y-110846500D01*
X160948000Y-113479500D02*
X160948000Y-116629500D01*
X162648000Y-113479500D02*
X162648000Y-116629500D01*
X160948000Y-113479500D02*
X162648000Y-113479500D01*
X182538000Y-111828500D02*
X184238000Y-111828500D01*
X184238000Y-111828500D02*
X184238000Y-114978500D01*
X182538000Y-111828500D02*
X182538000Y-114978500D01*
X200445000Y-114622500D02*
X200445000Y-117772500D01*
X202145000Y-114622500D02*
X202145000Y-117772500D01*
X200445000Y-114622500D02*
X202145000Y-114622500D01*
X211193000Y-48882500D02*
X211193000Y-52942500D01*
X211193000Y-52942500D02*
X208923000Y-52942500D01*
X208923000Y-52942500D02*
X208923000Y-48882500D01*
X162463500Y-67227000D02*
X155163500Y-67227000D01*
X162463500Y-72727000D02*
X155163500Y-72727000D01*
X155163500Y-72727000D02*
X155163500Y-71577000D01*
X205453000Y-107549500D02*
X198153000Y-107549500D01*
X205453000Y-113049500D02*
X198153000Y-113049500D01*
X198153000Y-113049500D02*
X198153000Y-111899500D01*
X208120000Y-68052500D02*
X208120000Y-69202500D01*
X200820000Y-68052500D02*
X208120000Y-68052500D01*
X200820000Y-73552500D02*
X208120000Y-73552500D01*
X206354000Y-49880436D02*
X206354000Y-51084564D01*
X208174000Y-49880436D02*
X208174000Y-51084564D01*
X170748000Y-68242000D02*
X171548000Y-67442000D01*
X171548000Y-67442000D02*
X171548000Y-57742000D01*
X171548000Y-57742000D02*
X164748000Y-57742000D01*
X164748000Y-57742000D02*
X164748000Y-68242000D01*
X164748000Y-68242000D02*
X170748000Y-68242000D01*
X164748000Y-80434000D02*
X170748000Y-80434000D01*
X164748000Y-69934000D02*
X164748000Y-80434000D01*
X171548000Y-69934000D02*
X164748000Y-69934000D01*
X171548000Y-79634000D02*
X171548000Y-69934000D01*
X170748000Y-80434000D02*
X171548000Y-79634000D01*
X194250000Y-68156000D02*
X193450000Y-68956000D01*
X193450000Y-68956000D02*
X193450000Y-78656000D01*
X193450000Y-78656000D02*
X200250000Y-78656000D01*
X200250000Y-78656000D02*
X200250000Y-68156000D01*
X200250000Y-68156000D02*
X194250000Y-68156000D01*
X200163000Y-66477000D02*
X200963000Y-65677000D01*
X200963000Y-65677000D02*
X200963000Y-54427000D01*
X200963000Y-54427000D02*
X193753000Y-54427000D01*
X193753000Y-54427000D02*
X193753000Y-66477000D01*
X193753000Y-66477000D02*
X200163000Y-66477000D01*
D13*
G36*
X181584600Y-60375800D02*
G01*
X181838600Y-60121800D01*
X181457600Y-59867800D01*
X181203600Y-60121800D01*
X181584600Y-60375800D01*
G37*
X181584600Y-60375800D02*
X181838600Y-60121800D01*
X181457600Y-59867800D01*
X181203600Y-60121800D01*
X181584600Y-60375800D01*
G36*
X182092600Y-60756800D02*
G01*
X182346600Y-60502800D01*
X181965600Y-60248800D01*
X181711600Y-60502800D01*
X182092600Y-60756800D01*
G37*
X182092600Y-60756800D02*
X182346600Y-60502800D01*
X181965600Y-60248800D01*
X181711600Y-60502800D01*
X182092600Y-60756800D01*
G36*
X181965600Y-59994800D02*
G01*
X182219600Y-59740800D01*
X181838600Y-59486800D01*
X181584600Y-59740800D01*
X181965600Y-59994800D01*
G37*
X181965600Y-59994800D02*
X182219600Y-59740800D01*
X181838600Y-59486800D01*
X181584600Y-59740800D01*
X181965600Y-59994800D01*
G36*
X182473600Y-60375800D02*
G01*
X182727600Y-60121800D01*
X182346600Y-59867800D01*
X182092600Y-60121800D01*
X182473600Y-60375800D01*
G37*
X182473600Y-60375800D02*
X182727600Y-60121800D01*
X182346600Y-59867800D01*
X182092600Y-60121800D01*
X182473600Y-60375800D01*
G36*
X182600600Y-61137800D02*
G01*
X182854600Y-60883800D01*
X182473600Y-60629800D01*
X182219600Y-60883800D01*
X182600600Y-61137800D01*
G37*
X182600600Y-61137800D02*
X182854600Y-60883800D01*
X182473600Y-60629800D01*
X182219600Y-60883800D01*
X182600600Y-61137800D01*
G36*
X181457600Y-59613800D02*
G01*
X181711600Y-59359800D01*
X181330600Y-59105800D01*
X181076600Y-59359800D01*
X181457600Y-59613800D01*
G37*
X181457600Y-59613800D02*
X181711600Y-59359800D01*
X181330600Y-59105800D01*
X181076600Y-59359800D01*
X181457600Y-59613800D01*
G36*
X182219600Y-61518800D02*
G01*
X182473600Y-61264800D01*
X182092600Y-61010800D01*
X181838600Y-61264800D01*
X182219600Y-61518800D01*
G37*
X182219600Y-61518800D02*
X182473600Y-61264800D01*
X182092600Y-61010800D01*
X181838600Y-61264800D01*
X182219600Y-61518800D01*
G36*
X181838600Y-61899800D02*
G01*
X182092600Y-61645800D01*
X181711600Y-61391800D01*
X181457600Y-61645800D01*
X181838600Y-61899800D01*
G37*
X181838600Y-61899800D02*
X182092600Y-61645800D01*
X181711600Y-61391800D01*
X181457600Y-61645800D01*
X181838600Y-61899800D01*
D10*
X190754000Y-44958000D02*
X190754000Y-80518000D01*
X190754000Y-80518000D02*
X172974000Y-80518000D01*
X172974000Y-80518000D02*
X172974000Y-44958000D01*
X172974000Y-44958000D02*
X190754000Y-44958000D01*
X185674000Y-44958000D02*
X185674000Y-43688000D01*
X185674000Y-43688000D02*
X178054000Y-43688000D01*
X178054000Y-43688000D02*
X178054000Y-44958000D01*
X178054000Y-44958000D02*
X178054000Y-50038000D01*
X178054000Y-50038000D02*
X185674000Y-50038000D01*
X185674000Y-50038000D02*
X185674000Y-44958000D01*
X176784000Y-57023000D02*
X186944000Y-57023000D01*
X186944000Y-57023000D02*
X186944000Y-67183000D01*
X186944000Y-67183000D02*
X176784000Y-67183000D01*
X176784000Y-67183000D02*
X176784000Y-57023000D01*
D11*
X144145000Y-56451500D02*
G75*
G02X146685000Y-53911500I2540000J0D01*
G01*
X144145000Y-59880500D02*
X144145000Y-60261500D01*
X148030838Y-60280460D02*
G75*
G02X150495000Y-58356500I2464162J-616040D01*
G01*
X155575000Y-57340500D02*
X155575000Y-58356500D01*
X155575000Y-58356500D02*
X150495000Y-58356500D01*
X148030838Y-60261500D02*
X146304000Y-60261500D01*
X144526000Y-60261500D02*
X144145000Y-60261500D01*
X144145000Y-56451500D02*
X144145000Y-56832500D01*
X146685000Y-53911500D02*
X155575000Y-53911500D01*
X155575000Y-53911500D02*
X155575000Y-54292500D01*
X155575000Y-73723500D02*
X155575000Y-74104500D01*
X146685000Y-73723500D02*
X155575000Y-73723500D01*
X144145000Y-76263500D02*
X144145000Y-76644500D01*
X144526000Y-80073500D02*
X144145000Y-80073500D01*
X148030838Y-80073500D02*
X146304000Y-80073500D01*
X155575000Y-78168500D02*
X150495000Y-78168500D01*
X155575000Y-77152500D02*
X155575000Y-78168500D01*
X148030838Y-80092460D02*
G75*
G02X150495000Y-78168500I2464162J-616040D01*
G01*
X144145000Y-79692500D02*
X144145000Y-80073500D01*
X144145000Y-76263500D02*
G75*
G02X146685000Y-73723500I2540000J0D01*
G01*
X206883000Y-76263500D02*
G75*
G02X209423000Y-73723500I2540000J0D01*
G01*
X206883000Y-79692500D02*
X206883000Y-80073500D01*
X210768838Y-80092460D02*
G75*
G02X213233000Y-78168500I2464162J-616040D01*
G01*
X218313000Y-77152500D02*
X218313000Y-78168500D01*
X218313000Y-78168500D02*
X213233000Y-78168500D01*
X210768838Y-80073500D02*
X209042000Y-80073500D01*
X207264000Y-80073500D02*
X206883000Y-80073500D01*
X206883000Y-76263500D02*
X206883000Y-76644500D01*
X209423000Y-73723500D02*
X218313000Y-73723500D01*
X218313000Y-73723500D02*
X218313000Y-74104500D01*
X218313000Y-53911500D02*
X218313000Y-54292500D01*
X209423000Y-53911500D02*
X218313000Y-53911500D01*
X206883000Y-56451500D02*
X206883000Y-56832500D01*
X207264000Y-60261500D02*
X206883000Y-60261500D01*
X210768838Y-60261500D02*
X209042000Y-60261500D01*
X218313000Y-58356500D02*
X213233000Y-58356500D01*
X218313000Y-57340500D02*
X218313000Y-58356500D01*
X210768838Y-60280460D02*
G75*
G02X213233000Y-58356500I2464162J-616040D01*
G01*
X206883000Y-59880500D02*
X206883000Y-60261500D01*
X206883000Y-56451500D02*
G75*
G02X209423000Y-53911500I2540000J0D01*
G01*
X145796000Y-96075500D02*
G75*
G02X148336000Y-93535500I2540000J0D01*
G01*
X145796000Y-99504500D02*
X145796000Y-99885500D01*
X149681838Y-99904460D02*
G75*
G02X152146000Y-97980500I2464162J-616040D01*
G01*
X157226000Y-96964500D02*
X157226000Y-97980500D01*
X157226000Y-97980500D02*
X152146000Y-97980500D01*
X149681838Y-99885500D02*
X147955000Y-99885500D01*
X146177000Y-99885500D02*
X145796000Y-99885500D01*
X145796000Y-96075500D02*
X145796000Y-96456500D01*
X148336000Y-93535500D02*
X157226000Y-93535500D01*
X157226000Y-93535500D02*
X157226000Y-93916500D01*
X165608000Y-96075500D02*
G75*
G02X168148000Y-93535500I2540000J0D01*
G01*
X165608000Y-99504500D02*
X165608000Y-99885500D01*
X169493838Y-99904460D02*
G75*
G02X171958000Y-97980500I2464162J-616040D01*
G01*
X177038000Y-96964500D02*
X177038000Y-97980500D01*
X177038000Y-97980500D02*
X171958000Y-97980500D01*
X169493838Y-99885500D02*
X167767000Y-99885500D01*
X165989000Y-99885500D02*
X165608000Y-99885500D01*
X165608000Y-96075500D02*
X165608000Y-96456500D01*
X168148000Y-93535500D02*
X177038000Y-93535500D01*
X177038000Y-93535500D02*
X177038000Y-93916500D01*
X196850000Y-93535500D02*
X196850000Y-93916500D01*
X187960000Y-93535500D02*
X196850000Y-93535500D01*
X185420000Y-96075500D02*
X185420000Y-96456500D01*
X185801000Y-99885500D02*
X185420000Y-99885500D01*
X189305838Y-99885500D02*
X187579000Y-99885500D01*
X196850000Y-97980500D02*
X191770000Y-97980500D01*
X196850000Y-96964500D02*
X196850000Y-97980500D01*
X189305838Y-99904460D02*
G75*
G02X191770000Y-97980500I2464162J-616040D01*
G01*
X185420000Y-99504500D02*
X185420000Y-99885500D01*
X185420000Y-96075500D02*
G75*
G02X187960000Y-93535500I2540000J0D01*
G01*
X205232000Y-96075500D02*
G75*
G02X207772000Y-93535500I2540000J0D01*
G01*
X205232000Y-99504500D02*
X205232000Y-99885500D01*
X209117838Y-99904460D02*
G75*
G02X211582000Y-97980500I2464162J-616040D01*
G01*
X216662000Y-96964500D02*
X216662000Y-97980500D01*
X216662000Y-97980500D02*
X211582000Y-97980500D01*
X209117838Y-99885500D02*
X207391000Y-99885500D01*
X205613000Y-99885500D02*
X205232000Y-99885500D01*
X205232000Y-96075500D02*
X205232000Y-96456500D01*
X207772000Y-93535500D02*
X216662000Y-93535500D01*
X216662000Y-93535500D02*
X216662000Y-93916500D01*
X157226000Y-113347500D02*
X157226000Y-113728500D01*
X148336000Y-113347500D02*
X157226000Y-113347500D01*
X145796000Y-115887500D02*
X145796000Y-116268500D01*
X146177000Y-119697500D02*
X145796000Y-119697500D01*
X149681838Y-119697500D02*
X147955000Y-119697500D01*
X157226000Y-117792500D02*
X152146000Y-117792500D01*
X157226000Y-116776500D02*
X157226000Y-117792500D01*
X149681838Y-119716460D02*
G75*
G02X152146000Y-117792500I2464162J-616040D01*
G01*
X145796000Y-119316500D02*
X145796000Y-119697500D01*
X145796000Y-115887500D02*
G75*
G02X148336000Y-113347500I2540000J0D01*
G01*
X177038000Y-113347500D02*
X177038000Y-113728500D01*
X168148000Y-113347500D02*
X177038000Y-113347500D01*
X165608000Y-115887500D02*
X165608000Y-116268500D01*
X165989000Y-119697500D02*
X165608000Y-119697500D01*
X169493838Y-119697500D02*
X167767000Y-119697500D01*
X177038000Y-117792500D02*
X171958000Y-117792500D01*
X177038000Y-116776500D02*
X177038000Y-117792500D01*
X169493838Y-119716460D02*
G75*
G02X171958000Y-117792500I2464162J-616040D01*
G01*
X165608000Y-119316500D02*
X165608000Y-119697500D01*
X165608000Y-115887500D02*
G75*
G02X168148000Y-113347500I2540000J0D01*
G01*
X185420000Y-115887500D02*
G75*
G02X187960000Y-113347500I2540000J0D01*
G01*
X185420000Y-119316500D02*
X185420000Y-119697500D01*
X189305838Y-119716460D02*
G75*
G02X191770000Y-117792500I2464162J-616040D01*
G01*
X196850000Y-116776500D02*
X196850000Y-117792500D01*
X196850000Y-117792500D02*
X191770000Y-117792500D01*
X189305838Y-119697500D02*
X187579000Y-119697500D01*
X185801000Y-119697500D02*
X185420000Y-119697500D01*
X185420000Y-115887500D02*
X185420000Y-116268500D01*
X187960000Y-113347500D02*
X196850000Y-113347500D01*
X196850000Y-113347500D02*
X196850000Y-113728500D01*
X216662000Y-113347500D02*
X216662000Y-113728500D01*
X207772000Y-113347500D02*
X216662000Y-113347500D01*
X205232000Y-115887500D02*
X205232000Y-116268500D01*
X205613000Y-119697500D02*
X205232000Y-119697500D01*
X209117838Y-119697500D02*
X207391000Y-119697500D01*
X216662000Y-117792500D02*
X211582000Y-117792500D01*
X216662000Y-116776500D02*
X216662000Y-117792500D01*
X209117838Y-119716460D02*
G75*
G02X211582000Y-117792500I2464162J-616040D01*
G01*
X205232000Y-119316500D02*
X205232000Y-119697500D01*
X205232000Y-115887500D02*
G75*
G02X207772000Y-113347500I2540000J0D01*
G01*
D10*
X143570000Y-60836500D02*
X143570000Y-63496500D01*
X138430000Y-60836500D02*
X143570000Y-60836500D01*
X138430000Y-63496500D02*
X143570000Y-63496500D01*
X138430000Y-60836500D02*
X138430000Y-63496500D01*
X137160000Y-60836500D02*
X135830000Y-60836500D01*
X135830000Y-60836500D02*
X135830000Y-62166500D01*
X140610000Y-58133064D02*
X140610000Y-56928936D01*
X138790000Y-58133064D02*
X138790000Y-56928936D01*
D11*
X224386733Y-64108080D02*
X224386733Y-64822366D01*
X224434352Y-64965223D01*
X224529590Y-65060461D01*
X224672447Y-65108080D01*
X224767685Y-65108080D01*
X223481971Y-64108080D02*
X223672447Y-64108080D01*
X223767685Y-64155700D01*
X223815304Y-64203319D01*
X223910542Y-64346176D01*
X223958161Y-64536652D01*
X223958161Y-64917604D01*
X223910542Y-65012842D01*
X223862923Y-65060461D01*
X223767685Y-65108080D01*
X223577209Y-65108080D01*
X223481971Y-65060461D01*
X223434352Y-65012842D01*
X223386733Y-64917604D01*
X223386733Y-64679509D01*
X223434352Y-64584271D01*
X223481971Y-64536652D01*
X223577209Y-64489033D01*
X223767685Y-64489033D01*
X223862923Y-64536652D01*
X223910542Y-64584271D01*
X223958161Y-64679509D01*
X158351480Y-109212214D02*
X157351480Y-109212214D01*
X157351480Y-109450309D01*
X157399100Y-109593166D01*
X157494338Y-109688404D01*
X157589576Y-109736023D01*
X157780052Y-109783642D01*
X157922909Y-109783642D01*
X158113385Y-109736023D01*
X158208623Y-109688404D01*
X158303861Y-109593166D01*
X158351480Y-109450309D01*
X158351480Y-109212214D01*
X157446719Y-110164595D02*
X157399100Y-110212214D01*
X157351480Y-110307452D01*
X157351480Y-110545547D01*
X157399100Y-110640785D01*
X157446719Y-110688404D01*
X157541957Y-110736023D01*
X157637195Y-110736023D01*
X157780052Y-110688404D01*
X158351480Y-110116976D01*
X158351480Y-110736023D01*
X157351480Y-111069357D02*
X157351480Y-111736023D01*
X158351480Y-111307452D01*
X165916285Y-109278880D02*
X166487714Y-109278880D01*
X166202000Y-109278880D02*
X166202000Y-108278880D01*
X166297238Y-108421738D01*
X166392476Y-108516976D01*
X166487714Y-108564595D01*
X159392857Y-64386642D02*
X159440476Y-64434261D01*
X159583333Y-64481880D01*
X159678571Y-64481880D01*
X159821428Y-64434261D01*
X159916666Y-64339023D01*
X159964285Y-64243785D01*
X160011904Y-64053309D01*
X160011904Y-63910452D01*
X159964285Y-63719976D01*
X159916666Y-63624738D01*
X159821428Y-63529500D01*
X159678571Y-63481880D01*
X159583333Y-63481880D01*
X159440476Y-63529500D01*
X159392857Y-63577119D01*
X158440476Y-64481880D02*
X159011904Y-64481880D01*
X158726190Y-64481880D02*
X158726190Y-63481880D01*
X158821428Y-63624738D01*
X158916666Y-63719976D01*
X159011904Y-63767595D01*
X158107142Y-63481880D02*
X157488095Y-63481880D01*
X157821428Y-63862833D01*
X157678571Y-63862833D01*
X157583333Y-63910452D01*
X157535714Y-63958071D01*
X157488095Y-64053309D01*
X157488095Y-64291404D01*
X157535714Y-64386642D01*
X157583333Y-64434261D01*
X157678571Y-64481880D01*
X157964285Y-64481880D01*
X158059523Y-64434261D01*
X158107142Y-64386642D01*
X162694857Y-104391642D02*
X162742476Y-104439261D01*
X162885333Y-104486880D01*
X162980571Y-104486880D01*
X163123428Y-104439261D01*
X163218666Y-104344023D01*
X163266285Y-104248785D01*
X163313904Y-104058309D01*
X163313904Y-103915452D01*
X163266285Y-103724976D01*
X163218666Y-103629738D01*
X163123428Y-103534500D01*
X162980571Y-103486880D01*
X162885333Y-103486880D01*
X162742476Y-103534500D01*
X162694857Y-103582119D01*
X161742476Y-104486880D02*
X162313904Y-104486880D01*
X162028190Y-104486880D02*
X162028190Y-103486880D01*
X162123428Y-103629738D01*
X162218666Y-103724976D01*
X162313904Y-103772595D01*
X160885333Y-103820214D02*
X160885333Y-104486880D01*
X161123428Y-103439261D02*
X161361523Y-104153547D01*
X160742476Y-104153547D01*
X202318857Y-104391642D02*
X202366476Y-104439261D01*
X202509333Y-104486880D01*
X202604571Y-104486880D01*
X202747428Y-104439261D01*
X202842666Y-104344023D01*
X202890285Y-104248785D01*
X202937904Y-104058309D01*
X202937904Y-103915452D01*
X202890285Y-103724976D01*
X202842666Y-103629738D01*
X202747428Y-103534500D01*
X202604571Y-103486880D01*
X202509333Y-103486880D01*
X202366476Y-103534500D01*
X202318857Y-103582119D01*
X201366476Y-104486880D02*
X201937904Y-104486880D01*
X201652190Y-104486880D02*
X201652190Y-103486880D01*
X201747428Y-103629738D01*
X201842666Y-103724976D01*
X201937904Y-103772595D01*
X200461714Y-103486880D02*
X200937904Y-103486880D01*
X200985523Y-103963071D01*
X200937904Y-103915452D01*
X200842666Y-103867833D01*
X200604571Y-103867833D01*
X200509333Y-103915452D01*
X200461714Y-103963071D01*
X200414095Y-104058309D01*
X200414095Y-104296404D01*
X200461714Y-104391642D01*
X200509333Y-104439261D01*
X200604571Y-104486880D01*
X200842666Y-104486880D01*
X200937904Y-104439261D01*
X200985523Y-104391642D01*
X147169095Y-50989880D02*
X147169095Y-49989880D01*
X146931000Y-49989880D01*
X146788142Y-50037500D01*
X146692904Y-50132738D01*
X146645285Y-50227976D01*
X146597666Y-50418452D01*
X146597666Y-50561309D01*
X146645285Y-50751785D01*
X146692904Y-50847023D01*
X146788142Y-50942261D01*
X146931000Y-50989880D01*
X147169095Y-50989880D01*
X145645285Y-50989880D02*
X146216714Y-50989880D01*
X145931000Y-50989880D02*
X145931000Y-49989880D01*
X146026238Y-50132738D01*
X146121476Y-50227976D01*
X146216714Y-50275595D01*
X145772095Y-70674880D02*
X145772095Y-69674880D01*
X145534000Y-69674880D01*
X145391142Y-69722500D01*
X145295904Y-69817738D01*
X145248285Y-69912976D01*
X145200666Y-70103452D01*
X145200666Y-70246309D01*
X145248285Y-70436785D01*
X145295904Y-70532023D01*
X145391142Y-70627261D01*
X145534000Y-70674880D01*
X145772095Y-70674880D01*
X144819714Y-69770119D02*
X144772095Y-69722500D01*
X144676857Y-69674880D01*
X144438761Y-69674880D01*
X144343523Y-69722500D01*
X144295904Y-69770119D01*
X144248285Y-69865357D01*
X144248285Y-69960595D01*
X144295904Y-70103452D01*
X144867333Y-70674880D01*
X144248285Y-70674880D01*
X204096880Y-76846204D02*
X203096880Y-76846204D01*
X203096880Y-77084300D01*
X203144500Y-77227157D01*
X203239738Y-77322395D01*
X203334976Y-77370014D01*
X203525452Y-77417633D01*
X203668309Y-77417633D01*
X203858785Y-77370014D01*
X203954023Y-77322395D01*
X204049261Y-77227157D01*
X204096880Y-77084300D01*
X204096880Y-76846204D01*
X203096880Y-77750966D02*
X203096880Y-78370014D01*
X203477833Y-78036680D01*
X203477833Y-78179538D01*
X203525452Y-78274776D01*
X203573071Y-78322395D01*
X203668309Y-78370014D01*
X203906404Y-78370014D01*
X204001642Y-78322395D01*
X204049261Y-78274776D01*
X204096880Y-78179538D01*
X204096880Y-77893823D01*
X204049261Y-77798585D01*
X204001642Y-77750966D01*
X203326380Y-53554404D02*
X202326380Y-53554404D01*
X202326380Y-53792500D01*
X202374000Y-53935357D01*
X202469238Y-54030595D01*
X202564476Y-54078214D01*
X202754952Y-54125833D01*
X202897809Y-54125833D01*
X203088285Y-54078214D01*
X203183523Y-54030595D01*
X203278761Y-53935357D01*
X203326380Y-53792500D01*
X203326380Y-53554404D01*
X202659714Y-54982976D02*
X203326380Y-54982976D01*
X202278761Y-54744880D02*
X202993047Y-54506785D01*
X202993047Y-55125833D01*
X147804095Y-90486880D02*
X147804095Y-89486880D01*
X147566000Y-89486880D01*
X147423142Y-89534500D01*
X147327904Y-89629738D01*
X147280285Y-89724976D01*
X147232666Y-89915452D01*
X147232666Y-90058309D01*
X147280285Y-90248785D01*
X147327904Y-90344023D01*
X147423142Y-90439261D01*
X147566000Y-90486880D01*
X147804095Y-90486880D01*
X146327904Y-89486880D02*
X146804095Y-89486880D01*
X146851714Y-89963071D01*
X146804095Y-89915452D01*
X146708857Y-89867833D01*
X146470761Y-89867833D01*
X146375523Y-89915452D01*
X146327904Y-89963071D01*
X146280285Y-90058309D01*
X146280285Y-90296404D01*
X146327904Y-90391642D01*
X146375523Y-90439261D01*
X146470761Y-90486880D01*
X146708857Y-90486880D01*
X146804095Y-90439261D01*
X146851714Y-90391642D01*
X162178380Y-93178404D02*
X161178380Y-93178404D01*
X161178380Y-93416500D01*
X161226000Y-93559357D01*
X161321238Y-93654595D01*
X161416476Y-93702214D01*
X161606952Y-93749833D01*
X161749809Y-93749833D01*
X161940285Y-93702214D01*
X162035523Y-93654595D01*
X162130761Y-93559357D01*
X162178380Y-93416500D01*
X162178380Y-93178404D01*
X161178380Y-94606976D02*
X161178380Y-94416500D01*
X161226000Y-94321261D01*
X161273619Y-94273642D01*
X161416476Y-94178404D01*
X161606952Y-94130785D01*
X161987904Y-94130785D01*
X162083142Y-94178404D01*
X162130761Y-94226023D01*
X162178380Y-94321261D01*
X162178380Y-94511738D01*
X162130761Y-94606976D01*
X162083142Y-94654595D01*
X161987904Y-94702214D01*
X161749809Y-94702214D01*
X161654571Y-94654595D01*
X161606952Y-94606976D01*
X161559333Y-94511738D01*
X161559333Y-94321261D01*
X161606952Y-94226023D01*
X161654571Y-94178404D01*
X161749809Y-94130785D01*
X181990380Y-93178404D02*
X180990380Y-93178404D01*
X180990380Y-93416500D01*
X181038000Y-93559357D01*
X181133238Y-93654595D01*
X181228476Y-93702214D01*
X181418952Y-93749833D01*
X181561809Y-93749833D01*
X181752285Y-93702214D01*
X181847523Y-93654595D01*
X181942761Y-93559357D01*
X181990380Y-93416500D01*
X181990380Y-93178404D01*
X180990380Y-94083166D02*
X180990380Y-94749833D01*
X181990380Y-94321261D01*
X201802380Y-93178404D02*
X200802380Y-93178404D01*
X200802380Y-93416500D01*
X200850000Y-93559357D01*
X200945238Y-93654595D01*
X201040476Y-93702214D01*
X201230952Y-93749833D01*
X201373809Y-93749833D01*
X201564285Y-93702214D01*
X201659523Y-93654595D01*
X201754761Y-93559357D01*
X201802380Y-93416500D01*
X201802380Y-93178404D01*
X201230952Y-94321261D02*
X201183333Y-94226023D01*
X201135714Y-94178404D01*
X201040476Y-94130785D01*
X200992857Y-94130785D01*
X200897619Y-94178404D01*
X200850000Y-94226023D01*
X200802380Y-94321261D01*
X200802380Y-94511738D01*
X200850000Y-94606976D01*
X200897619Y-94654595D01*
X200992857Y-94702214D01*
X201040476Y-94702214D01*
X201135714Y-94654595D01*
X201183333Y-94606976D01*
X201230952Y-94511738D01*
X201230952Y-94321261D01*
X201278571Y-94226023D01*
X201326190Y-94178404D01*
X201421428Y-94130785D01*
X201611904Y-94130785D01*
X201707142Y-94178404D01*
X201754761Y-94226023D01*
X201802380Y-94321261D01*
X201802380Y-94511738D01*
X201754761Y-94606976D01*
X201707142Y-94654595D01*
X201611904Y-94702214D01*
X201421428Y-94702214D01*
X201326190Y-94654595D01*
X201278571Y-94606976D01*
X201230952Y-94511738D01*
X147804095Y-110298880D02*
X147804095Y-109298880D01*
X147566000Y-109298880D01*
X147423142Y-109346500D01*
X147327904Y-109441738D01*
X147280285Y-109536976D01*
X147232666Y-109727452D01*
X147232666Y-109870309D01*
X147280285Y-110060785D01*
X147327904Y-110156023D01*
X147423142Y-110251261D01*
X147566000Y-110298880D01*
X147804095Y-110298880D01*
X146756476Y-110298880D02*
X146566000Y-110298880D01*
X146470761Y-110251261D01*
X146423142Y-110203642D01*
X146327904Y-110060785D01*
X146280285Y-109870309D01*
X146280285Y-109489357D01*
X146327904Y-109394119D01*
X146375523Y-109346500D01*
X146470761Y-109298880D01*
X146661238Y-109298880D01*
X146756476Y-109346500D01*
X146804095Y-109394119D01*
X146851714Y-109489357D01*
X146851714Y-109727452D01*
X146804095Y-109822690D01*
X146756476Y-109870309D01*
X146661238Y-109917928D01*
X146470761Y-109917928D01*
X146375523Y-109870309D01*
X146327904Y-109822690D01*
X146280285Y-109727452D01*
X162910685Y-118740180D02*
X162910685Y-117740180D01*
X162672590Y-117740180D01*
X162529733Y-117787800D01*
X162434495Y-117883038D01*
X162386876Y-117978276D01*
X162339257Y-118168752D01*
X162339257Y-118311609D01*
X162386876Y-118502085D01*
X162434495Y-118597323D01*
X162529733Y-118692561D01*
X162672590Y-118740180D01*
X162910685Y-118740180D01*
X161386876Y-118740180D02*
X161958304Y-118740180D01*
X161672590Y-118740180D02*
X161672590Y-117740180D01*
X161767828Y-117883038D01*
X161863066Y-117978276D01*
X161958304Y-118025895D01*
X160767828Y-117740180D02*
X160672590Y-117740180D01*
X160577352Y-117787800D01*
X160529733Y-117835419D01*
X160482114Y-117930657D01*
X160434495Y-118121133D01*
X160434495Y-118359228D01*
X160482114Y-118549704D01*
X160529733Y-118644942D01*
X160577352Y-118692561D01*
X160672590Y-118740180D01*
X160767828Y-118740180D01*
X160863066Y-118692561D01*
X160910685Y-118644942D01*
X160958304Y-118549704D01*
X161005923Y-118359228D01*
X161005923Y-118121133D01*
X160958304Y-117930657D01*
X160910685Y-117835419D01*
X160863066Y-117787800D01*
X160767828Y-117740180D01*
X181990380Y-112514214D02*
X180990380Y-112514214D01*
X180990380Y-112752309D01*
X181038000Y-112895166D01*
X181133238Y-112990404D01*
X181228476Y-113038023D01*
X181418952Y-113085642D01*
X181561809Y-113085642D01*
X181752285Y-113038023D01*
X181847523Y-112990404D01*
X181942761Y-112895166D01*
X181990380Y-112752309D01*
X181990380Y-112514214D01*
X181990380Y-114038023D02*
X181990380Y-113466595D01*
X181990380Y-113752309D02*
X180990380Y-113752309D01*
X181133238Y-113657071D01*
X181228476Y-113561833D01*
X181276095Y-113466595D01*
X181990380Y-114990404D02*
X181990380Y-114418976D01*
X181990380Y-114704690D02*
X180990380Y-114704690D01*
X181133238Y-114609452D01*
X181228476Y-114514214D01*
X181276095Y-114418976D01*
X202496585Y-119895880D02*
X202496585Y-118895880D01*
X202258490Y-118895880D01*
X202115633Y-118943500D01*
X202020395Y-119038738D01*
X201972776Y-119133976D01*
X201925157Y-119324452D01*
X201925157Y-119467309D01*
X201972776Y-119657785D01*
X202020395Y-119753023D01*
X202115633Y-119848261D01*
X202258490Y-119895880D01*
X202496585Y-119895880D01*
X200972776Y-119895880D02*
X201544204Y-119895880D01*
X201258490Y-119895880D02*
X201258490Y-118895880D01*
X201353728Y-119038738D01*
X201448966Y-119133976D01*
X201544204Y-119181595D01*
X200591823Y-118991119D02*
X200544204Y-118943500D01*
X200448966Y-118895880D01*
X200210871Y-118895880D01*
X200115633Y-118943500D01*
X200068014Y-118991119D01*
X200020395Y-119086357D01*
X200020395Y-119181595D01*
X200068014Y-119324452D01*
X200639442Y-119895880D01*
X200020395Y-119895880D01*
X212428080Y-49268214D02*
X211428080Y-49268214D01*
X211428080Y-49506309D01*
X211475700Y-49649166D01*
X211570938Y-49744404D01*
X211666176Y-49792023D01*
X211856652Y-49839642D01*
X211999509Y-49839642D01*
X212189985Y-49792023D01*
X212285223Y-49744404D01*
X212380461Y-49649166D01*
X212428080Y-49506309D01*
X212428080Y-49268214D01*
X212428080Y-50792023D02*
X212428080Y-50220595D01*
X212428080Y-50506309D02*
X211428080Y-50506309D01*
X211570938Y-50411071D01*
X211666176Y-50315833D01*
X211713795Y-50220595D01*
X211428080Y-51125357D02*
X211428080Y-51744404D01*
X211809033Y-51411071D01*
X211809033Y-51553928D01*
X211856652Y-51649166D01*
X211904271Y-51696785D01*
X211999509Y-51744404D01*
X212237604Y-51744404D01*
X212332842Y-51696785D01*
X212380461Y-51649166D01*
X212428080Y-51553928D01*
X212428080Y-51268214D01*
X212380461Y-51172976D01*
X212332842Y-51125357D01*
X160027785Y-73934580D02*
X160027785Y-72934580D01*
X159789690Y-72934580D01*
X159646833Y-72982200D01*
X159551595Y-73077438D01*
X159503976Y-73172676D01*
X159456357Y-73363152D01*
X159456357Y-73506009D01*
X159503976Y-73696485D01*
X159551595Y-73791723D01*
X159646833Y-73886961D01*
X159789690Y-73934580D01*
X160027785Y-73934580D01*
X159075404Y-73029819D02*
X159027785Y-72982200D01*
X158932547Y-72934580D01*
X158694452Y-72934580D01*
X158599214Y-72982200D01*
X158551595Y-73029819D01*
X158503976Y-73125057D01*
X158503976Y-73220295D01*
X158551595Y-73363152D01*
X159123023Y-73934580D01*
X158503976Y-73934580D01*
X157646833Y-72934580D02*
X157837309Y-72934580D01*
X157932547Y-72982200D01*
X157980166Y-73029819D01*
X158075404Y-73172676D01*
X158123023Y-73363152D01*
X158123023Y-73744104D01*
X158075404Y-73839342D01*
X158027785Y-73886961D01*
X157932547Y-73934580D01*
X157742071Y-73934580D01*
X157646833Y-73886961D01*
X157599214Y-73839342D01*
X157551595Y-73744104D01*
X157551595Y-73506009D01*
X157599214Y-73410771D01*
X157646833Y-73363152D01*
X157742071Y-73315533D01*
X157932547Y-73315533D01*
X158027785Y-73363152D01*
X158075404Y-73410771D01*
X158123023Y-73506009D01*
X162677785Y-68829380D02*
X163249214Y-68829380D01*
X162963500Y-68829380D02*
X162963500Y-67829380D01*
X163058738Y-67972238D01*
X163153976Y-68067476D01*
X163249214Y-68115095D01*
X198064380Y-108894714D02*
X197064380Y-108894714D01*
X197064380Y-109132809D01*
X197112000Y-109275666D01*
X197207238Y-109370904D01*
X197302476Y-109418523D01*
X197492952Y-109466142D01*
X197635809Y-109466142D01*
X197826285Y-109418523D01*
X197921523Y-109370904D01*
X198016761Y-109275666D01*
X198064380Y-109132809D01*
X198064380Y-108894714D01*
X197159619Y-109847095D02*
X197112000Y-109894714D01*
X197064380Y-109989952D01*
X197064380Y-110228047D01*
X197112000Y-110323285D01*
X197159619Y-110370904D01*
X197254857Y-110418523D01*
X197350095Y-110418523D01*
X197492952Y-110370904D01*
X198064380Y-109799476D01*
X198064380Y-110418523D01*
X197492952Y-110989952D02*
X197445333Y-110894714D01*
X197397714Y-110847095D01*
X197302476Y-110799476D01*
X197254857Y-110799476D01*
X197159619Y-110847095D01*
X197112000Y-110894714D01*
X197064380Y-110989952D01*
X197064380Y-111180428D01*
X197112000Y-111275666D01*
X197159619Y-111323285D01*
X197254857Y-111370904D01*
X197302476Y-111370904D01*
X197397714Y-111323285D01*
X197445333Y-111275666D01*
X197492952Y-111180428D01*
X197492952Y-110989952D01*
X197540571Y-110894714D01*
X197588190Y-110847095D01*
X197683428Y-110799476D01*
X197873904Y-110799476D01*
X197969142Y-110847095D01*
X198016761Y-110894714D01*
X198064380Y-110989952D01*
X198064380Y-111180428D01*
X198016761Y-111275666D01*
X197969142Y-111323285D01*
X197873904Y-111370904D01*
X197683428Y-111370904D01*
X197588190Y-111323285D01*
X197540571Y-111275666D01*
X197492952Y-111180428D01*
X205667285Y-109151880D02*
X206238714Y-109151880D01*
X205953000Y-109151880D02*
X205953000Y-108151880D01*
X206048238Y-108294738D01*
X206143476Y-108389976D01*
X206238714Y-108437595D01*
X209253080Y-69537414D02*
X208253080Y-69537414D01*
X208253080Y-69775509D01*
X208300700Y-69918366D01*
X208395938Y-70013604D01*
X208491176Y-70061223D01*
X208681652Y-70108842D01*
X208824509Y-70108842D01*
X209014985Y-70061223D01*
X209110223Y-70013604D01*
X209205461Y-69918366D01*
X209253080Y-69775509D01*
X209253080Y-69537414D01*
X208348319Y-70489795D02*
X208300700Y-70537414D01*
X208253080Y-70632652D01*
X208253080Y-70870747D01*
X208300700Y-70965985D01*
X208348319Y-71013604D01*
X208443557Y-71061223D01*
X208538795Y-71061223D01*
X208681652Y-71013604D01*
X209253080Y-70442176D01*
X209253080Y-71061223D01*
X209253080Y-71537414D02*
X209253080Y-71727890D01*
X209205461Y-71823128D01*
X209157842Y-71870747D01*
X209014985Y-71965985D01*
X208824509Y-72013604D01*
X208443557Y-72013604D01*
X208348319Y-71965985D01*
X208300700Y-71918366D01*
X208253080Y-71823128D01*
X208253080Y-71632652D01*
X208300700Y-71537414D01*
X208348319Y-71489795D01*
X208443557Y-71442176D01*
X208681652Y-71442176D01*
X208776890Y-71489795D01*
X208824509Y-71537414D01*
X208872128Y-71632652D01*
X208872128Y-71823128D01*
X208824509Y-71918366D01*
X208776890Y-71965985D01*
X208681652Y-72013604D01*
X200034285Y-72854880D02*
X200605714Y-72854880D01*
X200320000Y-72854880D02*
X200320000Y-71854880D01*
X200415238Y-71997738D01*
X200510476Y-72092976D01*
X200605714Y-72140595D01*
X205896380Y-50315833D02*
X205420190Y-49982500D01*
X205896380Y-49744404D02*
X204896380Y-49744404D01*
X204896380Y-50125357D01*
X204944000Y-50220595D01*
X204991619Y-50268214D01*
X205086857Y-50315833D01*
X205229714Y-50315833D01*
X205324952Y-50268214D01*
X205372571Y-50220595D01*
X205420190Y-50125357D01*
X205420190Y-49744404D01*
X205896380Y-51268214D02*
X205896380Y-50696785D01*
X205896380Y-50982500D02*
X204896380Y-50982500D01*
X205039238Y-50887261D01*
X205134476Y-50792023D01*
X205182095Y-50696785D01*
X169944823Y-69467361D02*
X169801966Y-69514980D01*
X169563871Y-69514980D01*
X169468633Y-69467361D01*
X169421014Y-69419742D01*
X169373395Y-69324504D01*
X169373395Y-69229266D01*
X169421014Y-69134028D01*
X169468633Y-69086409D01*
X169563871Y-69038790D01*
X169754347Y-68991171D01*
X169849585Y-68943552D01*
X169897204Y-68895933D01*
X169944823Y-68800695D01*
X169944823Y-68705457D01*
X169897204Y-68610219D01*
X169849585Y-68562600D01*
X169754347Y-68514980D01*
X169516252Y-68514980D01*
X169373395Y-68562600D01*
X169040061Y-68514980D02*
X168801966Y-69514980D01*
X168611490Y-68800695D01*
X168421014Y-69514980D01*
X168182919Y-68514980D01*
X167278157Y-69514980D02*
X167849585Y-69514980D01*
X167563871Y-69514980D02*
X167563871Y-68514980D01*
X167659109Y-68657838D01*
X167754347Y-68753076D01*
X167849585Y-68800695D01*
X166421014Y-68848314D02*
X166421014Y-69514980D01*
X166659109Y-68467361D02*
X166897204Y-69181647D01*
X166278157Y-69181647D01*
X172952761Y-73374476D02*
X173000380Y-73517333D01*
X173000380Y-73755428D01*
X172952761Y-73850666D01*
X172905142Y-73898285D01*
X172809904Y-73945904D01*
X172714666Y-73945904D01*
X172619428Y-73898285D01*
X172571809Y-73850666D01*
X172524190Y-73755428D01*
X172476571Y-73564952D01*
X172428952Y-73469714D01*
X172381333Y-73422095D01*
X172286095Y-73374476D01*
X172190857Y-73374476D01*
X172095619Y-73422095D01*
X172048000Y-73469714D01*
X172000380Y-73564952D01*
X172000380Y-73803047D01*
X172048000Y-73945904D01*
X172000380Y-74279238D02*
X173000380Y-74517333D01*
X172286095Y-74707809D01*
X173000380Y-74898285D01*
X172000380Y-75136380D01*
X173000380Y-76041142D02*
X173000380Y-75469714D01*
X173000380Y-75755428D02*
X172000380Y-75755428D01*
X172143238Y-75660190D01*
X172238476Y-75564952D01*
X172286095Y-75469714D01*
X172000380Y-76945904D02*
X172000380Y-76469714D01*
X172476571Y-76422095D01*
X172428952Y-76469714D01*
X172381333Y-76564952D01*
X172381333Y-76803047D01*
X172428952Y-76898285D01*
X172476571Y-76945904D01*
X172571809Y-76993523D01*
X172809904Y-76993523D01*
X172905142Y-76945904D01*
X172952761Y-76898285D01*
X173000380Y-76803047D01*
X173000380Y-76564952D01*
X172952761Y-76469714D01*
X172905142Y-76422095D01*
X192854761Y-71596476D02*
X192902380Y-71739333D01*
X192902380Y-71977428D01*
X192854761Y-72072666D01*
X192807142Y-72120285D01*
X192711904Y-72167904D01*
X192616666Y-72167904D01*
X192521428Y-72120285D01*
X192473809Y-72072666D01*
X192426190Y-71977428D01*
X192378571Y-71786952D01*
X192330952Y-71691714D01*
X192283333Y-71644095D01*
X192188095Y-71596476D01*
X192092857Y-71596476D01*
X191997619Y-71644095D01*
X191950000Y-71691714D01*
X191902380Y-71786952D01*
X191902380Y-72025047D01*
X191950000Y-72167904D01*
X191902380Y-72501238D02*
X192902380Y-72739333D01*
X192188095Y-72929809D01*
X192902380Y-73120285D01*
X191902380Y-73358380D01*
X192902380Y-74263142D02*
X192902380Y-73691714D01*
X192902380Y-73977428D02*
X191902380Y-73977428D01*
X192045238Y-73882190D01*
X192140476Y-73786952D01*
X192188095Y-73691714D01*
X191902380Y-75120285D02*
X191902380Y-74929809D01*
X191950000Y-74834571D01*
X191997619Y-74786952D01*
X192140476Y-74691714D01*
X192330952Y-74644095D01*
X192711904Y-74644095D01*
X192807142Y-74691714D01*
X192854761Y-74739333D01*
X192902380Y-74834571D01*
X192902380Y-75025047D01*
X192854761Y-75120285D01*
X192807142Y-75167904D01*
X192711904Y-75215523D01*
X192473809Y-75215523D01*
X192378571Y-75167904D01*
X192330952Y-75120285D01*
X192283333Y-75025047D01*
X192283333Y-74834571D01*
X192330952Y-74739333D01*
X192378571Y-74691714D01*
X192473809Y-74644095D01*
X193406661Y-58617076D02*
X193454280Y-58759933D01*
X193454280Y-58998028D01*
X193406661Y-59093266D01*
X193359042Y-59140885D01*
X193263804Y-59188504D01*
X193168566Y-59188504D01*
X193073328Y-59140885D01*
X193025709Y-59093266D01*
X192978090Y-58998028D01*
X192930471Y-58807552D01*
X192882852Y-58712314D01*
X192835233Y-58664695D01*
X192739995Y-58617076D01*
X192644757Y-58617076D01*
X192549519Y-58664695D01*
X192501900Y-58712314D01*
X192454280Y-58807552D01*
X192454280Y-59045647D01*
X192501900Y-59188504D01*
X192454280Y-59521838D02*
X193454280Y-59759933D01*
X192739995Y-59950409D01*
X193454280Y-60140885D01*
X192454280Y-60378980D01*
X193454280Y-61283742D02*
X193454280Y-60712314D01*
X193454280Y-60998028D02*
X192454280Y-60998028D01*
X192597138Y-60902790D01*
X192692376Y-60807552D01*
X192739995Y-60712314D01*
X192454280Y-61617076D02*
X192454280Y-62283742D01*
X193454280Y-61855171D01*
X170953180Y-61976095D02*
X171762704Y-61976095D01*
X171857942Y-62023714D01*
X171905561Y-62071333D01*
X171953180Y-62166571D01*
X171953180Y-62357047D01*
X171905561Y-62452285D01*
X171857942Y-62499904D01*
X171762704Y-62547523D01*
X170953180Y-62547523D01*
X171953180Y-63547523D02*
X171953180Y-62976095D01*
X171953180Y-63261809D02*
X170953180Y-63261809D01*
X171096038Y-63166571D01*
X171191276Y-63071333D01*
X171238895Y-62976095D01*
X184947333Y-63308666D02*
X184947333Y-62608666D01*
X184714000Y-63108666D01*
X184480666Y-62608666D01*
X184480666Y-63308666D01*
X184147333Y-63308666D02*
X184147333Y-62608666D01*
X183814000Y-63308666D02*
X183814000Y-62608666D01*
X183580666Y-63108666D01*
X183347333Y-62608666D01*
X183347333Y-63308666D01*
X183080666Y-62608666D02*
X182614000Y-63308666D01*
X182614000Y-62608666D02*
X183080666Y-63308666D01*
X181947333Y-63308666D02*
X182180666Y-62975333D01*
X182347333Y-63308666D02*
X182347333Y-62608666D01*
X182080666Y-62608666D01*
X182014000Y-62642000D01*
X181980666Y-62675333D01*
X181947333Y-62742000D01*
X181947333Y-62842000D01*
X181980666Y-62908666D01*
X182014000Y-62942000D01*
X182080666Y-62975333D01*
X182347333Y-62975333D01*
X181747333Y-62608666D02*
X181347333Y-62608666D01*
X181547333Y-63308666D02*
X181547333Y-62608666D01*
X180747333Y-63308666D02*
X181147333Y-63308666D01*
X180947333Y-63308666D02*
X180947333Y-62608666D01*
X181014000Y-62708666D01*
X181080666Y-62775333D01*
X181147333Y-62808666D01*
X180314000Y-62608666D02*
X180247333Y-62608666D01*
X180180666Y-62642000D01*
X180147333Y-62675333D01*
X180114000Y-62742000D01*
X180080666Y-62875333D01*
X180080666Y-63042000D01*
X180114000Y-63175333D01*
X180147333Y-63242000D01*
X180180666Y-63275333D01*
X180247333Y-63308666D01*
X180314000Y-63308666D01*
X180380666Y-63275333D01*
X180414000Y-63242000D01*
X180447333Y-63175333D01*
X180480666Y-63042000D01*
X180480666Y-62875333D01*
X180447333Y-62742000D01*
X180414000Y-62675333D01*
X180380666Y-62642000D01*
X180314000Y-62608666D01*
X179480666Y-62608666D02*
X179614000Y-62608666D01*
X179680666Y-62642000D01*
X179714000Y-62675333D01*
X179780666Y-62775333D01*
X179814000Y-62908666D01*
X179814000Y-63175333D01*
X179780666Y-63242000D01*
X179747333Y-63275333D01*
X179680666Y-63308666D01*
X179547333Y-63308666D01*
X179480666Y-63275333D01*
X179447333Y-63242000D01*
X179414000Y-63175333D01*
X179414000Y-63008666D01*
X179447333Y-62942000D01*
X179480666Y-62908666D01*
X179547333Y-62875333D01*
X179680666Y-62875333D01*
X179747333Y-62908666D01*
X179780666Y-62942000D01*
X179814000Y-63008666D01*
X179147333Y-62675333D02*
X179114000Y-62642000D01*
X179047333Y-62608666D01*
X178880666Y-62608666D01*
X178814000Y-62642000D01*
X178780666Y-62675333D01*
X178747333Y-62742000D01*
X178747333Y-62808666D01*
X178780666Y-62908666D01*
X179180666Y-63308666D01*
X178747333Y-63308666D01*
X183264000Y-64832666D02*
X183264000Y-64132666D01*
X183097333Y-64132666D01*
X182997333Y-64166000D01*
X182930666Y-64232666D01*
X182897333Y-64299333D01*
X182864000Y-64432666D01*
X182864000Y-64532666D01*
X182897333Y-64666000D01*
X182930666Y-64732666D01*
X182997333Y-64799333D01*
X183097333Y-64832666D01*
X183264000Y-64832666D01*
X182664000Y-64132666D02*
X182430666Y-64832666D01*
X182197333Y-64132666D01*
X181630666Y-64832666D02*
X181964000Y-64832666D01*
X181964000Y-64132666D01*
X181097333Y-64132666D02*
X181230666Y-64132666D01*
X181297333Y-64166000D01*
X181330666Y-64199333D01*
X181397333Y-64299333D01*
X181430666Y-64432666D01*
X181430666Y-64699333D01*
X181397333Y-64766000D01*
X181364000Y-64799333D01*
X181297333Y-64832666D01*
X181164000Y-64832666D01*
X181097333Y-64799333D01*
X181064000Y-64766000D01*
X181030666Y-64699333D01*
X181030666Y-64532666D01*
X181064000Y-64466000D01*
X181097333Y-64432666D01*
X181164000Y-64399333D01*
X181297333Y-64399333D01*
X181364000Y-64432666D01*
X181397333Y-64466000D01*
X181430666Y-64532666D01*
X180764000Y-64632666D02*
X180430666Y-64632666D01*
X180830666Y-64832666D02*
X180597333Y-64132666D01*
X180364000Y-64832666D01*
X151828333Y-53046261D02*
X151685476Y-53093880D01*
X151447380Y-53093880D01*
X151352142Y-53046261D01*
X151304523Y-52998642D01*
X151256904Y-52903404D01*
X151256904Y-52808166D01*
X151304523Y-52712928D01*
X151352142Y-52665309D01*
X151447380Y-52617690D01*
X151637857Y-52570071D01*
X151733095Y-52522452D01*
X151780714Y-52474833D01*
X151828333Y-52379595D01*
X151828333Y-52284357D01*
X151780714Y-52189119D01*
X151733095Y-52141500D01*
X151637857Y-52093880D01*
X151399761Y-52093880D01*
X151256904Y-52141500D01*
X150923571Y-52093880D02*
X150685476Y-53093880D01*
X150495000Y-52379595D01*
X150304523Y-53093880D01*
X150066428Y-52093880D01*
X149161666Y-53093880D02*
X149733095Y-53093880D01*
X149447380Y-53093880D02*
X149447380Y-52093880D01*
X149542619Y-52236738D01*
X149637857Y-52331976D01*
X149733095Y-52379595D01*
X151828333Y-72858261D02*
X151685476Y-72905880D01*
X151447380Y-72905880D01*
X151352142Y-72858261D01*
X151304523Y-72810642D01*
X151256904Y-72715404D01*
X151256904Y-72620166D01*
X151304523Y-72524928D01*
X151352142Y-72477309D01*
X151447380Y-72429690D01*
X151637857Y-72382071D01*
X151733095Y-72334452D01*
X151780714Y-72286833D01*
X151828333Y-72191595D01*
X151828333Y-72096357D01*
X151780714Y-72001119D01*
X151733095Y-71953500D01*
X151637857Y-71905880D01*
X151399761Y-71905880D01*
X151256904Y-71953500D01*
X150923571Y-71905880D02*
X150685476Y-72905880D01*
X150495000Y-72191595D01*
X150304523Y-72905880D01*
X150066428Y-71905880D01*
X149733095Y-72001119D02*
X149685476Y-71953500D01*
X149590238Y-71905880D01*
X149352142Y-71905880D01*
X149256904Y-71953500D01*
X149209285Y-72001119D01*
X149161666Y-72096357D01*
X149161666Y-72191595D01*
X149209285Y-72334452D01*
X149780714Y-72905880D01*
X149161666Y-72905880D01*
X214566333Y-72858261D02*
X214423476Y-72905880D01*
X214185380Y-72905880D01*
X214090142Y-72858261D01*
X214042523Y-72810642D01*
X213994904Y-72715404D01*
X213994904Y-72620166D01*
X214042523Y-72524928D01*
X214090142Y-72477309D01*
X214185380Y-72429690D01*
X214375857Y-72382071D01*
X214471095Y-72334452D01*
X214518714Y-72286833D01*
X214566333Y-72191595D01*
X214566333Y-72096357D01*
X214518714Y-72001119D01*
X214471095Y-71953500D01*
X214375857Y-71905880D01*
X214137761Y-71905880D01*
X213994904Y-71953500D01*
X213661571Y-71905880D02*
X213423476Y-72905880D01*
X213233000Y-72191595D01*
X213042523Y-72905880D01*
X212804428Y-71905880D01*
X212518714Y-71905880D02*
X211899666Y-71905880D01*
X212233000Y-72286833D01*
X212090142Y-72286833D01*
X211994904Y-72334452D01*
X211947285Y-72382071D01*
X211899666Y-72477309D01*
X211899666Y-72715404D01*
X211947285Y-72810642D01*
X211994904Y-72858261D01*
X212090142Y-72905880D01*
X212375857Y-72905880D01*
X212471095Y-72858261D01*
X212518714Y-72810642D01*
X216344333Y-53058961D02*
X216201476Y-53106580D01*
X215963380Y-53106580D01*
X215868142Y-53058961D01*
X215820523Y-53011342D01*
X215772904Y-52916104D01*
X215772904Y-52820866D01*
X215820523Y-52725628D01*
X215868142Y-52678009D01*
X215963380Y-52630390D01*
X216153857Y-52582771D01*
X216249095Y-52535152D01*
X216296714Y-52487533D01*
X216344333Y-52392295D01*
X216344333Y-52297057D01*
X216296714Y-52201819D01*
X216249095Y-52154200D01*
X216153857Y-52106580D01*
X215915761Y-52106580D01*
X215772904Y-52154200D01*
X215439571Y-52106580D02*
X215201476Y-53106580D01*
X215011000Y-52392295D01*
X214820523Y-53106580D01*
X214582428Y-52106580D01*
X213772904Y-52439914D02*
X213772904Y-53106580D01*
X214011000Y-52058961D02*
X214249095Y-52773247D01*
X213630047Y-52773247D01*
X153479333Y-92670261D02*
X153336476Y-92717880D01*
X153098380Y-92717880D01*
X153003142Y-92670261D01*
X152955523Y-92622642D01*
X152907904Y-92527404D01*
X152907904Y-92432166D01*
X152955523Y-92336928D01*
X153003142Y-92289309D01*
X153098380Y-92241690D01*
X153288857Y-92194071D01*
X153384095Y-92146452D01*
X153431714Y-92098833D01*
X153479333Y-92003595D01*
X153479333Y-91908357D01*
X153431714Y-91813119D01*
X153384095Y-91765500D01*
X153288857Y-91717880D01*
X153050761Y-91717880D01*
X152907904Y-91765500D01*
X152574571Y-91717880D02*
X152336476Y-92717880D01*
X152146000Y-92003595D01*
X151955523Y-92717880D01*
X151717428Y-91717880D01*
X150860285Y-91717880D02*
X151336476Y-91717880D01*
X151384095Y-92194071D01*
X151336476Y-92146452D01*
X151241238Y-92098833D01*
X151003142Y-92098833D01*
X150907904Y-92146452D01*
X150860285Y-92194071D01*
X150812666Y-92289309D01*
X150812666Y-92527404D01*
X150860285Y-92622642D01*
X150907904Y-92670261D01*
X151003142Y-92717880D01*
X151241238Y-92717880D01*
X151336476Y-92670261D01*
X151384095Y-92622642D01*
X173291333Y-92670261D02*
X173148476Y-92717880D01*
X172910380Y-92717880D01*
X172815142Y-92670261D01*
X172767523Y-92622642D01*
X172719904Y-92527404D01*
X172719904Y-92432166D01*
X172767523Y-92336928D01*
X172815142Y-92289309D01*
X172910380Y-92241690D01*
X173100857Y-92194071D01*
X173196095Y-92146452D01*
X173243714Y-92098833D01*
X173291333Y-92003595D01*
X173291333Y-91908357D01*
X173243714Y-91813119D01*
X173196095Y-91765500D01*
X173100857Y-91717880D01*
X172862761Y-91717880D01*
X172719904Y-91765500D01*
X172386571Y-91717880D02*
X172148476Y-92717880D01*
X171958000Y-92003595D01*
X171767523Y-92717880D01*
X171529428Y-91717880D01*
X170719904Y-91717880D02*
X170910380Y-91717880D01*
X171005619Y-91765500D01*
X171053238Y-91813119D01*
X171148476Y-91955976D01*
X171196095Y-92146452D01*
X171196095Y-92527404D01*
X171148476Y-92622642D01*
X171100857Y-92670261D01*
X171005619Y-92717880D01*
X170815142Y-92717880D01*
X170719904Y-92670261D01*
X170672285Y-92622642D01*
X170624666Y-92527404D01*
X170624666Y-92289309D01*
X170672285Y-92194071D01*
X170719904Y-92146452D01*
X170815142Y-92098833D01*
X171005619Y-92098833D01*
X171100857Y-92146452D01*
X171148476Y-92194071D01*
X171196095Y-92289309D01*
X193103333Y-92670261D02*
X192960476Y-92717880D01*
X192722380Y-92717880D01*
X192627142Y-92670261D01*
X192579523Y-92622642D01*
X192531904Y-92527404D01*
X192531904Y-92432166D01*
X192579523Y-92336928D01*
X192627142Y-92289309D01*
X192722380Y-92241690D01*
X192912857Y-92194071D01*
X193008095Y-92146452D01*
X193055714Y-92098833D01*
X193103333Y-92003595D01*
X193103333Y-91908357D01*
X193055714Y-91813119D01*
X193008095Y-91765500D01*
X192912857Y-91717880D01*
X192674761Y-91717880D01*
X192531904Y-91765500D01*
X192198571Y-91717880D02*
X191960476Y-92717880D01*
X191770000Y-92003595D01*
X191579523Y-92717880D01*
X191341428Y-91717880D01*
X191055714Y-91717880D02*
X190389047Y-91717880D01*
X190817619Y-92717880D01*
X212915333Y-92670261D02*
X212772476Y-92717880D01*
X212534380Y-92717880D01*
X212439142Y-92670261D01*
X212391523Y-92622642D01*
X212343904Y-92527404D01*
X212343904Y-92432166D01*
X212391523Y-92336928D01*
X212439142Y-92289309D01*
X212534380Y-92241690D01*
X212724857Y-92194071D01*
X212820095Y-92146452D01*
X212867714Y-92098833D01*
X212915333Y-92003595D01*
X212915333Y-91908357D01*
X212867714Y-91813119D01*
X212820095Y-91765500D01*
X212724857Y-91717880D01*
X212486761Y-91717880D01*
X212343904Y-91765500D01*
X212010571Y-91717880D02*
X211772476Y-92717880D01*
X211582000Y-92003595D01*
X211391523Y-92717880D01*
X211153428Y-91717880D01*
X210629619Y-92146452D02*
X210724857Y-92098833D01*
X210772476Y-92051214D01*
X210820095Y-91955976D01*
X210820095Y-91908357D01*
X210772476Y-91813119D01*
X210724857Y-91765500D01*
X210629619Y-91717880D01*
X210439142Y-91717880D01*
X210343904Y-91765500D01*
X210296285Y-91813119D01*
X210248666Y-91908357D01*
X210248666Y-91955976D01*
X210296285Y-92051214D01*
X210343904Y-92098833D01*
X210439142Y-92146452D01*
X210629619Y-92146452D01*
X210724857Y-92194071D01*
X210772476Y-92241690D01*
X210820095Y-92336928D01*
X210820095Y-92527404D01*
X210772476Y-92622642D01*
X210724857Y-92670261D01*
X210629619Y-92717880D01*
X210439142Y-92717880D01*
X210343904Y-92670261D01*
X210296285Y-92622642D01*
X210248666Y-92527404D01*
X210248666Y-92336928D01*
X210296285Y-92241690D01*
X210343904Y-92194071D01*
X210439142Y-92146452D01*
X153479333Y-112482261D02*
X153336476Y-112529880D01*
X153098380Y-112529880D01*
X153003142Y-112482261D01*
X152955523Y-112434642D01*
X152907904Y-112339404D01*
X152907904Y-112244166D01*
X152955523Y-112148928D01*
X153003142Y-112101309D01*
X153098380Y-112053690D01*
X153288857Y-112006071D01*
X153384095Y-111958452D01*
X153431714Y-111910833D01*
X153479333Y-111815595D01*
X153479333Y-111720357D01*
X153431714Y-111625119D01*
X153384095Y-111577500D01*
X153288857Y-111529880D01*
X153050761Y-111529880D01*
X152907904Y-111577500D01*
X152574571Y-111529880D02*
X152336476Y-112529880D01*
X152146000Y-111815595D01*
X151955523Y-112529880D01*
X151717428Y-111529880D01*
X151288857Y-112529880D02*
X151098380Y-112529880D01*
X151003142Y-112482261D01*
X150955523Y-112434642D01*
X150860285Y-112291785D01*
X150812666Y-112101309D01*
X150812666Y-111720357D01*
X150860285Y-111625119D01*
X150907904Y-111577500D01*
X151003142Y-111529880D01*
X151193619Y-111529880D01*
X151288857Y-111577500D01*
X151336476Y-111625119D01*
X151384095Y-111720357D01*
X151384095Y-111958452D01*
X151336476Y-112053690D01*
X151288857Y-112101309D01*
X151193619Y-112148928D01*
X151003142Y-112148928D01*
X150907904Y-112101309D01*
X150860285Y-112053690D01*
X150812666Y-111958452D01*
X173767523Y-112482261D02*
X173624666Y-112529880D01*
X173386571Y-112529880D01*
X173291333Y-112482261D01*
X173243714Y-112434642D01*
X173196095Y-112339404D01*
X173196095Y-112244166D01*
X173243714Y-112148928D01*
X173291333Y-112101309D01*
X173386571Y-112053690D01*
X173577047Y-112006071D01*
X173672285Y-111958452D01*
X173719904Y-111910833D01*
X173767523Y-111815595D01*
X173767523Y-111720357D01*
X173719904Y-111625119D01*
X173672285Y-111577500D01*
X173577047Y-111529880D01*
X173338952Y-111529880D01*
X173196095Y-111577500D01*
X172862761Y-111529880D02*
X172624666Y-112529880D01*
X172434190Y-111815595D01*
X172243714Y-112529880D01*
X172005619Y-111529880D01*
X171100857Y-112529880D02*
X171672285Y-112529880D01*
X171386571Y-112529880D02*
X171386571Y-111529880D01*
X171481809Y-111672738D01*
X171577047Y-111767976D01*
X171672285Y-111815595D01*
X170481809Y-111529880D02*
X170386571Y-111529880D01*
X170291333Y-111577500D01*
X170243714Y-111625119D01*
X170196095Y-111720357D01*
X170148476Y-111910833D01*
X170148476Y-112148928D01*
X170196095Y-112339404D01*
X170243714Y-112434642D01*
X170291333Y-112482261D01*
X170386571Y-112529880D01*
X170481809Y-112529880D01*
X170577047Y-112482261D01*
X170624666Y-112434642D01*
X170672285Y-112339404D01*
X170719904Y-112148928D01*
X170719904Y-111910833D01*
X170672285Y-111720357D01*
X170624666Y-111625119D01*
X170577047Y-111577500D01*
X170481809Y-111529880D01*
X193579523Y-112482261D02*
X193436666Y-112529880D01*
X193198571Y-112529880D01*
X193103333Y-112482261D01*
X193055714Y-112434642D01*
X193008095Y-112339404D01*
X193008095Y-112244166D01*
X193055714Y-112148928D01*
X193103333Y-112101309D01*
X193198571Y-112053690D01*
X193389047Y-112006071D01*
X193484285Y-111958452D01*
X193531904Y-111910833D01*
X193579523Y-111815595D01*
X193579523Y-111720357D01*
X193531904Y-111625119D01*
X193484285Y-111577500D01*
X193389047Y-111529880D01*
X193150952Y-111529880D01*
X193008095Y-111577500D01*
X192674761Y-111529880D02*
X192436666Y-112529880D01*
X192246190Y-111815595D01*
X192055714Y-112529880D01*
X191817619Y-111529880D01*
X190912857Y-112529880D02*
X191484285Y-112529880D01*
X191198571Y-112529880D02*
X191198571Y-111529880D01*
X191293809Y-111672738D01*
X191389047Y-111767976D01*
X191484285Y-111815595D01*
X189960476Y-112529880D02*
X190531904Y-112529880D01*
X190246190Y-112529880D02*
X190246190Y-111529880D01*
X190341428Y-111672738D01*
X190436666Y-111767976D01*
X190531904Y-111815595D01*
X213391523Y-112482261D02*
X213248666Y-112529880D01*
X213010571Y-112529880D01*
X212915333Y-112482261D01*
X212867714Y-112434642D01*
X212820095Y-112339404D01*
X212820095Y-112244166D01*
X212867714Y-112148928D01*
X212915333Y-112101309D01*
X213010571Y-112053690D01*
X213201047Y-112006071D01*
X213296285Y-111958452D01*
X213343904Y-111910833D01*
X213391523Y-111815595D01*
X213391523Y-111720357D01*
X213343904Y-111625119D01*
X213296285Y-111577500D01*
X213201047Y-111529880D01*
X212962952Y-111529880D01*
X212820095Y-111577500D01*
X212486761Y-111529880D02*
X212248666Y-112529880D01*
X212058190Y-111815595D01*
X211867714Y-112529880D01*
X211629619Y-111529880D01*
X210724857Y-112529880D02*
X211296285Y-112529880D01*
X211010571Y-112529880D02*
X211010571Y-111529880D01*
X211105809Y-111672738D01*
X211201047Y-111767976D01*
X211296285Y-111815595D01*
X210343904Y-111625119D02*
X210296285Y-111577500D01*
X210201047Y-111529880D01*
X209962952Y-111529880D01*
X209867714Y-111577500D01*
X209820095Y-111625119D01*
X209772476Y-111720357D01*
X209772476Y-111815595D01*
X209820095Y-111958452D01*
X210391523Y-112529880D01*
X209772476Y-112529880D01*
X140058733Y-64133480D02*
X140058733Y-64847766D01*
X140106352Y-64990623D01*
X140201590Y-65085861D01*
X140344447Y-65133480D01*
X140439685Y-65133480D01*
X139677780Y-64133480D02*
X139058733Y-64133480D01*
X139392066Y-64514433D01*
X139249209Y-64514433D01*
X139153971Y-64562052D01*
X139106352Y-64609671D01*
X139058733Y-64704909D01*
X139058733Y-64943004D01*
X139106352Y-65038242D01*
X139153971Y-65085861D01*
X139249209Y-65133480D01*
X139534923Y-65133480D01*
X139630161Y-65085861D01*
X139677780Y-65038242D01*
X138387080Y-57351633D02*
X137910890Y-57018300D01*
X138387080Y-56780204D02*
X137387080Y-56780204D01*
X137387080Y-57161157D01*
X137434700Y-57256395D01*
X137482319Y-57304014D01*
X137577557Y-57351633D01*
X137720414Y-57351633D01*
X137815652Y-57304014D01*
X137863271Y-57256395D01*
X137910890Y-57161157D01*
X137910890Y-56780204D01*
X137387080Y-58208776D02*
X137387080Y-58018300D01*
X137434700Y-57923061D01*
X137482319Y-57875442D01*
X137625176Y-57780204D01*
X137815652Y-57732585D01*
X138196604Y-57732585D01*
X138291842Y-57780204D01*
X138339461Y-57827823D01*
X138387080Y-57923061D01*
X138387080Y-58113538D01*
X138339461Y-58208776D01*
X138291842Y-58256395D01*
X138196604Y-58304014D01*
X137958509Y-58304014D01*
X137863271Y-58256395D01*
X137815652Y-58208776D01*
X137768033Y-58113538D01*
X137768033Y-57923061D01*
X137815652Y-57827823D01*
X137863271Y-57780204D01*
X137958509Y-57732585D01*
M02*
