M48
;DRILL file {KiCad (5.0.0-3-g5ebb6b6)} date Thursday, February 07, 2019 at 10:07:05 PM
;FORMAT={-:-/ absolute / inch / decimal}
FMAT,2
INCH,TZ
T1C0.0390
T2C0.0670
T3C0.1181
T4C0.1350
%
G90
G05
M72
T1
X2.9811Y-4.9331
X3.7094Y-3.4764
X2.2528Y-3.4764
X2.2528Y-4.9331
X3.7094Y-4.9331
X2.9811Y-4.2047
X2.9811Y-3.4764
X3.7094Y-4.2047
X2.2528Y-4.2047
T2
X1.8307Y-4.3701
X2.2638Y-4.3701
X2.5591Y-5.0984
X2.9921Y-5.0984
X3.2874Y-3.6417
X3.7205Y-3.6417
X1.8307Y-3.6417
X2.2638Y-3.6417
X1.8307Y-5.0984
X2.2638Y-5.0984
X3.2874Y-5.0984
X3.7205Y-5.0984
X2.5591Y-4.3701
X2.9921Y-4.3701
X2.5591Y-3.6417
X2.9921Y-3.6417
X3.2874Y-4.3701
X3.7205Y-4.3701
T3
X1.8504Y-4.5177
X2.0472Y-4.6043
X2.5787Y-5.2461
X2.7756Y-5.3327
X3.3071Y-3.7894
X3.5039Y-3.876
X1.8504Y-3.7894
X2.0472Y-3.876
X1.8504Y-5.2461
X2.0472Y-5.3327
X3.3071Y-5.2461
X3.5039Y-5.3327
X2.5787Y-4.5177
X2.7756Y-4.6043
X2.5787Y-3.7894
X2.7756Y-3.876
X3.3071Y-4.5177
X3.5039Y-4.6043
T4
X2.7756Y-5.0984
X3.5039Y-3.6417
X2.0472Y-3.6417
X2.0472Y-5.0984
X3.5039Y-5.0984
X2.7756Y-4.3701
X2.7756Y-3.6417
X3.5039Y-4.3701
X2.0472Y-4.3701
T0
M30
