M48
;DRILL file {KiCad (5.0.0-3-g5ebb6b6)} date Thursday, February 07, 2019 at 10:07:05 PM
;FORMAT={-:-/ absolute / inch / decimal}
FMAT,2
INCH,TZ
T1C0.0157
T2C0.0256
T3C0.0276
T4C0.0394
T5C0.0433
%
G90
G05
M72
T1
X2.3268Y-4.0433
X2.4724Y-4.0354
X2.5866Y-3.9134
X2.9961Y-4.0512
X3.0394Y-4.0866
X3.0433Y-3.9685
X3.0748Y-4.748
X3.0748Y-4.8661
X3.1024Y-4.2896
X3.1063Y-5.4843
X3.6299Y-4.4646
X3.6329Y-4.6043
X3.7518Y-4.5945
X3.815Y-4.5236
T2
X2.4114Y-4.065
X2.4114Y-4.115
X2.4114Y-4.165
X2.4114Y-4.215
X2.4114Y-4.265
X2.4114Y-4.315
X2.4114Y-4.365
X2.4114Y-4.415
T3
X1.8937Y-4.0059
X2.2008Y-4.0059
X3.3504Y-4.0059
X3.6575Y-4.0059
X3.3504Y-5.4626
X3.6575Y-5.4626
X1.8937Y-4.7343
X2.2008Y-4.7343
X2.622Y-4.7343
X2.9291Y-4.7343
X2.622Y-5.4626
X2.9291Y-5.4626
X2.622Y-4.0059
X2.9291Y-4.0059
X1.8937Y-5.4626
X2.2008Y-5.4626
X3.3504Y-4.7343
X3.6575Y-4.7343
T4
X2.4331Y-3.5591
X2.4331Y-3.6591
X2.3567Y-3.3071
X2.4567Y-3.3071
T5
X3.1803Y-3.2925
X3.1803Y-3.3925
X3.1803Y-3.4925
X3.1803Y-3.5925
X3.1803Y-3.8925
X3.1803Y-3.9925
X3.1803Y-4.0925
X3.1803Y-4.1925
X3.1803Y-4.2925
X3.1803Y-4.3925
X3.7803Y-3.2925
X3.7803Y-3.3925
X3.7803Y-3.4925
X3.7803Y-3.5925
X3.7803Y-3.8925
X3.7803Y-3.9925
X3.7803Y-4.0925
X3.7803Y-4.1925
X3.7803Y-4.2925
T0
M30
