G04 #@! TF.GenerationSoftware,KiCad,Pcbnew,(5.0.0-3-g5ebb6b6)*
G04 #@! TF.CreationDate,2019-02-07T22:00:29-08:00*
G04 #@! TF.ProjectId,arrowPad,6172726F775061642E6B696361645F70,rev?*
G04 #@! TF.SameCoordinates,Original*
G04 #@! TF.FileFunction,Legend,Top*
G04 #@! TF.FilePolarity,Positive*
%FSLAX46Y46*%
G04 Gerber Fmt 4.6, Leading zero omitted, Abs format (unit mm)*
G04 Created by KiCad (PCBNEW (5.0.0-3-g5ebb6b6)) date Thursday, February 07, 2019 at 10:00:29 PM*
%MOMM*%
%LPD*%
G01*
G04 APERTURE LIST*
%ADD10C,0.120000*%
%ADD11C,0.200000*%
%ADD12C,0.150000*%
G04 APERTURE END LIST*
D10*
G04 #@! TO.C,BT1*
X60470000Y-94270000D02*
X63130000Y-94270000D01*
X60470000Y-91670000D02*
X60470000Y-94270000D01*
X63130000Y-91670000D02*
X63130000Y-94270000D01*
X60470000Y-91670000D02*
X63130000Y-91670000D01*
X60470000Y-90400000D02*
X60470000Y-89070000D01*
X60470000Y-89070000D02*
X61800000Y-89070000D01*
D11*
G04 #@! TO.C,D1*
X54275000Y-102950000D02*
X54275000Y-100550000D01*
X54450000Y-102950000D02*
X54450000Y-100550000D01*
X54625000Y-102950000D02*
X54625000Y-100550000D01*
X55025000Y-100550000D02*
X55025000Y-102950000D01*
X54800000Y-102950000D02*
X54800000Y-100550000D01*
X54925000Y-102950000D02*
X54925000Y-100550000D01*
X55000000Y-102950000D02*
X49200000Y-102950000D01*
X49200000Y-102950000D02*
X49200000Y-100550000D01*
X49200000Y-100550000D02*
X55000000Y-100550000D01*
G04 #@! TO.C,D2*
X67700000Y-100550000D02*
X73500000Y-100550000D01*
X67700000Y-102950000D02*
X67700000Y-100550000D01*
X73500000Y-102950000D02*
X67700000Y-102950000D01*
X73425000Y-102950000D02*
X73425000Y-100550000D01*
X73300000Y-102950000D02*
X73300000Y-100550000D01*
X73525000Y-100550000D02*
X73525000Y-102950000D01*
X73125000Y-102950000D02*
X73125000Y-100550000D01*
X72950000Y-102950000D02*
X72950000Y-100550000D01*
X72775000Y-102950000D02*
X72775000Y-100550000D01*
G04 #@! TO.C,D3*
X91275000Y-102950000D02*
X91275000Y-100550000D01*
X91450000Y-102950000D02*
X91450000Y-100550000D01*
X91625000Y-102950000D02*
X91625000Y-100550000D01*
X92025000Y-100550000D02*
X92025000Y-102950000D01*
X91800000Y-102950000D02*
X91800000Y-100550000D01*
X91925000Y-102950000D02*
X91925000Y-100550000D01*
X92000000Y-102950000D02*
X86200000Y-102950000D01*
X86200000Y-102950000D02*
X86200000Y-100550000D01*
X86200000Y-100550000D02*
X92000000Y-100550000D01*
G04 #@! TO.C,D4*
X49200000Y-119050000D02*
X55000000Y-119050000D01*
X49200000Y-121450000D02*
X49200000Y-119050000D01*
X55000000Y-121450000D02*
X49200000Y-121450000D01*
X54925000Y-121450000D02*
X54925000Y-119050000D01*
X54800000Y-121450000D02*
X54800000Y-119050000D01*
X55025000Y-119050000D02*
X55025000Y-121450000D01*
X54625000Y-121450000D02*
X54625000Y-119050000D01*
X54450000Y-121450000D02*
X54450000Y-119050000D01*
X54275000Y-121450000D02*
X54275000Y-119050000D01*
G04 #@! TO.C,D5*
X72775000Y-121450000D02*
X72775000Y-119050000D01*
X72950000Y-121450000D02*
X72950000Y-119050000D01*
X73125000Y-121450000D02*
X73125000Y-119050000D01*
X73525000Y-119050000D02*
X73525000Y-121450000D01*
X73300000Y-121450000D02*
X73300000Y-119050000D01*
X73425000Y-121450000D02*
X73425000Y-119050000D01*
X73500000Y-121450000D02*
X67700000Y-121450000D01*
X67700000Y-121450000D02*
X67700000Y-119050000D01*
X67700000Y-119050000D02*
X73500000Y-119050000D01*
G04 #@! TO.C,D6*
X86200000Y-119050000D02*
X92000000Y-119050000D01*
X86200000Y-121450000D02*
X86200000Y-119050000D01*
X92000000Y-121450000D02*
X86200000Y-121450000D01*
X91925000Y-121450000D02*
X91925000Y-119050000D01*
X91800000Y-121450000D02*
X91800000Y-119050000D01*
X92025000Y-119050000D02*
X92025000Y-121450000D01*
X91625000Y-121450000D02*
X91625000Y-119050000D01*
X91450000Y-121450000D02*
X91450000Y-119050000D01*
X91275000Y-121450000D02*
X91275000Y-119050000D01*
G04 #@! TO.C,D7*
X54275000Y-139950000D02*
X54275000Y-137550000D01*
X54450000Y-139950000D02*
X54450000Y-137550000D01*
X54625000Y-139950000D02*
X54625000Y-137550000D01*
X55025000Y-137550000D02*
X55025000Y-139950000D01*
X54800000Y-139950000D02*
X54800000Y-137550000D01*
X54925000Y-139950000D02*
X54925000Y-137550000D01*
X55000000Y-139950000D02*
X49200000Y-139950000D01*
X49200000Y-139950000D02*
X49200000Y-137550000D01*
X49200000Y-137550000D02*
X55000000Y-137550000D01*
G04 #@! TO.C,D8*
X67700000Y-137550000D02*
X73500000Y-137550000D01*
X67700000Y-139950000D02*
X67700000Y-137550000D01*
X73500000Y-139950000D02*
X67700000Y-139950000D01*
X73425000Y-139950000D02*
X73425000Y-137550000D01*
X73300000Y-139950000D02*
X73300000Y-137550000D01*
X73525000Y-137550000D02*
X73525000Y-139950000D01*
X73125000Y-139950000D02*
X73125000Y-137550000D01*
X72950000Y-139950000D02*
X72950000Y-137550000D01*
X72775000Y-139950000D02*
X72775000Y-137550000D01*
G04 #@! TO.C,D9*
X91275000Y-139950000D02*
X91275000Y-137550000D01*
X91450000Y-139950000D02*
X91450000Y-137550000D01*
X91625000Y-139950000D02*
X91625000Y-137550000D01*
X92025000Y-137550000D02*
X92025000Y-139950000D01*
X91800000Y-139950000D02*
X91800000Y-137550000D01*
X91925000Y-139950000D02*
X91925000Y-137550000D01*
X92000000Y-139950000D02*
X86200000Y-139950000D01*
X86200000Y-139950000D02*
X86200000Y-137550000D01*
X86200000Y-137550000D02*
X92000000Y-137550000D01*
D10*
G04 #@! TO.C,SW1*
X58530000Y-82670000D02*
X58530000Y-85330000D01*
X61130000Y-82670000D02*
X58530000Y-82670000D01*
X61130000Y-85330000D02*
X58530000Y-85330000D01*
X61130000Y-82670000D02*
X61130000Y-85330000D01*
X62400000Y-82670000D02*
X63730000Y-82670000D01*
X63730000Y-82670000D02*
X63730000Y-84000000D01*
G04 #@! TO.C,U2*
X60140000Y-112835000D02*
X60942470Y-112835000D01*
X61557530Y-112835000D02*
X62360000Y-112835000D01*
X60140000Y-104010000D02*
X60140000Y-112835000D01*
X62360000Y-104010000D02*
X62360000Y-112835000D01*
X60140000Y-104010000D02*
X60686529Y-104010000D01*
X61813471Y-104010000D02*
X62360000Y-104010000D01*
X60140000Y-103250000D02*
X60140000Y-102490000D01*
X60140000Y-102490000D02*
X61250000Y-102490000D01*
D12*
G04 #@! TO.C,U1*
X97290000Y-112840000D02*
X79510000Y-112840000D01*
X97290000Y-82360000D02*
X97290000Y-112840000D01*
X92210000Y-82360000D02*
X97290000Y-82360000D01*
X92210000Y-79820000D02*
X92210000Y-82360000D01*
X84590000Y-79820000D02*
X92210000Y-79820000D01*
X84590000Y-82360000D02*
X84590000Y-79820000D01*
X79510000Y-82360000D02*
X84590000Y-82360000D01*
X79510000Y-82360000D02*
X79510000Y-112840000D01*
G04 #@! TO.C,BT1*
X61014285Y-87998571D02*
X61157142Y-88046190D01*
X61204761Y-88093809D01*
X61252380Y-88189047D01*
X61252380Y-88331904D01*
X61204761Y-88427142D01*
X61157142Y-88474761D01*
X61061904Y-88522380D01*
X60680952Y-88522380D01*
X60680952Y-87522380D01*
X61014285Y-87522380D01*
X61109523Y-87570000D01*
X61157142Y-87617619D01*
X61204761Y-87712857D01*
X61204761Y-87808095D01*
X61157142Y-87903333D01*
X61109523Y-87950952D01*
X61014285Y-87998571D01*
X60680952Y-87998571D01*
X61538095Y-87522380D02*
X62109523Y-87522380D01*
X61823809Y-88522380D02*
X61823809Y-87522380D01*
X62966666Y-88522380D02*
X62395238Y-88522380D01*
X62680952Y-88522380D02*
X62680952Y-87522380D01*
X62585714Y-87665238D01*
X62490476Y-87760476D01*
X62395238Y-87808095D01*
G04 #@! TO.C,D1*
X51409523Y-100186904D02*
X51409523Y-99386904D01*
X51600000Y-99386904D01*
X51714285Y-99425000D01*
X51790476Y-99501190D01*
X51828571Y-99577380D01*
X51866666Y-99729761D01*
X51866666Y-99844047D01*
X51828571Y-99996428D01*
X51790476Y-100072619D01*
X51714285Y-100148809D01*
X51600000Y-100186904D01*
X51409523Y-100186904D01*
X52628571Y-100186904D02*
X52171428Y-100186904D01*
X52400000Y-100186904D02*
X52400000Y-99386904D01*
X52323809Y-99501190D01*
X52247619Y-99577380D01*
X52171428Y-99615476D01*
G04 #@! TO.C,D2*
X69909523Y-100186904D02*
X69909523Y-99386904D01*
X70100000Y-99386904D01*
X70214285Y-99425000D01*
X70290476Y-99501190D01*
X70328571Y-99577380D01*
X70366666Y-99729761D01*
X70366666Y-99844047D01*
X70328571Y-99996428D01*
X70290476Y-100072619D01*
X70214285Y-100148809D01*
X70100000Y-100186904D01*
X69909523Y-100186904D01*
X70671428Y-99463095D02*
X70709523Y-99425000D01*
X70785714Y-99386904D01*
X70976190Y-99386904D01*
X71052380Y-99425000D01*
X71090476Y-99463095D01*
X71128571Y-99539285D01*
X71128571Y-99615476D01*
X71090476Y-99729761D01*
X70633333Y-100186904D01*
X71128571Y-100186904D01*
G04 #@! TO.C,D3*
X88409523Y-100186904D02*
X88409523Y-99386904D01*
X88600000Y-99386904D01*
X88714285Y-99425000D01*
X88790476Y-99501190D01*
X88828571Y-99577380D01*
X88866666Y-99729761D01*
X88866666Y-99844047D01*
X88828571Y-99996428D01*
X88790476Y-100072619D01*
X88714285Y-100148809D01*
X88600000Y-100186904D01*
X88409523Y-100186904D01*
X89133333Y-99386904D02*
X89628571Y-99386904D01*
X89361904Y-99691666D01*
X89476190Y-99691666D01*
X89552380Y-99729761D01*
X89590476Y-99767857D01*
X89628571Y-99844047D01*
X89628571Y-100034523D01*
X89590476Y-100110714D01*
X89552380Y-100148809D01*
X89476190Y-100186904D01*
X89247619Y-100186904D01*
X89171428Y-100148809D01*
X89133333Y-100110714D01*
G04 #@! TO.C,D4*
X51409523Y-118686904D02*
X51409523Y-117886904D01*
X51600000Y-117886904D01*
X51714285Y-117925000D01*
X51790476Y-118001190D01*
X51828571Y-118077380D01*
X51866666Y-118229761D01*
X51866666Y-118344047D01*
X51828571Y-118496428D01*
X51790476Y-118572619D01*
X51714285Y-118648809D01*
X51600000Y-118686904D01*
X51409523Y-118686904D01*
X52552380Y-118153571D02*
X52552380Y-118686904D01*
X52361904Y-117848809D02*
X52171428Y-118420238D01*
X52666666Y-118420238D01*
G04 #@! TO.C,D5*
X69909523Y-118686904D02*
X69909523Y-117886904D01*
X70100000Y-117886904D01*
X70214285Y-117925000D01*
X70290476Y-118001190D01*
X70328571Y-118077380D01*
X70366666Y-118229761D01*
X70366666Y-118344047D01*
X70328571Y-118496428D01*
X70290476Y-118572619D01*
X70214285Y-118648809D01*
X70100000Y-118686904D01*
X69909523Y-118686904D01*
X71090476Y-117886904D02*
X70709523Y-117886904D01*
X70671428Y-118267857D01*
X70709523Y-118229761D01*
X70785714Y-118191666D01*
X70976190Y-118191666D01*
X71052380Y-118229761D01*
X71090476Y-118267857D01*
X71128571Y-118344047D01*
X71128571Y-118534523D01*
X71090476Y-118610714D01*
X71052380Y-118648809D01*
X70976190Y-118686904D01*
X70785714Y-118686904D01*
X70709523Y-118648809D01*
X70671428Y-118610714D01*
G04 #@! TO.C,D6*
X88409523Y-118686904D02*
X88409523Y-117886904D01*
X88600000Y-117886904D01*
X88714285Y-117925000D01*
X88790476Y-118001190D01*
X88828571Y-118077380D01*
X88866666Y-118229761D01*
X88866666Y-118344047D01*
X88828571Y-118496428D01*
X88790476Y-118572619D01*
X88714285Y-118648809D01*
X88600000Y-118686904D01*
X88409523Y-118686904D01*
X89552380Y-117886904D02*
X89400000Y-117886904D01*
X89323809Y-117925000D01*
X89285714Y-117963095D01*
X89209523Y-118077380D01*
X89171428Y-118229761D01*
X89171428Y-118534523D01*
X89209523Y-118610714D01*
X89247619Y-118648809D01*
X89323809Y-118686904D01*
X89476190Y-118686904D01*
X89552380Y-118648809D01*
X89590476Y-118610714D01*
X89628571Y-118534523D01*
X89628571Y-118344047D01*
X89590476Y-118267857D01*
X89552380Y-118229761D01*
X89476190Y-118191666D01*
X89323809Y-118191666D01*
X89247619Y-118229761D01*
X89209523Y-118267857D01*
X89171428Y-118344047D01*
G04 #@! TO.C,D7*
X51409523Y-137186904D02*
X51409523Y-136386904D01*
X51600000Y-136386904D01*
X51714285Y-136425000D01*
X51790476Y-136501190D01*
X51828571Y-136577380D01*
X51866666Y-136729761D01*
X51866666Y-136844047D01*
X51828571Y-136996428D01*
X51790476Y-137072619D01*
X51714285Y-137148809D01*
X51600000Y-137186904D01*
X51409523Y-137186904D01*
X52133333Y-136386904D02*
X52666666Y-136386904D01*
X52323809Y-137186904D01*
G04 #@! TO.C,D8*
X69909523Y-137186904D02*
X69909523Y-136386904D01*
X70100000Y-136386904D01*
X70214285Y-136425000D01*
X70290476Y-136501190D01*
X70328571Y-136577380D01*
X70366666Y-136729761D01*
X70366666Y-136844047D01*
X70328571Y-136996428D01*
X70290476Y-137072619D01*
X70214285Y-137148809D01*
X70100000Y-137186904D01*
X69909523Y-137186904D01*
X70823809Y-136729761D02*
X70747619Y-136691666D01*
X70709523Y-136653571D01*
X70671428Y-136577380D01*
X70671428Y-136539285D01*
X70709523Y-136463095D01*
X70747619Y-136425000D01*
X70823809Y-136386904D01*
X70976190Y-136386904D01*
X71052380Y-136425000D01*
X71090476Y-136463095D01*
X71128571Y-136539285D01*
X71128571Y-136577380D01*
X71090476Y-136653571D01*
X71052380Y-136691666D01*
X70976190Y-136729761D01*
X70823809Y-136729761D01*
X70747619Y-136767857D01*
X70709523Y-136805952D01*
X70671428Y-136882142D01*
X70671428Y-137034523D01*
X70709523Y-137110714D01*
X70747619Y-137148809D01*
X70823809Y-137186904D01*
X70976190Y-137186904D01*
X71052380Y-137148809D01*
X71090476Y-137110714D01*
X71128571Y-137034523D01*
X71128571Y-136882142D01*
X71090476Y-136805952D01*
X71052380Y-136767857D01*
X70976190Y-136729761D01*
G04 #@! TO.C,D9*
X88409523Y-137186904D02*
X88409523Y-136386904D01*
X88600000Y-136386904D01*
X88714285Y-136425000D01*
X88790476Y-136501190D01*
X88828571Y-136577380D01*
X88866666Y-136729761D01*
X88866666Y-136844047D01*
X88828571Y-136996428D01*
X88790476Y-137072619D01*
X88714285Y-137148809D01*
X88600000Y-137186904D01*
X88409523Y-137186904D01*
X89247619Y-137186904D02*
X89400000Y-137186904D01*
X89476190Y-137148809D01*
X89514285Y-137110714D01*
X89590476Y-136996428D01*
X89628571Y-136844047D01*
X89628571Y-136539285D01*
X89590476Y-136463095D01*
X89552380Y-136425000D01*
X89476190Y-136386904D01*
X89323809Y-136386904D01*
X89247619Y-136425000D01*
X89209523Y-136463095D01*
X89171428Y-136539285D01*
X89171428Y-136729761D01*
X89209523Y-136805952D01*
X89247619Y-136844047D01*
X89323809Y-136882142D01*
X89476190Y-136882142D01*
X89552380Y-136844047D01*
X89590476Y-136805952D01*
X89628571Y-136729761D01*
G04 #@! TO.C,SW1*
X65134761Y-85333333D02*
X65182380Y-85190476D01*
X65182380Y-84952380D01*
X65134761Y-84857142D01*
X65087142Y-84809523D01*
X64991904Y-84761904D01*
X64896666Y-84761904D01*
X64801428Y-84809523D01*
X64753809Y-84857142D01*
X64706190Y-84952380D01*
X64658571Y-85142857D01*
X64610952Y-85238095D01*
X64563333Y-85285714D01*
X64468095Y-85333333D01*
X64372857Y-85333333D01*
X64277619Y-85285714D01*
X64230000Y-85238095D01*
X64182380Y-85142857D01*
X64182380Y-84904761D01*
X64230000Y-84761904D01*
X64182380Y-84428571D02*
X65182380Y-84190476D01*
X64468095Y-84000000D01*
X65182380Y-83809523D01*
X64182380Y-83571428D01*
X65182380Y-82666666D02*
X65182380Y-83238095D01*
X65182380Y-82952380D02*
X64182380Y-82952380D01*
X64325238Y-83047619D01*
X64420476Y-83142857D01*
X64468095Y-83238095D01*
G04 #@! TO.C,U2*
X60488095Y-101007380D02*
X60488095Y-101816904D01*
X60535714Y-101912142D01*
X60583333Y-101959761D01*
X60678571Y-102007380D01*
X60869047Y-102007380D01*
X60964285Y-101959761D01*
X61011904Y-101912142D01*
X61059523Y-101816904D01*
X61059523Y-101007380D01*
X61488095Y-101102619D02*
X61535714Y-101055000D01*
X61630952Y-101007380D01*
X61869047Y-101007380D01*
X61964285Y-101055000D01*
X62011904Y-101102619D01*
X62059523Y-101197857D01*
X62059523Y-101293095D01*
X62011904Y-101435952D01*
X61440476Y-102007380D01*
X62059523Y-102007380D01*
G04 #@! TD*
M02*
