G04 #@! TF.GenerationSoftware,KiCad,Pcbnew,(5.0.0-3-g5ebb6b6)*
G04 #@! TF.CreationDate,2019-02-07T22:00:29-08:00*
G04 #@! TF.ProjectId,arrowPad,6172726F775061642E6B696361645F70,rev?*
G04 #@! TF.SameCoordinates,Original*
G04 #@! TF.FileFunction,Soldermask,Top*
G04 #@! TF.FilePolarity,Negative*
%FSLAX46Y46*%
G04 Gerber Fmt 4.6, Leading zero omitted, Abs format (unit mm)*
G04 Created by KiCad (PCBNEW (5.0.0-3-g5ebb6b6)) date Thursday, February 07, 2019 at 10:00:29 PM*
%MOMM*%
%LPD*%
G01*
G04 APERTURE LIST*
%ADD10R,2.100000X2.100000*%
%ADD11O,2.100000X2.100000*%
%ADD12R,1.600000X1.600000*%
%ADD13R,2.000000X2.000000*%
%ADD14C,2.000000*%
%ADD15C,1.390600*%
%ADD16C,3.400000*%
%ADD17C,3.829000*%
%ADD18C,2.101800*%
%ADD19R,1.400000X1.400000*%
%ADD20O,1.400000X1.400000*%
G04 APERTURE END LIST*
D10*
G04 #@! TO.C,BT1*
X61800000Y-90400000D03*
D11*
X61800000Y-92940000D03*
G04 #@! TD*
D12*
G04 #@! TO.C,D1*
X50425000Y-101750000D03*
X53575000Y-101750000D03*
D13*
X55900000Y-101750000D03*
D14*
X48100000Y-101750000D03*
G04 #@! TD*
G04 #@! TO.C,D2*
X66600000Y-101750000D03*
D13*
X74400000Y-101750000D03*
D12*
X72075000Y-101750000D03*
X68925000Y-101750000D03*
G04 #@! TD*
G04 #@! TO.C,D3*
X87425000Y-101750000D03*
X90575000Y-101750000D03*
D13*
X92900000Y-101750000D03*
D14*
X85100000Y-101750000D03*
G04 #@! TD*
G04 #@! TO.C,D4*
X48100000Y-120250000D03*
D13*
X55900000Y-120250000D03*
D12*
X53575000Y-120250000D03*
X50425000Y-120250000D03*
G04 #@! TD*
G04 #@! TO.C,D5*
X68925000Y-120250000D03*
X72075000Y-120250000D03*
D13*
X74400000Y-120250000D03*
D14*
X66600000Y-120250000D03*
G04 #@! TD*
G04 #@! TO.C,D6*
X85100000Y-120250000D03*
D13*
X92900000Y-120250000D03*
D12*
X90575000Y-120250000D03*
X87425000Y-120250000D03*
G04 #@! TD*
G04 #@! TO.C,D7*
X50425000Y-138750000D03*
X53575000Y-138750000D03*
D13*
X55900000Y-138750000D03*
D14*
X48100000Y-138750000D03*
G04 #@! TD*
G04 #@! TO.C,D8*
X66600000Y-138750000D03*
D13*
X74400000Y-138750000D03*
D12*
X72075000Y-138750000D03*
X68925000Y-138750000D03*
G04 #@! TD*
G04 #@! TO.C,D9*
X87425000Y-138750000D03*
X90575000Y-138750000D03*
D13*
X92900000Y-138750000D03*
D14*
X85100000Y-138750000D03*
G04 #@! TD*
D15*
G04 #@! TO.C,K1*
X57220000Y-88300000D03*
D16*
X52000000Y-98450000D03*
D17*
X52000000Y-92500000D03*
D16*
X47000000Y-96250000D03*
D18*
X57500000Y-92500000D03*
X46500000Y-92500000D03*
G04 #@! TD*
G04 #@! TO.C,K2*
X65000000Y-92500000D03*
X76000000Y-92500000D03*
D16*
X65500000Y-96250000D03*
D17*
X70500000Y-92500000D03*
D16*
X70500000Y-98450000D03*
D15*
X75720000Y-88300000D03*
G04 #@! TD*
G04 #@! TO.C,K3*
X94220000Y-88300000D03*
D16*
X89000000Y-98450000D03*
D17*
X89000000Y-92500000D03*
D16*
X84000000Y-96250000D03*
D18*
X94500000Y-92500000D03*
X83500000Y-92500000D03*
G04 #@! TD*
G04 #@! TO.C,K4*
X46500000Y-111000000D03*
X57500000Y-111000000D03*
D16*
X47000000Y-114750000D03*
D17*
X52000000Y-111000000D03*
D16*
X52000000Y-116950000D03*
D15*
X57220000Y-106800000D03*
G04 #@! TD*
G04 #@! TO.C,K5*
X75720000Y-106800000D03*
D16*
X70500000Y-116950000D03*
D17*
X70500000Y-111000000D03*
D16*
X65500000Y-114750000D03*
D18*
X76000000Y-111000000D03*
X65000000Y-111000000D03*
G04 #@! TD*
G04 #@! TO.C,K6*
X83500000Y-111000000D03*
X94500000Y-111000000D03*
D16*
X84000000Y-114750000D03*
D17*
X89000000Y-111000000D03*
D16*
X89000000Y-116950000D03*
D15*
X94220000Y-106800000D03*
G04 #@! TD*
G04 #@! TO.C,K7*
X57220000Y-125300000D03*
D16*
X52000000Y-135450000D03*
D17*
X52000000Y-129500000D03*
D16*
X47000000Y-133250000D03*
D18*
X57500000Y-129500000D03*
X46500000Y-129500000D03*
G04 #@! TD*
G04 #@! TO.C,K8*
X65000000Y-129500000D03*
X76000000Y-129500000D03*
D16*
X65500000Y-133250000D03*
D17*
X70500000Y-129500000D03*
D16*
X70500000Y-135450000D03*
D15*
X75720000Y-125300000D03*
G04 #@! TD*
G04 #@! TO.C,K9*
X94220000Y-125300000D03*
D16*
X89000000Y-135450000D03*
D17*
X89000000Y-129500000D03*
D16*
X84000000Y-133250000D03*
D18*
X94500000Y-129500000D03*
X83500000Y-129500000D03*
G04 #@! TD*
D10*
G04 #@! TO.C,SW1*
X62400000Y-84000000D03*
D11*
X59860000Y-84000000D03*
G04 #@! TD*
D19*
G04 #@! TO.C,U2*
X61250000Y-103250000D03*
D20*
X61250000Y-104520000D03*
X61250000Y-105790000D03*
X61250000Y-107060000D03*
X61250000Y-108330000D03*
X61250000Y-109600000D03*
X61250000Y-110870000D03*
X61250000Y-112140000D03*
G04 #@! TD*
D14*
G04 #@! TO.C,U1*
X80780000Y-83630000D03*
X80780000Y-86170000D03*
X80780000Y-88710000D03*
X80780000Y-91250000D03*
X80780000Y-98870000D03*
X80780000Y-101410000D03*
X80780000Y-103950000D03*
X80780000Y-106490000D03*
X80780000Y-109030000D03*
X80780000Y-111570000D03*
X96020000Y-109030000D03*
X96020000Y-106490000D03*
X96020000Y-103950000D03*
X96020000Y-101410000D03*
X96020000Y-98870000D03*
X96020000Y-91250000D03*
X96020000Y-88710000D03*
X96020000Y-86170000D03*
D13*
X96020000Y-83630000D03*
G04 #@! TD*
M02*
