G04 #@! TF.GenerationSoftware,KiCad,Pcbnew,(5.0.0-3-g5ebb6b6)*
G04 #@! TF.CreationDate,2019-02-07T22:00:29-08:00*
G04 #@! TF.ProjectId,arrowPad,6172726F775061642E6B696361645F70,rev?*
G04 #@! TF.SameCoordinates,Original*
G04 #@! TF.FileFunction,Copper,L1,Top,Signal*
G04 #@! TF.FilePolarity,Positive*
%FSLAX46Y46*%
G04 Gerber Fmt 4.6, Leading zero omitted, Abs format (unit mm)*
G04 Created by KiCad (PCBNEW (5.0.0-3-g5ebb6b6)) date Thursday, February 07, 2019 at 10:00:29 PM*
%MOMM*%
%LPD*%
G01*
G04 APERTURE LIST*
G04 #@! TA.AperFunction,ComponentPad*
%ADD10R,1.700000X1.700000*%
G04 #@! TD*
G04 #@! TA.AperFunction,ComponentPad*
%ADD11O,1.700000X1.700000*%
G04 #@! TD*
G04 #@! TA.AperFunction,SMDPad,CuDef*
%ADD12R,1.200000X1.200000*%
G04 #@! TD*
G04 #@! TA.AperFunction,ComponentPad*
%ADD13R,1.600000X1.600000*%
G04 #@! TD*
G04 #@! TA.AperFunction,ComponentPad*
%ADD14C,1.600000*%
G04 #@! TD*
G04 #@! TA.AperFunction,Conductor*
%ADD15R,2.500000X0.500000*%
G04 #@! TD*
G04 #@! TA.AperFunction,ComponentPad*
%ADD16R,1.000000X1.000000*%
G04 #@! TD*
G04 #@! TA.AperFunction,ComponentPad*
%ADD17O,1.000000X1.000000*%
G04 #@! TD*
G04 #@! TA.AperFunction,ViaPad*
%ADD18C,0.800000*%
G04 #@! TD*
G04 #@! TA.AperFunction,Conductor*
%ADD19C,0.250000*%
G04 #@! TD*
G04 APERTURE END LIST*
D10*
G04 #@! TO.P,BT1,1*
G04 #@! TO.N,Net-(BT1-Pad1)*
X61800000Y-90400000D03*
D11*
G04 #@! TO.P,BT1,2*
G04 #@! TO.N,/GND1*
X61800000Y-92940000D03*
G04 #@! TD*
D12*
G04 #@! TO.P,D1,2*
G04 #@! TO.N,Net-(D1-Pad2)*
X50425000Y-101750000D03*
G04 #@! TO.P,D1,1*
G04 #@! TO.N,/Row1*
X53575000Y-101750000D03*
D13*
X55900000Y-101750000D03*
D14*
G04 #@! TO.P,D1,2*
G04 #@! TO.N,Net-(D1-Pad2)*
X48100000Y-101750000D03*
D15*
G04 #@! TD*
G04 #@! TO.N,/Row1*
G04 #@! TO.C,D1*
X54700000Y-101750000D03*
G04 #@! TO.N,Net-(D1-Pad2)*
G04 #@! TO.C,D1*
X49300000Y-101750000D03*
G04 #@! TD*
G04 #@! TO.N,Net-(D2-Pad2)*
G04 #@! TO.C,D2*
X67800000Y-101750000D03*
G04 #@! TO.N,/Row1*
X73200000Y-101750000D03*
D14*
G04 #@! TD*
G04 #@! TO.P,D2,2*
G04 #@! TO.N,Net-(D2-Pad2)*
X66600000Y-101750000D03*
D13*
G04 #@! TO.P,D2,1*
G04 #@! TO.N,/Row1*
X74400000Y-101750000D03*
D12*
X72075000Y-101750000D03*
G04 #@! TO.P,D2,2*
G04 #@! TO.N,Net-(D2-Pad2)*
X68925000Y-101750000D03*
G04 #@! TD*
G04 #@! TO.P,D3,2*
G04 #@! TO.N,Net-(D3-Pad2)*
X87425000Y-101750000D03*
G04 #@! TO.P,D3,1*
G04 #@! TO.N,/Row1*
X90575000Y-101750000D03*
D13*
X92900000Y-101750000D03*
D14*
G04 #@! TO.P,D3,2*
G04 #@! TO.N,Net-(D3-Pad2)*
X85100000Y-101750000D03*
D15*
G04 #@! TD*
G04 #@! TO.N,/Row1*
G04 #@! TO.C,D3*
X91700000Y-101750000D03*
G04 #@! TO.N,Net-(D3-Pad2)*
G04 #@! TO.C,D3*
X86300000Y-101750000D03*
G04 #@! TD*
G04 #@! TO.N,Net-(D4-Pad2)*
G04 #@! TO.C,D4*
X49300000Y-120250000D03*
G04 #@! TO.N,/Row2*
X54700000Y-120250000D03*
D14*
G04 #@! TD*
G04 #@! TO.P,D4,2*
G04 #@! TO.N,Net-(D4-Pad2)*
X48100000Y-120250000D03*
D13*
G04 #@! TO.P,D4,1*
G04 #@! TO.N,/Row2*
X55900000Y-120250000D03*
D12*
X53575000Y-120250000D03*
G04 #@! TO.P,D4,2*
G04 #@! TO.N,Net-(D4-Pad2)*
X50425000Y-120250000D03*
G04 #@! TD*
G04 #@! TO.P,D5,2*
G04 #@! TO.N,Net-(D5-Pad2)*
X68925000Y-120250000D03*
G04 #@! TO.P,D5,1*
G04 #@! TO.N,/Row2*
X72075000Y-120250000D03*
D13*
X74400000Y-120250000D03*
D14*
G04 #@! TO.P,D5,2*
G04 #@! TO.N,Net-(D5-Pad2)*
X66600000Y-120250000D03*
D15*
G04 #@! TD*
G04 #@! TO.N,/Row2*
G04 #@! TO.C,D5*
X73200000Y-120250000D03*
G04 #@! TO.N,Net-(D5-Pad2)*
G04 #@! TO.C,D5*
X67800000Y-120250000D03*
G04 #@! TD*
G04 #@! TO.N,Net-(D6-Pad2)*
G04 #@! TO.C,D6*
X86300000Y-120250000D03*
G04 #@! TO.N,/Row2*
X91700000Y-120250000D03*
D14*
G04 #@! TD*
G04 #@! TO.P,D6,2*
G04 #@! TO.N,Net-(D6-Pad2)*
X85100000Y-120250000D03*
D13*
G04 #@! TO.P,D6,1*
G04 #@! TO.N,/Row2*
X92900000Y-120250000D03*
D12*
X90575000Y-120250000D03*
G04 #@! TO.P,D6,2*
G04 #@! TO.N,Net-(D6-Pad2)*
X87425000Y-120250000D03*
G04 #@! TD*
G04 #@! TO.P,D7,2*
G04 #@! TO.N,Net-(D7-Pad2)*
X50425000Y-138750000D03*
G04 #@! TO.P,D7,1*
G04 #@! TO.N,/Row3*
X53575000Y-138750000D03*
D13*
X55900000Y-138750000D03*
D14*
G04 #@! TO.P,D7,2*
G04 #@! TO.N,Net-(D7-Pad2)*
X48100000Y-138750000D03*
D15*
G04 #@! TD*
G04 #@! TO.N,/Row3*
G04 #@! TO.C,D7*
X54700000Y-138750000D03*
G04 #@! TO.N,Net-(D7-Pad2)*
G04 #@! TO.C,D7*
X49300000Y-138750000D03*
G04 #@! TD*
G04 #@! TO.N,Net-(D8-Pad2)*
G04 #@! TO.C,D8*
X67800000Y-138750000D03*
G04 #@! TO.N,/Row3*
X73200000Y-138750000D03*
D14*
G04 #@! TD*
G04 #@! TO.P,D8,2*
G04 #@! TO.N,Net-(D8-Pad2)*
X66600000Y-138750000D03*
D13*
G04 #@! TO.P,D8,1*
G04 #@! TO.N,/Row3*
X74400000Y-138750000D03*
D12*
X72075000Y-138750000D03*
G04 #@! TO.P,D8,2*
G04 #@! TO.N,Net-(D8-Pad2)*
X68925000Y-138750000D03*
G04 #@! TD*
G04 #@! TO.P,D9,2*
G04 #@! TO.N,Net-(D9-Pad2)*
X87425000Y-138750000D03*
G04 #@! TO.P,D9,1*
G04 #@! TO.N,/Row3*
X90575000Y-138750000D03*
D13*
X92900000Y-138750000D03*
D14*
G04 #@! TO.P,D9,2*
G04 #@! TO.N,Net-(D9-Pad2)*
X85100000Y-138750000D03*
D15*
G04 #@! TD*
G04 #@! TO.N,/Row3*
G04 #@! TO.C,D9*
X91700000Y-138750000D03*
G04 #@! TO.N,Net-(D9-Pad2)*
G04 #@! TO.C,D9*
X86300000Y-138750000D03*
G04 #@! TD*
D10*
G04 #@! TO.P,SW1,1*
G04 #@! TO.N,/RAW1*
X62400000Y-84000000D03*
D11*
G04 #@! TO.P,SW1,2*
G04 #@! TO.N,Net-(BT1-Pad1)*
X59860000Y-84000000D03*
G04 #@! TD*
D16*
G04 #@! TO.P,U2,2*
G04 #@! TO.N,Net-(U1-Pad21)*
X61250000Y-103250000D03*
D17*
G04 #@! TO.P,U2,1*
G04 #@! TO.N,/GND1*
X61250000Y-104520000D03*
G04 #@! TO.P,U2,3*
G04 #@! TO.N,Net-(U1-Pad18)*
X61250000Y-105790000D03*
G04 #@! TO.P,U2,4*
G04 #@! TO.N,Net-(U1-Pad17)*
X61250000Y-107060000D03*
G04 #@! TO.P,U2,5*
G04 #@! TO.N,Net-(U1-Pad16)*
X61250000Y-108330000D03*
G04 #@! TO.P,U2,6*
G04 #@! TO.N,Net-(U1-Pad14)*
X61250000Y-109600000D03*
G04 #@! TO.P,U2,7*
G04 #@! TO.N,Net-(U1-Pad15)*
X61250000Y-110870000D03*
G04 #@! TO.P,U2,8*
G04 #@! TO.N,Net-(U2-Pad8)*
X61250000Y-112140000D03*
G04 #@! TD*
D14*
G04 #@! TO.P,U1,24*
G04 #@! TO.N,/RAW1*
X80780000Y-83630000D03*
G04 #@! TO.P,U1,23*
G04 #@! TO.N,/GND1*
X80780000Y-86170000D03*
G04 #@! TO.P,U1,22*
G04 #@! TO.N,Net-(U1-Pad22)*
X80780000Y-88710000D03*
G04 #@! TO.P,U1,21*
G04 #@! TO.N,Net-(U1-Pad21)*
X80780000Y-91250000D03*
G04 #@! TO.P,U1,18*
G04 #@! TO.N,Net-(U1-Pad18)*
X80780000Y-98870000D03*
G04 #@! TO.P,U1,17*
G04 #@! TO.N,Net-(U1-Pad17)*
X80780000Y-101410000D03*
G04 #@! TO.P,U1,16*
G04 #@! TO.N,Net-(U1-Pad16)*
X80780000Y-103950000D03*
G04 #@! TO.P,U1,15*
G04 #@! TO.N,Net-(U1-Pad15)*
X80780000Y-106490000D03*
G04 #@! TO.P,U1,14*
G04 #@! TO.N,Net-(U1-Pad14)*
X80780000Y-109030000D03*
G04 #@! TO.P,U1,13*
G04 #@! TO.N,/Row3*
X80780000Y-111570000D03*
G04 #@! TO.P,U1,11*
G04 #@! TO.N,/Row2*
X96020000Y-109030000D03*
G04 #@! TO.P,U1,10*
G04 #@! TO.N,/Row1*
X96020000Y-106490000D03*
G04 #@! TO.P,U1,9*
G04 #@! TO.N,/Col3*
X96020000Y-103950000D03*
G04 #@! TO.P,U1,8*
G04 #@! TO.N,/Col2*
X96020000Y-101410000D03*
G04 #@! TO.P,U1,7*
G04 #@! TO.N,/Col1*
X96020000Y-98870000D03*
G04 #@! TO.P,U1,4*
G04 #@! TO.N,Net-(U1-Pad4)*
X96020000Y-91250000D03*
G04 #@! TO.P,U1,3*
G04 #@! TO.N,Net-(U1-Pad3)*
X96020000Y-88710000D03*
G04 #@! TO.P,U1,2*
G04 #@! TO.N,Net-(U1-Pad2)*
X96020000Y-86170000D03*
D13*
G04 #@! TO.P,U1,1*
G04 #@! TO.N,Net-(U1-Pad1)*
X96020000Y-83630000D03*
G04 #@! TD*
D18*
G04 #@! TO.N,/GND1*
X59100000Y-102700000D03*
G04 #@! TO.N,/Row3*
X96900000Y-114900000D03*
G04 #@! TO.N,/Col2*
X77300000Y-100800000D03*
X77200000Y-103800000D03*
X78100000Y-120600000D03*
X78100000Y-123600000D03*
X78900000Y-139300000D03*
G04 #@! TO.N,/Col3*
X92200000Y-113400000D03*
X95295000Y-116700000D03*
X92275000Y-116950000D03*
G04 #@! TO.N,Net-(U1-Pad15)*
X78800000Y-108955001D03*
G04 #@! TO.N,Net-(U1-Pad18)*
X76100000Y-102900000D03*
G04 #@! TO.N,Net-(U1-Pad21)*
X62800000Y-102500000D03*
X65700000Y-99400000D03*
G04 #@! TD*
D19*
G04 #@! TO.N,/GND1*
X61250000Y-104520000D02*
X61498462Y-104520000D01*
X59100000Y-95640000D02*
X61800000Y-92940000D01*
X59100000Y-102700000D02*
X59100000Y-95640000D01*
X61800000Y-92940000D02*
X62840000Y-91900000D01*
X62840000Y-91900000D02*
X63300000Y-91900000D01*
X63300000Y-91900000D02*
X66700000Y-88500000D01*
X66700000Y-88500000D02*
X72200000Y-88500000D01*
X74530000Y-86170000D02*
X80780000Y-86170000D01*
X72200000Y-88500000D02*
X74530000Y-86170000D01*
G04 #@! TO.N,/Row3*
X96900000Y-114900000D02*
X96400000Y-114400000D01*
X96400000Y-114400000D02*
X88200000Y-114400000D01*
X88200000Y-114400000D02*
X86300000Y-112500000D01*
X81710000Y-112500000D02*
X80780000Y-111570000D01*
X86300000Y-112500000D02*
X81710000Y-112500000D01*
G04 #@! TO.N,/Col2*
X77300000Y-100800000D02*
X77300000Y-102400000D01*
X77200000Y-102500000D02*
X77200000Y-103800000D01*
X77300000Y-102400000D02*
X77200000Y-102500000D01*
X78100000Y-120600000D02*
X78100000Y-121165685D01*
X78100000Y-121165685D02*
X78100000Y-123600000D01*
X97900000Y-102800000D02*
X96510000Y-101410000D01*
X97900000Y-136700000D02*
X97900000Y-102800000D01*
X96510000Y-101410000D02*
X96020000Y-101410000D01*
X80734315Y-141700000D02*
X92900000Y-141700000D01*
X92900000Y-141700000D02*
X97900000Y-136700000D01*
X78900000Y-139865685D02*
X80734315Y-141700000D01*
X78900000Y-139300000D02*
X78900000Y-139865685D01*
G04 #@! TO.N,/Col3*
X95295000Y-116700000D02*
X92800000Y-116700000D01*
X92550000Y-116950000D02*
X92275000Y-116950000D01*
X92800000Y-116700000D02*
X92550000Y-116950000D01*
X93365685Y-112800000D02*
X96300000Y-112800000D01*
X96300000Y-112800000D02*
X97400000Y-111700000D01*
X92765685Y-113400000D02*
X93365685Y-112800000D01*
X97400000Y-105330000D02*
X96020000Y-103950000D01*
X97400000Y-111700000D02*
X97400000Y-105330000D01*
X92200000Y-113400000D02*
X92765685Y-113400000D01*
G04 #@! TO.N,Net-(U1-Pad14)*
X61250000Y-109600000D02*
X63400000Y-109600000D01*
X79980001Y-108230001D02*
X80780000Y-109030000D01*
X64769999Y-108230001D02*
X79980001Y-108230001D01*
X63400000Y-109600000D02*
X64769999Y-108230001D01*
G04 #@! TO.N,Net-(U1-Pad15)*
X61250000Y-110870000D02*
X63030000Y-110870000D01*
X63030000Y-110870000D02*
X64800000Y-109100000D01*
X65200000Y-108700000D02*
X76600000Y-108700000D01*
X64800000Y-109100000D02*
X65200000Y-108700000D01*
X76855001Y-108955001D02*
X78800000Y-108955001D01*
X76600000Y-108700000D02*
X76855001Y-108955001D01*
G04 #@! TO.N,Net-(U1-Pad16)*
X61250000Y-108330000D02*
X61959699Y-107620301D01*
X61959699Y-107620301D02*
X72779699Y-107620301D01*
X72779699Y-107620301D02*
X73700000Y-106700000D01*
X74200000Y-106700000D02*
X75400000Y-105500000D01*
X73700000Y-106700000D02*
X74200000Y-106700000D01*
X79230000Y-105500000D02*
X80780000Y-103950000D01*
X75400000Y-105500000D02*
X79230000Y-105500000D01*
G04 #@! TO.N,Net-(U1-Pad17)*
X79300000Y-103600000D02*
X79300000Y-102890000D01*
X79300000Y-102890000D02*
X80780000Y-101410000D01*
X75200000Y-104900000D02*
X78000000Y-104900000D01*
X74120301Y-105979699D02*
X75200000Y-104900000D01*
X78000000Y-104900000D02*
X79300000Y-103600000D01*
X62330301Y-105979699D02*
X74120301Y-105979699D01*
X61250000Y-107060000D02*
X62330301Y-105979699D01*
G04 #@! TO.N,Net-(U1-Pad18)*
X76100000Y-102900000D02*
X76100000Y-100500000D01*
X77730000Y-98870000D02*
X80780000Y-98870000D01*
X76100000Y-100500000D02*
X77730000Y-98870000D01*
G04 #@! TO.N,Net-(U1-Pad21)*
X62800000Y-102500000D02*
X65700000Y-99600000D01*
X65700000Y-99600000D02*
X65700000Y-99400000D01*
G04 #@! TD*
M02*
