G04 #@! TF.GenerationSoftware,KiCad,Pcbnew,(5.1.6)-1*
G04 #@! TF.CreationDate,2020-07-05T02:04:56-07:00*
G04 #@! TF.ProjectId,daughter,64617567-6874-4657-922e-6b696361645f,rev?*
G04 #@! TF.SameCoordinates,Original*
G04 #@! TF.FileFunction,Copper,L1,Top*
G04 #@! TF.FilePolarity,Positive*
%FSLAX46Y46*%
G04 Gerber Fmt 4.6, Leading zero omitted, Abs format (unit mm)*
G04 Created by KiCad (PCBNEW (5.1.6)-1) date 2020-07-05 02:04:56*
%MOMM*%
%LPD*%
G01*
G04 APERTURE LIST*
G04 #@! TA.AperFunction,Profile*
%ADD10C,0.050000*%
G04 #@! TD*
G04 #@! TA.AperFunction,Profile*
%ADD11C,0.120000*%
G04 #@! TD*
G04 #@! TA.AperFunction,ComponentPad*
%ADD12R,1.700000X1.700000*%
G04 #@! TD*
G04 #@! TA.AperFunction,ComponentPad*
%ADD13O,1.700000X1.700000*%
G04 #@! TD*
G04 #@! TA.AperFunction,SMDPad,CuDef*
%ADD14R,1.500000X1.000000*%
G04 #@! TD*
G04 #@! TA.AperFunction,ViaPad*
%ADD15C,0.800000*%
G04 #@! TD*
G04 #@! TA.AperFunction,ViaPad*
%ADD16C,0.600000*%
G04 #@! TD*
G04 #@! TA.AperFunction,Conductor*
%ADD17C,0.500000*%
G04 #@! TD*
G04 #@! TA.AperFunction,Conductor*
%ADD18C,0.135000*%
G04 #@! TD*
G04 #@! TA.AperFunction,Conductor*
%ADD19C,0.250000*%
G04 #@! TD*
G04 APERTURE END LIST*
D10*
X153670000Y-103886000D02*
X152400000Y-102616000D01*
X145478500Y-103886000D02*
X146748500Y-102616000D01*
X146748500Y-98044000D02*
X147701000Y-98044000D01*
X146748500Y-102552500D02*
X146748500Y-98044000D01*
X146748500Y-102552500D02*
X146748500Y-102616000D01*
X148336000Y-98044000D02*
X147701000Y-98044000D01*
X151130000Y-97345500D02*
X151130000Y-100838000D01*
X154495500Y-90170000D02*
X153225500Y-91440000D01*
X153225500Y-97345500D02*
X153225500Y-91440000D01*
X151130000Y-97345500D02*
X153225500Y-97345500D01*
X167005000Y-81851500D02*
X173355000Y-81851500D01*
X176022000Y-84074000D02*
X173355000Y-81851500D01*
X164338000Y-84074000D02*
X167005000Y-81851500D01*
X173672500Y-88455500D02*
X166687500Y-88455500D01*
X176022000Y-90170000D02*
X173672500Y-88455500D01*
X164338000Y-90170000D02*
X166687500Y-88455500D01*
X127381000Y-81851500D02*
X133731000Y-81851500D01*
X134048500Y-88455500D02*
X127063500Y-88455500D01*
X136398000Y-90170000D02*
X134048500Y-88455500D01*
X136398000Y-84074000D02*
X133731000Y-81851500D01*
X124714000Y-84074000D02*
X127381000Y-81851500D01*
X124714000Y-90170000D02*
X127063500Y-88455500D01*
X107950000Y-118110000D02*
X192786000Y-118110000D01*
X197231000Y-41148000D02*
X196596000Y-41148000D01*
X197231000Y-113665000D02*
X197231000Y-41148000D01*
X103505000Y-41402000D02*
X104140000Y-41402000D01*
X103505000Y-113665000D02*
X103505000Y-41402000D01*
D11*
X107950000Y-118110000D02*
G75*
G02*
X103505000Y-113665000I0J4445000D01*
G01*
X197231000Y-113665000D02*
G75*
G02*
X192786000Y-118110000I-4445000J0D01*
G01*
D10*
X188468000Y-41148000D02*
X196596000Y-41148000D01*
X188468000Y-43180000D02*
X188468000Y-41148000D01*
X187198000Y-44450000D02*
X188468000Y-43180000D01*
X177546000Y-44450000D02*
X187198000Y-44450000D01*
X177546000Y-50546000D02*
X177546000Y-44450000D01*
X187198000Y-50546000D02*
X177546000Y-50546000D01*
X188468000Y-51816000D02*
X187198000Y-50546000D01*
X188468000Y-53594000D02*
X188468000Y-51816000D01*
X189865000Y-54991000D02*
X188468000Y-53594000D01*
X189865000Y-58928000D02*
X189865000Y-54991000D01*
X188722000Y-60071000D02*
X189865000Y-58928000D01*
X188722000Y-62992000D02*
X188722000Y-60071000D01*
X187452000Y-64262000D02*
X188722000Y-62992000D01*
X177546000Y-64262000D02*
X187452000Y-64262000D01*
X177546000Y-70358000D02*
X177546000Y-64262000D01*
X187452000Y-70358000D02*
X177546000Y-70358000D01*
X188722000Y-71628000D02*
X187452000Y-70358000D01*
X188722000Y-82804000D02*
X188722000Y-71628000D01*
X187452000Y-84074000D02*
X188722000Y-82804000D01*
X176022000Y-84074000D02*
X187452000Y-84074000D01*
X187452000Y-90170000D02*
X176022000Y-90170000D01*
X188722000Y-91440000D02*
X187452000Y-90170000D01*
X188722000Y-102616000D02*
X188722000Y-91440000D01*
X187452000Y-103886000D02*
X188722000Y-102616000D01*
X172720000Y-103886000D02*
X187452000Y-103886000D01*
X171958000Y-104648000D02*
X172720000Y-103886000D01*
X168402000Y-104648000D02*
X171958000Y-104648000D01*
X167640000Y-103886000D02*
X168402000Y-104648000D01*
X153670000Y-103886000D02*
X167640000Y-103886000D01*
X152400000Y-100838000D02*
X152400000Y-102616000D01*
X151130000Y-100838000D02*
X152400000Y-100838000D01*
X164338000Y-90170000D02*
X154495500Y-90170000D01*
X136398000Y-84074000D02*
X164338000Y-84074000D01*
X147066000Y-90170000D02*
X136398000Y-90170000D01*
X148336000Y-91440000D02*
X147066000Y-90170000D01*
X148336000Y-98044000D02*
X148336000Y-91440000D01*
X133096000Y-103886000D02*
X145478500Y-103886000D01*
X132334000Y-104648000D02*
X133096000Y-103886000D01*
X128778000Y-104648000D02*
X132334000Y-104648000D01*
X128016000Y-103886000D02*
X128778000Y-104648000D01*
X112014000Y-103886000D02*
X128016000Y-103886000D01*
X110744000Y-102616000D02*
X112014000Y-103886000D01*
X110744000Y-91440000D02*
X110744000Y-102616000D01*
X112014000Y-90170000D02*
X110744000Y-91440000D01*
X124714000Y-90170000D02*
X112014000Y-90170000D01*
X112014000Y-84074000D02*
X124714000Y-84074000D01*
X110744000Y-82804000D02*
X112014000Y-84074000D01*
X110744000Y-71628000D02*
X110744000Y-82804000D01*
X112014000Y-70358000D02*
X110744000Y-71628000D01*
X122936000Y-70358000D02*
X112014000Y-70358000D01*
X122936000Y-64262000D02*
X122936000Y-70358000D01*
X112014000Y-64262000D02*
X122936000Y-64262000D01*
X110744000Y-62992000D02*
X112014000Y-64262000D01*
X110744000Y-62230000D02*
X110744000Y-62992000D01*
X109474000Y-60960000D02*
X110744000Y-62230000D01*
X109474000Y-57912000D02*
X109474000Y-60960000D01*
X110744000Y-56642000D02*
X109474000Y-57912000D01*
X110744000Y-50292000D02*
X110744000Y-56642000D01*
X111252000Y-49784000D02*
X110744000Y-50292000D01*
X114046000Y-49784000D02*
X111252000Y-49784000D01*
X114808000Y-50546000D02*
X114046000Y-49784000D01*
X122936000Y-50546000D02*
X114808000Y-50546000D01*
X122936000Y-44450000D02*
X122936000Y-50546000D01*
X113284000Y-44450000D02*
X122936000Y-44450000D01*
X112014000Y-43180000D02*
X113284000Y-44450000D01*
X112014000Y-41402000D02*
X112014000Y-43180000D01*
X104140000Y-41402000D02*
X112014000Y-41402000D01*
D12*
X105664000Y-43434000D03*
D13*
X108204000Y-43434000D03*
X110744000Y-43434000D03*
D14*
X138012000Y-85522000D03*
X138012000Y-88722000D03*
X142912000Y-85522000D03*
X142912000Y-88722000D03*
X123100000Y-108534000D03*
X123100000Y-105334000D03*
X118200000Y-108534000D03*
X118200000Y-105334000D03*
X118200000Y-85522000D03*
X118200000Y-88722000D03*
X123100000Y-85522000D03*
X123100000Y-88722000D03*
X121449000Y-68910000D03*
X121449000Y-65710000D03*
X116549000Y-68910000D03*
X116549000Y-65710000D03*
X121449000Y-49098000D03*
X121449000Y-45898000D03*
X116549000Y-49098000D03*
X116549000Y-45898000D03*
X157824000Y-105334000D03*
X157824000Y-108534000D03*
X162724000Y-105334000D03*
X162724000Y-108534000D03*
X157824000Y-85522000D03*
X157824000Y-88722000D03*
X162724000Y-85522000D03*
X162724000Y-88722000D03*
X138012000Y-105334000D03*
X138012000Y-108534000D03*
X142912000Y-105334000D03*
X142912000Y-108534000D03*
X184187000Y-49098000D03*
X184187000Y-45898000D03*
X179287000Y-49098000D03*
X179287000Y-45898000D03*
X184187000Y-68910000D03*
X184187000Y-65710000D03*
X179287000Y-68910000D03*
X179287000Y-65710000D03*
X177636000Y-85395000D03*
X177636000Y-88595000D03*
X182536000Y-85395000D03*
X182536000Y-88595000D03*
X182536000Y-108534000D03*
X182536000Y-105334000D03*
X177636000Y-108534000D03*
X177636000Y-105334000D03*
D12*
X189992000Y-43434000D03*
D13*
X192532000Y-43434000D03*
X195072000Y-43434000D03*
D15*
X181610000Y-46010500D03*
X181737000Y-65822500D03*
X180086000Y-85507500D03*
X180086000Y-105446500D03*
X160274000Y-108421500D03*
X160147000Y-88609500D03*
X140335000Y-85634500D03*
X140462000Y-105483000D03*
X120650000Y-108421500D03*
X120650000Y-88609500D03*
X118872000Y-68797500D03*
X118999000Y-48985500D03*
X118872000Y-65822500D03*
X120650000Y-85634500D03*
X140335000Y-88609500D03*
X160147000Y-85634500D03*
X140462000Y-108458000D03*
X160274000Y-105446500D03*
X180086000Y-108421500D03*
X180086000Y-88482500D03*
X181737000Y-68797500D03*
X181610000Y-48985500D03*
X120650000Y-105446500D03*
X118999000Y-46010500D03*
D16*
X121449000Y-45898000D03*
D15*
X110780500Y-47244000D03*
D17*
X179287000Y-45898000D02*
X181497500Y-45898000D01*
X181497500Y-45898000D02*
X181610000Y-46010500D01*
X179287000Y-65710000D02*
X181624500Y-65710000D01*
X181624500Y-65710000D02*
X181737000Y-65822500D01*
X177636000Y-85395000D02*
X179973500Y-85395000D01*
X179973500Y-85395000D02*
X180086000Y-85507500D01*
X177636000Y-105334000D02*
X179973500Y-105334000D01*
X179973500Y-105334000D02*
X180086000Y-105446500D01*
X162724000Y-108534000D02*
X160386500Y-108534000D01*
X160386500Y-108534000D02*
X160274000Y-108421500D01*
X162724000Y-88722000D02*
X160259500Y-88722000D01*
X160259500Y-88722000D02*
X160147000Y-88609500D01*
X138012000Y-85522000D02*
X140222500Y-85522000D01*
X140222500Y-85522000D02*
X140335000Y-85634500D01*
X138012000Y-105334000D02*
X140313000Y-105334000D01*
X140313000Y-105334000D02*
X140462000Y-105483000D01*
X123100000Y-108534000D02*
X120762500Y-108534000D01*
X120762500Y-108534000D02*
X120650000Y-108421500D01*
X123100000Y-88722000D02*
X120762500Y-88722000D01*
X120762500Y-88722000D02*
X120650000Y-88609500D01*
X121449000Y-68910000D02*
X118984500Y-68910000D01*
X118984500Y-68910000D02*
X118872000Y-68797500D01*
X121449000Y-49098000D02*
X119111500Y-49098000D01*
X119111500Y-49098000D02*
X118999000Y-48985500D01*
D18*
X116549000Y-45898000D02*
X116535000Y-45898000D01*
D17*
X105664000Y-44784000D02*
X109474000Y-48594000D01*
X105664000Y-43434000D02*
X105664000Y-44784000D01*
X109474000Y-48594000D02*
X109474000Y-55956200D01*
X109474000Y-55956200D02*
X108204000Y-57226200D01*
X108204000Y-57226200D02*
X108204000Y-62204600D01*
X111709400Y-65710000D02*
X116549000Y-65710000D01*
X108204000Y-62204600D02*
X111709400Y-65710000D01*
X116549000Y-65710000D02*
X118759500Y-65710000D01*
X118759500Y-65710000D02*
X118872000Y-65822500D01*
X111709400Y-65710000D02*
X111709400Y-68427400D01*
X111709400Y-68427400D02*
X109220000Y-70916800D01*
X109220000Y-70916800D02*
X109220000Y-83413600D01*
X111328400Y-85522000D02*
X118200000Y-85522000D01*
X109220000Y-83413600D02*
X111328400Y-85522000D01*
X118200000Y-85522000D02*
X120537500Y-85522000D01*
X120537500Y-85522000D02*
X120650000Y-85634500D01*
X142912000Y-88722000D02*
X140447500Y-88722000D01*
X140447500Y-88722000D02*
X140335000Y-88609500D01*
X157824000Y-85522000D02*
X160034500Y-85522000D01*
X160034500Y-85522000D02*
X160147000Y-85634500D01*
X142912000Y-108534000D02*
X140538000Y-108534000D01*
X140538000Y-108534000D02*
X140462000Y-108458000D01*
X157824000Y-105334000D02*
X160161500Y-105334000D01*
X160161500Y-105334000D02*
X160274000Y-105446500D01*
X182536000Y-108534000D02*
X180198500Y-108534000D01*
X180198500Y-108534000D02*
X180086000Y-108421500D01*
X182536000Y-88595000D02*
X180198500Y-88595000D01*
X180198500Y-88595000D02*
X180086000Y-88482500D01*
X184187000Y-68910000D02*
X181849500Y-68910000D01*
X181849500Y-68910000D02*
X181737000Y-68797500D01*
X184187000Y-49098000D02*
X181722500Y-49098000D01*
X181722500Y-49098000D02*
X181610000Y-48985500D01*
X111328400Y-85522000D02*
X111328400Y-89103000D01*
X111328400Y-89103000D02*
X109448600Y-90982800D01*
X109448600Y-90982800D02*
X109448600Y-103530400D01*
X111252200Y-105334000D02*
X118200000Y-105334000D01*
X109448600Y-103530400D02*
X111252200Y-105334000D01*
X118200000Y-105334000D02*
X120537500Y-105334000D01*
X120537500Y-105334000D02*
X120650000Y-105446500D01*
X120650000Y-106159000D02*
X121196400Y-106705400D01*
X120650000Y-105446500D02*
X120650000Y-106159000D01*
X121196400Y-106705400D02*
X124333000Y-106705400D01*
X124333000Y-106705400D02*
X124968000Y-107340400D01*
X140462000Y-107745500D02*
X140462000Y-108458000D01*
X140056900Y-107340400D02*
X140462000Y-107745500D01*
X124968000Y-107340400D02*
X140056900Y-107340400D01*
X144162000Y-108534000D02*
X149606000Y-103090000D01*
X142912000Y-108534000D02*
X144162000Y-108534000D01*
X149606000Y-103090000D02*
X149606000Y-90627200D01*
X147700800Y-88722000D02*
X142912000Y-88722000D01*
X149606000Y-90627200D02*
X147700800Y-88722000D01*
X149606000Y-90627200D02*
X149656800Y-90627200D01*
X149656800Y-90627200D02*
X151511000Y-88773000D01*
X151511000Y-88773000D02*
X155346400Y-88773000D01*
X155346400Y-88773000D02*
X156768800Y-87350600D01*
X157824000Y-86522000D02*
X157824000Y-85522000D01*
X156995400Y-87350600D02*
X157824000Y-86522000D01*
X156768800Y-87350600D02*
X156995400Y-87350600D01*
X149606000Y-103093868D02*
X149682200Y-103170068D01*
X149606000Y-103090000D02*
X149606000Y-103093868D01*
X149682200Y-103170068D02*
X149682200Y-103530400D01*
X151485800Y-105334000D02*
X157824000Y-105334000D01*
X149682200Y-103530400D02*
X151485800Y-105334000D01*
X160274000Y-105446500D02*
X160285100Y-105446500D01*
X160285100Y-105446500D02*
X162255200Y-107416600D01*
X162306000Y-107416600D02*
X179844400Y-107416600D01*
X180086000Y-108421500D02*
X180086000Y-108407200D01*
X179095400Y-107416600D02*
X177876200Y-107416600D01*
X180086000Y-108407200D02*
X179095400Y-107416600D01*
X182536000Y-108534000D02*
X185090000Y-108534000D01*
X185090000Y-108534000D02*
X190195200Y-103428800D01*
X190195200Y-103428800D02*
X190195200Y-90855800D01*
X187934400Y-88595000D02*
X182536000Y-88595000D01*
X190195200Y-90855800D02*
X187934400Y-88595000D01*
X187934400Y-88595000D02*
X187934400Y-88544600D01*
X187934400Y-88544600D02*
X190042800Y-86436200D01*
X190042800Y-86436200D02*
X190042800Y-70840600D01*
X188112200Y-68910000D02*
X184187000Y-68910000D01*
X190042800Y-70840600D02*
X188112200Y-68910000D01*
X188112200Y-68910000D02*
X188112200Y-66472000D01*
X188112200Y-66472000D02*
X191185800Y-63398400D01*
X191185800Y-63398400D02*
X191185800Y-51968400D01*
X188315400Y-49098000D02*
X184187000Y-49098000D01*
X191185800Y-51968400D02*
X188315400Y-49098000D01*
X116549000Y-45898000D02*
X118886500Y-45898000D01*
X118886500Y-45898000D02*
X118999000Y-46010500D01*
X116535000Y-45898000D02*
X115189000Y-47244000D01*
X115189000Y-47244000D02*
X115189000Y-47371000D01*
X113966000Y-48594000D02*
X109474000Y-48594000D01*
X115189000Y-47371000D02*
X113966000Y-48594000D01*
D18*
X117315000Y-88722000D02*
X116586000Y-89451000D01*
X118200000Y-88722000D02*
X117315000Y-88722000D01*
X116586000Y-89451000D02*
X111971000Y-89451000D01*
X111971000Y-89451000D02*
X110109000Y-91313000D01*
X110109000Y-91313000D02*
X110109000Y-103124000D01*
X110109000Y-103124000D02*
X111252000Y-104267000D01*
X123100000Y-104699000D02*
X123100000Y-105334000D01*
X122668000Y-104267000D02*
X123100000Y-104699000D01*
X111252000Y-104267000D02*
X122668000Y-104267000D01*
X118200000Y-109169000D02*
X118632000Y-109601000D01*
X118200000Y-108534000D02*
X118200000Y-109169000D01*
X138012000Y-109169000D02*
X138012000Y-108534000D01*
X137580000Y-109601000D02*
X138012000Y-109169000D01*
X118632000Y-109601000D02*
X137580000Y-109601000D01*
X116549000Y-68910000D02*
X112319000Y-68910000D01*
X112319000Y-68910000D02*
X109982000Y-71247000D01*
X109982000Y-71247000D02*
X109982000Y-82931000D01*
X109982000Y-82931000D02*
X111633000Y-84582000D01*
X123100000Y-84887000D02*
X123100000Y-85522000D01*
X122795000Y-84582000D02*
X123100000Y-84887000D01*
X111633000Y-84582000D02*
X122795000Y-84582000D01*
X121144000Y-64770000D02*
X121449000Y-65075000D01*
X111760000Y-64770000D02*
X121144000Y-64770000D01*
X108966000Y-61976000D02*
X111760000Y-64770000D01*
X121449000Y-65075000D02*
X121449000Y-65710000D01*
X110109000Y-56261000D02*
X108966000Y-57404000D01*
X108966000Y-57404000D02*
X108966000Y-61976000D01*
X114097000Y-49098000D02*
X113703510Y-49491490D01*
X113703510Y-49491490D02*
X110528510Y-49491490D01*
X116549000Y-49098000D02*
X114097000Y-49098000D01*
X110528510Y-49491490D02*
X110109000Y-49911000D01*
X110109000Y-49911000D02*
X110109000Y-56261000D01*
X157824000Y-109169000D02*
X159119600Y-110464600D01*
X157824000Y-108534000D02*
X157824000Y-109169000D01*
X159119600Y-110464600D02*
X166903400Y-110464600D01*
X166903400Y-110464600D02*
X167741600Y-109626400D01*
X167741600Y-109626400D02*
X173939200Y-109626400D01*
X175031600Y-108534000D02*
X177636000Y-108534000D01*
X173939200Y-109626400D02*
X175031600Y-108534000D01*
X162724000Y-104699000D02*
X162724000Y-105334000D01*
X151663400Y-104419400D02*
X162444400Y-104419400D01*
X157824000Y-88722000D02*
X157824000Y-89357000D01*
X157824000Y-89357000D02*
X157544400Y-89636600D01*
X157544400Y-89636600D02*
X151917400Y-89636600D01*
X150291800Y-103047800D02*
X151663400Y-104419400D01*
X151917400Y-89636600D02*
X150291800Y-91262200D01*
X162444400Y-104419400D02*
X162724000Y-104699000D01*
X150291800Y-91262200D02*
X150291800Y-103047800D01*
X162724000Y-84887000D02*
X162724000Y-85522000D01*
X144762400Y-84556600D02*
X162393600Y-84556600D01*
X143797000Y-85522000D02*
X144762400Y-84556600D01*
X162393600Y-84556600D02*
X162724000Y-84887000D01*
X142912000Y-85522000D02*
X143797000Y-85522000D01*
X138012000Y-89357000D02*
X138012000Y-88722000D01*
X148869400Y-102743000D02*
X148869400Y-91059000D01*
X142912000Y-105334000D02*
X146278400Y-105334000D01*
X147447000Y-89636600D02*
X138291600Y-89636600D01*
X146278400Y-105334000D02*
X148869400Y-102743000D01*
X138291600Y-89636600D02*
X138012000Y-89357000D01*
X148869400Y-91059000D02*
X147447000Y-89636600D01*
X185072000Y-65710000D02*
X185859600Y-64922400D01*
X184187000Y-65710000D02*
X185072000Y-65710000D01*
X185859600Y-64922400D02*
X188087000Y-64922400D01*
X188087000Y-64922400D02*
X190423800Y-62585600D01*
X190423800Y-62585600D02*
X190423800Y-52298600D01*
X190423800Y-52298600D02*
X188188600Y-50063400D01*
X179287000Y-49733000D02*
X179287000Y-49098000D01*
X179617400Y-50063400D02*
X179287000Y-49733000D01*
X188188600Y-50063400D02*
X179617400Y-50063400D01*
X183421000Y-85395000D02*
X184056200Y-84759800D01*
X182536000Y-85395000D02*
X183421000Y-85395000D01*
X184056200Y-84759800D02*
X187731400Y-84759800D01*
X187731400Y-84759800D02*
X189407800Y-83083400D01*
X189407800Y-83083400D02*
X189407800Y-71323200D01*
X189407800Y-71323200D02*
X187934600Y-69850000D01*
X179287000Y-69545000D02*
X179287000Y-68910000D01*
X179592000Y-69850000D02*
X179287000Y-69545000D01*
X187934600Y-69850000D02*
X179592000Y-69850000D01*
X183421000Y-105334000D02*
X184183200Y-104571800D01*
X182536000Y-105334000D02*
X183421000Y-105334000D01*
X184183200Y-104571800D02*
X188010800Y-104571800D01*
X188010800Y-104571800D02*
X189509400Y-103073200D01*
X189509400Y-103073200D02*
X189509400Y-91186000D01*
X189509400Y-91186000D02*
X187960000Y-89636600D01*
X177636000Y-89230000D02*
X177636000Y-88595000D01*
X178042600Y-89636600D02*
X177636000Y-89230000D01*
X187960000Y-89636600D02*
X178042600Y-89636600D01*
D19*
X108204000Y-43434000D02*
X108204000Y-44667500D01*
X108204000Y-44667500D02*
X110780500Y-47244000D01*
D18*
X185072000Y-45898000D02*
X185072200Y-45897800D01*
X184187000Y-45898000D02*
X185072000Y-45898000D01*
X190068200Y-45897800D02*
X192532000Y-43434000D01*
X185072200Y-45897800D02*
X190068200Y-45897800D01*
M02*
