G04 #@! TF.GenerationSoftware,KiCad,Pcbnew,(5.1.6)-1*
G04 #@! TF.CreationDate,2020-07-05T02:04:56-07:00*
G04 #@! TF.ProjectId,daughter,64617567-6874-4657-922e-6b696361645f,rev?*
G04 #@! TF.SameCoordinates,Original*
G04 #@! TF.FileFunction,Copper,L2,Bot*
G04 #@! TF.FilePolarity,Positive*
%FSLAX46Y46*%
G04 Gerber Fmt 4.6, Leading zero omitted, Abs format (unit mm)*
G04 Created by KiCad (PCBNEW (5.1.6)-1) date 2020-07-05 02:04:56*
%MOMM*%
%LPD*%
G01*
G04 APERTURE LIST*
G04 #@! TA.AperFunction,Profile*
%ADD10C,0.050000*%
G04 #@! TD*
G04 #@! TA.AperFunction,Profile*
%ADD11C,0.120000*%
G04 #@! TD*
G04 #@! TA.AperFunction,ComponentPad*
%ADD12R,1.700000X1.700000*%
G04 #@! TD*
G04 #@! TA.AperFunction,ComponentPad*
%ADD13O,1.700000X1.700000*%
G04 #@! TD*
G04 #@! TA.AperFunction,ViaPad*
%ADD14C,0.800000*%
G04 #@! TD*
G04 #@! TA.AperFunction,ViaPad*
%ADD15C,0.600000*%
G04 #@! TD*
G04 #@! TA.AperFunction,Conductor*
%ADD16C,0.135000*%
G04 #@! TD*
G04 #@! TA.AperFunction,Conductor*
%ADD17C,0.254000*%
G04 #@! TD*
G04 APERTURE END LIST*
D10*
X153670000Y-103886000D02*
X152400000Y-102616000D01*
X145478500Y-103886000D02*
X146748500Y-102616000D01*
X146748500Y-98044000D02*
X147701000Y-98044000D01*
X146748500Y-102552500D02*
X146748500Y-98044000D01*
X146748500Y-102552500D02*
X146748500Y-102616000D01*
X148336000Y-98044000D02*
X147701000Y-98044000D01*
X151130000Y-97345500D02*
X151130000Y-100838000D01*
X154495500Y-90170000D02*
X153225500Y-91440000D01*
X153225500Y-97345500D02*
X153225500Y-91440000D01*
X151130000Y-97345500D02*
X153225500Y-97345500D01*
X167005000Y-81851500D02*
X173355000Y-81851500D01*
X176022000Y-84074000D02*
X173355000Y-81851500D01*
X164338000Y-84074000D02*
X167005000Y-81851500D01*
X173672500Y-88455500D02*
X166687500Y-88455500D01*
X176022000Y-90170000D02*
X173672500Y-88455500D01*
X164338000Y-90170000D02*
X166687500Y-88455500D01*
X127381000Y-81851500D02*
X133731000Y-81851500D01*
X134048500Y-88455500D02*
X127063500Y-88455500D01*
X136398000Y-90170000D02*
X134048500Y-88455500D01*
X136398000Y-84074000D02*
X133731000Y-81851500D01*
X124714000Y-84074000D02*
X127381000Y-81851500D01*
X124714000Y-90170000D02*
X127063500Y-88455500D01*
X107950000Y-118110000D02*
X192786000Y-118110000D01*
X197231000Y-41148000D02*
X196596000Y-41148000D01*
X197231000Y-113665000D02*
X197231000Y-41148000D01*
X103505000Y-41402000D02*
X104140000Y-41402000D01*
X103505000Y-113665000D02*
X103505000Y-41402000D01*
D11*
X107950000Y-118110000D02*
G75*
G02*
X103505000Y-113665000I0J4445000D01*
G01*
X197231000Y-113665000D02*
G75*
G02*
X192786000Y-118110000I-4445000J0D01*
G01*
D10*
X188468000Y-41148000D02*
X196596000Y-41148000D01*
X188468000Y-43180000D02*
X188468000Y-41148000D01*
X187198000Y-44450000D02*
X188468000Y-43180000D01*
X177546000Y-44450000D02*
X187198000Y-44450000D01*
X177546000Y-50546000D02*
X177546000Y-44450000D01*
X187198000Y-50546000D02*
X177546000Y-50546000D01*
X188468000Y-51816000D02*
X187198000Y-50546000D01*
X188468000Y-53594000D02*
X188468000Y-51816000D01*
X189865000Y-54991000D02*
X188468000Y-53594000D01*
X189865000Y-58928000D02*
X189865000Y-54991000D01*
X188722000Y-60071000D02*
X189865000Y-58928000D01*
X188722000Y-62992000D02*
X188722000Y-60071000D01*
X187452000Y-64262000D02*
X188722000Y-62992000D01*
X177546000Y-64262000D02*
X187452000Y-64262000D01*
X177546000Y-70358000D02*
X177546000Y-64262000D01*
X187452000Y-70358000D02*
X177546000Y-70358000D01*
X188722000Y-71628000D02*
X187452000Y-70358000D01*
X188722000Y-82804000D02*
X188722000Y-71628000D01*
X187452000Y-84074000D02*
X188722000Y-82804000D01*
X176022000Y-84074000D02*
X187452000Y-84074000D01*
X187452000Y-90170000D02*
X176022000Y-90170000D01*
X188722000Y-91440000D02*
X187452000Y-90170000D01*
X188722000Y-102616000D02*
X188722000Y-91440000D01*
X187452000Y-103886000D02*
X188722000Y-102616000D01*
X172720000Y-103886000D02*
X187452000Y-103886000D01*
X171958000Y-104648000D02*
X172720000Y-103886000D01*
X168402000Y-104648000D02*
X171958000Y-104648000D01*
X167640000Y-103886000D02*
X168402000Y-104648000D01*
X153670000Y-103886000D02*
X167640000Y-103886000D01*
X152400000Y-100838000D02*
X152400000Y-102616000D01*
X151130000Y-100838000D02*
X152400000Y-100838000D01*
X164338000Y-90170000D02*
X154495500Y-90170000D01*
X136398000Y-84074000D02*
X164338000Y-84074000D01*
X147066000Y-90170000D02*
X136398000Y-90170000D01*
X148336000Y-91440000D02*
X147066000Y-90170000D01*
X148336000Y-98044000D02*
X148336000Y-91440000D01*
X133096000Y-103886000D02*
X145478500Y-103886000D01*
X132334000Y-104648000D02*
X133096000Y-103886000D01*
X128778000Y-104648000D02*
X132334000Y-104648000D01*
X128016000Y-103886000D02*
X128778000Y-104648000D01*
X112014000Y-103886000D02*
X128016000Y-103886000D01*
X110744000Y-102616000D02*
X112014000Y-103886000D01*
X110744000Y-91440000D02*
X110744000Y-102616000D01*
X112014000Y-90170000D02*
X110744000Y-91440000D01*
X124714000Y-90170000D02*
X112014000Y-90170000D01*
X112014000Y-84074000D02*
X124714000Y-84074000D01*
X110744000Y-82804000D02*
X112014000Y-84074000D01*
X110744000Y-71628000D02*
X110744000Y-82804000D01*
X112014000Y-70358000D02*
X110744000Y-71628000D01*
X122936000Y-70358000D02*
X112014000Y-70358000D01*
X122936000Y-64262000D02*
X122936000Y-70358000D01*
X112014000Y-64262000D02*
X122936000Y-64262000D01*
X110744000Y-62992000D02*
X112014000Y-64262000D01*
X110744000Y-62230000D02*
X110744000Y-62992000D01*
X109474000Y-60960000D02*
X110744000Y-62230000D01*
X109474000Y-57912000D02*
X109474000Y-60960000D01*
X110744000Y-56642000D02*
X109474000Y-57912000D01*
X110744000Y-50292000D02*
X110744000Y-56642000D01*
X111252000Y-49784000D02*
X110744000Y-50292000D01*
X114046000Y-49784000D02*
X111252000Y-49784000D01*
X114808000Y-50546000D02*
X114046000Y-49784000D01*
X122936000Y-50546000D02*
X114808000Y-50546000D01*
X122936000Y-44450000D02*
X122936000Y-50546000D01*
X113284000Y-44450000D02*
X122936000Y-44450000D01*
X112014000Y-43180000D02*
X113284000Y-44450000D01*
X112014000Y-41402000D02*
X112014000Y-43180000D01*
X104140000Y-41402000D02*
X112014000Y-41402000D01*
D12*
X105664000Y-43434000D03*
D13*
X108204000Y-43434000D03*
X110744000Y-43434000D03*
G04 #@! TA.AperFunction,SMDPad,CuDef*
G36*
G01*
X114468000Y-46619000D02*
X114468000Y-47869000D01*
G75*
G02*
X114218000Y-48119000I-250000J0D01*
G01*
X113293000Y-48119000D01*
G75*
G02*
X113043000Y-47869000I0J250000D01*
G01*
X113043000Y-46619000D01*
G75*
G02*
X113293000Y-46369000I250000J0D01*
G01*
X114218000Y-46369000D01*
G75*
G02*
X114468000Y-46619000I0J-250000D01*
G01*
G37*
G04 #@! TD.AperFunction*
G04 #@! TA.AperFunction,SMDPad,CuDef*
G36*
G01*
X111493000Y-46619000D02*
X111493000Y-47869000D01*
G75*
G02*
X111243000Y-48119000I-250000J0D01*
G01*
X110318000Y-48119000D01*
G75*
G02*
X110068000Y-47869000I0J250000D01*
G01*
X110068000Y-46619000D01*
G75*
G02*
X110318000Y-46369000I250000J0D01*
G01*
X111243000Y-46369000D01*
G75*
G02*
X111493000Y-46619000I0J-250000D01*
G01*
G37*
G04 #@! TD.AperFunction*
G04 #@! TA.AperFunction,SMDPad,CuDef*
G36*
G01*
X120025000Y-107709000D02*
X121275000Y-107709000D01*
G75*
G02*
X121525000Y-107959000I0J-250000D01*
G01*
X121525000Y-108884000D01*
G75*
G02*
X121275000Y-109134000I-250000J0D01*
G01*
X120025000Y-109134000D01*
G75*
G02*
X119775000Y-108884000I0J250000D01*
G01*
X119775000Y-107959000D01*
G75*
G02*
X120025000Y-107709000I250000J0D01*
G01*
G37*
G04 #@! TD.AperFunction*
G04 #@! TA.AperFunction,SMDPad,CuDef*
G36*
G01*
X120025000Y-104734000D02*
X121275000Y-104734000D01*
G75*
G02*
X121525000Y-104984000I0J-250000D01*
G01*
X121525000Y-105909000D01*
G75*
G02*
X121275000Y-106159000I-250000J0D01*
G01*
X120025000Y-106159000D01*
G75*
G02*
X119775000Y-105909000I0J250000D01*
G01*
X119775000Y-104984000D01*
G75*
G02*
X120025000Y-104734000I250000J0D01*
G01*
G37*
G04 #@! TD.AperFunction*
G04 #@! TA.AperFunction,SMDPad,CuDef*
G36*
G01*
X120025000Y-87897000D02*
X121275000Y-87897000D01*
G75*
G02*
X121525000Y-88147000I0J-250000D01*
G01*
X121525000Y-89072000D01*
G75*
G02*
X121275000Y-89322000I-250000J0D01*
G01*
X120025000Y-89322000D01*
G75*
G02*
X119775000Y-89072000I0J250000D01*
G01*
X119775000Y-88147000D01*
G75*
G02*
X120025000Y-87897000I250000J0D01*
G01*
G37*
G04 #@! TD.AperFunction*
G04 #@! TA.AperFunction,SMDPad,CuDef*
G36*
G01*
X120025000Y-84922000D02*
X121275000Y-84922000D01*
G75*
G02*
X121525000Y-85172000I0J-250000D01*
G01*
X121525000Y-86097000D01*
G75*
G02*
X121275000Y-86347000I-250000J0D01*
G01*
X120025000Y-86347000D01*
G75*
G02*
X119775000Y-86097000I0J250000D01*
G01*
X119775000Y-85172000D01*
G75*
G02*
X120025000Y-84922000I250000J0D01*
G01*
G37*
G04 #@! TD.AperFunction*
G04 #@! TA.AperFunction,SMDPad,CuDef*
G36*
G01*
X118247000Y-65110000D02*
X119497000Y-65110000D01*
G75*
G02*
X119747000Y-65360000I0J-250000D01*
G01*
X119747000Y-66285000D01*
G75*
G02*
X119497000Y-66535000I-250000J0D01*
G01*
X118247000Y-66535000D01*
G75*
G02*
X117997000Y-66285000I0J250000D01*
G01*
X117997000Y-65360000D01*
G75*
G02*
X118247000Y-65110000I250000J0D01*
G01*
G37*
G04 #@! TD.AperFunction*
G04 #@! TA.AperFunction,SMDPad,CuDef*
G36*
G01*
X118247000Y-68085000D02*
X119497000Y-68085000D01*
G75*
G02*
X119747000Y-68335000I0J-250000D01*
G01*
X119747000Y-69260000D01*
G75*
G02*
X119497000Y-69510000I-250000J0D01*
G01*
X118247000Y-69510000D01*
G75*
G02*
X117997000Y-69260000I0J250000D01*
G01*
X117997000Y-68335000D01*
G75*
G02*
X118247000Y-68085000I250000J0D01*
G01*
G37*
G04 #@! TD.AperFunction*
G04 #@! TA.AperFunction,SMDPad,CuDef*
G36*
G01*
X118374000Y-48273000D02*
X119624000Y-48273000D01*
G75*
G02*
X119874000Y-48523000I0J-250000D01*
G01*
X119874000Y-49448000D01*
G75*
G02*
X119624000Y-49698000I-250000J0D01*
G01*
X118374000Y-49698000D01*
G75*
G02*
X118124000Y-49448000I0J250000D01*
G01*
X118124000Y-48523000D01*
G75*
G02*
X118374000Y-48273000I250000J0D01*
G01*
G37*
G04 #@! TD.AperFunction*
G04 #@! TA.AperFunction,SMDPad,CuDef*
G36*
G01*
X118374000Y-45298000D02*
X119624000Y-45298000D01*
G75*
G02*
X119874000Y-45548000I0J-250000D01*
G01*
X119874000Y-46473000D01*
G75*
G02*
X119624000Y-46723000I-250000J0D01*
G01*
X118374000Y-46723000D01*
G75*
G02*
X118124000Y-46473000I0J250000D01*
G01*
X118124000Y-45548000D01*
G75*
G02*
X118374000Y-45298000I250000J0D01*
G01*
G37*
G04 #@! TD.AperFunction*
G04 #@! TA.AperFunction,SMDPad,CuDef*
G36*
G01*
X159522000Y-87897000D02*
X160772000Y-87897000D01*
G75*
G02*
X161022000Y-88147000I0J-250000D01*
G01*
X161022000Y-89072000D01*
G75*
G02*
X160772000Y-89322000I-250000J0D01*
G01*
X159522000Y-89322000D01*
G75*
G02*
X159272000Y-89072000I0J250000D01*
G01*
X159272000Y-88147000D01*
G75*
G02*
X159522000Y-87897000I250000J0D01*
G01*
G37*
G04 #@! TD.AperFunction*
G04 #@! TA.AperFunction,SMDPad,CuDef*
G36*
G01*
X159522000Y-84922000D02*
X160772000Y-84922000D01*
G75*
G02*
X161022000Y-85172000I0J-250000D01*
G01*
X161022000Y-86097000D01*
G75*
G02*
X160772000Y-86347000I-250000J0D01*
G01*
X159522000Y-86347000D01*
G75*
G02*
X159272000Y-86097000I0J250000D01*
G01*
X159272000Y-85172000D01*
G75*
G02*
X159522000Y-84922000I250000J0D01*
G01*
G37*
G04 #@! TD.AperFunction*
G04 #@! TA.AperFunction,SMDPad,CuDef*
G36*
G01*
X140960000Y-89322000D02*
X139710000Y-89322000D01*
G75*
G02*
X139460000Y-89072000I0J250000D01*
G01*
X139460000Y-88147000D01*
G75*
G02*
X139710000Y-87897000I250000J0D01*
G01*
X140960000Y-87897000D01*
G75*
G02*
X141210000Y-88147000I0J-250000D01*
G01*
X141210000Y-89072000D01*
G75*
G02*
X140960000Y-89322000I-250000J0D01*
G01*
G37*
G04 #@! TD.AperFunction*
G04 #@! TA.AperFunction,SMDPad,CuDef*
G36*
G01*
X140960000Y-86347000D02*
X139710000Y-86347000D01*
G75*
G02*
X139460000Y-86097000I0J250000D01*
G01*
X139460000Y-85172000D01*
G75*
G02*
X139710000Y-84922000I250000J0D01*
G01*
X140960000Y-84922000D01*
G75*
G02*
X141210000Y-85172000I0J-250000D01*
G01*
X141210000Y-86097000D01*
G75*
G02*
X140960000Y-86347000I-250000J0D01*
G01*
G37*
G04 #@! TD.AperFunction*
G04 #@! TA.AperFunction,SMDPad,CuDef*
G36*
G01*
X159649000Y-107709000D02*
X160899000Y-107709000D01*
G75*
G02*
X161149000Y-107959000I0J-250000D01*
G01*
X161149000Y-108884000D01*
G75*
G02*
X160899000Y-109134000I-250000J0D01*
G01*
X159649000Y-109134000D01*
G75*
G02*
X159399000Y-108884000I0J250000D01*
G01*
X159399000Y-107959000D01*
G75*
G02*
X159649000Y-107709000I250000J0D01*
G01*
G37*
G04 #@! TD.AperFunction*
G04 #@! TA.AperFunction,SMDPad,CuDef*
G36*
G01*
X159649000Y-104734000D02*
X160899000Y-104734000D01*
G75*
G02*
X161149000Y-104984000I0J-250000D01*
G01*
X161149000Y-105909000D01*
G75*
G02*
X160899000Y-106159000I-250000J0D01*
G01*
X159649000Y-106159000D01*
G75*
G02*
X159399000Y-105909000I0J250000D01*
G01*
X159399000Y-104984000D01*
G75*
G02*
X159649000Y-104734000I250000J0D01*
G01*
G37*
G04 #@! TD.AperFunction*
G04 #@! TA.AperFunction,SMDPad,CuDef*
G36*
G01*
X141087000Y-106195500D02*
X139837000Y-106195500D01*
G75*
G02*
X139587000Y-105945500I0J250000D01*
G01*
X139587000Y-105020500D01*
G75*
G02*
X139837000Y-104770500I250000J0D01*
G01*
X141087000Y-104770500D01*
G75*
G02*
X141337000Y-105020500I0J-250000D01*
G01*
X141337000Y-105945500D01*
G75*
G02*
X141087000Y-106195500I-250000J0D01*
G01*
G37*
G04 #@! TD.AperFunction*
G04 #@! TA.AperFunction,SMDPad,CuDef*
G36*
G01*
X141087000Y-109170500D02*
X139837000Y-109170500D01*
G75*
G02*
X139587000Y-108920500I0J250000D01*
G01*
X139587000Y-107995500D01*
G75*
G02*
X139837000Y-107745500I250000J0D01*
G01*
X141087000Y-107745500D01*
G75*
G02*
X141337000Y-107995500I0J-250000D01*
G01*
X141337000Y-108920500D01*
G75*
G02*
X141087000Y-109170500I-250000J0D01*
G01*
G37*
G04 #@! TD.AperFunction*
G04 #@! TA.AperFunction,SMDPad,CuDef*
G36*
G01*
X182235000Y-49698000D02*
X180985000Y-49698000D01*
G75*
G02*
X180735000Y-49448000I0J250000D01*
G01*
X180735000Y-48523000D01*
G75*
G02*
X180985000Y-48273000I250000J0D01*
G01*
X182235000Y-48273000D01*
G75*
G02*
X182485000Y-48523000I0J-250000D01*
G01*
X182485000Y-49448000D01*
G75*
G02*
X182235000Y-49698000I-250000J0D01*
G01*
G37*
G04 #@! TD.AperFunction*
G04 #@! TA.AperFunction,SMDPad,CuDef*
G36*
G01*
X182235000Y-46723000D02*
X180985000Y-46723000D01*
G75*
G02*
X180735000Y-46473000I0J250000D01*
G01*
X180735000Y-45548000D01*
G75*
G02*
X180985000Y-45298000I250000J0D01*
G01*
X182235000Y-45298000D01*
G75*
G02*
X182485000Y-45548000I0J-250000D01*
G01*
X182485000Y-46473000D01*
G75*
G02*
X182235000Y-46723000I-250000J0D01*
G01*
G37*
G04 #@! TD.AperFunction*
G04 #@! TA.AperFunction,SMDPad,CuDef*
G36*
G01*
X182362000Y-69510000D02*
X181112000Y-69510000D01*
G75*
G02*
X180862000Y-69260000I0J250000D01*
G01*
X180862000Y-68335000D01*
G75*
G02*
X181112000Y-68085000I250000J0D01*
G01*
X182362000Y-68085000D01*
G75*
G02*
X182612000Y-68335000I0J-250000D01*
G01*
X182612000Y-69260000D01*
G75*
G02*
X182362000Y-69510000I-250000J0D01*
G01*
G37*
G04 #@! TD.AperFunction*
G04 #@! TA.AperFunction,SMDPad,CuDef*
G36*
G01*
X182362000Y-66535000D02*
X181112000Y-66535000D01*
G75*
G02*
X180862000Y-66285000I0J250000D01*
G01*
X180862000Y-65360000D01*
G75*
G02*
X181112000Y-65110000I250000J0D01*
G01*
X182362000Y-65110000D01*
G75*
G02*
X182612000Y-65360000I0J-250000D01*
G01*
X182612000Y-66285000D01*
G75*
G02*
X182362000Y-66535000I-250000J0D01*
G01*
G37*
G04 #@! TD.AperFunction*
G04 #@! TA.AperFunction,SMDPad,CuDef*
G36*
G01*
X180711000Y-86220000D02*
X179461000Y-86220000D01*
G75*
G02*
X179211000Y-85970000I0J250000D01*
G01*
X179211000Y-85045000D01*
G75*
G02*
X179461000Y-84795000I250000J0D01*
G01*
X180711000Y-84795000D01*
G75*
G02*
X180961000Y-85045000I0J-250000D01*
G01*
X180961000Y-85970000D01*
G75*
G02*
X180711000Y-86220000I-250000J0D01*
G01*
G37*
G04 #@! TD.AperFunction*
G04 #@! TA.AperFunction,SMDPad,CuDef*
G36*
G01*
X180711000Y-89195000D02*
X179461000Y-89195000D01*
G75*
G02*
X179211000Y-88945000I0J250000D01*
G01*
X179211000Y-88020000D01*
G75*
G02*
X179461000Y-87770000I250000J0D01*
G01*
X180711000Y-87770000D01*
G75*
G02*
X180961000Y-88020000I0J-250000D01*
G01*
X180961000Y-88945000D01*
G75*
G02*
X180711000Y-89195000I-250000J0D01*
G01*
G37*
G04 #@! TD.AperFunction*
G04 #@! TA.AperFunction,SMDPad,CuDef*
G36*
G01*
X180711000Y-106159000D02*
X179461000Y-106159000D01*
G75*
G02*
X179211000Y-105909000I0J250000D01*
G01*
X179211000Y-104984000D01*
G75*
G02*
X179461000Y-104734000I250000J0D01*
G01*
X180711000Y-104734000D01*
G75*
G02*
X180961000Y-104984000I0J-250000D01*
G01*
X180961000Y-105909000D01*
G75*
G02*
X180711000Y-106159000I-250000J0D01*
G01*
G37*
G04 #@! TD.AperFunction*
G04 #@! TA.AperFunction,SMDPad,CuDef*
G36*
G01*
X180711000Y-109134000D02*
X179461000Y-109134000D01*
G75*
G02*
X179211000Y-108884000I0J250000D01*
G01*
X179211000Y-107959000D01*
G75*
G02*
X179461000Y-107709000I250000J0D01*
G01*
X180711000Y-107709000D01*
G75*
G02*
X180961000Y-107959000I0J-250000D01*
G01*
X180961000Y-108884000D01*
G75*
G02*
X180711000Y-109134000I-250000J0D01*
G01*
G37*
G04 #@! TD.AperFunction*
D12*
X189992000Y-43434000D03*
D13*
X192532000Y-43434000D03*
X195072000Y-43434000D03*
D14*
X181610000Y-46010500D03*
X181737000Y-65822500D03*
X180086000Y-85507500D03*
X180086000Y-105446500D03*
X160274000Y-108421500D03*
X160147000Y-88609500D03*
X140335000Y-85634500D03*
X140462000Y-105483000D03*
X120650000Y-108421500D03*
X120650000Y-88609500D03*
X118872000Y-68797500D03*
X118999000Y-48985500D03*
X118872000Y-65822500D03*
X120650000Y-85634500D03*
X140335000Y-88609500D03*
X160147000Y-85634500D03*
X140462000Y-108458000D03*
X160274000Y-105446500D03*
X180086000Y-108421500D03*
X180086000Y-88482500D03*
X181737000Y-68797500D03*
X181610000Y-48985500D03*
X120650000Y-105446500D03*
X118999000Y-46010500D03*
D15*
X121449000Y-45898000D03*
D14*
X110780500Y-47244000D03*
D16*
X113755500Y-47244000D02*
X120103000Y-47244000D01*
X120103000Y-47244000D02*
X121449000Y-45898000D01*
D17*
G36*
X196571000Y-113457132D02*
G01*
X196548885Y-113531792D01*
X196539142Y-113598990D01*
X196465246Y-114373512D01*
X196264893Y-115056454D01*
X195939009Y-115689195D01*
X195499357Y-116248898D01*
X194961805Y-116715363D01*
X194345738Y-117071767D01*
X193673397Y-117305243D01*
X192944576Y-117410916D01*
X192769019Y-117415207D01*
X192637943Y-117430954D01*
X192578442Y-117450000D01*
X108157868Y-117450000D01*
X108083208Y-117427885D01*
X108016010Y-117418142D01*
X107241488Y-117344246D01*
X106558546Y-117143893D01*
X105925805Y-116818009D01*
X105366102Y-116378357D01*
X104899637Y-115840805D01*
X104543233Y-115224738D01*
X104309757Y-114552397D01*
X104204084Y-113823576D01*
X104199793Y-113648019D01*
X104184046Y-113516943D01*
X104165000Y-113457442D01*
X104165000Y-113444872D01*
X105715000Y-113444872D01*
X105715000Y-113885128D01*
X105800890Y-114316925D01*
X105969369Y-114723669D01*
X106213962Y-115089729D01*
X106525271Y-115401038D01*
X106891331Y-115645631D01*
X107298075Y-115814110D01*
X107729872Y-115900000D01*
X108170128Y-115900000D01*
X108601925Y-115814110D01*
X109008669Y-115645631D01*
X109374729Y-115401038D01*
X109686038Y-115089729D01*
X109930631Y-114723669D01*
X110099110Y-114316925D01*
X110185000Y-113885128D01*
X110185000Y-113444872D01*
X190551000Y-113444872D01*
X190551000Y-113885128D01*
X190636890Y-114316925D01*
X190805369Y-114723669D01*
X191049962Y-115089729D01*
X191361271Y-115401038D01*
X191727331Y-115645631D01*
X192134075Y-115814110D01*
X192565872Y-115900000D01*
X193006128Y-115900000D01*
X193437925Y-115814110D01*
X193844669Y-115645631D01*
X194210729Y-115401038D01*
X194522038Y-115089729D01*
X194766631Y-114723669D01*
X194935110Y-114316925D01*
X195021000Y-113885128D01*
X195021000Y-113444872D01*
X194935110Y-113013075D01*
X194766631Y-112606331D01*
X194522038Y-112240271D01*
X194210729Y-111928962D01*
X193844669Y-111684369D01*
X193437925Y-111515890D01*
X193006128Y-111430000D01*
X192565872Y-111430000D01*
X192134075Y-111515890D01*
X191727331Y-111684369D01*
X191361271Y-111928962D01*
X191049962Y-112240271D01*
X190805369Y-112606331D01*
X190636890Y-113013075D01*
X190551000Y-113444872D01*
X110185000Y-113444872D01*
X110099110Y-113013075D01*
X109930631Y-112606331D01*
X109686038Y-112240271D01*
X109374729Y-111928962D01*
X109008669Y-111684369D01*
X108601925Y-111515890D01*
X108170128Y-111430000D01*
X107729872Y-111430000D01*
X107298075Y-111515890D01*
X106891331Y-111684369D01*
X106525271Y-111928962D01*
X106213962Y-112240271D01*
X105969369Y-112606331D01*
X105800890Y-113013075D01*
X105715000Y-113444872D01*
X104165000Y-113444872D01*
X104165000Y-109134000D01*
X119136928Y-109134000D01*
X119149188Y-109258482D01*
X119185498Y-109378180D01*
X119244463Y-109488494D01*
X119323815Y-109585185D01*
X119420506Y-109664537D01*
X119530820Y-109723502D01*
X119650518Y-109759812D01*
X119775000Y-109772072D01*
X120364250Y-109769000D01*
X120523000Y-109610250D01*
X120523000Y-108548500D01*
X120777000Y-108548500D01*
X120777000Y-109610250D01*
X120935750Y-109769000D01*
X121525000Y-109772072D01*
X121649482Y-109759812D01*
X121769180Y-109723502D01*
X121879494Y-109664537D01*
X121976185Y-109585185D01*
X122055537Y-109488494D01*
X122114502Y-109378180D01*
X122150812Y-109258482D01*
X122163072Y-109134000D01*
X122160000Y-108707250D01*
X122001250Y-108548500D01*
X120777000Y-108548500D01*
X120523000Y-108548500D01*
X119298750Y-108548500D01*
X119140000Y-108707250D01*
X119136928Y-109134000D01*
X104165000Y-109134000D01*
X104165000Y-107709000D01*
X119136928Y-107709000D01*
X119140000Y-108135750D01*
X119298750Y-108294500D01*
X120523000Y-108294500D01*
X120523000Y-107232750D01*
X120777000Y-107232750D01*
X120777000Y-108294500D01*
X122001250Y-108294500D01*
X122160000Y-108135750D01*
X122161009Y-107995500D01*
X138948928Y-107995500D01*
X138948928Y-108920500D01*
X138965992Y-109093754D01*
X139016528Y-109260350D01*
X139098595Y-109413886D01*
X139209038Y-109548462D01*
X139343614Y-109658905D01*
X139497150Y-109740972D01*
X139663746Y-109791508D01*
X139837000Y-109808572D01*
X141087000Y-109808572D01*
X141260254Y-109791508D01*
X141426850Y-109740972D01*
X141580386Y-109658905D01*
X141714962Y-109548462D01*
X141825405Y-109413886D01*
X141907472Y-109260350D01*
X141945799Y-109134000D01*
X158760928Y-109134000D01*
X158773188Y-109258482D01*
X158809498Y-109378180D01*
X158868463Y-109488494D01*
X158947815Y-109585185D01*
X159044506Y-109664537D01*
X159154820Y-109723502D01*
X159274518Y-109759812D01*
X159399000Y-109772072D01*
X159988250Y-109769000D01*
X160147000Y-109610250D01*
X160147000Y-108548500D01*
X160401000Y-108548500D01*
X160401000Y-109610250D01*
X160559750Y-109769000D01*
X161149000Y-109772072D01*
X161273482Y-109759812D01*
X161393180Y-109723502D01*
X161503494Y-109664537D01*
X161600185Y-109585185D01*
X161679537Y-109488494D01*
X161738502Y-109378180D01*
X161774812Y-109258482D01*
X161787072Y-109134000D01*
X161784000Y-108707250D01*
X161625250Y-108548500D01*
X160401000Y-108548500D01*
X160147000Y-108548500D01*
X158922750Y-108548500D01*
X158764000Y-108707250D01*
X158760928Y-109134000D01*
X141945799Y-109134000D01*
X141958008Y-109093754D01*
X141975072Y-108920500D01*
X141975072Y-107995500D01*
X141958008Y-107822246D01*
X141923656Y-107709000D01*
X158760928Y-107709000D01*
X158764000Y-108135750D01*
X158922750Y-108294500D01*
X160147000Y-108294500D01*
X160147000Y-107232750D01*
X160401000Y-107232750D01*
X160401000Y-108294500D01*
X161625250Y-108294500D01*
X161784000Y-108135750D01*
X161785272Y-107959000D01*
X178572928Y-107959000D01*
X178572928Y-108884000D01*
X178589992Y-109057254D01*
X178640528Y-109223850D01*
X178722595Y-109377386D01*
X178833038Y-109511962D01*
X178967614Y-109622405D01*
X179121150Y-109704472D01*
X179287746Y-109755008D01*
X179461000Y-109772072D01*
X180711000Y-109772072D01*
X180884254Y-109755008D01*
X181050850Y-109704472D01*
X181204386Y-109622405D01*
X181338962Y-109511962D01*
X181449405Y-109377386D01*
X181531472Y-109223850D01*
X181582008Y-109057254D01*
X181599072Y-108884000D01*
X181599072Y-107959000D01*
X181582008Y-107785746D01*
X181531472Y-107619150D01*
X181449405Y-107465614D01*
X181338962Y-107331038D01*
X181204386Y-107220595D01*
X181050850Y-107138528D01*
X180884254Y-107087992D01*
X180711000Y-107070928D01*
X179461000Y-107070928D01*
X179287746Y-107087992D01*
X179121150Y-107138528D01*
X178967614Y-107220595D01*
X178833038Y-107331038D01*
X178722595Y-107465614D01*
X178640528Y-107619150D01*
X178589992Y-107785746D01*
X178572928Y-107959000D01*
X161785272Y-107959000D01*
X161787072Y-107709000D01*
X161774812Y-107584518D01*
X161738502Y-107464820D01*
X161679537Y-107354506D01*
X161600185Y-107257815D01*
X161503494Y-107178463D01*
X161393180Y-107119498D01*
X161273482Y-107083188D01*
X161149000Y-107070928D01*
X160559750Y-107074000D01*
X160401000Y-107232750D01*
X160147000Y-107232750D01*
X159988250Y-107074000D01*
X159399000Y-107070928D01*
X159274518Y-107083188D01*
X159154820Y-107119498D01*
X159044506Y-107178463D01*
X158947815Y-107257815D01*
X158868463Y-107354506D01*
X158809498Y-107464820D01*
X158773188Y-107584518D01*
X158760928Y-107709000D01*
X141923656Y-107709000D01*
X141907472Y-107655650D01*
X141825405Y-107502114D01*
X141714962Y-107367538D01*
X141580386Y-107257095D01*
X141426850Y-107175028D01*
X141260254Y-107124492D01*
X141087000Y-107107428D01*
X139837000Y-107107428D01*
X139663746Y-107124492D01*
X139497150Y-107175028D01*
X139343614Y-107257095D01*
X139209038Y-107367538D01*
X139098595Y-107502114D01*
X139016528Y-107655650D01*
X138965992Y-107822246D01*
X138948928Y-107995500D01*
X122161009Y-107995500D01*
X122163072Y-107709000D01*
X122150812Y-107584518D01*
X122114502Y-107464820D01*
X122055537Y-107354506D01*
X121976185Y-107257815D01*
X121879494Y-107178463D01*
X121769180Y-107119498D01*
X121649482Y-107083188D01*
X121525000Y-107070928D01*
X120935750Y-107074000D01*
X120777000Y-107232750D01*
X120523000Y-107232750D01*
X120364250Y-107074000D01*
X119775000Y-107070928D01*
X119650518Y-107083188D01*
X119530820Y-107119498D01*
X119420506Y-107178463D01*
X119323815Y-107257815D01*
X119244463Y-107354506D01*
X119185498Y-107464820D01*
X119149188Y-107584518D01*
X119136928Y-107709000D01*
X104165000Y-107709000D01*
X104165000Y-91440000D01*
X110080808Y-91440000D01*
X110084000Y-91472409D01*
X110084001Y-102583581D01*
X110080808Y-102616000D01*
X110084001Y-102648418D01*
X110084001Y-102648419D01*
X110093551Y-102745383D01*
X110104999Y-102783122D01*
X110131290Y-102869792D01*
X110192575Y-102984450D01*
X110254386Y-103059766D01*
X110254387Y-103059767D01*
X110275053Y-103084948D01*
X110300232Y-103105612D01*
X111524386Y-104329767D01*
X111545052Y-104354948D01*
X111570231Y-104375612D01*
X111570233Y-104375614D01*
X111645549Y-104437425D01*
X111685487Y-104458772D01*
X111760207Y-104498710D01*
X111884617Y-104536450D01*
X111981581Y-104546000D01*
X111981590Y-104546000D01*
X112013999Y-104549192D01*
X112046408Y-104546000D01*
X119256990Y-104546000D01*
X119204528Y-104644150D01*
X119153992Y-104810746D01*
X119136928Y-104984000D01*
X119136928Y-105909000D01*
X119153992Y-106082254D01*
X119204528Y-106248850D01*
X119286595Y-106402386D01*
X119397038Y-106536962D01*
X119531614Y-106647405D01*
X119685150Y-106729472D01*
X119851746Y-106780008D01*
X120025000Y-106797072D01*
X121275000Y-106797072D01*
X121448254Y-106780008D01*
X121614850Y-106729472D01*
X121768386Y-106647405D01*
X121902962Y-106536962D01*
X122013405Y-106402386D01*
X122095472Y-106248850D01*
X122111655Y-106195500D01*
X138948928Y-106195500D01*
X138961188Y-106319982D01*
X138997498Y-106439680D01*
X139056463Y-106549994D01*
X139135815Y-106646685D01*
X139232506Y-106726037D01*
X139342820Y-106785002D01*
X139462518Y-106821312D01*
X139587000Y-106833572D01*
X140176250Y-106830500D01*
X140335000Y-106671750D01*
X140335000Y-105610000D01*
X140589000Y-105610000D01*
X140589000Y-106671750D01*
X140747750Y-106830500D01*
X141337000Y-106833572D01*
X141461482Y-106821312D01*
X141581180Y-106785002D01*
X141691494Y-106726037D01*
X141788185Y-106646685D01*
X141867537Y-106549994D01*
X141926502Y-106439680D01*
X141962812Y-106319982D01*
X141975072Y-106195500D01*
X141972000Y-105768750D01*
X141813250Y-105610000D01*
X140589000Y-105610000D01*
X140335000Y-105610000D01*
X139110750Y-105610000D01*
X138952000Y-105768750D01*
X138948928Y-106195500D01*
X122111655Y-106195500D01*
X122146008Y-106082254D01*
X122163072Y-105909000D01*
X122163072Y-104984000D01*
X122146008Y-104810746D01*
X122095472Y-104644150D01*
X122043010Y-104546000D01*
X127742620Y-104546000D01*
X128288388Y-105091769D01*
X128309052Y-105116948D01*
X128334231Y-105137612D01*
X128334233Y-105137614D01*
X128406900Y-105197250D01*
X128409550Y-105199425D01*
X128524207Y-105260710D01*
X128648617Y-105298450D01*
X128745581Y-105308000D01*
X128745588Y-105308000D01*
X128778000Y-105311192D01*
X128810412Y-105308000D01*
X132301591Y-105308000D01*
X132334000Y-105311192D01*
X132366409Y-105308000D01*
X132366419Y-105308000D01*
X132463383Y-105298450D01*
X132587793Y-105260710D01*
X132702450Y-105199425D01*
X132802948Y-105116948D01*
X132823616Y-105091764D01*
X133369381Y-104546000D01*
X138991528Y-104546000D01*
X138961188Y-104646018D01*
X138948928Y-104770500D01*
X138952000Y-105197250D01*
X139110750Y-105356000D01*
X140335000Y-105356000D01*
X140335000Y-105336000D01*
X140589000Y-105336000D01*
X140589000Y-105356000D01*
X141813250Y-105356000D01*
X141972000Y-105197250D01*
X141975072Y-104770500D01*
X141962812Y-104646018D01*
X141932472Y-104546000D01*
X145446091Y-104546000D01*
X145478500Y-104549192D01*
X145510909Y-104546000D01*
X145510919Y-104546000D01*
X145607883Y-104536450D01*
X145732293Y-104498710D01*
X145846950Y-104437425D01*
X145947448Y-104354948D01*
X145968116Y-104329764D01*
X147192269Y-103105612D01*
X147217448Y-103084948D01*
X147238111Y-103059770D01*
X147238114Y-103059767D01*
X147299925Y-102984451D01*
X147361209Y-102869793D01*
X147361210Y-102869792D01*
X147398950Y-102745382D01*
X147408500Y-102648418D01*
X147408500Y-102648410D01*
X147411692Y-102616001D01*
X147408500Y-102583592D01*
X147408500Y-98704000D01*
X148303581Y-98704000D01*
X148336000Y-98707193D01*
X148368419Y-98704000D01*
X148465383Y-98694450D01*
X148589793Y-98656710D01*
X148704450Y-98595425D01*
X148804948Y-98512948D01*
X148887425Y-98412450D01*
X148948710Y-98297793D01*
X148986450Y-98173383D01*
X148999193Y-98044000D01*
X148996000Y-98011581D01*
X148996000Y-97345500D01*
X150466807Y-97345500D01*
X150470000Y-97377918D01*
X150470001Y-100805571D01*
X150466807Y-100838000D01*
X150479550Y-100967383D01*
X150517290Y-101091793D01*
X150578575Y-101206450D01*
X150661052Y-101306948D01*
X150761550Y-101389425D01*
X150876207Y-101450710D01*
X151000617Y-101488450D01*
X151097581Y-101498000D01*
X151130000Y-101501193D01*
X151162419Y-101498000D01*
X151740000Y-101498000D01*
X151740001Y-102583581D01*
X151736808Y-102616000D01*
X151740001Y-102648418D01*
X151740001Y-102648419D01*
X151749551Y-102745383D01*
X151760999Y-102783122D01*
X151787290Y-102869792D01*
X151848575Y-102984450D01*
X151910386Y-103059766D01*
X151910387Y-103059767D01*
X151931053Y-103084948D01*
X151956232Y-103105612D01*
X153180386Y-104329767D01*
X153201052Y-104354948D01*
X153226231Y-104375612D01*
X153226233Y-104375614D01*
X153301549Y-104437425D01*
X153341487Y-104458772D01*
X153416207Y-104498710D01*
X153540617Y-104536450D01*
X153637581Y-104546000D01*
X153637590Y-104546000D01*
X153669999Y-104549192D01*
X153702408Y-104546000D01*
X158880990Y-104546000D01*
X158828528Y-104644150D01*
X158777992Y-104810746D01*
X158760928Y-104984000D01*
X158760928Y-105909000D01*
X158777992Y-106082254D01*
X158828528Y-106248850D01*
X158910595Y-106402386D01*
X159021038Y-106536962D01*
X159155614Y-106647405D01*
X159309150Y-106729472D01*
X159475746Y-106780008D01*
X159649000Y-106797072D01*
X160899000Y-106797072D01*
X161072254Y-106780008D01*
X161238850Y-106729472D01*
X161392386Y-106647405D01*
X161526962Y-106536962D01*
X161637405Y-106402386D01*
X161719472Y-106248850D01*
X161746727Y-106159000D01*
X178572928Y-106159000D01*
X178585188Y-106283482D01*
X178621498Y-106403180D01*
X178680463Y-106513494D01*
X178759815Y-106610185D01*
X178856506Y-106689537D01*
X178966820Y-106748502D01*
X179086518Y-106784812D01*
X179211000Y-106797072D01*
X179800250Y-106794000D01*
X179959000Y-106635250D01*
X179959000Y-105573500D01*
X180213000Y-105573500D01*
X180213000Y-106635250D01*
X180371750Y-106794000D01*
X180961000Y-106797072D01*
X181085482Y-106784812D01*
X181205180Y-106748502D01*
X181315494Y-106689537D01*
X181412185Y-106610185D01*
X181491537Y-106513494D01*
X181550502Y-106403180D01*
X181586812Y-106283482D01*
X181599072Y-106159000D01*
X181596000Y-105732250D01*
X181437250Y-105573500D01*
X180213000Y-105573500D01*
X179959000Y-105573500D01*
X178734750Y-105573500D01*
X178576000Y-105732250D01*
X178572928Y-106159000D01*
X161746727Y-106159000D01*
X161770008Y-106082254D01*
X161787072Y-105909000D01*
X161787072Y-104984000D01*
X161770008Y-104810746D01*
X161719472Y-104644150D01*
X161667010Y-104546000D01*
X167366620Y-104546000D01*
X167912388Y-105091769D01*
X167933052Y-105116948D01*
X167958231Y-105137612D01*
X167958233Y-105137614D01*
X168030900Y-105197250D01*
X168033550Y-105199425D01*
X168148207Y-105260710D01*
X168272617Y-105298450D01*
X168369581Y-105308000D01*
X168369588Y-105308000D01*
X168402000Y-105311192D01*
X168434412Y-105308000D01*
X171925591Y-105308000D01*
X171958000Y-105311192D01*
X171990409Y-105308000D01*
X171990419Y-105308000D01*
X172087383Y-105298450D01*
X172211793Y-105260710D01*
X172326450Y-105199425D01*
X172426948Y-105116948D01*
X172447616Y-105091764D01*
X172993381Y-104546000D01*
X178604456Y-104546000D01*
X178585188Y-104609518D01*
X178572928Y-104734000D01*
X178576000Y-105160750D01*
X178734750Y-105319500D01*
X179959000Y-105319500D01*
X179959000Y-105299500D01*
X180213000Y-105299500D01*
X180213000Y-105319500D01*
X181437250Y-105319500D01*
X181596000Y-105160750D01*
X181599072Y-104734000D01*
X181586812Y-104609518D01*
X181567544Y-104546000D01*
X187419591Y-104546000D01*
X187452000Y-104549192D01*
X187484409Y-104546000D01*
X187484419Y-104546000D01*
X187581383Y-104536450D01*
X187705793Y-104498710D01*
X187820450Y-104437425D01*
X187920948Y-104354948D01*
X187941616Y-104329764D01*
X189165770Y-103105611D01*
X189190948Y-103084948D01*
X189211614Y-103059767D01*
X189273425Y-102984451D01*
X189307366Y-102920950D01*
X189334710Y-102869793D01*
X189372450Y-102745383D01*
X189382000Y-102648419D01*
X189382000Y-102648410D01*
X189385192Y-102616001D01*
X189382000Y-102583592D01*
X189382000Y-91472408D01*
X189385192Y-91439999D01*
X189382000Y-91407590D01*
X189382000Y-91407581D01*
X189372450Y-91310617D01*
X189334710Y-91186207D01*
X189273426Y-91071551D01*
X189273425Y-91071549D01*
X189211614Y-90996233D01*
X189211612Y-90996231D01*
X189190948Y-90971052D01*
X189165769Y-90950388D01*
X187941616Y-89726236D01*
X187920948Y-89701052D01*
X187820450Y-89618575D01*
X187705793Y-89557290D01*
X187581383Y-89519550D01*
X187484419Y-89510000D01*
X187484409Y-89510000D01*
X187452000Y-89506808D01*
X187419591Y-89510000D01*
X181390633Y-89510000D01*
X181449405Y-89438386D01*
X181531472Y-89284850D01*
X181582008Y-89118254D01*
X181599072Y-88945000D01*
X181599072Y-88020000D01*
X181582008Y-87846746D01*
X181531472Y-87680150D01*
X181449405Y-87526614D01*
X181338962Y-87392038D01*
X181204386Y-87281595D01*
X181050850Y-87199528D01*
X180884254Y-87148992D01*
X180711000Y-87131928D01*
X179461000Y-87131928D01*
X179287746Y-87148992D01*
X179121150Y-87199528D01*
X178967614Y-87281595D01*
X178833038Y-87392038D01*
X178722595Y-87526614D01*
X178640528Y-87680150D01*
X178589992Y-87846746D01*
X178572928Y-88020000D01*
X178572928Y-88945000D01*
X178589992Y-89118254D01*
X178640528Y-89284850D01*
X178722595Y-89438386D01*
X178781367Y-89510000D01*
X176237207Y-89510000D01*
X174076699Y-87933413D01*
X174040950Y-87904075D01*
X173995646Y-87879860D01*
X173951405Y-87853806D01*
X173938425Y-87849275D01*
X173926293Y-87842790D01*
X173877125Y-87827875D01*
X173828661Y-87810956D01*
X173815051Y-87809044D01*
X173801883Y-87805050D01*
X173750761Y-87800015D01*
X173699917Y-87792874D01*
X173653756Y-87795500D01*
X166706243Y-87795500D01*
X166660082Y-87792874D01*
X166609236Y-87800015D01*
X166558117Y-87805050D01*
X166544950Y-87809044D01*
X166531338Y-87810956D01*
X166482859Y-87827880D01*
X166433707Y-87842790D01*
X166421582Y-87849271D01*
X166408594Y-87853805D01*
X166364335Y-87879870D01*
X166319050Y-87904075D01*
X166283309Y-87933407D01*
X164122793Y-89510000D01*
X161628544Y-89510000D01*
X161647812Y-89446482D01*
X161660072Y-89322000D01*
X161657000Y-88895250D01*
X161498250Y-88736500D01*
X160274000Y-88736500D01*
X160274000Y-88756500D01*
X160020000Y-88756500D01*
X160020000Y-88736500D01*
X158795750Y-88736500D01*
X158637000Y-88895250D01*
X158633928Y-89322000D01*
X158646188Y-89446482D01*
X158665456Y-89510000D01*
X154527908Y-89510000D01*
X154495499Y-89506808D01*
X154463090Y-89510000D01*
X154463081Y-89510000D01*
X154366117Y-89519550D01*
X154241707Y-89557290D01*
X154166987Y-89597228D01*
X154127049Y-89618575D01*
X154051733Y-89680386D01*
X154026552Y-89701052D01*
X154005888Y-89726231D01*
X152781732Y-90950388D01*
X152756553Y-90971052D01*
X152735889Y-90996231D01*
X152735886Y-90996234D01*
X152674075Y-91071550D01*
X152612790Y-91186208D01*
X152586499Y-91272878D01*
X152575052Y-91310616D01*
X152575051Y-91310618D01*
X152562308Y-91440000D01*
X152565501Y-91472419D01*
X152565500Y-96685500D01*
X151162419Y-96685500D01*
X151130000Y-96682307D01*
X151097581Y-96685500D01*
X151000617Y-96695050D01*
X150876207Y-96732790D01*
X150761550Y-96794075D01*
X150661052Y-96876552D01*
X150578575Y-96977050D01*
X150517290Y-97091707D01*
X150479550Y-97216117D01*
X150466807Y-97345500D01*
X148996000Y-97345500D01*
X148996000Y-91472408D01*
X148999192Y-91439999D01*
X148996000Y-91407590D01*
X148996000Y-91407581D01*
X148986450Y-91310617D01*
X148948710Y-91186207D01*
X148887426Y-91071551D01*
X148887425Y-91071549D01*
X148825614Y-90996233D01*
X148825612Y-90996231D01*
X148804948Y-90971052D01*
X148779769Y-90950388D01*
X147555616Y-89726236D01*
X147534948Y-89701052D01*
X147434450Y-89618575D01*
X147319793Y-89557290D01*
X147195383Y-89519550D01*
X147098419Y-89510000D01*
X147098409Y-89510000D01*
X147066000Y-89506808D01*
X147033591Y-89510000D01*
X141728010Y-89510000D01*
X141780472Y-89411850D01*
X141831008Y-89245254D01*
X141848072Y-89072000D01*
X141848072Y-88147000D01*
X141831008Y-87973746D01*
X141807728Y-87897000D01*
X158633928Y-87897000D01*
X158637000Y-88323750D01*
X158795750Y-88482500D01*
X160020000Y-88482500D01*
X160020000Y-87420750D01*
X160274000Y-87420750D01*
X160274000Y-88482500D01*
X161498250Y-88482500D01*
X161657000Y-88323750D01*
X161660072Y-87897000D01*
X161647812Y-87772518D01*
X161611502Y-87652820D01*
X161552537Y-87542506D01*
X161473185Y-87445815D01*
X161376494Y-87366463D01*
X161266180Y-87307498D01*
X161146482Y-87271188D01*
X161022000Y-87258928D01*
X160432750Y-87262000D01*
X160274000Y-87420750D01*
X160020000Y-87420750D01*
X159861250Y-87262000D01*
X159272000Y-87258928D01*
X159147518Y-87271188D01*
X159027820Y-87307498D01*
X158917506Y-87366463D01*
X158820815Y-87445815D01*
X158741463Y-87542506D01*
X158682498Y-87652820D01*
X158646188Y-87772518D01*
X158633928Y-87897000D01*
X141807728Y-87897000D01*
X141780472Y-87807150D01*
X141698405Y-87653614D01*
X141587962Y-87519038D01*
X141453386Y-87408595D01*
X141299850Y-87326528D01*
X141133254Y-87275992D01*
X140960000Y-87258928D01*
X139710000Y-87258928D01*
X139536746Y-87275992D01*
X139370150Y-87326528D01*
X139216614Y-87408595D01*
X139082038Y-87519038D01*
X138971595Y-87653614D01*
X138889528Y-87807150D01*
X138838992Y-87973746D01*
X138821928Y-88147000D01*
X138821928Y-89072000D01*
X138838992Y-89245254D01*
X138889528Y-89411850D01*
X138941990Y-89510000D01*
X136613207Y-89510000D01*
X134452699Y-87933413D01*
X134416950Y-87904075D01*
X134371646Y-87879860D01*
X134327405Y-87853806D01*
X134314425Y-87849275D01*
X134302293Y-87842790D01*
X134253125Y-87827875D01*
X134204661Y-87810956D01*
X134191051Y-87809044D01*
X134177883Y-87805050D01*
X134126761Y-87800015D01*
X134075917Y-87792874D01*
X134029756Y-87795500D01*
X127082243Y-87795500D01*
X127036082Y-87792874D01*
X126985236Y-87800015D01*
X126934117Y-87805050D01*
X126920950Y-87809044D01*
X126907338Y-87810956D01*
X126858859Y-87827880D01*
X126809707Y-87842790D01*
X126797582Y-87849271D01*
X126784594Y-87853805D01*
X126740335Y-87879870D01*
X126695050Y-87904075D01*
X126659309Y-87933407D01*
X124498793Y-89510000D01*
X122131544Y-89510000D01*
X122150812Y-89446482D01*
X122163072Y-89322000D01*
X122160000Y-88895250D01*
X122001250Y-88736500D01*
X120777000Y-88736500D01*
X120777000Y-88756500D01*
X120523000Y-88756500D01*
X120523000Y-88736500D01*
X119298750Y-88736500D01*
X119140000Y-88895250D01*
X119136928Y-89322000D01*
X119149188Y-89446482D01*
X119168456Y-89510000D01*
X112046408Y-89510000D01*
X112013999Y-89506808D01*
X111981590Y-89510000D01*
X111981581Y-89510000D01*
X111884617Y-89519550D01*
X111760207Y-89557290D01*
X111685487Y-89597228D01*
X111645549Y-89618575D01*
X111570233Y-89680386D01*
X111545052Y-89701052D01*
X111524388Y-89726231D01*
X110300236Y-90950384D01*
X110275052Y-90971052D01*
X110254387Y-90996233D01*
X110254386Y-90996234D01*
X110192575Y-91071550D01*
X110131291Y-91186207D01*
X110131290Y-91186208D01*
X110093550Y-91310618D01*
X110084000Y-91407582D01*
X110084000Y-91407591D01*
X110080808Y-91440000D01*
X104165000Y-91440000D01*
X104165000Y-87897000D01*
X119136928Y-87897000D01*
X119140000Y-88323750D01*
X119298750Y-88482500D01*
X120523000Y-88482500D01*
X120523000Y-87420750D01*
X120777000Y-87420750D01*
X120777000Y-88482500D01*
X122001250Y-88482500D01*
X122160000Y-88323750D01*
X122163072Y-87897000D01*
X122150812Y-87772518D01*
X122114502Y-87652820D01*
X122055537Y-87542506D01*
X121976185Y-87445815D01*
X121879494Y-87366463D01*
X121769180Y-87307498D01*
X121649482Y-87271188D01*
X121525000Y-87258928D01*
X120935750Y-87262000D01*
X120777000Y-87420750D01*
X120523000Y-87420750D01*
X120364250Y-87262000D01*
X119775000Y-87258928D01*
X119650518Y-87271188D01*
X119530820Y-87307498D01*
X119420506Y-87366463D01*
X119323815Y-87445815D01*
X119244463Y-87542506D01*
X119185498Y-87652820D01*
X119149188Y-87772518D01*
X119136928Y-87897000D01*
X104165000Y-87897000D01*
X104165000Y-68085000D01*
X117358928Y-68085000D01*
X117362000Y-68511750D01*
X117520750Y-68670500D01*
X118745000Y-68670500D01*
X118745000Y-67608750D01*
X118999000Y-67608750D01*
X118999000Y-68670500D01*
X120223250Y-68670500D01*
X120382000Y-68511750D01*
X120385072Y-68085000D01*
X120372812Y-67960518D01*
X120336502Y-67840820D01*
X120277537Y-67730506D01*
X120198185Y-67633815D01*
X120101494Y-67554463D01*
X119991180Y-67495498D01*
X119871482Y-67459188D01*
X119747000Y-67446928D01*
X119157750Y-67450000D01*
X118999000Y-67608750D01*
X118745000Y-67608750D01*
X118586250Y-67450000D01*
X117997000Y-67446928D01*
X117872518Y-67459188D01*
X117752820Y-67495498D01*
X117642506Y-67554463D01*
X117545815Y-67633815D01*
X117466463Y-67730506D01*
X117407498Y-67840820D01*
X117371188Y-67960518D01*
X117358928Y-68085000D01*
X104165000Y-68085000D01*
X104165000Y-46619000D01*
X109429928Y-46619000D01*
X109429928Y-47869000D01*
X109446992Y-48042254D01*
X109497528Y-48208850D01*
X109579595Y-48362386D01*
X109690038Y-48496962D01*
X109824614Y-48607405D01*
X109978150Y-48689472D01*
X110144746Y-48740008D01*
X110318000Y-48757072D01*
X111243000Y-48757072D01*
X111416254Y-48740008D01*
X111582850Y-48689472D01*
X111736386Y-48607405D01*
X111870962Y-48496962D01*
X111981405Y-48362386D01*
X112063472Y-48208850D01*
X112114008Y-48042254D01*
X112131072Y-47869000D01*
X112131072Y-46619000D01*
X112114008Y-46445746D01*
X112063472Y-46279150D01*
X111981405Y-46125614D01*
X111870962Y-45991038D01*
X111736386Y-45880595D01*
X111582850Y-45798528D01*
X111416254Y-45747992D01*
X111243000Y-45730928D01*
X110318000Y-45730928D01*
X110144746Y-45747992D01*
X109978150Y-45798528D01*
X109824614Y-45880595D01*
X109690038Y-45991038D01*
X109579595Y-46125614D01*
X109497528Y-46279150D01*
X109446992Y-46445746D01*
X109429928Y-46619000D01*
X104165000Y-46619000D01*
X104165000Y-42062000D01*
X104449104Y-42062000D01*
X104362815Y-42132815D01*
X104283463Y-42229506D01*
X104224498Y-42339820D01*
X104188188Y-42459518D01*
X104175928Y-42584000D01*
X104175928Y-44284000D01*
X104188188Y-44408482D01*
X104224498Y-44528180D01*
X104283463Y-44638494D01*
X104362815Y-44735185D01*
X104459506Y-44814537D01*
X104569820Y-44873502D01*
X104689518Y-44909812D01*
X104814000Y-44922072D01*
X106514000Y-44922072D01*
X106638482Y-44909812D01*
X106758180Y-44873502D01*
X106868494Y-44814537D01*
X106965185Y-44735185D01*
X107044537Y-44638494D01*
X107103502Y-44528180D01*
X107125513Y-44455620D01*
X107257368Y-44587475D01*
X107500589Y-44749990D01*
X107770842Y-44861932D01*
X108057740Y-44919000D01*
X108350260Y-44919000D01*
X108637158Y-44861932D01*
X108907411Y-44749990D01*
X109150632Y-44587475D01*
X109357475Y-44380632D01*
X109479195Y-44198466D01*
X109548822Y-44315355D01*
X109743731Y-44531588D01*
X109977080Y-44705641D01*
X110239901Y-44830825D01*
X110387110Y-44875476D01*
X110617000Y-44754155D01*
X110617000Y-43561000D01*
X110597000Y-43561000D01*
X110597000Y-43307000D01*
X110617000Y-43307000D01*
X110617000Y-43287000D01*
X110871000Y-43287000D01*
X110871000Y-43307000D01*
X110891000Y-43307000D01*
X110891000Y-43561000D01*
X110871000Y-43561000D01*
X110871000Y-44754155D01*
X111100890Y-44875476D01*
X111248099Y-44830825D01*
X111510920Y-44705641D01*
X111744269Y-44531588D01*
X111939178Y-44315355D01*
X112042507Y-44141888D01*
X112794388Y-44893769D01*
X112815052Y-44918948D01*
X112840231Y-44939612D01*
X112840233Y-44939614D01*
X112915549Y-45001425D01*
X112955487Y-45022772D01*
X113030207Y-45062710D01*
X113154617Y-45100450D01*
X113251581Y-45110000D01*
X113251590Y-45110000D01*
X113283999Y-45113192D01*
X113316408Y-45110000D01*
X117605990Y-45110000D01*
X117553528Y-45208150D01*
X117502992Y-45374746D01*
X117485928Y-45548000D01*
X117485928Y-46473000D01*
X117492675Y-46541500D01*
X115098439Y-46541500D01*
X115089008Y-46445746D01*
X115038472Y-46279150D01*
X114956405Y-46125614D01*
X114845962Y-45991038D01*
X114711386Y-45880595D01*
X114557850Y-45798528D01*
X114391254Y-45747992D01*
X114218000Y-45730928D01*
X113293000Y-45730928D01*
X113119746Y-45747992D01*
X112953150Y-45798528D01*
X112799614Y-45880595D01*
X112665038Y-45991038D01*
X112554595Y-46125614D01*
X112472528Y-46279150D01*
X112421992Y-46445746D01*
X112404928Y-46619000D01*
X112404928Y-47869000D01*
X112421992Y-48042254D01*
X112472528Y-48208850D01*
X112554595Y-48362386D01*
X112665038Y-48496962D01*
X112799614Y-48607405D01*
X112953150Y-48689472D01*
X113119746Y-48740008D01*
X113293000Y-48757072D01*
X114218000Y-48757072D01*
X114391254Y-48740008D01*
X114557850Y-48689472D01*
X114711386Y-48607405D01*
X114845962Y-48496962D01*
X114956405Y-48362386D01*
X115038472Y-48208850D01*
X115089008Y-48042254D01*
X115098439Y-47946500D01*
X117578500Y-47946500D01*
X117534498Y-48028820D01*
X117498188Y-48148518D01*
X117485928Y-48273000D01*
X117489000Y-48699750D01*
X117647750Y-48858500D01*
X118872000Y-48858500D01*
X118872000Y-48838500D01*
X119126000Y-48838500D01*
X119126000Y-48858500D01*
X120350250Y-48858500D01*
X120509000Y-48699750D01*
X120512072Y-48273000D01*
X120499812Y-48148518D01*
X120463502Y-48028820D01*
X120404537Y-47918506D01*
X120382219Y-47891311D01*
X120495176Y-47830934D01*
X120602146Y-47743146D01*
X120624150Y-47716334D01*
X121507485Y-46833000D01*
X121541089Y-46833000D01*
X121721729Y-46797068D01*
X121891889Y-46726586D01*
X122045028Y-46624262D01*
X122175262Y-46494028D01*
X122276000Y-46343262D01*
X122276001Y-49886000D01*
X120480544Y-49886000D01*
X120499812Y-49822482D01*
X120512072Y-49698000D01*
X120509000Y-49271250D01*
X120350250Y-49112500D01*
X119126000Y-49112500D01*
X119126000Y-49132500D01*
X118872000Y-49132500D01*
X118872000Y-49112500D01*
X117647750Y-49112500D01*
X117489000Y-49271250D01*
X117485928Y-49698000D01*
X117498188Y-49822482D01*
X117517456Y-49886000D01*
X115081381Y-49886000D01*
X114535616Y-49340236D01*
X114514948Y-49315052D01*
X114414450Y-49232575D01*
X114299793Y-49171290D01*
X114175383Y-49133550D01*
X114078419Y-49124000D01*
X114078409Y-49124000D01*
X114046000Y-49120808D01*
X114013591Y-49124000D01*
X111284408Y-49124000D01*
X111251999Y-49120808D01*
X111219590Y-49124000D01*
X111219581Y-49124000D01*
X111122617Y-49133550D01*
X110998207Y-49171290D01*
X110883550Y-49232575D01*
X110783052Y-49315052D01*
X110762388Y-49340231D01*
X110300236Y-49802384D01*
X110275052Y-49823052D01*
X110254386Y-49848234D01*
X110192575Y-49923550D01*
X110154612Y-49994575D01*
X110131290Y-50038208D01*
X110093550Y-50162618D01*
X110084000Y-50259582D01*
X110084000Y-50259591D01*
X110080808Y-50292000D01*
X110084000Y-50324409D01*
X110084001Y-56368618D01*
X109030236Y-57422384D01*
X109005052Y-57443052D01*
X108984386Y-57468234D01*
X108922575Y-57543550D01*
X108861291Y-57658207D01*
X108861290Y-57658208D01*
X108823550Y-57782618D01*
X108814000Y-57879582D01*
X108814000Y-57879591D01*
X108810808Y-57912000D01*
X108814000Y-57944409D01*
X108814001Y-60927581D01*
X108810808Y-60960000D01*
X108823551Y-61089382D01*
X108861290Y-61213792D01*
X108922575Y-61328450D01*
X108984386Y-61403766D01*
X108984389Y-61403769D01*
X109005053Y-61428948D01*
X109030232Y-61449612D01*
X110084000Y-62503381D01*
X110084000Y-62959591D01*
X110080808Y-62992000D01*
X110084000Y-63024409D01*
X110084000Y-63024419D01*
X110093550Y-63121383D01*
X110118145Y-63202457D01*
X110131290Y-63245792D01*
X110192575Y-63360450D01*
X110254386Y-63435766D01*
X110254387Y-63435767D01*
X110275053Y-63460948D01*
X110300232Y-63481612D01*
X111524388Y-64705769D01*
X111545052Y-64730948D01*
X111570231Y-64751612D01*
X111570233Y-64751614D01*
X111645549Y-64813425D01*
X111685487Y-64834772D01*
X111760207Y-64874710D01*
X111884617Y-64912450D01*
X111981581Y-64922000D01*
X111981590Y-64922000D01*
X112013999Y-64925192D01*
X112046408Y-64922000D01*
X117478990Y-64922000D01*
X117426528Y-65020150D01*
X117375992Y-65186746D01*
X117358928Y-65360000D01*
X117358928Y-66285000D01*
X117375992Y-66458254D01*
X117426528Y-66624850D01*
X117508595Y-66778386D01*
X117619038Y-66912962D01*
X117753614Y-67023405D01*
X117907150Y-67105472D01*
X118073746Y-67156008D01*
X118247000Y-67173072D01*
X119497000Y-67173072D01*
X119670254Y-67156008D01*
X119836850Y-67105472D01*
X119990386Y-67023405D01*
X120124962Y-66912962D01*
X120235405Y-66778386D01*
X120317472Y-66624850D01*
X120368008Y-66458254D01*
X120385072Y-66285000D01*
X120385072Y-65360000D01*
X120368008Y-65186746D01*
X120317472Y-65020150D01*
X120265010Y-64922000D01*
X122276000Y-64922000D01*
X122276001Y-69698000D01*
X120353544Y-69698000D01*
X120372812Y-69634482D01*
X120385072Y-69510000D01*
X120382000Y-69083250D01*
X120223250Y-68924500D01*
X118999000Y-68924500D01*
X118999000Y-68944500D01*
X118745000Y-68944500D01*
X118745000Y-68924500D01*
X117520750Y-68924500D01*
X117362000Y-69083250D01*
X117358928Y-69510000D01*
X117371188Y-69634482D01*
X117390456Y-69698000D01*
X112046408Y-69698000D01*
X112013999Y-69694808D01*
X111981590Y-69698000D01*
X111981581Y-69698000D01*
X111884617Y-69707550D01*
X111760207Y-69745290D01*
X111685487Y-69785228D01*
X111645549Y-69806575D01*
X111570233Y-69868386D01*
X111545052Y-69889052D01*
X111524388Y-69914231D01*
X110300236Y-71138384D01*
X110275052Y-71159052D01*
X110254387Y-71184233D01*
X110254386Y-71184234D01*
X110192575Y-71259550D01*
X110131291Y-71374207D01*
X110131290Y-71374208D01*
X110093550Y-71498618D01*
X110084000Y-71595582D01*
X110084000Y-71595591D01*
X110080808Y-71628000D01*
X110084000Y-71660409D01*
X110084001Y-82771581D01*
X110080808Y-82804000D01*
X110084001Y-82836418D01*
X110084001Y-82836419D01*
X110093551Y-82933383D01*
X110104999Y-82971122D01*
X110131290Y-83057792D01*
X110192575Y-83172450D01*
X110254386Y-83247766D01*
X110254387Y-83247767D01*
X110275053Y-83272948D01*
X110300232Y-83293612D01*
X111524388Y-84517769D01*
X111545052Y-84542948D01*
X111570231Y-84563612D01*
X111570233Y-84563614D01*
X111645549Y-84625425D01*
X111685487Y-84646772D01*
X111760207Y-84686710D01*
X111884617Y-84724450D01*
X111981581Y-84734000D01*
X111981590Y-84734000D01*
X112013999Y-84737192D01*
X112046408Y-84734000D01*
X119256990Y-84734000D01*
X119204528Y-84832150D01*
X119153992Y-84998746D01*
X119136928Y-85172000D01*
X119136928Y-86097000D01*
X119153992Y-86270254D01*
X119204528Y-86436850D01*
X119286595Y-86590386D01*
X119397038Y-86724962D01*
X119531614Y-86835405D01*
X119685150Y-86917472D01*
X119851746Y-86968008D01*
X120025000Y-86985072D01*
X121275000Y-86985072D01*
X121448254Y-86968008D01*
X121614850Y-86917472D01*
X121768386Y-86835405D01*
X121902962Y-86724962D01*
X122013405Y-86590386D01*
X122095472Y-86436850D01*
X122122727Y-86347000D01*
X138821928Y-86347000D01*
X138834188Y-86471482D01*
X138870498Y-86591180D01*
X138929463Y-86701494D01*
X139008815Y-86798185D01*
X139105506Y-86877537D01*
X139215820Y-86936502D01*
X139335518Y-86972812D01*
X139460000Y-86985072D01*
X140049250Y-86982000D01*
X140208000Y-86823250D01*
X140208000Y-85761500D01*
X140462000Y-85761500D01*
X140462000Y-86823250D01*
X140620750Y-86982000D01*
X141210000Y-86985072D01*
X141334482Y-86972812D01*
X141454180Y-86936502D01*
X141564494Y-86877537D01*
X141661185Y-86798185D01*
X141740537Y-86701494D01*
X141799502Y-86591180D01*
X141835812Y-86471482D01*
X141848072Y-86347000D01*
X141845000Y-85920250D01*
X141686250Y-85761500D01*
X140462000Y-85761500D01*
X140208000Y-85761500D01*
X138983750Y-85761500D01*
X138825000Y-85920250D01*
X138821928Y-86347000D01*
X122122727Y-86347000D01*
X122146008Y-86270254D01*
X122163072Y-86097000D01*
X122163072Y-85172000D01*
X122146008Y-84998746D01*
X122095472Y-84832150D01*
X122043010Y-84734000D01*
X124651504Y-84734000D01*
X124653958Y-84734469D01*
X124716365Y-84734000D01*
X124746419Y-84734000D01*
X124748902Y-84733755D01*
X124783962Y-84733492D01*
X124813428Y-84727400D01*
X124843383Y-84724450D01*
X124876945Y-84714269D01*
X124911278Y-84707171D01*
X124938992Y-84695447D01*
X124967793Y-84686710D01*
X124998720Y-84670179D01*
X125031013Y-84656518D01*
X125055906Y-84639613D01*
X125082450Y-84625425D01*
X125109560Y-84603176D01*
X125111616Y-84601780D01*
X125134623Y-84582608D01*
X125182948Y-84542948D01*
X125184535Y-84541014D01*
X127619952Y-82511500D01*
X133492049Y-82511500D01*
X135927467Y-84541017D01*
X135929052Y-84542948D01*
X135977313Y-84582555D01*
X136000383Y-84601780D01*
X136002445Y-84603180D01*
X136029550Y-84625425D01*
X136056089Y-84639610D01*
X136080986Y-84656518D01*
X136113284Y-84670181D01*
X136144207Y-84686710D01*
X136173005Y-84695446D01*
X136200721Y-84707171D01*
X136235057Y-84714270D01*
X136268617Y-84724450D01*
X136298570Y-84727400D01*
X136328037Y-84733492D01*
X136363098Y-84733755D01*
X136365581Y-84734000D01*
X136395634Y-84734000D01*
X136458042Y-84734469D01*
X136460496Y-84734000D01*
X138853456Y-84734000D01*
X138834188Y-84797518D01*
X138821928Y-84922000D01*
X138825000Y-85348750D01*
X138983750Y-85507500D01*
X140208000Y-85507500D01*
X140208000Y-85487500D01*
X140462000Y-85487500D01*
X140462000Y-85507500D01*
X141686250Y-85507500D01*
X141845000Y-85348750D01*
X141848072Y-84922000D01*
X141835812Y-84797518D01*
X141816544Y-84734000D01*
X158753990Y-84734000D01*
X158701528Y-84832150D01*
X158650992Y-84998746D01*
X158633928Y-85172000D01*
X158633928Y-86097000D01*
X158650992Y-86270254D01*
X158701528Y-86436850D01*
X158783595Y-86590386D01*
X158894038Y-86724962D01*
X159028614Y-86835405D01*
X159182150Y-86917472D01*
X159348746Y-86968008D01*
X159522000Y-86985072D01*
X160772000Y-86985072D01*
X160945254Y-86968008D01*
X161111850Y-86917472D01*
X161265386Y-86835405D01*
X161399962Y-86724962D01*
X161510405Y-86590386D01*
X161592472Y-86436850D01*
X161643008Y-86270254D01*
X161647957Y-86220000D01*
X178572928Y-86220000D01*
X178585188Y-86344482D01*
X178621498Y-86464180D01*
X178680463Y-86574494D01*
X178759815Y-86671185D01*
X178856506Y-86750537D01*
X178966820Y-86809502D01*
X179086518Y-86845812D01*
X179211000Y-86858072D01*
X179800250Y-86855000D01*
X179959000Y-86696250D01*
X179959000Y-85634500D01*
X180213000Y-85634500D01*
X180213000Y-86696250D01*
X180371750Y-86855000D01*
X180961000Y-86858072D01*
X181085482Y-86845812D01*
X181205180Y-86809502D01*
X181315494Y-86750537D01*
X181412185Y-86671185D01*
X181491537Y-86574494D01*
X181550502Y-86464180D01*
X181586812Y-86344482D01*
X181599072Y-86220000D01*
X181596000Y-85793250D01*
X181437250Y-85634500D01*
X180213000Y-85634500D01*
X179959000Y-85634500D01*
X178734750Y-85634500D01*
X178576000Y-85793250D01*
X178572928Y-86220000D01*
X161647957Y-86220000D01*
X161660072Y-86097000D01*
X161660072Y-85172000D01*
X161643008Y-84998746D01*
X161592472Y-84832150D01*
X161540010Y-84734000D01*
X164275504Y-84734000D01*
X164277958Y-84734469D01*
X164340365Y-84734000D01*
X164370419Y-84734000D01*
X164372902Y-84733755D01*
X164407962Y-84733492D01*
X164437428Y-84727400D01*
X164467383Y-84724450D01*
X164500945Y-84714269D01*
X164535278Y-84707171D01*
X164562992Y-84695447D01*
X164591793Y-84686710D01*
X164622720Y-84670179D01*
X164655013Y-84656518D01*
X164679906Y-84639613D01*
X164706450Y-84625425D01*
X164733560Y-84603176D01*
X164735616Y-84601780D01*
X164758623Y-84582608D01*
X164806948Y-84542948D01*
X164808535Y-84541014D01*
X167243952Y-82511500D01*
X173116049Y-82511500D01*
X175551467Y-84541017D01*
X175553052Y-84542948D01*
X175601313Y-84582555D01*
X175624383Y-84601780D01*
X175626445Y-84603180D01*
X175653550Y-84625425D01*
X175680089Y-84639610D01*
X175704986Y-84656518D01*
X175737284Y-84670181D01*
X175768207Y-84686710D01*
X175797005Y-84695446D01*
X175824721Y-84707171D01*
X175859057Y-84714270D01*
X175892617Y-84724450D01*
X175922570Y-84727400D01*
X175952037Y-84733492D01*
X175987098Y-84733755D01*
X175989581Y-84734000D01*
X176019634Y-84734000D01*
X176082042Y-84734469D01*
X176084496Y-84734000D01*
X178578936Y-84734000D01*
X178572928Y-84795000D01*
X178576000Y-85221750D01*
X178734750Y-85380500D01*
X179959000Y-85380500D01*
X179959000Y-85360500D01*
X180213000Y-85360500D01*
X180213000Y-85380500D01*
X181437250Y-85380500D01*
X181596000Y-85221750D01*
X181599072Y-84795000D01*
X181593064Y-84734000D01*
X187419591Y-84734000D01*
X187452000Y-84737192D01*
X187484409Y-84734000D01*
X187484419Y-84734000D01*
X187581383Y-84724450D01*
X187705793Y-84686710D01*
X187820450Y-84625425D01*
X187920948Y-84542948D01*
X187941616Y-84517764D01*
X189165770Y-83293611D01*
X189190948Y-83272948D01*
X189211614Y-83247767D01*
X189273425Y-83172451D01*
X189294772Y-83132513D01*
X189334710Y-83057793D01*
X189372450Y-82933383D01*
X189382000Y-82836419D01*
X189382000Y-82836410D01*
X189385192Y-82804001D01*
X189382000Y-82771592D01*
X189382000Y-71660408D01*
X189385192Y-71627999D01*
X189382000Y-71595590D01*
X189382000Y-71595581D01*
X189372450Y-71498617D01*
X189334710Y-71374207D01*
X189273426Y-71259551D01*
X189273425Y-71259549D01*
X189211614Y-71184233D01*
X189211612Y-71184231D01*
X189190948Y-71159052D01*
X189165769Y-71138388D01*
X187941616Y-69914236D01*
X187920948Y-69889052D01*
X187820450Y-69806575D01*
X187705793Y-69745290D01*
X187581383Y-69707550D01*
X187484419Y-69698000D01*
X187484409Y-69698000D01*
X187452000Y-69694808D01*
X187419591Y-69698000D01*
X183130010Y-69698000D01*
X183182472Y-69599850D01*
X183233008Y-69433254D01*
X183250072Y-69260000D01*
X183250072Y-68335000D01*
X183233008Y-68161746D01*
X183182472Y-67995150D01*
X183100405Y-67841614D01*
X182989962Y-67707038D01*
X182855386Y-67596595D01*
X182701850Y-67514528D01*
X182535254Y-67463992D01*
X182362000Y-67446928D01*
X181112000Y-67446928D01*
X180938746Y-67463992D01*
X180772150Y-67514528D01*
X180618614Y-67596595D01*
X180484038Y-67707038D01*
X180373595Y-67841614D01*
X180291528Y-67995150D01*
X180240992Y-68161746D01*
X180223928Y-68335000D01*
X180223928Y-69260000D01*
X180240992Y-69433254D01*
X180291528Y-69599850D01*
X180343990Y-69698000D01*
X178206000Y-69698000D01*
X178206000Y-66535000D01*
X180223928Y-66535000D01*
X180236188Y-66659482D01*
X180272498Y-66779180D01*
X180331463Y-66889494D01*
X180410815Y-66986185D01*
X180507506Y-67065537D01*
X180617820Y-67124502D01*
X180737518Y-67160812D01*
X180862000Y-67173072D01*
X181451250Y-67170000D01*
X181610000Y-67011250D01*
X181610000Y-65949500D01*
X181864000Y-65949500D01*
X181864000Y-67011250D01*
X182022750Y-67170000D01*
X182612000Y-67173072D01*
X182736482Y-67160812D01*
X182856180Y-67124502D01*
X182966494Y-67065537D01*
X183063185Y-66986185D01*
X183142537Y-66889494D01*
X183201502Y-66779180D01*
X183237812Y-66659482D01*
X183250072Y-66535000D01*
X183247000Y-66108250D01*
X183088250Y-65949500D01*
X181864000Y-65949500D01*
X181610000Y-65949500D01*
X180385750Y-65949500D01*
X180227000Y-66108250D01*
X180223928Y-66535000D01*
X178206000Y-66535000D01*
X178206000Y-64922000D01*
X180255456Y-64922000D01*
X180236188Y-64985518D01*
X180223928Y-65110000D01*
X180227000Y-65536750D01*
X180385750Y-65695500D01*
X181610000Y-65695500D01*
X181610000Y-65675500D01*
X181864000Y-65675500D01*
X181864000Y-65695500D01*
X183088250Y-65695500D01*
X183247000Y-65536750D01*
X183250072Y-65110000D01*
X183237812Y-64985518D01*
X183218544Y-64922000D01*
X187419591Y-64922000D01*
X187452000Y-64925192D01*
X187484409Y-64922000D01*
X187484419Y-64922000D01*
X187581383Y-64912450D01*
X187705793Y-64874710D01*
X187820450Y-64813425D01*
X187920948Y-64730948D01*
X187941616Y-64705764D01*
X189165770Y-63481611D01*
X189190948Y-63460948D01*
X189211614Y-63435767D01*
X189273425Y-63360451D01*
X189294772Y-63320513D01*
X189334710Y-63245793D01*
X189372450Y-63121383D01*
X189382000Y-63024419D01*
X189382000Y-63024410D01*
X189385192Y-62992001D01*
X189382000Y-62959592D01*
X189382000Y-60344380D01*
X190308770Y-59417611D01*
X190333948Y-59396948D01*
X190354614Y-59371767D01*
X190416425Y-59296451D01*
X190477710Y-59181793D01*
X190477710Y-59181792D01*
X190515450Y-59057383D01*
X190525000Y-58960419D01*
X190525000Y-58960410D01*
X190528192Y-58928001D01*
X190525000Y-58895592D01*
X190525000Y-55023408D01*
X190528192Y-54990999D01*
X190525000Y-54958590D01*
X190525000Y-54958581D01*
X190515450Y-54861617D01*
X190477710Y-54737207D01*
X190416425Y-54622550D01*
X190333948Y-54522052D01*
X190308769Y-54501388D01*
X189128000Y-53320620D01*
X189128000Y-51848408D01*
X189131192Y-51815999D01*
X189128000Y-51783590D01*
X189128000Y-51783581D01*
X189118450Y-51686617D01*
X189080710Y-51562207D01*
X189040772Y-51487487D01*
X189019425Y-51447549D01*
X188957614Y-51372233D01*
X188957612Y-51372231D01*
X188936948Y-51347052D01*
X188911769Y-51326388D01*
X187687616Y-50102236D01*
X187666948Y-50077052D01*
X187566450Y-49994575D01*
X187451793Y-49933290D01*
X187327383Y-49895550D01*
X187230419Y-49886000D01*
X187230409Y-49886000D01*
X187198000Y-49882808D01*
X187165591Y-49886000D01*
X183003010Y-49886000D01*
X183055472Y-49787850D01*
X183106008Y-49621254D01*
X183123072Y-49448000D01*
X183123072Y-48523000D01*
X183106008Y-48349746D01*
X183055472Y-48183150D01*
X182973405Y-48029614D01*
X182862962Y-47895038D01*
X182728386Y-47784595D01*
X182574850Y-47702528D01*
X182408254Y-47651992D01*
X182235000Y-47634928D01*
X180985000Y-47634928D01*
X180811746Y-47651992D01*
X180645150Y-47702528D01*
X180491614Y-47784595D01*
X180357038Y-47895038D01*
X180246595Y-48029614D01*
X180164528Y-48183150D01*
X180113992Y-48349746D01*
X180096928Y-48523000D01*
X180096928Y-49448000D01*
X180113992Y-49621254D01*
X180164528Y-49787850D01*
X180216990Y-49886000D01*
X178206000Y-49886000D01*
X178206000Y-46723000D01*
X180096928Y-46723000D01*
X180109188Y-46847482D01*
X180145498Y-46967180D01*
X180204463Y-47077494D01*
X180283815Y-47174185D01*
X180380506Y-47253537D01*
X180490820Y-47312502D01*
X180610518Y-47348812D01*
X180735000Y-47361072D01*
X181324250Y-47358000D01*
X181483000Y-47199250D01*
X181483000Y-46137500D01*
X181737000Y-46137500D01*
X181737000Y-47199250D01*
X181895750Y-47358000D01*
X182485000Y-47361072D01*
X182609482Y-47348812D01*
X182729180Y-47312502D01*
X182839494Y-47253537D01*
X182936185Y-47174185D01*
X183015537Y-47077494D01*
X183074502Y-46967180D01*
X183110812Y-46847482D01*
X183123072Y-46723000D01*
X183120000Y-46296250D01*
X182961250Y-46137500D01*
X181737000Y-46137500D01*
X181483000Y-46137500D01*
X180258750Y-46137500D01*
X180100000Y-46296250D01*
X180096928Y-46723000D01*
X178206000Y-46723000D01*
X178206000Y-45110000D01*
X180128456Y-45110000D01*
X180109188Y-45173518D01*
X180096928Y-45298000D01*
X180100000Y-45724750D01*
X180258750Y-45883500D01*
X181483000Y-45883500D01*
X181483000Y-45863500D01*
X181737000Y-45863500D01*
X181737000Y-45883500D01*
X182961250Y-45883500D01*
X183120000Y-45724750D01*
X183123072Y-45298000D01*
X183110812Y-45173518D01*
X183091544Y-45110000D01*
X187165591Y-45110000D01*
X187198000Y-45113192D01*
X187230409Y-45110000D01*
X187230419Y-45110000D01*
X187327383Y-45100450D01*
X187451793Y-45062710D01*
X187566450Y-45001425D01*
X187666948Y-44918948D01*
X187687616Y-44893764D01*
X188503928Y-44077453D01*
X188503928Y-44284000D01*
X188516188Y-44408482D01*
X188552498Y-44528180D01*
X188611463Y-44638494D01*
X188690815Y-44735185D01*
X188787506Y-44814537D01*
X188897820Y-44873502D01*
X189017518Y-44909812D01*
X189142000Y-44922072D01*
X190842000Y-44922072D01*
X190966482Y-44909812D01*
X191086180Y-44873502D01*
X191196494Y-44814537D01*
X191293185Y-44735185D01*
X191372537Y-44638494D01*
X191431502Y-44528180D01*
X191453513Y-44455620D01*
X191585368Y-44587475D01*
X191828589Y-44749990D01*
X192098842Y-44861932D01*
X192385740Y-44919000D01*
X192678260Y-44919000D01*
X192965158Y-44861932D01*
X193235411Y-44749990D01*
X193478632Y-44587475D01*
X193685475Y-44380632D01*
X193802000Y-44206240D01*
X193918525Y-44380632D01*
X194125368Y-44587475D01*
X194368589Y-44749990D01*
X194638842Y-44861932D01*
X194925740Y-44919000D01*
X195218260Y-44919000D01*
X195505158Y-44861932D01*
X195775411Y-44749990D01*
X196018632Y-44587475D01*
X196225475Y-44380632D01*
X196387990Y-44137411D01*
X196499932Y-43867158D01*
X196557000Y-43580260D01*
X196557000Y-43287740D01*
X196499932Y-43000842D01*
X196387990Y-42730589D01*
X196225475Y-42487368D01*
X196018632Y-42280525D01*
X195775411Y-42118010D01*
X195505158Y-42006068D01*
X195218260Y-41949000D01*
X194925740Y-41949000D01*
X194638842Y-42006068D01*
X194368589Y-42118010D01*
X194125368Y-42280525D01*
X193918525Y-42487368D01*
X193802000Y-42661760D01*
X193685475Y-42487368D01*
X193478632Y-42280525D01*
X193235411Y-42118010D01*
X192965158Y-42006068D01*
X192678260Y-41949000D01*
X192385740Y-41949000D01*
X192098842Y-42006068D01*
X191828589Y-42118010D01*
X191585368Y-42280525D01*
X191453513Y-42412380D01*
X191431502Y-42339820D01*
X191372537Y-42229506D01*
X191293185Y-42132815D01*
X191196494Y-42053463D01*
X191086180Y-41994498D01*
X190966482Y-41958188D01*
X190842000Y-41945928D01*
X189142000Y-41945928D01*
X189128000Y-41947307D01*
X189128000Y-41808000D01*
X196571001Y-41808000D01*
X196571000Y-113457132D01*
G37*
X196571000Y-113457132D02*
X196548885Y-113531792D01*
X196539142Y-113598990D01*
X196465246Y-114373512D01*
X196264893Y-115056454D01*
X195939009Y-115689195D01*
X195499357Y-116248898D01*
X194961805Y-116715363D01*
X194345738Y-117071767D01*
X193673397Y-117305243D01*
X192944576Y-117410916D01*
X192769019Y-117415207D01*
X192637943Y-117430954D01*
X192578442Y-117450000D01*
X108157868Y-117450000D01*
X108083208Y-117427885D01*
X108016010Y-117418142D01*
X107241488Y-117344246D01*
X106558546Y-117143893D01*
X105925805Y-116818009D01*
X105366102Y-116378357D01*
X104899637Y-115840805D01*
X104543233Y-115224738D01*
X104309757Y-114552397D01*
X104204084Y-113823576D01*
X104199793Y-113648019D01*
X104184046Y-113516943D01*
X104165000Y-113457442D01*
X104165000Y-113444872D01*
X105715000Y-113444872D01*
X105715000Y-113885128D01*
X105800890Y-114316925D01*
X105969369Y-114723669D01*
X106213962Y-115089729D01*
X106525271Y-115401038D01*
X106891331Y-115645631D01*
X107298075Y-115814110D01*
X107729872Y-115900000D01*
X108170128Y-115900000D01*
X108601925Y-115814110D01*
X109008669Y-115645631D01*
X109374729Y-115401038D01*
X109686038Y-115089729D01*
X109930631Y-114723669D01*
X110099110Y-114316925D01*
X110185000Y-113885128D01*
X110185000Y-113444872D01*
X190551000Y-113444872D01*
X190551000Y-113885128D01*
X190636890Y-114316925D01*
X190805369Y-114723669D01*
X191049962Y-115089729D01*
X191361271Y-115401038D01*
X191727331Y-115645631D01*
X192134075Y-115814110D01*
X192565872Y-115900000D01*
X193006128Y-115900000D01*
X193437925Y-115814110D01*
X193844669Y-115645631D01*
X194210729Y-115401038D01*
X194522038Y-115089729D01*
X194766631Y-114723669D01*
X194935110Y-114316925D01*
X195021000Y-113885128D01*
X195021000Y-113444872D01*
X194935110Y-113013075D01*
X194766631Y-112606331D01*
X194522038Y-112240271D01*
X194210729Y-111928962D01*
X193844669Y-111684369D01*
X193437925Y-111515890D01*
X193006128Y-111430000D01*
X192565872Y-111430000D01*
X192134075Y-111515890D01*
X191727331Y-111684369D01*
X191361271Y-111928962D01*
X191049962Y-112240271D01*
X190805369Y-112606331D01*
X190636890Y-113013075D01*
X190551000Y-113444872D01*
X110185000Y-113444872D01*
X110099110Y-113013075D01*
X109930631Y-112606331D01*
X109686038Y-112240271D01*
X109374729Y-111928962D01*
X109008669Y-111684369D01*
X108601925Y-111515890D01*
X108170128Y-111430000D01*
X107729872Y-111430000D01*
X107298075Y-111515890D01*
X106891331Y-111684369D01*
X106525271Y-111928962D01*
X106213962Y-112240271D01*
X105969369Y-112606331D01*
X105800890Y-113013075D01*
X105715000Y-113444872D01*
X104165000Y-113444872D01*
X104165000Y-109134000D01*
X119136928Y-109134000D01*
X119149188Y-109258482D01*
X119185498Y-109378180D01*
X119244463Y-109488494D01*
X119323815Y-109585185D01*
X119420506Y-109664537D01*
X119530820Y-109723502D01*
X119650518Y-109759812D01*
X119775000Y-109772072D01*
X120364250Y-109769000D01*
X120523000Y-109610250D01*
X120523000Y-108548500D01*
X120777000Y-108548500D01*
X120777000Y-109610250D01*
X120935750Y-109769000D01*
X121525000Y-109772072D01*
X121649482Y-109759812D01*
X121769180Y-109723502D01*
X121879494Y-109664537D01*
X121976185Y-109585185D01*
X122055537Y-109488494D01*
X122114502Y-109378180D01*
X122150812Y-109258482D01*
X122163072Y-109134000D01*
X122160000Y-108707250D01*
X122001250Y-108548500D01*
X120777000Y-108548500D01*
X120523000Y-108548500D01*
X119298750Y-108548500D01*
X119140000Y-108707250D01*
X119136928Y-109134000D01*
X104165000Y-109134000D01*
X104165000Y-107709000D01*
X119136928Y-107709000D01*
X119140000Y-108135750D01*
X119298750Y-108294500D01*
X120523000Y-108294500D01*
X120523000Y-107232750D01*
X120777000Y-107232750D01*
X120777000Y-108294500D01*
X122001250Y-108294500D01*
X122160000Y-108135750D01*
X122161009Y-107995500D01*
X138948928Y-107995500D01*
X138948928Y-108920500D01*
X138965992Y-109093754D01*
X139016528Y-109260350D01*
X139098595Y-109413886D01*
X139209038Y-109548462D01*
X139343614Y-109658905D01*
X139497150Y-109740972D01*
X139663746Y-109791508D01*
X139837000Y-109808572D01*
X141087000Y-109808572D01*
X141260254Y-109791508D01*
X141426850Y-109740972D01*
X141580386Y-109658905D01*
X141714962Y-109548462D01*
X141825405Y-109413886D01*
X141907472Y-109260350D01*
X141945799Y-109134000D01*
X158760928Y-109134000D01*
X158773188Y-109258482D01*
X158809498Y-109378180D01*
X158868463Y-109488494D01*
X158947815Y-109585185D01*
X159044506Y-109664537D01*
X159154820Y-109723502D01*
X159274518Y-109759812D01*
X159399000Y-109772072D01*
X159988250Y-109769000D01*
X160147000Y-109610250D01*
X160147000Y-108548500D01*
X160401000Y-108548500D01*
X160401000Y-109610250D01*
X160559750Y-109769000D01*
X161149000Y-109772072D01*
X161273482Y-109759812D01*
X161393180Y-109723502D01*
X161503494Y-109664537D01*
X161600185Y-109585185D01*
X161679537Y-109488494D01*
X161738502Y-109378180D01*
X161774812Y-109258482D01*
X161787072Y-109134000D01*
X161784000Y-108707250D01*
X161625250Y-108548500D01*
X160401000Y-108548500D01*
X160147000Y-108548500D01*
X158922750Y-108548500D01*
X158764000Y-108707250D01*
X158760928Y-109134000D01*
X141945799Y-109134000D01*
X141958008Y-109093754D01*
X141975072Y-108920500D01*
X141975072Y-107995500D01*
X141958008Y-107822246D01*
X141923656Y-107709000D01*
X158760928Y-107709000D01*
X158764000Y-108135750D01*
X158922750Y-108294500D01*
X160147000Y-108294500D01*
X160147000Y-107232750D01*
X160401000Y-107232750D01*
X160401000Y-108294500D01*
X161625250Y-108294500D01*
X161784000Y-108135750D01*
X161785272Y-107959000D01*
X178572928Y-107959000D01*
X178572928Y-108884000D01*
X178589992Y-109057254D01*
X178640528Y-109223850D01*
X178722595Y-109377386D01*
X178833038Y-109511962D01*
X178967614Y-109622405D01*
X179121150Y-109704472D01*
X179287746Y-109755008D01*
X179461000Y-109772072D01*
X180711000Y-109772072D01*
X180884254Y-109755008D01*
X181050850Y-109704472D01*
X181204386Y-109622405D01*
X181338962Y-109511962D01*
X181449405Y-109377386D01*
X181531472Y-109223850D01*
X181582008Y-109057254D01*
X181599072Y-108884000D01*
X181599072Y-107959000D01*
X181582008Y-107785746D01*
X181531472Y-107619150D01*
X181449405Y-107465614D01*
X181338962Y-107331038D01*
X181204386Y-107220595D01*
X181050850Y-107138528D01*
X180884254Y-107087992D01*
X180711000Y-107070928D01*
X179461000Y-107070928D01*
X179287746Y-107087992D01*
X179121150Y-107138528D01*
X178967614Y-107220595D01*
X178833038Y-107331038D01*
X178722595Y-107465614D01*
X178640528Y-107619150D01*
X178589992Y-107785746D01*
X178572928Y-107959000D01*
X161785272Y-107959000D01*
X161787072Y-107709000D01*
X161774812Y-107584518D01*
X161738502Y-107464820D01*
X161679537Y-107354506D01*
X161600185Y-107257815D01*
X161503494Y-107178463D01*
X161393180Y-107119498D01*
X161273482Y-107083188D01*
X161149000Y-107070928D01*
X160559750Y-107074000D01*
X160401000Y-107232750D01*
X160147000Y-107232750D01*
X159988250Y-107074000D01*
X159399000Y-107070928D01*
X159274518Y-107083188D01*
X159154820Y-107119498D01*
X159044506Y-107178463D01*
X158947815Y-107257815D01*
X158868463Y-107354506D01*
X158809498Y-107464820D01*
X158773188Y-107584518D01*
X158760928Y-107709000D01*
X141923656Y-107709000D01*
X141907472Y-107655650D01*
X141825405Y-107502114D01*
X141714962Y-107367538D01*
X141580386Y-107257095D01*
X141426850Y-107175028D01*
X141260254Y-107124492D01*
X141087000Y-107107428D01*
X139837000Y-107107428D01*
X139663746Y-107124492D01*
X139497150Y-107175028D01*
X139343614Y-107257095D01*
X139209038Y-107367538D01*
X139098595Y-107502114D01*
X139016528Y-107655650D01*
X138965992Y-107822246D01*
X138948928Y-107995500D01*
X122161009Y-107995500D01*
X122163072Y-107709000D01*
X122150812Y-107584518D01*
X122114502Y-107464820D01*
X122055537Y-107354506D01*
X121976185Y-107257815D01*
X121879494Y-107178463D01*
X121769180Y-107119498D01*
X121649482Y-107083188D01*
X121525000Y-107070928D01*
X120935750Y-107074000D01*
X120777000Y-107232750D01*
X120523000Y-107232750D01*
X120364250Y-107074000D01*
X119775000Y-107070928D01*
X119650518Y-107083188D01*
X119530820Y-107119498D01*
X119420506Y-107178463D01*
X119323815Y-107257815D01*
X119244463Y-107354506D01*
X119185498Y-107464820D01*
X119149188Y-107584518D01*
X119136928Y-107709000D01*
X104165000Y-107709000D01*
X104165000Y-91440000D01*
X110080808Y-91440000D01*
X110084000Y-91472409D01*
X110084001Y-102583581D01*
X110080808Y-102616000D01*
X110084001Y-102648418D01*
X110084001Y-102648419D01*
X110093551Y-102745383D01*
X110104999Y-102783122D01*
X110131290Y-102869792D01*
X110192575Y-102984450D01*
X110254386Y-103059766D01*
X110254387Y-103059767D01*
X110275053Y-103084948D01*
X110300232Y-103105612D01*
X111524386Y-104329767D01*
X111545052Y-104354948D01*
X111570231Y-104375612D01*
X111570233Y-104375614D01*
X111645549Y-104437425D01*
X111685487Y-104458772D01*
X111760207Y-104498710D01*
X111884617Y-104536450D01*
X111981581Y-104546000D01*
X111981590Y-104546000D01*
X112013999Y-104549192D01*
X112046408Y-104546000D01*
X119256990Y-104546000D01*
X119204528Y-104644150D01*
X119153992Y-104810746D01*
X119136928Y-104984000D01*
X119136928Y-105909000D01*
X119153992Y-106082254D01*
X119204528Y-106248850D01*
X119286595Y-106402386D01*
X119397038Y-106536962D01*
X119531614Y-106647405D01*
X119685150Y-106729472D01*
X119851746Y-106780008D01*
X120025000Y-106797072D01*
X121275000Y-106797072D01*
X121448254Y-106780008D01*
X121614850Y-106729472D01*
X121768386Y-106647405D01*
X121902962Y-106536962D01*
X122013405Y-106402386D01*
X122095472Y-106248850D01*
X122111655Y-106195500D01*
X138948928Y-106195500D01*
X138961188Y-106319982D01*
X138997498Y-106439680D01*
X139056463Y-106549994D01*
X139135815Y-106646685D01*
X139232506Y-106726037D01*
X139342820Y-106785002D01*
X139462518Y-106821312D01*
X139587000Y-106833572D01*
X140176250Y-106830500D01*
X140335000Y-106671750D01*
X140335000Y-105610000D01*
X140589000Y-105610000D01*
X140589000Y-106671750D01*
X140747750Y-106830500D01*
X141337000Y-106833572D01*
X141461482Y-106821312D01*
X141581180Y-106785002D01*
X141691494Y-106726037D01*
X141788185Y-106646685D01*
X141867537Y-106549994D01*
X141926502Y-106439680D01*
X141962812Y-106319982D01*
X141975072Y-106195500D01*
X141972000Y-105768750D01*
X141813250Y-105610000D01*
X140589000Y-105610000D01*
X140335000Y-105610000D01*
X139110750Y-105610000D01*
X138952000Y-105768750D01*
X138948928Y-106195500D01*
X122111655Y-106195500D01*
X122146008Y-106082254D01*
X122163072Y-105909000D01*
X122163072Y-104984000D01*
X122146008Y-104810746D01*
X122095472Y-104644150D01*
X122043010Y-104546000D01*
X127742620Y-104546000D01*
X128288388Y-105091769D01*
X128309052Y-105116948D01*
X128334231Y-105137612D01*
X128334233Y-105137614D01*
X128406900Y-105197250D01*
X128409550Y-105199425D01*
X128524207Y-105260710D01*
X128648617Y-105298450D01*
X128745581Y-105308000D01*
X128745588Y-105308000D01*
X128778000Y-105311192D01*
X128810412Y-105308000D01*
X132301591Y-105308000D01*
X132334000Y-105311192D01*
X132366409Y-105308000D01*
X132366419Y-105308000D01*
X132463383Y-105298450D01*
X132587793Y-105260710D01*
X132702450Y-105199425D01*
X132802948Y-105116948D01*
X132823616Y-105091764D01*
X133369381Y-104546000D01*
X138991528Y-104546000D01*
X138961188Y-104646018D01*
X138948928Y-104770500D01*
X138952000Y-105197250D01*
X139110750Y-105356000D01*
X140335000Y-105356000D01*
X140335000Y-105336000D01*
X140589000Y-105336000D01*
X140589000Y-105356000D01*
X141813250Y-105356000D01*
X141972000Y-105197250D01*
X141975072Y-104770500D01*
X141962812Y-104646018D01*
X141932472Y-104546000D01*
X145446091Y-104546000D01*
X145478500Y-104549192D01*
X145510909Y-104546000D01*
X145510919Y-104546000D01*
X145607883Y-104536450D01*
X145732293Y-104498710D01*
X145846950Y-104437425D01*
X145947448Y-104354948D01*
X145968116Y-104329764D01*
X147192269Y-103105612D01*
X147217448Y-103084948D01*
X147238111Y-103059770D01*
X147238114Y-103059767D01*
X147299925Y-102984451D01*
X147361209Y-102869793D01*
X147361210Y-102869792D01*
X147398950Y-102745382D01*
X147408500Y-102648418D01*
X147408500Y-102648410D01*
X147411692Y-102616001D01*
X147408500Y-102583592D01*
X147408500Y-98704000D01*
X148303581Y-98704000D01*
X148336000Y-98707193D01*
X148368419Y-98704000D01*
X148465383Y-98694450D01*
X148589793Y-98656710D01*
X148704450Y-98595425D01*
X148804948Y-98512948D01*
X148887425Y-98412450D01*
X148948710Y-98297793D01*
X148986450Y-98173383D01*
X148999193Y-98044000D01*
X148996000Y-98011581D01*
X148996000Y-97345500D01*
X150466807Y-97345500D01*
X150470000Y-97377918D01*
X150470001Y-100805571D01*
X150466807Y-100838000D01*
X150479550Y-100967383D01*
X150517290Y-101091793D01*
X150578575Y-101206450D01*
X150661052Y-101306948D01*
X150761550Y-101389425D01*
X150876207Y-101450710D01*
X151000617Y-101488450D01*
X151097581Y-101498000D01*
X151130000Y-101501193D01*
X151162419Y-101498000D01*
X151740000Y-101498000D01*
X151740001Y-102583581D01*
X151736808Y-102616000D01*
X151740001Y-102648418D01*
X151740001Y-102648419D01*
X151749551Y-102745383D01*
X151760999Y-102783122D01*
X151787290Y-102869792D01*
X151848575Y-102984450D01*
X151910386Y-103059766D01*
X151910387Y-103059767D01*
X151931053Y-103084948D01*
X151956232Y-103105612D01*
X153180386Y-104329767D01*
X153201052Y-104354948D01*
X153226231Y-104375612D01*
X153226233Y-104375614D01*
X153301549Y-104437425D01*
X153341487Y-104458772D01*
X153416207Y-104498710D01*
X153540617Y-104536450D01*
X153637581Y-104546000D01*
X153637590Y-104546000D01*
X153669999Y-104549192D01*
X153702408Y-104546000D01*
X158880990Y-104546000D01*
X158828528Y-104644150D01*
X158777992Y-104810746D01*
X158760928Y-104984000D01*
X158760928Y-105909000D01*
X158777992Y-106082254D01*
X158828528Y-106248850D01*
X158910595Y-106402386D01*
X159021038Y-106536962D01*
X159155614Y-106647405D01*
X159309150Y-106729472D01*
X159475746Y-106780008D01*
X159649000Y-106797072D01*
X160899000Y-106797072D01*
X161072254Y-106780008D01*
X161238850Y-106729472D01*
X161392386Y-106647405D01*
X161526962Y-106536962D01*
X161637405Y-106402386D01*
X161719472Y-106248850D01*
X161746727Y-106159000D01*
X178572928Y-106159000D01*
X178585188Y-106283482D01*
X178621498Y-106403180D01*
X178680463Y-106513494D01*
X178759815Y-106610185D01*
X178856506Y-106689537D01*
X178966820Y-106748502D01*
X179086518Y-106784812D01*
X179211000Y-106797072D01*
X179800250Y-106794000D01*
X179959000Y-106635250D01*
X179959000Y-105573500D01*
X180213000Y-105573500D01*
X180213000Y-106635250D01*
X180371750Y-106794000D01*
X180961000Y-106797072D01*
X181085482Y-106784812D01*
X181205180Y-106748502D01*
X181315494Y-106689537D01*
X181412185Y-106610185D01*
X181491537Y-106513494D01*
X181550502Y-106403180D01*
X181586812Y-106283482D01*
X181599072Y-106159000D01*
X181596000Y-105732250D01*
X181437250Y-105573500D01*
X180213000Y-105573500D01*
X179959000Y-105573500D01*
X178734750Y-105573500D01*
X178576000Y-105732250D01*
X178572928Y-106159000D01*
X161746727Y-106159000D01*
X161770008Y-106082254D01*
X161787072Y-105909000D01*
X161787072Y-104984000D01*
X161770008Y-104810746D01*
X161719472Y-104644150D01*
X161667010Y-104546000D01*
X167366620Y-104546000D01*
X167912388Y-105091769D01*
X167933052Y-105116948D01*
X167958231Y-105137612D01*
X167958233Y-105137614D01*
X168030900Y-105197250D01*
X168033550Y-105199425D01*
X168148207Y-105260710D01*
X168272617Y-105298450D01*
X168369581Y-105308000D01*
X168369588Y-105308000D01*
X168402000Y-105311192D01*
X168434412Y-105308000D01*
X171925591Y-105308000D01*
X171958000Y-105311192D01*
X171990409Y-105308000D01*
X171990419Y-105308000D01*
X172087383Y-105298450D01*
X172211793Y-105260710D01*
X172326450Y-105199425D01*
X172426948Y-105116948D01*
X172447616Y-105091764D01*
X172993381Y-104546000D01*
X178604456Y-104546000D01*
X178585188Y-104609518D01*
X178572928Y-104734000D01*
X178576000Y-105160750D01*
X178734750Y-105319500D01*
X179959000Y-105319500D01*
X179959000Y-105299500D01*
X180213000Y-105299500D01*
X180213000Y-105319500D01*
X181437250Y-105319500D01*
X181596000Y-105160750D01*
X181599072Y-104734000D01*
X181586812Y-104609518D01*
X181567544Y-104546000D01*
X187419591Y-104546000D01*
X187452000Y-104549192D01*
X187484409Y-104546000D01*
X187484419Y-104546000D01*
X187581383Y-104536450D01*
X187705793Y-104498710D01*
X187820450Y-104437425D01*
X187920948Y-104354948D01*
X187941616Y-104329764D01*
X189165770Y-103105611D01*
X189190948Y-103084948D01*
X189211614Y-103059767D01*
X189273425Y-102984451D01*
X189307366Y-102920950D01*
X189334710Y-102869793D01*
X189372450Y-102745383D01*
X189382000Y-102648419D01*
X189382000Y-102648410D01*
X189385192Y-102616001D01*
X189382000Y-102583592D01*
X189382000Y-91472408D01*
X189385192Y-91439999D01*
X189382000Y-91407590D01*
X189382000Y-91407581D01*
X189372450Y-91310617D01*
X189334710Y-91186207D01*
X189273426Y-91071551D01*
X189273425Y-91071549D01*
X189211614Y-90996233D01*
X189211612Y-90996231D01*
X189190948Y-90971052D01*
X189165769Y-90950388D01*
X187941616Y-89726236D01*
X187920948Y-89701052D01*
X187820450Y-89618575D01*
X187705793Y-89557290D01*
X187581383Y-89519550D01*
X187484419Y-89510000D01*
X187484409Y-89510000D01*
X187452000Y-89506808D01*
X187419591Y-89510000D01*
X181390633Y-89510000D01*
X181449405Y-89438386D01*
X181531472Y-89284850D01*
X181582008Y-89118254D01*
X181599072Y-88945000D01*
X181599072Y-88020000D01*
X181582008Y-87846746D01*
X181531472Y-87680150D01*
X181449405Y-87526614D01*
X181338962Y-87392038D01*
X181204386Y-87281595D01*
X181050850Y-87199528D01*
X180884254Y-87148992D01*
X180711000Y-87131928D01*
X179461000Y-87131928D01*
X179287746Y-87148992D01*
X179121150Y-87199528D01*
X178967614Y-87281595D01*
X178833038Y-87392038D01*
X178722595Y-87526614D01*
X178640528Y-87680150D01*
X178589992Y-87846746D01*
X178572928Y-88020000D01*
X178572928Y-88945000D01*
X178589992Y-89118254D01*
X178640528Y-89284850D01*
X178722595Y-89438386D01*
X178781367Y-89510000D01*
X176237207Y-89510000D01*
X174076699Y-87933413D01*
X174040950Y-87904075D01*
X173995646Y-87879860D01*
X173951405Y-87853806D01*
X173938425Y-87849275D01*
X173926293Y-87842790D01*
X173877125Y-87827875D01*
X173828661Y-87810956D01*
X173815051Y-87809044D01*
X173801883Y-87805050D01*
X173750761Y-87800015D01*
X173699917Y-87792874D01*
X173653756Y-87795500D01*
X166706243Y-87795500D01*
X166660082Y-87792874D01*
X166609236Y-87800015D01*
X166558117Y-87805050D01*
X166544950Y-87809044D01*
X166531338Y-87810956D01*
X166482859Y-87827880D01*
X166433707Y-87842790D01*
X166421582Y-87849271D01*
X166408594Y-87853805D01*
X166364335Y-87879870D01*
X166319050Y-87904075D01*
X166283309Y-87933407D01*
X164122793Y-89510000D01*
X161628544Y-89510000D01*
X161647812Y-89446482D01*
X161660072Y-89322000D01*
X161657000Y-88895250D01*
X161498250Y-88736500D01*
X160274000Y-88736500D01*
X160274000Y-88756500D01*
X160020000Y-88756500D01*
X160020000Y-88736500D01*
X158795750Y-88736500D01*
X158637000Y-88895250D01*
X158633928Y-89322000D01*
X158646188Y-89446482D01*
X158665456Y-89510000D01*
X154527908Y-89510000D01*
X154495499Y-89506808D01*
X154463090Y-89510000D01*
X154463081Y-89510000D01*
X154366117Y-89519550D01*
X154241707Y-89557290D01*
X154166987Y-89597228D01*
X154127049Y-89618575D01*
X154051733Y-89680386D01*
X154026552Y-89701052D01*
X154005888Y-89726231D01*
X152781732Y-90950388D01*
X152756553Y-90971052D01*
X152735889Y-90996231D01*
X152735886Y-90996234D01*
X152674075Y-91071550D01*
X152612790Y-91186208D01*
X152586499Y-91272878D01*
X152575052Y-91310616D01*
X152575051Y-91310618D01*
X152562308Y-91440000D01*
X152565501Y-91472419D01*
X152565500Y-96685500D01*
X151162419Y-96685500D01*
X151130000Y-96682307D01*
X151097581Y-96685500D01*
X151000617Y-96695050D01*
X150876207Y-96732790D01*
X150761550Y-96794075D01*
X150661052Y-96876552D01*
X150578575Y-96977050D01*
X150517290Y-97091707D01*
X150479550Y-97216117D01*
X150466807Y-97345500D01*
X148996000Y-97345500D01*
X148996000Y-91472408D01*
X148999192Y-91439999D01*
X148996000Y-91407590D01*
X148996000Y-91407581D01*
X148986450Y-91310617D01*
X148948710Y-91186207D01*
X148887426Y-91071551D01*
X148887425Y-91071549D01*
X148825614Y-90996233D01*
X148825612Y-90996231D01*
X148804948Y-90971052D01*
X148779769Y-90950388D01*
X147555616Y-89726236D01*
X147534948Y-89701052D01*
X147434450Y-89618575D01*
X147319793Y-89557290D01*
X147195383Y-89519550D01*
X147098419Y-89510000D01*
X147098409Y-89510000D01*
X147066000Y-89506808D01*
X147033591Y-89510000D01*
X141728010Y-89510000D01*
X141780472Y-89411850D01*
X141831008Y-89245254D01*
X141848072Y-89072000D01*
X141848072Y-88147000D01*
X141831008Y-87973746D01*
X141807728Y-87897000D01*
X158633928Y-87897000D01*
X158637000Y-88323750D01*
X158795750Y-88482500D01*
X160020000Y-88482500D01*
X160020000Y-87420750D01*
X160274000Y-87420750D01*
X160274000Y-88482500D01*
X161498250Y-88482500D01*
X161657000Y-88323750D01*
X161660072Y-87897000D01*
X161647812Y-87772518D01*
X161611502Y-87652820D01*
X161552537Y-87542506D01*
X161473185Y-87445815D01*
X161376494Y-87366463D01*
X161266180Y-87307498D01*
X161146482Y-87271188D01*
X161022000Y-87258928D01*
X160432750Y-87262000D01*
X160274000Y-87420750D01*
X160020000Y-87420750D01*
X159861250Y-87262000D01*
X159272000Y-87258928D01*
X159147518Y-87271188D01*
X159027820Y-87307498D01*
X158917506Y-87366463D01*
X158820815Y-87445815D01*
X158741463Y-87542506D01*
X158682498Y-87652820D01*
X158646188Y-87772518D01*
X158633928Y-87897000D01*
X141807728Y-87897000D01*
X141780472Y-87807150D01*
X141698405Y-87653614D01*
X141587962Y-87519038D01*
X141453386Y-87408595D01*
X141299850Y-87326528D01*
X141133254Y-87275992D01*
X140960000Y-87258928D01*
X139710000Y-87258928D01*
X139536746Y-87275992D01*
X139370150Y-87326528D01*
X139216614Y-87408595D01*
X139082038Y-87519038D01*
X138971595Y-87653614D01*
X138889528Y-87807150D01*
X138838992Y-87973746D01*
X138821928Y-88147000D01*
X138821928Y-89072000D01*
X138838992Y-89245254D01*
X138889528Y-89411850D01*
X138941990Y-89510000D01*
X136613207Y-89510000D01*
X134452699Y-87933413D01*
X134416950Y-87904075D01*
X134371646Y-87879860D01*
X134327405Y-87853806D01*
X134314425Y-87849275D01*
X134302293Y-87842790D01*
X134253125Y-87827875D01*
X134204661Y-87810956D01*
X134191051Y-87809044D01*
X134177883Y-87805050D01*
X134126761Y-87800015D01*
X134075917Y-87792874D01*
X134029756Y-87795500D01*
X127082243Y-87795500D01*
X127036082Y-87792874D01*
X126985236Y-87800015D01*
X126934117Y-87805050D01*
X126920950Y-87809044D01*
X126907338Y-87810956D01*
X126858859Y-87827880D01*
X126809707Y-87842790D01*
X126797582Y-87849271D01*
X126784594Y-87853805D01*
X126740335Y-87879870D01*
X126695050Y-87904075D01*
X126659309Y-87933407D01*
X124498793Y-89510000D01*
X122131544Y-89510000D01*
X122150812Y-89446482D01*
X122163072Y-89322000D01*
X122160000Y-88895250D01*
X122001250Y-88736500D01*
X120777000Y-88736500D01*
X120777000Y-88756500D01*
X120523000Y-88756500D01*
X120523000Y-88736500D01*
X119298750Y-88736500D01*
X119140000Y-88895250D01*
X119136928Y-89322000D01*
X119149188Y-89446482D01*
X119168456Y-89510000D01*
X112046408Y-89510000D01*
X112013999Y-89506808D01*
X111981590Y-89510000D01*
X111981581Y-89510000D01*
X111884617Y-89519550D01*
X111760207Y-89557290D01*
X111685487Y-89597228D01*
X111645549Y-89618575D01*
X111570233Y-89680386D01*
X111545052Y-89701052D01*
X111524388Y-89726231D01*
X110300236Y-90950384D01*
X110275052Y-90971052D01*
X110254387Y-90996233D01*
X110254386Y-90996234D01*
X110192575Y-91071550D01*
X110131291Y-91186207D01*
X110131290Y-91186208D01*
X110093550Y-91310618D01*
X110084000Y-91407582D01*
X110084000Y-91407591D01*
X110080808Y-91440000D01*
X104165000Y-91440000D01*
X104165000Y-87897000D01*
X119136928Y-87897000D01*
X119140000Y-88323750D01*
X119298750Y-88482500D01*
X120523000Y-88482500D01*
X120523000Y-87420750D01*
X120777000Y-87420750D01*
X120777000Y-88482500D01*
X122001250Y-88482500D01*
X122160000Y-88323750D01*
X122163072Y-87897000D01*
X122150812Y-87772518D01*
X122114502Y-87652820D01*
X122055537Y-87542506D01*
X121976185Y-87445815D01*
X121879494Y-87366463D01*
X121769180Y-87307498D01*
X121649482Y-87271188D01*
X121525000Y-87258928D01*
X120935750Y-87262000D01*
X120777000Y-87420750D01*
X120523000Y-87420750D01*
X120364250Y-87262000D01*
X119775000Y-87258928D01*
X119650518Y-87271188D01*
X119530820Y-87307498D01*
X119420506Y-87366463D01*
X119323815Y-87445815D01*
X119244463Y-87542506D01*
X119185498Y-87652820D01*
X119149188Y-87772518D01*
X119136928Y-87897000D01*
X104165000Y-87897000D01*
X104165000Y-68085000D01*
X117358928Y-68085000D01*
X117362000Y-68511750D01*
X117520750Y-68670500D01*
X118745000Y-68670500D01*
X118745000Y-67608750D01*
X118999000Y-67608750D01*
X118999000Y-68670500D01*
X120223250Y-68670500D01*
X120382000Y-68511750D01*
X120385072Y-68085000D01*
X120372812Y-67960518D01*
X120336502Y-67840820D01*
X120277537Y-67730506D01*
X120198185Y-67633815D01*
X120101494Y-67554463D01*
X119991180Y-67495498D01*
X119871482Y-67459188D01*
X119747000Y-67446928D01*
X119157750Y-67450000D01*
X118999000Y-67608750D01*
X118745000Y-67608750D01*
X118586250Y-67450000D01*
X117997000Y-67446928D01*
X117872518Y-67459188D01*
X117752820Y-67495498D01*
X117642506Y-67554463D01*
X117545815Y-67633815D01*
X117466463Y-67730506D01*
X117407498Y-67840820D01*
X117371188Y-67960518D01*
X117358928Y-68085000D01*
X104165000Y-68085000D01*
X104165000Y-46619000D01*
X109429928Y-46619000D01*
X109429928Y-47869000D01*
X109446992Y-48042254D01*
X109497528Y-48208850D01*
X109579595Y-48362386D01*
X109690038Y-48496962D01*
X109824614Y-48607405D01*
X109978150Y-48689472D01*
X110144746Y-48740008D01*
X110318000Y-48757072D01*
X111243000Y-48757072D01*
X111416254Y-48740008D01*
X111582850Y-48689472D01*
X111736386Y-48607405D01*
X111870962Y-48496962D01*
X111981405Y-48362386D01*
X112063472Y-48208850D01*
X112114008Y-48042254D01*
X112131072Y-47869000D01*
X112131072Y-46619000D01*
X112114008Y-46445746D01*
X112063472Y-46279150D01*
X111981405Y-46125614D01*
X111870962Y-45991038D01*
X111736386Y-45880595D01*
X111582850Y-45798528D01*
X111416254Y-45747992D01*
X111243000Y-45730928D01*
X110318000Y-45730928D01*
X110144746Y-45747992D01*
X109978150Y-45798528D01*
X109824614Y-45880595D01*
X109690038Y-45991038D01*
X109579595Y-46125614D01*
X109497528Y-46279150D01*
X109446992Y-46445746D01*
X109429928Y-46619000D01*
X104165000Y-46619000D01*
X104165000Y-42062000D01*
X104449104Y-42062000D01*
X104362815Y-42132815D01*
X104283463Y-42229506D01*
X104224498Y-42339820D01*
X104188188Y-42459518D01*
X104175928Y-42584000D01*
X104175928Y-44284000D01*
X104188188Y-44408482D01*
X104224498Y-44528180D01*
X104283463Y-44638494D01*
X104362815Y-44735185D01*
X104459506Y-44814537D01*
X104569820Y-44873502D01*
X104689518Y-44909812D01*
X104814000Y-44922072D01*
X106514000Y-44922072D01*
X106638482Y-44909812D01*
X106758180Y-44873502D01*
X106868494Y-44814537D01*
X106965185Y-44735185D01*
X107044537Y-44638494D01*
X107103502Y-44528180D01*
X107125513Y-44455620D01*
X107257368Y-44587475D01*
X107500589Y-44749990D01*
X107770842Y-44861932D01*
X108057740Y-44919000D01*
X108350260Y-44919000D01*
X108637158Y-44861932D01*
X108907411Y-44749990D01*
X109150632Y-44587475D01*
X109357475Y-44380632D01*
X109479195Y-44198466D01*
X109548822Y-44315355D01*
X109743731Y-44531588D01*
X109977080Y-44705641D01*
X110239901Y-44830825D01*
X110387110Y-44875476D01*
X110617000Y-44754155D01*
X110617000Y-43561000D01*
X110597000Y-43561000D01*
X110597000Y-43307000D01*
X110617000Y-43307000D01*
X110617000Y-43287000D01*
X110871000Y-43287000D01*
X110871000Y-43307000D01*
X110891000Y-43307000D01*
X110891000Y-43561000D01*
X110871000Y-43561000D01*
X110871000Y-44754155D01*
X111100890Y-44875476D01*
X111248099Y-44830825D01*
X111510920Y-44705641D01*
X111744269Y-44531588D01*
X111939178Y-44315355D01*
X112042507Y-44141888D01*
X112794388Y-44893769D01*
X112815052Y-44918948D01*
X112840231Y-44939612D01*
X112840233Y-44939614D01*
X112915549Y-45001425D01*
X112955487Y-45022772D01*
X113030207Y-45062710D01*
X113154617Y-45100450D01*
X113251581Y-45110000D01*
X113251590Y-45110000D01*
X113283999Y-45113192D01*
X113316408Y-45110000D01*
X117605990Y-45110000D01*
X117553528Y-45208150D01*
X117502992Y-45374746D01*
X117485928Y-45548000D01*
X117485928Y-46473000D01*
X117492675Y-46541500D01*
X115098439Y-46541500D01*
X115089008Y-46445746D01*
X115038472Y-46279150D01*
X114956405Y-46125614D01*
X114845962Y-45991038D01*
X114711386Y-45880595D01*
X114557850Y-45798528D01*
X114391254Y-45747992D01*
X114218000Y-45730928D01*
X113293000Y-45730928D01*
X113119746Y-45747992D01*
X112953150Y-45798528D01*
X112799614Y-45880595D01*
X112665038Y-45991038D01*
X112554595Y-46125614D01*
X112472528Y-46279150D01*
X112421992Y-46445746D01*
X112404928Y-46619000D01*
X112404928Y-47869000D01*
X112421992Y-48042254D01*
X112472528Y-48208850D01*
X112554595Y-48362386D01*
X112665038Y-48496962D01*
X112799614Y-48607405D01*
X112953150Y-48689472D01*
X113119746Y-48740008D01*
X113293000Y-48757072D01*
X114218000Y-48757072D01*
X114391254Y-48740008D01*
X114557850Y-48689472D01*
X114711386Y-48607405D01*
X114845962Y-48496962D01*
X114956405Y-48362386D01*
X115038472Y-48208850D01*
X115089008Y-48042254D01*
X115098439Y-47946500D01*
X117578500Y-47946500D01*
X117534498Y-48028820D01*
X117498188Y-48148518D01*
X117485928Y-48273000D01*
X117489000Y-48699750D01*
X117647750Y-48858500D01*
X118872000Y-48858500D01*
X118872000Y-48838500D01*
X119126000Y-48838500D01*
X119126000Y-48858500D01*
X120350250Y-48858500D01*
X120509000Y-48699750D01*
X120512072Y-48273000D01*
X120499812Y-48148518D01*
X120463502Y-48028820D01*
X120404537Y-47918506D01*
X120382219Y-47891311D01*
X120495176Y-47830934D01*
X120602146Y-47743146D01*
X120624150Y-47716334D01*
X121507485Y-46833000D01*
X121541089Y-46833000D01*
X121721729Y-46797068D01*
X121891889Y-46726586D01*
X122045028Y-46624262D01*
X122175262Y-46494028D01*
X122276000Y-46343262D01*
X122276001Y-49886000D01*
X120480544Y-49886000D01*
X120499812Y-49822482D01*
X120512072Y-49698000D01*
X120509000Y-49271250D01*
X120350250Y-49112500D01*
X119126000Y-49112500D01*
X119126000Y-49132500D01*
X118872000Y-49132500D01*
X118872000Y-49112500D01*
X117647750Y-49112500D01*
X117489000Y-49271250D01*
X117485928Y-49698000D01*
X117498188Y-49822482D01*
X117517456Y-49886000D01*
X115081381Y-49886000D01*
X114535616Y-49340236D01*
X114514948Y-49315052D01*
X114414450Y-49232575D01*
X114299793Y-49171290D01*
X114175383Y-49133550D01*
X114078419Y-49124000D01*
X114078409Y-49124000D01*
X114046000Y-49120808D01*
X114013591Y-49124000D01*
X111284408Y-49124000D01*
X111251999Y-49120808D01*
X111219590Y-49124000D01*
X111219581Y-49124000D01*
X111122617Y-49133550D01*
X110998207Y-49171290D01*
X110883550Y-49232575D01*
X110783052Y-49315052D01*
X110762388Y-49340231D01*
X110300236Y-49802384D01*
X110275052Y-49823052D01*
X110254386Y-49848234D01*
X110192575Y-49923550D01*
X110154612Y-49994575D01*
X110131290Y-50038208D01*
X110093550Y-50162618D01*
X110084000Y-50259582D01*
X110084000Y-50259591D01*
X110080808Y-50292000D01*
X110084000Y-50324409D01*
X110084001Y-56368618D01*
X109030236Y-57422384D01*
X109005052Y-57443052D01*
X108984386Y-57468234D01*
X108922575Y-57543550D01*
X108861291Y-57658207D01*
X108861290Y-57658208D01*
X108823550Y-57782618D01*
X108814000Y-57879582D01*
X108814000Y-57879591D01*
X108810808Y-57912000D01*
X108814000Y-57944409D01*
X108814001Y-60927581D01*
X108810808Y-60960000D01*
X108823551Y-61089382D01*
X108861290Y-61213792D01*
X108922575Y-61328450D01*
X108984386Y-61403766D01*
X108984389Y-61403769D01*
X109005053Y-61428948D01*
X109030232Y-61449612D01*
X110084000Y-62503381D01*
X110084000Y-62959591D01*
X110080808Y-62992000D01*
X110084000Y-63024409D01*
X110084000Y-63024419D01*
X110093550Y-63121383D01*
X110118145Y-63202457D01*
X110131290Y-63245792D01*
X110192575Y-63360450D01*
X110254386Y-63435766D01*
X110254387Y-63435767D01*
X110275053Y-63460948D01*
X110300232Y-63481612D01*
X111524388Y-64705769D01*
X111545052Y-64730948D01*
X111570231Y-64751612D01*
X111570233Y-64751614D01*
X111645549Y-64813425D01*
X111685487Y-64834772D01*
X111760207Y-64874710D01*
X111884617Y-64912450D01*
X111981581Y-64922000D01*
X111981590Y-64922000D01*
X112013999Y-64925192D01*
X112046408Y-64922000D01*
X117478990Y-64922000D01*
X117426528Y-65020150D01*
X117375992Y-65186746D01*
X117358928Y-65360000D01*
X117358928Y-66285000D01*
X117375992Y-66458254D01*
X117426528Y-66624850D01*
X117508595Y-66778386D01*
X117619038Y-66912962D01*
X117753614Y-67023405D01*
X117907150Y-67105472D01*
X118073746Y-67156008D01*
X118247000Y-67173072D01*
X119497000Y-67173072D01*
X119670254Y-67156008D01*
X119836850Y-67105472D01*
X119990386Y-67023405D01*
X120124962Y-66912962D01*
X120235405Y-66778386D01*
X120317472Y-66624850D01*
X120368008Y-66458254D01*
X120385072Y-66285000D01*
X120385072Y-65360000D01*
X120368008Y-65186746D01*
X120317472Y-65020150D01*
X120265010Y-64922000D01*
X122276000Y-64922000D01*
X122276001Y-69698000D01*
X120353544Y-69698000D01*
X120372812Y-69634482D01*
X120385072Y-69510000D01*
X120382000Y-69083250D01*
X120223250Y-68924500D01*
X118999000Y-68924500D01*
X118999000Y-68944500D01*
X118745000Y-68944500D01*
X118745000Y-68924500D01*
X117520750Y-68924500D01*
X117362000Y-69083250D01*
X117358928Y-69510000D01*
X117371188Y-69634482D01*
X117390456Y-69698000D01*
X112046408Y-69698000D01*
X112013999Y-69694808D01*
X111981590Y-69698000D01*
X111981581Y-69698000D01*
X111884617Y-69707550D01*
X111760207Y-69745290D01*
X111685487Y-69785228D01*
X111645549Y-69806575D01*
X111570233Y-69868386D01*
X111545052Y-69889052D01*
X111524388Y-69914231D01*
X110300236Y-71138384D01*
X110275052Y-71159052D01*
X110254387Y-71184233D01*
X110254386Y-71184234D01*
X110192575Y-71259550D01*
X110131291Y-71374207D01*
X110131290Y-71374208D01*
X110093550Y-71498618D01*
X110084000Y-71595582D01*
X110084000Y-71595591D01*
X110080808Y-71628000D01*
X110084000Y-71660409D01*
X110084001Y-82771581D01*
X110080808Y-82804000D01*
X110084001Y-82836418D01*
X110084001Y-82836419D01*
X110093551Y-82933383D01*
X110104999Y-82971122D01*
X110131290Y-83057792D01*
X110192575Y-83172450D01*
X110254386Y-83247766D01*
X110254387Y-83247767D01*
X110275053Y-83272948D01*
X110300232Y-83293612D01*
X111524388Y-84517769D01*
X111545052Y-84542948D01*
X111570231Y-84563612D01*
X111570233Y-84563614D01*
X111645549Y-84625425D01*
X111685487Y-84646772D01*
X111760207Y-84686710D01*
X111884617Y-84724450D01*
X111981581Y-84734000D01*
X111981590Y-84734000D01*
X112013999Y-84737192D01*
X112046408Y-84734000D01*
X119256990Y-84734000D01*
X119204528Y-84832150D01*
X119153992Y-84998746D01*
X119136928Y-85172000D01*
X119136928Y-86097000D01*
X119153992Y-86270254D01*
X119204528Y-86436850D01*
X119286595Y-86590386D01*
X119397038Y-86724962D01*
X119531614Y-86835405D01*
X119685150Y-86917472D01*
X119851746Y-86968008D01*
X120025000Y-86985072D01*
X121275000Y-86985072D01*
X121448254Y-86968008D01*
X121614850Y-86917472D01*
X121768386Y-86835405D01*
X121902962Y-86724962D01*
X122013405Y-86590386D01*
X122095472Y-86436850D01*
X122122727Y-86347000D01*
X138821928Y-86347000D01*
X138834188Y-86471482D01*
X138870498Y-86591180D01*
X138929463Y-86701494D01*
X139008815Y-86798185D01*
X139105506Y-86877537D01*
X139215820Y-86936502D01*
X139335518Y-86972812D01*
X139460000Y-86985072D01*
X140049250Y-86982000D01*
X140208000Y-86823250D01*
X140208000Y-85761500D01*
X140462000Y-85761500D01*
X140462000Y-86823250D01*
X140620750Y-86982000D01*
X141210000Y-86985072D01*
X141334482Y-86972812D01*
X141454180Y-86936502D01*
X141564494Y-86877537D01*
X141661185Y-86798185D01*
X141740537Y-86701494D01*
X141799502Y-86591180D01*
X141835812Y-86471482D01*
X141848072Y-86347000D01*
X141845000Y-85920250D01*
X141686250Y-85761500D01*
X140462000Y-85761500D01*
X140208000Y-85761500D01*
X138983750Y-85761500D01*
X138825000Y-85920250D01*
X138821928Y-86347000D01*
X122122727Y-86347000D01*
X122146008Y-86270254D01*
X122163072Y-86097000D01*
X122163072Y-85172000D01*
X122146008Y-84998746D01*
X122095472Y-84832150D01*
X122043010Y-84734000D01*
X124651504Y-84734000D01*
X124653958Y-84734469D01*
X124716365Y-84734000D01*
X124746419Y-84734000D01*
X124748902Y-84733755D01*
X124783962Y-84733492D01*
X124813428Y-84727400D01*
X124843383Y-84724450D01*
X124876945Y-84714269D01*
X124911278Y-84707171D01*
X124938992Y-84695447D01*
X124967793Y-84686710D01*
X124998720Y-84670179D01*
X125031013Y-84656518D01*
X125055906Y-84639613D01*
X125082450Y-84625425D01*
X125109560Y-84603176D01*
X125111616Y-84601780D01*
X125134623Y-84582608D01*
X125182948Y-84542948D01*
X125184535Y-84541014D01*
X127619952Y-82511500D01*
X133492049Y-82511500D01*
X135927467Y-84541017D01*
X135929052Y-84542948D01*
X135977313Y-84582555D01*
X136000383Y-84601780D01*
X136002445Y-84603180D01*
X136029550Y-84625425D01*
X136056089Y-84639610D01*
X136080986Y-84656518D01*
X136113284Y-84670181D01*
X136144207Y-84686710D01*
X136173005Y-84695446D01*
X136200721Y-84707171D01*
X136235057Y-84714270D01*
X136268617Y-84724450D01*
X136298570Y-84727400D01*
X136328037Y-84733492D01*
X136363098Y-84733755D01*
X136365581Y-84734000D01*
X136395634Y-84734000D01*
X136458042Y-84734469D01*
X136460496Y-84734000D01*
X138853456Y-84734000D01*
X138834188Y-84797518D01*
X138821928Y-84922000D01*
X138825000Y-85348750D01*
X138983750Y-85507500D01*
X140208000Y-85507500D01*
X140208000Y-85487500D01*
X140462000Y-85487500D01*
X140462000Y-85507500D01*
X141686250Y-85507500D01*
X141845000Y-85348750D01*
X141848072Y-84922000D01*
X141835812Y-84797518D01*
X141816544Y-84734000D01*
X158753990Y-84734000D01*
X158701528Y-84832150D01*
X158650992Y-84998746D01*
X158633928Y-85172000D01*
X158633928Y-86097000D01*
X158650992Y-86270254D01*
X158701528Y-86436850D01*
X158783595Y-86590386D01*
X158894038Y-86724962D01*
X159028614Y-86835405D01*
X159182150Y-86917472D01*
X159348746Y-86968008D01*
X159522000Y-86985072D01*
X160772000Y-86985072D01*
X160945254Y-86968008D01*
X161111850Y-86917472D01*
X161265386Y-86835405D01*
X161399962Y-86724962D01*
X161510405Y-86590386D01*
X161592472Y-86436850D01*
X161643008Y-86270254D01*
X161647957Y-86220000D01*
X178572928Y-86220000D01*
X178585188Y-86344482D01*
X178621498Y-86464180D01*
X178680463Y-86574494D01*
X178759815Y-86671185D01*
X178856506Y-86750537D01*
X178966820Y-86809502D01*
X179086518Y-86845812D01*
X179211000Y-86858072D01*
X179800250Y-86855000D01*
X179959000Y-86696250D01*
X179959000Y-85634500D01*
X180213000Y-85634500D01*
X180213000Y-86696250D01*
X180371750Y-86855000D01*
X180961000Y-86858072D01*
X181085482Y-86845812D01*
X181205180Y-86809502D01*
X181315494Y-86750537D01*
X181412185Y-86671185D01*
X181491537Y-86574494D01*
X181550502Y-86464180D01*
X181586812Y-86344482D01*
X181599072Y-86220000D01*
X181596000Y-85793250D01*
X181437250Y-85634500D01*
X180213000Y-85634500D01*
X179959000Y-85634500D01*
X178734750Y-85634500D01*
X178576000Y-85793250D01*
X178572928Y-86220000D01*
X161647957Y-86220000D01*
X161660072Y-86097000D01*
X161660072Y-85172000D01*
X161643008Y-84998746D01*
X161592472Y-84832150D01*
X161540010Y-84734000D01*
X164275504Y-84734000D01*
X164277958Y-84734469D01*
X164340365Y-84734000D01*
X164370419Y-84734000D01*
X164372902Y-84733755D01*
X164407962Y-84733492D01*
X164437428Y-84727400D01*
X164467383Y-84724450D01*
X164500945Y-84714269D01*
X164535278Y-84707171D01*
X164562992Y-84695447D01*
X164591793Y-84686710D01*
X164622720Y-84670179D01*
X164655013Y-84656518D01*
X164679906Y-84639613D01*
X164706450Y-84625425D01*
X164733560Y-84603176D01*
X164735616Y-84601780D01*
X164758623Y-84582608D01*
X164806948Y-84542948D01*
X164808535Y-84541014D01*
X167243952Y-82511500D01*
X173116049Y-82511500D01*
X175551467Y-84541017D01*
X175553052Y-84542948D01*
X175601313Y-84582555D01*
X175624383Y-84601780D01*
X175626445Y-84603180D01*
X175653550Y-84625425D01*
X175680089Y-84639610D01*
X175704986Y-84656518D01*
X175737284Y-84670181D01*
X175768207Y-84686710D01*
X175797005Y-84695446D01*
X175824721Y-84707171D01*
X175859057Y-84714270D01*
X175892617Y-84724450D01*
X175922570Y-84727400D01*
X175952037Y-84733492D01*
X175987098Y-84733755D01*
X175989581Y-84734000D01*
X176019634Y-84734000D01*
X176082042Y-84734469D01*
X176084496Y-84734000D01*
X178578936Y-84734000D01*
X178572928Y-84795000D01*
X178576000Y-85221750D01*
X178734750Y-85380500D01*
X179959000Y-85380500D01*
X179959000Y-85360500D01*
X180213000Y-85360500D01*
X180213000Y-85380500D01*
X181437250Y-85380500D01*
X181596000Y-85221750D01*
X181599072Y-84795000D01*
X181593064Y-84734000D01*
X187419591Y-84734000D01*
X187452000Y-84737192D01*
X187484409Y-84734000D01*
X187484419Y-84734000D01*
X187581383Y-84724450D01*
X187705793Y-84686710D01*
X187820450Y-84625425D01*
X187920948Y-84542948D01*
X187941616Y-84517764D01*
X189165770Y-83293611D01*
X189190948Y-83272948D01*
X189211614Y-83247767D01*
X189273425Y-83172451D01*
X189294772Y-83132513D01*
X189334710Y-83057793D01*
X189372450Y-82933383D01*
X189382000Y-82836419D01*
X189382000Y-82836410D01*
X189385192Y-82804001D01*
X189382000Y-82771592D01*
X189382000Y-71660408D01*
X189385192Y-71627999D01*
X189382000Y-71595590D01*
X189382000Y-71595581D01*
X189372450Y-71498617D01*
X189334710Y-71374207D01*
X189273426Y-71259551D01*
X189273425Y-71259549D01*
X189211614Y-71184233D01*
X189211612Y-71184231D01*
X189190948Y-71159052D01*
X189165769Y-71138388D01*
X187941616Y-69914236D01*
X187920948Y-69889052D01*
X187820450Y-69806575D01*
X187705793Y-69745290D01*
X187581383Y-69707550D01*
X187484419Y-69698000D01*
X187484409Y-69698000D01*
X187452000Y-69694808D01*
X187419591Y-69698000D01*
X183130010Y-69698000D01*
X183182472Y-69599850D01*
X183233008Y-69433254D01*
X183250072Y-69260000D01*
X183250072Y-68335000D01*
X183233008Y-68161746D01*
X183182472Y-67995150D01*
X183100405Y-67841614D01*
X182989962Y-67707038D01*
X182855386Y-67596595D01*
X182701850Y-67514528D01*
X182535254Y-67463992D01*
X182362000Y-67446928D01*
X181112000Y-67446928D01*
X180938746Y-67463992D01*
X180772150Y-67514528D01*
X180618614Y-67596595D01*
X180484038Y-67707038D01*
X180373595Y-67841614D01*
X180291528Y-67995150D01*
X180240992Y-68161746D01*
X180223928Y-68335000D01*
X180223928Y-69260000D01*
X180240992Y-69433254D01*
X180291528Y-69599850D01*
X180343990Y-69698000D01*
X178206000Y-69698000D01*
X178206000Y-66535000D01*
X180223928Y-66535000D01*
X180236188Y-66659482D01*
X180272498Y-66779180D01*
X180331463Y-66889494D01*
X180410815Y-66986185D01*
X180507506Y-67065537D01*
X180617820Y-67124502D01*
X180737518Y-67160812D01*
X180862000Y-67173072D01*
X181451250Y-67170000D01*
X181610000Y-67011250D01*
X181610000Y-65949500D01*
X181864000Y-65949500D01*
X181864000Y-67011250D01*
X182022750Y-67170000D01*
X182612000Y-67173072D01*
X182736482Y-67160812D01*
X182856180Y-67124502D01*
X182966494Y-67065537D01*
X183063185Y-66986185D01*
X183142537Y-66889494D01*
X183201502Y-66779180D01*
X183237812Y-66659482D01*
X183250072Y-66535000D01*
X183247000Y-66108250D01*
X183088250Y-65949500D01*
X181864000Y-65949500D01*
X181610000Y-65949500D01*
X180385750Y-65949500D01*
X180227000Y-66108250D01*
X180223928Y-66535000D01*
X178206000Y-66535000D01*
X178206000Y-64922000D01*
X180255456Y-64922000D01*
X180236188Y-64985518D01*
X180223928Y-65110000D01*
X180227000Y-65536750D01*
X180385750Y-65695500D01*
X181610000Y-65695500D01*
X181610000Y-65675500D01*
X181864000Y-65675500D01*
X181864000Y-65695500D01*
X183088250Y-65695500D01*
X183247000Y-65536750D01*
X183250072Y-65110000D01*
X183237812Y-64985518D01*
X183218544Y-64922000D01*
X187419591Y-64922000D01*
X187452000Y-64925192D01*
X187484409Y-64922000D01*
X187484419Y-64922000D01*
X187581383Y-64912450D01*
X187705793Y-64874710D01*
X187820450Y-64813425D01*
X187920948Y-64730948D01*
X187941616Y-64705764D01*
X189165770Y-63481611D01*
X189190948Y-63460948D01*
X189211614Y-63435767D01*
X189273425Y-63360451D01*
X189294772Y-63320513D01*
X189334710Y-63245793D01*
X189372450Y-63121383D01*
X189382000Y-63024419D01*
X189382000Y-63024410D01*
X189385192Y-62992001D01*
X189382000Y-62959592D01*
X189382000Y-60344380D01*
X190308770Y-59417611D01*
X190333948Y-59396948D01*
X190354614Y-59371767D01*
X190416425Y-59296451D01*
X190477710Y-59181793D01*
X190477710Y-59181792D01*
X190515450Y-59057383D01*
X190525000Y-58960419D01*
X190525000Y-58960410D01*
X190528192Y-58928001D01*
X190525000Y-58895592D01*
X190525000Y-55023408D01*
X190528192Y-54990999D01*
X190525000Y-54958590D01*
X190525000Y-54958581D01*
X190515450Y-54861617D01*
X190477710Y-54737207D01*
X190416425Y-54622550D01*
X190333948Y-54522052D01*
X190308769Y-54501388D01*
X189128000Y-53320620D01*
X189128000Y-51848408D01*
X189131192Y-51815999D01*
X189128000Y-51783590D01*
X189128000Y-51783581D01*
X189118450Y-51686617D01*
X189080710Y-51562207D01*
X189040772Y-51487487D01*
X189019425Y-51447549D01*
X188957614Y-51372233D01*
X188957612Y-51372231D01*
X188936948Y-51347052D01*
X188911769Y-51326388D01*
X187687616Y-50102236D01*
X187666948Y-50077052D01*
X187566450Y-49994575D01*
X187451793Y-49933290D01*
X187327383Y-49895550D01*
X187230419Y-49886000D01*
X187230409Y-49886000D01*
X187198000Y-49882808D01*
X187165591Y-49886000D01*
X183003010Y-49886000D01*
X183055472Y-49787850D01*
X183106008Y-49621254D01*
X183123072Y-49448000D01*
X183123072Y-48523000D01*
X183106008Y-48349746D01*
X183055472Y-48183150D01*
X182973405Y-48029614D01*
X182862962Y-47895038D01*
X182728386Y-47784595D01*
X182574850Y-47702528D01*
X182408254Y-47651992D01*
X182235000Y-47634928D01*
X180985000Y-47634928D01*
X180811746Y-47651992D01*
X180645150Y-47702528D01*
X180491614Y-47784595D01*
X180357038Y-47895038D01*
X180246595Y-48029614D01*
X180164528Y-48183150D01*
X180113992Y-48349746D01*
X180096928Y-48523000D01*
X180096928Y-49448000D01*
X180113992Y-49621254D01*
X180164528Y-49787850D01*
X180216990Y-49886000D01*
X178206000Y-49886000D01*
X178206000Y-46723000D01*
X180096928Y-46723000D01*
X180109188Y-46847482D01*
X180145498Y-46967180D01*
X180204463Y-47077494D01*
X180283815Y-47174185D01*
X180380506Y-47253537D01*
X180490820Y-47312502D01*
X180610518Y-47348812D01*
X180735000Y-47361072D01*
X181324250Y-47358000D01*
X181483000Y-47199250D01*
X181483000Y-46137500D01*
X181737000Y-46137500D01*
X181737000Y-47199250D01*
X181895750Y-47358000D01*
X182485000Y-47361072D01*
X182609482Y-47348812D01*
X182729180Y-47312502D01*
X182839494Y-47253537D01*
X182936185Y-47174185D01*
X183015537Y-47077494D01*
X183074502Y-46967180D01*
X183110812Y-46847482D01*
X183123072Y-46723000D01*
X183120000Y-46296250D01*
X182961250Y-46137500D01*
X181737000Y-46137500D01*
X181483000Y-46137500D01*
X180258750Y-46137500D01*
X180100000Y-46296250D01*
X180096928Y-46723000D01*
X178206000Y-46723000D01*
X178206000Y-45110000D01*
X180128456Y-45110000D01*
X180109188Y-45173518D01*
X180096928Y-45298000D01*
X180100000Y-45724750D01*
X180258750Y-45883500D01*
X181483000Y-45883500D01*
X181483000Y-45863500D01*
X181737000Y-45863500D01*
X181737000Y-45883500D01*
X182961250Y-45883500D01*
X183120000Y-45724750D01*
X183123072Y-45298000D01*
X183110812Y-45173518D01*
X183091544Y-45110000D01*
X187165591Y-45110000D01*
X187198000Y-45113192D01*
X187230409Y-45110000D01*
X187230419Y-45110000D01*
X187327383Y-45100450D01*
X187451793Y-45062710D01*
X187566450Y-45001425D01*
X187666948Y-44918948D01*
X187687616Y-44893764D01*
X188503928Y-44077453D01*
X188503928Y-44284000D01*
X188516188Y-44408482D01*
X188552498Y-44528180D01*
X188611463Y-44638494D01*
X188690815Y-44735185D01*
X188787506Y-44814537D01*
X188897820Y-44873502D01*
X189017518Y-44909812D01*
X189142000Y-44922072D01*
X190842000Y-44922072D01*
X190966482Y-44909812D01*
X191086180Y-44873502D01*
X191196494Y-44814537D01*
X191293185Y-44735185D01*
X191372537Y-44638494D01*
X191431502Y-44528180D01*
X191453513Y-44455620D01*
X191585368Y-44587475D01*
X191828589Y-44749990D01*
X192098842Y-44861932D01*
X192385740Y-44919000D01*
X192678260Y-44919000D01*
X192965158Y-44861932D01*
X193235411Y-44749990D01*
X193478632Y-44587475D01*
X193685475Y-44380632D01*
X193802000Y-44206240D01*
X193918525Y-44380632D01*
X194125368Y-44587475D01*
X194368589Y-44749990D01*
X194638842Y-44861932D01*
X194925740Y-44919000D01*
X195218260Y-44919000D01*
X195505158Y-44861932D01*
X195775411Y-44749990D01*
X196018632Y-44587475D01*
X196225475Y-44380632D01*
X196387990Y-44137411D01*
X196499932Y-43867158D01*
X196557000Y-43580260D01*
X196557000Y-43287740D01*
X196499932Y-43000842D01*
X196387990Y-42730589D01*
X196225475Y-42487368D01*
X196018632Y-42280525D01*
X195775411Y-42118010D01*
X195505158Y-42006068D01*
X195218260Y-41949000D01*
X194925740Y-41949000D01*
X194638842Y-42006068D01*
X194368589Y-42118010D01*
X194125368Y-42280525D01*
X193918525Y-42487368D01*
X193802000Y-42661760D01*
X193685475Y-42487368D01*
X193478632Y-42280525D01*
X193235411Y-42118010D01*
X192965158Y-42006068D01*
X192678260Y-41949000D01*
X192385740Y-41949000D01*
X192098842Y-42006068D01*
X191828589Y-42118010D01*
X191585368Y-42280525D01*
X191453513Y-42412380D01*
X191431502Y-42339820D01*
X191372537Y-42229506D01*
X191293185Y-42132815D01*
X191196494Y-42053463D01*
X191086180Y-41994498D01*
X190966482Y-41958188D01*
X190842000Y-41945928D01*
X189142000Y-41945928D01*
X189128000Y-41947307D01*
X189128000Y-41808000D01*
X196571001Y-41808000D01*
X196571000Y-113457132D01*
M02*
