G04 #@! TF.GenerationSoftware,KiCad,Pcbnew,(5.1.6)-1*
G04 #@! TF.CreationDate,2020-07-05T02:04:56-07:00*
G04 #@! TF.ProjectId,daughter,64617567-6874-4657-922e-6b696361645f,rev?*
G04 #@! TF.SameCoordinates,Original*
G04 #@! TF.FileFunction,Profile,NP*
%FSLAX46Y46*%
G04 Gerber Fmt 4.6, Leading zero omitted, Abs format (unit mm)*
G04 Created by KiCad (PCBNEW (5.1.6)-1) date 2020-07-05 02:04:56*
%MOMM*%
%LPD*%
G01*
G04 APERTURE LIST*
G04 #@! TA.AperFunction,Profile*
%ADD10C,0.050000*%
G04 #@! TD*
G04 #@! TA.AperFunction,Profile*
%ADD11C,0.120000*%
G04 #@! TD*
G04 APERTURE END LIST*
D10*
X153670000Y-103886000D02*
X152400000Y-102616000D01*
X145478500Y-103886000D02*
X146748500Y-102616000D01*
X146748500Y-98044000D02*
X147701000Y-98044000D01*
X146748500Y-102552500D02*
X146748500Y-98044000D01*
X146748500Y-102552500D02*
X146748500Y-102616000D01*
X148336000Y-98044000D02*
X147701000Y-98044000D01*
X151130000Y-97345500D02*
X151130000Y-100838000D01*
X154495500Y-90170000D02*
X153225500Y-91440000D01*
X153225500Y-97345500D02*
X153225500Y-91440000D01*
X151130000Y-97345500D02*
X153225500Y-97345500D01*
X167005000Y-81851500D02*
X173355000Y-81851500D01*
X176022000Y-84074000D02*
X173355000Y-81851500D01*
X164338000Y-84074000D02*
X167005000Y-81851500D01*
X173672500Y-88455500D02*
X166687500Y-88455500D01*
X176022000Y-90170000D02*
X173672500Y-88455500D01*
X164338000Y-90170000D02*
X166687500Y-88455500D01*
X127381000Y-81851500D02*
X133731000Y-81851500D01*
X134048500Y-88455500D02*
X127063500Y-88455500D01*
X136398000Y-90170000D02*
X134048500Y-88455500D01*
X136398000Y-84074000D02*
X133731000Y-81851500D01*
X124714000Y-84074000D02*
X127381000Y-81851500D01*
X124714000Y-90170000D02*
X127063500Y-88455500D01*
X107950000Y-118110000D02*
X192786000Y-118110000D01*
X197231000Y-41148000D02*
X196596000Y-41148000D01*
X197231000Y-113665000D02*
X197231000Y-41148000D01*
X103505000Y-41402000D02*
X104140000Y-41402000D01*
X103505000Y-113665000D02*
X103505000Y-41402000D01*
D11*
X107950000Y-118110000D02*
G75*
G02*
X103505000Y-113665000I0J4445000D01*
G01*
X197231000Y-113665000D02*
G75*
G02*
X192786000Y-118110000I-4445000J0D01*
G01*
D10*
X188468000Y-41148000D02*
X196596000Y-41148000D01*
X188468000Y-43180000D02*
X188468000Y-41148000D01*
X187198000Y-44450000D02*
X188468000Y-43180000D01*
X177546000Y-44450000D02*
X187198000Y-44450000D01*
X177546000Y-50546000D02*
X177546000Y-44450000D01*
X187198000Y-50546000D02*
X177546000Y-50546000D01*
X188468000Y-51816000D02*
X187198000Y-50546000D01*
X188468000Y-53594000D02*
X188468000Y-51816000D01*
X189865000Y-54991000D02*
X188468000Y-53594000D01*
X189865000Y-58928000D02*
X189865000Y-54991000D01*
X188722000Y-60071000D02*
X189865000Y-58928000D01*
X188722000Y-62992000D02*
X188722000Y-60071000D01*
X187452000Y-64262000D02*
X188722000Y-62992000D01*
X177546000Y-64262000D02*
X187452000Y-64262000D01*
X177546000Y-70358000D02*
X177546000Y-64262000D01*
X187452000Y-70358000D02*
X177546000Y-70358000D01*
X188722000Y-71628000D02*
X187452000Y-70358000D01*
X188722000Y-82804000D02*
X188722000Y-71628000D01*
X187452000Y-84074000D02*
X188722000Y-82804000D01*
X176022000Y-84074000D02*
X187452000Y-84074000D01*
X187452000Y-90170000D02*
X176022000Y-90170000D01*
X188722000Y-91440000D02*
X187452000Y-90170000D01*
X188722000Y-102616000D02*
X188722000Y-91440000D01*
X187452000Y-103886000D02*
X188722000Y-102616000D01*
X172720000Y-103886000D02*
X187452000Y-103886000D01*
X171958000Y-104648000D02*
X172720000Y-103886000D01*
X168402000Y-104648000D02*
X171958000Y-104648000D01*
X167640000Y-103886000D02*
X168402000Y-104648000D01*
X153670000Y-103886000D02*
X167640000Y-103886000D01*
X152400000Y-100838000D02*
X152400000Y-102616000D01*
X151130000Y-100838000D02*
X152400000Y-100838000D01*
X164338000Y-90170000D02*
X154495500Y-90170000D01*
X136398000Y-84074000D02*
X164338000Y-84074000D01*
X147066000Y-90170000D02*
X136398000Y-90170000D01*
X148336000Y-91440000D02*
X147066000Y-90170000D01*
X148336000Y-98044000D02*
X148336000Y-91440000D01*
X133096000Y-103886000D02*
X145478500Y-103886000D01*
X132334000Y-104648000D02*
X133096000Y-103886000D01*
X128778000Y-104648000D02*
X132334000Y-104648000D01*
X128016000Y-103886000D02*
X128778000Y-104648000D01*
X112014000Y-103886000D02*
X128016000Y-103886000D01*
X110744000Y-102616000D02*
X112014000Y-103886000D01*
X110744000Y-91440000D02*
X110744000Y-102616000D01*
X112014000Y-90170000D02*
X110744000Y-91440000D01*
X124714000Y-90170000D02*
X112014000Y-90170000D01*
X112014000Y-84074000D02*
X124714000Y-84074000D01*
X110744000Y-82804000D02*
X112014000Y-84074000D01*
X110744000Y-71628000D02*
X110744000Y-82804000D01*
X112014000Y-70358000D02*
X110744000Y-71628000D01*
X122936000Y-70358000D02*
X112014000Y-70358000D01*
X122936000Y-64262000D02*
X122936000Y-70358000D01*
X112014000Y-64262000D02*
X122936000Y-64262000D01*
X110744000Y-62992000D02*
X112014000Y-64262000D01*
X110744000Y-62230000D02*
X110744000Y-62992000D01*
X109474000Y-60960000D02*
X110744000Y-62230000D01*
X109474000Y-57912000D02*
X109474000Y-60960000D01*
X110744000Y-56642000D02*
X109474000Y-57912000D01*
X110744000Y-50292000D02*
X110744000Y-56642000D01*
X111252000Y-49784000D02*
X110744000Y-50292000D01*
X114046000Y-49784000D02*
X111252000Y-49784000D01*
X114808000Y-50546000D02*
X114046000Y-49784000D01*
X122936000Y-50546000D02*
X114808000Y-50546000D01*
X122936000Y-44450000D02*
X122936000Y-50546000D01*
X113284000Y-44450000D02*
X122936000Y-44450000D01*
X112014000Y-43180000D02*
X113284000Y-44450000D01*
X112014000Y-41402000D02*
X112014000Y-43180000D01*
X104140000Y-41402000D02*
X112014000Y-41402000D01*
M02*
