G04 #@! TF.GenerationSoftware,KiCad,Pcbnew,(5.1.6)-1*
G04 #@! TF.CreationDate,2020-07-05T02:04:56-07:00*
G04 #@! TF.ProjectId,daughter,64617567-6874-4657-922e-6b696361645f,rev?*
G04 #@! TF.SameCoordinates,Original*
G04 #@! TF.FileFunction,Soldermask,Bot*
G04 #@! TF.FilePolarity,Negative*
%FSLAX46Y46*%
G04 Gerber Fmt 4.6, Leading zero omitted, Abs format (unit mm)*
G04 Created by KiCad (PCBNEW (5.1.6)-1) date 2020-07-05 02:04:56*
%MOMM*%
%LPD*%
G01*
G04 APERTURE LIST*
G04 #@! TA.AperFunction,Profile*
%ADD10C,0.050000*%
G04 #@! TD*
G04 #@! TA.AperFunction,Profile*
%ADD11C,0.120000*%
G04 #@! TD*
%ADD12C,0.100000*%
G04 APERTURE END LIST*
D10*
X153670000Y-103886000D02*
X152400000Y-102616000D01*
X145478500Y-103886000D02*
X146748500Y-102616000D01*
X146748500Y-98044000D02*
X147701000Y-98044000D01*
X146748500Y-102552500D02*
X146748500Y-98044000D01*
X146748500Y-102552500D02*
X146748500Y-102616000D01*
X148336000Y-98044000D02*
X147701000Y-98044000D01*
X151130000Y-97345500D02*
X151130000Y-100838000D01*
X154495500Y-90170000D02*
X153225500Y-91440000D01*
X153225500Y-97345500D02*
X153225500Y-91440000D01*
X151130000Y-97345500D02*
X153225500Y-97345500D01*
X167005000Y-81851500D02*
X173355000Y-81851500D01*
X176022000Y-84074000D02*
X173355000Y-81851500D01*
X164338000Y-84074000D02*
X167005000Y-81851500D01*
X173672500Y-88455500D02*
X166687500Y-88455500D01*
X176022000Y-90170000D02*
X173672500Y-88455500D01*
X164338000Y-90170000D02*
X166687500Y-88455500D01*
X127381000Y-81851500D02*
X133731000Y-81851500D01*
X134048500Y-88455500D02*
X127063500Y-88455500D01*
X136398000Y-90170000D02*
X134048500Y-88455500D01*
X136398000Y-84074000D02*
X133731000Y-81851500D01*
X124714000Y-84074000D02*
X127381000Y-81851500D01*
X124714000Y-90170000D02*
X127063500Y-88455500D01*
X107950000Y-118110000D02*
X192786000Y-118110000D01*
X197231000Y-41148000D02*
X196596000Y-41148000D01*
X197231000Y-113665000D02*
X197231000Y-41148000D01*
X103505000Y-41402000D02*
X104140000Y-41402000D01*
X103505000Y-113665000D02*
X103505000Y-41402000D01*
D11*
X107950000Y-118110000D02*
G75*
G02*
X103505000Y-113665000I0J4445000D01*
G01*
X197231000Y-113665000D02*
G75*
G02*
X192786000Y-118110000I-4445000J0D01*
G01*
D10*
X188468000Y-41148000D02*
X196596000Y-41148000D01*
X188468000Y-43180000D02*
X188468000Y-41148000D01*
X187198000Y-44450000D02*
X188468000Y-43180000D01*
X177546000Y-44450000D02*
X187198000Y-44450000D01*
X177546000Y-50546000D02*
X177546000Y-44450000D01*
X187198000Y-50546000D02*
X177546000Y-50546000D01*
X188468000Y-51816000D02*
X187198000Y-50546000D01*
X188468000Y-53594000D02*
X188468000Y-51816000D01*
X189865000Y-54991000D02*
X188468000Y-53594000D01*
X189865000Y-58928000D02*
X189865000Y-54991000D01*
X188722000Y-60071000D02*
X189865000Y-58928000D01*
X188722000Y-62992000D02*
X188722000Y-60071000D01*
X187452000Y-64262000D02*
X188722000Y-62992000D01*
X177546000Y-64262000D02*
X187452000Y-64262000D01*
X177546000Y-70358000D02*
X177546000Y-64262000D01*
X187452000Y-70358000D02*
X177546000Y-70358000D01*
X188722000Y-71628000D02*
X187452000Y-70358000D01*
X188722000Y-82804000D02*
X188722000Y-71628000D01*
X187452000Y-84074000D02*
X188722000Y-82804000D01*
X176022000Y-84074000D02*
X187452000Y-84074000D01*
X187452000Y-90170000D02*
X176022000Y-90170000D01*
X188722000Y-91440000D02*
X187452000Y-90170000D01*
X188722000Y-102616000D02*
X188722000Y-91440000D01*
X187452000Y-103886000D02*
X188722000Y-102616000D01*
X172720000Y-103886000D02*
X187452000Y-103886000D01*
X171958000Y-104648000D02*
X172720000Y-103886000D01*
X168402000Y-104648000D02*
X171958000Y-104648000D01*
X167640000Y-103886000D02*
X168402000Y-104648000D01*
X153670000Y-103886000D02*
X167640000Y-103886000D01*
X152400000Y-100838000D02*
X152400000Y-102616000D01*
X151130000Y-100838000D02*
X152400000Y-100838000D01*
X164338000Y-90170000D02*
X154495500Y-90170000D01*
X136398000Y-84074000D02*
X164338000Y-84074000D01*
X147066000Y-90170000D02*
X136398000Y-90170000D01*
X148336000Y-91440000D02*
X147066000Y-90170000D01*
X148336000Y-98044000D02*
X148336000Y-91440000D01*
X133096000Y-103886000D02*
X145478500Y-103886000D01*
X132334000Y-104648000D02*
X133096000Y-103886000D01*
X128778000Y-104648000D02*
X132334000Y-104648000D01*
X128016000Y-103886000D02*
X128778000Y-104648000D01*
X112014000Y-103886000D02*
X128016000Y-103886000D01*
X110744000Y-102616000D02*
X112014000Y-103886000D01*
X110744000Y-91440000D02*
X110744000Y-102616000D01*
X112014000Y-90170000D02*
X110744000Y-91440000D01*
X124714000Y-90170000D02*
X112014000Y-90170000D01*
X112014000Y-84074000D02*
X124714000Y-84074000D01*
X110744000Y-82804000D02*
X112014000Y-84074000D01*
X110744000Y-71628000D02*
X110744000Y-82804000D01*
X112014000Y-70358000D02*
X110744000Y-71628000D01*
X122936000Y-70358000D02*
X112014000Y-70358000D01*
X122936000Y-64262000D02*
X122936000Y-70358000D01*
X112014000Y-64262000D02*
X122936000Y-64262000D01*
X110744000Y-62992000D02*
X112014000Y-64262000D01*
X110744000Y-62230000D02*
X110744000Y-62992000D01*
X109474000Y-60960000D02*
X110744000Y-62230000D01*
X109474000Y-57912000D02*
X109474000Y-60960000D01*
X110744000Y-56642000D02*
X109474000Y-57912000D01*
X110744000Y-50292000D02*
X110744000Y-56642000D01*
X111252000Y-49784000D02*
X110744000Y-50292000D01*
X114046000Y-49784000D02*
X111252000Y-49784000D01*
X114808000Y-50546000D02*
X114046000Y-49784000D01*
X122936000Y-50546000D02*
X114808000Y-50546000D01*
X122936000Y-44450000D02*
X122936000Y-50546000D01*
X113284000Y-44450000D02*
X122936000Y-44450000D01*
X112014000Y-43180000D02*
X113284000Y-44450000D01*
X112014000Y-41402000D02*
X112014000Y-43180000D01*
X104140000Y-41402000D02*
X112014000Y-41402000D01*
D12*
G36*
X193161256Y-112056298D02*
G01*
X193267579Y-112077447D01*
X193568042Y-112201903D01*
X193838451Y-112382585D01*
X194068415Y-112612549D01*
X194249097Y-112882958D01*
X194373553Y-113183421D01*
X194437000Y-113502391D01*
X194437000Y-113827609D01*
X194373553Y-114146579D01*
X194249097Y-114447042D01*
X194068415Y-114717451D01*
X193838451Y-114947415D01*
X193568042Y-115128097D01*
X193267579Y-115252553D01*
X193161256Y-115273702D01*
X192948611Y-115316000D01*
X192623389Y-115316000D01*
X192410744Y-115273702D01*
X192304421Y-115252553D01*
X192003958Y-115128097D01*
X191733549Y-114947415D01*
X191503585Y-114717451D01*
X191322903Y-114447042D01*
X191198447Y-114146579D01*
X191135000Y-113827609D01*
X191135000Y-113502391D01*
X191198447Y-113183421D01*
X191322903Y-112882958D01*
X191503585Y-112612549D01*
X191733549Y-112382585D01*
X192003958Y-112201903D01*
X192304421Y-112077447D01*
X192410744Y-112056298D01*
X192623389Y-112014000D01*
X192948611Y-112014000D01*
X193161256Y-112056298D01*
G37*
G36*
X108325256Y-112056298D02*
G01*
X108431579Y-112077447D01*
X108732042Y-112201903D01*
X109002451Y-112382585D01*
X109232415Y-112612549D01*
X109413097Y-112882958D01*
X109537553Y-113183421D01*
X109601000Y-113502391D01*
X109601000Y-113827609D01*
X109537553Y-114146579D01*
X109413097Y-114447042D01*
X109232415Y-114717451D01*
X109002451Y-114947415D01*
X108732042Y-115128097D01*
X108431579Y-115252553D01*
X108325256Y-115273702D01*
X108112611Y-115316000D01*
X107787389Y-115316000D01*
X107574744Y-115273702D01*
X107468421Y-115252553D01*
X107167958Y-115128097D01*
X106897549Y-114947415D01*
X106667585Y-114717451D01*
X106486903Y-114447042D01*
X106362447Y-114146579D01*
X106299000Y-113827609D01*
X106299000Y-113502391D01*
X106362447Y-113183421D01*
X106486903Y-112882958D01*
X106667585Y-112612549D01*
X106897549Y-112382585D01*
X107167958Y-112201903D01*
X107468421Y-112077447D01*
X107574744Y-112056298D01*
X107787389Y-112014000D01*
X108112611Y-112014000D01*
X108325256Y-112056298D01*
G37*
G36*
X141237562Y-107698681D02*
G01*
X141272481Y-107709274D01*
X141304663Y-107726476D01*
X141332873Y-107749627D01*
X141356024Y-107777837D01*
X141373226Y-107810019D01*
X141383819Y-107844938D01*
X141388000Y-107887395D01*
X141388000Y-109028605D01*
X141383819Y-109071062D01*
X141373226Y-109105981D01*
X141356024Y-109138163D01*
X141332873Y-109166373D01*
X141304663Y-109189524D01*
X141272481Y-109206726D01*
X141237562Y-109217319D01*
X141195105Y-109221500D01*
X139728895Y-109221500D01*
X139686438Y-109217319D01*
X139651519Y-109206726D01*
X139619337Y-109189524D01*
X139591127Y-109166373D01*
X139567976Y-109138163D01*
X139550774Y-109105981D01*
X139540181Y-109071062D01*
X139536000Y-109028605D01*
X139536000Y-107887395D01*
X139540181Y-107844938D01*
X139550774Y-107810019D01*
X139567976Y-107777837D01*
X139591127Y-107749627D01*
X139619337Y-107726476D01*
X139651519Y-107709274D01*
X139686438Y-107698681D01*
X139728895Y-107694500D01*
X141195105Y-107694500D01*
X141237562Y-107698681D01*
G37*
G36*
X161049562Y-107662181D02*
G01*
X161084481Y-107672774D01*
X161116663Y-107689976D01*
X161144873Y-107713127D01*
X161168024Y-107741337D01*
X161185226Y-107773519D01*
X161195819Y-107808438D01*
X161200000Y-107850895D01*
X161200000Y-108992105D01*
X161195819Y-109034562D01*
X161185226Y-109069481D01*
X161168024Y-109101663D01*
X161144873Y-109129873D01*
X161116663Y-109153024D01*
X161084481Y-109170226D01*
X161049562Y-109180819D01*
X161007105Y-109185000D01*
X159540895Y-109185000D01*
X159498438Y-109180819D01*
X159463519Y-109170226D01*
X159431337Y-109153024D01*
X159403127Y-109129873D01*
X159379976Y-109101663D01*
X159362774Y-109069481D01*
X159352181Y-109034562D01*
X159348000Y-108992105D01*
X159348000Y-107850895D01*
X159352181Y-107808438D01*
X159362774Y-107773519D01*
X159379976Y-107741337D01*
X159403127Y-107713127D01*
X159431337Y-107689976D01*
X159463519Y-107672774D01*
X159498438Y-107662181D01*
X159540895Y-107658000D01*
X161007105Y-107658000D01*
X161049562Y-107662181D01*
G37*
G36*
X121425562Y-107662181D02*
G01*
X121460481Y-107672774D01*
X121492663Y-107689976D01*
X121520873Y-107713127D01*
X121544024Y-107741337D01*
X121561226Y-107773519D01*
X121571819Y-107808438D01*
X121576000Y-107850895D01*
X121576000Y-108992105D01*
X121571819Y-109034562D01*
X121561226Y-109069481D01*
X121544024Y-109101663D01*
X121520873Y-109129873D01*
X121492663Y-109153024D01*
X121460481Y-109170226D01*
X121425562Y-109180819D01*
X121383105Y-109185000D01*
X119916895Y-109185000D01*
X119874438Y-109180819D01*
X119839519Y-109170226D01*
X119807337Y-109153024D01*
X119779127Y-109129873D01*
X119755976Y-109101663D01*
X119738774Y-109069481D01*
X119728181Y-109034562D01*
X119724000Y-108992105D01*
X119724000Y-107850895D01*
X119728181Y-107808438D01*
X119738774Y-107773519D01*
X119755976Y-107741337D01*
X119779127Y-107713127D01*
X119807337Y-107689976D01*
X119839519Y-107672774D01*
X119874438Y-107662181D01*
X119916895Y-107658000D01*
X121383105Y-107658000D01*
X121425562Y-107662181D01*
G37*
G36*
X180861562Y-107662181D02*
G01*
X180896481Y-107672774D01*
X180928663Y-107689976D01*
X180956873Y-107713127D01*
X180980024Y-107741337D01*
X180997226Y-107773519D01*
X181007819Y-107808438D01*
X181012000Y-107850895D01*
X181012000Y-108992105D01*
X181007819Y-109034562D01*
X180997226Y-109069481D01*
X180980024Y-109101663D01*
X180956873Y-109129873D01*
X180928663Y-109153024D01*
X180896481Y-109170226D01*
X180861562Y-109180819D01*
X180819105Y-109185000D01*
X179352895Y-109185000D01*
X179310438Y-109180819D01*
X179275519Y-109170226D01*
X179243337Y-109153024D01*
X179215127Y-109129873D01*
X179191976Y-109101663D01*
X179174774Y-109069481D01*
X179164181Y-109034562D01*
X179160000Y-108992105D01*
X179160000Y-107850895D01*
X179164181Y-107808438D01*
X179174774Y-107773519D01*
X179191976Y-107741337D01*
X179215127Y-107713127D01*
X179243337Y-107689976D01*
X179275519Y-107672774D01*
X179310438Y-107662181D01*
X179352895Y-107658000D01*
X180819105Y-107658000D01*
X180861562Y-107662181D01*
G37*
G36*
X141237562Y-104723681D02*
G01*
X141272481Y-104734274D01*
X141304663Y-104751476D01*
X141332873Y-104774627D01*
X141356024Y-104802837D01*
X141373226Y-104835019D01*
X141383819Y-104869938D01*
X141388000Y-104912395D01*
X141388000Y-106053605D01*
X141383819Y-106096062D01*
X141373226Y-106130981D01*
X141356024Y-106163163D01*
X141332873Y-106191373D01*
X141304663Y-106214524D01*
X141272481Y-106231726D01*
X141237562Y-106242319D01*
X141195105Y-106246500D01*
X139728895Y-106246500D01*
X139686438Y-106242319D01*
X139651519Y-106231726D01*
X139619337Y-106214524D01*
X139591127Y-106191373D01*
X139567976Y-106163163D01*
X139550774Y-106130981D01*
X139540181Y-106096062D01*
X139536000Y-106053605D01*
X139536000Y-104912395D01*
X139540181Y-104869938D01*
X139550774Y-104835019D01*
X139567976Y-104802837D01*
X139591127Y-104774627D01*
X139619337Y-104751476D01*
X139651519Y-104734274D01*
X139686438Y-104723681D01*
X139728895Y-104719500D01*
X141195105Y-104719500D01*
X141237562Y-104723681D01*
G37*
G36*
X180861562Y-104687181D02*
G01*
X180896481Y-104697774D01*
X180928663Y-104714976D01*
X180956873Y-104738127D01*
X180980024Y-104766337D01*
X180997226Y-104798519D01*
X181007819Y-104833438D01*
X181012000Y-104875895D01*
X181012000Y-106017105D01*
X181007819Y-106059562D01*
X180997226Y-106094481D01*
X180980024Y-106126663D01*
X180956873Y-106154873D01*
X180928663Y-106178024D01*
X180896481Y-106195226D01*
X180861562Y-106205819D01*
X180819105Y-106210000D01*
X179352895Y-106210000D01*
X179310438Y-106205819D01*
X179275519Y-106195226D01*
X179243337Y-106178024D01*
X179215127Y-106154873D01*
X179191976Y-106126663D01*
X179174774Y-106094481D01*
X179164181Y-106059562D01*
X179160000Y-106017105D01*
X179160000Y-104875895D01*
X179164181Y-104833438D01*
X179174774Y-104798519D01*
X179191976Y-104766337D01*
X179215127Y-104738127D01*
X179243337Y-104714976D01*
X179275519Y-104697774D01*
X179310438Y-104687181D01*
X179352895Y-104683000D01*
X180819105Y-104683000D01*
X180861562Y-104687181D01*
G37*
G36*
X161049562Y-104687181D02*
G01*
X161084481Y-104697774D01*
X161116663Y-104714976D01*
X161144873Y-104738127D01*
X161168024Y-104766337D01*
X161185226Y-104798519D01*
X161195819Y-104833438D01*
X161200000Y-104875895D01*
X161200000Y-106017105D01*
X161195819Y-106059562D01*
X161185226Y-106094481D01*
X161168024Y-106126663D01*
X161144873Y-106154873D01*
X161116663Y-106178024D01*
X161084481Y-106195226D01*
X161049562Y-106205819D01*
X161007105Y-106210000D01*
X159540895Y-106210000D01*
X159498438Y-106205819D01*
X159463519Y-106195226D01*
X159431337Y-106178024D01*
X159403127Y-106154873D01*
X159379976Y-106126663D01*
X159362774Y-106094481D01*
X159352181Y-106059562D01*
X159348000Y-106017105D01*
X159348000Y-104875895D01*
X159352181Y-104833438D01*
X159362774Y-104798519D01*
X159379976Y-104766337D01*
X159403127Y-104738127D01*
X159431337Y-104714976D01*
X159463519Y-104697774D01*
X159498438Y-104687181D01*
X159540895Y-104683000D01*
X161007105Y-104683000D01*
X161049562Y-104687181D01*
G37*
G36*
X121425562Y-104687181D02*
G01*
X121460481Y-104697774D01*
X121492663Y-104714976D01*
X121520873Y-104738127D01*
X121544024Y-104766337D01*
X121561226Y-104798519D01*
X121571819Y-104833438D01*
X121576000Y-104875895D01*
X121576000Y-106017105D01*
X121571819Y-106059562D01*
X121561226Y-106094481D01*
X121544024Y-106126663D01*
X121520873Y-106154873D01*
X121492663Y-106178024D01*
X121460481Y-106195226D01*
X121425562Y-106205819D01*
X121383105Y-106210000D01*
X119916895Y-106210000D01*
X119874438Y-106205819D01*
X119839519Y-106195226D01*
X119807337Y-106178024D01*
X119779127Y-106154873D01*
X119755976Y-106126663D01*
X119738774Y-106094481D01*
X119728181Y-106059562D01*
X119724000Y-106017105D01*
X119724000Y-104875895D01*
X119728181Y-104833438D01*
X119738774Y-104798519D01*
X119755976Y-104766337D01*
X119779127Y-104738127D01*
X119807337Y-104714976D01*
X119839519Y-104697774D01*
X119874438Y-104687181D01*
X119916895Y-104683000D01*
X121383105Y-104683000D01*
X121425562Y-104687181D01*
G37*
G36*
X160922562Y-87850181D02*
G01*
X160957481Y-87860774D01*
X160989663Y-87877976D01*
X161017873Y-87901127D01*
X161041024Y-87929337D01*
X161058226Y-87961519D01*
X161068819Y-87996438D01*
X161073000Y-88038895D01*
X161073000Y-89180105D01*
X161068819Y-89222562D01*
X161058226Y-89257481D01*
X161041024Y-89289663D01*
X161017873Y-89317873D01*
X160989663Y-89341024D01*
X160957481Y-89358226D01*
X160922562Y-89368819D01*
X160880105Y-89373000D01*
X159413895Y-89373000D01*
X159371438Y-89368819D01*
X159336519Y-89358226D01*
X159304337Y-89341024D01*
X159276127Y-89317873D01*
X159252976Y-89289663D01*
X159235774Y-89257481D01*
X159225181Y-89222562D01*
X159221000Y-89180105D01*
X159221000Y-88038895D01*
X159225181Y-87996438D01*
X159235774Y-87961519D01*
X159252976Y-87929337D01*
X159276127Y-87901127D01*
X159304337Y-87877976D01*
X159336519Y-87860774D01*
X159371438Y-87850181D01*
X159413895Y-87846000D01*
X160880105Y-87846000D01*
X160922562Y-87850181D01*
G37*
G36*
X121425562Y-87850181D02*
G01*
X121460481Y-87860774D01*
X121492663Y-87877976D01*
X121520873Y-87901127D01*
X121544024Y-87929337D01*
X121561226Y-87961519D01*
X121571819Y-87996438D01*
X121576000Y-88038895D01*
X121576000Y-89180105D01*
X121571819Y-89222562D01*
X121561226Y-89257481D01*
X121544024Y-89289663D01*
X121520873Y-89317873D01*
X121492663Y-89341024D01*
X121460481Y-89358226D01*
X121425562Y-89368819D01*
X121383105Y-89373000D01*
X119916895Y-89373000D01*
X119874438Y-89368819D01*
X119839519Y-89358226D01*
X119807337Y-89341024D01*
X119779127Y-89317873D01*
X119755976Y-89289663D01*
X119738774Y-89257481D01*
X119728181Y-89222562D01*
X119724000Y-89180105D01*
X119724000Y-88038895D01*
X119728181Y-87996438D01*
X119738774Y-87961519D01*
X119755976Y-87929337D01*
X119779127Y-87901127D01*
X119807337Y-87877976D01*
X119839519Y-87860774D01*
X119874438Y-87850181D01*
X119916895Y-87846000D01*
X121383105Y-87846000D01*
X121425562Y-87850181D01*
G37*
G36*
X141110562Y-87850181D02*
G01*
X141145481Y-87860774D01*
X141177663Y-87877976D01*
X141205873Y-87901127D01*
X141229024Y-87929337D01*
X141246226Y-87961519D01*
X141256819Y-87996438D01*
X141261000Y-88038895D01*
X141261000Y-89180105D01*
X141256819Y-89222562D01*
X141246226Y-89257481D01*
X141229024Y-89289663D01*
X141205873Y-89317873D01*
X141177663Y-89341024D01*
X141145481Y-89358226D01*
X141110562Y-89368819D01*
X141068105Y-89373000D01*
X139601895Y-89373000D01*
X139559438Y-89368819D01*
X139524519Y-89358226D01*
X139492337Y-89341024D01*
X139464127Y-89317873D01*
X139440976Y-89289663D01*
X139423774Y-89257481D01*
X139413181Y-89222562D01*
X139409000Y-89180105D01*
X139409000Y-88038895D01*
X139413181Y-87996438D01*
X139423774Y-87961519D01*
X139440976Y-87929337D01*
X139464127Y-87901127D01*
X139492337Y-87877976D01*
X139524519Y-87860774D01*
X139559438Y-87850181D01*
X139601895Y-87846000D01*
X141068105Y-87846000D01*
X141110562Y-87850181D01*
G37*
G36*
X180861562Y-87723181D02*
G01*
X180896481Y-87733774D01*
X180928663Y-87750976D01*
X180956873Y-87774127D01*
X180980024Y-87802337D01*
X180997226Y-87834519D01*
X181007819Y-87869438D01*
X181012000Y-87911895D01*
X181012000Y-89053105D01*
X181007819Y-89095562D01*
X180997226Y-89130481D01*
X180980024Y-89162663D01*
X180956873Y-89190873D01*
X180928663Y-89214024D01*
X180896481Y-89231226D01*
X180861562Y-89241819D01*
X180819105Y-89246000D01*
X179352895Y-89246000D01*
X179310438Y-89241819D01*
X179275519Y-89231226D01*
X179243337Y-89214024D01*
X179215127Y-89190873D01*
X179191976Y-89162663D01*
X179174774Y-89130481D01*
X179164181Y-89095562D01*
X179160000Y-89053105D01*
X179160000Y-87911895D01*
X179164181Y-87869438D01*
X179174774Y-87834519D01*
X179191976Y-87802337D01*
X179215127Y-87774127D01*
X179243337Y-87750976D01*
X179275519Y-87733774D01*
X179310438Y-87723181D01*
X179352895Y-87719000D01*
X180819105Y-87719000D01*
X180861562Y-87723181D01*
G37*
G36*
X121425562Y-84875181D02*
G01*
X121460481Y-84885774D01*
X121492663Y-84902976D01*
X121520873Y-84926127D01*
X121544024Y-84954337D01*
X121561226Y-84986519D01*
X121571819Y-85021438D01*
X121576000Y-85063895D01*
X121576000Y-86205105D01*
X121571819Y-86247562D01*
X121561226Y-86282481D01*
X121544024Y-86314663D01*
X121520873Y-86342873D01*
X121492663Y-86366024D01*
X121460481Y-86383226D01*
X121425562Y-86393819D01*
X121383105Y-86398000D01*
X119916895Y-86398000D01*
X119874438Y-86393819D01*
X119839519Y-86383226D01*
X119807337Y-86366024D01*
X119779127Y-86342873D01*
X119755976Y-86314663D01*
X119738774Y-86282481D01*
X119728181Y-86247562D01*
X119724000Y-86205105D01*
X119724000Y-85063895D01*
X119728181Y-85021438D01*
X119738774Y-84986519D01*
X119755976Y-84954337D01*
X119779127Y-84926127D01*
X119807337Y-84902976D01*
X119839519Y-84885774D01*
X119874438Y-84875181D01*
X119916895Y-84871000D01*
X121383105Y-84871000D01*
X121425562Y-84875181D01*
G37*
G36*
X160922562Y-84875181D02*
G01*
X160957481Y-84885774D01*
X160989663Y-84902976D01*
X161017873Y-84926127D01*
X161041024Y-84954337D01*
X161058226Y-84986519D01*
X161068819Y-85021438D01*
X161073000Y-85063895D01*
X161073000Y-86205105D01*
X161068819Y-86247562D01*
X161058226Y-86282481D01*
X161041024Y-86314663D01*
X161017873Y-86342873D01*
X160989663Y-86366024D01*
X160957481Y-86383226D01*
X160922562Y-86393819D01*
X160880105Y-86398000D01*
X159413895Y-86398000D01*
X159371438Y-86393819D01*
X159336519Y-86383226D01*
X159304337Y-86366024D01*
X159276127Y-86342873D01*
X159252976Y-86314663D01*
X159235774Y-86282481D01*
X159225181Y-86247562D01*
X159221000Y-86205105D01*
X159221000Y-85063895D01*
X159225181Y-85021438D01*
X159235774Y-84986519D01*
X159252976Y-84954337D01*
X159276127Y-84926127D01*
X159304337Y-84902976D01*
X159336519Y-84885774D01*
X159371438Y-84875181D01*
X159413895Y-84871000D01*
X160880105Y-84871000D01*
X160922562Y-84875181D01*
G37*
G36*
X141110562Y-84875181D02*
G01*
X141145481Y-84885774D01*
X141177663Y-84902976D01*
X141205873Y-84926127D01*
X141229024Y-84954337D01*
X141246226Y-84986519D01*
X141256819Y-85021438D01*
X141261000Y-85063895D01*
X141261000Y-86205105D01*
X141256819Y-86247562D01*
X141246226Y-86282481D01*
X141229024Y-86314663D01*
X141205873Y-86342873D01*
X141177663Y-86366024D01*
X141145481Y-86383226D01*
X141110562Y-86393819D01*
X141068105Y-86398000D01*
X139601895Y-86398000D01*
X139559438Y-86393819D01*
X139524519Y-86383226D01*
X139492337Y-86366024D01*
X139464127Y-86342873D01*
X139440976Y-86314663D01*
X139423774Y-86282481D01*
X139413181Y-86247562D01*
X139409000Y-86205105D01*
X139409000Y-85063895D01*
X139413181Y-85021438D01*
X139423774Y-84986519D01*
X139440976Y-84954337D01*
X139464127Y-84926127D01*
X139492337Y-84902976D01*
X139524519Y-84885774D01*
X139559438Y-84875181D01*
X139601895Y-84871000D01*
X141068105Y-84871000D01*
X141110562Y-84875181D01*
G37*
G36*
X180861562Y-84748181D02*
G01*
X180896481Y-84758774D01*
X180928663Y-84775976D01*
X180956873Y-84799127D01*
X180980024Y-84827337D01*
X180997226Y-84859519D01*
X181007819Y-84894438D01*
X181012000Y-84936895D01*
X181012000Y-86078105D01*
X181007819Y-86120562D01*
X180997226Y-86155481D01*
X180980024Y-86187663D01*
X180956873Y-86215873D01*
X180928663Y-86239024D01*
X180896481Y-86256226D01*
X180861562Y-86266819D01*
X180819105Y-86271000D01*
X179352895Y-86271000D01*
X179310438Y-86266819D01*
X179275519Y-86256226D01*
X179243337Y-86239024D01*
X179215127Y-86215873D01*
X179191976Y-86187663D01*
X179174774Y-86155481D01*
X179164181Y-86120562D01*
X179160000Y-86078105D01*
X179160000Y-84936895D01*
X179164181Y-84894438D01*
X179174774Y-84859519D01*
X179191976Y-84827337D01*
X179215127Y-84799127D01*
X179243337Y-84775976D01*
X179275519Y-84758774D01*
X179310438Y-84748181D01*
X179352895Y-84744000D01*
X180819105Y-84744000D01*
X180861562Y-84748181D01*
G37*
G36*
X182512562Y-68038181D02*
G01*
X182547481Y-68048774D01*
X182579663Y-68065976D01*
X182607873Y-68089127D01*
X182631024Y-68117337D01*
X182648226Y-68149519D01*
X182658819Y-68184438D01*
X182663000Y-68226895D01*
X182663000Y-69368105D01*
X182658819Y-69410562D01*
X182648226Y-69445481D01*
X182631024Y-69477663D01*
X182607873Y-69505873D01*
X182579663Y-69529024D01*
X182547481Y-69546226D01*
X182512562Y-69556819D01*
X182470105Y-69561000D01*
X181003895Y-69561000D01*
X180961438Y-69556819D01*
X180926519Y-69546226D01*
X180894337Y-69529024D01*
X180866127Y-69505873D01*
X180842976Y-69477663D01*
X180825774Y-69445481D01*
X180815181Y-69410562D01*
X180811000Y-69368105D01*
X180811000Y-68226895D01*
X180815181Y-68184438D01*
X180825774Y-68149519D01*
X180842976Y-68117337D01*
X180866127Y-68089127D01*
X180894337Y-68065976D01*
X180926519Y-68048774D01*
X180961438Y-68038181D01*
X181003895Y-68034000D01*
X182470105Y-68034000D01*
X182512562Y-68038181D01*
G37*
G36*
X119647562Y-68038181D02*
G01*
X119682481Y-68048774D01*
X119714663Y-68065976D01*
X119742873Y-68089127D01*
X119766024Y-68117337D01*
X119783226Y-68149519D01*
X119793819Y-68184438D01*
X119798000Y-68226895D01*
X119798000Y-69368105D01*
X119793819Y-69410562D01*
X119783226Y-69445481D01*
X119766024Y-69477663D01*
X119742873Y-69505873D01*
X119714663Y-69529024D01*
X119682481Y-69546226D01*
X119647562Y-69556819D01*
X119605105Y-69561000D01*
X118138895Y-69561000D01*
X118096438Y-69556819D01*
X118061519Y-69546226D01*
X118029337Y-69529024D01*
X118001127Y-69505873D01*
X117977976Y-69477663D01*
X117960774Y-69445481D01*
X117950181Y-69410562D01*
X117946000Y-69368105D01*
X117946000Y-68226895D01*
X117950181Y-68184438D01*
X117960774Y-68149519D01*
X117977976Y-68117337D01*
X118001127Y-68089127D01*
X118029337Y-68065976D01*
X118061519Y-68048774D01*
X118096438Y-68038181D01*
X118138895Y-68034000D01*
X119605105Y-68034000D01*
X119647562Y-68038181D01*
G37*
G36*
X182512562Y-65063181D02*
G01*
X182547481Y-65073774D01*
X182579663Y-65090976D01*
X182607873Y-65114127D01*
X182631024Y-65142337D01*
X182648226Y-65174519D01*
X182658819Y-65209438D01*
X182663000Y-65251895D01*
X182663000Y-66393105D01*
X182658819Y-66435562D01*
X182648226Y-66470481D01*
X182631024Y-66502663D01*
X182607873Y-66530873D01*
X182579663Y-66554024D01*
X182547481Y-66571226D01*
X182512562Y-66581819D01*
X182470105Y-66586000D01*
X181003895Y-66586000D01*
X180961438Y-66581819D01*
X180926519Y-66571226D01*
X180894337Y-66554024D01*
X180866127Y-66530873D01*
X180842976Y-66502663D01*
X180825774Y-66470481D01*
X180815181Y-66435562D01*
X180811000Y-66393105D01*
X180811000Y-65251895D01*
X180815181Y-65209438D01*
X180825774Y-65174519D01*
X180842976Y-65142337D01*
X180866127Y-65114127D01*
X180894337Y-65090976D01*
X180926519Y-65073774D01*
X180961438Y-65063181D01*
X181003895Y-65059000D01*
X182470105Y-65059000D01*
X182512562Y-65063181D01*
G37*
G36*
X119647562Y-65063181D02*
G01*
X119682481Y-65073774D01*
X119714663Y-65090976D01*
X119742873Y-65114127D01*
X119766024Y-65142337D01*
X119783226Y-65174519D01*
X119793819Y-65209438D01*
X119798000Y-65251895D01*
X119798000Y-66393105D01*
X119793819Y-66435562D01*
X119783226Y-66470481D01*
X119766024Y-66502663D01*
X119742873Y-66530873D01*
X119714663Y-66554024D01*
X119682481Y-66571226D01*
X119647562Y-66581819D01*
X119605105Y-66586000D01*
X118138895Y-66586000D01*
X118096438Y-66581819D01*
X118061519Y-66571226D01*
X118029337Y-66554024D01*
X118001127Y-66530873D01*
X117977976Y-66502663D01*
X117960774Y-66470481D01*
X117950181Y-66435562D01*
X117946000Y-66393105D01*
X117946000Y-65251895D01*
X117950181Y-65209438D01*
X117960774Y-65174519D01*
X117977976Y-65142337D01*
X118001127Y-65114127D01*
X118029337Y-65090976D01*
X118061519Y-65073774D01*
X118096438Y-65063181D01*
X118138895Y-65059000D01*
X119605105Y-65059000D01*
X119647562Y-65063181D01*
G37*
G36*
X119774562Y-48226181D02*
G01*
X119809481Y-48236774D01*
X119841663Y-48253976D01*
X119869873Y-48277127D01*
X119893024Y-48305337D01*
X119910226Y-48337519D01*
X119920819Y-48372438D01*
X119925000Y-48414895D01*
X119925000Y-49556105D01*
X119920819Y-49598562D01*
X119910226Y-49633481D01*
X119893024Y-49665663D01*
X119869873Y-49693873D01*
X119841663Y-49717024D01*
X119809481Y-49734226D01*
X119774562Y-49744819D01*
X119732105Y-49749000D01*
X118265895Y-49749000D01*
X118223438Y-49744819D01*
X118188519Y-49734226D01*
X118156337Y-49717024D01*
X118128127Y-49693873D01*
X118104976Y-49665663D01*
X118087774Y-49633481D01*
X118077181Y-49598562D01*
X118073000Y-49556105D01*
X118073000Y-48414895D01*
X118077181Y-48372438D01*
X118087774Y-48337519D01*
X118104976Y-48305337D01*
X118128127Y-48277127D01*
X118156337Y-48253976D01*
X118188519Y-48236774D01*
X118223438Y-48226181D01*
X118265895Y-48222000D01*
X119732105Y-48222000D01*
X119774562Y-48226181D01*
G37*
G36*
X182385562Y-48226181D02*
G01*
X182420481Y-48236774D01*
X182452663Y-48253976D01*
X182480873Y-48277127D01*
X182504024Y-48305337D01*
X182521226Y-48337519D01*
X182531819Y-48372438D01*
X182536000Y-48414895D01*
X182536000Y-49556105D01*
X182531819Y-49598562D01*
X182521226Y-49633481D01*
X182504024Y-49665663D01*
X182480873Y-49693873D01*
X182452663Y-49717024D01*
X182420481Y-49734226D01*
X182385562Y-49744819D01*
X182343105Y-49749000D01*
X180876895Y-49749000D01*
X180834438Y-49744819D01*
X180799519Y-49734226D01*
X180767337Y-49717024D01*
X180739127Y-49693873D01*
X180715976Y-49665663D01*
X180698774Y-49633481D01*
X180688181Y-49598562D01*
X180684000Y-49556105D01*
X180684000Y-48414895D01*
X180688181Y-48372438D01*
X180698774Y-48337519D01*
X180715976Y-48305337D01*
X180739127Y-48277127D01*
X180767337Y-48253976D01*
X180799519Y-48236774D01*
X180834438Y-48226181D01*
X180876895Y-48222000D01*
X182343105Y-48222000D01*
X182385562Y-48226181D01*
G37*
G36*
X111393562Y-46322181D02*
G01*
X111428481Y-46332774D01*
X111460663Y-46349976D01*
X111488873Y-46373127D01*
X111512024Y-46401337D01*
X111529226Y-46433519D01*
X111539819Y-46468438D01*
X111544000Y-46510895D01*
X111544000Y-47977105D01*
X111539819Y-48019562D01*
X111529226Y-48054481D01*
X111512024Y-48086663D01*
X111488873Y-48114873D01*
X111460663Y-48138024D01*
X111428481Y-48155226D01*
X111393562Y-48165819D01*
X111351105Y-48170000D01*
X110209895Y-48170000D01*
X110167438Y-48165819D01*
X110132519Y-48155226D01*
X110100337Y-48138024D01*
X110072127Y-48114873D01*
X110048976Y-48086663D01*
X110031774Y-48054481D01*
X110021181Y-48019562D01*
X110017000Y-47977105D01*
X110017000Y-46510895D01*
X110021181Y-46468438D01*
X110031774Y-46433519D01*
X110048976Y-46401337D01*
X110072127Y-46373127D01*
X110100337Y-46349976D01*
X110132519Y-46332774D01*
X110167438Y-46322181D01*
X110209895Y-46318000D01*
X111351105Y-46318000D01*
X111393562Y-46322181D01*
G37*
G36*
X114368562Y-46322181D02*
G01*
X114403481Y-46332774D01*
X114435663Y-46349976D01*
X114463873Y-46373127D01*
X114487024Y-46401337D01*
X114504226Y-46433519D01*
X114514819Y-46468438D01*
X114519000Y-46510895D01*
X114519000Y-47977105D01*
X114514819Y-48019562D01*
X114504226Y-48054481D01*
X114487024Y-48086663D01*
X114463873Y-48114873D01*
X114435663Y-48138024D01*
X114403481Y-48155226D01*
X114368562Y-48165819D01*
X114326105Y-48170000D01*
X113184895Y-48170000D01*
X113142438Y-48165819D01*
X113107519Y-48155226D01*
X113075337Y-48138024D01*
X113047127Y-48114873D01*
X113023976Y-48086663D01*
X113006774Y-48054481D01*
X112996181Y-48019562D01*
X112992000Y-47977105D01*
X112992000Y-46510895D01*
X112996181Y-46468438D01*
X113006774Y-46433519D01*
X113023976Y-46401337D01*
X113047127Y-46373127D01*
X113075337Y-46349976D01*
X113107519Y-46332774D01*
X113142438Y-46322181D01*
X113184895Y-46318000D01*
X114326105Y-46318000D01*
X114368562Y-46322181D01*
G37*
G36*
X182385562Y-45251181D02*
G01*
X182420481Y-45261774D01*
X182452663Y-45278976D01*
X182480873Y-45302127D01*
X182504024Y-45330337D01*
X182521226Y-45362519D01*
X182531819Y-45397438D01*
X182536000Y-45439895D01*
X182536000Y-46581105D01*
X182531819Y-46623562D01*
X182521226Y-46658481D01*
X182504024Y-46690663D01*
X182480873Y-46718873D01*
X182452663Y-46742024D01*
X182420481Y-46759226D01*
X182385562Y-46769819D01*
X182343105Y-46774000D01*
X180876895Y-46774000D01*
X180834438Y-46769819D01*
X180799519Y-46759226D01*
X180767337Y-46742024D01*
X180739127Y-46718873D01*
X180715976Y-46690663D01*
X180698774Y-46658481D01*
X180688181Y-46623562D01*
X180684000Y-46581105D01*
X180684000Y-45439895D01*
X180688181Y-45397438D01*
X180698774Y-45362519D01*
X180715976Y-45330337D01*
X180739127Y-45302127D01*
X180767337Y-45278976D01*
X180799519Y-45261774D01*
X180834438Y-45251181D01*
X180876895Y-45247000D01*
X182343105Y-45247000D01*
X182385562Y-45251181D01*
G37*
G36*
X119774562Y-45251181D02*
G01*
X119809481Y-45261774D01*
X119841663Y-45278976D01*
X119869873Y-45302127D01*
X119893024Y-45330337D01*
X119910226Y-45362519D01*
X119920819Y-45397438D01*
X119925000Y-45439895D01*
X119925000Y-46581105D01*
X119920819Y-46623562D01*
X119910226Y-46658481D01*
X119893024Y-46690663D01*
X119869873Y-46718873D01*
X119841663Y-46742024D01*
X119809481Y-46759226D01*
X119774562Y-46769819D01*
X119732105Y-46774000D01*
X118265895Y-46774000D01*
X118223438Y-46769819D01*
X118188519Y-46759226D01*
X118156337Y-46742024D01*
X118128127Y-46718873D01*
X118104976Y-46690663D01*
X118087774Y-46658481D01*
X118077181Y-46623562D01*
X118073000Y-46581105D01*
X118073000Y-45439895D01*
X118077181Y-45397438D01*
X118087774Y-45362519D01*
X118104976Y-45330337D01*
X118128127Y-45302127D01*
X118156337Y-45278976D01*
X118188519Y-45261774D01*
X118223438Y-45251181D01*
X118265895Y-45247000D01*
X119732105Y-45247000D01*
X119774562Y-45251181D01*
G37*
G36*
X190893000Y-44335000D02*
G01*
X189091000Y-44335000D01*
X189091000Y-42533000D01*
X190893000Y-42533000D01*
X190893000Y-44335000D01*
G37*
G36*
X192645512Y-42537927D02*
G01*
X192794812Y-42567624D01*
X192958784Y-42635544D01*
X193106354Y-42734147D01*
X193231853Y-42859646D01*
X193330456Y-43007216D01*
X193398376Y-43171188D01*
X193433000Y-43345259D01*
X193433000Y-43522741D01*
X193398376Y-43696812D01*
X193330456Y-43860784D01*
X193231853Y-44008354D01*
X193106354Y-44133853D01*
X192958784Y-44232456D01*
X192794812Y-44300376D01*
X192645512Y-44330073D01*
X192620742Y-44335000D01*
X192443258Y-44335000D01*
X192418488Y-44330073D01*
X192269188Y-44300376D01*
X192105216Y-44232456D01*
X191957646Y-44133853D01*
X191832147Y-44008354D01*
X191733544Y-43860784D01*
X191665624Y-43696812D01*
X191631000Y-43522741D01*
X191631000Y-43345259D01*
X191665624Y-43171188D01*
X191733544Y-43007216D01*
X191832147Y-42859646D01*
X191957646Y-42734147D01*
X192105216Y-42635544D01*
X192269188Y-42567624D01*
X192418488Y-42537927D01*
X192443258Y-42533000D01*
X192620742Y-42533000D01*
X192645512Y-42537927D01*
G37*
G36*
X195185512Y-42537927D02*
G01*
X195334812Y-42567624D01*
X195498784Y-42635544D01*
X195646354Y-42734147D01*
X195771853Y-42859646D01*
X195870456Y-43007216D01*
X195938376Y-43171188D01*
X195973000Y-43345259D01*
X195973000Y-43522741D01*
X195938376Y-43696812D01*
X195870456Y-43860784D01*
X195771853Y-44008354D01*
X195646354Y-44133853D01*
X195498784Y-44232456D01*
X195334812Y-44300376D01*
X195185512Y-44330073D01*
X195160742Y-44335000D01*
X194983258Y-44335000D01*
X194958488Y-44330073D01*
X194809188Y-44300376D01*
X194645216Y-44232456D01*
X194497646Y-44133853D01*
X194372147Y-44008354D01*
X194273544Y-43860784D01*
X194205624Y-43696812D01*
X194171000Y-43522741D01*
X194171000Y-43345259D01*
X194205624Y-43171188D01*
X194273544Y-43007216D01*
X194372147Y-42859646D01*
X194497646Y-42734147D01*
X194645216Y-42635544D01*
X194809188Y-42567624D01*
X194958488Y-42537927D01*
X194983258Y-42533000D01*
X195160742Y-42533000D01*
X195185512Y-42537927D01*
G37*
G36*
X110857512Y-42537927D02*
G01*
X111006812Y-42567624D01*
X111170784Y-42635544D01*
X111318354Y-42734147D01*
X111443853Y-42859646D01*
X111542456Y-43007216D01*
X111610376Y-43171188D01*
X111645000Y-43345259D01*
X111645000Y-43522741D01*
X111610376Y-43696812D01*
X111542456Y-43860784D01*
X111443853Y-44008354D01*
X111318354Y-44133853D01*
X111170784Y-44232456D01*
X111006812Y-44300376D01*
X110857512Y-44330073D01*
X110832742Y-44335000D01*
X110655258Y-44335000D01*
X110630488Y-44330073D01*
X110481188Y-44300376D01*
X110317216Y-44232456D01*
X110169646Y-44133853D01*
X110044147Y-44008354D01*
X109945544Y-43860784D01*
X109877624Y-43696812D01*
X109843000Y-43522741D01*
X109843000Y-43345259D01*
X109877624Y-43171188D01*
X109945544Y-43007216D01*
X110044147Y-42859646D01*
X110169646Y-42734147D01*
X110317216Y-42635544D01*
X110481188Y-42567624D01*
X110630488Y-42537927D01*
X110655258Y-42533000D01*
X110832742Y-42533000D01*
X110857512Y-42537927D01*
G37*
G36*
X108317512Y-42537927D02*
G01*
X108466812Y-42567624D01*
X108630784Y-42635544D01*
X108778354Y-42734147D01*
X108903853Y-42859646D01*
X109002456Y-43007216D01*
X109070376Y-43171188D01*
X109105000Y-43345259D01*
X109105000Y-43522741D01*
X109070376Y-43696812D01*
X109002456Y-43860784D01*
X108903853Y-44008354D01*
X108778354Y-44133853D01*
X108630784Y-44232456D01*
X108466812Y-44300376D01*
X108317512Y-44330073D01*
X108292742Y-44335000D01*
X108115258Y-44335000D01*
X108090488Y-44330073D01*
X107941188Y-44300376D01*
X107777216Y-44232456D01*
X107629646Y-44133853D01*
X107504147Y-44008354D01*
X107405544Y-43860784D01*
X107337624Y-43696812D01*
X107303000Y-43522741D01*
X107303000Y-43345259D01*
X107337624Y-43171188D01*
X107405544Y-43007216D01*
X107504147Y-42859646D01*
X107629646Y-42734147D01*
X107777216Y-42635544D01*
X107941188Y-42567624D01*
X108090488Y-42537927D01*
X108115258Y-42533000D01*
X108292742Y-42533000D01*
X108317512Y-42537927D01*
G37*
G36*
X106565000Y-44335000D02*
G01*
X104763000Y-44335000D01*
X104763000Y-42533000D01*
X106565000Y-42533000D01*
X106565000Y-44335000D01*
G37*
M02*
