M48
; DRILL file {KiCad (5.1.6)-1} date 07/03/20 23:32:43
; FORMAT={-:-/ absolute / inch / decimal}
; #@! TF.CreationDate,2020-07-03T23:32:43-07:00
; #@! TF.GenerationSoftware,Kicad,Pcbnew,(5.1.6)-1
; #@! TF.FileFunction,Plated,1,2,PTH
FMAT,2
INCH
T1C0.0118
T2C0.0157
T3C0.0394
%
G90
G05
T1
X4.7815Y-1.807
T2
X4.3614Y-1.86
X4.68Y-2.5914
X4.68Y-2.7086
X4.685Y-1.8114
X4.685Y-1.9286
X4.75Y-3.3714
X4.75Y-3.4886
X4.75Y-4.1514
X4.75Y-4.2686
X5.525Y-3.3714
X5.525Y-3.4886
X5.53Y-4.1529
X5.53Y-4.27
X6.305Y-3.3714
X6.305Y-3.4886
X6.31Y-4.1514
X6.31Y-4.2686
X7.09Y-3.3664
X7.09Y-3.4836
X7.09Y-4.1514
X7.09Y-4.2686
X7.15Y-1.8114
X7.15Y-1.9286
X7.155Y-2.5914
X7.155Y-2.7086
T3
X4.16Y-1.71
X4.26Y-1.71
X4.36Y-1.71
X7.48Y-1.71
X7.58Y-1.71
X7.68Y-1.71
T0
M30
