G04 #@! TF.GenerationSoftware,KiCad,Pcbnew,(5.1.6)-1*
G04 #@! TF.CreationDate,2020-07-05T02:04:56-07:00*
G04 #@! TF.ProjectId,daughter,64617567-6874-4657-922e-6b696361645f,rev?*
G04 #@! TF.SameCoordinates,Original*
G04 #@! TF.FileFunction,Soldermask,Top*
G04 #@! TF.FilePolarity,Negative*
%FSLAX46Y46*%
G04 Gerber Fmt 4.6, Leading zero omitted, Abs format (unit mm)*
G04 Created by KiCad (PCBNEW (5.1.6)-1) date 2020-07-05 02:04:56*
%MOMM*%
%LPD*%
G01*
G04 APERTURE LIST*
G04 #@! TA.AperFunction,Profile*
%ADD10C,0.050000*%
G04 #@! TD*
G04 #@! TA.AperFunction,Profile*
%ADD11C,0.120000*%
G04 #@! TD*
%ADD12C,0.100000*%
G04 APERTURE END LIST*
D10*
X153670000Y-103886000D02*
X152400000Y-102616000D01*
X145478500Y-103886000D02*
X146748500Y-102616000D01*
X146748500Y-98044000D02*
X147701000Y-98044000D01*
X146748500Y-102552500D02*
X146748500Y-98044000D01*
X146748500Y-102552500D02*
X146748500Y-102616000D01*
X148336000Y-98044000D02*
X147701000Y-98044000D01*
X151130000Y-97345500D02*
X151130000Y-100838000D01*
X154495500Y-90170000D02*
X153225500Y-91440000D01*
X153225500Y-97345500D02*
X153225500Y-91440000D01*
X151130000Y-97345500D02*
X153225500Y-97345500D01*
X167005000Y-81851500D02*
X173355000Y-81851500D01*
X176022000Y-84074000D02*
X173355000Y-81851500D01*
X164338000Y-84074000D02*
X167005000Y-81851500D01*
X173672500Y-88455500D02*
X166687500Y-88455500D01*
X176022000Y-90170000D02*
X173672500Y-88455500D01*
X164338000Y-90170000D02*
X166687500Y-88455500D01*
X127381000Y-81851500D02*
X133731000Y-81851500D01*
X134048500Y-88455500D02*
X127063500Y-88455500D01*
X136398000Y-90170000D02*
X134048500Y-88455500D01*
X136398000Y-84074000D02*
X133731000Y-81851500D01*
X124714000Y-84074000D02*
X127381000Y-81851500D01*
X124714000Y-90170000D02*
X127063500Y-88455500D01*
X107950000Y-118110000D02*
X192786000Y-118110000D01*
X197231000Y-41148000D02*
X196596000Y-41148000D01*
X197231000Y-113665000D02*
X197231000Y-41148000D01*
X103505000Y-41402000D02*
X104140000Y-41402000D01*
X103505000Y-113665000D02*
X103505000Y-41402000D01*
D11*
X107950000Y-118110000D02*
G75*
G02*
X103505000Y-113665000I0J4445000D01*
G01*
X197231000Y-113665000D02*
G75*
G02*
X192786000Y-118110000I-4445000J0D01*
G01*
D10*
X188468000Y-41148000D02*
X196596000Y-41148000D01*
X188468000Y-43180000D02*
X188468000Y-41148000D01*
X187198000Y-44450000D02*
X188468000Y-43180000D01*
X177546000Y-44450000D02*
X187198000Y-44450000D01*
X177546000Y-50546000D02*
X177546000Y-44450000D01*
X187198000Y-50546000D02*
X177546000Y-50546000D01*
X188468000Y-51816000D02*
X187198000Y-50546000D01*
X188468000Y-53594000D02*
X188468000Y-51816000D01*
X189865000Y-54991000D02*
X188468000Y-53594000D01*
X189865000Y-58928000D02*
X189865000Y-54991000D01*
X188722000Y-60071000D02*
X189865000Y-58928000D01*
X188722000Y-62992000D02*
X188722000Y-60071000D01*
X187452000Y-64262000D02*
X188722000Y-62992000D01*
X177546000Y-64262000D02*
X187452000Y-64262000D01*
X177546000Y-70358000D02*
X177546000Y-64262000D01*
X187452000Y-70358000D02*
X177546000Y-70358000D01*
X188722000Y-71628000D02*
X187452000Y-70358000D01*
X188722000Y-82804000D02*
X188722000Y-71628000D01*
X187452000Y-84074000D02*
X188722000Y-82804000D01*
X176022000Y-84074000D02*
X187452000Y-84074000D01*
X187452000Y-90170000D02*
X176022000Y-90170000D01*
X188722000Y-91440000D02*
X187452000Y-90170000D01*
X188722000Y-102616000D02*
X188722000Y-91440000D01*
X187452000Y-103886000D02*
X188722000Y-102616000D01*
X172720000Y-103886000D02*
X187452000Y-103886000D01*
X171958000Y-104648000D02*
X172720000Y-103886000D01*
X168402000Y-104648000D02*
X171958000Y-104648000D01*
X167640000Y-103886000D02*
X168402000Y-104648000D01*
X153670000Y-103886000D02*
X167640000Y-103886000D01*
X152400000Y-100838000D02*
X152400000Y-102616000D01*
X151130000Y-100838000D02*
X152400000Y-100838000D01*
X164338000Y-90170000D02*
X154495500Y-90170000D01*
X136398000Y-84074000D02*
X164338000Y-84074000D01*
X147066000Y-90170000D02*
X136398000Y-90170000D01*
X148336000Y-91440000D02*
X147066000Y-90170000D01*
X148336000Y-98044000D02*
X148336000Y-91440000D01*
X133096000Y-103886000D02*
X145478500Y-103886000D01*
X132334000Y-104648000D02*
X133096000Y-103886000D01*
X128778000Y-104648000D02*
X132334000Y-104648000D01*
X128016000Y-103886000D02*
X128778000Y-104648000D01*
X112014000Y-103886000D02*
X128016000Y-103886000D01*
X110744000Y-102616000D02*
X112014000Y-103886000D01*
X110744000Y-91440000D02*
X110744000Y-102616000D01*
X112014000Y-90170000D02*
X110744000Y-91440000D01*
X124714000Y-90170000D02*
X112014000Y-90170000D01*
X112014000Y-84074000D02*
X124714000Y-84074000D01*
X110744000Y-82804000D02*
X112014000Y-84074000D01*
X110744000Y-71628000D02*
X110744000Y-82804000D01*
X112014000Y-70358000D02*
X110744000Y-71628000D01*
X122936000Y-70358000D02*
X112014000Y-70358000D01*
X122936000Y-64262000D02*
X122936000Y-70358000D01*
X112014000Y-64262000D02*
X122936000Y-64262000D01*
X110744000Y-62992000D02*
X112014000Y-64262000D01*
X110744000Y-62230000D02*
X110744000Y-62992000D01*
X109474000Y-60960000D02*
X110744000Y-62230000D01*
X109474000Y-57912000D02*
X109474000Y-60960000D01*
X110744000Y-56642000D02*
X109474000Y-57912000D01*
X110744000Y-50292000D02*
X110744000Y-56642000D01*
X111252000Y-49784000D02*
X110744000Y-50292000D01*
X114046000Y-49784000D02*
X111252000Y-49784000D01*
X114808000Y-50546000D02*
X114046000Y-49784000D01*
X122936000Y-50546000D02*
X114808000Y-50546000D01*
X122936000Y-44450000D02*
X122936000Y-50546000D01*
X113284000Y-44450000D02*
X122936000Y-44450000D01*
X112014000Y-43180000D02*
X113284000Y-44450000D01*
X112014000Y-41402000D02*
X112014000Y-43180000D01*
X104140000Y-41402000D02*
X112014000Y-41402000D01*
D12*
G36*
X193161256Y-112056298D02*
G01*
X193267579Y-112077447D01*
X193568042Y-112201903D01*
X193838451Y-112382585D01*
X194068415Y-112612549D01*
X194249097Y-112882958D01*
X194373553Y-113183421D01*
X194437000Y-113502391D01*
X194437000Y-113827609D01*
X194373553Y-114146579D01*
X194249097Y-114447042D01*
X194068415Y-114717451D01*
X193838451Y-114947415D01*
X193568042Y-115128097D01*
X193267579Y-115252553D01*
X193161256Y-115273702D01*
X192948611Y-115316000D01*
X192623389Y-115316000D01*
X192410744Y-115273702D01*
X192304421Y-115252553D01*
X192003958Y-115128097D01*
X191733549Y-114947415D01*
X191503585Y-114717451D01*
X191322903Y-114447042D01*
X191198447Y-114146579D01*
X191135000Y-113827609D01*
X191135000Y-113502391D01*
X191198447Y-113183421D01*
X191322903Y-112882958D01*
X191503585Y-112612549D01*
X191733549Y-112382585D01*
X192003958Y-112201903D01*
X192304421Y-112077447D01*
X192410744Y-112056298D01*
X192623389Y-112014000D01*
X192948611Y-112014000D01*
X193161256Y-112056298D01*
G37*
G36*
X108325256Y-112056298D02*
G01*
X108431579Y-112077447D01*
X108732042Y-112201903D01*
X109002451Y-112382585D01*
X109232415Y-112612549D01*
X109413097Y-112882958D01*
X109537553Y-113183421D01*
X109601000Y-113502391D01*
X109601000Y-113827609D01*
X109537553Y-114146579D01*
X109413097Y-114447042D01*
X109232415Y-114717451D01*
X109002451Y-114947415D01*
X108732042Y-115128097D01*
X108431579Y-115252553D01*
X108325256Y-115273702D01*
X108112611Y-115316000D01*
X107787389Y-115316000D01*
X107574744Y-115273702D01*
X107468421Y-115252553D01*
X107167958Y-115128097D01*
X106897549Y-114947415D01*
X106667585Y-114717451D01*
X106486903Y-114447042D01*
X106362447Y-114146579D01*
X106299000Y-113827609D01*
X106299000Y-113502391D01*
X106362447Y-113183421D01*
X106486903Y-112882958D01*
X106667585Y-112612549D01*
X106897549Y-112382585D01*
X107167958Y-112201903D01*
X107468421Y-112077447D01*
X107574744Y-112056298D01*
X107787389Y-112014000D01*
X108112611Y-112014000D01*
X108325256Y-112056298D01*
G37*
G36*
X138813000Y-109085000D02*
G01*
X137211000Y-109085000D01*
X137211000Y-107983000D01*
X138813000Y-107983000D01*
X138813000Y-109085000D01*
G37*
G36*
X163525000Y-109085000D02*
G01*
X161923000Y-109085000D01*
X161923000Y-107983000D01*
X163525000Y-107983000D01*
X163525000Y-109085000D01*
G37*
G36*
X143713000Y-109085000D02*
G01*
X142111000Y-109085000D01*
X142111000Y-107983000D01*
X143713000Y-107983000D01*
X143713000Y-109085000D01*
G37*
G36*
X158625000Y-109085000D02*
G01*
X157023000Y-109085000D01*
X157023000Y-107983000D01*
X158625000Y-107983000D01*
X158625000Y-109085000D01*
G37*
G36*
X119001000Y-109085000D02*
G01*
X117399000Y-109085000D01*
X117399000Y-107983000D01*
X119001000Y-107983000D01*
X119001000Y-109085000D01*
G37*
G36*
X123901000Y-109085000D02*
G01*
X122299000Y-109085000D01*
X122299000Y-107983000D01*
X123901000Y-107983000D01*
X123901000Y-109085000D01*
G37*
G36*
X183337000Y-109085000D02*
G01*
X181735000Y-109085000D01*
X181735000Y-107983000D01*
X183337000Y-107983000D01*
X183337000Y-109085000D01*
G37*
G36*
X178437000Y-109085000D02*
G01*
X176835000Y-109085000D01*
X176835000Y-107983000D01*
X178437000Y-107983000D01*
X178437000Y-109085000D01*
G37*
G36*
X158625000Y-105885000D02*
G01*
X157023000Y-105885000D01*
X157023000Y-104783000D01*
X158625000Y-104783000D01*
X158625000Y-105885000D01*
G37*
G36*
X143713000Y-105885000D02*
G01*
X142111000Y-105885000D01*
X142111000Y-104783000D01*
X143713000Y-104783000D01*
X143713000Y-105885000D01*
G37*
G36*
X163525000Y-105885000D02*
G01*
X161923000Y-105885000D01*
X161923000Y-104783000D01*
X163525000Y-104783000D01*
X163525000Y-105885000D01*
G37*
G36*
X119001000Y-105885000D02*
G01*
X117399000Y-105885000D01*
X117399000Y-104783000D01*
X119001000Y-104783000D01*
X119001000Y-105885000D01*
G37*
G36*
X178437000Y-105885000D02*
G01*
X176835000Y-105885000D01*
X176835000Y-104783000D01*
X178437000Y-104783000D01*
X178437000Y-105885000D01*
G37*
G36*
X123901000Y-105885000D02*
G01*
X122299000Y-105885000D01*
X122299000Y-104783000D01*
X123901000Y-104783000D01*
X123901000Y-105885000D01*
G37*
G36*
X138813000Y-105885000D02*
G01*
X137211000Y-105885000D01*
X137211000Y-104783000D01*
X138813000Y-104783000D01*
X138813000Y-105885000D01*
G37*
G36*
X183337000Y-105885000D02*
G01*
X181735000Y-105885000D01*
X181735000Y-104783000D01*
X183337000Y-104783000D01*
X183337000Y-105885000D01*
G37*
G36*
X163525000Y-89273000D02*
G01*
X161923000Y-89273000D01*
X161923000Y-88171000D01*
X163525000Y-88171000D01*
X163525000Y-89273000D01*
G37*
G36*
X138813000Y-89273000D02*
G01*
X137211000Y-89273000D01*
X137211000Y-88171000D01*
X138813000Y-88171000D01*
X138813000Y-89273000D01*
G37*
G36*
X143713000Y-89273000D02*
G01*
X142111000Y-89273000D01*
X142111000Y-88171000D01*
X143713000Y-88171000D01*
X143713000Y-89273000D01*
G37*
G36*
X158625000Y-89273000D02*
G01*
X157023000Y-89273000D01*
X157023000Y-88171000D01*
X158625000Y-88171000D01*
X158625000Y-89273000D01*
G37*
G36*
X119001000Y-89273000D02*
G01*
X117399000Y-89273000D01*
X117399000Y-88171000D01*
X119001000Y-88171000D01*
X119001000Y-89273000D01*
G37*
G36*
X123901000Y-89273000D02*
G01*
X122299000Y-89273000D01*
X122299000Y-88171000D01*
X123901000Y-88171000D01*
X123901000Y-89273000D01*
G37*
G36*
X183337000Y-89146000D02*
G01*
X181735000Y-89146000D01*
X181735000Y-88044000D01*
X183337000Y-88044000D01*
X183337000Y-89146000D01*
G37*
G36*
X178437000Y-89146000D02*
G01*
X176835000Y-89146000D01*
X176835000Y-88044000D01*
X178437000Y-88044000D01*
X178437000Y-89146000D01*
G37*
G36*
X143713000Y-86073000D02*
G01*
X142111000Y-86073000D01*
X142111000Y-84971000D01*
X143713000Y-84971000D01*
X143713000Y-86073000D01*
G37*
G36*
X158625000Y-86073000D02*
G01*
X157023000Y-86073000D01*
X157023000Y-84971000D01*
X158625000Y-84971000D01*
X158625000Y-86073000D01*
G37*
G36*
X163525000Y-86073000D02*
G01*
X161923000Y-86073000D01*
X161923000Y-84971000D01*
X163525000Y-84971000D01*
X163525000Y-86073000D01*
G37*
G36*
X123901000Y-86073000D02*
G01*
X122299000Y-86073000D01*
X122299000Y-84971000D01*
X123901000Y-84971000D01*
X123901000Y-86073000D01*
G37*
G36*
X119001000Y-86073000D02*
G01*
X117399000Y-86073000D01*
X117399000Y-84971000D01*
X119001000Y-84971000D01*
X119001000Y-86073000D01*
G37*
G36*
X138813000Y-86073000D02*
G01*
X137211000Y-86073000D01*
X137211000Y-84971000D01*
X138813000Y-84971000D01*
X138813000Y-86073000D01*
G37*
G36*
X178437000Y-85946000D02*
G01*
X176835000Y-85946000D01*
X176835000Y-84844000D01*
X178437000Y-84844000D01*
X178437000Y-85946000D01*
G37*
G36*
X183337000Y-85946000D02*
G01*
X181735000Y-85946000D01*
X181735000Y-84844000D01*
X183337000Y-84844000D01*
X183337000Y-85946000D01*
G37*
G36*
X117350000Y-69461000D02*
G01*
X115748000Y-69461000D01*
X115748000Y-68359000D01*
X117350000Y-68359000D01*
X117350000Y-69461000D01*
G37*
G36*
X122250000Y-69461000D02*
G01*
X120648000Y-69461000D01*
X120648000Y-68359000D01*
X122250000Y-68359000D01*
X122250000Y-69461000D01*
G37*
G36*
X184988000Y-69461000D02*
G01*
X183386000Y-69461000D01*
X183386000Y-68359000D01*
X184988000Y-68359000D01*
X184988000Y-69461000D01*
G37*
G36*
X180088000Y-69461000D02*
G01*
X178486000Y-69461000D01*
X178486000Y-68359000D01*
X180088000Y-68359000D01*
X180088000Y-69461000D01*
G37*
G36*
X184988000Y-66261000D02*
G01*
X183386000Y-66261000D01*
X183386000Y-65159000D01*
X184988000Y-65159000D01*
X184988000Y-66261000D01*
G37*
G36*
X180088000Y-66261000D02*
G01*
X178486000Y-66261000D01*
X178486000Y-65159000D01*
X180088000Y-65159000D01*
X180088000Y-66261000D01*
G37*
G36*
X117350000Y-66261000D02*
G01*
X115748000Y-66261000D01*
X115748000Y-65159000D01*
X117350000Y-65159000D01*
X117350000Y-66261000D01*
G37*
G36*
X122250000Y-66261000D02*
G01*
X120648000Y-66261000D01*
X120648000Y-65159000D01*
X122250000Y-65159000D01*
X122250000Y-66261000D01*
G37*
G36*
X117350000Y-49649000D02*
G01*
X115748000Y-49649000D01*
X115748000Y-48547000D01*
X117350000Y-48547000D01*
X117350000Y-49649000D01*
G37*
G36*
X122250000Y-49649000D02*
G01*
X120648000Y-49649000D01*
X120648000Y-48547000D01*
X122250000Y-48547000D01*
X122250000Y-49649000D01*
G37*
G36*
X184988000Y-49649000D02*
G01*
X183386000Y-49649000D01*
X183386000Y-48547000D01*
X184988000Y-48547000D01*
X184988000Y-49649000D01*
G37*
G36*
X180088000Y-49649000D02*
G01*
X178486000Y-49649000D01*
X178486000Y-48547000D01*
X180088000Y-48547000D01*
X180088000Y-49649000D01*
G37*
G36*
X184988000Y-46449000D02*
G01*
X183386000Y-46449000D01*
X183386000Y-45347000D01*
X184988000Y-45347000D01*
X184988000Y-46449000D01*
G37*
G36*
X117350000Y-46449000D02*
G01*
X115748000Y-46449000D01*
X115748000Y-45347000D01*
X117350000Y-45347000D01*
X117350000Y-46449000D01*
G37*
G36*
X122250000Y-46449000D02*
G01*
X120648000Y-46449000D01*
X120648000Y-45347000D01*
X122250000Y-45347000D01*
X122250000Y-46449000D01*
G37*
G36*
X180088000Y-46449000D02*
G01*
X178486000Y-46449000D01*
X178486000Y-45347000D01*
X180088000Y-45347000D01*
X180088000Y-46449000D01*
G37*
G36*
X195185512Y-42537927D02*
G01*
X195334812Y-42567624D01*
X195498784Y-42635544D01*
X195646354Y-42734147D01*
X195771853Y-42859646D01*
X195870456Y-43007216D01*
X195938376Y-43171188D01*
X195973000Y-43345259D01*
X195973000Y-43522741D01*
X195938376Y-43696812D01*
X195870456Y-43860784D01*
X195771853Y-44008354D01*
X195646354Y-44133853D01*
X195498784Y-44232456D01*
X195334812Y-44300376D01*
X195185512Y-44330073D01*
X195160742Y-44335000D01*
X194983258Y-44335000D01*
X194958488Y-44330073D01*
X194809188Y-44300376D01*
X194645216Y-44232456D01*
X194497646Y-44133853D01*
X194372147Y-44008354D01*
X194273544Y-43860784D01*
X194205624Y-43696812D01*
X194171000Y-43522741D01*
X194171000Y-43345259D01*
X194205624Y-43171188D01*
X194273544Y-43007216D01*
X194372147Y-42859646D01*
X194497646Y-42734147D01*
X194645216Y-42635544D01*
X194809188Y-42567624D01*
X194958488Y-42537927D01*
X194983258Y-42533000D01*
X195160742Y-42533000D01*
X195185512Y-42537927D01*
G37*
G36*
X190893000Y-44335000D02*
G01*
X189091000Y-44335000D01*
X189091000Y-42533000D01*
X190893000Y-42533000D01*
X190893000Y-44335000D01*
G37*
G36*
X192645512Y-42537927D02*
G01*
X192794812Y-42567624D01*
X192958784Y-42635544D01*
X193106354Y-42734147D01*
X193231853Y-42859646D01*
X193330456Y-43007216D01*
X193398376Y-43171188D01*
X193433000Y-43345259D01*
X193433000Y-43522741D01*
X193398376Y-43696812D01*
X193330456Y-43860784D01*
X193231853Y-44008354D01*
X193106354Y-44133853D01*
X192958784Y-44232456D01*
X192794812Y-44300376D01*
X192645512Y-44330073D01*
X192620742Y-44335000D01*
X192443258Y-44335000D01*
X192418488Y-44330073D01*
X192269188Y-44300376D01*
X192105216Y-44232456D01*
X191957646Y-44133853D01*
X191832147Y-44008354D01*
X191733544Y-43860784D01*
X191665624Y-43696812D01*
X191631000Y-43522741D01*
X191631000Y-43345259D01*
X191665624Y-43171188D01*
X191733544Y-43007216D01*
X191832147Y-42859646D01*
X191957646Y-42734147D01*
X192105216Y-42635544D01*
X192269188Y-42567624D01*
X192418488Y-42537927D01*
X192443258Y-42533000D01*
X192620742Y-42533000D01*
X192645512Y-42537927D01*
G37*
G36*
X110857512Y-42537927D02*
G01*
X111006812Y-42567624D01*
X111170784Y-42635544D01*
X111318354Y-42734147D01*
X111443853Y-42859646D01*
X111542456Y-43007216D01*
X111610376Y-43171188D01*
X111645000Y-43345259D01*
X111645000Y-43522741D01*
X111610376Y-43696812D01*
X111542456Y-43860784D01*
X111443853Y-44008354D01*
X111318354Y-44133853D01*
X111170784Y-44232456D01*
X111006812Y-44300376D01*
X110857512Y-44330073D01*
X110832742Y-44335000D01*
X110655258Y-44335000D01*
X110630488Y-44330073D01*
X110481188Y-44300376D01*
X110317216Y-44232456D01*
X110169646Y-44133853D01*
X110044147Y-44008354D01*
X109945544Y-43860784D01*
X109877624Y-43696812D01*
X109843000Y-43522741D01*
X109843000Y-43345259D01*
X109877624Y-43171188D01*
X109945544Y-43007216D01*
X110044147Y-42859646D01*
X110169646Y-42734147D01*
X110317216Y-42635544D01*
X110481188Y-42567624D01*
X110630488Y-42537927D01*
X110655258Y-42533000D01*
X110832742Y-42533000D01*
X110857512Y-42537927D01*
G37*
G36*
X108317512Y-42537927D02*
G01*
X108466812Y-42567624D01*
X108630784Y-42635544D01*
X108778354Y-42734147D01*
X108903853Y-42859646D01*
X109002456Y-43007216D01*
X109070376Y-43171188D01*
X109105000Y-43345259D01*
X109105000Y-43522741D01*
X109070376Y-43696812D01*
X109002456Y-43860784D01*
X108903853Y-44008354D01*
X108778354Y-44133853D01*
X108630784Y-44232456D01*
X108466812Y-44300376D01*
X108317512Y-44330073D01*
X108292742Y-44335000D01*
X108115258Y-44335000D01*
X108090488Y-44330073D01*
X107941188Y-44300376D01*
X107777216Y-44232456D01*
X107629646Y-44133853D01*
X107504147Y-44008354D01*
X107405544Y-43860784D01*
X107337624Y-43696812D01*
X107303000Y-43522741D01*
X107303000Y-43345259D01*
X107337624Y-43171188D01*
X107405544Y-43007216D01*
X107504147Y-42859646D01*
X107629646Y-42734147D01*
X107777216Y-42635544D01*
X107941188Y-42567624D01*
X108090488Y-42537927D01*
X108115258Y-42533000D01*
X108292742Y-42533000D01*
X108317512Y-42537927D01*
G37*
G36*
X106565000Y-44335000D02*
G01*
X104763000Y-44335000D01*
X104763000Y-42533000D01*
X106565000Y-42533000D01*
X106565000Y-44335000D01*
G37*
M02*
