G04 #@! TF.GenerationSoftware,KiCad,Pcbnew,(5.1.6)-1*
G04 #@! TF.CreationDate,2020-07-05T02:04:56-07:00*
G04 #@! TF.ProjectId,daughter,64617567-6874-4657-922e-6b696361645f,rev?*
G04 #@! TF.SameCoordinates,Original*
G04 #@! TF.FileFunction,Paste,Bot*
G04 #@! TF.FilePolarity,Positive*
%FSLAX46Y46*%
G04 Gerber Fmt 4.6, Leading zero omitted, Abs format (unit mm)*
G04 Created by KiCad (PCBNEW (5.1.6)-1) date 2020-07-05 02:04:56*
%MOMM*%
%LPD*%
G01*
G04 APERTURE LIST*
G04 #@! TA.AperFunction,Profile*
%ADD10C,0.050000*%
G04 #@! TD*
G04 #@! TA.AperFunction,Profile*
%ADD11C,0.120000*%
G04 #@! TD*
G04 APERTURE END LIST*
D10*
X153670000Y-103886000D02*
X152400000Y-102616000D01*
X145478500Y-103886000D02*
X146748500Y-102616000D01*
X146748500Y-98044000D02*
X147701000Y-98044000D01*
X146748500Y-102552500D02*
X146748500Y-98044000D01*
X146748500Y-102552500D02*
X146748500Y-102616000D01*
X148336000Y-98044000D02*
X147701000Y-98044000D01*
X151130000Y-97345500D02*
X151130000Y-100838000D01*
X154495500Y-90170000D02*
X153225500Y-91440000D01*
X153225500Y-97345500D02*
X153225500Y-91440000D01*
X151130000Y-97345500D02*
X153225500Y-97345500D01*
X167005000Y-81851500D02*
X173355000Y-81851500D01*
X176022000Y-84074000D02*
X173355000Y-81851500D01*
X164338000Y-84074000D02*
X167005000Y-81851500D01*
X173672500Y-88455500D02*
X166687500Y-88455500D01*
X176022000Y-90170000D02*
X173672500Y-88455500D01*
X164338000Y-90170000D02*
X166687500Y-88455500D01*
X127381000Y-81851500D02*
X133731000Y-81851500D01*
X134048500Y-88455500D02*
X127063500Y-88455500D01*
X136398000Y-90170000D02*
X134048500Y-88455500D01*
X136398000Y-84074000D02*
X133731000Y-81851500D01*
X124714000Y-84074000D02*
X127381000Y-81851500D01*
X124714000Y-90170000D02*
X127063500Y-88455500D01*
X107950000Y-118110000D02*
X192786000Y-118110000D01*
X197231000Y-41148000D02*
X196596000Y-41148000D01*
X197231000Y-113665000D02*
X197231000Y-41148000D01*
X103505000Y-41402000D02*
X104140000Y-41402000D01*
X103505000Y-113665000D02*
X103505000Y-41402000D01*
D11*
X107950000Y-118110000D02*
G75*
G02*
X103505000Y-113665000I0J4445000D01*
G01*
X197231000Y-113665000D02*
G75*
G02*
X192786000Y-118110000I-4445000J0D01*
G01*
D10*
X188468000Y-41148000D02*
X196596000Y-41148000D01*
X188468000Y-43180000D02*
X188468000Y-41148000D01*
X187198000Y-44450000D02*
X188468000Y-43180000D01*
X177546000Y-44450000D02*
X187198000Y-44450000D01*
X177546000Y-50546000D02*
X177546000Y-44450000D01*
X187198000Y-50546000D02*
X177546000Y-50546000D01*
X188468000Y-51816000D02*
X187198000Y-50546000D01*
X188468000Y-53594000D02*
X188468000Y-51816000D01*
X189865000Y-54991000D02*
X188468000Y-53594000D01*
X189865000Y-58928000D02*
X189865000Y-54991000D01*
X188722000Y-60071000D02*
X189865000Y-58928000D01*
X188722000Y-62992000D02*
X188722000Y-60071000D01*
X187452000Y-64262000D02*
X188722000Y-62992000D01*
X177546000Y-64262000D02*
X187452000Y-64262000D01*
X177546000Y-70358000D02*
X177546000Y-64262000D01*
X187452000Y-70358000D02*
X177546000Y-70358000D01*
X188722000Y-71628000D02*
X187452000Y-70358000D01*
X188722000Y-82804000D02*
X188722000Y-71628000D01*
X187452000Y-84074000D02*
X188722000Y-82804000D01*
X176022000Y-84074000D02*
X187452000Y-84074000D01*
X187452000Y-90170000D02*
X176022000Y-90170000D01*
X188722000Y-91440000D02*
X187452000Y-90170000D01*
X188722000Y-102616000D02*
X188722000Y-91440000D01*
X187452000Y-103886000D02*
X188722000Y-102616000D01*
X172720000Y-103886000D02*
X187452000Y-103886000D01*
X171958000Y-104648000D02*
X172720000Y-103886000D01*
X168402000Y-104648000D02*
X171958000Y-104648000D01*
X167640000Y-103886000D02*
X168402000Y-104648000D01*
X153670000Y-103886000D02*
X167640000Y-103886000D01*
X152400000Y-100838000D02*
X152400000Y-102616000D01*
X151130000Y-100838000D02*
X152400000Y-100838000D01*
X164338000Y-90170000D02*
X154495500Y-90170000D01*
X136398000Y-84074000D02*
X164338000Y-84074000D01*
X147066000Y-90170000D02*
X136398000Y-90170000D01*
X148336000Y-91440000D02*
X147066000Y-90170000D01*
X148336000Y-98044000D02*
X148336000Y-91440000D01*
X133096000Y-103886000D02*
X145478500Y-103886000D01*
X132334000Y-104648000D02*
X133096000Y-103886000D01*
X128778000Y-104648000D02*
X132334000Y-104648000D01*
X128016000Y-103886000D02*
X128778000Y-104648000D01*
X112014000Y-103886000D02*
X128016000Y-103886000D01*
X110744000Y-102616000D02*
X112014000Y-103886000D01*
X110744000Y-91440000D02*
X110744000Y-102616000D01*
X112014000Y-90170000D02*
X110744000Y-91440000D01*
X124714000Y-90170000D02*
X112014000Y-90170000D01*
X112014000Y-84074000D02*
X124714000Y-84074000D01*
X110744000Y-82804000D02*
X112014000Y-84074000D01*
X110744000Y-71628000D02*
X110744000Y-82804000D01*
X112014000Y-70358000D02*
X110744000Y-71628000D01*
X122936000Y-70358000D02*
X112014000Y-70358000D01*
X122936000Y-64262000D02*
X122936000Y-70358000D01*
X112014000Y-64262000D02*
X122936000Y-64262000D01*
X110744000Y-62992000D02*
X112014000Y-64262000D01*
X110744000Y-62230000D02*
X110744000Y-62992000D01*
X109474000Y-60960000D02*
X110744000Y-62230000D01*
X109474000Y-57912000D02*
X109474000Y-60960000D01*
X110744000Y-56642000D02*
X109474000Y-57912000D01*
X110744000Y-50292000D02*
X110744000Y-56642000D01*
X111252000Y-49784000D02*
X110744000Y-50292000D01*
X114046000Y-49784000D02*
X111252000Y-49784000D01*
X114808000Y-50546000D02*
X114046000Y-49784000D01*
X122936000Y-50546000D02*
X114808000Y-50546000D01*
X122936000Y-44450000D02*
X122936000Y-50546000D01*
X113284000Y-44450000D02*
X122936000Y-44450000D01*
X112014000Y-43180000D02*
X113284000Y-44450000D01*
X112014000Y-41402000D02*
X112014000Y-43180000D01*
X104140000Y-41402000D02*
X112014000Y-41402000D01*
G36*
G01*
X114468000Y-46619000D02*
X114468000Y-47869000D01*
G75*
G02*
X114218000Y-48119000I-250000J0D01*
G01*
X113293000Y-48119000D01*
G75*
G02*
X113043000Y-47869000I0J250000D01*
G01*
X113043000Y-46619000D01*
G75*
G02*
X113293000Y-46369000I250000J0D01*
G01*
X114218000Y-46369000D01*
G75*
G02*
X114468000Y-46619000I0J-250000D01*
G01*
G37*
G36*
G01*
X111493000Y-46619000D02*
X111493000Y-47869000D01*
G75*
G02*
X111243000Y-48119000I-250000J0D01*
G01*
X110318000Y-48119000D01*
G75*
G02*
X110068000Y-47869000I0J250000D01*
G01*
X110068000Y-46619000D01*
G75*
G02*
X110318000Y-46369000I250000J0D01*
G01*
X111243000Y-46369000D01*
G75*
G02*
X111493000Y-46619000I0J-250000D01*
G01*
G37*
G36*
G01*
X120025000Y-107709000D02*
X121275000Y-107709000D01*
G75*
G02*
X121525000Y-107959000I0J-250000D01*
G01*
X121525000Y-108884000D01*
G75*
G02*
X121275000Y-109134000I-250000J0D01*
G01*
X120025000Y-109134000D01*
G75*
G02*
X119775000Y-108884000I0J250000D01*
G01*
X119775000Y-107959000D01*
G75*
G02*
X120025000Y-107709000I250000J0D01*
G01*
G37*
G36*
G01*
X120025000Y-104734000D02*
X121275000Y-104734000D01*
G75*
G02*
X121525000Y-104984000I0J-250000D01*
G01*
X121525000Y-105909000D01*
G75*
G02*
X121275000Y-106159000I-250000J0D01*
G01*
X120025000Y-106159000D01*
G75*
G02*
X119775000Y-105909000I0J250000D01*
G01*
X119775000Y-104984000D01*
G75*
G02*
X120025000Y-104734000I250000J0D01*
G01*
G37*
G36*
G01*
X120025000Y-87897000D02*
X121275000Y-87897000D01*
G75*
G02*
X121525000Y-88147000I0J-250000D01*
G01*
X121525000Y-89072000D01*
G75*
G02*
X121275000Y-89322000I-250000J0D01*
G01*
X120025000Y-89322000D01*
G75*
G02*
X119775000Y-89072000I0J250000D01*
G01*
X119775000Y-88147000D01*
G75*
G02*
X120025000Y-87897000I250000J0D01*
G01*
G37*
G36*
G01*
X120025000Y-84922000D02*
X121275000Y-84922000D01*
G75*
G02*
X121525000Y-85172000I0J-250000D01*
G01*
X121525000Y-86097000D01*
G75*
G02*
X121275000Y-86347000I-250000J0D01*
G01*
X120025000Y-86347000D01*
G75*
G02*
X119775000Y-86097000I0J250000D01*
G01*
X119775000Y-85172000D01*
G75*
G02*
X120025000Y-84922000I250000J0D01*
G01*
G37*
G36*
G01*
X118247000Y-65110000D02*
X119497000Y-65110000D01*
G75*
G02*
X119747000Y-65360000I0J-250000D01*
G01*
X119747000Y-66285000D01*
G75*
G02*
X119497000Y-66535000I-250000J0D01*
G01*
X118247000Y-66535000D01*
G75*
G02*
X117997000Y-66285000I0J250000D01*
G01*
X117997000Y-65360000D01*
G75*
G02*
X118247000Y-65110000I250000J0D01*
G01*
G37*
G36*
G01*
X118247000Y-68085000D02*
X119497000Y-68085000D01*
G75*
G02*
X119747000Y-68335000I0J-250000D01*
G01*
X119747000Y-69260000D01*
G75*
G02*
X119497000Y-69510000I-250000J0D01*
G01*
X118247000Y-69510000D01*
G75*
G02*
X117997000Y-69260000I0J250000D01*
G01*
X117997000Y-68335000D01*
G75*
G02*
X118247000Y-68085000I250000J0D01*
G01*
G37*
G36*
G01*
X118374000Y-48273000D02*
X119624000Y-48273000D01*
G75*
G02*
X119874000Y-48523000I0J-250000D01*
G01*
X119874000Y-49448000D01*
G75*
G02*
X119624000Y-49698000I-250000J0D01*
G01*
X118374000Y-49698000D01*
G75*
G02*
X118124000Y-49448000I0J250000D01*
G01*
X118124000Y-48523000D01*
G75*
G02*
X118374000Y-48273000I250000J0D01*
G01*
G37*
G36*
G01*
X118374000Y-45298000D02*
X119624000Y-45298000D01*
G75*
G02*
X119874000Y-45548000I0J-250000D01*
G01*
X119874000Y-46473000D01*
G75*
G02*
X119624000Y-46723000I-250000J0D01*
G01*
X118374000Y-46723000D01*
G75*
G02*
X118124000Y-46473000I0J250000D01*
G01*
X118124000Y-45548000D01*
G75*
G02*
X118374000Y-45298000I250000J0D01*
G01*
G37*
G36*
G01*
X159522000Y-87897000D02*
X160772000Y-87897000D01*
G75*
G02*
X161022000Y-88147000I0J-250000D01*
G01*
X161022000Y-89072000D01*
G75*
G02*
X160772000Y-89322000I-250000J0D01*
G01*
X159522000Y-89322000D01*
G75*
G02*
X159272000Y-89072000I0J250000D01*
G01*
X159272000Y-88147000D01*
G75*
G02*
X159522000Y-87897000I250000J0D01*
G01*
G37*
G36*
G01*
X159522000Y-84922000D02*
X160772000Y-84922000D01*
G75*
G02*
X161022000Y-85172000I0J-250000D01*
G01*
X161022000Y-86097000D01*
G75*
G02*
X160772000Y-86347000I-250000J0D01*
G01*
X159522000Y-86347000D01*
G75*
G02*
X159272000Y-86097000I0J250000D01*
G01*
X159272000Y-85172000D01*
G75*
G02*
X159522000Y-84922000I250000J0D01*
G01*
G37*
G36*
G01*
X140960000Y-89322000D02*
X139710000Y-89322000D01*
G75*
G02*
X139460000Y-89072000I0J250000D01*
G01*
X139460000Y-88147000D01*
G75*
G02*
X139710000Y-87897000I250000J0D01*
G01*
X140960000Y-87897000D01*
G75*
G02*
X141210000Y-88147000I0J-250000D01*
G01*
X141210000Y-89072000D01*
G75*
G02*
X140960000Y-89322000I-250000J0D01*
G01*
G37*
G36*
G01*
X140960000Y-86347000D02*
X139710000Y-86347000D01*
G75*
G02*
X139460000Y-86097000I0J250000D01*
G01*
X139460000Y-85172000D01*
G75*
G02*
X139710000Y-84922000I250000J0D01*
G01*
X140960000Y-84922000D01*
G75*
G02*
X141210000Y-85172000I0J-250000D01*
G01*
X141210000Y-86097000D01*
G75*
G02*
X140960000Y-86347000I-250000J0D01*
G01*
G37*
G36*
G01*
X159649000Y-107709000D02*
X160899000Y-107709000D01*
G75*
G02*
X161149000Y-107959000I0J-250000D01*
G01*
X161149000Y-108884000D01*
G75*
G02*
X160899000Y-109134000I-250000J0D01*
G01*
X159649000Y-109134000D01*
G75*
G02*
X159399000Y-108884000I0J250000D01*
G01*
X159399000Y-107959000D01*
G75*
G02*
X159649000Y-107709000I250000J0D01*
G01*
G37*
G36*
G01*
X159649000Y-104734000D02*
X160899000Y-104734000D01*
G75*
G02*
X161149000Y-104984000I0J-250000D01*
G01*
X161149000Y-105909000D01*
G75*
G02*
X160899000Y-106159000I-250000J0D01*
G01*
X159649000Y-106159000D01*
G75*
G02*
X159399000Y-105909000I0J250000D01*
G01*
X159399000Y-104984000D01*
G75*
G02*
X159649000Y-104734000I250000J0D01*
G01*
G37*
G36*
G01*
X141087000Y-106195500D02*
X139837000Y-106195500D01*
G75*
G02*
X139587000Y-105945500I0J250000D01*
G01*
X139587000Y-105020500D01*
G75*
G02*
X139837000Y-104770500I250000J0D01*
G01*
X141087000Y-104770500D01*
G75*
G02*
X141337000Y-105020500I0J-250000D01*
G01*
X141337000Y-105945500D01*
G75*
G02*
X141087000Y-106195500I-250000J0D01*
G01*
G37*
G36*
G01*
X141087000Y-109170500D02*
X139837000Y-109170500D01*
G75*
G02*
X139587000Y-108920500I0J250000D01*
G01*
X139587000Y-107995500D01*
G75*
G02*
X139837000Y-107745500I250000J0D01*
G01*
X141087000Y-107745500D01*
G75*
G02*
X141337000Y-107995500I0J-250000D01*
G01*
X141337000Y-108920500D01*
G75*
G02*
X141087000Y-109170500I-250000J0D01*
G01*
G37*
G36*
G01*
X182235000Y-49698000D02*
X180985000Y-49698000D01*
G75*
G02*
X180735000Y-49448000I0J250000D01*
G01*
X180735000Y-48523000D01*
G75*
G02*
X180985000Y-48273000I250000J0D01*
G01*
X182235000Y-48273000D01*
G75*
G02*
X182485000Y-48523000I0J-250000D01*
G01*
X182485000Y-49448000D01*
G75*
G02*
X182235000Y-49698000I-250000J0D01*
G01*
G37*
G36*
G01*
X182235000Y-46723000D02*
X180985000Y-46723000D01*
G75*
G02*
X180735000Y-46473000I0J250000D01*
G01*
X180735000Y-45548000D01*
G75*
G02*
X180985000Y-45298000I250000J0D01*
G01*
X182235000Y-45298000D01*
G75*
G02*
X182485000Y-45548000I0J-250000D01*
G01*
X182485000Y-46473000D01*
G75*
G02*
X182235000Y-46723000I-250000J0D01*
G01*
G37*
G36*
G01*
X182362000Y-69510000D02*
X181112000Y-69510000D01*
G75*
G02*
X180862000Y-69260000I0J250000D01*
G01*
X180862000Y-68335000D01*
G75*
G02*
X181112000Y-68085000I250000J0D01*
G01*
X182362000Y-68085000D01*
G75*
G02*
X182612000Y-68335000I0J-250000D01*
G01*
X182612000Y-69260000D01*
G75*
G02*
X182362000Y-69510000I-250000J0D01*
G01*
G37*
G36*
G01*
X182362000Y-66535000D02*
X181112000Y-66535000D01*
G75*
G02*
X180862000Y-66285000I0J250000D01*
G01*
X180862000Y-65360000D01*
G75*
G02*
X181112000Y-65110000I250000J0D01*
G01*
X182362000Y-65110000D01*
G75*
G02*
X182612000Y-65360000I0J-250000D01*
G01*
X182612000Y-66285000D01*
G75*
G02*
X182362000Y-66535000I-250000J0D01*
G01*
G37*
G36*
G01*
X180711000Y-86220000D02*
X179461000Y-86220000D01*
G75*
G02*
X179211000Y-85970000I0J250000D01*
G01*
X179211000Y-85045000D01*
G75*
G02*
X179461000Y-84795000I250000J0D01*
G01*
X180711000Y-84795000D01*
G75*
G02*
X180961000Y-85045000I0J-250000D01*
G01*
X180961000Y-85970000D01*
G75*
G02*
X180711000Y-86220000I-250000J0D01*
G01*
G37*
G36*
G01*
X180711000Y-89195000D02*
X179461000Y-89195000D01*
G75*
G02*
X179211000Y-88945000I0J250000D01*
G01*
X179211000Y-88020000D01*
G75*
G02*
X179461000Y-87770000I250000J0D01*
G01*
X180711000Y-87770000D01*
G75*
G02*
X180961000Y-88020000I0J-250000D01*
G01*
X180961000Y-88945000D01*
G75*
G02*
X180711000Y-89195000I-250000J0D01*
G01*
G37*
G36*
G01*
X180711000Y-106159000D02*
X179461000Y-106159000D01*
G75*
G02*
X179211000Y-105909000I0J250000D01*
G01*
X179211000Y-104984000D01*
G75*
G02*
X179461000Y-104734000I250000J0D01*
G01*
X180711000Y-104734000D01*
G75*
G02*
X180961000Y-104984000I0J-250000D01*
G01*
X180961000Y-105909000D01*
G75*
G02*
X180711000Y-106159000I-250000J0D01*
G01*
G37*
G36*
G01*
X180711000Y-109134000D02*
X179461000Y-109134000D01*
G75*
G02*
X179211000Y-108884000I0J250000D01*
G01*
X179211000Y-107959000D01*
G75*
G02*
X179461000Y-107709000I250000J0D01*
G01*
X180711000Y-107709000D01*
G75*
G02*
X180961000Y-107959000I0J-250000D01*
G01*
X180961000Y-108884000D01*
G75*
G02*
X180711000Y-109134000I-250000J0D01*
G01*
G37*
M02*
