G04 #@! TF.GenerationSoftware,KiCad,Pcbnew,(5.1.6)-1*
G04 #@! TF.CreationDate,2020-07-05T02:04:56-07:00*
G04 #@! TF.ProjectId,daughter,64617567-6874-4657-922e-6b696361645f,rev?*
G04 #@! TF.SameCoordinates,Original*
G04 #@! TF.FileFunction,Legend,Top*
G04 #@! TF.FilePolarity,Positive*
%FSLAX46Y46*%
G04 Gerber Fmt 4.6, Leading zero omitted, Abs format (unit mm)*
G04 Created by KiCad (PCBNEW (5.1.6)-1) date 2020-07-05 02:04:56*
%MOMM*%
%LPD*%
G01*
G04 APERTURE LIST*
G04 #@! TA.AperFunction,Profile*
%ADD10C,0.050000*%
G04 #@! TD*
G04 #@! TA.AperFunction,Profile*
%ADD11C,0.120000*%
G04 #@! TD*
%ADD12C,0.120000*%
%ADD13C,0.150000*%
G04 APERTURE END LIST*
D10*
X153670000Y-103886000D02*
X152400000Y-102616000D01*
X145478500Y-103886000D02*
X146748500Y-102616000D01*
X146748500Y-98044000D02*
X147701000Y-98044000D01*
X146748500Y-102552500D02*
X146748500Y-98044000D01*
X146748500Y-102552500D02*
X146748500Y-102616000D01*
X148336000Y-98044000D02*
X147701000Y-98044000D01*
X151130000Y-97345500D02*
X151130000Y-100838000D01*
X154495500Y-90170000D02*
X153225500Y-91440000D01*
X153225500Y-97345500D02*
X153225500Y-91440000D01*
X151130000Y-97345500D02*
X153225500Y-97345500D01*
X167005000Y-81851500D02*
X173355000Y-81851500D01*
X176022000Y-84074000D02*
X173355000Y-81851500D01*
X164338000Y-84074000D02*
X167005000Y-81851500D01*
X173672500Y-88455500D02*
X166687500Y-88455500D01*
X176022000Y-90170000D02*
X173672500Y-88455500D01*
X164338000Y-90170000D02*
X166687500Y-88455500D01*
X127381000Y-81851500D02*
X133731000Y-81851500D01*
X134048500Y-88455500D02*
X127063500Y-88455500D01*
X136398000Y-90170000D02*
X134048500Y-88455500D01*
X136398000Y-84074000D02*
X133731000Y-81851500D01*
X124714000Y-84074000D02*
X127381000Y-81851500D01*
X124714000Y-90170000D02*
X127063500Y-88455500D01*
X107950000Y-118110000D02*
X192786000Y-118110000D01*
X197231000Y-41148000D02*
X196596000Y-41148000D01*
X197231000Y-113665000D02*
X197231000Y-41148000D01*
X103505000Y-41402000D02*
X104140000Y-41402000D01*
X103505000Y-113665000D02*
X103505000Y-41402000D01*
D11*
X107950000Y-118110000D02*
G75*
G02*
X103505000Y-113665000I0J4445000D01*
G01*
X197231000Y-113665000D02*
G75*
G02*
X192786000Y-118110000I-4445000J0D01*
G01*
D10*
X188468000Y-41148000D02*
X196596000Y-41148000D01*
X188468000Y-43180000D02*
X188468000Y-41148000D01*
X187198000Y-44450000D02*
X188468000Y-43180000D01*
X177546000Y-44450000D02*
X187198000Y-44450000D01*
X177546000Y-50546000D02*
X177546000Y-44450000D01*
X187198000Y-50546000D02*
X177546000Y-50546000D01*
X188468000Y-51816000D02*
X187198000Y-50546000D01*
X188468000Y-53594000D02*
X188468000Y-51816000D01*
X189865000Y-54991000D02*
X188468000Y-53594000D01*
X189865000Y-58928000D02*
X189865000Y-54991000D01*
X188722000Y-60071000D02*
X189865000Y-58928000D01*
X188722000Y-62992000D02*
X188722000Y-60071000D01*
X187452000Y-64262000D02*
X188722000Y-62992000D01*
X177546000Y-64262000D02*
X187452000Y-64262000D01*
X177546000Y-70358000D02*
X177546000Y-64262000D01*
X187452000Y-70358000D02*
X177546000Y-70358000D01*
X188722000Y-71628000D02*
X187452000Y-70358000D01*
X188722000Y-82804000D02*
X188722000Y-71628000D01*
X187452000Y-84074000D02*
X188722000Y-82804000D01*
X176022000Y-84074000D02*
X187452000Y-84074000D01*
X187452000Y-90170000D02*
X176022000Y-90170000D01*
X188722000Y-91440000D02*
X187452000Y-90170000D01*
X188722000Y-102616000D02*
X188722000Y-91440000D01*
X187452000Y-103886000D02*
X188722000Y-102616000D01*
X172720000Y-103886000D02*
X187452000Y-103886000D01*
X171958000Y-104648000D02*
X172720000Y-103886000D01*
X168402000Y-104648000D02*
X171958000Y-104648000D01*
X167640000Y-103886000D02*
X168402000Y-104648000D01*
X153670000Y-103886000D02*
X167640000Y-103886000D01*
X152400000Y-100838000D02*
X152400000Y-102616000D01*
X151130000Y-100838000D02*
X152400000Y-100838000D01*
X164338000Y-90170000D02*
X154495500Y-90170000D01*
X136398000Y-84074000D02*
X164338000Y-84074000D01*
X147066000Y-90170000D02*
X136398000Y-90170000D01*
X148336000Y-91440000D02*
X147066000Y-90170000D01*
X148336000Y-98044000D02*
X148336000Y-91440000D01*
X133096000Y-103886000D02*
X145478500Y-103886000D01*
X132334000Y-104648000D02*
X133096000Y-103886000D01*
X128778000Y-104648000D02*
X132334000Y-104648000D01*
X128016000Y-103886000D02*
X128778000Y-104648000D01*
X112014000Y-103886000D02*
X128016000Y-103886000D01*
X110744000Y-102616000D02*
X112014000Y-103886000D01*
X110744000Y-91440000D02*
X110744000Y-102616000D01*
X112014000Y-90170000D02*
X110744000Y-91440000D01*
X124714000Y-90170000D02*
X112014000Y-90170000D01*
X112014000Y-84074000D02*
X124714000Y-84074000D01*
X110744000Y-82804000D02*
X112014000Y-84074000D01*
X110744000Y-71628000D02*
X110744000Y-82804000D01*
X112014000Y-70358000D02*
X110744000Y-71628000D01*
X122936000Y-70358000D02*
X112014000Y-70358000D01*
X122936000Y-64262000D02*
X122936000Y-70358000D01*
X112014000Y-64262000D02*
X122936000Y-64262000D01*
X110744000Y-62992000D02*
X112014000Y-64262000D01*
X110744000Y-62230000D02*
X110744000Y-62992000D01*
X109474000Y-60960000D02*
X110744000Y-62230000D01*
X109474000Y-57912000D02*
X109474000Y-60960000D01*
X110744000Y-56642000D02*
X109474000Y-57912000D01*
X110744000Y-50292000D02*
X110744000Y-56642000D01*
X111252000Y-49784000D02*
X110744000Y-50292000D01*
X114046000Y-49784000D02*
X111252000Y-49784000D01*
X114808000Y-50546000D02*
X114046000Y-49784000D01*
X122936000Y-50546000D02*
X114808000Y-50546000D01*
X122936000Y-44450000D02*
X122936000Y-50546000D01*
X113284000Y-44450000D02*
X122936000Y-44450000D01*
X112014000Y-43180000D02*
X113284000Y-44450000D01*
X112014000Y-41402000D02*
X112014000Y-43180000D01*
X104140000Y-41402000D02*
X112014000Y-41402000D01*
D12*
X112074000Y-44764000D02*
X112074000Y-42104000D01*
X106934000Y-44764000D02*
X112074000Y-44764000D01*
X106934000Y-42104000D02*
X112074000Y-42104000D01*
X106934000Y-44764000D02*
X106934000Y-42104000D01*
X105664000Y-44764000D02*
X104334000Y-44764000D01*
X104334000Y-44764000D02*
X104334000Y-43434000D01*
X144112000Y-89872000D02*
X136812000Y-89872000D01*
X144112000Y-84372000D02*
X136812000Y-84372000D01*
X136812000Y-84372000D02*
X136812000Y-85522000D01*
X117000000Y-104184000D02*
X124300000Y-104184000D01*
X117000000Y-109684000D02*
X124300000Y-109684000D01*
X124300000Y-109684000D02*
X124300000Y-108534000D01*
X124300000Y-89872000D02*
X124300000Y-88722000D01*
X117000000Y-89872000D02*
X124300000Y-89872000D01*
X117000000Y-84372000D02*
X124300000Y-84372000D01*
X115349000Y-64560000D02*
X122649000Y-64560000D01*
X115349000Y-70060000D02*
X122649000Y-70060000D01*
X122649000Y-70060000D02*
X122649000Y-68910000D01*
X115349000Y-44748000D02*
X122649000Y-44748000D01*
X115349000Y-50248000D02*
X122649000Y-50248000D01*
X122649000Y-50248000D02*
X122649000Y-49098000D01*
X163924000Y-109684000D02*
X163924000Y-108534000D01*
X156624000Y-109684000D02*
X163924000Y-109684000D01*
X156624000Y-104184000D02*
X163924000Y-104184000D01*
X163924000Y-89872000D02*
X163924000Y-88722000D01*
X156624000Y-89872000D02*
X163924000Y-89872000D01*
X156624000Y-84372000D02*
X163924000Y-84372000D01*
X144112000Y-109684000D02*
X136812000Y-109684000D01*
X144112000Y-104184000D02*
X136812000Y-104184000D01*
X136812000Y-104184000D02*
X136812000Y-105334000D01*
X178087000Y-44748000D02*
X178087000Y-45898000D01*
X185387000Y-44748000D02*
X178087000Y-44748000D01*
X185387000Y-50248000D02*
X178087000Y-50248000D01*
X178087000Y-64560000D02*
X178087000Y-65710000D01*
X185387000Y-64560000D02*
X178087000Y-64560000D01*
X185387000Y-70060000D02*
X178087000Y-70060000D01*
X183736000Y-89745000D02*
X176436000Y-89745000D01*
X183736000Y-84245000D02*
X176436000Y-84245000D01*
X176436000Y-84245000D02*
X176436000Y-85395000D01*
X176436000Y-104184000D02*
X176436000Y-105334000D01*
X183736000Y-104184000D02*
X176436000Y-104184000D01*
X183736000Y-109684000D02*
X176436000Y-109684000D01*
X196402000Y-44764000D02*
X196402000Y-42104000D01*
X191262000Y-44764000D02*
X196402000Y-44764000D01*
X191262000Y-42104000D02*
X196402000Y-42104000D01*
X191262000Y-44764000D02*
X191262000Y-42104000D01*
X189992000Y-44764000D02*
X188662000Y-44764000D01*
X188662000Y-44764000D02*
X188662000Y-43434000D01*
D13*
X144897714Y-89174380D02*
X144326285Y-89174380D01*
X144612000Y-89174380D02*
X144612000Y-88174380D01*
X144516761Y-88317238D01*
X144421523Y-88412476D01*
X144326285Y-88460095D01*
X116785714Y-105786380D02*
X116214285Y-105786380D01*
X116500000Y-105786380D02*
X116500000Y-104786380D01*
X116404761Y-104929238D01*
X116309523Y-105024476D01*
X116214285Y-105072095D01*
X116785714Y-85974380D02*
X116214285Y-85974380D01*
X116500000Y-85974380D02*
X116500000Y-84974380D01*
X116404761Y-85117238D01*
X116309523Y-85212476D01*
X116214285Y-85260095D01*
X115134714Y-66162380D02*
X114563285Y-66162380D01*
X114849000Y-66162380D02*
X114849000Y-65162380D01*
X114753761Y-65305238D01*
X114658523Y-65400476D01*
X114563285Y-65448095D01*
X115134714Y-46350380D02*
X114563285Y-46350380D01*
X114849000Y-46350380D02*
X114849000Y-45350380D01*
X114753761Y-45493238D01*
X114658523Y-45588476D01*
X114563285Y-45636095D01*
X156409714Y-105786380D02*
X155838285Y-105786380D01*
X156124000Y-105786380D02*
X156124000Y-104786380D01*
X156028761Y-104929238D01*
X155933523Y-105024476D01*
X155838285Y-105072095D01*
X156409714Y-85974380D02*
X155838285Y-85974380D01*
X156124000Y-85974380D02*
X156124000Y-84974380D01*
X156028761Y-85117238D01*
X155933523Y-85212476D01*
X155838285Y-85260095D01*
X144897714Y-108986380D02*
X144326285Y-108986380D01*
X144612000Y-108986380D02*
X144612000Y-107986380D01*
X144516761Y-108129238D01*
X144421523Y-108224476D01*
X144326285Y-108272095D01*
X186172714Y-49550380D02*
X185601285Y-49550380D01*
X185887000Y-49550380D02*
X185887000Y-48550380D01*
X185791761Y-48693238D01*
X185696523Y-48788476D01*
X185601285Y-48836095D01*
X186172714Y-69362380D02*
X185601285Y-69362380D01*
X185887000Y-69362380D02*
X185887000Y-68362380D01*
X185791761Y-68505238D01*
X185696523Y-68600476D01*
X185601285Y-68648095D01*
X184521714Y-89047380D02*
X183950285Y-89047380D01*
X184236000Y-89047380D02*
X184236000Y-88047380D01*
X184140761Y-88190238D01*
X184045523Y-88285476D01*
X183950285Y-88333095D01*
X184521714Y-108986380D02*
X183950285Y-108986380D01*
X184236000Y-108986380D02*
X184236000Y-107986380D01*
X184140761Y-108129238D01*
X184045523Y-108224476D01*
X183950285Y-108272095D01*
M02*
