G04 #@! TF.GenerationSoftware,KiCad,Pcbnew,(5.0.0-3-g5ebb6b6)*
G04 #@! TF.CreationDate,2019-06-24T17:05:22-07:00*
G04 #@! TF.ProjectId,arrowPad,6172726F775061642E6B696361645F70,rev?*
G04 #@! TF.SameCoordinates,Original*
G04 #@! TF.FileFunction,Paste,Bot*
G04 #@! TF.FilePolarity,Positive*
%FSLAX46Y46*%
G04 Gerber Fmt 4.6, Leading zero omitted, Abs format (unit mm)*
G04 Created by KiCad (PCBNEW (5.0.0-3-g5ebb6b6)) date Monday, June 24, 2019 at 05:05:22 PM*
%MOMM*%
%LPD*%
G01*
G04 APERTURE LIST*
%ADD10R,2.600000X2.600000*%
%ADD11R,1.200000X1.200000*%
%ADD12R,1.100000X0.400000*%
%ADD13R,0.900000X1.400000*%
%ADD14R,2.200000X2.800000*%
%ADD15R,2.800000X2.600000*%
%ADD16R,2.000000X2.800000*%
%ADD17R,0.930000X1.310000*%
%ADD18R,3.240000X1.310000*%
G04 APERTURE END LIST*
D10*
G04 #@! TO.C,K8*
X191235000Y-89770000D03*
X179685000Y-87570000D03*
G04 #@! TD*
G04 #@! TO.C,K6*
X153135000Y-89770000D03*
X141585000Y-87570000D03*
G04 #@! TD*
G04 #@! TO.C,K1*
X122535000Y-68520000D03*
X134085000Y-70720000D03*
G04 #@! TD*
G04 #@! TO.C,K2*
X153135000Y-70764000D03*
X141585000Y-68564000D03*
G04 #@! TD*
G04 #@! TO.C,K3*
X160635000Y-68520000D03*
X172185000Y-70720000D03*
G04 #@! TD*
G04 #@! TO.C,K4*
X191235000Y-70720000D03*
X179685000Y-68520000D03*
G04 #@! TD*
G04 #@! TO.C,K5*
X122535000Y-87570000D03*
X134085000Y-89770000D03*
G04 #@! TD*
G04 #@! TO.C,K7*
X160635000Y-87570000D03*
X172185000Y-89770000D03*
G04 #@! TD*
G04 #@! TO.C,K9*
X122535000Y-106620000D03*
X134085000Y-108820000D03*
G04 #@! TD*
G04 #@! TO.C,K10*
X153135000Y-108820000D03*
X141585000Y-106620000D03*
G04 #@! TD*
G04 #@! TO.C,K11*
X160635000Y-106620000D03*
X172185000Y-108820000D03*
G04 #@! TD*
G04 #@! TO.C,K12*
X179685000Y-106620000D03*
X191235000Y-108820000D03*
G04 #@! TD*
G04 #@! TO.C,K13*
X134085000Y-127870000D03*
X122535000Y-125670000D03*
G04 #@! TD*
G04 #@! TO.C,K14*
X141585000Y-125670000D03*
X153135000Y-127870000D03*
G04 #@! TD*
G04 #@! TO.C,K15*
X172185000Y-127870000D03*
X160635000Y-125670000D03*
G04 #@! TD*
G04 #@! TO.C,K16*
X179685000Y-125670000D03*
X191235000Y-127870000D03*
G04 #@! TD*
D11*
G04 #@! TO.C,R2*
X140550900Y-120167600D03*
X140550900Y-117017600D03*
G04 #@! TD*
D12*
G04 #@! TO.C,U7*
X120975000Y-81047300D03*
X120975000Y-80397300D03*
X120975000Y-79747300D03*
X120975000Y-79097300D03*
X120975000Y-78447300D03*
X120975000Y-77797300D03*
X120975000Y-77147300D03*
X120975000Y-76497300D03*
X120975000Y-75847300D03*
X120975000Y-75197300D03*
X120975000Y-74547300D03*
X120975000Y-73897300D03*
X120975000Y-73247300D03*
X120975000Y-72597300D03*
X126675000Y-72597300D03*
X126675000Y-73247300D03*
X126675000Y-73897300D03*
X126675000Y-74547300D03*
X126675000Y-75197300D03*
X126675000Y-75847300D03*
X126675000Y-76497300D03*
X126675000Y-77147300D03*
X126675000Y-77797300D03*
X126675000Y-78447300D03*
X126675000Y-79097300D03*
X126675000Y-79747300D03*
X126675000Y-80397300D03*
X126675000Y-81047300D03*
D13*
X123225000Y-78602300D03*
X124425000Y-78602300D03*
X124425000Y-76822300D03*
X123225000Y-76822300D03*
X124425000Y-75042300D03*
X123225000Y-75042300D03*
G04 #@! TD*
D14*
G04 #@! TO.C,J1*
X199574400Y-100486700D03*
X197674400Y-93086700D03*
D15*
X190174400Y-100386700D03*
D16*
X202374400Y-100486700D03*
G04 #@! TD*
G04 #@! TO.C,J2*
X116433700Y-93150200D03*
D15*
X128633700Y-93250200D03*
D14*
X121133700Y-100550200D03*
X119233700Y-93150200D03*
G04 #@! TD*
D17*
G04 #@! TO.C,U4*
X138045000Y-53805000D03*
X140335000Y-53805000D03*
X142625000Y-53805000D03*
D18*
X140335000Y-60495000D03*
G04 #@! TD*
M02*
