M48
;DRILL file {KiCad (5.0.0-3-g5ebb6b6)} date Tuesday, May 07, 2019 at 12:16:01 AM
;FORMAT={-:-/ absolute / inch / decimal}
FMAT,2
INCH,TZ
T1C0.0390
T2C0.0669
T3C0.0670
T4C0.1181
T5C0.1260
T6C0.1350
%
G90
G05
M72
T1
X7.6055Y-3.1346
X6.8555Y-3.8846
X7.6055Y-4.6346
X6.1055Y-4.6346
X5.3555Y-3.1346
X6.8555Y-4.6346
X7.6055Y-2.3846
X6.1055Y-3.1346
X5.3555Y-4.6346
X6.8555Y-3.1346
X7.6055Y-3.8846
X5.3555Y-2.3846
X6.1055Y-3.8846
X6.1055Y-2.3864
X6.8555Y-2.3846
X5.3555Y-3.8846
T2
X5.0159Y-3.8145
X5.2915Y-3.8145
X7.2166Y-3.8103
X7.4922Y-3.8103
T3
X6.4335Y-3.3
X6.8665Y-3.3
X7.1835Y-4.05
X7.6165Y-4.05
X6.4335Y-2.55
X6.8665Y-2.55
X4.9335Y-4.05
X5.3665Y-4.05
X4.9335Y-2.55
X5.3665Y-2.55
X4.9335Y-3.3
X5.3665Y-3.3
X6.4335Y-4.8
X6.8665Y-4.8
X5.6835Y-4.05
X6.1165Y-4.05
X7.1835Y-2.55
X7.6165Y-2.55
X7.1835Y-3.3
X7.6165Y-3.3
X6.4335Y-4.05
X6.8665Y-4.05
X5.6835Y-2.5517
X6.1165Y-2.5517
X5.6835Y-3.3
X6.1165Y-3.3
X4.9335Y-4.8
X5.3665Y-4.8
X7.1835Y-4.8
X7.6165Y-4.8
X5.6835Y-4.8
X6.1165Y-4.8
T4
X4.9531Y-4.9476
X5.15Y-5.0343
X7.2031Y-4.9476
X7.4Y-5.0343
X5.7031Y-4.9476
X5.9Y-5.0343
X6.4531Y-3.4476
X6.65Y-3.5343
X7.2031Y-4.1976
X7.4Y-4.2843
X6.4531Y-2.6976
X6.65Y-2.7843
X4.9531Y-4.1976
X5.15Y-4.2843
X4.9531Y-2.6976
X5.15Y-2.7843
X4.9531Y-3.4476
X5.15Y-3.5343
X6.4531Y-4.9476
X6.65Y-5.0343
X5.7031Y-4.1976
X5.9Y-4.2843
X7.2031Y-2.6976
X7.4Y-2.7843
X7.2031Y-3.4476
X7.4Y-3.5343
X6.4531Y-4.1976
X6.65Y-4.2843
X5.7031Y-2.6994
X5.9Y-2.786
X5.7031Y-3.4476
X5.9Y-3.5343
T5
X4.675Y-2.075
X4.675Y-5.275
X7.875Y-2.075
X7.875Y-5.275
T6
X5.9Y-3.3
X5.15Y-4.8
X7.4Y-4.8
X5.9Y-4.8
X7.4Y-4.05
X5.15Y-3.3
X6.65Y-4.8
X5.9Y-4.05
X7.4Y-3.3
X6.65Y-4.05
X5.9Y-2.5517
X6.65Y-3.3
X6.65Y-2.55
X5.15Y-4.05
X5.15Y-2.55
X7.4Y-2.55
T0
M30
