G04 #@! TF.GenerationSoftware,KiCad,Pcbnew,(5.0.0-3-g5ebb6b6)*
G04 #@! TF.CreationDate,2019-06-24T17:05:22-07:00*
G04 #@! TF.ProjectId,arrowPad,6172726F775061642E6B696361645F70,rev?*
G04 #@! TF.SameCoordinates,Original*
G04 #@! TF.FileFunction,Legend,Top*
G04 #@! TF.FilePolarity,Positive*
%FSLAX46Y46*%
G04 Gerber Fmt 4.6, Leading zero omitted, Abs format (unit mm)*
G04 Created by KiCad (PCBNEW (5.0.0-3-g5ebb6b6)) date Monday, June 24, 2019 at 05:05:22 PM*
%MOMM*%
%LPD*%
G01*
G04 APERTURE LIST*
%ADD10C,0.300000*%
%ADD11C,0.200000*%
%ADD12C,0.150000*%
%ADD13C,3.600000*%
%ADD14C,2.101800*%
%ADD15C,3.400000*%
%ADD16C,3.829000*%
%ADD17C,1.390600*%
%ADD18O,1.400000X1.400000*%
%ADD19R,1.400000X1.400000*%
%ADD20R,2.100000X2.100000*%
%ADD21O,2.100000X2.100000*%
%ADD22R,1.600000X1.600000*%
%ADD23R,2.000000X2.000000*%
%ADD24C,2.000000*%
%ADD25R,2.000000X3.200000*%
%ADD26C,2.100000*%
G04 APERTURE END LIST*
D10*
X148567485Y-135135157D02*
X148781771Y-135206585D01*
X148853200Y-135278014D01*
X148924628Y-135420871D01*
X148924628Y-135635157D01*
X148853200Y-135778014D01*
X148781771Y-135849442D01*
X148638914Y-135920871D01*
X148067485Y-135920871D01*
X148067485Y-134420871D01*
X148567485Y-134420871D01*
X148710342Y-134492300D01*
X148781771Y-134563728D01*
X148853200Y-134706585D01*
X148853200Y-134849442D01*
X148781771Y-134992300D01*
X148710342Y-135063728D01*
X148567485Y-135135157D01*
X148067485Y-135135157D01*
X149424628Y-134920871D02*
X149781771Y-135920871D01*
X150138914Y-134920871D02*
X149781771Y-135920871D01*
X149638914Y-136278014D01*
X149567485Y-136349442D01*
X149424628Y-136420871D01*
X150710342Y-135778014D02*
X150781771Y-135849442D01*
X150710342Y-135920871D01*
X150638914Y-135849442D01*
X150710342Y-135778014D01*
X150710342Y-135920871D01*
X150710342Y-134992300D02*
X150781771Y-135063728D01*
X150710342Y-135135157D01*
X150638914Y-135063728D01*
X150710342Y-134992300D01*
X150710342Y-135135157D01*
X153281771Y-135920871D02*
X152567485Y-135920871D01*
X152567485Y-134420871D01*
X153996057Y-135920871D02*
X153853200Y-135849442D01*
X153781771Y-135778014D01*
X153710342Y-135635157D01*
X153710342Y-135206585D01*
X153781771Y-135063728D01*
X153853200Y-134992300D01*
X153996057Y-134920871D01*
X154210342Y-134920871D01*
X154353200Y-134992300D01*
X154424628Y-135063728D01*
X154496057Y-135206585D01*
X154496057Y-135635157D01*
X154424628Y-135778014D01*
X154353200Y-135849442D01*
X154210342Y-135920871D01*
X153996057Y-135920871D01*
X154996057Y-134920871D02*
X155281771Y-135920871D01*
X155567485Y-135206585D01*
X155853200Y-135920871D01*
X156138914Y-134920871D01*
X157138914Y-134420871D02*
X157138914Y-135492300D01*
X157067485Y-135706585D01*
X156924628Y-135849442D01*
X156710342Y-135920871D01*
X156567485Y-135920871D01*
X159987385Y-135946271D02*
X159844528Y-135874842D01*
X159773100Y-135731985D01*
X159773100Y-134446271D01*
X161201671Y-135946271D02*
X161201671Y-135160557D01*
X161130242Y-135017700D01*
X160987385Y-134946271D01*
X160701671Y-134946271D01*
X160558814Y-135017700D01*
X161201671Y-135874842D02*
X161058814Y-135946271D01*
X160701671Y-135946271D01*
X160558814Y-135874842D01*
X160487385Y-135731985D01*
X160487385Y-135589128D01*
X160558814Y-135446271D01*
X160701671Y-135374842D01*
X161058814Y-135374842D01*
X161201671Y-135303414D01*
X161773100Y-134946271D02*
X162558814Y-134946271D01*
X161773100Y-135946271D01*
X162558814Y-135946271D01*
X162987385Y-134946271D02*
X163344528Y-135946271D01*
X163701671Y-134946271D02*
X163344528Y-135946271D01*
X163201671Y-136303414D01*
X163130242Y-136374842D01*
X162987385Y-136446271D01*
X164273100Y-135374842D02*
X165415957Y-135374842D01*
X166130242Y-135946271D02*
X166130242Y-134446271D01*
X166130242Y-135017700D02*
X166273100Y-134946271D01*
X166558814Y-134946271D01*
X166701671Y-135017700D01*
X166773100Y-135089128D01*
X166844528Y-135231985D01*
X166844528Y-135660557D01*
X166773100Y-135803414D01*
X166701671Y-135874842D01*
X166558814Y-135946271D01*
X166273100Y-135946271D01*
X166130242Y-135874842D01*
X167701671Y-135946271D02*
X167558814Y-135874842D01*
X167487385Y-135803414D01*
X167415957Y-135660557D01*
X167415957Y-135231985D01*
X167487385Y-135089128D01*
X167558814Y-135017700D01*
X167701671Y-134946271D01*
X167915957Y-134946271D01*
X168058814Y-135017700D01*
X168130242Y-135089128D01*
X168201671Y-135231985D01*
X168201671Y-135660557D01*
X168130242Y-135803414D01*
X168058814Y-135874842D01*
X167915957Y-135946271D01*
X167701671Y-135946271D01*
X169487385Y-135946271D02*
X169487385Y-135160557D01*
X169415957Y-135017700D01*
X169273100Y-134946271D01*
X168987385Y-134946271D01*
X168844528Y-135017700D01*
X169487385Y-135874842D02*
X169344528Y-135946271D01*
X168987385Y-135946271D01*
X168844528Y-135874842D01*
X168773100Y-135731985D01*
X168773100Y-135589128D01*
X168844528Y-135446271D01*
X168987385Y-135374842D01*
X169344528Y-135374842D01*
X169487385Y-135303414D01*
X170201671Y-135946271D02*
X170201671Y-134946271D01*
X170201671Y-135231985D02*
X170273100Y-135089128D01*
X170344528Y-135017700D01*
X170487385Y-134946271D01*
X170630242Y-134946271D01*
X171773100Y-135946271D02*
X171773100Y-134446271D01*
X171773100Y-135874842D02*
X171630242Y-135946271D01*
X171344528Y-135946271D01*
X171201671Y-135874842D01*
X171130242Y-135803414D01*
X171058814Y-135660557D01*
X171058814Y-135231985D01*
X171130242Y-135089128D01*
X171201671Y-135017700D01*
X171344528Y-134946271D01*
X171630242Y-134946271D01*
X171773100Y-135017700D01*
D11*
G04 #@! TO.C,R1*
X203790400Y-76223700D02*
X201390400Y-76223700D01*
X203790400Y-76048700D02*
X201390400Y-76048700D01*
X203790400Y-75873700D02*
X201390400Y-75873700D01*
X201390400Y-75473700D02*
X203790400Y-75473700D01*
X203790400Y-75698700D02*
X201390400Y-75698700D01*
X203790400Y-75573700D02*
X201390400Y-75573700D01*
X203790400Y-75498700D02*
X203790400Y-81298700D01*
X203790400Y-81298700D02*
X201390400Y-81298700D01*
X201390400Y-81298700D02*
X201390400Y-75498700D01*
D12*
G04 #@! TO.C,U1*
X196215000Y-57150000D02*
X165735000Y-57150000D01*
X196215000Y-57150000D02*
X196215000Y-62230000D01*
X196215000Y-62230000D02*
X198755000Y-62230000D01*
X198755000Y-62230000D02*
X198755000Y-69850000D01*
X198755000Y-69850000D02*
X196215000Y-69850000D01*
X196215000Y-69850000D02*
X196215000Y-74930000D01*
X196215000Y-74930000D02*
X165735000Y-74930000D01*
X165735000Y-74930000D02*
X165735000Y-57150000D01*
D11*
G04 #@! TO.C,D20*
X128266400Y-100604400D02*
X128266400Y-96829400D01*
X128266400Y-96829400D02*
X134166400Y-96829400D01*
X134166400Y-96829400D02*
X134166400Y-100604400D01*
X134166400Y-100604400D02*
X128266400Y-100604400D01*
G04 #@! TO.C,D21*
X152606800Y-99855100D02*
X146706800Y-99855100D01*
X152606800Y-96080100D02*
X152606800Y-99855100D01*
X146706800Y-96080100D02*
X152606800Y-96080100D01*
X146706800Y-99855100D02*
X146706800Y-96080100D01*
G04 #@! TO.C,D22*
X166417200Y-99537600D02*
X166417200Y-95762600D01*
X166417200Y-95762600D02*
X172317200Y-95762600D01*
X172317200Y-95762600D02*
X172317200Y-99537600D01*
X172317200Y-99537600D02*
X166417200Y-99537600D01*
G04 #@! TO.C,D23*
X191062400Y-99702700D02*
X185162400Y-99702700D01*
X191062400Y-95927700D02*
X191062400Y-99702700D01*
X185162400Y-95927700D02*
X191062400Y-95927700D01*
X185162400Y-99702700D02*
X185162400Y-95927700D01*
G04 #@! TO.C,D24*
X127860000Y-81275000D02*
X127860000Y-77500000D01*
X127860000Y-77500000D02*
X133760000Y-77500000D01*
X133760000Y-77500000D02*
X133760000Y-81275000D01*
X133760000Y-81275000D02*
X127860000Y-81275000D01*
G04 #@! TO.C,D25*
X152810000Y-81275000D02*
X146910000Y-81275000D01*
X152810000Y-77500000D02*
X152810000Y-81275000D01*
X146910000Y-77500000D02*
X152810000Y-77500000D01*
X146910000Y-81275000D02*
X146910000Y-77500000D01*
G04 #@! TO.C,D26*
X165960000Y-81275000D02*
X165960000Y-77500000D01*
X165960000Y-77500000D02*
X171860000Y-77500000D01*
X171860000Y-77500000D02*
X171860000Y-81275000D01*
X171860000Y-81275000D02*
X165960000Y-81275000D01*
G04 #@! TO.C,D27*
X190910000Y-81275000D02*
X185010000Y-81275000D01*
X190910000Y-77500000D02*
X190910000Y-81275000D01*
X185010000Y-77500000D02*
X190910000Y-77500000D01*
X185010000Y-81275000D02*
X185010000Y-77500000D01*
G04 #@! TO.C,D28*
X127834600Y-61907500D02*
X127834600Y-58132500D01*
X127834600Y-58132500D02*
X133734600Y-58132500D01*
X133734600Y-58132500D02*
X133734600Y-61907500D01*
X133734600Y-61907500D02*
X127834600Y-61907500D01*
G04 #@! TO.C,D29*
X152975100Y-61704300D02*
X147075100Y-61704300D01*
X152975100Y-57929300D02*
X152975100Y-61704300D01*
X147075100Y-57929300D02*
X152975100Y-57929300D01*
X147075100Y-61704300D02*
X147075100Y-57929300D01*
G04 #@! TO.C,D30*
X185264000Y-63152100D02*
X185264000Y-59377100D01*
X185264000Y-59377100D02*
X191164000Y-59377100D01*
X191164000Y-59377100D02*
X191164000Y-63152100D01*
X191164000Y-63152100D02*
X185264000Y-63152100D01*
G04 #@! TO.C,D31*
X171885400Y-62948900D02*
X165985400Y-62948900D01*
X171885400Y-59173900D02*
X171885400Y-62948900D01*
X165985400Y-59173900D02*
X171885400Y-59173900D01*
X165985400Y-62948900D02*
X165985400Y-59173900D01*
G04 #@! TO.C,D32*
X185352900Y-118397100D02*
X185352900Y-114622100D01*
X185352900Y-114622100D02*
X191252900Y-114622100D01*
X191252900Y-114622100D02*
X191252900Y-118397100D01*
X191252900Y-118397100D02*
X185352900Y-118397100D01*
G04 #@! TO.C,D33*
X172063200Y-118765400D02*
X166163200Y-118765400D01*
X172063200Y-114990400D02*
X172063200Y-118765400D01*
X166163200Y-114990400D02*
X172063200Y-114990400D01*
X166163200Y-118765400D02*
X166163200Y-114990400D01*
G04 #@! TO.C,D34*
X146973500Y-118397100D02*
X146973500Y-114622100D01*
X146973500Y-114622100D02*
X152873500Y-114622100D01*
X152873500Y-114622100D02*
X152873500Y-118397100D01*
X152873500Y-118397100D02*
X146973500Y-118397100D01*
G04 #@! TO.C,D35*
X133429800Y-118397100D02*
X127529800Y-118397100D01*
X133429800Y-114622100D02*
X133429800Y-118397100D01*
X127529800Y-114622100D02*
X133429800Y-114622100D01*
X127529800Y-118397100D02*
X127529800Y-114622100D01*
G04 #@! TO.C,R3*
X138881000Y-91048000D02*
X141281000Y-91048000D01*
X138881000Y-91223000D02*
X141281000Y-91223000D01*
X138881000Y-91398000D02*
X141281000Y-91398000D01*
X141281000Y-91798000D02*
X138881000Y-91798000D01*
X138881000Y-91573000D02*
X141281000Y-91573000D01*
X138881000Y-91698000D02*
X141281000Y-91698000D01*
X138881000Y-91773000D02*
X138881000Y-85973000D01*
X138881000Y-85973000D02*
X141281000Y-85973000D01*
X141281000Y-85973000D02*
X141281000Y-91773000D01*
G04 #@! TO.C,D1*
X141865200Y-74280600D02*
X139465200Y-74280600D01*
X141865200Y-74105600D02*
X139465200Y-74105600D01*
X141865200Y-73930600D02*
X139465200Y-73930600D01*
X139465200Y-73530600D02*
X141865200Y-73530600D01*
X141865200Y-73755600D02*
X139465200Y-73755600D01*
X141865200Y-73630600D02*
X139465200Y-73630600D01*
X141865200Y-73555600D02*
X141865200Y-79355600D01*
X141865200Y-79355600D02*
X139465200Y-79355600D01*
X139465200Y-79355600D02*
X139465200Y-73555600D01*
G04 #@! TO.C,D2*
X147060000Y-73095000D02*
X152860000Y-73095000D01*
X147060000Y-75495000D02*
X147060000Y-73095000D01*
X152860000Y-75495000D02*
X147060000Y-75495000D01*
X152785000Y-75495000D02*
X152785000Y-73095000D01*
X152660000Y-75495000D02*
X152660000Y-73095000D01*
X152885000Y-73095000D02*
X152885000Y-75495000D01*
X152485000Y-75495000D02*
X152485000Y-73095000D01*
X152310000Y-75495000D02*
X152310000Y-73095000D01*
X152135000Y-75495000D02*
X152135000Y-73095000D01*
G04 #@! TO.C,D3*
X162930000Y-75495000D02*
X162930000Y-73095000D01*
X163105000Y-75495000D02*
X163105000Y-73095000D01*
X163280000Y-75495000D02*
X163280000Y-73095000D01*
X163680000Y-73095000D02*
X163680000Y-75495000D01*
X163455000Y-75495000D02*
X163455000Y-73095000D01*
X163580000Y-75495000D02*
X163580000Y-73095000D01*
X163655000Y-75495000D02*
X157855000Y-75495000D01*
X157855000Y-75495000D02*
X157855000Y-73095000D01*
X157855000Y-73095000D02*
X163655000Y-73095000D01*
G04 #@! TO.C,D4*
X179736600Y-77794200D02*
X179736600Y-83594200D01*
X177336600Y-77794200D02*
X179736600Y-77794200D01*
X177336600Y-83594200D02*
X177336600Y-77794200D01*
X177336600Y-83519200D02*
X179736600Y-83519200D01*
X177336600Y-83394200D02*
X179736600Y-83394200D01*
X179736600Y-83619200D02*
X177336600Y-83619200D01*
X177336600Y-83219200D02*
X179736600Y-83219200D01*
X177336600Y-83044200D02*
X179736600Y-83044200D01*
X177336600Y-82869200D02*
X179736600Y-82869200D01*
G04 #@! TO.C,D5*
X138881000Y-102224000D02*
X141281000Y-102224000D01*
X138881000Y-102399000D02*
X141281000Y-102399000D01*
X138881000Y-102574000D02*
X141281000Y-102574000D01*
X141281000Y-102974000D02*
X138881000Y-102974000D01*
X138881000Y-102749000D02*
X141281000Y-102749000D01*
X138881000Y-102874000D02*
X141281000Y-102874000D01*
X138881000Y-102949000D02*
X138881000Y-97149000D01*
X138881000Y-97149000D02*
X141281000Y-97149000D01*
X141281000Y-97149000D02*
X141281000Y-102949000D01*
G04 #@! TO.C,D6*
X152135000Y-94545000D02*
X152135000Y-92145000D01*
X152310000Y-94545000D02*
X152310000Y-92145000D01*
X152485000Y-94545000D02*
X152485000Y-92145000D01*
X152885000Y-92145000D02*
X152885000Y-94545000D01*
X152660000Y-94545000D02*
X152660000Y-92145000D01*
X152785000Y-94545000D02*
X152785000Y-92145000D01*
X152860000Y-94545000D02*
X147060000Y-94545000D01*
X147060000Y-94545000D02*
X147060000Y-92145000D01*
X147060000Y-92145000D02*
X152860000Y-92145000D01*
G04 #@! TO.C,D7*
X171312000Y-94545000D02*
X171312000Y-92145000D01*
X171487000Y-94545000D02*
X171487000Y-92145000D01*
X171662000Y-94545000D02*
X171662000Y-92145000D01*
X172062000Y-92145000D02*
X172062000Y-94545000D01*
X171837000Y-94545000D02*
X171837000Y-92145000D01*
X171962000Y-94545000D02*
X171962000Y-92145000D01*
X172037000Y-94545000D02*
X166237000Y-94545000D01*
X166237000Y-94545000D02*
X166237000Y-92145000D01*
X166237000Y-92145000D02*
X172037000Y-92145000D01*
G04 #@! TO.C,D8*
X185414000Y-92145000D02*
X191214000Y-92145000D01*
X185414000Y-94545000D02*
X185414000Y-92145000D01*
X191214000Y-94545000D02*
X185414000Y-94545000D01*
X191139000Y-94545000D02*
X191139000Y-92145000D01*
X191014000Y-94545000D02*
X191014000Y-92145000D01*
X191239000Y-92145000D02*
X191239000Y-94545000D01*
X190839000Y-94545000D02*
X190839000Y-92145000D01*
X190664000Y-94545000D02*
X190664000Y-92145000D01*
X190489000Y-94545000D02*
X190489000Y-92145000D01*
G04 #@! TO.C,D9*
X128010000Y-111195000D02*
X133810000Y-111195000D01*
X128010000Y-113595000D02*
X128010000Y-111195000D01*
X133810000Y-113595000D02*
X128010000Y-113595000D01*
X133735000Y-113595000D02*
X133735000Y-111195000D01*
X133610000Y-113595000D02*
X133610000Y-111195000D01*
X133835000Y-111195000D02*
X133835000Y-113595000D01*
X133435000Y-113595000D02*
X133435000Y-111195000D01*
X133260000Y-113595000D02*
X133260000Y-111195000D01*
X133085000Y-113595000D02*
X133085000Y-111195000D01*
G04 #@! TO.C,D10*
X152135000Y-113595000D02*
X152135000Y-111195000D01*
X152310000Y-113595000D02*
X152310000Y-111195000D01*
X152485000Y-113595000D02*
X152485000Y-111195000D01*
X152885000Y-111195000D02*
X152885000Y-113595000D01*
X152660000Y-113595000D02*
X152660000Y-111195000D01*
X152785000Y-113595000D02*
X152785000Y-111195000D01*
X152860000Y-113595000D02*
X147060000Y-113595000D01*
X147060000Y-113595000D02*
X147060000Y-111195000D01*
X147060000Y-111195000D02*
X152860000Y-111195000D01*
G04 #@! TO.C,D11*
X166110000Y-111195000D02*
X171910000Y-111195000D01*
X166110000Y-113595000D02*
X166110000Y-111195000D01*
X171910000Y-113595000D02*
X166110000Y-113595000D01*
X171835000Y-113595000D02*
X171835000Y-111195000D01*
X171710000Y-113595000D02*
X171710000Y-111195000D01*
X171935000Y-111195000D02*
X171935000Y-113595000D01*
X171535000Y-113595000D02*
X171535000Y-111195000D01*
X171360000Y-113595000D02*
X171360000Y-111195000D01*
X171185000Y-113595000D02*
X171185000Y-111195000D01*
G04 #@! TO.C,D12*
X185160000Y-111195000D02*
X190960000Y-111195000D01*
X185160000Y-113595000D02*
X185160000Y-111195000D01*
X190960000Y-113595000D02*
X185160000Y-113595000D01*
X190885000Y-113595000D02*
X190885000Y-111195000D01*
X190760000Y-113595000D02*
X190760000Y-111195000D01*
X190985000Y-111195000D02*
X190985000Y-113595000D01*
X190585000Y-113595000D02*
X190585000Y-111195000D01*
X190410000Y-113595000D02*
X190410000Y-111195000D01*
X190235000Y-113595000D02*
X190235000Y-111195000D01*
G04 #@! TO.C,D13*
X128010000Y-130245000D02*
X133810000Y-130245000D01*
X128010000Y-132645000D02*
X128010000Y-130245000D01*
X133810000Y-132645000D02*
X128010000Y-132645000D01*
X133735000Y-132645000D02*
X133735000Y-130245000D01*
X133610000Y-132645000D02*
X133610000Y-130245000D01*
X133835000Y-130245000D02*
X133835000Y-132645000D01*
X133435000Y-132645000D02*
X133435000Y-130245000D01*
X133260000Y-132645000D02*
X133260000Y-130245000D01*
X133085000Y-132645000D02*
X133085000Y-130245000D01*
G04 #@! TO.C,D14*
X152135000Y-132645000D02*
X152135000Y-130245000D01*
X152310000Y-132645000D02*
X152310000Y-130245000D01*
X152485000Y-132645000D02*
X152485000Y-130245000D01*
X152885000Y-130245000D02*
X152885000Y-132645000D01*
X152660000Y-132645000D02*
X152660000Y-130245000D01*
X152785000Y-132645000D02*
X152785000Y-130245000D01*
X152860000Y-132645000D02*
X147060000Y-132645000D01*
X147060000Y-132645000D02*
X147060000Y-130245000D01*
X147060000Y-130245000D02*
X152860000Y-130245000D01*
G04 #@! TO.C,D15*
X166110000Y-130245000D02*
X171910000Y-130245000D01*
X166110000Y-132645000D02*
X166110000Y-130245000D01*
X171910000Y-132645000D02*
X166110000Y-132645000D01*
X171835000Y-132645000D02*
X171835000Y-130245000D01*
X171710000Y-132645000D02*
X171710000Y-130245000D01*
X171935000Y-130245000D02*
X171935000Y-132645000D01*
X171535000Y-132645000D02*
X171535000Y-130245000D01*
X171360000Y-132645000D02*
X171360000Y-130245000D01*
X171185000Y-132645000D02*
X171185000Y-130245000D01*
G04 #@! TO.C,D16*
X190235000Y-132645000D02*
X190235000Y-130245000D01*
X190410000Y-132645000D02*
X190410000Y-130245000D01*
X190585000Y-132645000D02*
X190585000Y-130245000D01*
X190985000Y-130245000D02*
X190985000Y-132645000D01*
X190760000Y-132645000D02*
X190760000Y-130245000D01*
X190885000Y-132645000D02*
X190885000Y-130245000D01*
X190960000Y-132645000D02*
X185160000Y-132645000D01*
X185160000Y-132645000D02*
X185160000Y-130245000D01*
X185160000Y-130245000D02*
X190960000Y-130245000D01*
G04 #@! TO.C,R1*
D12*
X201072704Y-74555333D02*
X200691752Y-74822000D01*
X201072704Y-75012476D02*
X200272704Y-75012476D01*
X200272704Y-74707714D01*
X200310800Y-74631523D01*
X200348895Y-74593428D01*
X200425085Y-74555333D01*
X200539371Y-74555333D01*
X200615561Y-74593428D01*
X200653657Y-74631523D01*
X200691752Y-74707714D01*
X200691752Y-75012476D01*
X201072704Y-73793428D02*
X201072704Y-74250571D01*
X201072704Y-74022000D02*
X200272704Y-74022000D01*
X200386990Y-74098190D01*
X200463180Y-74174380D01*
X200501276Y-74250571D01*
G04 #@! TO.C,D28*
X130398885Y-57428928D02*
X130113171Y-57428928D01*
X130113171Y-56828928D01*
X130598885Y-57114642D02*
X130798885Y-57114642D01*
X130884600Y-57428928D02*
X130598885Y-57428928D01*
X130598885Y-56828928D01*
X130884600Y-56828928D01*
X131141742Y-57428928D02*
X131141742Y-56828928D01*
X131284600Y-56828928D01*
X131370314Y-56857500D01*
X131427457Y-56914642D01*
X131456028Y-56971785D01*
X131484600Y-57086071D01*
X131484600Y-57171785D01*
X131456028Y-57286071D01*
X131427457Y-57343214D01*
X131370314Y-57400357D01*
X131284600Y-57428928D01*
X131141742Y-57428928D01*
G04 #@! TO.C,R3*
X142367904Y-88906333D02*
X141986952Y-89173000D01*
X142367904Y-89363476D02*
X141567904Y-89363476D01*
X141567904Y-89058714D01*
X141606000Y-88982523D01*
X141644095Y-88944428D01*
X141720285Y-88906333D01*
X141834571Y-88906333D01*
X141910761Y-88944428D01*
X141948857Y-88982523D01*
X141986952Y-89058714D01*
X141986952Y-89363476D01*
X141567904Y-88639666D02*
X141567904Y-88144428D01*
X141872666Y-88411095D01*
X141872666Y-88296809D01*
X141910761Y-88220619D01*
X141948857Y-88182523D01*
X142025047Y-88144428D01*
X142215523Y-88144428D01*
X142291714Y-88182523D01*
X142329809Y-88220619D01*
X142367904Y-88296809D01*
X142367904Y-88525380D01*
X142329809Y-88601571D01*
X142291714Y-88639666D01*
G04 #@! TO.C,D1*
X139102104Y-77146076D02*
X138302104Y-77146076D01*
X138302104Y-76955600D01*
X138340200Y-76841314D01*
X138416390Y-76765123D01*
X138492580Y-76727028D01*
X138644961Y-76688933D01*
X138759247Y-76688933D01*
X138911628Y-76727028D01*
X138987819Y-76765123D01*
X139064009Y-76841314D01*
X139102104Y-76955600D01*
X139102104Y-77146076D01*
X139102104Y-75927028D02*
X139102104Y-76384171D01*
X139102104Y-76155600D02*
X138302104Y-76155600D01*
X138416390Y-76231790D01*
X138492580Y-76307980D01*
X138530676Y-76384171D01*
G04 #@! TO.C,D2*
X149269523Y-72731904D02*
X149269523Y-71931904D01*
X149460000Y-71931904D01*
X149574285Y-71970000D01*
X149650476Y-72046190D01*
X149688571Y-72122380D01*
X149726666Y-72274761D01*
X149726666Y-72389047D01*
X149688571Y-72541428D01*
X149650476Y-72617619D01*
X149574285Y-72693809D01*
X149460000Y-72731904D01*
X149269523Y-72731904D01*
X150031428Y-72008095D02*
X150069523Y-71970000D01*
X150145714Y-71931904D01*
X150336190Y-71931904D01*
X150412380Y-71970000D01*
X150450476Y-72008095D01*
X150488571Y-72084285D01*
X150488571Y-72160476D01*
X150450476Y-72274761D01*
X149993333Y-72731904D01*
X150488571Y-72731904D01*
G04 #@! TO.C,D3*
X160064523Y-72731904D02*
X160064523Y-71931904D01*
X160255000Y-71931904D01*
X160369285Y-71970000D01*
X160445476Y-72046190D01*
X160483571Y-72122380D01*
X160521666Y-72274761D01*
X160521666Y-72389047D01*
X160483571Y-72541428D01*
X160445476Y-72617619D01*
X160369285Y-72693809D01*
X160255000Y-72731904D01*
X160064523Y-72731904D01*
X160788333Y-71931904D02*
X161283571Y-71931904D01*
X161016904Y-72236666D01*
X161131190Y-72236666D01*
X161207380Y-72274761D01*
X161245476Y-72312857D01*
X161283571Y-72389047D01*
X161283571Y-72579523D01*
X161245476Y-72655714D01*
X161207380Y-72693809D01*
X161131190Y-72731904D01*
X160902619Y-72731904D01*
X160826428Y-72693809D01*
X160788333Y-72655714D01*
G04 #@! TO.C,D4*
X180823504Y-81184676D02*
X180023504Y-81184676D01*
X180023504Y-80994200D01*
X180061600Y-80879914D01*
X180137790Y-80803723D01*
X180213980Y-80765628D01*
X180366361Y-80727533D01*
X180480647Y-80727533D01*
X180633028Y-80765628D01*
X180709219Y-80803723D01*
X180785409Y-80879914D01*
X180823504Y-80994200D01*
X180823504Y-81184676D01*
X180290171Y-80041819D02*
X180823504Y-80041819D01*
X179985409Y-80232295D02*
X180556838Y-80422771D01*
X180556838Y-79927533D01*
G04 #@! TO.C,D5*
X142367904Y-100539476D02*
X141567904Y-100539476D01*
X141567904Y-100349000D01*
X141606000Y-100234714D01*
X141682190Y-100158523D01*
X141758380Y-100120428D01*
X141910761Y-100082333D01*
X142025047Y-100082333D01*
X142177428Y-100120428D01*
X142253619Y-100158523D01*
X142329809Y-100234714D01*
X142367904Y-100349000D01*
X142367904Y-100539476D01*
X141567904Y-99358523D02*
X141567904Y-99739476D01*
X141948857Y-99777571D01*
X141910761Y-99739476D01*
X141872666Y-99663285D01*
X141872666Y-99472809D01*
X141910761Y-99396619D01*
X141948857Y-99358523D01*
X142025047Y-99320428D01*
X142215523Y-99320428D01*
X142291714Y-99358523D01*
X142329809Y-99396619D01*
X142367904Y-99472809D01*
X142367904Y-99663285D01*
X142329809Y-99739476D01*
X142291714Y-99777571D01*
G04 #@! TO.C,D6*
X149269523Y-91781904D02*
X149269523Y-90981904D01*
X149460000Y-90981904D01*
X149574285Y-91020000D01*
X149650476Y-91096190D01*
X149688571Y-91172380D01*
X149726666Y-91324761D01*
X149726666Y-91439047D01*
X149688571Y-91591428D01*
X149650476Y-91667619D01*
X149574285Y-91743809D01*
X149460000Y-91781904D01*
X149269523Y-91781904D01*
X150412380Y-90981904D02*
X150260000Y-90981904D01*
X150183809Y-91020000D01*
X150145714Y-91058095D01*
X150069523Y-91172380D01*
X150031428Y-91324761D01*
X150031428Y-91629523D01*
X150069523Y-91705714D01*
X150107619Y-91743809D01*
X150183809Y-91781904D01*
X150336190Y-91781904D01*
X150412380Y-91743809D01*
X150450476Y-91705714D01*
X150488571Y-91629523D01*
X150488571Y-91439047D01*
X150450476Y-91362857D01*
X150412380Y-91324761D01*
X150336190Y-91286666D01*
X150183809Y-91286666D01*
X150107619Y-91324761D01*
X150069523Y-91362857D01*
X150031428Y-91439047D01*
G04 #@! TO.C,D7*
X168446523Y-91781904D02*
X168446523Y-90981904D01*
X168637000Y-90981904D01*
X168751285Y-91020000D01*
X168827476Y-91096190D01*
X168865571Y-91172380D01*
X168903666Y-91324761D01*
X168903666Y-91439047D01*
X168865571Y-91591428D01*
X168827476Y-91667619D01*
X168751285Y-91743809D01*
X168637000Y-91781904D01*
X168446523Y-91781904D01*
X169170333Y-90981904D02*
X169703666Y-90981904D01*
X169360809Y-91781904D01*
G04 #@! TO.C,D8*
X187623523Y-91781904D02*
X187623523Y-90981904D01*
X187814000Y-90981904D01*
X187928285Y-91020000D01*
X188004476Y-91096190D01*
X188042571Y-91172380D01*
X188080666Y-91324761D01*
X188080666Y-91439047D01*
X188042571Y-91591428D01*
X188004476Y-91667619D01*
X187928285Y-91743809D01*
X187814000Y-91781904D01*
X187623523Y-91781904D01*
X188537809Y-91324761D02*
X188461619Y-91286666D01*
X188423523Y-91248571D01*
X188385428Y-91172380D01*
X188385428Y-91134285D01*
X188423523Y-91058095D01*
X188461619Y-91020000D01*
X188537809Y-90981904D01*
X188690190Y-90981904D01*
X188766380Y-91020000D01*
X188804476Y-91058095D01*
X188842571Y-91134285D01*
X188842571Y-91172380D01*
X188804476Y-91248571D01*
X188766380Y-91286666D01*
X188690190Y-91324761D01*
X188537809Y-91324761D01*
X188461619Y-91362857D01*
X188423523Y-91400952D01*
X188385428Y-91477142D01*
X188385428Y-91629523D01*
X188423523Y-91705714D01*
X188461619Y-91743809D01*
X188537809Y-91781904D01*
X188690190Y-91781904D01*
X188766380Y-91743809D01*
X188804476Y-91705714D01*
X188842571Y-91629523D01*
X188842571Y-91477142D01*
X188804476Y-91400952D01*
X188766380Y-91362857D01*
X188690190Y-91324761D01*
G04 #@! TO.C,D9*
X130219523Y-110831904D02*
X130219523Y-110031904D01*
X130410000Y-110031904D01*
X130524285Y-110070000D01*
X130600476Y-110146190D01*
X130638571Y-110222380D01*
X130676666Y-110374761D01*
X130676666Y-110489047D01*
X130638571Y-110641428D01*
X130600476Y-110717619D01*
X130524285Y-110793809D01*
X130410000Y-110831904D01*
X130219523Y-110831904D01*
X131057619Y-110831904D02*
X131210000Y-110831904D01*
X131286190Y-110793809D01*
X131324285Y-110755714D01*
X131400476Y-110641428D01*
X131438571Y-110489047D01*
X131438571Y-110184285D01*
X131400476Y-110108095D01*
X131362380Y-110070000D01*
X131286190Y-110031904D01*
X131133809Y-110031904D01*
X131057619Y-110070000D01*
X131019523Y-110108095D01*
X130981428Y-110184285D01*
X130981428Y-110374761D01*
X131019523Y-110450952D01*
X131057619Y-110489047D01*
X131133809Y-110527142D01*
X131286190Y-110527142D01*
X131362380Y-110489047D01*
X131400476Y-110450952D01*
X131438571Y-110374761D01*
G04 #@! TO.C,D10*
X148888571Y-110831904D02*
X148888571Y-110031904D01*
X149079047Y-110031904D01*
X149193333Y-110070000D01*
X149269523Y-110146190D01*
X149307619Y-110222380D01*
X149345714Y-110374761D01*
X149345714Y-110489047D01*
X149307619Y-110641428D01*
X149269523Y-110717619D01*
X149193333Y-110793809D01*
X149079047Y-110831904D01*
X148888571Y-110831904D01*
X150107619Y-110831904D02*
X149650476Y-110831904D01*
X149879047Y-110831904D02*
X149879047Y-110031904D01*
X149802857Y-110146190D01*
X149726666Y-110222380D01*
X149650476Y-110260476D01*
X150602857Y-110031904D02*
X150679047Y-110031904D01*
X150755238Y-110070000D01*
X150793333Y-110108095D01*
X150831428Y-110184285D01*
X150869523Y-110336666D01*
X150869523Y-110527142D01*
X150831428Y-110679523D01*
X150793333Y-110755714D01*
X150755238Y-110793809D01*
X150679047Y-110831904D01*
X150602857Y-110831904D01*
X150526666Y-110793809D01*
X150488571Y-110755714D01*
X150450476Y-110679523D01*
X150412380Y-110527142D01*
X150412380Y-110336666D01*
X150450476Y-110184285D01*
X150488571Y-110108095D01*
X150526666Y-110070000D01*
X150602857Y-110031904D01*
G04 #@! TO.C,D11*
X167938571Y-110831904D02*
X167938571Y-110031904D01*
X168129047Y-110031904D01*
X168243333Y-110070000D01*
X168319523Y-110146190D01*
X168357619Y-110222380D01*
X168395714Y-110374761D01*
X168395714Y-110489047D01*
X168357619Y-110641428D01*
X168319523Y-110717619D01*
X168243333Y-110793809D01*
X168129047Y-110831904D01*
X167938571Y-110831904D01*
X169157619Y-110831904D02*
X168700476Y-110831904D01*
X168929047Y-110831904D02*
X168929047Y-110031904D01*
X168852857Y-110146190D01*
X168776666Y-110222380D01*
X168700476Y-110260476D01*
X169919523Y-110831904D02*
X169462380Y-110831904D01*
X169690952Y-110831904D02*
X169690952Y-110031904D01*
X169614761Y-110146190D01*
X169538571Y-110222380D01*
X169462380Y-110260476D01*
G04 #@! TO.C,D12*
X186988571Y-110831904D02*
X186988571Y-110031904D01*
X187179047Y-110031904D01*
X187293333Y-110070000D01*
X187369523Y-110146190D01*
X187407619Y-110222380D01*
X187445714Y-110374761D01*
X187445714Y-110489047D01*
X187407619Y-110641428D01*
X187369523Y-110717619D01*
X187293333Y-110793809D01*
X187179047Y-110831904D01*
X186988571Y-110831904D01*
X188207619Y-110831904D02*
X187750476Y-110831904D01*
X187979047Y-110831904D02*
X187979047Y-110031904D01*
X187902857Y-110146190D01*
X187826666Y-110222380D01*
X187750476Y-110260476D01*
X188512380Y-110108095D02*
X188550476Y-110070000D01*
X188626666Y-110031904D01*
X188817142Y-110031904D01*
X188893333Y-110070000D01*
X188931428Y-110108095D01*
X188969523Y-110184285D01*
X188969523Y-110260476D01*
X188931428Y-110374761D01*
X188474285Y-110831904D01*
X188969523Y-110831904D01*
G04 #@! TO.C,D13*
X129838571Y-129881904D02*
X129838571Y-129081904D01*
X130029047Y-129081904D01*
X130143333Y-129120000D01*
X130219523Y-129196190D01*
X130257619Y-129272380D01*
X130295714Y-129424761D01*
X130295714Y-129539047D01*
X130257619Y-129691428D01*
X130219523Y-129767619D01*
X130143333Y-129843809D01*
X130029047Y-129881904D01*
X129838571Y-129881904D01*
X131057619Y-129881904D02*
X130600476Y-129881904D01*
X130829047Y-129881904D02*
X130829047Y-129081904D01*
X130752857Y-129196190D01*
X130676666Y-129272380D01*
X130600476Y-129310476D01*
X131324285Y-129081904D02*
X131819523Y-129081904D01*
X131552857Y-129386666D01*
X131667142Y-129386666D01*
X131743333Y-129424761D01*
X131781428Y-129462857D01*
X131819523Y-129539047D01*
X131819523Y-129729523D01*
X131781428Y-129805714D01*
X131743333Y-129843809D01*
X131667142Y-129881904D01*
X131438571Y-129881904D01*
X131362380Y-129843809D01*
X131324285Y-129805714D01*
G04 #@! TO.C,D14*
X148888571Y-129881904D02*
X148888571Y-129081904D01*
X149079047Y-129081904D01*
X149193333Y-129120000D01*
X149269523Y-129196190D01*
X149307619Y-129272380D01*
X149345714Y-129424761D01*
X149345714Y-129539047D01*
X149307619Y-129691428D01*
X149269523Y-129767619D01*
X149193333Y-129843809D01*
X149079047Y-129881904D01*
X148888571Y-129881904D01*
X150107619Y-129881904D02*
X149650476Y-129881904D01*
X149879047Y-129881904D02*
X149879047Y-129081904D01*
X149802857Y-129196190D01*
X149726666Y-129272380D01*
X149650476Y-129310476D01*
X150793333Y-129348571D02*
X150793333Y-129881904D01*
X150602857Y-129043809D02*
X150412380Y-129615238D01*
X150907619Y-129615238D01*
G04 #@! TO.C,D15*
X167938571Y-129881904D02*
X167938571Y-129081904D01*
X168129047Y-129081904D01*
X168243333Y-129120000D01*
X168319523Y-129196190D01*
X168357619Y-129272380D01*
X168395714Y-129424761D01*
X168395714Y-129539047D01*
X168357619Y-129691428D01*
X168319523Y-129767619D01*
X168243333Y-129843809D01*
X168129047Y-129881904D01*
X167938571Y-129881904D01*
X169157619Y-129881904D02*
X168700476Y-129881904D01*
X168929047Y-129881904D02*
X168929047Y-129081904D01*
X168852857Y-129196190D01*
X168776666Y-129272380D01*
X168700476Y-129310476D01*
X169881428Y-129081904D02*
X169500476Y-129081904D01*
X169462380Y-129462857D01*
X169500476Y-129424761D01*
X169576666Y-129386666D01*
X169767142Y-129386666D01*
X169843333Y-129424761D01*
X169881428Y-129462857D01*
X169919523Y-129539047D01*
X169919523Y-129729523D01*
X169881428Y-129805714D01*
X169843333Y-129843809D01*
X169767142Y-129881904D01*
X169576666Y-129881904D01*
X169500476Y-129843809D01*
X169462380Y-129805714D01*
G04 #@! TO.C,D16*
X186988571Y-129881904D02*
X186988571Y-129081904D01*
X187179047Y-129081904D01*
X187293333Y-129120000D01*
X187369523Y-129196190D01*
X187407619Y-129272380D01*
X187445714Y-129424761D01*
X187445714Y-129539047D01*
X187407619Y-129691428D01*
X187369523Y-129767619D01*
X187293333Y-129843809D01*
X187179047Y-129881904D01*
X186988571Y-129881904D01*
X188207619Y-129881904D02*
X187750476Y-129881904D01*
X187979047Y-129881904D02*
X187979047Y-129081904D01*
X187902857Y-129196190D01*
X187826666Y-129272380D01*
X187750476Y-129310476D01*
X188893333Y-129081904D02*
X188740952Y-129081904D01*
X188664761Y-129120000D01*
X188626666Y-129158095D01*
X188550476Y-129272380D01*
X188512380Y-129424761D01*
X188512380Y-129729523D01*
X188550476Y-129805714D01*
X188588571Y-129843809D01*
X188664761Y-129881904D01*
X188817142Y-129881904D01*
X188893333Y-129843809D01*
X188931428Y-129805714D01*
X188969523Y-129729523D01*
X188969523Y-129539047D01*
X188931428Y-129462857D01*
X188893333Y-129424761D01*
X188817142Y-129386666D01*
X188664761Y-129386666D01*
X188588571Y-129424761D01*
X188550476Y-129462857D01*
X188512380Y-129539047D01*
G04 #@! TD*
%LPC*%
D13*
G04 #@! TO.C,REF\002A\002A*
X118732300Y-133985000D03*
G04 #@! TD*
G04 #@! TO.C,REF\002A\002A*
X118719600Y-52590700D03*
G04 #@! TD*
G04 #@! TO.C,REF\002A\002A*
X200025000Y-52603400D03*
G04 #@! TD*
D14*
G04 #@! TO.C,K8*
X182460000Y-83820000D03*
X193460000Y-83820000D03*
D15*
X182960000Y-87570000D03*
D16*
X187960000Y-83820000D03*
D15*
X187960000Y-89770000D03*
D17*
X193180000Y-79620000D03*
G04 #@! TD*
D14*
G04 #@! TO.C,K6*
X144360000Y-83820000D03*
X155360000Y-83820000D03*
D15*
X144860000Y-87570000D03*
D16*
X149860000Y-83820000D03*
D15*
X149860000Y-89770000D03*
D17*
X155080000Y-79620000D03*
G04 #@! TD*
G04 #@! TO.C,K1*
X136030000Y-60570000D03*
D15*
X130810000Y-70720000D03*
D16*
X130810000Y-64770000D03*
D15*
X125810000Y-68520000D03*
D14*
X136310000Y-64770000D03*
X125310000Y-64770000D03*
G04 #@! TD*
G04 #@! TO.C,K2*
X144360000Y-64814000D03*
X155360000Y-64814000D03*
D15*
X144860000Y-68564000D03*
D16*
X149860000Y-64814000D03*
D15*
X149860000Y-70764000D03*
D17*
X155080000Y-60614000D03*
G04 #@! TD*
G04 #@! TO.C,K3*
X174130000Y-60570000D03*
D15*
X168910000Y-70720000D03*
D16*
X168910000Y-64770000D03*
D15*
X163910000Y-68520000D03*
D14*
X174410000Y-64770000D03*
X163410000Y-64770000D03*
G04 #@! TD*
G04 #@! TO.C,K4*
X182460000Y-64770000D03*
X193460000Y-64770000D03*
D15*
X182960000Y-68520000D03*
D16*
X187960000Y-64770000D03*
D15*
X187960000Y-70720000D03*
D17*
X193180000Y-60570000D03*
G04 #@! TD*
G04 #@! TO.C,K5*
X136030000Y-79620000D03*
D15*
X130810000Y-89770000D03*
D16*
X130810000Y-83820000D03*
D15*
X125810000Y-87570000D03*
D14*
X136310000Y-83820000D03*
X125310000Y-83820000D03*
G04 #@! TD*
D17*
G04 #@! TO.C,K7*
X174130000Y-79620000D03*
D15*
X168910000Y-89770000D03*
D16*
X168910000Y-83820000D03*
D15*
X163910000Y-87570000D03*
D14*
X174410000Y-83820000D03*
X163410000Y-83820000D03*
G04 #@! TD*
D17*
G04 #@! TO.C,K9*
X136030000Y-98670000D03*
D15*
X130810000Y-108820000D03*
D16*
X130810000Y-102870000D03*
D15*
X125810000Y-106620000D03*
D14*
X136310000Y-102870000D03*
X125310000Y-102870000D03*
G04 #@! TD*
D18*
G04 #@! TO.C,U2*
X149110000Y-53000000D03*
X150380000Y-53000000D03*
X151650000Y-53000000D03*
X152920000Y-53000000D03*
X154190000Y-53000000D03*
X155460000Y-53000000D03*
X156730000Y-53000000D03*
D19*
X158000000Y-53000000D03*
G04 #@! TD*
D20*
G04 #@! TO.C,U3*
X198056500Y-84556600D03*
D21*
X198056500Y-82016600D03*
X198056500Y-79476600D03*
G04 #@! TD*
D14*
G04 #@! TO.C,K10*
X144360000Y-102870000D03*
X155360000Y-102870000D03*
D15*
X144860000Y-106620000D03*
D16*
X149860000Y-102870000D03*
D15*
X149860000Y-108820000D03*
D17*
X155080000Y-98670000D03*
G04 #@! TD*
G04 #@! TO.C,K11*
X174130000Y-98670000D03*
D15*
X168910000Y-108820000D03*
D16*
X168910000Y-102870000D03*
D15*
X163910000Y-106620000D03*
D14*
X174410000Y-102870000D03*
X163410000Y-102870000D03*
G04 #@! TD*
D17*
G04 #@! TO.C,K12*
X193180000Y-98670000D03*
D15*
X187960000Y-108820000D03*
D16*
X187960000Y-102870000D03*
D15*
X182960000Y-106620000D03*
D14*
X193460000Y-102870000D03*
X182460000Y-102870000D03*
G04 #@! TD*
G04 #@! TO.C,K13*
X125310000Y-121920000D03*
X136310000Y-121920000D03*
D15*
X125810000Y-125670000D03*
D16*
X130810000Y-121920000D03*
D15*
X130810000Y-127870000D03*
D17*
X136030000Y-117720000D03*
G04 #@! TD*
G04 #@! TO.C,K14*
X155080000Y-117720000D03*
D15*
X149860000Y-127870000D03*
D16*
X149860000Y-121920000D03*
D15*
X144860000Y-125670000D03*
D14*
X155360000Y-121920000D03*
X144360000Y-121920000D03*
G04 #@! TD*
G04 #@! TO.C,K15*
X163410000Y-121920000D03*
X174410000Y-121920000D03*
D15*
X163910000Y-125670000D03*
D16*
X168910000Y-121920000D03*
D15*
X168910000Y-127870000D03*
D17*
X174130000Y-117720000D03*
G04 #@! TD*
G04 #@! TO.C,K16*
X193180000Y-117720000D03*
D15*
X187960000Y-127870000D03*
D16*
X187960000Y-121920000D03*
D15*
X182960000Y-125670000D03*
D14*
X193460000Y-121920000D03*
X182460000Y-121920000D03*
G04 #@! TD*
D22*
G04 #@! TO.C,R1*
X202590400Y-80073700D03*
X202590400Y-76923700D03*
D23*
X202590400Y-74598700D03*
D24*
X202590400Y-82398700D03*
G04 #@! TD*
G04 #@! TO.C,R2*
X140550900Y-114692600D03*
D23*
X140550900Y-122492600D03*
G04 #@! TD*
D20*
G04 #@! TO.C,U5*
X121615200Y-116459000D03*
D21*
X121615200Y-118999000D03*
X121615200Y-121539000D03*
G04 #@! TD*
D23*
G04 #@! TO.C,U1*
X194945000Y-73660000D03*
D24*
X192405000Y-58420000D03*
X189865000Y-58420000D03*
X187325000Y-58420000D03*
X184785000Y-58420000D03*
X182245000Y-58420000D03*
X179705000Y-58420000D03*
X177165000Y-58420000D03*
X174625000Y-58420000D03*
X172085000Y-58420000D03*
X169545000Y-58420000D03*
X167005000Y-58420000D03*
X167005000Y-73660000D03*
X169545000Y-73660000D03*
X172085000Y-73660000D03*
X174625000Y-73660000D03*
X177165000Y-73660000D03*
X179705000Y-73660000D03*
X182245000Y-73660000D03*
X184785000Y-73660000D03*
X187325000Y-73660000D03*
X189865000Y-73660000D03*
X192405000Y-73660000D03*
X194945000Y-58420000D03*
G04 #@! TD*
D20*
G04 #@! TO.C,U6*
X125095000Y-54610000D03*
D21*
X127635000Y-54610000D03*
X130175000Y-54610000D03*
G04 #@! TD*
D20*
G04 #@! TO.C,BT1*
X197485000Y-125628400D03*
D21*
X197485000Y-128168400D03*
G04 #@! TD*
D25*
G04 #@! TO.C,D20*
X132716400Y-98704400D03*
X129716400Y-98704400D03*
G04 #@! TD*
G04 #@! TO.C,D21*
X148156800Y-97955100D03*
X151156800Y-97955100D03*
G04 #@! TD*
G04 #@! TO.C,D22*
X170867200Y-97637600D03*
X167867200Y-97637600D03*
G04 #@! TD*
G04 #@! TO.C,D23*
X186612400Y-97802700D03*
X189612400Y-97802700D03*
G04 #@! TD*
G04 #@! TO.C,D24*
X132310000Y-79375000D03*
X129310000Y-79375000D03*
G04 #@! TD*
G04 #@! TO.C,D25*
X148360000Y-79375000D03*
X151360000Y-79375000D03*
G04 #@! TD*
G04 #@! TO.C,D26*
X170410000Y-79375000D03*
X167410000Y-79375000D03*
G04 #@! TD*
G04 #@! TO.C,D27*
X186460000Y-79375000D03*
X189460000Y-79375000D03*
G04 #@! TD*
G04 #@! TO.C,D28*
X132284600Y-60007500D03*
X129284600Y-60007500D03*
G04 #@! TD*
G04 #@! TO.C,D29*
X148525100Y-59804300D03*
X151525100Y-59804300D03*
G04 #@! TD*
G04 #@! TO.C,D30*
X189714000Y-61252100D03*
X186714000Y-61252100D03*
G04 #@! TD*
G04 #@! TO.C,D31*
X167435400Y-61048900D03*
X170435400Y-61048900D03*
G04 #@! TD*
G04 #@! TO.C,D32*
X189802900Y-116497100D03*
X186802900Y-116497100D03*
G04 #@! TD*
G04 #@! TO.C,D33*
X167613200Y-116865400D03*
X170613200Y-116865400D03*
G04 #@! TD*
G04 #@! TO.C,D34*
X151423500Y-116497100D03*
X148423500Y-116497100D03*
G04 #@! TD*
G04 #@! TO.C,D35*
X128979800Y-116497100D03*
X131979800Y-116497100D03*
G04 #@! TD*
D26*
G04 #@! TO.C,J1*
X191474400Y-96786700D03*
X198474400Y-96786700D03*
G04 #@! TD*
G04 #@! TO.C,J2*
X120333700Y-96850200D03*
X127333700Y-96850200D03*
G04 #@! TD*
D22*
G04 #@! TO.C,R3*
X140081000Y-87198000D03*
X140081000Y-90348000D03*
D23*
X140081000Y-92673000D03*
D24*
X140081000Y-84873000D03*
G04 #@! TD*
D23*
G04 #@! TO.C,D1*
X140665200Y-72655600D03*
D24*
X140665200Y-80455600D03*
G04 #@! TD*
G04 #@! TO.C,D2*
X145960000Y-74295000D03*
D23*
X153760000Y-74295000D03*
G04 #@! TD*
G04 #@! TO.C,D3*
X164555000Y-74295000D03*
D24*
X156755000Y-74295000D03*
G04 #@! TD*
G04 #@! TO.C,D4*
X178536600Y-76694200D03*
D23*
X178536600Y-84494200D03*
G04 #@! TD*
G04 #@! TO.C,D5*
X140081000Y-103849000D03*
D24*
X140081000Y-96049000D03*
G04 #@! TD*
D23*
G04 #@! TO.C,D6*
X153760000Y-93345000D03*
D24*
X145960000Y-93345000D03*
G04 #@! TD*
D23*
G04 #@! TO.C,D7*
X172937000Y-93345000D03*
D24*
X165137000Y-93345000D03*
G04 #@! TD*
G04 #@! TO.C,D8*
X184314000Y-93345000D03*
D23*
X192114000Y-93345000D03*
G04 #@! TD*
D24*
G04 #@! TO.C,D9*
X126910000Y-112395000D03*
D23*
X134710000Y-112395000D03*
G04 #@! TD*
G04 #@! TO.C,D10*
X153760000Y-112395000D03*
D24*
X145960000Y-112395000D03*
G04 #@! TD*
G04 #@! TO.C,D11*
X165010000Y-112395000D03*
D23*
X172810000Y-112395000D03*
G04 #@! TD*
D24*
G04 #@! TO.C,D12*
X184060000Y-112395000D03*
D23*
X191860000Y-112395000D03*
G04 #@! TD*
D24*
G04 #@! TO.C,D13*
X126910000Y-131445000D03*
D23*
X134710000Y-131445000D03*
G04 #@! TD*
G04 #@! TO.C,D14*
X153760000Y-131445000D03*
D24*
X145960000Y-131445000D03*
G04 #@! TD*
G04 #@! TO.C,D15*
X165010000Y-131445000D03*
D23*
X172810000Y-131445000D03*
G04 #@! TD*
G04 #@! TO.C,D16*
X191860000Y-131445000D03*
D24*
X184060000Y-131445000D03*
G04 #@! TD*
D13*
G04 #@! TO.C,REF\002A\002A*
X200037700Y-133985000D03*
G04 #@! TD*
M02*
