G04 #@! TF.GenerationSoftware,KiCad,Pcbnew,(5.0.0-3-g5ebb6b6)*
G04 #@! TF.CreationDate,2019-05-07T00:15:57-07:00*
G04 #@! TF.ProjectId,arrowPad,6172726F775061642E6B696361645F70,rev?*
G04 #@! TF.SameCoordinates,Original*
G04 #@! TF.FileFunction,Legend,Bot*
G04 #@! TF.FilePolarity,Positive*
%FSLAX46Y46*%
G04 Gerber Fmt 4.6, Leading zero omitted, Abs format (unit mm)*
G04 Created by KiCad (PCBNEW (5.0.0-3-g5ebb6b6)) date Tuesday, May 07, 2019 at 12:15:57 AM*
%MOMM*%
%LPD*%
G01*
G04 APERTURE LIST*
%ADD10C,0.150000*%
%ADD11C,0.200000*%
%ADD12C,0.120000*%
%ADD13C,0.127000*%
%ADD14C,0.400000*%
%ADD15C,0.050000*%
G04 APERTURE END LIST*
D10*
G04 #@! TO.C,K8*
X194960000Y-76820000D02*
X194960000Y-77820000D01*
X193960000Y-76820000D02*
X194960000Y-76820000D01*
X194960000Y-90820000D02*
X193960000Y-90820000D01*
X194960000Y-89820000D02*
X194960000Y-90820000D01*
X180960000Y-90820000D02*
X180960000Y-89820000D01*
X181960000Y-90820000D02*
X180960000Y-90820000D01*
X180960000Y-76820000D02*
X181960000Y-76820000D01*
X180960000Y-77820000D02*
X180960000Y-76820000D01*
G04 #@! TO.C,K6*
X156860000Y-76820000D02*
X156860000Y-77820000D01*
X155860000Y-76820000D02*
X156860000Y-76820000D01*
X156860000Y-90820000D02*
X155860000Y-90820000D01*
X156860000Y-89820000D02*
X156860000Y-90820000D01*
X142860000Y-90820000D02*
X142860000Y-89820000D01*
X143860000Y-90820000D02*
X142860000Y-90820000D01*
X142860000Y-76820000D02*
X143860000Y-76820000D01*
X142860000Y-77820000D02*
X142860000Y-76820000D01*
D11*
G04 #@! TO.C,D2*
X147060000Y-75495000D02*
X152860000Y-75495000D01*
X147060000Y-73095000D02*
X147060000Y-75495000D01*
X152860000Y-73095000D02*
X147060000Y-73095000D01*
X152785000Y-73095000D02*
X152785000Y-75495000D01*
X152660000Y-73095000D02*
X152660000Y-75495000D01*
X152885000Y-75495000D02*
X152885000Y-73095000D01*
X152485000Y-73095000D02*
X152485000Y-75495000D01*
X152310000Y-73095000D02*
X152310000Y-75495000D01*
X152135000Y-73095000D02*
X152135000Y-75495000D01*
G04 #@! TO.C,D3*
X162930000Y-73095000D02*
X162930000Y-75495000D01*
X163105000Y-73095000D02*
X163105000Y-75495000D01*
X163280000Y-73095000D02*
X163280000Y-75495000D01*
X163680000Y-75495000D02*
X163680000Y-73095000D01*
X163455000Y-73095000D02*
X163455000Y-75495000D01*
X163580000Y-73095000D02*
X163580000Y-75495000D01*
X163655000Y-73095000D02*
X157855000Y-73095000D01*
X157855000Y-73095000D02*
X157855000Y-75495000D01*
X157855000Y-75495000D02*
X163655000Y-75495000D01*
G04 #@! TO.C,D4*
X177336600Y-77794200D02*
X177336600Y-83594200D01*
X179736600Y-77794200D02*
X177336600Y-77794200D01*
X179736600Y-83594200D02*
X179736600Y-77794200D01*
X179736600Y-83519200D02*
X177336600Y-83519200D01*
X179736600Y-83394200D02*
X177336600Y-83394200D01*
X177336600Y-83619200D02*
X179736600Y-83619200D01*
X179736600Y-83219200D02*
X177336600Y-83219200D01*
X179736600Y-83044200D02*
X177336600Y-83044200D01*
X179736600Y-82869200D02*
X177336600Y-82869200D01*
G04 #@! TO.C,D5*
X141281000Y-102224000D02*
X138881000Y-102224000D01*
X141281000Y-102399000D02*
X138881000Y-102399000D01*
X141281000Y-102574000D02*
X138881000Y-102574000D01*
X138881000Y-102974000D02*
X141281000Y-102974000D01*
X141281000Y-102749000D02*
X138881000Y-102749000D01*
X141281000Y-102874000D02*
X138881000Y-102874000D01*
X141281000Y-102949000D02*
X141281000Y-97149000D01*
X141281000Y-97149000D02*
X138881000Y-97149000D01*
X138881000Y-97149000D02*
X138881000Y-102949000D01*
G04 #@! TO.C,D6*
X147060000Y-94545000D02*
X152860000Y-94545000D01*
X147060000Y-92145000D02*
X147060000Y-94545000D01*
X152860000Y-92145000D02*
X147060000Y-92145000D01*
X152785000Y-92145000D02*
X152785000Y-94545000D01*
X152660000Y-92145000D02*
X152660000Y-94545000D01*
X152885000Y-94545000D02*
X152885000Y-92145000D01*
X152485000Y-92145000D02*
X152485000Y-94545000D01*
X152310000Y-92145000D02*
X152310000Y-94545000D01*
X152135000Y-92145000D02*
X152135000Y-94545000D01*
G04 #@! TO.C,D7*
X171312000Y-92145000D02*
X171312000Y-94545000D01*
X171487000Y-92145000D02*
X171487000Y-94545000D01*
X171662000Y-92145000D02*
X171662000Y-94545000D01*
X172062000Y-94545000D02*
X172062000Y-92145000D01*
X171837000Y-92145000D02*
X171837000Y-94545000D01*
X171962000Y-92145000D02*
X171962000Y-94545000D01*
X172037000Y-92145000D02*
X166237000Y-92145000D01*
X166237000Y-92145000D02*
X166237000Y-94545000D01*
X166237000Y-94545000D02*
X172037000Y-94545000D01*
G04 #@! TO.C,D9*
X133085000Y-111195000D02*
X133085000Y-113595000D01*
X133260000Y-111195000D02*
X133260000Y-113595000D01*
X133435000Y-111195000D02*
X133435000Y-113595000D01*
X133835000Y-113595000D02*
X133835000Y-111195000D01*
X133610000Y-111195000D02*
X133610000Y-113595000D01*
X133735000Y-111195000D02*
X133735000Y-113595000D01*
X133810000Y-111195000D02*
X128010000Y-111195000D01*
X128010000Y-111195000D02*
X128010000Y-113595000D01*
X128010000Y-113595000D02*
X133810000Y-113595000D01*
D10*
G04 #@! TO.C,K1*
X123810000Y-58770000D02*
X123810000Y-57770000D01*
X123810000Y-57770000D02*
X124810000Y-57770000D01*
X124810000Y-71770000D02*
X123810000Y-71770000D01*
X123810000Y-71770000D02*
X123810000Y-70770000D01*
X137810000Y-70770000D02*
X137810000Y-71770000D01*
X137810000Y-71770000D02*
X136810000Y-71770000D01*
X136810000Y-57770000D02*
X137810000Y-57770000D01*
X137810000Y-57770000D02*
X137810000Y-58770000D01*
G04 #@! TO.C,K2*
X156860000Y-57814000D02*
X156860000Y-58814000D01*
X155860000Y-57814000D02*
X156860000Y-57814000D01*
X156860000Y-71814000D02*
X155860000Y-71814000D01*
X156860000Y-70814000D02*
X156860000Y-71814000D01*
X142860000Y-71814000D02*
X142860000Y-70814000D01*
X143860000Y-71814000D02*
X142860000Y-71814000D01*
X142860000Y-57814000D02*
X143860000Y-57814000D01*
X142860000Y-58814000D02*
X142860000Y-57814000D01*
G04 #@! TO.C,K3*
X161910000Y-58770000D02*
X161910000Y-57770000D01*
X161910000Y-57770000D02*
X162910000Y-57770000D01*
X162910000Y-71770000D02*
X161910000Y-71770000D01*
X161910000Y-71770000D02*
X161910000Y-70770000D01*
X175910000Y-70770000D02*
X175910000Y-71770000D01*
X175910000Y-71770000D02*
X174910000Y-71770000D01*
X174910000Y-57770000D02*
X175910000Y-57770000D01*
X175910000Y-57770000D02*
X175910000Y-58770000D01*
G04 #@! TO.C,K4*
X194960000Y-57770000D02*
X194960000Y-58770000D01*
X193960000Y-57770000D02*
X194960000Y-57770000D01*
X194960000Y-71770000D02*
X193960000Y-71770000D01*
X194960000Y-70770000D02*
X194960000Y-71770000D01*
X180960000Y-71770000D02*
X180960000Y-70770000D01*
X181960000Y-71770000D02*
X180960000Y-71770000D01*
X180960000Y-57770000D02*
X181960000Y-57770000D01*
X180960000Y-58770000D02*
X180960000Y-57770000D01*
G04 #@! TO.C,K5*
X123810000Y-77820000D02*
X123810000Y-76820000D01*
X123810000Y-76820000D02*
X124810000Y-76820000D01*
X124810000Y-90820000D02*
X123810000Y-90820000D01*
X123810000Y-90820000D02*
X123810000Y-89820000D01*
X137810000Y-89820000D02*
X137810000Y-90820000D01*
X137810000Y-90820000D02*
X136810000Y-90820000D01*
X136810000Y-76820000D02*
X137810000Y-76820000D01*
X137810000Y-76820000D02*
X137810000Y-77820000D01*
G04 #@! TO.C,K7*
X161910000Y-77820000D02*
X161910000Y-76820000D01*
X161910000Y-76820000D02*
X162910000Y-76820000D01*
X162910000Y-90820000D02*
X161910000Y-90820000D01*
X161910000Y-90820000D02*
X161910000Y-89820000D01*
X175910000Y-89820000D02*
X175910000Y-90820000D01*
X175910000Y-90820000D02*
X174910000Y-90820000D01*
X174910000Y-76820000D02*
X175910000Y-76820000D01*
X175910000Y-76820000D02*
X175910000Y-77820000D01*
G04 #@! TO.C,K9*
X123810000Y-96870000D02*
X123810000Y-95870000D01*
X123810000Y-95870000D02*
X124810000Y-95870000D01*
X124810000Y-109870000D02*
X123810000Y-109870000D01*
X123810000Y-109870000D02*
X123810000Y-108870000D01*
X137810000Y-108870000D02*
X137810000Y-109870000D01*
X137810000Y-109870000D02*
X136810000Y-109870000D01*
X136810000Y-95870000D02*
X137810000Y-95870000D01*
X137810000Y-95870000D02*
X137810000Y-96870000D01*
D12*
G04 #@! TO.C,U2*
X158760000Y-54110000D02*
X158760000Y-53000000D01*
X158000000Y-54110000D02*
X158760000Y-54110000D01*
X157240000Y-52436529D02*
X157240000Y-51890000D01*
X157240000Y-54110000D02*
X157240000Y-53563471D01*
X157240000Y-51890000D02*
X148415000Y-51890000D01*
X157240000Y-54110000D02*
X148415000Y-54110000D01*
X148415000Y-52692470D02*
X148415000Y-51890000D01*
X148415000Y-54110000D02*
X148415000Y-53307530D01*
G04 #@! TO.C,U3*
X196726500Y-78146600D02*
X199386500Y-78146600D01*
X196726500Y-83286600D02*
X196726500Y-78146600D01*
X199386500Y-83286600D02*
X199386500Y-78146600D01*
X196726500Y-83286600D02*
X199386500Y-83286600D01*
X196726500Y-84556600D02*
X196726500Y-85886600D01*
X196726500Y-85886600D02*
X198056500Y-85886600D01*
D13*
G04 #@! TO.C,U4*
X143695000Y-55290000D02*
X143695000Y-59010000D01*
X136975000Y-55290000D02*
X136975000Y-59010000D01*
X143695000Y-55290000D02*
X143435000Y-55290000D01*
X137225000Y-55290000D02*
X136975000Y-55290000D01*
X136975000Y-59010000D02*
X138465000Y-59010000D01*
X142095000Y-59010000D02*
X143695000Y-59010000D01*
D11*
G04 #@! TO.C,D10*
X152135000Y-111195000D02*
X152135000Y-113595000D01*
X152310000Y-111195000D02*
X152310000Y-113595000D01*
X152485000Y-111195000D02*
X152485000Y-113595000D01*
X152885000Y-113595000D02*
X152885000Y-111195000D01*
X152660000Y-111195000D02*
X152660000Y-113595000D01*
X152785000Y-111195000D02*
X152785000Y-113595000D01*
X152860000Y-111195000D02*
X147060000Y-111195000D01*
X147060000Y-111195000D02*
X147060000Y-113595000D01*
X147060000Y-113595000D02*
X152860000Y-113595000D01*
G04 #@! TO.C,D11*
X166110000Y-113595000D02*
X171910000Y-113595000D01*
X166110000Y-111195000D02*
X166110000Y-113595000D01*
X171910000Y-111195000D02*
X166110000Y-111195000D01*
X171835000Y-111195000D02*
X171835000Y-113595000D01*
X171710000Y-111195000D02*
X171710000Y-113595000D01*
X171935000Y-113595000D02*
X171935000Y-111195000D01*
X171535000Y-111195000D02*
X171535000Y-113595000D01*
X171360000Y-111195000D02*
X171360000Y-113595000D01*
X171185000Y-111195000D02*
X171185000Y-113595000D01*
G04 #@! TO.C,D12*
X190235000Y-111195000D02*
X190235000Y-113595000D01*
X190410000Y-111195000D02*
X190410000Y-113595000D01*
X190585000Y-111195000D02*
X190585000Y-113595000D01*
X190985000Y-113595000D02*
X190985000Y-111195000D01*
X190760000Y-111195000D02*
X190760000Y-113595000D01*
X190885000Y-111195000D02*
X190885000Y-113595000D01*
X190960000Y-111195000D02*
X185160000Y-111195000D01*
X185160000Y-111195000D02*
X185160000Y-113595000D01*
X185160000Y-113595000D02*
X190960000Y-113595000D01*
G04 #@! TO.C,D13*
X128010000Y-132645000D02*
X133810000Y-132645000D01*
X128010000Y-130245000D02*
X128010000Y-132645000D01*
X133810000Y-130245000D02*
X128010000Y-130245000D01*
X133735000Y-130245000D02*
X133735000Y-132645000D01*
X133610000Y-130245000D02*
X133610000Y-132645000D01*
X133835000Y-132645000D02*
X133835000Y-130245000D01*
X133435000Y-130245000D02*
X133435000Y-132645000D01*
X133260000Y-130245000D02*
X133260000Y-132645000D01*
X133085000Y-130245000D02*
X133085000Y-132645000D01*
G04 #@! TO.C,D14*
X152135000Y-130245000D02*
X152135000Y-132645000D01*
X152310000Y-130245000D02*
X152310000Y-132645000D01*
X152485000Y-130245000D02*
X152485000Y-132645000D01*
X152885000Y-132645000D02*
X152885000Y-130245000D01*
X152660000Y-130245000D02*
X152660000Y-132645000D01*
X152785000Y-130245000D02*
X152785000Y-132645000D01*
X152860000Y-130245000D02*
X147060000Y-130245000D01*
X147060000Y-130245000D02*
X147060000Y-132645000D01*
X147060000Y-132645000D02*
X152860000Y-132645000D01*
G04 #@! TO.C,D15*
X166110000Y-132645000D02*
X171910000Y-132645000D01*
X166110000Y-130245000D02*
X166110000Y-132645000D01*
X171910000Y-130245000D02*
X166110000Y-130245000D01*
X171835000Y-130245000D02*
X171835000Y-132645000D01*
X171710000Y-130245000D02*
X171710000Y-132645000D01*
X171935000Y-132645000D02*
X171935000Y-130245000D01*
X171535000Y-130245000D02*
X171535000Y-132645000D01*
X171360000Y-130245000D02*
X171360000Y-132645000D01*
X171185000Y-130245000D02*
X171185000Y-132645000D01*
G04 #@! TO.C,D16*
X190235000Y-130245000D02*
X190235000Y-132645000D01*
X190410000Y-130245000D02*
X190410000Y-132645000D01*
X190585000Y-130245000D02*
X190585000Y-132645000D01*
X190985000Y-132645000D02*
X190985000Y-130245000D01*
X190760000Y-130245000D02*
X190760000Y-132645000D01*
X190885000Y-130245000D02*
X190885000Y-132645000D01*
X190960000Y-130245000D02*
X185160000Y-130245000D01*
X185160000Y-130245000D02*
X185160000Y-132645000D01*
X185160000Y-132645000D02*
X190960000Y-132645000D01*
D10*
G04 #@! TO.C,K10*
X156860000Y-95870000D02*
X156860000Y-96870000D01*
X155860000Y-95870000D02*
X156860000Y-95870000D01*
X156860000Y-109870000D02*
X155860000Y-109870000D01*
X156860000Y-108870000D02*
X156860000Y-109870000D01*
X142860000Y-109870000D02*
X142860000Y-108870000D01*
X143860000Y-109870000D02*
X142860000Y-109870000D01*
X142860000Y-95870000D02*
X143860000Y-95870000D01*
X142860000Y-96870000D02*
X142860000Y-95870000D01*
G04 #@! TO.C,K11*
X161910000Y-96870000D02*
X161910000Y-95870000D01*
X161910000Y-95870000D02*
X162910000Y-95870000D01*
X162910000Y-109870000D02*
X161910000Y-109870000D01*
X161910000Y-109870000D02*
X161910000Y-108870000D01*
X175910000Y-108870000D02*
X175910000Y-109870000D01*
X175910000Y-109870000D02*
X174910000Y-109870000D01*
X174910000Y-95870000D02*
X175910000Y-95870000D01*
X175910000Y-95870000D02*
X175910000Y-96870000D01*
G04 #@! TO.C,K12*
X180960000Y-96870000D02*
X180960000Y-95870000D01*
X180960000Y-95870000D02*
X181960000Y-95870000D01*
X181960000Y-109870000D02*
X180960000Y-109870000D01*
X180960000Y-109870000D02*
X180960000Y-108870000D01*
X194960000Y-108870000D02*
X194960000Y-109870000D01*
X194960000Y-109870000D02*
X193960000Y-109870000D01*
X193960000Y-95870000D02*
X194960000Y-95870000D01*
X194960000Y-95870000D02*
X194960000Y-96870000D01*
G04 #@! TO.C,K13*
X137810000Y-114920000D02*
X137810000Y-115920000D01*
X136810000Y-114920000D02*
X137810000Y-114920000D01*
X137810000Y-128920000D02*
X136810000Y-128920000D01*
X137810000Y-127920000D02*
X137810000Y-128920000D01*
X123810000Y-128920000D02*
X123810000Y-127920000D01*
X124810000Y-128920000D02*
X123810000Y-128920000D01*
X123810000Y-114920000D02*
X124810000Y-114920000D01*
X123810000Y-115920000D02*
X123810000Y-114920000D01*
G04 #@! TO.C,K14*
X142860000Y-115920000D02*
X142860000Y-114920000D01*
X142860000Y-114920000D02*
X143860000Y-114920000D01*
X143860000Y-128920000D02*
X142860000Y-128920000D01*
X142860000Y-128920000D02*
X142860000Y-127920000D01*
X156860000Y-127920000D02*
X156860000Y-128920000D01*
X156860000Y-128920000D02*
X155860000Y-128920000D01*
X155860000Y-114920000D02*
X156860000Y-114920000D01*
X156860000Y-114920000D02*
X156860000Y-115920000D01*
G04 #@! TO.C,K15*
X175910000Y-114920000D02*
X175910000Y-115920000D01*
X174910000Y-114920000D02*
X175910000Y-114920000D01*
X175910000Y-128920000D02*
X174910000Y-128920000D01*
X175910000Y-127920000D02*
X175910000Y-128920000D01*
X161910000Y-128920000D02*
X161910000Y-127920000D01*
X162910000Y-128920000D02*
X161910000Y-128920000D01*
X161910000Y-114920000D02*
X162910000Y-114920000D01*
X161910000Y-115920000D02*
X161910000Y-114920000D01*
G04 #@! TO.C,K16*
X180960000Y-115920000D02*
X180960000Y-114920000D01*
X180960000Y-114920000D02*
X181960000Y-114920000D01*
X181960000Y-128920000D02*
X180960000Y-128920000D01*
X180960000Y-128920000D02*
X180960000Y-127920000D01*
X194960000Y-127920000D02*
X194960000Y-128920000D01*
X194960000Y-128920000D02*
X193960000Y-128920000D01*
X193960000Y-114920000D02*
X194960000Y-114920000D01*
X194960000Y-114920000D02*
X194960000Y-115920000D01*
D11*
G04 #@! TO.C,R1*
X196462800Y-89584100D02*
X198862800Y-89584100D01*
X196462800Y-89409100D02*
X198862800Y-89409100D01*
X196462800Y-89234100D02*
X198862800Y-89234100D01*
X198862800Y-88834100D02*
X196462800Y-88834100D01*
X196462800Y-89059100D02*
X198862800Y-89059100D01*
X196462800Y-88934100D02*
X198862800Y-88934100D01*
X196462800Y-88859100D02*
X196462800Y-94659100D01*
X196462800Y-94659100D02*
X198862800Y-94659100D01*
X198862800Y-94659100D02*
X198862800Y-88859100D01*
G04 #@! TO.C,R2*
X139350900Y-115792600D02*
X139350900Y-121592600D01*
X141750900Y-115792600D02*
X139350900Y-115792600D01*
X141750900Y-121592600D02*
X141750900Y-115792600D01*
X141750900Y-121517600D02*
X139350900Y-121517600D01*
X141750900Y-121392600D02*
X139350900Y-121392600D01*
X139350900Y-121617600D02*
X141750900Y-121617600D01*
X141750900Y-121217600D02*
X139350900Y-121217600D01*
X141750900Y-121042600D02*
X139350900Y-121042600D01*
X141750900Y-120867600D02*
X139350900Y-120867600D01*
D12*
G04 #@! TO.C,U5*
X122945200Y-122869000D02*
X120285200Y-122869000D01*
X122945200Y-117729000D02*
X122945200Y-122869000D01*
X120285200Y-117729000D02*
X120285200Y-122869000D01*
X122945200Y-117729000D02*
X120285200Y-117729000D01*
X122945200Y-116459000D02*
X122945200Y-115129000D01*
X122945200Y-115129000D02*
X121615200Y-115129000D01*
D10*
G04 #@! TO.C,U1*
X165735000Y-74930000D02*
X165735000Y-57150000D01*
X165735000Y-57150000D02*
X196215000Y-57150000D01*
X196215000Y-57150000D02*
X196215000Y-62230000D01*
X196215000Y-62230000D02*
X198755000Y-62230000D01*
X198755000Y-62230000D02*
X198755000Y-69850000D01*
X198755000Y-69850000D02*
X196215000Y-69850000D01*
X196215000Y-69850000D02*
X196215000Y-74930000D01*
X196215000Y-74930000D02*
X165735000Y-74930000D01*
D12*
G04 #@! TO.C,U6*
X131505000Y-53280000D02*
X131505000Y-55940000D01*
X126365000Y-53280000D02*
X131505000Y-53280000D01*
X126365000Y-55940000D02*
X131505000Y-55940000D01*
X126365000Y-53280000D02*
X126365000Y-55940000D01*
X125095000Y-53280000D02*
X123765000Y-53280000D01*
X123765000Y-53280000D02*
X123765000Y-54610000D01*
D10*
G04 #@! TO.C,U7*
X121500000Y-81797300D02*
X121500000Y-81572300D01*
X126150000Y-81797300D02*
X126150000Y-81472300D01*
X126150000Y-71796500D02*
X126150000Y-72121500D01*
X121500000Y-71796500D02*
X121500000Y-72121500D01*
X121500000Y-81797300D02*
X126150000Y-81797300D01*
X121500000Y-71796500D02*
X126150000Y-71796500D01*
X121500000Y-81572300D02*
X120425000Y-81572300D01*
D12*
G04 #@! TO.C,BT1*
X198815000Y-129498400D02*
X196155000Y-129498400D01*
X198815000Y-126898400D02*
X198815000Y-129498400D01*
X196155000Y-126898400D02*
X196155000Y-129498400D01*
X198815000Y-126898400D02*
X196155000Y-126898400D01*
X198815000Y-125628400D02*
X198815000Y-124298400D01*
X198815000Y-124298400D02*
X197485000Y-124298400D01*
D13*
G04 #@! TO.C,J1*
X179301700Y-93782400D02*
X179301700Y-99782400D01*
D14*
X196251700Y-100532400D02*
G75*
G03X196251700Y-100532400I-200000J0D01*
G01*
D13*
X179301700Y-93782400D02*
X188101700Y-93782400D01*
X180251700Y-99782400D02*
X179301700Y-99782400D01*
X190101700Y-99782400D02*
X183901700Y-99782400D01*
X196301700Y-99282400D02*
X195501700Y-99282400D01*
X196301700Y-94282400D02*
X196301700Y-99282400D01*
X194801700Y-94282400D02*
X196301700Y-94282400D01*
X194801700Y-94282400D02*
X194801700Y-98732400D01*
X194801700Y-93782400D02*
X194801700Y-94282400D01*
X191101700Y-93782400D02*
X194801700Y-93782400D01*
G04 #@! TO.C,J2*
X126604100Y-99888300D02*
X122904100Y-99888300D01*
X122904100Y-99888300D02*
X122904100Y-99388300D01*
X122904100Y-99388300D02*
X122904100Y-94938300D01*
X122904100Y-99388300D02*
X121404100Y-99388300D01*
X121404100Y-99388300D02*
X121404100Y-94388300D01*
X121404100Y-94388300D02*
X122204100Y-94388300D01*
X127604100Y-93888300D02*
X133804100Y-93888300D01*
X137454100Y-93888300D02*
X138404100Y-93888300D01*
X138404100Y-99888300D02*
X129604100Y-99888300D01*
D14*
X121854100Y-93138300D02*
G75*
G03X121854100Y-93138300I-200000J0D01*
G01*
D13*
X138404100Y-99888300D02*
X138404100Y-93888300D01*
G04 #@! TO.C,K8*
D10*
X188698095Y-79192380D02*
X188698095Y-78192380D01*
X188126666Y-79192380D02*
X188555238Y-78620952D01*
X188126666Y-78192380D02*
X188698095Y-78763809D01*
X187555238Y-78620952D02*
X187650476Y-78573333D01*
X187698095Y-78525714D01*
X187745714Y-78430476D01*
X187745714Y-78382857D01*
X187698095Y-78287619D01*
X187650476Y-78240000D01*
X187555238Y-78192380D01*
X187364761Y-78192380D01*
X187269523Y-78240000D01*
X187221904Y-78287619D01*
X187174285Y-78382857D01*
X187174285Y-78430476D01*
X187221904Y-78525714D01*
X187269523Y-78573333D01*
X187364761Y-78620952D01*
X187555238Y-78620952D01*
X187650476Y-78668571D01*
X187698095Y-78716190D01*
X187745714Y-78811428D01*
X187745714Y-79001904D01*
X187698095Y-79097142D01*
X187650476Y-79144761D01*
X187555238Y-79192380D01*
X187364761Y-79192380D01*
X187269523Y-79144761D01*
X187221904Y-79097142D01*
X187174285Y-79001904D01*
X187174285Y-78811428D01*
X187221904Y-78716190D01*
X187269523Y-78668571D01*
X187364761Y-78620952D01*
G04 #@! TO.C,K6*
X150598095Y-79192380D02*
X150598095Y-78192380D01*
X150026666Y-79192380D02*
X150455238Y-78620952D01*
X150026666Y-78192380D02*
X150598095Y-78763809D01*
X149169523Y-78192380D02*
X149360000Y-78192380D01*
X149455238Y-78240000D01*
X149502857Y-78287619D01*
X149598095Y-78430476D01*
X149645714Y-78620952D01*
X149645714Y-79001904D01*
X149598095Y-79097142D01*
X149550476Y-79144761D01*
X149455238Y-79192380D01*
X149264761Y-79192380D01*
X149169523Y-79144761D01*
X149121904Y-79097142D01*
X149074285Y-79001904D01*
X149074285Y-78763809D01*
X149121904Y-78668571D01*
X149169523Y-78620952D01*
X149264761Y-78573333D01*
X149455238Y-78573333D01*
X149550476Y-78620952D01*
X149598095Y-78668571D01*
X149645714Y-78763809D01*
G04 #@! TO.C,D2*
X150450476Y-76581904D02*
X150450476Y-75781904D01*
X150260000Y-75781904D01*
X150145714Y-75820000D01*
X150069523Y-75896190D01*
X150031428Y-75972380D01*
X149993333Y-76124761D01*
X149993333Y-76239047D01*
X150031428Y-76391428D01*
X150069523Y-76467619D01*
X150145714Y-76543809D01*
X150260000Y-76581904D01*
X150450476Y-76581904D01*
X149688571Y-75858095D02*
X149650476Y-75820000D01*
X149574285Y-75781904D01*
X149383809Y-75781904D01*
X149307619Y-75820000D01*
X149269523Y-75858095D01*
X149231428Y-75934285D01*
X149231428Y-76010476D01*
X149269523Y-76124761D01*
X149726666Y-76581904D01*
X149231428Y-76581904D01*
G04 #@! TO.C,D3*
X161245476Y-76581904D02*
X161245476Y-75781904D01*
X161055000Y-75781904D01*
X160940714Y-75820000D01*
X160864523Y-75896190D01*
X160826428Y-75972380D01*
X160788333Y-76124761D01*
X160788333Y-76239047D01*
X160826428Y-76391428D01*
X160864523Y-76467619D01*
X160940714Y-76543809D01*
X161055000Y-76581904D01*
X161245476Y-76581904D01*
X160521666Y-75781904D02*
X160026428Y-75781904D01*
X160293095Y-76086666D01*
X160178809Y-76086666D01*
X160102619Y-76124761D01*
X160064523Y-76162857D01*
X160026428Y-76239047D01*
X160026428Y-76429523D01*
X160064523Y-76505714D01*
X160102619Y-76543809D01*
X160178809Y-76581904D01*
X160407380Y-76581904D01*
X160483571Y-76543809D01*
X160521666Y-76505714D01*
G04 #@! TO.C,D4*
X176973504Y-80003723D02*
X176173504Y-80003723D01*
X176173504Y-80194200D01*
X176211600Y-80308485D01*
X176287790Y-80384676D01*
X176363980Y-80422771D01*
X176516361Y-80460866D01*
X176630647Y-80460866D01*
X176783028Y-80422771D01*
X176859219Y-80384676D01*
X176935409Y-80308485D01*
X176973504Y-80194200D01*
X176973504Y-80003723D01*
X176440171Y-81146580D02*
X176973504Y-81146580D01*
X176135409Y-80956104D02*
X176706838Y-80765628D01*
X176706838Y-81260866D01*
G04 #@! TO.C,D5*
X138517904Y-99358523D02*
X137717904Y-99358523D01*
X137717904Y-99549000D01*
X137756000Y-99663285D01*
X137832190Y-99739476D01*
X137908380Y-99777571D01*
X138060761Y-99815666D01*
X138175047Y-99815666D01*
X138327428Y-99777571D01*
X138403619Y-99739476D01*
X138479809Y-99663285D01*
X138517904Y-99549000D01*
X138517904Y-99358523D01*
X137717904Y-100539476D02*
X137717904Y-100158523D01*
X138098857Y-100120428D01*
X138060761Y-100158523D01*
X138022666Y-100234714D01*
X138022666Y-100425190D01*
X138060761Y-100501380D01*
X138098857Y-100539476D01*
X138175047Y-100577571D01*
X138365523Y-100577571D01*
X138441714Y-100539476D01*
X138479809Y-100501380D01*
X138517904Y-100425190D01*
X138517904Y-100234714D01*
X138479809Y-100158523D01*
X138441714Y-100120428D01*
G04 #@! TO.C,D6*
X150450476Y-95631904D02*
X150450476Y-94831904D01*
X150260000Y-94831904D01*
X150145714Y-94870000D01*
X150069523Y-94946190D01*
X150031428Y-95022380D01*
X149993333Y-95174761D01*
X149993333Y-95289047D01*
X150031428Y-95441428D01*
X150069523Y-95517619D01*
X150145714Y-95593809D01*
X150260000Y-95631904D01*
X150450476Y-95631904D01*
X149307619Y-94831904D02*
X149460000Y-94831904D01*
X149536190Y-94870000D01*
X149574285Y-94908095D01*
X149650476Y-95022380D01*
X149688571Y-95174761D01*
X149688571Y-95479523D01*
X149650476Y-95555714D01*
X149612380Y-95593809D01*
X149536190Y-95631904D01*
X149383809Y-95631904D01*
X149307619Y-95593809D01*
X149269523Y-95555714D01*
X149231428Y-95479523D01*
X149231428Y-95289047D01*
X149269523Y-95212857D01*
X149307619Y-95174761D01*
X149383809Y-95136666D01*
X149536190Y-95136666D01*
X149612380Y-95174761D01*
X149650476Y-95212857D01*
X149688571Y-95289047D01*
G04 #@! TO.C,D7*
X169627476Y-95631904D02*
X169627476Y-94831904D01*
X169437000Y-94831904D01*
X169322714Y-94870000D01*
X169246523Y-94946190D01*
X169208428Y-95022380D01*
X169170333Y-95174761D01*
X169170333Y-95289047D01*
X169208428Y-95441428D01*
X169246523Y-95517619D01*
X169322714Y-95593809D01*
X169437000Y-95631904D01*
X169627476Y-95631904D01*
X168903666Y-94831904D02*
X168370333Y-94831904D01*
X168713190Y-95631904D01*
G04 #@! TO.C,D9*
X131400476Y-114681904D02*
X131400476Y-113881904D01*
X131210000Y-113881904D01*
X131095714Y-113920000D01*
X131019523Y-113996190D01*
X130981428Y-114072380D01*
X130943333Y-114224761D01*
X130943333Y-114339047D01*
X130981428Y-114491428D01*
X131019523Y-114567619D01*
X131095714Y-114643809D01*
X131210000Y-114681904D01*
X131400476Y-114681904D01*
X130562380Y-114681904D02*
X130410000Y-114681904D01*
X130333809Y-114643809D01*
X130295714Y-114605714D01*
X130219523Y-114491428D01*
X130181428Y-114339047D01*
X130181428Y-114034285D01*
X130219523Y-113958095D01*
X130257619Y-113920000D01*
X130333809Y-113881904D01*
X130486190Y-113881904D01*
X130562380Y-113920000D01*
X130600476Y-113958095D01*
X130638571Y-114034285D01*
X130638571Y-114224761D01*
X130600476Y-114300952D01*
X130562380Y-114339047D01*
X130486190Y-114377142D01*
X130333809Y-114377142D01*
X130257619Y-114339047D01*
X130219523Y-114300952D01*
X130181428Y-114224761D01*
G04 #@! TO.C,K1*
X131548095Y-60142380D02*
X131548095Y-59142380D01*
X130976666Y-60142380D02*
X131405238Y-59570952D01*
X130976666Y-59142380D02*
X131548095Y-59713809D01*
X130024285Y-60142380D02*
X130595714Y-60142380D01*
X130310000Y-60142380D02*
X130310000Y-59142380D01*
X130405238Y-59285238D01*
X130500476Y-59380476D01*
X130595714Y-59428095D01*
G04 #@! TO.C,K2*
X150598095Y-60142380D02*
X150598095Y-59142380D01*
X150026666Y-60142380D02*
X150455238Y-59570952D01*
X150026666Y-59142380D02*
X150598095Y-59713809D01*
X149645714Y-59237619D02*
X149598095Y-59190000D01*
X149502857Y-59142380D01*
X149264761Y-59142380D01*
X149169523Y-59190000D01*
X149121904Y-59237619D01*
X149074285Y-59332857D01*
X149074285Y-59428095D01*
X149121904Y-59570952D01*
X149693333Y-60142380D01*
X149074285Y-60142380D01*
G04 #@! TO.C,K3*
X169648095Y-61412380D02*
X169648095Y-60412380D01*
X169076666Y-61412380D02*
X169505238Y-60840952D01*
X169076666Y-60412380D02*
X169648095Y-60983809D01*
X168743333Y-60412380D02*
X168124285Y-60412380D01*
X168457619Y-60793333D01*
X168314761Y-60793333D01*
X168219523Y-60840952D01*
X168171904Y-60888571D01*
X168124285Y-60983809D01*
X168124285Y-61221904D01*
X168171904Y-61317142D01*
X168219523Y-61364761D01*
X168314761Y-61412380D01*
X168600476Y-61412380D01*
X168695714Y-61364761D01*
X168743333Y-61317142D01*
G04 #@! TO.C,K4*
X188698095Y-61412380D02*
X188698095Y-60412380D01*
X188126666Y-61412380D02*
X188555238Y-60840952D01*
X188126666Y-60412380D02*
X188698095Y-60983809D01*
X187269523Y-60745714D02*
X187269523Y-61412380D01*
X187507619Y-60364761D02*
X187745714Y-61079047D01*
X187126666Y-61079047D01*
G04 #@! TO.C,K5*
X131548095Y-79192380D02*
X131548095Y-78192380D01*
X130976666Y-79192380D02*
X131405238Y-78620952D01*
X130976666Y-78192380D02*
X131548095Y-78763809D01*
X130071904Y-78192380D02*
X130548095Y-78192380D01*
X130595714Y-78668571D01*
X130548095Y-78620952D01*
X130452857Y-78573333D01*
X130214761Y-78573333D01*
X130119523Y-78620952D01*
X130071904Y-78668571D01*
X130024285Y-78763809D01*
X130024285Y-79001904D01*
X130071904Y-79097142D01*
X130119523Y-79144761D01*
X130214761Y-79192380D01*
X130452857Y-79192380D01*
X130548095Y-79144761D01*
X130595714Y-79097142D01*
G04 #@! TO.C,K7*
X169648095Y-79192380D02*
X169648095Y-78192380D01*
X169076666Y-79192380D02*
X169505238Y-78620952D01*
X169076666Y-78192380D02*
X169648095Y-78763809D01*
X168743333Y-78192380D02*
X168076666Y-78192380D01*
X168505238Y-79192380D01*
G04 #@! TO.C,K9*
X131548095Y-98242380D02*
X131548095Y-97242380D01*
X130976666Y-98242380D02*
X131405238Y-97670952D01*
X130976666Y-97242380D02*
X131548095Y-97813809D01*
X130500476Y-98242380D02*
X130310000Y-98242380D01*
X130214761Y-98194761D01*
X130167142Y-98147142D01*
X130071904Y-98004285D01*
X130024285Y-97813809D01*
X130024285Y-97432857D01*
X130071904Y-97337619D01*
X130119523Y-97290000D01*
X130214761Y-97242380D01*
X130405238Y-97242380D01*
X130500476Y-97290000D01*
X130548095Y-97337619D01*
X130595714Y-97432857D01*
X130595714Y-97670952D01*
X130548095Y-97766190D01*
X130500476Y-97813809D01*
X130405238Y-97861428D01*
X130214761Y-97861428D01*
X130119523Y-97813809D01*
X130071904Y-97766190D01*
X130024285Y-97670952D01*
G04 #@! TO.C,U2*
X159147380Y-52238095D02*
X159956904Y-52238095D01*
X160052142Y-52285714D01*
X160099761Y-52333333D01*
X160147380Y-52428571D01*
X160147380Y-52619047D01*
X160099761Y-52714285D01*
X160052142Y-52761904D01*
X159956904Y-52809523D01*
X159147380Y-52809523D01*
X159242619Y-53238095D02*
X159195000Y-53285714D01*
X159147380Y-53380952D01*
X159147380Y-53619047D01*
X159195000Y-53714285D01*
X159242619Y-53761904D01*
X159337857Y-53809523D01*
X159433095Y-53809523D01*
X159575952Y-53761904D01*
X160147380Y-53190476D01*
X160147380Y-53809523D01*
G04 #@! TO.C,U3*
X198818404Y-76922380D02*
X198818404Y-77731904D01*
X198770785Y-77827142D01*
X198723166Y-77874761D01*
X198627928Y-77922380D01*
X198437452Y-77922380D01*
X198342214Y-77874761D01*
X198294595Y-77827142D01*
X198246976Y-77731904D01*
X198246976Y-76922380D01*
X197866023Y-76922380D02*
X197246976Y-76922380D01*
X197580309Y-77303333D01*
X197437452Y-77303333D01*
X197342214Y-77350952D01*
X197294595Y-77398571D01*
X197246976Y-77493809D01*
X197246976Y-77731904D01*
X197294595Y-77827142D01*
X197342214Y-77874761D01*
X197437452Y-77922380D01*
X197723166Y-77922380D01*
X197818404Y-77874761D01*
X197866023Y-77827142D01*
G04 #@! TO.C,U4*
D15*
X142250303Y-61745531D02*
X142250303Y-62556488D01*
X142202600Y-62651895D01*
X142154896Y-62699598D01*
X142059490Y-62747301D01*
X141868676Y-62747301D01*
X141773270Y-62699598D01*
X141725566Y-62651895D01*
X141677863Y-62556488D01*
X141677863Y-61745531D01*
X140771500Y-62079455D02*
X140771500Y-62747301D01*
X141010016Y-61697828D02*
X141248533Y-62413378D01*
X140628390Y-62413378D01*
X145859810Y-51782143D02*
X145382771Y-51782143D01*
X145955217Y-52068366D02*
X145621290Y-51066586D01*
X145287364Y-52068366D01*
X144953437Y-52068366D02*
X144953437Y-51066586D01*
X144619510Y-51782143D01*
X144285584Y-51066586D01*
X144285584Y-52068366D01*
X143856250Y-52020662D02*
X143713138Y-52068366D01*
X143474619Y-52068366D01*
X143379211Y-52020662D01*
X143331508Y-51972958D01*
X143283804Y-51877550D01*
X143283804Y-51782143D01*
X143331508Y-51686735D01*
X143379211Y-51639031D01*
X143474619Y-51591328D01*
X143665434Y-51543624D01*
X143760842Y-51495920D01*
X143808546Y-51448216D01*
X143856250Y-51352809D01*
X143856250Y-51257401D01*
X143808546Y-51161993D01*
X143760842Y-51114290D01*
X143665434Y-51066586D01*
X143426915Y-51066586D01*
X143283804Y-51114290D01*
X142329728Y-52068366D02*
X142902173Y-52068366D01*
X142615950Y-52068366D02*
X142615950Y-51066586D01*
X142711358Y-51209697D01*
X142806766Y-51305105D01*
X142902173Y-51352809D01*
X141375651Y-52068366D02*
X141948097Y-52068366D01*
X141661874Y-52068366D02*
X141661874Y-51066586D01*
X141757282Y-51209697D01*
X141852690Y-51305105D01*
X141948097Y-51352809D01*
X140421575Y-52068366D02*
X140994021Y-52068366D01*
X140707798Y-52068366D02*
X140707798Y-51066586D01*
X140803206Y-51209697D01*
X140898613Y-51305105D01*
X140994021Y-51352809D01*
X140087649Y-51066586D02*
X139419795Y-51066586D01*
X139849130Y-52068366D01*
X139038165Y-51686735D02*
X138274904Y-51686735D01*
X137893273Y-51066586D02*
X137273124Y-51066586D01*
X137607050Y-51448216D01*
X137463939Y-51448216D01*
X137368531Y-51495920D01*
X137320828Y-51543624D01*
X137273124Y-51639031D01*
X137273124Y-51877550D01*
X137320828Y-51972958D01*
X137368531Y-52020662D01*
X137463939Y-52068366D01*
X137750162Y-52068366D01*
X137845570Y-52020662D01*
X137893273Y-51972958D01*
X136843790Y-51972958D02*
X136796086Y-52020662D01*
X136843790Y-52068366D01*
X136891493Y-52020662D01*
X136843790Y-51972958D01*
X136843790Y-52068366D01*
X136462159Y-51066586D02*
X135842010Y-51066586D01*
X136175936Y-51448216D01*
X136032825Y-51448216D01*
X135937417Y-51495920D01*
X135889713Y-51543624D01*
X135842010Y-51639031D01*
X135842010Y-51877550D01*
X135889713Y-51972958D01*
X135937417Y-52020662D01*
X136032825Y-52068366D01*
X136319048Y-52068366D01*
X136414455Y-52020662D01*
X136462159Y-51972958D01*
G04 #@! TO.C,D10*
D10*
X150831428Y-114681904D02*
X150831428Y-113881904D01*
X150640952Y-113881904D01*
X150526666Y-113920000D01*
X150450476Y-113996190D01*
X150412380Y-114072380D01*
X150374285Y-114224761D01*
X150374285Y-114339047D01*
X150412380Y-114491428D01*
X150450476Y-114567619D01*
X150526666Y-114643809D01*
X150640952Y-114681904D01*
X150831428Y-114681904D01*
X149612380Y-114681904D02*
X150069523Y-114681904D01*
X149840952Y-114681904D02*
X149840952Y-113881904D01*
X149917142Y-113996190D01*
X149993333Y-114072380D01*
X150069523Y-114110476D01*
X149117142Y-113881904D02*
X149040952Y-113881904D01*
X148964761Y-113920000D01*
X148926666Y-113958095D01*
X148888571Y-114034285D01*
X148850476Y-114186666D01*
X148850476Y-114377142D01*
X148888571Y-114529523D01*
X148926666Y-114605714D01*
X148964761Y-114643809D01*
X149040952Y-114681904D01*
X149117142Y-114681904D01*
X149193333Y-114643809D01*
X149231428Y-114605714D01*
X149269523Y-114529523D01*
X149307619Y-114377142D01*
X149307619Y-114186666D01*
X149269523Y-114034285D01*
X149231428Y-113958095D01*
X149193333Y-113920000D01*
X149117142Y-113881904D01*
G04 #@! TO.C,D11*
X169881428Y-114681904D02*
X169881428Y-113881904D01*
X169690952Y-113881904D01*
X169576666Y-113920000D01*
X169500476Y-113996190D01*
X169462380Y-114072380D01*
X169424285Y-114224761D01*
X169424285Y-114339047D01*
X169462380Y-114491428D01*
X169500476Y-114567619D01*
X169576666Y-114643809D01*
X169690952Y-114681904D01*
X169881428Y-114681904D01*
X168662380Y-114681904D02*
X169119523Y-114681904D01*
X168890952Y-114681904D02*
X168890952Y-113881904D01*
X168967142Y-113996190D01*
X169043333Y-114072380D01*
X169119523Y-114110476D01*
X167900476Y-114681904D02*
X168357619Y-114681904D01*
X168129047Y-114681904D02*
X168129047Y-113881904D01*
X168205238Y-113996190D01*
X168281428Y-114072380D01*
X168357619Y-114110476D01*
G04 #@! TO.C,D12*
X188931428Y-114681904D02*
X188931428Y-113881904D01*
X188740952Y-113881904D01*
X188626666Y-113920000D01*
X188550476Y-113996190D01*
X188512380Y-114072380D01*
X188474285Y-114224761D01*
X188474285Y-114339047D01*
X188512380Y-114491428D01*
X188550476Y-114567619D01*
X188626666Y-114643809D01*
X188740952Y-114681904D01*
X188931428Y-114681904D01*
X187712380Y-114681904D02*
X188169523Y-114681904D01*
X187940952Y-114681904D02*
X187940952Y-113881904D01*
X188017142Y-113996190D01*
X188093333Y-114072380D01*
X188169523Y-114110476D01*
X187407619Y-113958095D02*
X187369523Y-113920000D01*
X187293333Y-113881904D01*
X187102857Y-113881904D01*
X187026666Y-113920000D01*
X186988571Y-113958095D01*
X186950476Y-114034285D01*
X186950476Y-114110476D01*
X186988571Y-114224761D01*
X187445714Y-114681904D01*
X186950476Y-114681904D01*
G04 #@! TO.C,D13*
X131781428Y-133731904D02*
X131781428Y-132931904D01*
X131590952Y-132931904D01*
X131476666Y-132970000D01*
X131400476Y-133046190D01*
X131362380Y-133122380D01*
X131324285Y-133274761D01*
X131324285Y-133389047D01*
X131362380Y-133541428D01*
X131400476Y-133617619D01*
X131476666Y-133693809D01*
X131590952Y-133731904D01*
X131781428Y-133731904D01*
X130562380Y-133731904D02*
X131019523Y-133731904D01*
X130790952Y-133731904D02*
X130790952Y-132931904D01*
X130867142Y-133046190D01*
X130943333Y-133122380D01*
X131019523Y-133160476D01*
X130295714Y-132931904D02*
X129800476Y-132931904D01*
X130067142Y-133236666D01*
X129952857Y-133236666D01*
X129876666Y-133274761D01*
X129838571Y-133312857D01*
X129800476Y-133389047D01*
X129800476Y-133579523D01*
X129838571Y-133655714D01*
X129876666Y-133693809D01*
X129952857Y-133731904D01*
X130181428Y-133731904D01*
X130257619Y-133693809D01*
X130295714Y-133655714D01*
G04 #@! TO.C,D14*
X150831428Y-133731904D02*
X150831428Y-132931904D01*
X150640952Y-132931904D01*
X150526666Y-132970000D01*
X150450476Y-133046190D01*
X150412380Y-133122380D01*
X150374285Y-133274761D01*
X150374285Y-133389047D01*
X150412380Y-133541428D01*
X150450476Y-133617619D01*
X150526666Y-133693809D01*
X150640952Y-133731904D01*
X150831428Y-133731904D01*
X149612380Y-133731904D02*
X150069523Y-133731904D01*
X149840952Y-133731904D02*
X149840952Y-132931904D01*
X149917142Y-133046190D01*
X149993333Y-133122380D01*
X150069523Y-133160476D01*
X148926666Y-133198571D02*
X148926666Y-133731904D01*
X149117142Y-132893809D02*
X149307619Y-133465238D01*
X148812380Y-133465238D01*
G04 #@! TO.C,D15*
X169881428Y-133731904D02*
X169881428Y-132931904D01*
X169690952Y-132931904D01*
X169576666Y-132970000D01*
X169500476Y-133046190D01*
X169462380Y-133122380D01*
X169424285Y-133274761D01*
X169424285Y-133389047D01*
X169462380Y-133541428D01*
X169500476Y-133617619D01*
X169576666Y-133693809D01*
X169690952Y-133731904D01*
X169881428Y-133731904D01*
X168662380Y-133731904D02*
X169119523Y-133731904D01*
X168890952Y-133731904D02*
X168890952Y-132931904D01*
X168967142Y-133046190D01*
X169043333Y-133122380D01*
X169119523Y-133160476D01*
X167938571Y-132931904D02*
X168319523Y-132931904D01*
X168357619Y-133312857D01*
X168319523Y-133274761D01*
X168243333Y-133236666D01*
X168052857Y-133236666D01*
X167976666Y-133274761D01*
X167938571Y-133312857D01*
X167900476Y-133389047D01*
X167900476Y-133579523D01*
X167938571Y-133655714D01*
X167976666Y-133693809D01*
X168052857Y-133731904D01*
X168243333Y-133731904D01*
X168319523Y-133693809D01*
X168357619Y-133655714D01*
G04 #@! TO.C,D16*
X188931428Y-133731904D02*
X188931428Y-132931904D01*
X188740952Y-132931904D01*
X188626666Y-132970000D01*
X188550476Y-133046190D01*
X188512380Y-133122380D01*
X188474285Y-133274761D01*
X188474285Y-133389047D01*
X188512380Y-133541428D01*
X188550476Y-133617619D01*
X188626666Y-133693809D01*
X188740952Y-133731904D01*
X188931428Y-133731904D01*
X187712380Y-133731904D02*
X188169523Y-133731904D01*
X187940952Y-133731904D02*
X187940952Y-132931904D01*
X188017142Y-133046190D01*
X188093333Y-133122380D01*
X188169523Y-133160476D01*
X187026666Y-132931904D02*
X187179047Y-132931904D01*
X187255238Y-132970000D01*
X187293333Y-133008095D01*
X187369523Y-133122380D01*
X187407619Y-133274761D01*
X187407619Y-133579523D01*
X187369523Y-133655714D01*
X187331428Y-133693809D01*
X187255238Y-133731904D01*
X187102857Y-133731904D01*
X187026666Y-133693809D01*
X186988571Y-133655714D01*
X186950476Y-133579523D01*
X186950476Y-133389047D01*
X186988571Y-133312857D01*
X187026666Y-133274761D01*
X187102857Y-133236666D01*
X187255238Y-133236666D01*
X187331428Y-133274761D01*
X187369523Y-133312857D01*
X187407619Y-133389047D01*
G04 #@! TO.C,K10*
X151074285Y-98242380D02*
X151074285Y-97242380D01*
X150502857Y-98242380D02*
X150931428Y-97670952D01*
X150502857Y-97242380D02*
X151074285Y-97813809D01*
X149550476Y-98242380D02*
X150121904Y-98242380D01*
X149836190Y-98242380D02*
X149836190Y-97242380D01*
X149931428Y-97385238D01*
X150026666Y-97480476D01*
X150121904Y-97528095D01*
X148931428Y-97242380D02*
X148836190Y-97242380D01*
X148740952Y-97290000D01*
X148693333Y-97337619D01*
X148645714Y-97432857D01*
X148598095Y-97623333D01*
X148598095Y-97861428D01*
X148645714Y-98051904D01*
X148693333Y-98147142D01*
X148740952Y-98194761D01*
X148836190Y-98242380D01*
X148931428Y-98242380D01*
X149026666Y-98194761D01*
X149074285Y-98147142D01*
X149121904Y-98051904D01*
X149169523Y-97861428D01*
X149169523Y-97623333D01*
X149121904Y-97432857D01*
X149074285Y-97337619D01*
X149026666Y-97290000D01*
X148931428Y-97242380D01*
G04 #@! TO.C,K11*
X170124285Y-98242380D02*
X170124285Y-97242380D01*
X169552857Y-98242380D02*
X169981428Y-97670952D01*
X169552857Y-97242380D02*
X170124285Y-97813809D01*
X168600476Y-98242380D02*
X169171904Y-98242380D01*
X168886190Y-98242380D02*
X168886190Y-97242380D01*
X168981428Y-97385238D01*
X169076666Y-97480476D01*
X169171904Y-97528095D01*
X167648095Y-98242380D02*
X168219523Y-98242380D01*
X167933809Y-98242380D02*
X167933809Y-97242380D01*
X168029047Y-97385238D01*
X168124285Y-97480476D01*
X168219523Y-97528095D01*
G04 #@! TO.C,K12*
X189174285Y-98242380D02*
X189174285Y-97242380D01*
X188602857Y-98242380D02*
X189031428Y-97670952D01*
X188602857Y-97242380D02*
X189174285Y-97813809D01*
X187650476Y-98242380D02*
X188221904Y-98242380D01*
X187936190Y-98242380D02*
X187936190Y-97242380D01*
X188031428Y-97385238D01*
X188126666Y-97480476D01*
X188221904Y-97528095D01*
X187269523Y-97337619D02*
X187221904Y-97290000D01*
X187126666Y-97242380D01*
X186888571Y-97242380D01*
X186793333Y-97290000D01*
X186745714Y-97337619D01*
X186698095Y-97432857D01*
X186698095Y-97528095D01*
X186745714Y-97670952D01*
X187317142Y-98242380D01*
X186698095Y-98242380D01*
G04 #@! TO.C,K13*
X132024285Y-117292380D02*
X132024285Y-116292380D01*
X131452857Y-117292380D02*
X131881428Y-116720952D01*
X131452857Y-116292380D02*
X132024285Y-116863809D01*
X130500476Y-117292380D02*
X131071904Y-117292380D01*
X130786190Y-117292380D02*
X130786190Y-116292380D01*
X130881428Y-116435238D01*
X130976666Y-116530476D01*
X131071904Y-116578095D01*
X130167142Y-116292380D02*
X129548095Y-116292380D01*
X129881428Y-116673333D01*
X129738571Y-116673333D01*
X129643333Y-116720952D01*
X129595714Y-116768571D01*
X129548095Y-116863809D01*
X129548095Y-117101904D01*
X129595714Y-117197142D01*
X129643333Y-117244761D01*
X129738571Y-117292380D01*
X130024285Y-117292380D01*
X130119523Y-117244761D01*
X130167142Y-117197142D01*
G04 #@! TO.C,K14*
X151074285Y-117292380D02*
X151074285Y-116292380D01*
X150502857Y-117292380D02*
X150931428Y-116720952D01*
X150502857Y-116292380D02*
X151074285Y-116863809D01*
X149550476Y-117292380D02*
X150121904Y-117292380D01*
X149836190Y-117292380D02*
X149836190Y-116292380D01*
X149931428Y-116435238D01*
X150026666Y-116530476D01*
X150121904Y-116578095D01*
X148693333Y-116625714D02*
X148693333Y-117292380D01*
X148931428Y-116244761D02*
X149169523Y-116959047D01*
X148550476Y-116959047D01*
G04 #@! TO.C,K15*
X170124285Y-117292380D02*
X170124285Y-116292380D01*
X169552857Y-117292380D02*
X169981428Y-116720952D01*
X169552857Y-116292380D02*
X170124285Y-116863809D01*
X168600476Y-117292380D02*
X169171904Y-117292380D01*
X168886190Y-117292380D02*
X168886190Y-116292380D01*
X168981428Y-116435238D01*
X169076666Y-116530476D01*
X169171904Y-116578095D01*
X167695714Y-116292380D02*
X168171904Y-116292380D01*
X168219523Y-116768571D01*
X168171904Y-116720952D01*
X168076666Y-116673333D01*
X167838571Y-116673333D01*
X167743333Y-116720952D01*
X167695714Y-116768571D01*
X167648095Y-116863809D01*
X167648095Y-117101904D01*
X167695714Y-117197142D01*
X167743333Y-117244761D01*
X167838571Y-117292380D01*
X168076666Y-117292380D01*
X168171904Y-117244761D01*
X168219523Y-117197142D01*
G04 #@! TO.C,K16*
X189174285Y-117292380D02*
X189174285Y-116292380D01*
X188602857Y-117292380D02*
X189031428Y-116720952D01*
X188602857Y-116292380D02*
X189174285Y-116863809D01*
X187650476Y-117292380D02*
X188221904Y-117292380D01*
X187936190Y-117292380D02*
X187936190Y-116292380D01*
X188031428Y-116435238D01*
X188126666Y-116530476D01*
X188221904Y-116578095D01*
X186793333Y-116292380D02*
X186983809Y-116292380D01*
X187079047Y-116340000D01*
X187126666Y-116387619D01*
X187221904Y-116530476D01*
X187269523Y-116720952D01*
X187269523Y-117101904D01*
X187221904Y-117197142D01*
X187174285Y-117244761D01*
X187079047Y-117292380D01*
X186888571Y-117292380D01*
X186793333Y-117244761D01*
X186745714Y-117197142D01*
X186698095Y-117101904D01*
X186698095Y-116863809D01*
X186745714Y-116768571D01*
X186793333Y-116720952D01*
X186888571Y-116673333D01*
X187079047Y-116673333D01*
X187174285Y-116720952D01*
X187221904Y-116768571D01*
X187269523Y-116863809D01*
G04 #@! TO.C,R1*
X199949704Y-91725766D02*
X199568752Y-91459100D01*
X199949704Y-91268623D02*
X199149704Y-91268623D01*
X199149704Y-91573385D01*
X199187800Y-91649576D01*
X199225895Y-91687671D01*
X199302085Y-91725766D01*
X199416371Y-91725766D01*
X199492561Y-91687671D01*
X199530657Y-91649576D01*
X199568752Y-91573385D01*
X199568752Y-91268623D01*
X199949704Y-92487671D02*
X199949704Y-92030528D01*
X199949704Y-92259100D02*
X199149704Y-92259100D01*
X199263990Y-92182909D01*
X199340180Y-92106719D01*
X199378276Y-92030528D01*
G04 #@! TO.C,R2*
X138987804Y-118459266D02*
X138606852Y-118192600D01*
X138987804Y-118002123D02*
X138187804Y-118002123D01*
X138187804Y-118306885D01*
X138225900Y-118383076D01*
X138263995Y-118421171D01*
X138340185Y-118459266D01*
X138454471Y-118459266D01*
X138530661Y-118421171D01*
X138568757Y-118383076D01*
X138606852Y-118306885D01*
X138606852Y-118002123D01*
X138263995Y-118764028D02*
X138225900Y-118802123D01*
X138187804Y-118878314D01*
X138187804Y-119068790D01*
X138225900Y-119144980D01*
X138263995Y-119183076D01*
X138340185Y-119221171D01*
X138416376Y-119221171D01*
X138530661Y-119183076D01*
X138987804Y-118725933D01*
X138987804Y-119221171D01*
G04 #@! TO.C,U5*
X122377104Y-113581380D02*
X122377104Y-114390904D01*
X122329485Y-114486142D01*
X122281866Y-114533761D01*
X122186628Y-114581380D01*
X121996152Y-114581380D01*
X121900914Y-114533761D01*
X121853295Y-114486142D01*
X121805676Y-114390904D01*
X121805676Y-113581380D01*
X120853295Y-113581380D02*
X121329485Y-113581380D01*
X121377104Y-114057571D01*
X121329485Y-114009952D01*
X121234247Y-113962333D01*
X120996152Y-113962333D01*
X120900914Y-114009952D01*
X120853295Y-114057571D01*
X120805676Y-114152809D01*
X120805676Y-114390904D01*
X120853295Y-114486142D01*
X120900914Y-114533761D01*
X120996152Y-114581380D01*
X121234247Y-114581380D01*
X121329485Y-114533761D01*
X121377104Y-114486142D01*
G04 #@! TO.C,U6*
X122217380Y-53848095D02*
X123026904Y-53848095D01*
X123122142Y-53895714D01*
X123169761Y-53943333D01*
X123217380Y-54038571D01*
X123217380Y-54229047D01*
X123169761Y-54324285D01*
X123122142Y-54371904D01*
X123026904Y-54419523D01*
X122217380Y-54419523D01*
X122217380Y-55324285D02*
X122217380Y-55133809D01*
X122265000Y-55038571D01*
X122312619Y-54990952D01*
X122455476Y-54895714D01*
X122645952Y-54848095D01*
X123026904Y-54848095D01*
X123122142Y-54895714D01*
X123169761Y-54943333D01*
X123217380Y-55038571D01*
X123217380Y-55229047D01*
X123169761Y-55324285D01*
X123122142Y-55371904D01*
X123026904Y-55419523D01*
X122788809Y-55419523D01*
X122693571Y-55371904D01*
X122645952Y-55324285D01*
X122598333Y-55229047D01*
X122598333Y-55038571D01*
X122645952Y-54943333D01*
X122693571Y-54895714D01*
X122788809Y-54848095D01*
G04 #@! TO.C,U7*
X124586904Y-82174680D02*
X124586904Y-82984204D01*
X124539285Y-83079442D01*
X124491666Y-83127061D01*
X124396428Y-83174680D01*
X124205952Y-83174680D01*
X124110714Y-83127061D01*
X124063095Y-83079442D01*
X124015476Y-82984204D01*
X124015476Y-82174680D01*
X123634523Y-82174680D02*
X122967857Y-82174680D01*
X123396428Y-83174680D01*
G04 #@! TO.C,BT1*
X198270714Y-123226971D02*
X198127857Y-123274590D01*
X198080238Y-123322209D01*
X198032619Y-123417447D01*
X198032619Y-123560304D01*
X198080238Y-123655542D01*
X198127857Y-123703161D01*
X198223095Y-123750780D01*
X198604047Y-123750780D01*
X198604047Y-122750780D01*
X198270714Y-122750780D01*
X198175476Y-122798400D01*
X198127857Y-122846019D01*
X198080238Y-122941257D01*
X198080238Y-123036495D01*
X198127857Y-123131733D01*
X198175476Y-123179352D01*
X198270714Y-123226971D01*
X198604047Y-123226971D01*
X197746904Y-122750780D02*
X197175476Y-122750780D01*
X197461190Y-123750780D02*
X197461190Y-122750780D01*
X196318333Y-123750780D02*
X196889761Y-123750780D01*
X196604047Y-123750780D02*
X196604047Y-122750780D01*
X196699285Y-122893638D01*
X196794523Y-122988876D01*
X196889761Y-123036495D01*
G04 #@! TO.C,J1*
D15*
X192620503Y-89817937D02*
X192620503Y-90535501D01*
X192668340Y-90679014D01*
X192764016Y-90774689D01*
X192907529Y-90822527D01*
X193003204Y-90822527D01*
X191615913Y-90822527D02*
X192189964Y-90822527D01*
X191902939Y-90822527D02*
X191902939Y-89817937D01*
X191998614Y-89961450D01*
X192094289Y-90057125D01*
X192189964Y-90104963D01*
G04 #@! TO.C,J2*
X125755023Y-102752497D02*
X125755023Y-103470061D01*
X125802860Y-103613574D01*
X125898536Y-103709249D01*
X126042049Y-103757087D01*
X126137724Y-103757087D01*
X125324484Y-102848172D02*
X125276647Y-102800335D01*
X125180971Y-102752497D01*
X124941783Y-102752497D01*
X124846108Y-102800335D01*
X124798270Y-102848172D01*
X124750433Y-102943847D01*
X124750433Y-103039523D01*
X124798270Y-103183035D01*
X125372322Y-103757087D01*
X124750433Y-103757087D01*
G04 #@! TD*
M02*
