G04 #@! TF.GenerationSoftware,KiCad,Pcbnew,(5.0.0-3-g5ebb6b6)*
G04 #@! TF.CreationDate,2019-05-07T00:15:57-07:00*
G04 #@! TF.ProjectId,arrowPad,6172726F775061642E6B696361645F70,rev?*
G04 #@! TF.SameCoordinates,Original*
G04 #@! TF.FileFunction,Paste,Bot*
G04 #@! TF.FilePolarity,Positive*
%FSLAX46Y46*%
G04 Gerber Fmt 4.6, Leading zero omitted, Abs format (unit mm)*
G04 Created by KiCad (PCBNEW (5.0.0-3-g5ebb6b6)) date Tuesday, May 07, 2019 at 12:15:57 AM*
%MOMM*%
%LPD*%
G01*
G04 APERTURE LIST*
%ADD10R,2.600000X2.600000*%
%ADD11R,1.200000X1.200000*%
%ADD12R,0.930000X1.310000*%
%ADD13R,3.240000X1.310000*%
%ADD14R,1.100000X0.400000*%
%ADD15R,0.900000X1.400000*%
%ADD16R,2.200000X2.800000*%
%ADD17R,2.800000X2.600000*%
%ADD18R,2.000000X2.800000*%
G04 APERTURE END LIST*
D10*
G04 #@! TO.C,K8*
X191235000Y-89770000D03*
X179685000Y-87570000D03*
G04 #@! TD*
G04 #@! TO.C,K6*
X153135000Y-89770000D03*
X141585000Y-87570000D03*
G04 #@! TD*
D11*
G04 #@! TO.C,D2*
X151435000Y-74295000D03*
X148285000Y-74295000D03*
G04 #@! TD*
G04 #@! TO.C,D3*
X159080000Y-74295000D03*
X162230000Y-74295000D03*
G04 #@! TD*
G04 #@! TO.C,D4*
X178536600Y-82169200D03*
X178536600Y-79019200D03*
G04 #@! TD*
G04 #@! TO.C,D5*
X140081000Y-98374000D03*
X140081000Y-101524000D03*
G04 #@! TD*
G04 #@! TO.C,D6*
X151435000Y-93345000D03*
X148285000Y-93345000D03*
G04 #@! TD*
G04 #@! TO.C,D7*
X167462000Y-93345000D03*
X170612000Y-93345000D03*
G04 #@! TD*
G04 #@! TO.C,D9*
X129235000Y-112395000D03*
X132385000Y-112395000D03*
G04 #@! TD*
D10*
G04 #@! TO.C,K1*
X122535000Y-68520000D03*
X134085000Y-70720000D03*
G04 #@! TD*
G04 #@! TO.C,K2*
X153135000Y-70764000D03*
X141585000Y-68564000D03*
G04 #@! TD*
G04 #@! TO.C,K3*
X160635000Y-68520000D03*
X172185000Y-70720000D03*
G04 #@! TD*
G04 #@! TO.C,K4*
X191235000Y-70720000D03*
X179685000Y-68520000D03*
G04 #@! TD*
G04 #@! TO.C,K5*
X122535000Y-87570000D03*
X134085000Y-89770000D03*
G04 #@! TD*
G04 #@! TO.C,K7*
X160635000Y-87570000D03*
X172185000Y-89770000D03*
G04 #@! TD*
G04 #@! TO.C,K9*
X122535000Y-106620000D03*
X134085000Y-108820000D03*
G04 #@! TD*
D12*
G04 #@! TO.C,U4*
X142625000Y-53805000D03*
X140335000Y-53805000D03*
X138045000Y-53805000D03*
D13*
X140335000Y-60495000D03*
G04 #@! TD*
D11*
G04 #@! TO.C,D10*
X148285000Y-112395000D03*
X151435000Y-112395000D03*
G04 #@! TD*
G04 #@! TO.C,D11*
X170485000Y-112395000D03*
X167335000Y-112395000D03*
G04 #@! TD*
G04 #@! TO.C,D12*
X186385000Y-112395000D03*
X189535000Y-112395000D03*
G04 #@! TD*
G04 #@! TO.C,D13*
X132385000Y-131445000D03*
X129235000Y-131445000D03*
G04 #@! TD*
G04 #@! TO.C,D14*
X148285000Y-131445000D03*
X151435000Y-131445000D03*
G04 #@! TD*
G04 #@! TO.C,D15*
X170485000Y-131445000D03*
X167335000Y-131445000D03*
G04 #@! TD*
G04 #@! TO.C,D16*
X186385000Y-131445000D03*
X189535000Y-131445000D03*
G04 #@! TD*
D10*
G04 #@! TO.C,K10*
X153135000Y-108820000D03*
X141585000Y-106620000D03*
G04 #@! TD*
G04 #@! TO.C,K11*
X160635000Y-106620000D03*
X172185000Y-108820000D03*
G04 #@! TD*
G04 #@! TO.C,K12*
X179685000Y-106620000D03*
X191235000Y-108820000D03*
G04 #@! TD*
G04 #@! TO.C,K13*
X134085000Y-127870000D03*
X122535000Y-125670000D03*
G04 #@! TD*
G04 #@! TO.C,K14*
X141585000Y-125670000D03*
X153135000Y-127870000D03*
G04 #@! TD*
G04 #@! TO.C,K15*
X172185000Y-127870000D03*
X160635000Y-125670000D03*
G04 #@! TD*
G04 #@! TO.C,K16*
X179685000Y-125670000D03*
X191235000Y-127870000D03*
G04 #@! TD*
D11*
G04 #@! TO.C,R1*
X197662800Y-93434100D03*
X197662800Y-90284100D03*
G04 #@! TD*
G04 #@! TO.C,R2*
X140550900Y-120167600D03*
X140550900Y-117017600D03*
G04 #@! TD*
D14*
G04 #@! TO.C,U7*
X120975000Y-81047300D03*
X120975000Y-80397300D03*
X120975000Y-79747300D03*
X120975000Y-79097300D03*
X120975000Y-78447300D03*
X120975000Y-77797300D03*
X120975000Y-77147300D03*
X120975000Y-76497300D03*
X120975000Y-75847300D03*
X120975000Y-75197300D03*
X120975000Y-74547300D03*
X120975000Y-73897300D03*
X120975000Y-73247300D03*
X120975000Y-72597300D03*
X126675000Y-72597300D03*
X126675000Y-73247300D03*
X126675000Y-73897300D03*
X126675000Y-74547300D03*
X126675000Y-75197300D03*
X126675000Y-75847300D03*
X126675000Y-76497300D03*
X126675000Y-77147300D03*
X126675000Y-77797300D03*
X126675000Y-78447300D03*
X126675000Y-79097300D03*
X126675000Y-79747300D03*
X126675000Y-80397300D03*
X126675000Y-81047300D03*
D15*
X123225000Y-78602300D03*
X124425000Y-78602300D03*
X124425000Y-76822300D03*
X123225000Y-76822300D03*
X124425000Y-75042300D03*
X123225000Y-75042300D03*
G04 #@! TD*
D16*
G04 #@! TO.C,J1*
X191401700Y-100482400D03*
X189501700Y-93082400D03*
D17*
X182001700Y-100382400D03*
D18*
X194201700Y-100482400D03*
G04 #@! TD*
G04 #@! TO.C,J2*
X123504100Y-93188300D03*
D17*
X135704100Y-93288300D03*
D16*
X128204100Y-100588300D03*
X126304100Y-93188300D03*
G04 #@! TD*
M02*
