M48
;DRILL file {KiCad (5.0.0-3-g5ebb6b6)} date Monday, June 24, 2019 at 05:05:26 PM
;FORMAT={-:-/ absolute / inch / decimal}
FMAT,2
INCH,TZ
T1C0.0118
T2C0.0157
T3C0.0256
T4C0.0276
T5C0.0394
T6C0.0433
%
G90
G05
M72
T1
X4.8238Y-2.8493
X4.8238Y-2.9194
X4.8238Y-2.9895
X4.8238Y-3.0595
X4.8238Y-3.1296
X4.8238Y-3.1997
X4.875Y-2.8493
X4.875Y-2.9194
X4.875Y-2.9895
X4.875Y-3.0595
X4.875Y-3.1296
X4.875Y-3.1997
X4.9262Y-2.8493
X4.9262Y-2.9194
X4.9262Y-2.9895
X4.9262Y-3.0595
X4.9262Y-3.1296
X4.9262Y-3.1997
T2
X4.535Y-3.205
X4.595Y-4.15
X4.626Y-3.4449
X4.653Y-3.4159
X4.689Y-3.4
X4.69Y-3.04
X4.69Y-3.1593
X4.69Y-3.1997
X4.69Y-3.119
X4.7016Y-2.5039
X4.7124Y-3.0855
X4.7185Y-3.369
X4.7267Y-2.5342
X4.7485Y-3.3345
X4.7543Y-2.5624
X4.777Y-2.5945
X4.78Y-3.28
X4.8527Y-2.1477
X4.8624Y-3.6688
X4.92Y-4.4
X4.9223Y-4.5877
X4.99Y-2.01
X5.0984Y-3.7795
X5.135Y-2.9379
X5.155Y-3.2
X5.16Y-3.3967
X5.1961Y-4.5865
X5.1985Y-2.8575
X5.215Y-2.36
X5.235Y-2.46
X5.2365Y-2.883
X5.2404Y-2.9273
X5.25Y-2.495
X5.255Y-3.225
X5.27Y-2.46
X5.2789Y-2.7843
X5.295Y-2.495
X5.3075Y-3.34
X5.315Y-3.189
X5.33Y-3.4
X5.35Y-2.45
X5.3543Y-4.5276
X5.3593Y-4.4855
X5.4Y-2.35
X5.4Y-2.4
X5.4Y-2.45
X5.4164Y-4.4855
X5.4164Y-4.5276
X5.425Y-2.2115
X5.4285Y-3.0347
X5.4322Y-3.0739
X5.435Y-3.69
X5.4395Y-3.1215
X5.45Y-2.45
X5.45Y-2.5
X5.45Y-2.55
X5.4528Y-5.1772
X5.5Y-2.45
X5.5Y-2.5
X5.5Y-2.55
X5.545Y-2.3231
X5.55Y-2.45
X5.55Y-2.5
X5.55Y-2.55
X5.6Y-2.45
X5.6Y-2.5
X5.6Y-2.5
X5.6Y-2.5
X5.6Y-2.55
X5.6008Y-2.1812
X5.631Y-2.94
X5.649Y-2.348
X5.65Y-2.4
X5.65Y-2.45
X5.7Y-2.35
X5.7Y-2.4
X5.7Y-2.45
X5.715Y-3.86
X5.74Y-2.01
X5.748Y-3.3661
X5.75Y-2.1
X5.75Y-2.2115
X5.75Y-2.375
X5.8Y-2.2
X5.8858Y-3.4055
X5.9Y-2.03
X5.948Y-2.209
X6.05Y-2.325
X6.0745Y-3.0265
X6.075Y-2.7
X6.104Y-3.752
X6.1055Y-4.473
X6.1705Y-3.749
X6.1715Y-4.476
X6.24Y-2.02
X6.275Y-2.215
X6.2865Y-2.534
X6.35Y-2.525
X6.355Y-3.6
X6.3805Y-3.0275
X6.48Y-3.6
X6.4961Y-3.3661
X6.5748Y-2.1565
X6.7913Y-3.0118
X6.84Y-3.23
X6.854Y-3.7385
X6.8555Y-4.48
X6.865Y-3.07
X6.921Y-3.7385
X6.926Y-4.48
X6.955Y-2.09
X7.04Y-3.95
X7.255Y-3.195
X7.275Y-2.15
X7.275Y-4.
X7.405Y-3.76
X7.4591Y-3.125
X7.4751Y-3.759
X7.4872Y-3.9522
X7.6Y-2.625
X7.6265Y-3.572
X7.67Y-4.1095
X7.6715Y-4.41
X7.676Y-3.848
X7.7Y-4.275
X7.7049Y-5.2249
X7.7525Y-2.8985
X7.827Y-3.7505
X7.857Y-3.455
X7.8632Y-4.8115
X7.8917Y-3.0917
X7.8917Y-3.352
X7.8917Y-4.872
X7.9203Y-4.9197
X7.959Y-4.0685
T3
X5.8705Y-2.0866
X5.9205Y-2.0866
X5.9705Y-2.0866
X6.0205Y-2.0866
X6.0705Y-2.0866
X6.1205Y-2.0866
X6.1705Y-2.0866
X6.2205Y-2.0866
T4
X5.515Y-3.7815
X5.515Y-4.0885
X5.5335Y-4.5155
X5.5335Y-4.8225
X5.7465Y-5.175
X6.0535Y-5.175
X7.2565Y-3.675
X7.5635Y-3.675
X6.4965Y-4.425
X6.8035Y-4.425
X6.1715Y-2.925
X6.4785Y-2.925
X5.538Y-2.8605
X5.538Y-3.1675
X5.515Y-3.3415
X5.515Y-3.6485
X7.2465Y-5.175
X7.5535Y-5.175
X4.9965Y-5.175
X5.3035Y-5.175
X5.7465Y-4.425
X6.0535Y-4.425
X6.5015Y-3.675
X6.8085Y-3.675
X7.976Y-2.937
X7.976Y-3.244
X5.7465Y-3.675
X6.0535Y-3.675
X6.4965Y-5.175
X6.8035Y-5.175
X7.2465Y-4.425
X7.5535Y-4.425
X4.9965Y-4.425
X5.3035Y-4.425
X7.029Y-3.0195
X7.029Y-3.3265
X5.7465Y-2.925
X6.0535Y-2.925
T5
X7.775Y-4.946
X7.775Y-5.046
X4.925Y-2.15
X5.025Y-2.15
X5.125Y-2.15
X7.7975Y-3.129
X7.7975Y-3.229
X7.7975Y-3.329
X4.788Y-4.585
X4.788Y-4.685
X4.788Y-4.785
T6
X6.575Y-2.3
X6.575Y-2.9
X6.675Y-2.3
X6.675Y-2.9
X6.775Y-2.3
X6.775Y-2.9
X6.875Y-2.3
X6.875Y-2.9
X6.975Y-2.3
X6.975Y-2.9
X7.075Y-2.3
X7.075Y-2.9
X7.175Y-2.3
X7.175Y-2.9
X7.275Y-2.3
X7.275Y-2.9
X7.375Y-2.3
X7.375Y-2.9
X7.475Y-2.3
X7.475Y-2.9
X7.575Y-2.3
X7.575Y-2.9
X7.675Y-2.3
X7.675Y-2.9
T0
M30
