G04 #@! TF.GenerationSoftware,KiCad,Pcbnew,(5.0.0-3-g5ebb6b6)*
G04 #@! TF.CreationDate,2019-04-29T08:54:36-07:00*
G04 #@! TF.ProjectId,arrowPad,6172726F775061642E6B696361645F70,rev?*
G04 #@! TF.SameCoordinates,Original*
G04 #@! TF.FileFunction,Legend,Bot*
G04 #@! TF.FilePolarity,Positive*
%FSLAX46Y46*%
G04 Gerber Fmt 4.6, Leading zero omitted, Abs format (unit mm)*
G04 Created by KiCad (PCBNEW (5.0.0-3-g5ebb6b6)) date Monday, April 29, 2019 at 08:54:36 AM*
%MOMM*%
%LPD*%
G01*
G04 APERTURE LIST*
%ADD10C,0.200000*%
%ADD11C,0.150000*%
%ADD12C,0.120000*%
%ADD13C,0.127000*%
%ADD14C,0.400000*%
%ADD15C,0.050000*%
G04 APERTURE END LIST*
D10*
G04 #@! TO.C,D2*
X147060000Y-75495000D02*
X152860000Y-75495000D01*
X147060000Y-73095000D02*
X147060000Y-75495000D01*
X152860000Y-73095000D02*
X147060000Y-73095000D01*
X152785000Y-73095000D02*
X152785000Y-75495000D01*
X152660000Y-73095000D02*
X152660000Y-75495000D01*
X152885000Y-75495000D02*
X152885000Y-73095000D01*
X152485000Y-73095000D02*
X152485000Y-75495000D01*
X152310000Y-73095000D02*
X152310000Y-75495000D01*
X152135000Y-73095000D02*
X152135000Y-75495000D01*
G04 #@! TO.C,D3*
X162930000Y-73095000D02*
X162930000Y-75495000D01*
X163105000Y-73095000D02*
X163105000Y-75495000D01*
X163280000Y-73095000D02*
X163280000Y-75495000D01*
X163680000Y-75495000D02*
X163680000Y-73095000D01*
X163455000Y-73095000D02*
X163455000Y-75495000D01*
X163580000Y-73095000D02*
X163580000Y-75495000D01*
X163655000Y-73095000D02*
X157855000Y-73095000D01*
X157855000Y-73095000D02*
X157855000Y-75495000D01*
X157855000Y-75495000D02*
X163655000Y-75495000D01*
G04 #@! TO.C,D4*
X177336600Y-77794200D02*
X177336600Y-83594200D01*
X179736600Y-77794200D02*
X177336600Y-77794200D01*
X179736600Y-83594200D02*
X179736600Y-77794200D01*
X179736600Y-83519200D02*
X177336600Y-83519200D01*
X179736600Y-83394200D02*
X177336600Y-83394200D01*
X177336600Y-83619200D02*
X179736600Y-83619200D01*
X179736600Y-83219200D02*
X177336600Y-83219200D01*
X179736600Y-83044200D02*
X177336600Y-83044200D01*
X179736600Y-82869200D02*
X177336600Y-82869200D01*
G04 #@! TO.C,D5*
X141496900Y-97537700D02*
X139096900Y-97537700D01*
X141496900Y-97712700D02*
X139096900Y-97712700D01*
X141496900Y-97887700D02*
X139096900Y-97887700D01*
X139096900Y-98287700D02*
X141496900Y-98287700D01*
X141496900Y-98062700D02*
X139096900Y-98062700D01*
X141496900Y-98187700D02*
X139096900Y-98187700D01*
X141496900Y-98262700D02*
X141496900Y-92462700D01*
X141496900Y-92462700D02*
X139096900Y-92462700D01*
X139096900Y-92462700D02*
X139096900Y-98262700D01*
G04 #@! TO.C,D6*
X147060000Y-94545000D02*
X152860000Y-94545000D01*
X147060000Y-92145000D02*
X147060000Y-94545000D01*
X152860000Y-92145000D02*
X147060000Y-92145000D01*
X152785000Y-92145000D02*
X152785000Y-94545000D01*
X152660000Y-92145000D02*
X152660000Y-94545000D01*
X152885000Y-94545000D02*
X152885000Y-92145000D01*
X152485000Y-92145000D02*
X152485000Y-94545000D01*
X152310000Y-92145000D02*
X152310000Y-94545000D01*
X152135000Y-92145000D02*
X152135000Y-94545000D01*
G04 #@! TO.C,D7*
X171312000Y-92145000D02*
X171312000Y-94545000D01*
X171487000Y-92145000D02*
X171487000Y-94545000D01*
X171662000Y-92145000D02*
X171662000Y-94545000D01*
X172062000Y-94545000D02*
X172062000Y-92145000D01*
X171837000Y-92145000D02*
X171837000Y-94545000D01*
X171962000Y-92145000D02*
X171962000Y-94545000D01*
X172037000Y-92145000D02*
X166237000Y-92145000D01*
X166237000Y-92145000D02*
X166237000Y-94545000D01*
X166237000Y-94545000D02*
X172037000Y-94545000D01*
G04 #@! TO.C,D9*
X133085000Y-111195000D02*
X133085000Y-113595000D01*
X133260000Y-111195000D02*
X133260000Y-113595000D01*
X133435000Y-111195000D02*
X133435000Y-113595000D01*
X133835000Y-113595000D02*
X133835000Y-111195000D01*
X133610000Y-111195000D02*
X133610000Y-113595000D01*
X133735000Y-111195000D02*
X133735000Y-113595000D01*
X133810000Y-111195000D02*
X128010000Y-111195000D01*
X128010000Y-111195000D02*
X128010000Y-113595000D01*
X128010000Y-113595000D02*
X133810000Y-113595000D01*
D11*
G04 #@! TO.C,K1*
X123810000Y-58770000D02*
X123810000Y-57770000D01*
X123810000Y-57770000D02*
X124810000Y-57770000D01*
X124810000Y-71770000D02*
X123810000Y-71770000D01*
X123810000Y-71770000D02*
X123810000Y-70770000D01*
X137810000Y-70770000D02*
X137810000Y-71770000D01*
X137810000Y-71770000D02*
X136810000Y-71770000D01*
X136810000Y-57770000D02*
X137810000Y-57770000D01*
X137810000Y-57770000D02*
X137810000Y-58770000D01*
G04 #@! TO.C,K2*
X156860000Y-57814000D02*
X156860000Y-58814000D01*
X155860000Y-57814000D02*
X156860000Y-57814000D01*
X156860000Y-71814000D02*
X155860000Y-71814000D01*
X156860000Y-70814000D02*
X156860000Y-71814000D01*
X142860000Y-71814000D02*
X142860000Y-70814000D01*
X143860000Y-71814000D02*
X142860000Y-71814000D01*
X142860000Y-57814000D02*
X143860000Y-57814000D01*
X142860000Y-58814000D02*
X142860000Y-57814000D01*
G04 #@! TO.C,K3*
X161910000Y-58770000D02*
X161910000Y-57770000D01*
X161910000Y-57770000D02*
X162910000Y-57770000D01*
X162910000Y-71770000D02*
X161910000Y-71770000D01*
X161910000Y-71770000D02*
X161910000Y-70770000D01*
X175910000Y-70770000D02*
X175910000Y-71770000D01*
X175910000Y-71770000D02*
X174910000Y-71770000D01*
X174910000Y-57770000D02*
X175910000Y-57770000D01*
X175910000Y-57770000D02*
X175910000Y-58770000D01*
G04 #@! TO.C,K4*
X194960000Y-57770000D02*
X194960000Y-58770000D01*
X193960000Y-57770000D02*
X194960000Y-57770000D01*
X194960000Y-71770000D02*
X193960000Y-71770000D01*
X194960000Y-70770000D02*
X194960000Y-71770000D01*
X180960000Y-71770000D02*
X180960000Y-70770000D01*
X181960000Y-71770000D02*
X180960000Y-71770000D01*
X180960000Y-57770000D02*
X181960000Y-57770000D01*
X180960000Y-58770000D02*
X180960000Y-57770000D01*
G04 #@! TO.C,K5*
X123810000Y-77820000D02*
X123810000Y-76820000D01*
X123810000Y-76820000D02*
X124810000Y-76820000D01*
X124810000Y-90820000D02*
X123810000Y-90820000D01*
X123810000Y-90820000D02*
X123810000Y-89820000D01*
X137810000Y-89820000D02*
X137810000Y-90820000D01*
X137810000Y-90820000D02*
X136810000Y-90820000D01*
X136810000Y-76820000D02*
X137810000Y-76820000D01*
X137810000Y-76820000D02*
X137810000Y-77820000D01*
G04 #@! TO.C,K6*
X156860000Y-76820000D02*
X156860000Y-77820000D01*
X155860000Y-76820000D02*
X156860000Y-76820000D01*
X156860000Y-90820000D02*
X155860000Y-90820000D01*
X156860000Y-89820000D02*
X156860000Y-90820000D01*
X142860000Y-90820000D02*
X142860000Y-89820000D01*
X143860000Y-90820000D02*
X142860000Y-90820000D01*
X142860000Y-76820000D02*
X143860000Y-76820000D01*
X142860000Y-77820000D02*
X142860000Y-76820000D01*
G04 #@! TO.C,K7*
X161910000Y-77820000D02*
X161910000Y-76820000D01*
X161910000Y-76820000D02*
X162910000Y-76820000D01*
X162910000Y-90820000D02*
X161910000Y-90820000D01*
X161910000Y-90820000D02*
X161910000Y-89820000D01*
X175910000Y-89820000D02*
X175910000Y-90820000D01*
X175910000Y-90820000D02*
X174910000Y-90820000D01*
X174910000Y-76820000D02*
X175910000Y-76820000D01*
X175910000Y-76820000D02*
X175910000Y-77820000D01*
G04 #@! TO.C,K8*
X194960000Y-76820000D02*
X194960000Y-77820000D01*
X193960000Y-76820000D02*
X194960000Y-76820000D01*
X194960000Y-90820000D02*
X193960000Y-90820000D01*
X194960000Y-89820000D02*
X194960000Y-90820000D01*
X180960000Y-90820000D02*
X180960000Y-89820000D01*
X181960000Y-90820000D02*
X180960000Y-90820000D01*
X180960000Y-76820000D02*
X181960000Y-76820000D01*
X180960000Y-77820000D02*
X180960000Y-76820000D01*
G04 #@! TO.C,K9*
X123810000Y-96870000D02*
X123810000Y-95870000D01*
X123810000Y-95870000D02*
X124810000Y-95870000D01*
X124810000Y-109870000D02*
X123810000Y-109870000D01*
X123810000Y-109870000D02*
X123810000Y-108870000D01*
X137810000Y-108870000D02*
X137810000Y-109870000D01*
X137810000Y-109870000D02*
X136810000Y-109870000D01*
X136810000Y-95870000D02*
X137810000Y-95870000D01*
X137810000Y-95870000D02*
X137810000Y-96870000D01*
D12*
G04 #@! TO.C,U2*
X158760000Y-54110000D02*
X158760000Y-53000000D01*
X158000000Y-54110000D02*
X158760000Y-54110000D01*
X157240000Y-52436529D02*
X157240000Y-51890000D01*
X157240000Y-54110000D02*
X157240000Y-53563471D01*
X157240000Y-51890000D02*
X148415000Y-51890000D01*
X157240000Y-54110000D02*
X148415000Y-54110000D01*
X148415000Y-52692470D02*
X148415000Y-51890000D01*
X148415000Y-54110000D02*
X148415000Y-53307530D01*
D13*
G04 #@! TO.C,U4*
X143695000Y-55290000D02*
X143695000Y-59010000D01*
X136975000Y-55290000D02*
X136975000Y-59010000D01*
X143695000Y-55290000D02*
X143435000Y-55290000D01*
X137225000Y-55290000D02*
X136975000Y-55290000D01*
X136975000Y-59010000D02*
X138465000Y-59010000D01*
X142095000Y-59010000D02*
X143695000Y-59010000D01*
D10*
G04 #@! TO.C,D10*
X152135000Y-111195000D02*
X152135000Y-113595000D01*
X152310000Y-111195000D02*
X152310000Y-113595000D01*
X152485000Y-111195000D02*
X152485000Y-113595000D01*
X152885000Y-113595000D02*
X152885000Y-111195000D01*
X152660000Y-111195000D02*
X152660000Y-113595000D01*
X152785000Y-111195000D02*
X152785000Y-113595000D01*
X152860000Y-111195000D02*
X147060000Y-111195000D01*
X147060000Y-111195000D02*
X147060000Y-113595000D01*
X147060000Y-113595000D02*
X152860000Y-113595000D01*
G04 #@! TO.C,D11*
X166110000Y-113595000D02*
X171910000Y-113595000D01*
X166110000Y-111195000D02*
X166110000Y-113595000D01*
X171910000Y-111195000D02*
X166110000Y-111195000D01*
X171835000Y-111195000D02*
X171835000Y-113595000D01*
X171710000Y-111195000D02*
X171710000Y-113595000D01*
X171935000Y-113595000D02*
X171935000Y-111195000D01*
X171535000Y-111195000D02*
X171535000Y-113595000D01*
X171360000Y-111195000D02*
X171360000Y-113595000D01*
X171185000Y-111195000D02*
X171185000Y-113595000D01*
G04 #@! TO.C,D12*
X190235000Y-111195000D02*
X190235000Y-113595000D01*
X190410000Y-111195000D02*
X190410000Y-113595000D01*
X190585000Y-111195000D02*
X190585000Y-113595000D01*
X190985000Y-113595000D02*
X190985000Y-111195000D01*
X190760000Y-111195000D02*
X190760000Y-113595000D01*
X190885000Y-111195000D02*
X190885000Y-113595000D01*
X190960000Y-111195000D02*
X185160000Y-111195000D01*
X185160000Y-111195000D02*
X185160000Y-113595000D01*
X185160000Y-113595000D02*
X190960000Y-113595000D01*
G04 #@! TO.C,D13*
X128010000Y-132645000D02*
X133810000Y-132645000D01*
X128010000Y-130245000D02*
X128010000Y-132645000D01*
X133810000Y-130245000D02*
X128010000Y-130245000D01*
X133735000Y-130245000D02*
X133735000Y-132645000D01*
X133610000Y-130245000D02*
X133610000Y-132645000D01*
X133835000Y-132645000D02*
X133835000Y-130245000D01*
X133435000Y-130245000D02*
X133435000Y-132645000D01*
X133260000Y-130245000D02*
X133260000Y-132645000D01*
X133085000Y-130245000D02*
X133085000Y-132645000D01*
G04 #@! TO.C,D14*
X152135000Y-130245000D02*
X152135000Y-132645000D01*
X152310000Y-130245000D02*
X152310000Y-132645000D01*
X152485000Y-130245000D02*
X152485000Y-132645000D01*
X152885000Y-132645000D02*
X152885000Y-130245000D01*
X152660000Y-130245000D02*
X152660000Y-132645000D01*
X152785000Y-130245000D02*
X152785000Y-132645000D01*
X152860000Y-130245000D02*
X147060000Y-130245000D01*
X147060000Y-130245000D02*
X147060000Y-132645000D01*
X147060000Y-132645000D02*
X152860000Y-132645000D01*
G04 #@! TO.C,D15*
X166110000Y-132645000D02*
X171910000Y-132645000D01*
X166110000Y-130245000D02*
X166110000Y-132645000D01*
X171910000Y-130245000D02*
X166110000Y-130245000D01*
X171835000Y-130245000D02*
X171835000Y-132645000D01*
X171710000Y-130245000D02*
X171710000Y-132645000D01*
X171935000Y-132645000D02*
X171935000Y-130245000D01*
X171535000Y-130245000D02*
X171535000Y-132645000D01*
X171360000Y-130245000D02*
X171360000Y-132645000D01*
X171185000Y-130245000D02*
X171185000Y-132645000D01*
G04 #@! TO.C,D16*
X190235000Y-130245000D02*
X190235000Y-132645000D01*
X190410000Y-130245000D02*
X190410000Y-132645000D01*
X190585000Y-130245000D02*
X190585000Y-132645000D01*
X190985000Y-132645000D02*
X190985000Y-130245000D01*
X190760000Y-130245000D02*
X190760000Y-132645000D01*
X190885000Y-130245000D02*
X190885000Y-132645000D01*
X190960000Y-130245000D02*
X185160000Y-130245000D01*
X185160000Y-130245000D02*
X185160000Y-132645000D01*
X185160000Y-132645000D02*
X190960000Y-132645000D01*
D11*
G04 #@! TO.C,K10*
X156860000Y-95870000D02*
X156860000Y-96870000D01*
X155860000Y-95870000D02*
X156860000Y-95870000D01*
X156860000Y-109870000D02*
X155860000Y-109870000D01*
X156860000Y-108870000D02*
X156860000Y-109870000D01*
X142860000Y-109870000D02*
X142860000Y-108870000D01*
X143860000Y-109870000D02*
X142860000Y-109870000D01*
X142860000Y-95870000D02*
X143860000Y-95870000D01*
X142860000Y-96870000D02*
X142860000Y-95870000D01*
G04 #@! TO.C,K11*
X161910000Y-96870000D02*
X161910000Y-95870000D01*
X161910000Y-95870000D02*
X162910000Y-95870000D01*
X162910000Y-109870000D02*
X161910000Y-109870000D01*
X161910000Y-109870000D02*
X161910000Y-108870000D01*
X175910000Y-108870000D02*
X175910000Y-109870000D01*
X175910000Y-109870000D02*
X174910000Y-109870000D01*
X174910000Y-95870000D02*
X175910000Y-95870000D01*
X175910000Y-95870000D02*
X175910000Y-96870000D01*
G04 #@! TO.C,K12*
X180960000Y-96870000D02*
X180960000Y-95870000D01*
X180960000Y-95870000D02*
X181960000Y-95870000D01*
X181960000Y-109870000D02*
X180960000Y-109870000D01*
X180960000Y-109870000D02*
X180960000Y-108870000D01*
X194960000Y-108870000D02*
X194960000Y-109870000D01*
X194960000Y-109870000D02*
X193960000Y-109870000D01*
X193960000Y-95870000D02*
X194960000Y-95870000D01*
X194960000Y-95870000D02*
X194960000Y-96870000D01*
G04 #@! TO.C,K13*
X137810000Y-114920000D02*
X137810000Y-115920000D01*
X136810000Y-114920000D02*
X137810000Y-114920000D01*
X137810000Y-128920000D02*
X136810000Y-128920000D01*
X137810000Y-127920000D02*
X137810000Y-128920000D01*
X123810000Y-128920000D02*
X123810000Y-127920000D01*
X124810000Y-128920000D02*
X123810000Y-128920000D01*
X123810000Y-114920000D02*
X124810000Y-114920000D01*
X123810000Y-115920000D02*
X123810000Y-114920000D01*
G04 #@! TO.C,K14*
X142860000Y-115920000D02*
X142860000Y-114920000D01*
X142860000Y-114920000D02*
X143860000Y-114920000D01*
X143860000Y-128920000D02*
X142860000Y-128920000D01*
X142860000Y-128920000D02*
X142860000Y-127920000D01*
X156860000Y-127920000D02*
X156860000Y-128920000D01*
X156860000Y-128920000D02*
X155860000Y-128920000D01*
X155860000Y-114920000D02*
X156860000Y-114920000D01*
X156860000Y-114920000D02*
X156860000Y-115920000D01*
G04 #@! TO.C,K15*
X175910000Y-114920000D02*
X175910000Y-115920000D01*
X174910000Y-114920000D02*
X175910000Y-114920000D01*
X175910000Y-128920000D02*
X174910000Y-128920000D01*
X175910000Y-127920000D02*
X175910000Y-128920000D01*
X161910000Y-128920000D02*
X161910000Y-127920000D01*
X162910000Y-128920000D02*
X161910000Y-128920000D01*
X161910000Y-114920000D02*
X162910000Y-114920000D01*
X161910000Y-115920000D02*
X161910000Y-114920000D01*
G04 #@! TO.C,K16*
X180960000Y-115920000D02*
X180960000Y-114920000D01*
X180960000Y-114920000D02*
X181960000Y-114920000D01*
X181960000Y-128920000D02*
X180960000Y-128920000D01*
X180960000Y-128920000D02*
X180960000Y-127920000D01*
X194960000Y-127920000D02*
X194960000Y-128920000D01*
X194960000Y-128920000D02*
X193960000Y-128920000D01*
X193960000Y-114920000D02*
X194960000Y-114920000D01*
X194960000Y-114920000D02*
X194960000Y-115920000D01*
D10*
G04 #@! TO.C,R1*
X196462800Y-89584100D02*
X198862800Y-89584100D01*
X196462800Y-89409100D02*
X198862800Y-89409100D01*
X196462800Y-89234100D02*
X198862800Y-89234100D01*
X198862800Y-88834100D02*
X196462800Y-88834100D01*
X196462800Y-89059100D02*
X198862800Y-89059100D01*
X196462800Y-88934100D02*
X198862800Y-88934100D01*
X196462800Y-88859100D02*
X196462800Y-94659100D01*
X196462800Y-94659100D02*
X198862800Y-94659100D01*
X198862800Y-94659100D02*
X198862800Y-88859100D01*
G04 #@! TO.C,R2*
X139350900Y-115792600D02*
X139350900Y-121592600D01*
X141750900Y-115792600D02*
X139350900Y-115792600D01*
X141750900Y-121592600D02*
X141750900Y-115792600D01*
X141750900Y-121517600D02*
X139350900Y-121517600D01*
X141750900Y-121392600D02*
X139350900Y-121392600D01*
X139350900Y-121617600D02*
X141750900Y-121617600D01*
X141750900Y-121217600D02*
X139350900Y-121217600D01*
X141750900Y-121042600D02*
X139350900Y-121042600D01*
X141750900Y-120867600D02*
X139350900Y-120867600D01*
D11*
G04 #@! TO.C,U1*
X165735000Y-74930000D02*
X165735000Y-57150000D01*
X165735000Y-57150000D02*
X196215000Y-57150000D01*
X196215000Y-57150000D02*
X196215000Y-62230000D01*
X196215000Y-62230000D02*
X198755000Y-62230000D01*
X198755000Y-62230000D02*
X198755000Y-69850000D01*
X198755000Y-69850000D02*
X196215000Y-69850000D01*
X196215000Y-69850000D02*
X196215000Y-74930000D01*
X196215000Y-74930000D02*
X165735000Y-74930000D01*
G04 #@! TO.C,U7*
X123379600Y-81797300D02*
X123379600Y-81572300D01*
X128029600Y-81797300D02*
X128029600Y-81472300D01*
X128029600Y-71796500D02*
X128029600Y-72121500D01*
X123379600Y-71796500D02*
X123379600Y-72121500D01*
X123379600Y-81797300D02*
X128029600Y-81797300D01*
X123379600Y-71796500D02*
X128029600Y-71796500D01*
X123379600Y-81572300D02*
X122304600Y-81572300D01*
D13*
G04 #@! TO.C,J1*
X179301700Y-93782400D02*
X179301700Y-99782400D01*
D14*
X196251700Y-100532400D02*
G75*
G03X196251700Y-100532400I-200000J0D01*
G01*
D13*
X179301700Y-93782400D02*
X188101700Y-93782400D01*
X180251700Y-99782400D02*
X179301700Y-99782400D01*
X190101700Y-99782400D02*
X183901700Y-99782400D01*
X196301700Y-99282400D02*
X195501700Y-99282400D01*
X196301700Y-94282400D02*
X196301700Y-99282400D01*
X194801700Y-94282400D02*
X196301700Y-94282400D01*
X194801700Y-94282400D02*
X194801700Y-98732400D01*
X194801700Y-93782400D02*
X194801700Y-94282400D01*
X191101700Y-93782400D02*
X194801700Y-93782400D01*
G04 #@! TO.C,J2*
X126604100Y-99888300D02*
X122904100Y-99888300D01*
X122904100Y-99888300D02*
X122904100Y-99388300D01*
X122904100Y-99388300D02*
X122904100Y-94938300D01*
X122904100Y-99388300D02*
X121404100Y-99388300D01*
X121404100Y-99388300D02*
X121404100Y-94388300D01*
X121404100Y-94388300D02*
X122204100Y-94388300D01*
X127604100Y-93888300D02*
X133804100Y-93888300D01*
X137454100Y-93888300D02*
X138404100Y-93888300D01*
X138404100Y-99888300D02*
X129604100Y-99888300D01*
D14*
X121854100Y-93138300D02*
G75*
G03X121854100Y-93138300I-200000J0D01*
G01*
D13*
X138404100Y-99888300D02*
X138404100Y-93888300D01*
G04 #@! TO.C,D2*
D11*
X150450476Y-76581904D02*
X150450476Y-75781904D01*
X150260000Y-75781904D01*
X150145714Y-75820000D01*
X150069523Y-75896190D01*
X150031428Y-75972380D01*
X149993333Y-76124761D01*
X149993333Y-76239047D01*
X150031428Y-76391428D01*
X150069523Y-76467619D01*
X150145714Y-76543809D01*
X150260000Y-76581904D01*
X150450476Y-76581904D01*
X149688571Y-75858095D02*
X149650476Y-75820000D01*
X149574285Y-75781904D01*
X149383809Y-75781904D01*
X149307619Y-75820000D01*
X149269523Y-75858095D01*
X149231428Y-75934285D01*
X149231428Y-76010476D01*
X149269523Y-76124761D01*
X149726666Y-76581904D01*
X149231428Y-76581904D01*
G04 #@! TO.C,D3*
X161245476Y-76581904D02*
X161245476Y-75781904D01*
X161055000Y-75781904D01*
X160940714Y-75820000D01*
X160864523Y-75896190D01*
X160826428Y-75972380D01*
X160788333Y-76124761D01*
X160788333Y-76239047D01*
X160826428Y-76391428D01*
X160864523Y-76467619D01*
X160940714Y-76543809D01*
X161055000Y-76581904D01*
X161245476Y-76581904D01*
X160521666Y-75781904D02*
X160026428Y-75781904D01*
X160293095Y-76086666D01*
X160178809Y-76086666D01*
X160102619Y-76124761D01*
X160064523Y-76162857D01*
X160026428Y-76239047D01*
X160026428Y-76429523D01*
X160064523Y-76505714D01*
X160102619Y-76543809D01*
X160178809Y-76581904D01*
X160407380Y-76581904D01*
X160483571Y-76543809D01*
X160521666Y-76505714D01*
G04 #@! TO.C,D4*
X176973504Y-80003723D02*
X176173504Y-80003723D01*
X176173504Y-80194200D01*
X176211600Y-80308485D01*
X176287790Y-80384676D01*
X176363980Y-80422771D01*
X176516361Y-80460866D01*
X176630647Y-80460866D01*
X176783028Y-80422771D01*
X176859219Y-80384676D01*
X176935409Y-80308485D01*
X176973504Y-80194200D01*
X176973504Y-80003723D01*
X176440171Y-81146580D02*
X176973504Y-81146580D01*
X176135409Y-80956104D02*
X176706838Y-80765628D01*
X176706838Y-81260866D01*
G04 #@! TO.C,D5*
X138733804Y-94672223D02*
X137933804Y-94672223D01*
X137933804Y-94862700D01*
X137971900Y-94976985D01*
X138048090Y-95053176D01*
X138124280Y-95091271D01*
X138276661Y-95129366D01*
X138390947Y-95129366D01*
X138543328Y-95091271D01*
X138619519Y-95053176D01*
X138695709Y-94976985D01*
X138733804Y-94862700D01*
X138733804Y-94672223D01*
X137933804Y-95853176D02*
X137933804Y-95472223D01*
X138314757Y-95434128D01*
X138276661Y-95472223D01*
X138238566Y-95548414D01*
X138238566Y-95738890D01*
X138276661Y-95815080D01*
X138314757Y-95853176D01*
X138390947Y-95891271D01*
X138581423Y-95891271D01*
X138657614Y-95853176D01*
X138695709Y-95815080D01*
X138733804Y-95738890D01*
X138733804Y-95548414D01*
X138695709Y-95472223D01*
X138657614Y-95434128D01*
G04 #@! TO.C,D6*
X150450476Y-95631904D02*
X150450476Y-94831904D01*
X150260000Y-94831904D01*
X150145714Y-94870000D01*
X150069523Y-94946190D01*
X150031428Y-95022380D01*
X149993333Y-95174761D01*
X149993333Y-95289047D01*
X150031428Y-95441428D01*
X150069523Y-95517619D01*
X150145714Y-95593809D01*
X150260000Y-95631904D01*
X150450476Y-95631904D01*
X149307619Y-94831904D02*
X149460000Y-94831904D01*
X149536190Y-94870000D01*
X149574285Y-94908095D01*
X149650476Y-95022380D01*
X149688571Y-95174761D01*
X149688571Y-95479523D01*
X149650476Y-95555714D01*
X149612380Y-95593809D01*
X149536190Y-95631904D01*
X149383809Y-95631904D01*
X149307619Y-95593809D01*
X149269523Y-95555714D01*
X149231428Y-95479523D01*
X149231428Y-95289047D01*
X149269523Y-95212857D01*
X149307619Y-95174761D01*
X149383809Y-95136666D01*
X149536190Y-95136666D01*
X149612380Y-95174761D01*
X149650476Y-95212857D01*
X149688571Y-95289047D01*
G04 #@! TO.C,D7*
X169627476Y-95631904D02*
X169627476Y-94831904D01*
X169437000Y-94831904D01*
X169322714Y-94870000D01*
X169246523Y-94946190D01*
X169208428Y-95022380D01*
X169170333Y-95174761D01*
X169170333Y-95289047D01*
X169208428Y-95441428D01*
X169246523Y-95517619D01*
X169322714Y-95593809D01*
X169437000Y-95631904D01*
X169627476Y-95631904D01*
X168903666Y-94831904D02*
X168370333Y-94831904D01*
X168713190Y-95631904D01*
G04 #@! TO.C,D9*
X131400476Y-114681904D02*
X131400476Y-113881904D01*
X131210000Y-113881904D01*
X131095714Y-113920000D01*
X131019523Y-113996190D01*
X130981428Y-114072380D01*
X130943333Y-114224761D01*
X130943333Y-114339047D01*
X130981428Y-114491428D01*
X131019523Y-114567619D01*
X131095714Y-114643809D01*
X131210000Y-114681904D01*
X131400476Y-114681904D01*
X130562380Y-114681904D02*
X130410000Y-114681904D01*
X130333809Y-114643809D01*
X130295714Y-114605714D01*
X130219523Y-114491428D01*
X130181428Y-114339047D01*
X130181428Y-114034285D01*
X130219523Y-113958095D01*
X130257619Y-113920000D01*
X130333809Y-113881904D01*
X130486190Y-113881904D01*
X130562380Y-113920000D01*
X130600476Y-113958095D01*
X130638571Y-114034285D01*
X130638571Y-114224761D01*
X130600476Y-114300952D01*
X130562380Y-114339047D01*
X130486190Y-114377142D01*
X130333809Y-114377142D01*
X130257619Y-114339047D01*
X130219523Y-114300952D01*
X130181428Y-114224761D01*
G04 #@! TO.C,K1*
X131548095Y-73522380D02*
X131548095Y-72522380D01*
X130976666Y-73522380D02*
X131405238Y-72950952D01*
X130976666Y-72522380D02*
X131548095Y-73093809D01*
X130024285Y-73522380D02*
X130595714Y-73522380D01*
X130310000Y-73522380D02*
X130310000Y-72522380D01*
X130405238Y-72665238D01*
X130500476Y-72760476D01*
X130595714Y-72808095D01*
G04 #@! TO.C,K2*
X150598095Y-73566380D02*
X150598095Y-72566380D01*
X150026666Y-73566380D02*
X150455238Y-72994952D01*
X150026666Y-72566380D02*
X150598095Y-73137809D01*
X149645714Y-72661619D02*
X149598095Y-72614000D01*
X149502857Y-72566380D01*
X149264761Y-72566380D01*
X149169523Y-72614000D01*
X149121904Y-72661619D01*
X149074285Y-72756857D01*
X149074285Y-72852095D01*
X149121904Y-72994952D01*
X149693333Y-73566380D01*
X149074285Y-73566380D01*
G04 #@! TO.C,K3*
X169648095Y-73522380D02*
X169648095Y-72522380D01*
X169076666Y-73522380D02*
X169505238Y-72950952D01*
X169076666Y-72522380D02*
X169648095Y-73093809D01*
X168743333Y-72522380D02*
X168124285Y-72522380D01*
X168457619Y-72903333D01*
X168314761Y-72903333D01*
X168219523Y-72950952D01*
X168171904Y-72998571D01*
X168124285Y-73093809D01*
X168124285Y-73331904D01*
X168171904Y-73427142D01*
X168219523Y-73474761D01*
X168314761Y-73522380D01*
X168600476Y-73522380D01*
X168695714Y-73474761D01*
X168743333Y-73427142D01*
G04 #@! TO.C,K4*
X188698095Y-73522380D02*
X188698095Y-72522380D01*
X188126666Y-73522380D02*
X188555238Y-72950952D01*
X188126666Y-72522380D02*
X188698095Y-73093809D01*
X187269523Y-72855714D02*
X187269523Y-73522380D01*
X187507619Y-72474761D02*
X187745714Y-73189047D01*
X187126666Y-73189047D01*
G04 #@! TO.C,K5*
X131548095Y-92572380D02*
X131548095Y-91572380D01*
X130976666Y-92572380D02*
X131405238Y-92000952D01*
X130976666Y-91572380D02*
X131548095Y-92143809D01*
X130071904Y-91572380D02*
X130548095Y-91572380D01*
X130595714Y-92048571D01*
X130548095Y-92000952D01*
X130452857Y-91953333D01*
X130214761Y-91953333D01*
X130119523Y-92000952D01*
X130071904Y-92048571D01*
X130024285Y-92143809D01*
X130024285Y-92381904D01*
X130071904Y-92477142D01*
X130119523Y-92524761D01*
X130214761Y-92572380D01*
X130452857Y-92572380D01*
X130548095Y-92524761D01*
X130595714Y-92477142D01*
G04 #@! TO.C,K6*
X150598095Y-92572380D02*
X150598095Y-91572380D01*
X150026666Y-92572380D02*
X150455238Y-92000952D01*
X150026666Y-91572380D02*
X150598095Y-92143809D01*
X149169523Y-91572380D02*
X149360000Y-91572380D01*
X149455238Y-91620000D01*
X149502857Y-91667619D01*
X149598095Y-91810476D01*
X149645714Y-92000952D01*
X149645714Y-92381904D01*
X149598095Y-92477142D01*
X149550476Y-92524761D01*
X149455238Y-92572380D01*
X149264761Y-92572380D01*
X149169523Y-92524761D01*
X149121904Y-92477142D01*
X149074285Y-92381904D01*
X149074285Y-92143809D01*
X149121904Y-92048571D01*
X149169523Y-92000952D01*
X149264761Y-91953333D01*
X149455238Y-91953333D01*
X149550476Y-92000952D01*
X149598095Y-92048571D01*
X149645714Y-92143809D01*
G04 #@! TO.C,K7*
X169648095Y-92572380D02*
X169648095Y-91572380D01*
X169076666Y-92572380D02*
X169505238Y-92000952D01*
X169076666Y-91572380D02*
X169648095Y-92143809D01*
X168743333Y-91572380D02*
X168076666Y-91572380D01*
X168505238Y-92572380D01*
G04 #@! TO.C,K8*
X188698095Y-92572380D02*
X188698095Y-91572380D01*
X188126666Y-92572380D02*
X188555238Y-92000952D01*
X188126666Y-91572380D02*
X188698095Y-92143809D01*
X187555238Y-92000952D02*
X187650476Y-91953333D01*
X187698095Y-91905714D01*
X187745714Y-91810476D01*
X187745714Y-91762857D01*
X187698095Y-91667619D01*
X187650476Y-91620000D01*
X187555238Y-91572380D01*
X187364761Y-91572380D01*
X187269523Y-91620000D01*
X187221904Y-91667619D01*
X187174285Y-91762857D01*
X187174285Y-91810476D01*
X187221904Y-91905714D01*
X187269523Y-91953333D01*
X187364761Y-92000952D01*
X187555238Y-92000952D01*
X187650476Y-92048571D01*
X187698095Y-92096190D01*
X187745714Y-92191428D01*
X187745714Y-92381904D01*
X187698095Y-92477142D01*
X187650476Y-92524761D01*
X187555238Y-92572380D01*
X187364761Y-92572380D01*
X187269523Y-92524761D01*
X187221904Y-92477142D01*
X187174285Y-92381904D01*
X187174285Y-92191428D01*
X187221904Y-92096190D01*
X187269523Y-92048571D01*
X187364761Y-92000952D01*
G04 #@! TO.C,K9*
X131548095Y-111622380D02*
X131548095Y-110622380D01*
X130976666Y-111622380D02*
X131405238Y-111050952D01*
X130976666Y-110622380D02*
X131548095Y-111193809D01*
X130500476Y-111622380D02*
X130310000Y-111622380D01*
X130214761Y-111574761D01*
X130167142Y-111527142D01*
X130071904Y-111384285D01*
X130024285Y-111193809D01*
X130024285Y-110812857D01*
X130071904Y-110717619D01*
X130119523Y-110670000D01*
X130214761Y-110622380D01*
X130405238Y-110622380D01*
X130500476Y-110670000D01*
X130548095Y-110717619D01*
X130595714Y-110812857D01*
X130595714Y-111050952D01*
X130548095Y-111146190D01*
X130500476Y-111193809D01*
X130405238Y-111241428D01*
X130214761Y-111241428D01*
X130119523Y-111193809D01*
X130071904Y-111146190D01*
X130024285Y-111050952D01*
G04 #@! TO.C,U2*
X159147380Y-52238095D02*
X159956904Y-52238095D01*
X160052142Y-52285714D01*
X160099761Y-52333333D01*
X160147380Y-52428571D01*
X160147380Y-52619047D01*
X160099761Y-52714285D01*
X160052142Y-52761904D01*
X159956904Y-52809523D01*
X159147380Y-52809523D01*
X159242619Y-53238095D02*
X159195000Y-53285714D01*
X159147380Y-53380952D01*
X159147380Y-53619047D01*
X159195000Y-53714285D01*
X159242619Y-53761904D01*
X159337857Y-53809523D01*
X159433095Y-53809523D01*
X159575952Y-53761904D01*
X160147380Y-53190476D01*
X160147380Y-53809523D01*
G04 #@! TO.C,U4*
D15*
X142250303Y-61745531D02*
X142250303Y-62556488D01*
X142202600Y-62651895D01*
X142154896Y-62699598D01*
X142059490Y-62747301D01*
X141868676Y-62747301D01*
X141773270Y-62699598D01*
X141725566Y-62651895D01*
X141677863Y-62556488D01*
X141677863Y-61745531D01*
X140771500Y-62079455D02*
X140771500Y-62747301D01*
X141010016Y-61697828D02*
X141248533Y-62413378D01*
X140628390Y-62413378D01*
X145859810Y-51782143D02*
X145382771Y-51782143D01*
X145955217Y-52068366D02*
X145621290Y-51066586D01*
X145287364Y-52068366D01*
X144953437Y-52068366D02*
X144953437Y-51066586D01*
X144619510Y-51782143D01*
X144285584Y-51066586D01*
X144285584Y-52068366D01*
X143856250Y-52020662D02*
X143713138Y-52068366D01*
X143474619Y-52068366D01*
X143379211Y-52020662D01*
X143331508Y-51972958D01*
X143283804Y-51877550D01*
X143283804Y-51782143D01*
X143331508Y-51686735D01*
X143379211Y-51639031D01*
X143474619Y-51591328D01*
X143665434Y-51543624D01*
X143760842Y-51495920D01*
X143808546Y-51448216D01*
X143856250Y-51352809D01*
X143856250Y-51257401D01*
X143808546Y-51161993D01*
X143760842Y-51114290D01*
X143665434Y-51066586D01*
X143426915Y-51066586D01*
X143283804Y-51114290D01*
X142329728Y-52068366D02*
X142902173Y-52068366D01*
X142615950Y-52068366D02*
X142615950Y-51066586D01*
X142711358Y-51209697D01*
X142806766Y-51305105D01*
X142902173Y-51352809D01*
X141375651Y-52068366D02*
X141948097Y-52068366D01*
X141661874Y-52068366D02*
X141661874Y-51066586D01*
X141757282Y-51209697D01*
X141852690Y-51305105D01*
X141948097Y-51352809D01*
X140421575Y-52068366D02*
X140994021Y-52068366D01*
X140707798Y-52068366D02*
X140707798Y-51066586D01*
X140803206Y-51209697D01*
X140898613Y-51305105D01*
X140994021Y-51352809D01*
X140087649Y-51066586D02*
X139419795Y-51066586D01*
X139849130Y-52068366D01*
X139038165Y-51686735D02*
X138274904Y-51686735D01*
X137893273Y-51066586D02*
X137273124Y-51066586D01*
X137607050Y-51448216D01*
X137463939Y-51448216D01*
X137368531Y-51495920D01*
X137320828Y-51543624D01*
X137273124Y-51639031D01*
X137273124Y-51877550D01*
X137320828Y-51972958D01*
X137368531Y-52020662D01*
X137463939Y-52068366D01*
X137750162Y-52068366D01*
X137845570Y-52020662D01*
X137893273Y-51972958D01*
X136843790Y-51972958D02*
X136796086Y-52020662D01*
X136843790Y-52068366D01*
X136891493Y-52020662D01*
X136843790Y-51972958D01*
X136843790Y-52068366D01*
X136462159Y-51066586D02*
X135842010Y-51066586D01*
X136175936Y-51448216D01*
X136032825Y-51448216D01*
X135937417Y-51495920D01*
X135889713Y-51543624D01*
X135842010Y-51639031D01*
X135842010Y-51877550D01*
X135889713Y-51972958D01*
X135937417Y-52020662D01*
X136032825Y-52068366D01*
X136319048Y-52068366D01*
X136414455Y-52020662D01*
X136462159Y-51972958D01*
G04 #@! TO.C,D10*
D11*
X150831428Y-114681904D02*
X150831428Y-113881904D01*
X150640952Y-113881904D01*
X150526666Y-113920000D01*
X150450476Y-113996190D01*
X150412380Y-114072380D01*
X150374285Y-114224761D01*
X150374285Y-114339047D01*
X150412380Y-114491428D01*
X150450476Y-114567619D01*
X150526666Y-114643809D01*
X150640952Y-114681904D01*
X150831428Y-114681904D01*
X149612380Y-114681904D02*
X150069523Y-114681904D01*
X149840952Y-114681904D02*
X149840952Y-113881904D01*
X149917142Y-113996190D01*
X149993333Y-114072380D01*
X150069523Y-114110476D01*
X149117142Y-113881904D02*
X149040952Y-113881904D01*
X148964761Y-113920000D01*
X148926666Y-113958095D01*
X148888571Y-114034285D01*
X148850476Y-114186666D01*
X148850476Y-114377142D01*
X148888571Y-114529523D01*
X148926666Y-114605714D01*
X148964761Y-114643809D01*
X149040952Y-114681904D01*
X149117142Y-114681904D01*
X149193333Y-114643809D01*
X149231428Y-114605714D01*
X149269523Y-114529523D01*
X149307619Y-114377142D01*
X149307619Y-114186666D01*
X149269523Y-114034285D01*
X149231428Y-113958095D01*
X149193333Y-113920000D01*
X149117142Y-113881904D01*
G04 #@! TO.C,D11*
X169881428Y-114681904D02*
X169881428Y-113881904D01*
X169690952Y-113881904D01*
X169576666Y-113920000D01*
X169500476Y-113996190D01*
X169462380Y-114072380D01*
X169424285Y-114224761D01*
X169424285Y-114339047D01*
X169462380Y-114491428D01*
X169500476Y-114567619D01*
X169576666Y-114643809D01*
X169690952Y-114681904D01*
X169881428Y-114681904D01*
X168662380Y-114681904D02*
X169119523Y-114681904D01*
X168890952Y-114681904D02*
X168890952Y-113881904D01*
X168967142Y-113996190D01*
X169043333Y-114072380D01*
X169119523Y-114110476D01*
X167900476Y-114681904D02*
X168357619Y-114681904D01*
X168129047Y-114681904D02*
X168129047Y-113881904D01*
X168205238Y-113996190D01*
X168281428Y-114072380D01*
X168357619Y-114110476D01*
G04 #@! TO.C,D12*
X188931428Y-114681904D02*
X188931428Y-113881904D01*
X188740952Y-113881904D01*
X188626666Y-113920000D01*
X188550476Y-113996190D01*
X188512380Y-114072380D01*
X188474285Y-114224761D01*
X188474285Y-114339047D01*
X188512380Y-114491428D01*
X188550476Y-114567619D01*
X188626666Y-114643809D01*
X188740952Y-114681904D01*
X188931428Y-114681904D01*
X187712380Y-114681904D02*
X188169523Y-114681904D01*
X187940952Y-114681904D02*
X187940952Y-113881904D01*
X188017142Y-113996190D01*
X188093333Y-114072380D01*
X188169523Y-114110476D01*
X187407619Y-113958095D02*
X187369523Y-113920000D01*
X187293333Y-113881904D01*
X187102857Y-113881904D01*
X187026666Y-113920000D01*
X186988571Y-113958095D01*
X186950476Y-114034285D01*
X186950476Y-114110476D01*
X186988571Y-114224761D01*
X187445714Y-114681904D01*
X186950476Y-114681904D01*
G04 #@! TO.C,D13*
X131781428Y-133731904D02*
X131781428Y-132931904D01*
X131590952Y-132931904D01*
X131476666Y-132970000D01*
X131400476Y-133046190D01*
X131362380Y-133122380D01*
X131324285Y-133274761D01*
X131324285Y-133389047D01*
X131362380Y-133541428D01*
X131400476Y-133617619D01*
X131476666Y-133693809D01*
X131590952Y-133731904D01*
X131781428Y-133731904D01*
X130562380Y-133731904D02*
X131019523Y-133731904D01*
X130790952Y-133731904D02*
X130790952Y-132931904D01*
X130867142Y-133046190D01*
X130943333Y-133122380D01*
X131019523Y-133160476D01*
X130295714Y-132931904D02*
X129800476Y-132931904D01*
X130067142Y-133236666D01*
X129952857Y-133236666D01*
X129876666Y-133274761D01*
X129838571Y-133312857D01*
X129800476Y-133389047D01*
X129800476Y-133579523D01*
X129838571Y-133655714D01*
X129876666Y-133693809D01*
X129952857Y-133731904D01*
X130181428Y-133731904D01*
X130257619Y-133693809D01*
X130295714Y-133655714D01*
G04 #@! TO.C,D14*
X150831428Y-133731904D02*
X150831428Y-132931904D01*
X150640952Y-132931904D01*
X150526666Y-132970000D01*
X150450476Y-133046190D01*
X150412380Y-133122380D01*
X150374285Y-133274761D01*
X150374285Y-133389047D01*
X150412380Y-133541428D01*
X150450476Y-133617619D01*
X150526666Y-133693809D01*
X150640952Y-133731904D01*
X150831428Y-133731904D01*
X149612380Y-133731904D02*
X150069523Y-133731904D01*
X149840952Y-133731904D02*
X149840952Y-132931904D01*
X149917142Y-133046190D01*
X149993333Y-133122380D01*
X150069523Y-133160476D01*
X148926666Y-133198571D02*
X148926666Y-133731904D01*
X149117142Y-132893809D02*
X149307619Y-133465238D01*
X148812380Y-133465238D01*
G04 #@! TO.C,D15*
X169881428Y-133731904D02*
X169881428Y-132931904D01*
X169690952Y-132931904D01*
X169576666Y-132970000D01*
X169500476Y-133046190D01*
X169462380Y-133122380D01*
X169424285Y-133274761D01*
X169424285Y-133389047D01*
X169462380Y-133541428D01*
X169500476Y-133617619D01*
X169576666Y-133693809D01*
X169690952Y-133731904D01*
X169881428Y-133731904D01*
X168662380Y-133731904D02*
X169119523Y-133731904D01*
X168890952Y-133731904D02*
X168890952Y-132931904D01*
X168967142Y-133046190D01*
X169043333Y-133122380D01*
X169119523Y-133160476D01*
X167938571Y-132931904D02*
X168319523Y-132931904D01*
X168357619Y-133312857D01*
X168319523Y-133274761D01*
X168243333Y-133236666D01*
X168052857Y-133236666D01*
X167976666Y-133274761D01*
X167938571Y-133312857D01*
X167900476Y-133389047D01*
X167900476Y-133579523D01*
X167938571Y-133655714D01*
X167976666Y-133693809D01*
X168052857Y-133731904D01*
X168243333Y-133731904D01*
X168319523Y-133693809D01*
X168357619Y-133655714D01*
G04 #@! TO.C,D16*
X188931428Y-133731904D02*
X188931428Y-132931904D01*
X188740952Y-132931904D01*
X188626666Y-132970000D01*
X188550476Y-133046190D01*
X188512380Y-133122380D01*
X188474285Y-133274761D01*
X188474285Y-133389047D01*
X188512380Y-133541428D01*
X188550476Y-133617619D01*
X188626666Y-133693809D01*
X188740952Y-133731904D01*
X188931428Y-133731904D01*
X187712380Y-133731904D02*
X188169523Y-133731904D01*
X187940952Y-133731904D02*
X187940952Y-132931904D01*
X188017142Y-133046190D01*
X188093333Y-133122380D01*
X188169523Y-133160476D01*
X187026666Y-132931904D02*
X187179047Y-132931904D01*
X187255238Y-132970000D01*
X187293333Y-133008095D01*
X187369523Y-133122380D01*
X187407619Y-133274761D01*
X187407619Y-133579523D01*
X187369523Y-133655714D01*
X187331428Y-133693809D01*
X187255238Y-133731904D01*
X187102857Y-133731904D01*
X187026666Y-133693809D01*
X186988571Y-133655714D01*
X186950476Y-133579523D01*
X186950476Y-133389047D01*
X186988571Y-133312857D01*
X187026666Y-133274761D01*
X187102857Y-133236666D01*
X187255238Y-133236666D01*
X187331428Y-133274761D01*
X187369523Y-133312857D01*
X187407619Y-133389047D01*
G04 #@! TO.C,K10*
X151074285Y-111622380D02*
X151074285Y-110622380D01*
X150502857Y-111622380D02*
X150931428Y-111050952D01*
X150502857Y-110622380D02*
X151074285Y-111193809D01*
X149550476Y-111622380D02*
X150121904Y-111622380D01*
X149836190Y-111622380D02*
X149836190Y-110622380D01*
X149931428Y-110765238D01*
X150026666Y-110860476D01*
X150121904Y-110908095D01*
X148931428Y-110622380D02*
X148836190Y-110622380D01*
X148740952Y-110670000D01*
X148693333Y-110717619D01*
X148645714Y-110812857D01*
X148598095Y-111003333D01*
X148598095Y-111241428D01*
X148645714Y-111431904D01*
X148693333Y-111527142D01*
X148740952Y-111574761D01*
X148836190Y-111622380D01*
X148931428Y-111622380D01*
X149026666Y-111574761D01*
X149074285Y-111527142D01*
X149121904Y-111431904D01*
X149169523Y-111241428D01*
X149169523Y-111003333D01*
X149121904Y-110812857D01*
X149074285Y-110717619D01*
X149026666Y-110670000D01*
X148931428Y-110622380D01*
G04 #@! TO.C,K11*
X170124285Y-111622380D02*
X170124285Y-110622380D01*
X169552857Y-111622380D02*
X169981428Y-111050952D01*
X169552857Y-110622380D02*
X170124285Y-111193809D01*
X168600476Y-111622380D02*
X169171904Y-111622380D01*
X168886190Y-111622380D02*
X168886190Y-110622380D01*
X168981428Y-110765238D01*
X169076666Y-110860476D01*
X169171904Y-110908095D01*
X167648095Y-111622380D02*
X168219523Y-111622380D01*
X167933809Y-111622380D02*
X167933809Y-110622380D01*
X168029047Y-110765238D01*
X168124285Y-110860476D01*
X168219523Y-110908095D01*
G04 #@! TO.C,K12*
X189174285Y-111622380D02*
X189174285Y-110622380D01*
X188602857Y-111622380D02*
X189031428Y-111050952D01*
X188602857Y-110622380D02*
X189174285Y-111193809D01*
X187650476Y-111622380D02*
X188221904Y-111622380D01*
X187936190Y-111622380D02*
X187936190Y-110622380D01*
X188031428Y-110765238D01*
X188126666Y-110860476D01*
X188221904Y-110908095D01*
X187269523Y-110717619D02*
X187221904Y-110670000D01*
X187126666Y-110622380D01*
X186888571Y-110622380D01*
X186793333Y-110670000D01*
X186745714Y-110717619D01*
X186698095Y-110812857D01*
X186698095Y-110908095D01*
X186745714Y-111050952D01*
X187317142Y-111622380D01*
X186698095Y-111622380D01*
G04 #@! TO.C,K13*
X132024285Y-130672380D02*
X132024285Y-129672380D01*
X131452857Y-130672380D02*
X131881428Y-130100952D01*
X131452857Y-129672380D02*
X132024285Y-130243809D01*
X130500476Y-130672380D02*
X131071904Y-130672380D01*
X130786190Y-130672380D02*
X130786190Y-129672380D01*
X130881428Y-129815238D01*
X130976666Y-129910476D01*
X131071904Y-129958095D01*
X130167142Y-129672380D02*
X129548095Y-129672380D01*
X129881428Y-130053333D01*
X129738571Y-130053333D01*
X129643333Y-130100952D01*
X129595714Y-130148571D01*
X129548095Y-130243809D01*
X129548095Y-130481904D01*
X129595714Y-130577142D01*
X129643333Y-130624761D01*
X129738571Y-130672380D01*
X130024285Y-130672380D01*
X130119523Y-130624761D01*
X130167142Y-130577142D01*
G04 #@! TO.C,K14*
X151074285Y-130672380D02*
X151074285Y-129672380D01*
X150502857Y-130672380D02*
X150931428Y-130100952D01*
X150502857Y-129672380D02*
X151074285Y-130243809D01*
X149550476Y-130672380D02*
X150121904Y-130672380D01*
X149836190Y-130672380D02*
X149836190Y-129672380D01*
X149931428Y-129815238D01*
X150026666Y-129910476D01*
X150121904Y-129958095D01*
X148693333Y-130005714D02*
X148693333Y-130672380D01*
X148931428Y-129624761D02*
X149169523Y-130339047D01*
X148550476Y-130339047D01*
G04 #@! TO.C,K15*
X170124285Y-130672380D02*
X170124285Y-129672380D01*
X169552857Y-130672380D02*
X169981428Y-130100952D01*
X169552857Y-129672380D02*
X170124285Y-130243809D01*
X168600476Y-130672380D02*
X169171904Y-130672380D01*
X168886190Y-130672380D02*
X168886190Y-129672380D01*
X168981428Y-129815238D01*
X169076666Y-129910476D01*
X169171904Y-129958095D01*
X167695714Y-129672380D02*
X168171904Y-129672380D01*
X168219523Y-130148571D01*
X168171904Y-130100952D01*
X168076666Y-130053333D01*
X167838571Y-130053333D01*
X167743333Y-130100952D01*
X167695714Y-130148571D01*
X167648095Y-130243809D01*
X167648095Y-130481904D01*
X167695714Y-130577142D01*
X167743333Y-130624761D01*
X167838571Y-130672380D01*
X168076666Y-130672380D01*
X168171904Y-130624761D01*
X168219523Y-130577142D01*
G04 #@! TO.C,K16*
X189174285Y-130672380D02*
X189174285Y-129672380D01*
X188602857Y-130672380D02*
X189031428Y-130100952D01*
X188602857Y-129672380D02*
X189174285Y-130243809D01*
X187650476Y-130672380D02*
X188221904Y-130672380D01*
X187936190Y-130672380D02*
X187936190Y-129672380D01*
X188031428Y-129815238D01*
X188126666Y-129910476D01*
X188221904Y-129958095D01*
X186793333Y-129672380D02*
X186983809Y-129672380D01*
X187079047Y-129720000D01*
X187126666Y-129767619D01*
X187221904Y-129910476D01*
X187269523Y-130100952D01*
X187269523Y-130481904D01*
X187221904Y-130577142D01*
X187174285Y-130624761D01*
X187079047Y-130672380D01*
X186888571Y-130672380D01*
X186793333Y-130624761D01*
X186745714Y-130577142D01*
X186698095Y-130481904D01*
X186698095Y-130243809D01*
X186745714Y-130148571D01*
X186793333Y-130100952D01*
X186888571Y-130053333D01*
X187079047Y-130053333D01*
X187174285Y-130100952D01*
X187221904Y-130148571D01*
X187269523Y-130243809D01*
G04 #@! TO.C,R1*
X199949704Y-91725766D02*
X199568752Y-91459100D01*
X199949704Y-91268623D02*
X199149704Y-91268623D01*
X199149704Y-91573385D01*
X199187800Y-91649576D01*
X199225895Y-91687671D01*
X199302085Y-91725766D01*
X199416371Y-91725766D01*
X199492561Y-91687671D01*
X199530657Y-91649576D01*
X199568752Y-91573385D01*
X199568752Y-91268623D01*
X199949704Y-92487671D02*
X199949704Y-92030528D01*
X199949704Y-92259100D02*
X199149704Y-92259100D01*
X199263990Y-92182909D01*
X199340180Y-92106719D01*
X199378276Y-92030528D01*
G04 #@! TO.C,R2*
X138987804Y-118459266D02*
X138606852Y-118192600D01*
X138987804Y-118002123D02*
X138187804Y-118002123D01*
X138187804Y-118306885D01*
X138225900Y-118383076D01*
X138263995Y-118421171D01*
X138340185Y-118459266D01*
X138454471Y-118459266D01*
X138530661Y-118421171D01*
X138568757Y-118383076D01*
X138606852Y-118306885D01*
X138606852Y-118002123D01*
X138263995Y-118764028D02*
X138225900Y-118802123D01*
X138187804Y-118878314D01*
X138187804Y-119068790D01*
X138225900Y-119144980D01*
X138263995Y-119183076D01*
X138340185Y-119221171D01*
X138416376Y-119221171D01*
X138530661Y-119183076D01*
X138987804Y-118725933D01*
X138987804Y-119221171D01*
G04 #@! TO.C,U7*
X126466504Y-82174680D02*
X126466504Y-82984204D01*
X126418885Y-83079442D01*
X126371266Y-83127061D01*
X126276028Y-83174680D01*
X126085552Y-83174680D01*
X125990314Y-83127061D01*
X125942695Y-83079442D01*
X125895076Y-82984204D01*
X125895076Y-82174680D01*
X125514123Y-82174680D02*
X124847457Y-82174680D01*
X125276028Y-83174680D01*
G04 #@! TO.C,J1*
D15*
X192620503Y-89817937D02*
X192620503Y-90535501D01*
X192668340Y-90679014D01*
X192764016Y-90774689D01*
X192907529Y-90822527D01*
X193003204Y-90822527D01*
X191615913Y-90822527D02*
X192189964Y-90822527D01*
X191902939Y-90822527D02*
X191902939Y-89817937D01*
X191998614Y-89961450D01*
X192094289Y-90057125D01*
X192189964Y-90104963D01*
X200151501Y-103341786D02*
X199673540Y-103341786D01*
X200247094Y-103628563D02*
X199912520Y-102624843D01*
X199577947Y-103628563D01*
X198813208Y-102959417D02*
X198813208Y-103628563D01*
X199243374Y-102959417D02*
X199243374Y-103485175D01*
X199195578Y-103580767D01*
X199099985Y-103628563D01*
X198956597Y-103628563D01*
X198861004Y-103580767D01*
X198813208Y-103532971D01*
X197905080Y-103628563D02*
X197905080Y-102624843D01*
X197905080Y-103580767D02*
X198000673Y-103628563D01*
X198191858Y-103628563D01*
X198287450Y-103580767D01*
X198335246Y-103532971D01*
X198383042Y-103437379D01*
X198383042Y-103150601D01*
X198335246Y-103055009D01*
X198287450Y-103007213D01*
X198191858Y-102959417D01*
X198000673Y-102959417D01*
X197905080Y-103007213D01*
X197427119Y-103628563D02*
X197427119Y-102959417D01*
X197427119Y-102624843D02*
X197474915Y-102672640D01*
X197427119Y-102720436D01*
X197379322Y-102672640D01*
X197427119Y-102624843D01*
X197427119Y-102720436D01*
X196805768Y-103628563D02*
X196901360Y-103580767D01*
X196949157Y-103532971D01*
X196996953Y-103437379D01*
X196996953Y-103150601D01*
X196949157Y-103055009D01*
X196901360Y-103007213D01*
X196805768Y-102959417D01*
X196662380Y-102959417D01*
X196566787Y-103007213D01*
X196518991Y-103055009D01*
X196471195Y-103150601D01*
X196471195Y-103437379D01*
X196518991Y-103532971D01*
X196566787Y-103580767D01*
X196662380Y-103628563D01*
X196805768Y-103628563D01*
X195754252Y-102624843D02*
X195754252Y-103341786D01*
X195802048Y-103485175D01*
X195897640Y-103580767D01*
X196041029Y-103628563D01*
X196136621Y-103628563D01*
X194846124Y-103628563D02*
X194846124Y-103102805D01*
X194893920Y-103007213D01*
X194989513Y-102959417D01*
X195180698Y-102959417D01*
X195276290Y-103007213D01*
X194846124Y-103580767D02*
X194941717Y-103628563D01*
X195180698Y-103628563D01*
X195276290Y-103580767D01*
X195324086Y-103485175D01*
X195324086Y-103389582D01*
X195276290Y-103293990D01*
X195180698Y-103246194D01*
X194941717Y-103246194D01*
X194846124Y-103198398D01*
X193937997Y-103580767D02*
X194033589Y-103628563D01*
X194224774Y-103628563D01*
X194320366Y-103580767D01*
X194368162Y-103532971D01*
X194415959Y-103437379D01*
X194415959Y-103150601D01*
X194368162Y-103055009D01*
X194320366Y-103007213D01*
X194224774Y-102959417D01*
X194033589Y-102959417D01*
X193937997Y-103007213D01*
X193507831Y-103628563D02*
X193507831Y-102624843D01*
X193412239Y-103246194D02*
X193125461Y-103628563D01*
X193125461Y-102959417D02*
X193507831Y-103341786D01*
X192790888Y-102624843D02*
X192169538Y-102624843D01*
X192504111Y-103007213D01*
X192360722Y-103007213D01*
X192265130Y-103055009D01*
X192217334Y-103102805D01*
X192169538Y-103198398D01*
X192169538Y-103437379D01*
X192217334Y-103532971D01*
X192265130Y-103580767D01*
X192360722Y-103628563D01*
X192647500Y-103628563D01*
X192743092Y-103580767D01*
X192790888Y-103532971D01*
X191978353Y-103724156D02*
X191213614Y-103724156D01*
X190448875Y-102672640D02*
X190544467Y-102624843D01*
X190687856Y-102624843D01*
X190831244Y-102672640D01*
X190926837Y-102768232D01*
X190974633Y-102863824D01*
X191022429Y-103055009D01*
X191022429Y-103198398D01*
X190974633Y-103389582D01*
X190926837Y-103485175D01*
X190831244Y-103580767D01*
X190687856Y-103628563D01*
X190592263Y-103628563D01*
X190448875Y-103580767D01*
X190401079Y-103532971D01*
X190401079Y-103198398D01*
X190592263Y-103198398D01*
X189970913Y-103628563D02*
X189970913Y-102959417D01*
X189970913Y-103150601D02*
X189923117Y-103055009D01*
X189875320Y-103007213D01*
X189779728Y-102959417D01*
X189684136Y-102959417D01*
X189206174Y-103628563D02*
X189301766Y-103580767D01*
X189349562Y-103532971D01*
X189397359Y-103437379D01*
X189397359Y-103150601D01*
X189349562Y-103055009D01*
X189301766Y-103007213D01*
X189206174Y-102959417D01*
X189062785Y-102959417D01*
X188967193Y-103007213D01*
X188919397Y-103055009D01*
X188871600Y-103150601D01*
X188871600Y-103437379D01*
X188919397Y-103532971D01*
X188967193Y-103580767D01*
X189062785Y-103628563D01*
X189206174Y-103628563D01*
X188011269Y-102959417D02*
X188011269Y-103628563D01*
X188441435Y-102959417D02*
X188441435Y-103485175D01*
X188393639Y-103580767D01*
X188298046Y-103628563D01*
X188154658Y-103628563D01*
X188059065Y-103580767D01*
X188011269Y-103532971D01*
X187533307Y-102959417D02*
X187533307Y-103628563D01*
X187533307Y-103055009D02*
X187485511Y-103007213D01*
X187389919Y-102959417D01*
X187246530Y-102959417D01*
X187150938Y-103007213D01*
X187103141Y-103102805D01*
X187103141Y-103628563D01*
X186195014Y-103628563D02*
X186195014Y-102624843D01*
X186195014Y-103580767D02*
X186290606Y-103628563D01*
X186481791Y-103628563D01*
X186577383Y-103580767D01*
X186625180Y-103532971D01*
X186672976Y-103437379D01*
X186672976Y-103150601D01*
X186625180Y-103055009D01*
X186577383Y-103007213D01*
X186481791Y-102959417D01*
X186290606Y-102959417D01*
X186195014Y-103007213D01*
G04 #@! TO.C,J2*
X125755023Y-102752497D02*
X125755023Y-103470061D01*
X125802860Y-103613574D01*
X125898536Y-103709249D01*
X126042049Y-103757087D01*
X126137724Y-103757087D01*
X125324484Y-102848172D02*
X125276647Y-102800335D01*
X125180971Y-102752497D01*
X124941783Y-102752497D01*
X124846108Y-102800335D01*
X124798270Y-102848172D01*
X124750433Y-102943847D01*
X124750433Y-103039523D01*
X124798270Y-103183035D01*
X125372322Y-103757087D01*
X124750433Y-103757087D01*
X131558581Y-90663486D02*
X131080620Y-90663486D01*
X131654174Y-90950263D02*
X131319600Y-89946543D01*
X130985027Y-90950263D01*
X130220288Y-90281117D02*
X130220288Y-90950263D01*
X130650454Y-90281117D02*
X130650454Y-90806875D01*
X130602658Y-90902467D01*
X130507065Y-90950263D01*
X130363677Y-90950263D01*
X130268084Y-90902467D01*
X130220288Y-90854671D01*
X129312160Y-90950263D02*
X129312160Y-89946543D01*
X129312160Y-90902467D02*
X129407753Y-90950263D01*
X129598938Y-90950263D01*
X129694530Y-90902467D01*
X129742326Y-90854671D01*
X129790122Y-90759079D01*
X129790122Y-90472301D01*
X129742326Y-90376709D01*
X129694530Y-90328913D01*
X129598938Y-90281117D01*
X129407753Y-90281117D01*
X129312160Y-90328913D01*
X128834199Y-90950263D02*
X128834199Y-90281117D01*
X128834199Y-89946543D02*
X128881995Y-89994340D01*
X128834199Y-90042136D01*
X128786402Y-89994340D01*
X128834199Y-89946543D01*
X128834199Y-90042136D01*
X128212848Y-90950263D02*
X128308440Y-90902467D01*
X128356237Y-90854671D01*
X128404033Y-90759079D01*
X128404033Y-90472301D01*
X128356237Y-90376709D01*
X128308440Y-90328913D01*
X128212848Y-90281117D01*
X128069460Y-90281117D01*
X127973867Y-90328913D01*
X127926071Y-90376709D01*
X127878275Y-90472301D01*
X127878275Y-90759079D01*
X127926071Y-90854671D01*
X127973867Y-90902467D01*
X128069460Y-90950263D01*
X128212848Y-90950263D01*
X127161332Y-89946543D02*
X127161332Y-90663486D01*
X127209128Y-90806875D01*
X127304720Y-90902467D01*
X127448109Y-90950263D01*
X127543701Y-90950263D01*
X126253204Y-90950263D02*
X126253204Y-90424505D01*
X126301000Y-90328913D01*
X126396593Y-90281117D01*
X126587778Y-90281117D01*
X126683370Y-90328913D01*
X126253204Y-90902467D02*
X126348797Y-90950263D01*
X126587778Y-90950263D01*
X126683370Y-90902467D01*
X126731166Y-90806875D01*
X126731166Y-90711282D01*
X126683370Y-90615690D01*
X126587778Y-90567894D01*
X126348797Y-90567894D01*
X126253204Y-90520098D01*
X125345077Y-90902467D02*
X125440669Y-90950263D01*
X125631854Y-90950263D01*
X125727446Y-90902467D01*
X125775242Y-90854671D01*
X125823039Y-90759079D01*
X125823039Y-90472301D01*
X125775242Y-90376709D01*
X125727446Y-90328913D01*
X125631854Y-90281117D01*
X125440669Y-90281117D01*
X125345077Y-90328913D01*
X124914911Y-90950263D02*
X124914911Y-89946543D01*
X124819319Y-90567894D02*
X124532541Y-90950263D01*
X124532541Y-90281117D02*
X124914911Y-90663486D01*
X124197968Y-89946543D02*
X123576618Y-89946543D01*
X123911191Y-90328913D01*
X123767802Y-90328913D01*
X123672210Y-90376709D01*
X123624414Y-90424505D01*
X123576618Y-90520098D01*
X123576618Y-90759079D01*
X123624414Y-90854671D01*
X123672210Y-90902467D01*
X123767802Y-90950263D01*
X124054580Y-90950263D01*
X124150172Y-90902467D01*
X124197968Y-90854671D01*
X123385433Y-91045856D02*
X122620694Y-91045856D01*
X121855955Y-89994340D02*
X121951547Y-89946543D01*
X122094936Y-89946543D01*
X122238324Y-89994340D01*
X122333917Y-90089932D01*
X122381713Y-90185524D01*
X122429509Y-90376709D01*
X122429509Y-90520098D01*
X122381713Y-90711282D01*
X122333917Y-90806875D01*
X122238324Y-90902467D01*
X122094936Y-90950263D01*
X121999343Y-90950263D01*
X121855955Y-90902467D01*
X121808159Y-90854671D01*
X121808159Y-90520098D01*
X121999343Y-90520098D01*
X121377993Y-90950263D02*
X121377993Y-90281117D01*
X121377993Y-90472301D02*
X121330197Y-90376709D01*
X121282400Y-90328913D01*
X121186808Y-90281117D01*
X121091216Y-90281117D01*
X120613254Y-90950263D02*
X120708846Y-90902467D01*
X120756642Y-90854671D01*
X120804439Y-90759079D01*
X120804439Y-90472301D01*
X120756642Y-90376709D01*
X120708846Y-90328913D01*
X120613254Y-90281117D01*
X120469865Y-90281117D01*
X120374273Y-90328913D01*
X120326477Y-90376709D01*
X120278680Y-90472301D01*
X120278680Y-90759079D01*
X120326477Y-90854671D01*
X120374273Y-90902467D01*
X120469865Y-90950263D01*
X120613254Y-90950263D01*
X119418349Y-90281117D02*
X119418349Y-90950263D01*
X119848515Y-90281117D02*
X119848515Y-90806875D01*
X119800719Y-90902467D01*
X119705126Y-90950263D01*
X119561738Y-90950263D01*
X119466145Y-90902467D01*
X119418349Y-90854671D01*
X118940387Y-90281117D02*
X118940387Y-90950263D01*
X118940387Y-90376709D02*
X118892591Y-90328913D01*
X118796999Y-90281117D01*
X118653610Y-90281117D01*
X118558018Y-90328913D01*
X118510221Y-90424505D01*
X118510221Y-90950263D01*
X117602094Y-90950263D02*
X117602094Y-89946543D01*
X117602094Y-90902467D02*
X117697686Y-90950263D01*
X117888871Y-90950263D01*
X117984463Y-90902467D01*
X118032260Y-90854671D01*
X118080056Y-90759079D01*
X118080056Y-90472301D01*
X118032260Y-90376709D01*
X117984463Y-90328913D01*
X117888871Y-90281117D01*
X117697686Y-90281117D01*
X117602094Y-90328913D01*
G04 #@! TD*
M02*
