M48
; DRILL file {KiCad (5.1.6)-1} date 07/03/20 23:32:03
; FORMAT={-:-/ absolute / inch / decimal}
; #@! TF.CreationDate,2020-07-03T23:32:03-07:00
; #@! TF.GenerationSoftware,Kicad,Pcbnew,(5.1.6)-1
; #@! TF.FileFunction,NonPlated,1,2,NPTH
FMAT,2
INCH
T1C0.0670
T2C0.1181
T3C0.1260
T4C0.1570
%
G90
G05
T1
X6.97Y-3.9575
X5.79Y-4.7375
X8.13Y-4.7375
X8.53Y-4.7375
X5.725Y-3.1775
X6.125Y-3.1775
X8.195Y-2.3975
X8.595Y-2.3975
X6.57Y-4.7375
X6.97Y-4.7375
X7.35Y-3.9575
X7.75Y-3.9575
X5.725Y-2.3975
X6.125Y-2.3975
X5.79Y-3.9575
X6.19Y-3.9575
X6.57Y-3.9575
X8.13Y-3.9575
X8.53Y-3.9575
X8.195Y-3.1775
X8.595Y-3.1775
X7.35Y-4.7375
X7.75Y-4.7375
X6.19Y-4.7375
T2
X7.4Y-3.8575
X7.65Y-3.7575
X5.775Y-2.2975
X6.025Y-2.1975
X5.84Y-3.8575
X6.09Y-3.7575
X6.62Y-3.8575
X6.87Y-3.7575
X8.18Y-3.8575
X8.43Y-3.7575
X8.245Y-3.0775
X8.495Y-2.9775
X7.4Y-4.6375
X7.65Y-4.5375
X5.84Y-4.6375
X6.09Y-4.5375
X8.18Y-4.6375
X8.43Y-4.5375
X5.775Y-3.0775
X6.025Y-2.9775
X8.245Y-2.2975
X8.495Y-2.1975
X6.62Y-4.6375
X6.87Y-4.5375
T3
X5.49Y-5.2125
X5.49Y-1.9625
X8.83Y-1.9625
X8.83Y-5.2125
T4
X8.33Y-3.9575
X7.55Y-4.7375
X5.99Y-4.7375
X6.77Y-4.7375
X7.55Y-3.9575
X5.925Y-2.3975
X5.99Y-3.9575
X6.77Y-3.9575
X8.395Y-3.1775
X8.33Y-4.7375
X5.925Y-3.1775
X8.395Y-2.3975
T0
M30
