G04 #@! TF.GenerationSoftware,KiCad,Pcbnew,(5.1.6)-1*
G04 #@! TF.CreationDate,2020-07-05T02:04:11-07:00*
G04 #@! TF.ProjectId,keypadV2,6b657970-6164-4563-922e-6b696361645f,rev?*
G04 #@! TF.SameCoordinates,Original*
G04 #@! TF.FileFunction,Paste,Bot*
G04 #@! TF.FilePolarity,Positive*
%FSLAX46Y46*%
G04 Gerber Fmt 4.6, Leading zero omitted, Abs format (unit mm)*
G04 Created by KiCad (PCBNEW (5.1.6)-1) date 2020-07-05 02:04:11*
%MOMM*%
%LPD*%
G01*
G04 APERTURE LIST*
G04 #@! TA.AperFunction,Profile*
%ADD10C,0.050000*%
G04 #@! TD*
G04 #@! TA.AperFunction,Profile*
%ADD11C,0.120000*%
G04 #@! TD*
%ADD12R,1.500000X1.000000*%
%ADD13R,1.000000X1.000000*%
%ADD14R,1.300000X1.550000*%
%ADD15R,1.130000X2.440000*%
%ADD16R,2.550000X2.500000*%
G04 APERTURE END LIST*
D10*
X154178000Y-69024500D02*
X154178000Y-63436500D01*
X146812000Y-69024500D02*
X154178000Y-69024500D01*
X154178000Y-63436500D02*
X146812000Y-63436500D01*
X146812000Y-63436500D02*
X146812000Y-69024500D01*
X154178000Y-88836500D02*
X154178000Y-83248500D01*
X146812000Y-88836500D02*
X154178000Y-88836500D01*
X154178000Y-83248500D02*
X146812000Y-83248500D01*
X146812000Y-83248500D02*
X146812000Y-88836500D01*
X155829000Y-108648500D02*
X155829000Y-103060500D01*
X148463000Y-108648500D02*
X155829000Y-108648500D01*
X155829000Y-103060500D02*
X148463000Y-103060500D01*
X148463000Y-103060500D02*
X148463000Y-108648500D01*
X155829000Y-128460500D02*
X155829000Y-122872500D01*
X148463000Y-128460500D02*
X155829000Y-128460500D01*
X155829000Y-122872500D02*
X148463000Y-122872500D01*
X148463000Y-122872500D02*
X148463000Y-128460500D01*
X175641000Y-128460500D02*
X175641000Y-122872500D01*
X168275000Y-128460500D02*
X175641000Y-128460500D01*
X175641000Y-122872500D02*
X168275000Y-122872500D01*
X168275000Y-122872500D02*
X168275000Y-128460500D01*
X175641000Y-108648500D02*
X175641000Y-103060500D01*
X168275000Y-108648500D02*
X175641000Y-108648500D01*
X175641000Y-103060500D02*
X168275000Y-103060500D01*
X168275000Y-103060500D02*
X168275000Y-108648500D01*
X195453000Y-108648500D02*
X195453000Y-103060500D01*
X188087000Y-108648500D02*
X195453000Y-108648500D01*
X195453000Y-103060500D02*
X188087000Y-103060500D01*
X188087000Y-103060500D02*
X188087000Y-108648500D01*
X195453000Y-128460500D02*
X195453000Y-122872500D01*
X188087000Y-128460500D02*
X195453000Y-128460500D01*
X195453000Y-122872500D02*
X188087000Y-122872500D01*
X188087000Y-122872500D02*
X188087000Y-128460500D01*
X215265000Y-128460500D02*
X215265000Y-122872500D01*
X207899000Y-128460500D02*
X215265000Y-128460500D01*
X215265000Y-122872500D02*
X207899000Y-122872500D01*
X207899000Y-122872500D02*
X207899000Y-128460500D01*
X215265000Y-108648500D02*
X215265000Y-103060500D01*
X207899000Y-108648500D02*
X215265000Y-108648500D01*
X215265000Y-103060500D02*
X207899000Y-103060500D01*
X207899000Y-103060500D02*
X207899000Y-108648500D01*
X216916000Y-83248500D02*
X209550000Y-83248500D01*
X209550000Y-88836500D02*
X216916000Y-88836500D01*
X216916000Y-88836500D02*
X216916000Y-83248500D01*
X209550000Y-83248500D02*
X209550000Y-88836500D01*
X216916000Y-69024500D02*
X216916000Y-63436500D01*
X209550000Y-69024500D02*
X216916000Y-69024500D01*
X209550000Y-63436500D02*
X209550000Y-69024500D01*
X216916000Y-63436500D02*
X209550000Y-63436500D01*
X224282000Y-45402500D02*
X204089000Y-45402500D01*
X199459533Y-43557442D02*
X164268467Y-43557442D01*
X199728941Y-43669034D02*
G75*
G03*
X204089000Y-45402500I4360059J4616534D01*
G01*
X199728941Y-43669034D02*
G75*
G03*
X199459533Y-43557442I-269408J-269408D01*
G01*
X163999059Y-43669034D02*
G75*
G02*
X164268467Y-43557442I269408J-269408D01*
G01*
X163999059Y-43669034D02*
G75*
G02*
X159639000Y-45402500I-4360059J4616534D01*
G01*
X139446000Y-45402500D02*
X159639000Y-45402500D01*
X135001000Y-49847500D02*
X135001000Y-132397500D01*
X224282000Y-136842500D02*
X139446000Y-136842500D01*
X228727000Y-49847500D02*
X228727000Y-132397500D01*
D11*
X135001000Y-49847500D02*
G75*
G02*
X139446000Y-45402500I4445000J0D01*
G01*
X224282000Y-45402500D02*
G75*
G02*
X228727000Y-49847500I0J-4445000D01*
G01*
X228727000Y-132397500D02*
G75*
G02*
X224282000Y-136842500I-4445000J0D01*
G01*
X139446000Y-136842500D02*
G75*
G02*
X135001000Y-132397500I0J4445000D01*
G01*
D12*
X164502000Y-108826500D03*
X164502000Y-112026500D03*
X159602000Y-108826500D03*
X159602000Y-112026500D03*
G36*
G01*
X160950000Y-65224500D02*
X160950000Y-66474500D01*
G75*
G02*
X160700000Y-66724500I-250000J0D01*
G01*
X159775000Y-66724500D01*
G75*
G02*
X159525000Y-66474500I0J250000D01*
G01*
X159525000Y-65224500D01*
G75*
G02*
X159775000Y-64974500I250000J0D01*
G01*
X160700000Y-64974500D01*
G75*
G02*
X160950000Y-65224500I0J-250000D01*
G01*
G37*
G36*
G01*
X157975000Y-65224500D02*
X157975000Y-66474500D01*
G75*
G02*
X157725000Y-66724500I-250000J0D01*
G01*
X156800000Y-66724500D01*
G75*
G02*
X156550000Y-66474500I0J250000D01*
G01*
X156550000Y-65224500D01*
G75*
G02*
X156800000Y-64974500I250000J0D01*
G01*
X157725000Y-64974500D01*
G75*
G02*
X157975000Y-65224500I0J-250000D01*
G01*
G37*
G36*
G01*
X166646500Y-112067500D02*
X166646500Y-110817500D01*
G75*
G02*
X166896500Y-110567500I250000J0D01*
G01*
X167821500Y-110567500D01*
G75*
G02*
X168071500Y-110817500I0J-250000D01*
G01*
X168071500Y-112067500D01*
G75*
G02*
X167821500Y-112317500I-250000J0D01*
G01*
X166896500Y-112317500D01*
G75*
G02*
X166646500Y-112067500I0J250000D01*
G01*
G37*
G36*
G01*
X169621500Y-112067500D02*
X169621500Y-110817500D01*
G75*
G02*
X169871500Y-110567500I250000J0D01*
G01*
X170796500Y-110567500D01*
G75*
G02*
X171046500Y-110817500I0J-250000D01*
G01*
X171046500Y-112067500D01*
G75*
G02*
X170796500Y-112317500I-250000J0D01*
G01*
X169871500Y-112317500D01*
G75*
G02*
X169621500Y-112067500I0J250000D01*
G01*
G37*
G36*
G01*
X206461000Y-112131000D02*
X206461000Y-110881000D01*
G75*
G02*
X206711000Y-110631000I250000J0D01*
G01*
X207636000Y-110631000D01*
G75*
G02*
X207886000Y-110881000I0J-250000D01*
G01*
X207886000Y-112131000D01*
G75*
G02*
X207636000Y-112381000I-250000J0D01*
G01*
X206711000Y-112381000D01*
G75*
G02*
X206461000Y-112131000I0J250000D01*
G01*
G37*
G36*
G01*
X209436000Y-112131000D02*
X209436000Y-110881000D01*
G75*
G02*
X209686000Y-110631000I250000J0D01*
G01*
X210611000Y-110631000D01*
G75*
G02*
X210861000Y-110881000I0J-250000D01*
G01*
X210861000Y-112131000D01*
G75*
G02*
X210611000Y-112381000I-250000J0D01*
G01*
X209686000Y-112381000D01*
G75*
G02*
X209436000Y-112131000I0J250000D01*
G01*
G37*
D13*
X145181000Y-52387500D03*
X147681000Y-52387500D03*
X143784000Y-72072500D03*
X146284000Y-72072500D03*
X202839000Y-75628500D03*
X205339000Y-75628500D03*
X204724000Y-55542500D03*
X204724000Y-53042500D03*
X148316000Y-91884500D03*
X145816000Y-91884500D03*
X163576000Y-95166500D03*
X163576000Y-92666500D03*
X183388000Y-92666500D03*
X183388000Y-95166500D03*
X203200000Y-92666500D03*
X203200000Y-95166500D03*
X148316000Y-111696500D03*
X145816000Y-111696500D03*
X161798000Y-116629500D03*
X161798000Y-114129500D03*
X189400500Y-111633000D03*
X186900500Y-111633000D03*
X201295000Y-117772500D03*
X201295000Y-115272500D03*
G36*
G01*
X210683000Y-52682500D02*
X209433000Y-52682500D01*
G75*
G02*
X209183000Y-52432500I0J250000D01*
G01*
X209183000Y-51507500D01*
G75*
G02*
X209433000Y-51257500I250000J0D01*
G01*
X210683000Y-51257500D01*
G75*
G02*
X210933000Y-51507500I0J-250000D01*
G01*
X210933000Y-52432500D01*
G75*
G02*
X210683000Y-52682500I-250000J0D01*
G01*
G37*
G36*
G01*
X210683000Y-49707500D02*
X209433000Y-49707500D01*
G75*
G02*
X209183000Y-49457500I0J250000D01*
G01*
X209183000Y-48532500D01*
G75*
G02*
X209433000Y-48282500I250000J0D01*
G01*
X210683000Y-48282500D01*
G75*
G02*
X210933000Y-48532500I0J-250000D01*
G01*
X210933000Y-49457500D01*
G75*
G02*
X210683000Y-49707500I-250000J0D01*
G01*
G37*
D12*
X156363500Y-71577000D03*
X156363500Y-68377000D03*
X161263500Y-71577000D03*
X161263500Y-68377000D03*
X199353000Y-111899500D03*
X199353000Y-108699500D03*
X204253000Y-111899500D03*
X204253000Y-108699500D03*
X202020000Y-72402500D03*
X202020000Y-69202500D03*
X206920000Y-72402500D03*
X206920000Y-69202500D03*
G36*
G01*
X206639000Y-48282500D02*
X207889000Y-48282500D01*
G75*
G02*
X208139000Y-48532500I0J-250000D01*
G01*
X208139000Y-49457500D01*
G75*
G02*
X207889000Y-49707500I-250000J0D01*
G01*
X206639000Y-49707500D01*
G75*
G02*
X206389000Y-49457500I0J250000D01*
G01*
X206389000Y-48532500D01*
G75*
G02*
X206639000Y-48282500I250000J0D01*
G01*
G37*
G36*
G01*
X206639000Y-51257500D02*
X207889000Y-51257500D01*
G75*
G02*
X208139000Y-51507500I0J-250000D01*
G01*
X208139000Y-52432500D01*
G75*
G02*
X207889000Y-52682500I-250000J0D01*
G01*
X206639000Y-52682500D01*
G75*
G02*
X206389000Y-52432500I0J250000D01*
G01*
X206389000Y-51507500D01*
G75*
G02*
X206639000Y-51257500I250000J0D01*
G01*
G37*
D14*
X170398000Y-59017000D03*
X170398000Y-66967000D03*
X165898000Y-59017000D03*
X165898000Y-66967000D03*
X165898000Y-79159000D03*
X165898000Y-71209000D03*
X170398000Y-79159000D03*
X170398000Y-71209000D03*
X194600000Y-77381000D03*
X194600000Y-69431000D03*
X199100000Y-77381000D03*
X199100000Y-69431000D03*
D15*
X199898000Y-56147000D03*
X199898000Y-64757000D03*
X197358000Y-56147000D03*
X197358000Y-64757000D03*
X194818000Y-56147000D03*
X194818000Y-64757000D03*
D16*
X156785000Y-55816500D03*
X142935000Y-58356500D03*
X142935000Y-78168500D03*
X156785000Y-75628500D03*
X219523000Y-75628500D03*
X205673000Y-78168500D03*
X205673000Y-58356500D03*
X219523000Y-55816500D03*
X158436000Y-95440500D03*
X144586000Y-97980500D03*
X178248000Y-95440500D03*
X164398000Y-97980500D03*
X184210000Y-97980500D03*
X198060000Y-95440500D03*
X217872000Y-95440500D03*
X204022000Y-97980500D03*
X144586000Y-117792500D03*
X158436000Y-115252500D03*
X164398000Y-117792500D03*
X178248000Y-115252500D03*
X198060000Y-115252500D03*
X184210000Y-117792500D03*
X204022000Y-117792500D03*
X217872000Y-115252500D03*
G36*
G01*
X140325000Y-59731000D02*
X139075000Y-59731000D01*
G75*
G02*
X138825000Y-59481000I0J250000D01*
G01*
X138825000Y-58556000D01*
G75*
G02*
X139075000Y-58306000I250000J0D01*
G01*
X140325000Y-58306000D01*
G75*
G02*
X140575000Y-58556000I0J-250000D01*
G01*
X140575000Y-59481000D01*
G75*
G02*
X140325000Y-59731000I-250000J0D01*
G01*
G37*
G36*
G01*
X140325000Y-56756000D02*
X139075000Y-56756000D01*
G75*
G02*
X138825000Y-56506000I0J250000D01*
G01*
X138825000Y-55581000D01*
G75*
G02*
X139075000Y-55331000I250000J0D01*
G01*
X140325000Y-55331000D01*
G75*
G02*
X140575000Y-55581000I0J-250000D01*
G01*
X140575000Y-56506000D01*
G75*
G02*
X140325000Y-56756000I-250000J0D01*
G01*
G37*
M02*
