G04 #@! TF.GenerationSoftware,KiCad,Pcbnew,(5.1.5)-3*
G04 #@! TF.CreationDate,2020-07-02T20:41:21-07:00*
G04 #@! TF.ProjectId,daughter,64617567-6874-4657-922e-6b696361645f,rev?*
G04 #@! TF.SameCoordinates,Original*
G04 #@! TF.FileFunction,Paste,Bot*
G04 #@! TF.FilePolarity,Positive*
%FSLAX46Y46*%
G04 Gerber Fmt 4.6, Leading zero omitted, Abs format (unit mm)*
G04 Created by KiCad (PCBNEW (5.1.5)-3) date 2020-07-02 20:41:21*
%MOMM*%
%LPD*%
G04 APERTURE LIST*
%ADD10C,0.050000*%
%ADD11C,0.120000*%
%ADD12C,0.150000*%
%ADD13C,0.100000*%
G04 APERTURE END LIST*
D10*
X143510000Y-186690000D02*
X159512000Y-186690000D01*
X139192000Y-185928000D02*
X138430000Y-186690000D01*
X142748000Y-185928000D02*
X139192000Y-185928000D01*
X143510000Y-186690000D02*
X142748000Y-185928000D01*
X74930000Y-121158000D02*
X74930000Y-117094000D01*
X76454000Y-122682000D02*
X74930000Y-121158000D01*
X76454000Y-136652000D02*
X76454000Y-122682000D01*
X77724000Y-137922000D02*
X76454000Y-136652000D01*
X77724000Y-137922000D02*
X77724001Y-186690001D01*
X81534000Y-186690000D02*
X81536221Y-189928213D01*
X98806000Y-186690000D02*
X81534000Y-186690000D01*
X99568000Y-185928000D02*
X98806000Y-186690000D01*
X103124000Y-185928000D02*
X99568000Y-185928000D01*
X103886000Y-186690000D02*
X103124000Y-185928000D01*
X118618000Y-186690000D02*
X103886000Y-186690000D01*
X119380000Y-185928000D02*
X118618000Y-186690000D01*
X122936000Y-185928000D02*
X119380000Y-185928000D01*
X123698000Y-186690000D02*
X122936000Y-185928000D01*
X138430000Y-186690000D02*
X123698000Y-186690000D01*
X159512000Y-192151000D02*
X159512000Y-186690000D01*
X159512000Y-192151000D02*
X163576000Y-192151000D01*
X165735000Y-122301000D02*
X165735000Y-187579000D01*
X167386000Y-120650000D02*
X165735000Y-122301000D01*
X167386000Y-116840000D02*
X167386000Y-120650000D01*
X159258000Y-116840000D02*
X167386000Y-116840000D01*
X159258000Y-118872000D02*
X159258000Y-116840000D01*
X157988000Y-120142000D02*
X159258000Y-118872000D01*
X148336000Y-120142000D02*
X157988000Y-120142000D01*
X148336000Y-126238000D02*
X148336000Y-120142000D01*
X157988000Y-126238000D02*
X148336000Y-126238000D01*
X159258000Y-127508000D02*
X157988000Y-126238000D01*
X159258000Y-129286000D02*
X159258000Y-127508000D01*
X160655000Y-130683000D02*
X159258000Y-129286000D01*
X160655000Y-134620000D02*
X160655000Y-130683000D01*
X159512000Y-135763000D02*
X160655000Y-134620000D01*
X159512000Y-138684000D02*
X159512000Y-135763000D01*
X158242000Y-139954000D02*
X159512000Y-138684000D01*
X148336000Y-139954000D02*
X158242000Y-139954000D01*
X148336000Y-146050000D02*
X148336000Y-139954000D01*
X158242000Y-146050000D02*
X148336000Y-146050000D01*
X159512000Y-147320000D02*
X158242000Y-146050000D01*
X159512000Y-158496000D02*
X159512000Y-147320000D01*
X158242000Y-159766000D02*
X159512000Y-158496000D01*
X146812000Y-159766000D02*
X158242000Y-159766000D01*
X146812000Y-165862000D02*
X146812000Y-159766000D01*
X158242000Y-165862000D02*
X146812000Y-165862000D01*
X159512000Y-167132000D02*
X158242000Y-165862000D01*
X159512000Y-178308000D02*
X159512000Y-167132000D01*
X158242000Y-179578000D02*
X159512000Y-178308000D01*
X143510000Y-179578000D02*
X158242000Y-179578000D01*
X142748000Y-180340000D02*
X143510000Y-179578000D01*
X139192000Y-180340000D02*
X142748000Y-180340000D01*
X138430000Y-179578000D02*
X139192000Y-180340000D01*
X123190000Y-179578000D02*
X138430000Y-179578000D01*
X123190000Y-176530000D02*
X123190000Y-179578000D01*
X121920000Y-176530000D02*
X123190000Y-176530000D01*
X121920000Y-172974000D02*
X121920000Y-176530000D01*
X121539000Y-172593000D02*
X121920000Y-172974000D01*
X121539000Y-168783000D02*
X121539000Y-172593000D01*
X121920000Y-168402000D02*
X121539000Y-168783000D01*
X121920000Y-167132000D02*
X121920000Y-168402000D01*
X123190000Y-165862000D02*
X121920000Y-167132000D01*
X135128000Y-165862000D02*
X123190000Y-165862000D01*
X135128000Y-159766000D02*
X135128000Y-165862000D01*
X107188000Y-159766000D02*
X135128000Y-159766000D01*
X107188000Y-165862000D02*
X107188000Y-159766000D01*
X117856000Y-165862000D02*
X107188000Y-165862000D01*
X119126000Y-167132000D02*
X117856000Y-165862000D01*
X119126000Y-178308000D02*
X119126000Y-167132000D01*
X117856000Y-179578000D02*
X119126000Y-178308000D01*
X103886000Y-179578000D02*
X117856000Y-179578000D01*
X103124000Y-180340000D02*
X103886000Y-179578000D01*
X99568000Y-180340000D02*
X103124000Y-180340000D01*
X98806000Y-179578000D02*
X99568000Y-180340000D01*
X82804000Y-179578000D02*
X98806000Y-179578000D01*
X81534000Y-178308000D02*
X82804000Y-179578000D01*
X81534000Y-167132000D02*
X81534000Y-178308000D01*
X82804000Y-165862000D02*
X81534000Y-167132000D01*
X95504000Y-165862000D02*
X82804000Y-165862000D01*
X95504000Y-159766000D02*
X95504000Y-165862000D01*
X82804000Y-159766000D02*
X95504000Y-159766000D01*
X81534000Y-158496000D02*
X82804000Y-159766000D01*
X81534000Y-147320000D02*
X81534000Y-158496000D01*
X82804000Y-146050000D02*
X81534000Y-147320000D01*
X93726000Y-146050000D02*
X82804000Y-146050000D01*
X93726000Y-139954000D02*
X93726000Y-146050000D01*
X82804000Y-139954000D02*
X93726000Y-139954000D01*
X81534000Y-138684000D02*
X82804000Y-139954000D01*
X81534000Y-137922000D02*
X81534000Y-138684000D01*
X80264000Y-136652000D02*
X81534000Y-137922000D01*
X80264000Y-133604000D02*
X80264000Y-136652000D01*
X81534000Y-132334000D02*
X80264000Y-133604000D01*
X81534000Y-125984000D02*
X81534000Y-132334000D01*
X82042000Y-125476000D02*
X81534000Y-125984000D01*
X84836000Y-125476000D02*
X82042000Y-125476000D01*
X85598000Y-126238000D02*
X84836000Y-125476000D01*
X93726000Y-126238000D02*
X85598000Y-126238000D01*
X93726000Y-120142000D02*
X93726000Y-126238000D01*
X84074000Y-120142000D02*
X93726000Y-120142000D01*
X82804000Y-118872000D02*
X84074000Y-120142000D01*
X82804000Y-117094000D02*
X82804000Y-118872000D01*
X74930000Y-117094000D02*
X82804000Y-117094000D01*
D11*
X165731919Y-187579797D02*
G75*
G02X163576000Y-192151000I-2155919J-1777203D01*
G01*
D12*
X81536221Y-189928213D02*
G75*
G02X77724001Y-186690001I-2796221J571213D01*
G01*
D13*
G36*
X85032504Y-122062204D02*
G01*
X85056773Y-122065804D01*
X85080571Y-122071765D01*
X85103671Y-122080030D01*
X85125849Y-122090520D01*
X85146893Y-122103133D01*
X85166598Y-122117747D01*
X85184777Y-122134223D01*
X85201253Y-122152402D01*
X85215867Y-122172107D01*
X85228480Y-122193151D01*
X85238970Y-122215329D01*
X85247235Y-122238429D01*
X85253196Y-122262227D01*
X85256796Y-122286496D01*
X85258000Y-122311000D01*
X85258000Y-123561000D01*
X85256796Y-123585504D01*
X85253196Y-123609773D01*
X85247235Y-123633571D01*
X85238970Y-123656671D01*
X85228480Y-123678849D01*
X85215867Y-123699893D01*
X85201253Y-123719598D01*
X85184777Y-123737777D01*
X85166598Y-123754253D01*
X85146893Y-123768867D01*
X85125849Y-123781480D01*
X85103671Y-123791970D01*
X85080571Y-123800235D01*
X85056773Y-123806196D01*
X85032504Y-123809796D01*
X85008000Y-123811000D01*
X84083000Y-123811000D01*
X84058496Y-123809796D01*
X84034227Y-123806196D01*
X84010429Y-123800235D01*
X83987329Y-123791970D01*
X83965151Y-123781480D01*
X83944107Y-123768867D01*
X83924402Y-123754253D01*
X83906223Y-123737777D01*
X83889747Y-123719598D01*
X83875133Y-123699893D01*
X83862520Y-123678849D01*
X83852030Y-123656671D01*
X83843765Y-123633571D01*
X83837804Y-123609773D01*
X83834204Y-123585504D01*
X83833000Y-123561000D01*
X83833000Y-122311000D01*
X83834204Y-122286496D01*
X83837804Y-122262227D01*
X83843765Y-122238429D01*
X83852030Y-122215329D01*
X83862520Y-122193151D01*
X83875133Y-122172107D01*
X83889747Y-122152402D01*
X83906223Y-122134223D01*
X83924402Y-122117747D01*
X83944107Y-122103133D01*
X83965151Y-122090520D01*
X83987329Y-122080030D01*
X84010429Y-122071765D01*
X84034227Y-122065804D01*
X84058496Y-122062204D01*
X84083000Y-122061000D01*
X85008000Y-122061000D01*
X85032504Y-122062204D01*
G37*
G36*
X82057504Y-122062204D02*
G01*
X82081773Y-122065804D01*
X82105571Y-122071765D01*
X82128671Y-122080030D01*
X82150849Y-122090520D01*
X82171893Y-122103133D01*
X82191598Y-122117747D01*
X82209777Y-122134223D01*
X82226253Y-122152402D01*
X82240867Y-122172107D01*
X82253480Y-122193151D01*
X82263970Y-122215329D01*
X82272235Y-122238429D01*
X82278196Y-122262227D01*
X82281796Y-122286496D01*
X82283000Y-122311000D01*
X82283000Y-123561000D01*
X82281796Y-123585504D01*
X82278196Y-123609773D01*
X82272235Y-123633571D01*
X82263970Y-123656671D01*
X82253480Y-123678849D01*
X82240867Y-123699893D01*
X82226253Y-123719598D01*
X82209777Y-123737777D01*
X82191598Y-123754253D01*
X82171893Y-123768867D01*
X82150849Y-123781480D01*
X82128671Y-123791970D01*
X82105571Y-123800235D01*
X82081773Y-123806196D01*
X82057504Y-123809796D01*
X82033000Y-123811000D01*
X81108000Y-123811000D01*
X81083496Y-123809796D01*
X81059227Y-123806196D01*
X81035429Y-123800235D01*
X81012329Y-123791970D01*
X80990151Y-123781480D01*
X80969107Y-123768867D01*
X80949402Y-123754253D01*
X80931223Y-123737777D01*
X80914747Y-123719598D01*
X80900133Y-123699893D01*
X80887520Y-123678849D01*
X80877030Y-123656671D01*
X80868765Y-123633571D01*
X80862804Y-123609773D01*
X80859204Y-123585504D01*
X80858000Y-123561000D01*
X80858000Y-122311000D01*
X80859204Y-122286496D01*
X80862804Y-122262227D01*
X80868765Y-122238429D01*
X80877030Y-122215329D01*
X80887520Y-122193151D01*
X80900133Y-122172107D01*
X80914747Y-122152402D01*
X80931223Y-122134223D01*
X80949402Y-122117747D01*
X80969107Y-122103133D01*
X80990151Y-122090520D01*
X81012329Y-122080030D01*
X81035429Y-122071765D01*
X81059227Y-122065804D01*
X81083496Y-122062204D01*
X81108000Y-122061000D01*
X82033000Y-122061000D01*
X82057504Y-122062204D01*
G37*
G36*
X92089504Y-183402204D02*
G01*
X92113773Y-183405804D01*
X92137571Y-183411765D01*
X92160671Y-183420030D01*
X92182849Y-183430520D01*
X92203893Y-183443133D01*
X92223598Y-183457747D01*
X92241777Y-183474223D01*
X92258253Y-183492402D01*
X92272867Y-183512107D01*
X92285480Y-183533151D01*
X92295970Y-183555329D01*
X92304235Y-183578429D01*
X92310196Y-183602227D01*
X92313796Y-183626496D01*
X92315000Y-183651000D01*
X92315000Y-184576000D01*
X92313796Y-184600504D01*
X92310196Y-184624773D01*
X92304235Y-184648571D01*
X92295970Y-184671671D01*
X92285480Y-184693849D01*
X92272867Y-184714893D01*
X92258253Y-184734598D01*
X92241777Y-184752777D01*
X92223598Y-184769253D01*
X92203893Y-184783867D01*
X92182849Y-184796480D01*
X92160671Y-184806970D01*
X92137571Y-184815235D01*
X92113773Y-184821196D01*
X92089504Y-184824796D01*
X92065000Y-184826000D01*
X90815000Y-184826000D01*
X90790496Y-184824796D01*
X90766227Y-184821196D01*
X90742429Y-184815235D01*
X90719329Y-184806970D01*
X90697151Y-184796480D01*
X90676107Y-184783867D01*
X90656402Y-184769253D01*
X90638223Y-184752777D01*
X90621747Y-184734598D01*
X90607133Y-184714893D01*
X90594520Y-184693849D01*
X90584030Y-184671671D01*
X90575765Y-184648571D01*
X90569804Y-184624773D01*
X90566204Y-184600504D01*
X90565000Y-184576000D01*
X90565000Y-183651000D01*
X90566204Y-183626496D01*
X90569804Y-183602227D01*
X90575765Y-183578429D01*
X90584030Y-183555329D01*
X90594520Y-183533151D01*
X90607133Y-183512107D01*
X90621747Y-183492402D01*
X90638223Y-183474223D01*
X90656402Y-183457747D01*
X90676107Y-183443133D01*
X90697151Y-183430520D01*
X90719329Y-183420030D01*
X90742429Y-183411765D01*
X90766227Y-183405804D01*
X90790496Y-183402204D01*
X90815000Y-183401000D01*
X92065000Y-183401000D01*
X92089504Y-183402204D01*
G37*
G36*
X92089504Y-180427204D02*
G01*
X92113773Y-180430804D01*
X92137571Y-180436765D01*
X92160671Y-180445030D01*
X92182849Y-180455520D01*
X92203893Y-180468133D01*
X92223598Y-180482747D01*
X92241777Y-180499223D01*
X92258253Y-180517402D01*
X92272867Y-180537107D01*
X92285480Y-180558151D01*
X92295970Y-180580329D01*
X92304235Y-180603429D01*
X92310196Y-180627227D01*
X92313796Y-180651496D01*
X92315000Y-180676000D01*
X92315000Y-181601000D01*
X92313796Y-181625504D01*
X92310196Y-181649773D01*
X92304235Y-181673571D01*
X92295970Y-181696671D01*
X92285480Y-181718849D01*
X92272867Y-181739893D01*
X92258253Y-181759598D01*
X92241777Y-181777777D01*
X92223598Y-181794253D01*
X92203893Y-181808867D01*
X92182849Y-181821480D01*
X92160671Y-181831970D01*
X92137571Y-181840235D01*
X92113773Y-181846196D01*
X92089504Y-181849796D01*
X92065000Y-181851000D01*
X90815000Y-181851000D01*
X90790496Y-181849796D01*
X90766227Y-181846196D01*
X90742429Y-181840235D01*
X90719329Y-181831970D01*
X90697151Y-181821480D01*
X90676107Y-181808867D01*
X90656402Y-181794253D01*
X90638223Y-181777777D01*
X90621747Y-181759598D01*
X90607133Y-181739893D01*
X90594520Y-181718849D01*
X90584030Y-181696671D01*
X90575765Y-181673571D01*
X90569804Y-181649773D01*
X90566204Y-181625504D01*
X90565000Y-181601000D01*
X90565000Y-180676000D01*
X90566204Y-180651496D01*
X90569804Y-180627227D01*
X90575765Y-180603429D01*
X90584030Y-180580329D01*
X90594520Y-180558151D01*
X90607133Y-180537107D01*
X90621747Y-180517402D01*
X90638223Y-180499223D01*
X90656402Y-180482747D01*
X90676107Y-180468133D01*
X90697151Y-180455520D01*
X90719329Y-180445030D01*
X90742429Y-180436765D01*
X90766227Y-180430804D01*
X90790496Y-180427204D01*
X90815000Y-180426000D01*
X92065000Y-180426000D01*
X92089504Y-180427204D01*
G37*
G36*
X92089504Y-163590204D02*
G01*
X92113773Y-163593804D01*
X92137571Y-163599765D01*
X92160671Y-163608030D01*
X92182849Y-163618520D01*
X92203893Y-163631133D01*
X92223598Y-163645747D01*
X92241777Y-163662223D01*
X92258253Y-163680402D01*
X92272867Y-163700107D01*
X92285480Y-163721151D01*
X92295970Y-163743329D01*
X92304235Y-163766429D01*
X92310196Y-163790227D01*
X92313796Y-163814496D01*
X92315000Y-163839000D01*
X92315000Y-164764000D01*
X92313796Y-164788504D01*
X92310196Y-164812773D01*
X92304235Y-164836571D01*
X92295970Y-164859671D01*
X92285480Y-164881849D01*
X92272867Y-164902893D01*
X92258253Y-164922598D01*
X92241777Y-164940777D01*
X92223598Y-164957253D01*
X92203893Y-164971867D01*
X92182849Y-164984480D01*
X92160671Y-164994970D01*
X92137571Y-165003235D01*
X92113773Y-165009196D01*
X92089504Y-165012796D01*
X92065000Y-165014000D01*
X90815000Y-165014000D01*
X90790496Y-165012796D01*
X90766227Y-165009196D01*
X90742429Y-165003235D01*
X90719329Y-164994970D01*
X90697151Y-164984480D01*
X90676107Y-164971867D01*
X90656402Y-164957253D01*
X90638223Y-164940777D01*
X90621747Y-164922598D01*
X90607133Y-164902893D01*
X90594520Y-164881849D01*
X90584030Y-164859671D01*
X90575765Y-164836571D01*
X90569804Y-164812773D01*
X90566204Y-164788504D01*
X90565000Y-164764000D01*
X90565000Y-163839000D01*
X90566204Y-163814496D01*
X90569804Y-163790227D01*
X90575765Y-163766429D01*
X90584030Y-163743329D01*
X90594520Y-163721151D01*
X90607133Y-163700107D01*
X90621747Y-163680402D01*
X90638223Y-163662223D01*
X90656402Y-163645747D01*
X90676107Y-163631133D01*
X90697151Y-163618520D01*
X90719329Y-163608030D01*
X90742429Y-163599765D01*
X90766227Y-163593804D01*
X90790496Y-163590204D01*
X90815000Y-163589000D01*
X92065000Y-163589000D01*
X92089504Y-163590204D01*
G37*
G36*
X92089504Y-160615204D02*
G01*
X92113773Y-160618804D01*
X92137571Y-160624765D01*
X92160671Y-160633030D01*
X92182849Y-160643520D01*
X92203893Y-160656133D01*
X92223598Y-160670747D01*
X92241777Y-160687223D01*
X92258253Y-160705402D01*
X92272867Y-160725107D01*
X92285480Y-160746151D01*
X92295970Y-160768329D01*
X92304235Y-160791429D01*
X92310196Y-160815227D01*
X92313796Y-160839496D01*
X92315000Y-160864000D01*
X92315000Y-161789000D01*
X92313796Y-161813504D01*
X92310196Y-161837773D01*
X92304235Y-161861571D01*
X92295970Y-161884671D01*
X92285480Y-161906849D01*
X92272867Y-161927893D01*
X92258253Y-161947598D01*
X92241777Y-161965777D01*
X92223598Y-161982253D01*
X92203893Y-161996867D01*
X92182849Y-162009480D01*
X92160671Y-162019970D01*
X92137571Y-162028235D01*
X92113773Y-162034196D01*
X92089504Y-162037796D01*
X92065000Y-162039000D01*
X90815000Y-162039000D01*
X90790496Y-162037796D01*
X90766227Y-162034196D01*
X90742429Y-162028235D01*
X90719329Y-162019970D01*
X90697151Y-162009480D01*
X90676107Y-161996867D01*
X90656402Y-161982253D01*
X90638223Y-161965777D01*
X90621747Y-161947598D01*
X90607133Y-161927893D01*
X90594520Y-161906849D01*
X90584030Y-161884671D01*
X90575765Y-161861571D01*
X90569804Y-161837773D01*
X90566204Y-161813504D01*
X90565000Y-161789000D01*
X90565000Y-160864000D01*
X90566204Y-160839496D01*
X90569804Y-160815227D01*
X90575765Y-160791429D01*
X90584030Y-160768329D01*
X90594520Y-160746151D01*
X90607133Y-160725107D01*
X90621747Y-160705402D01*
X90638223Y-160687223D01*
X90656402Y-160670747D01*
X90676107Y-160656133D01*
X90697151Y-160643520D01*
X90719329Y-160633030D01*
X90742429Y-160624765D01*
X90766227Y-160618804D01*
X90790496Y-160615204D01*
X90815000Y-160614000D01*
X92065000Y-160614000D01*
X92089504Y-160615204D01*
G37*
G36*
X90311504Y-140803204D02*
G01*
X90335773Y-140806804D01*
X90359571Y-140812765D01*
X90382671Y-140821030D01*
X90404849Y-140831520D01*
X90425893Y-140844133D01*
X90445598Y-140858747D01*
X90463777Y-140875223D01*
X90480253Y-140893402D01*
X90494867Y-140913107D01*
X90507480Y-140934151D01*
X90517970Y-140956329D01*
X90526235Y-140979429D01*
X90532196Y-141003227D01*
X90535796Y-141027496D01*
X90537000Y-141052000D01*
X90537000Y-141977000D01*
X90535796Y-142001504D01*
X90532196Y-142025773D01*
X90526235Y-142049571D01*
X90517970Y-142072671D01*
X90507480Y-142094849D01*
X90494867Y-142115893D01*
X90480253Y-142135598D01*
X90463777Y-142153777D01*
X90445598Y-142170253D01*
X90425893Y-142184867D01*
X90404849Y-142197480D01*
X90382671Y-142207970D01*
X90359571Y-142216235D01*
X90335773Y-142222196D01*
X90311504Y-142225796D01*
X90287000Y-142227000D01*
X89037000Y-142227000D01*
X89012496Y-142225796D01*
X88988227Y-142222196D01*
X88964429Y-142216235D01*
X88941329Y-142207970D01*
X88919151Y-142197480D01*
X88898107Y-142184867D01*
X88878402Y-142170253D01*
X88860223Y-142153777D01*
X88843747Y-142135598D01*
X88829133Y-142115893D01*
X88816520Y-142094849D01*
X88806030Y-142072671D01*
X88797765Y-142049571D01*
X88791804Y-142025773D01*
X88788204Y-142001504D01*
X88787000Y-141977000D01*
X88787000Y-141052000D01*
X88788204Y-141027496D01*
X88791804Y-141003227D01*
X88797765Y-140979429D01*
X88806030Y-140956329D01*
X88816520Y-140934151D01*
X88829133Y-140913107D01*
X88843747Y-140893402D01*
X88860223Y-140875223D01*
X88878402Y-140858747D01*
X88898107Y-140844133D01*
X88919151Y-140831520D01*
X88941329Y-140821030D01*
X88964429Y-140812765D01*
X88988227Y-140806804D01*
X89012496Y-140803204D01*
X89037000Y-140802000D01*
X90287000Y-140802000D01*
X90311504Y-140803204D01*
G37*
G36*
X90311504Y-143778204D02*
G01*
X90335773Y-143781804D01*
X90359571Y-143787765D01*
X90382671Y-143796030D01*
X90404849Y-143806520D01*
X90425893Y-143819133D01*
X90445598Y-143833747D01*
X90463777Y-143850223D01*
X90480253Y-143868402D01*
X90494867Y-143888107D01*
X90507480Y-143909151D01*
X90517970Y-143931329D01*
X90526235Y-143954429D01*
X90532196Y-143978227D01*
X90535796Y-144002496D01*
X90537000Y-144027000D01*
X90537000Y-144952000D01*
X90535796Y-144976504D01*
X90532196Y-145000773D01*
X90526235Y-145024571D01*
X90517970Y-145047671D01*
X90507480Y-145069849D01*
X90494867Y-145090893D01*
X90480253Y-145110598D01*
X90463777Y-145128777D01*
X90445598Y-145145253D01*
X90425893Y-145159867D01*
X90404849Y-145172480D01*
X90382671Y-145182970D01*
X90359571Y-145191235D01*
X90335773Y-145197196D01*
X90311504Y-145200796D01*
X90287000Y-145202000D01*
X89037000Y-145202000D01*
X89012496Y-145200796D01*
X88988227Y-145197196D01*
X88964429Y-145191235D01*
X88941329Y-145182970D01*
X88919151Y-145172480D01*
X88898107Y-145159867D01*
X88878402Y-145145253D01*
X88860223Y-145128777D01*
X88843747Y-145110598D01*
X88829133Y-145090893D01*
X88816520Y-145069849D01*
X88806030Y-145047671D01*
X88797765Y-145024571D01*
X88791804Y-145000773D01*
X88788204Y-144976504D01*
X88787000Y-144952000D01*
X88787000Y-144027000D01*
X88788204Y-144002496D01*
X88791804Y-143978227D01*
X88797765Y-143954429D01*
X88806030Y-143931329D01*
X88816520Y-143909151D01*
X88829133Y-143888107D01*
X88843747Y-143868402D01*
X88860223Y-143850223D01*
X88878402Y-143833747D01*
X88898107Y-143819133D01*
X88919151Y-143806520D01*
X88941329Y-143796030D01*
X88964429Y-143787765D01*
X88988227Y-143781804D01*
X89012496Y-143778204D01*
X89037000Y-143777000D01*
X90287000Y-143777000D01*
X90311504Y-143778204D01*
G37*
G36*
X90438504Y-123966204D02*
G01*
X90462773Y-123969804D01*
X90486571Y-123975765D01*
X90509671Y-123984030D01*
X90531849Y-123994520D01*
X90552893Y-124007133D01*
X90572598Y-124021747D01*
X90590777Y-124038223D01*
X90607253Y-124056402D01*
X90621867Y-124076107D01*
X90634480Y-124097151D01*
X90644970Y-124119329D01*
X90653235Y-124142429D01*
X90659196Y-124166227D01*
X90662796Y-124190496D01*
X90664000Y-124215000D01*
X90664000Y-125140000D01*
X90662796Y-125164504D01*
X90659196Y-125188773D01*
X90653235Y-125212571D01*
X90644970Y-125235671D01*
X90634480Y-125257849D01*
X90621867Y-125278893D01*
X90607253Y-125298598D01*
X90590777Y-125316777D01*
X90572598Y-125333253D01*
X90552893Y-125347867D01*
X90531849Y-125360480D01*
X90509671Y-125370970D01*
X90486571Y-125379235D01*
X90462773Y-125385196D01*
X90438504Y-125388796D01*
X90414000Y-125390000D01*
X89164000Y-125390000D01*
X89139496Y-125388796D01*
X89115227Y-125385196D01*
X89091429Y-125379235D01*
X89068329Y-125370970D01*
X89046151Y-125360480D01*
X89025107Y-125347867D01*
X89005402Y-125333253D01*
X88987223Y-125316777D01*
X88970747Y-125298598D01*
X88956133Y-125278893D01*
X88943520Y-125257849D01*
X88933030Y-125235671D01*
X88924765Y-125212571D01*
X88918804Y-125188773D01*
X88915204Y-125164504D01*
X88914000Y-125140000D01*
X88914000Y-124215000D01*
X88915204Y-124190496D01*
X88918804Y-124166227D01*
X88924765Y-124142429D01*
X88933030Y-124119329D01*
X88943520Y-124097151D01*
X88956133Y-124076107D01*
X88970747Y-124056402D01*
X88987223Y-124038223D01*
X89005402Y-124021747D01*
X89025107Y-124007133D01*
X89046151Y-123994520D01*
X89068329Y-123984030D01*
X89091429Y-123975765D01*
X89115227Y-123969804D01*
X89139496Y-123966204D01*
X89164000Y-123965000D01*
X90414000Y-123965000D01*
X90438504Y-123966204D01*
G37*
G36*
X90438504Y-120991204D02*
G01*
X90462773Y-120994804D01*
X90486571Y-121000765D01*
X90509671Y-121009030D01*
X90531849Y-121019520D01*
X90552893Y-121032133D01*
X90572598Y-121046747D01*
X90590777Y-121063223D01*
X90607253Y-121081402D01*
X90621867Y-121101107D01*
X90634480Y-121122151D01*
X90644970Y-121144329D01*
X90653235Y-121167429D01*
X90659196Y-121191227D01*
X90662796Y-121215496D01*
X90664000Y-121240000D01*
X90664000Y-122165000D01*
X90662796Y-122189504D01*
X90659196Y-122213773D01*
X90653235Y-122237571D01*
X90644970Y-122260671D01*
X90634480Y-122282849D01*
X90621867Y-122303893D01*
X90607253Y-122323598D01*
X90590777Y-122341777D01*
X90572598Y-122358253D01*
X90552893Y-122372867D01*
X90531849Y-122385480D01*
X90509671Y-122395970D01*
X90486571Y-122404235D01*
X90462773Y-122410196D01*
X90438504Y-122413796D01*
X90414000Y-122415000D01*
X89164000Y-122415000D01*
X89139496Y-122413796D01*
X89115227Y-122410196D01*
X89091429Y-122404235D01*
X89068329Y-122395970D01*
X89046151Y-122385480D01*
X89025107Y-122372867D01*
X89005402Y-122358253D01*
X88987223Y-122341777D01*
X88970747Y-122323598D01*
X88956133Y-122303893D01*
X88943520Y-122282849D01*
X88933030Y-122260671D01*
X88924765Y-122237571D01*
X88918804Y-122213773D01*
X88915204Y-122189504D01*
X88914000Y-122165000D01*
X88914000Y-121240000D01*
X88915204Y-121215496D01*
X88918804Y-121191227D01*
X88924765Y-121167429D01*
X88933030Y-121144329D01*
X88943520Y-121122151D01*
X88956133Y-121101107D01*
X88970747Y-121081402D01*
X88987223Y-121063223D01*
X89005402Y-121046747D01*
X89025107Y-121032133D01*
X89046151Y-121019520D01*
X89068329Y-121009030D01*
X89091429Y-121000765D01*
X89115227Y-120994804D01*
X89139496Y-120991204D01*
X89164000Y-120990000D01*
X90414000Y-120990000D01*
X90438504Y-120991204D01*
G37*
G36*
X131586504Y-163590204D02*
G01*
X131610773Y-163593804D01*
X131634571Y-163599765D01*
X131657671Y-163608030D01*
X131679849Y-163618520D01*
X131700893Y-163631133D01*
X131720598Y-163645747D01*
X131738777Y-163662223D01*
X131755253Y-163680402D01*
X131769867Y-163700107D01*
X131782480Y-163721151D01*
X131792970Y-163743329D01*
X131801235Y-163766429D01*
X131807196Y-163790227D01*
X131810796Y-163814496D01*
X131812000Y-163839000D01*
X131812000Y-164764000D01*
X131810796Y-164788504D01*
X131807196Y-164812773D01*
X131801235Y-164836571D01*
X131792970Y-164859671D01*
X131782480Y-164881849D01*
X131769867Y-164902893D01*
X131755253Y-164922598D01*
X131738777Y-164940777D01*
X131720598Y-164957253D01*
X131700893Y-164971867D01*
X131679849Y-164984480D01*
X131657671Y-164994970D01*
X131634571Y-165003235D01*
X131610773Y-165009196D01*
X131586504Y-165012796D01*
X131562000Y-165014000D01*
X130312000Y-165014000D01*
X130287496Y-165012796D01*
X130263227Y-165009196D01*
X130239429Y-165003235D01*
X130216329Y-164994970D01*
X130194151Y-164984480D01*
X130173107Y-164971867D01*
X130153402Y-164957253D01*
X130135223Y-164940777D01*
X130118747Y-164922598D01*
X130104133Y-164902893D01*
X130091520Y-164881849D01*
X130081030Y-164859671D01*
X130072765Y-164836571D01*
X130066804Y-164812773D01*
X130063204Y-164788504D01*
X130062000Y-164764000D01*
X130062000Y-163839000D01*
X130063204Y-163814496D01*
X130066804Y-163790227D01*
X130072765Y-163766429D01*
X130081030Y-163743329D01*
X130091520Y-163721151D01*
X130104133Y-163700107D01*
X130118747Y-163680402D01*
X130135223Y-163662223D01*
X130153402Y-163645747D01*
X130173107Y-163631133D01*
X130194151Y-163618520D01*
X130216329Y-163608030D01*
X130239429Y-163599765D01*
X130263227Y-163593804D01*
X130287496Y-163590204D01*
X130312000Y-163589000D01*
X131562000Y-163589000D01*
X131586504Y-163590204D01*
G37*
G36*
X131586504Y-160615204D02*
G01*
X131610773Y-160618804D01*
X131634571Y-160624765D01*
X131657671Y-160633030D01*
X131679849Y-160643520D01*
X131700893Y-160656133D01*
X131720598Y-160670747D01*
X131738777Y-160687223D01*
X131755253Y-160705402D01*
X131769867Y-160725107D01*
X131782480Y-160746151D01*
X131792970Y-160768329D01*
X131801235Y-160791429D01*
X131807196Y-160815227D01*
X131810796Y-160839496D01*
X131812000Y-160864000D01*
X131812000Y-161789000D01*
X131810796Y-161813504D01*
X131807196Y-161837773D01*
X131801235Y-161861571D01*
X131792970Y-161884671D01*
X131782480Y-161906849D01*
X131769867Y-161927893D01*
X131755253Y-161947598D01*
X131738777Y-161965777D01*
X131720598Y-161982253D01*
X131700893Y-161996867D01*
X131679849Y-162009480D01*
X131657671Y-162019970D01*
X131634571Y-162028235D01*
X131610773Y-162034196D01*
X131586504Y-162037796D01*
X131562000Y-162039000D01*
X130312000Y-162039000D01*
X130287496Y-162037796D01*
X130263227Y-162034196D01*
X130239429Y-162028235D01*
X130216329Y-162019970D01*
X130194151Y-162009480D01*
X130173107Y-161996867D01*
X130153402Y-161982253D01*
X130135223Y-161965777D01*
X130118747Y-161947598D01*
X130104133Y-161927893D01*
X130091520Y-161906849D01*
X130081030Y-161884671D01*
X130072765Y-161861571D01*
X130066804Y-161837773D01*
X130063204Y-161813504D01*
X130062000Y-161789000D01*
X130062000Y-160864000D01*
X130063204Y-160839496D01*
X130066804Y-160815227D01*
X130072765Y-160791429D01*
X130081030Y-160768329D01*
X130091520Y-160746151D01*
X130104133Y-160725107D01*
X130118747Y-160705402D01*
X130135223Y-160687223D01*
X130153402Y-160670747D01*
X130173107Y-160656133D01*
X130194151Y-160643520D01*
X130216329Y-160633030D01*
X130239429Y-160624765D01*
X130263227Y-160618804D01*
X130287496Y-160615204D01*
X130312000Y-160614000D01*
X131562000Y-160614000D01*
X131586504Y-160615204D01*
G37*
G36*
X111774504Y-163590204D02*
G01*
X111798773Y-163593804D01*
X111822571Y-163599765D01*
X111845671Y-163608030D01*
X111867849Y-163618520D01*
X111888893Y-163631133D01*
X111908598Y-163645747D01*
X111926777Y-163662223D01*
X111943253Y-163680402D01*
X111957867Y-163700107D01*
X111970480Y-163721151D01*
X111980970Y-163743329D01*
X111989235Y-163766429D01*
X111995196Y-163790227D01*
X111998796Y-163814496D01*
X112000000Y-163839000D01*
X112000000Y-164764000D01*
X111998796Y-164788504D01*
X111995196Y-164812773D01*
X111989235Y-164836571D01*
X111980970Y-164859671D01*
X111970480Y-164881849D01*
X111957867Y-164902893D01*
X111943253Y-164922598D01*
X111926777Y-164940777D01*
X111908598Y-164957253D01*
X111888893Y-164971867D01*
X111867849Y-164984480D01*
X111845671Y-164994970D01*
X111822571Y-165003235D01*
X111798773Y-165009196D01*
X111774504Y-165012796D01*
X111750000Y-165014000D01*
X110500000Y-165014000D01*
X110475496Y-165012796D01*
X110451227Y-165009196D01*
X110427429Y-165003235D01*
X110404329Y-164994970D01*
X110382151Y-164984480D01*
X110361107Y-164971867D01*
X110341402Y-164957253D01*
X110323223Y-164940777D01*
X110306747Y-164922598D01*
X110292133Y-164902893D01*
X110279520Y-164881849D01*
X110269030Y-164859671D01*
X110260765Y-164836571D01*
X110254804Y-164812773D01*
X110251204Y-164788504D01*
X110250000Y-164764000D01*
X110250000Y-163839000D01*
X110251204Y-163814496D01*
X110254804Y-163790227D01*
X110260765Y-163766429D01*
X110269030Y-163743329D01*
X110279520Y-163721151D01*
X110292133Y-163700107D01*
X110306747Y-163680402D01*
X110323223Y-163662223D01*
X110341402Y-163645747D01*
X110361107Y-163631133D01*
X110382151Y-163618520D01*
X110404329Y-163608030D01*
X110427429Y-163599765D01*
X110451227Y-163593804D01*
X110475496Y-163590204D01*
X110500000Y-163589000D01*
X111750000Y-163589000D01*
X111774504Y-163590204D01*
G37*
G36*
X111774504Y-160615204D02*
G01*
X111798773Y-160618804D01*
X111822571Y-160624765D01*
X111845671Y-160633030D01*
X111867849Y-160643520D01*
X111888893Y-160656133D01*
X111908598Y-160670747D01*
X111926777Y-160687223D01*
X111943253Y-160705402D01*
X111957867Y-160725107D01*
X111970480Y-160746151D01*
X111980970Y-160768329D01*
X111989235Y-160791429D01*
X111995196Y-160815227D01*
X111998796Y-160839496D01*
X112000000Y-160864000D01*
X112000000Y-161789000D01*
X111998796Y-161813504D01*
X111995196Y-161837773D01*
X111989235Y-161861571D01*
X111980970Y-161884671D01*
X111970480Y-161906849D01*
X111957867Y-161927893D01*
X111943253Y-161947598D01*
X111926777Y-161965777D01*
X111908598Y-161982253D01*
X111888893Y-161996867D01*
X111867849Y-162009480D01*
X111845671Y-162019970D01*
X111822571Y-162028235D01*
X111798773Y-162034196D01*
X111774504Y-162037796D01*
X111750000Y-162039000D01*
X110500000Y-162039000D01*
X110475496Y-162037796D01*
X110451227Y-162034196D01*
X110427429Y-162028235D01*
X110404329Y-162019970D01*
X110382151Y-162009480D01*
X110361107Y-161996867D01*
X110341402Y-161982253D01*
X110323223Y-161965777D01*
X110306747Y-161947598D01*
X110292133Y-161927893D01*
X110279520Y-161906849D01*
X110269030Y-161884671D01*
X110260765Y-161861571D01*
X110254804Y-161837773D01*
X110251204Y-161813504D01*
X110250000Y-161789000D01*
X110250000Y-160864000D01*
X110251204Y-160839496D01*
X110254804Y-160815227D01*
X110260765Y-160791429D01*
X110269030Y-160768329D01*
X110279520Y-160746151D01*
X110292133Y-160725107D01*
X110306747Y-160705402D01*
X110323223Y-160687223D01*
X110341402Y-160670747D01*
X110361107Y-160656133D01*
X110382151Y-160643520D01*
X110404329Y-160633030D01*
X110427429Y-160624765D01*
X110451227Y-160618804D01*
X110475496Y-160615204D01*
X110500000Y-160614000D01*
X111750000Y-160614000D01*
X111774504Y-160615204D01*
G37*
G36*
X131713504Y-183402204D02*
G01*
X131737773Y-183405804D01*
X131761571Y-183411765D01*
X131784671Y-183420030D01*
X131806849Y-183430520D01*
X131827893Y-183443133D01*
X131847598Y-183457747D01*
X131865777Y-183474223D01*
X131882253Y-183492402D01*
X131896867Y-183512107D01*
X131909480Y-183533151D01*
X131919970Y-183555329D01*
X131928235Y-183578429D01*
X131934196Y-183602227D01*
X131937796Y-183626496D01*
X131939000Y-183651000D01*
X131939000Y-184576000D01*
X131937796Y-184600504D01*
X131934196Y-184624773D01*
X131928235Y-184648571D01*
X131919970Y-184671671D01*
X131909480Y-184693849D01*
X131896867Y-184714893D01*
X131882253Y-184734598D01*
X131865777Y-184752777D01*
X131847598Y-184769253D01*
X131827893Y-184783867D01*
X131806849Y-184796480D01*
X131784671Y-184806970D01*
X131761571Y-184815235D01*
X131737773Y-184821196D01*
X131713504Y-184824796D01*
X131689000Y-184826000D01*
X130439000Y-184826000D01*
X130414496Y-184824796D01*
X130390227Y-184821196D01*
X130366429Y-184815235D01*
X130343329Y-184806970D01*
X130321151Y-184796480D01*
X130300107Y-184783867D01*
X130280402Y-184769253D01*
X130262223Y-184752777D01*
X130245747Y-184734598D01*
X130231133Y-184714893D01*
X130218520Y-184693849D01*
X130208030Y-184671671D01*
X130199765Y-184648571D01*
X130193804Y-184624773D01*
X130190204Y-184600504D01*
X130189000Y-184576000D01*
X130189000Y-183651000D01*
X130190204Y-183626496D01*
X130193804Y-183602227D01*
X130199765Y-183578429D01*
X130208030Y-183555329D01*
X130218520Y-183533151D01*
X130231133Y-183512107D01*
X130245747Y-183492402D01*
X130262223Y-183474223D01*
X130280402Y-183457747D01*
X130300107Y-183443133D01*
X130321151Y-183430520D01*
X130343329Y-183420030D01*
X130366429Y-183411765D01*
X130390227Y-183405804D01*
X130414496Y-183402204D01*
X130439000Y-183401000D01*
X131689000Y-183401000D01*
X131713504Y-183402204D01*
G37*
G36*
X131713504Y-180427204D02*
G01*
X131737773Y-180430804D01*
X131761571Y-180436765D01*
X131784671Y-180445030D01*
X131806849Y-180455520D01*
X131827893Y-180468133D01*
X131847598Y-180482747D01*
X131865777Y-180499223D01*
X131882253Y-180517402D01*
X131896867Y-180537107D01*
X131909480Y-180558151D01*
X131919970Y-180580329D01*
X131928235Y-180603429D01*
X131934196Y-180627227D01*
X131937796Y-180651496D01*
X131939000Y-180676000D01*
X131939000Y-181601000D01*
X131937796Y-181625504D01*
X131934196Y-181649773D01*
X131928235Y-181673571D01*
X131919970Y-181696671D01*
X131909480Y-181718849D01*
X131896867Y-181739893D01*
X131882253Y-181759598D01*
X131865777Y-181777777D01*
X131847598Y-181794253D01*
X131827893Y-181808867D01*
X131806849Y-181821480D01*
X131784671Y-181831970D01*
X131761571Y-181840235D01*
X131737773Y-181846196D01*
X131713504Y-181849796D01*
X131689000Y-181851000D01*
X130439000Y-181851000D01*
X130414496Y-181849796D01*
X130390227Y-181846196D01*
X130366429Y-181840235D01*
X130343329Y-181831970D01*
X130321151Y-181821480D01*
X130300107Y-181808867D01*
X130280402Y-181794253D01*
X130262223Y-181777777D01*
X130245747Y-181759598D01*
X130231133Y-181739893D01*
X130218520Y-181718849D01*
X130208030Y-181696671D01*
X130199765Y-181673571D01*
X130193804Y-181649773D01*
X130190204Y-181625504D01*
X130189000Y-181601000D01*
X130189000Y-180676000D01*
X130190204Y-180651496D01*
X130193804Y-180627227D01*
X130199765Y-180603429D01*
X130208030Y-180580329D01*
X130218520Y-180558151D01*
X130231133Y-180537107D01*
X130245747Y-180517402D01*
X130262223Y-180499223D01*
X130280402Y-180482747D01*
X130300107Y-180468133D01*
X130321151Y-180455520D01*
X130343329Y-180445030D01*
X130366429Y-180436765D01*
X130390227Y-180430804D01*
X130414496Y-180427204D01*
X130439000Y-180426000D01*
X131689000Y-180426000D01*
X131713504Y-180427204D01*
G37*
G36*
X111901504Y-180463704D02*
G01*
X111925773Y-180467304D01*
X111949571Y-180473265D01*
X111972671Y-180481530D01*
X111994849Y-180492020D01*
X112015893Y-180504633D01*
X112035598Y-180519247D01*
X112053777Y-180535723D01*
X112070253Y-180553902D01*
X112084867Y-180573607D01*
X112097480Y-180594651D01*
X112107970Y-180616829D01*
X112116235Y-180639929D01*
X112122196Y-180663727D01*
X112125796Y-180687996D01*
X112127000Y-180712500D01*
X112127000Y-181637500D01*
X112125796Y-181662004D01*
X112122196Y-181686273D01*
X112116235Y-181710071D01*
X112107970Y-181733171D01*
X112097480Y-181755349D01*
X112084867Y-181776393D01*
X112070253Y-181796098D01*
X112053777Y-181814277D01*
X112035598Y-181830753D01*
X112015893Y-181845367D01*
X111994849Y-181857980D01*
X111972671Y-181868470D01*
X111949571Y-181876735D01*
X111925773Y-181882696D01*
X111901504Y-181886296D01*
X111877000Y-181887500D01*
X110627000Y-181887500D01*
X110602496Y-181886296D01*
X110578227Y-181882696D01*
X110554429Y-181876735D01*
X110531329Y-181868470D01*
X110509151Y-181857980D01*
X110488107Y-181845367D01*
X110468402Y-181830753D01*
X110450223Y-181814277D01*
X110433747Y-181796098D01*
X110419133Y-181776393D01*
X110406520Y-181755349D01*
X110396030Y-181733171D01*
X110387765Y-181710071D01*
X110381804Y-181686273D01*
X110378204Y-181662004D01*
X110377000Y-181637500D01*
X110377000Y-180712500D01*
X110378204Y-180687996D01*
X110381804Y-180663727D01*
X110387765Y-180639929D01*
X110396030Y-180616829D01*
X110406520Y-180594651D01*
X110419133Y-180573607D01*
X110433747Y-180553902D01*
X110450223Y-180535723D01*
X110468402Y-180519247D01*
X110488107Y-180504633D01*
X110509151Y-180492020D01*
X110531329Y-180481530D01*
X110554429Y-180473265D01*
X110578227Y-180467304D01*
X110602496Y-180463704D01*
X110627000Y-180462500D01*
X111877000Y-180462500D01*
X111901504Y-180463704D01*
G37*
G36*
X111901504Y-183438704D02*
G01*
X111925773Y-183442304D01*
X111949571Y-183448265D01*
X111972671Y-183456530D01*
X111994849Y-183467020D01*
X112015893Y-183479633D01*
X112035598Y-183494247D01*
X112053777Y-183510723D01*
X112070253Y-183528902D01*
X112084867Y-183548607D01*
X112097480Y-183569651D01*
X112107970Y-183591829D01*
X112116235Y-183614929D01*
X112122196Y-183638727D01*
X112125796Y-183662996D01*
X112127000Y-183687500D01*
X112127000Y-184612500D01*
X112125796Y-184637004D01*
X112122196Y-184661273D01*
X112116235Y-184685071D01*
X112107970Y-184708171D01*
X112097480Y-184730349D01*
X112084867Y-184751393D01*
X112070253Y-184771098D01*
X112053777Y-184789277D01*
X112035598Y-184805753D01*
X112015893Y-184820367D01*
X111994849Y-184832980D01*
X111972671Y-184843470D01*
X111949571Y-184851735D01*
X111925773Y-184857696D01*
X111901504Y-184861296D01*
X111877000Y-184862500D01*
X110627000Y-184862500D01*
X110602496Y-184861296D01*
X110578227Y-184857696D01*
X110554429Y-184851735D01*
X110531329Y-184843470D01*
X110509151Y-184832980D01*
X110488107Y-184820367D01*
X110468402Y-184805753D01*
X110450223Y-184789277D01*
X110433747Y-184771098D01*
X110419133Y-184751393D01*
X110406520Y-184730349D01*
X110396030Y-184708171D01*
X110387765Y-184685071D01*
X110381804Y-184661273D01*
X110378204Y-184637004D01*
X110377000Y-184612500D01*
X110377000Y-183687500D01*
X110378204Y-183662996D01*
X110381804Y-183638727D01*
X110387765Y-183614929D01*
X110396030Y-183591829D01*
X110406520Y-183569651D01*
X110419133Y-183548607D01*
X110433747Y-183528902D01*
X110450223Y-183510723D01*
X110468402Y-183494247D01*
X110488107Y-183479633D01*
X110509151Y-183467020D01*
X110531329Y-183456530D01*
X110554429Y-183448265D01*
X110578227Y-183442304D01*
X110602496Y-183438704D01*
X110627000Y-183437500D01*
X111877000Y-183437500D01*
X111901504Y-183438704D01*
G37*
G36*
X153049504Y-123966204D02*
G01*
X153073773Y-123969804D01*
X153097571Y-123975765D01*
X153120671Y-123984030D01*
X153142849Y-123994520D01*
X153163893Y-124007133D01*
X153183598Y-124021747D01*
X153201777Y-124038223D01*
X153218253Y-124056402D01*
X153232867Y-124076107D01*
X153245480Y-124097151D01*
X153255970Y-124119329D01*
X153264235Y-124142429D01*
X153270196Y-124166227D01*
X153273796Y-124190496D01*
X153275000Y-124215000D01*
X153275000Y-125140000D01*
X153273796Y-125164504D01*
X153270196Y-125188773D01*
X153264235Y-125212571D01*
X153255970Y-125235671D01*
X153245480Y-125257849D01*
X153232867Y-125278893D01*
X153218253Y-125298598D01*
X153201777Y-125316777D01*
X153183598Y-125333253D01*
X153163893Y-125347867D01*
X153142849Y-125360480D01*
X153120671Y-125370970D01*
X153097571Y-125379235D01*
X153073773Y-125385196D01*
X153049504Y-125388796D01*
X153025000Y-125390000D01*
X151775000Y-125390000D01*
X151750496Y-125388796D01*
X151726227Y-125385196D01*
X151702429Y-125379235D01*
X151679329Y-125370970D01*
X151657151Y-125360480D01*
X151636107Y-125347867D01*
X151616402Y-125333253D01*
X151598223Y-125316777D01*
X151581747Y-125298598D01*
X151567133Y-125278893D01*
X151554520Y-125257849D01*
X151544030Y-125235671D01*
X151535765Y-125212571D01*
X151529804Y-125188773D01*
X151526204Y-125164504D01*
X151525000Y-125140000D01*
X151525000Y-124215000D01*
X151526204Y-124190496D01*
X151529804Y-124166227D01*
X151535765Y-124142429D01*
X151544030Y-124119329D01*
X151554520Y-124097151D01*
X151567133Y-124076107D01*
X151581747Y-124056402D01*
X151598223Y-124038223D01*
X151616402Y-124021747D01*
X151636107Y-124007133D01*
X151657151Y-123994520D01*
X151679329Y-123984030D01*
X151702429Y-123975765D01*
X151726227Y-123969804D01*
X151750496Y-123966204D01*
X151775000Y-123965000D01*
X153025000Y-123965000D01*
X153049504Y-123966204D01*
G37*
G36*
X153049504Y-120991204D02*
G01*
X153073773Y-120994804D01*
X153097571Y-121000765D01*
X153120671Y-121009030D01*
X153142849Y-121019520D01*
X153163893Y-121032133D01*
X153183598Y-121046747D01*
X153201777Y-121063223D01*
X153218253Y-121081402D01*
X153232867Y-121101107D01*
X153245480Y-121122151D01*
X153255970Y-121144329D01*
X153264235Y-121167429D01*
X153270196Y-121191227D01*
X153273796Y-121215496D01*
X153275000Y-121240000D01*
X153275000Y-122165000D01*
X153273796Y-122189504D01*
X153270196Y-122213773D01*
X153264235Y-122237571D01*
X153255970Y-122260671D01*
X153245480Y-122282849D01*
X153232867Y-122303893D01*
X153218253Y-122323598D01*
X153201777Y-122341777D01*
X153183598Y-122358253D01*
X153163893Y-122372867D01*
X153142849Y-122385480D01*
X153120671Y-122395970D01*
X153097571Y-122404235D01*
X153073773Y-122410196D01*
X153049504Y-122413796D01*
X153025000Y-122415000D01*
X151775000Y-122415000D01*
X151750496Y-122413796D01*
X151726227Y-122410196D01*
X151702429Y-122404235D01*
X151679329Y-122395970D01*
X151657151Y-122385480D01*
X151636107Y-122372867D01*
X151616402Y-122358253D01*
X151598223Y-122341777D01*
X151581747Y-122323598D01*
X151567133Y-122303893D01*
X151554520Y-122282849D01*
X151544030Y-122260671D01*
X151535765Y-122237571D01*
X151529804Y-122213773D01*
X151526204Y-122189504D01*
X151525000Y-122165000D01*
X151525000Y-121240000D01*
X151526204Y-121215496D01*
X151529804Y-121191227D01*
X151535765Y-121167429D01*
X151544030Y-121144329D01*
X151554520Y-121122151D01*
X151567133Y-121101107D01*
X151581747Y-121081402D01*
X151598223Y-121063223D01*
X151616402Y-121046747D01*
X151636107Y-121032133D01*
X151657151Y-121019520D01*
X151679329Y-121009030D01*
X151702429Y-121000765D01*
X151726227Y-120994804D01*
X151750496Y-120991204D01*
X151775000Y-120990000D01*
X153025000Y-120990000D01*
X153049504Y-120991204D01*
G37*
G36*
X153176504Y-143778204D02*
G01*
X153200773Y-143781804D01*
X153224571Y-143787765D01*
X153247671Y-143796030D01*
X153269849Y-143806520D01*
X153290893Y-143819133D01*
X153310598Y-143833747D01*
X153328777Y-143850223D01*
X153345253Y-143868402D01*
X153359867Y-143888107D01*
X153372480Y-143909151D01*
X153382970Y-143931329D01*
X153391235Y-143954429D01*
X153397196Y-143978227D01*
X153400796Y-144002496D01*
X153402000Y-144027000D01*
X153402000Y-144952000D01*
X153400796Y-144976504D01*
X153397196Y-145000773D01*
X153391235Y-145024571D01*
X153382970Y-145047671D01*
X153372480Y-145069849D01*
X153359867Y-145090893D01*
X153345253Y-145110598D01*
X153328777Y-145128777D01*
X153310598Y-145145253D01*
X153290893Y-145159867D01*
X153269849Y-145172480D01*
X153247671Y-145182970D01*
X153224571Y-145191235D01*
X153200773Y-145197196D01*
X153176504Y-145200796D01*
X153152000Y-145202000D01*
X151902000Y-145202000D01*
X151877496Y-145200796D01*
X151853227Y-145197196D01*
X151829429Y-145191235D01*
X151806329Y-145182970D01*
X151784151Y-145172480D01*
X151763107Y-145159867D01*
X151743402Y-145145253D01*
X151725223Y-145128777D01*
X151708747Y-145110598D01*
X151694133Y-145090893D01*
X151681520Y-145069849D01*
X151671030Y-145047671D01*
X151662765Y-145024571D01*
X151656804Y-145000773D01*
X151653204Y-144976504D01*
X151652000Y-144952000D01*
X151652000Y-144027000D01*
X151653204Y-144002496D01*
X151656804Y-143978227D01*
X151662765Y-143954429D01*
X151671030Y-143931329D01*
X151681520Y-143909151D01*
X151694133Y-143888107D01*
X151708747Y-143868402D01*
X151725223Y-143850223D01*
X151743402Y-143833747D01*
X151763107Y-143819133D01*
X151784151Y-143806520D01*
X151806329Y-143796030D01*
X151829429Y-143787765D01*
X151853227Y-143781804D01*
X151877496Y-143778204D01*
X151902000Y-143777000D01*
X153152000Y-143777000D01*
X153176504Y-143778204D01*
G37*
G36*
X153176504Y-140803204D02*
G01*
X153200773Y-140806804D01*
X153224571Y-140812765D01*
X153247671Y-140821030D01*
X153269849Y-140831520D01*
X153290893Y-140844133D01*
X153310598Y-140858747D01*
X153328777Y-140875223D01*
X153345253Y-140893402D01*
X153359867Y-140913107D01*
X153372480Y-140934151D01*
X153382970Y-140956329D01*
X153391235Y-140979429D01*
X153397196Y-141003227D01*
X153400796Y-141027496D01*
X153402000Y-141052000D01*
X153402000Y-141977000D01*
X153400796Y-142001504D01*
X153397196Y-142025773D01*
X153391235Y-142049571D01*
X153382970Y-142072671D01*
X153372480Y-142094849D01*
X153359867Y-142115893D01*
X153345253Y-142135598D01*
X153328777Y-142153777D01*
X153310598Y-142170253D01*
X153290893Y-142184867D01*
X153269849Y-142197480D01*
X153247671Y-142207970D01*
X153224571Y-142216235D01*
X153200773Y-142222196D01*
X153176504Y-142225796D01*
X153152000Y-142227000D01*
X151902000Y-142227000D01*
X151877496Y-142225796D01*
X151853227Y-142222196D01*
X151829429Y-142216235D01*
X151806329Y-142207970D01*
X151784151Y-142197480D01*
X151763107Y-142184867D01*
X151743402Y-142170253D01*
X151725223Y-142153777D01*
X151708747Y-142135598D01*
X151694133Y-142115893D01*
X151681520Y-142094849D01*
X151671030Y-142072671D01*
X151662765Y-142049571D01*
X151656804Y-142025773D01*
X151653204Y-142001504D01*
X151652000Y-141977000D01*
X151652000Y-141052000D01*
X151653204Y-141027496D01*
X151656804Y-141003227D01*
X151662765Y-140979429D01*
X151671030Y-140956329D01*
X151681520Y-140934151D01*
X151694133Y-140913107D01*
X151708747Y-140893402D01*
X151725223Y-140875223D01*
X151743402Y-140858747D01*
X151763107Y-140844133D01*
X151784151Y-140831520D01*
X151806329Y-140821030D01*
X151829429Y-140812765D01*
X151853227Y-140806804D01*
X151877496Y-140803204D01*
X151902000Y-140802000D01*
X153152000Y-140802000D01*
X153176504Y-140803204D01*
G37*
G36*
X151525504Y-160488204D02*
G01*
X151549773Y-160491804D01*
X151573571Y-160497765D01*
X151596671Y-160506030D01*
X151618849Y-160516520D01*
X151639893Y-160529133D01*
X151659598Y-160543747D01*
X151677777Y-160560223D01*
X151694253Y-160578402D01*
X151708867Y-160598107D01*
X151721480Y-160619151D01*
X151731970Y-160641329D01*
X151740235Y-160664429D01*
X151746196Y-160688227D01*
X151749796Y-160712496D01*
X151751000Y-160737000D01*
X151751000Y-161662000D01*
X151749796Y-161686504D01*
X151746196Y-161710773D01*
X151740235Y-161734571D01*
X151731970Y-161757671D01*
X151721480Y-161779849D01*
X151708867Y-161800893D01*
X151694253Y-161820598D01*
X151677777Y-161838777D01*
X151659598Y-161855253D01*
X151639893Y-161869867D01*
X151618849Y-161882480D01*
X151596671Y-161892970D01*
X151573571Y-161901235D01*
X151549773Y-161907196D01*
X151525504Y-161910796D01*
X151501000Y-161912000D01*
X150251000Y-161912000D01*
X150226496Y-161910796D01*
X150202227Y-161907196D01*
X150178429Y-161901235D01*
X150155329Y-161892970D01*
X150133151Y-161882480D01*
X150112107Y-161869867D01*
X150092402Y-161855253D01*
X150074223Y-161838777D01*
X150057747Y-161820598D01*
X150043133Y-161800893D01*
X150030520Y-161779849D01*
X150020030Y-161757671D01*
X150011765Y-161734571D01*
X150005804Y-161710773D01*
X150002204Y-161686504D01*
X150001000Y-161662000D01*
X150001000Y-160737000D01*
X150002204Y-160712496D01*
X150005804Y-160688227D01*
X150011765Y-160664429D01*
X150020030Y-160641329D01*
X150030520Y-160619151D01*
X150043133Y-160598107D01*
X150057747Y-160578402D01*
X150074223Y-160560223D01*
X150092402Y-160543747D01*
X150112107Y-160529133D01*
X150133151Y-160516520D01*
X150155329Y-160506030D01*
X150178429Y-160497765D01*
X150202227Y-160491804D01*
X150226496Y-160488204D01*
X150251000Y-160487000D01*
X151501000Y-160487000D01*
X151525504Y-160488204D01*
G37*
G36*
X151525504Y-163463204D02*
G01*
X151549773Y-163466804D01*
X151573571Y-163472765D01*
X151596671Y-163481030D01*
X151618849Y-163491520D01*
X151639893Y-163504133D01*
X151659598Y-163518747D01*
X151677777Y-163535223D01*
X151694253Y-163553402D01*
X151708867Y-163573107D01*
X151721480Y-163594151D01*
X151731970Y-163616329D01*
X151740235Y-163639429D01*
X151746196Y-163663227D01*
X151749796Y-163687496D01*
X151751000Y-163712000D01*
X151751000Y-164637000D01*
X151749796Y-164661504D01*
X151746196Y-164685773D01*
X151740235Y-164709571D01*
X151731970Y-164732671D01*
X151721480Y-164754849D01*
X151708867Y-164775893D01*
X151694253Y-164795598D01*
X151677777Y-164813777D01*
X151659598Y-164830253D01*
X151639893Y-164844867D01*
X151618849Y-164857480D01*
X151596671Y-164867970D01*
X151573571Y-164876235D01*
X151549773Y-164882196D01*
X151525504Y-164885796D01*
X151501000Y-164887000D01*
X150251000Y-164887000D01*
X150226496Y-164885796D01*
X150202227Y-164882196D01*
X150178429Y-164876235D01*
X150155329Y-164867970D01*
X150133151Y-164857480D01*
X150112107Y-164844867D01*
X150092402Y-164830253D01*
X150074223Y-164813777D01*
X150057747Y-164795598D01*
X150043133Y-164775893D01*
X150030520Y-164754849D01*
X150020030Y-164732671D01*
X150011765Y-164709571D01*
X150005804Y-164685773D01*
X150002204Y-164661504D01*
X150001000Y-164637000D01*
X150001000Y-163712000D01*
X150002204Y-163687496D01*
X150005804Y-163663227D01*
X150011765Y-163639429D01*
X150020030Y-163616329D01*
X150030520Y-163594151D01*
X150043133Y-163573107D01*
X150057747Y-163553402D01*
X150074223Y-163535223D01*
X150092402Y-163518747D01*
X150112107Y-163504133D01*
X150133151Y-163491520D01*
X150155329Y-163481030D01*
X150178429Y-163472765D01*
X150202227Y-163466804D01*
X150226496Y-163463204D01*
X150251000Y-163462000D01*
X151501000Y-163462000D01*
X151525504Y-163463204D01*
G37*
G36*
X151525504Y-180427204D02*
G01*
X151549773Y-180430804D01*
X151573571Y-180436765D01*
X151596671Y-180445030D01*
X151618849Y-180455520D01*
X151639893Y-180468133D01*
X151659598Y-180482747D01*
X151677777Y-180499223D01*
X151694253Y-180517402D01*
X151708867Y-180537107D01*
X151721480Y-180558151D01*
X151731970Y-180580329D01*
X151740235Y-180603429D01*
X151746196Y-180627227D01*
X151749796Y-180651496D01*
X151751000Y-180676000D01*
X151751000Y-181601000D01*
X151749796Y-181625504D01*
X151746196Y-181649773D01*
X151740235Y-181673571D01*
X151731970Y-181696671D01*
X151721480Y-181718849D01*
X151708867Y-181739893D01*
X151694253Y-181759598D01*
X151677777Y-181777777D01*
X151659598Y-181794253D01*
X151639893Y-181808867D01*
X151618849Y-181821480D01*
X151596671Y-181831970D01*
X151573571Y-181840235D01*
X151549773Y-181846196D01*
X151525504Y-181849796D01*
X151501000Y-181851000D01*
X150251000Y-181851000D01*
X150226496Y-181849796D01*
X150202227Y-181846196D01*
X150178429Y-181840235D01*
X150155329Y-181831970D01*
X150133151Y-181821480D01*
X150112107Y-181808867D01*
X150092402Y-181794253D01*
X150074223Y-181777777D01*
X150057747Y-181759598D01*
X150043133Y-181739893D01*
X150030520Y-181718849D01*
X150020030Y-181696671D01*
X150011765Y-181673571D01*
X150005804Y-181649773D01*
X150002204Y-181625504D01*
X150001000Y-181601000D01*
X150001000Y-180676000D01*
X150002204Y-180651496D01*
X150005804Y-180627227D01*
X150011765Y-180603429D01*
X150020030Y-180580329D01*
X150030520Y-180558151D01*
X150043133Y-180537107D01*
X150057747Y-180517402D01*
X150074223Y-180499223D01*
X150092402Y-180482747D01*
X150112107Y-180468133D01*
X150133151Y-180455520D01*
X150155329Y-180445030D01*
X150178429Y-180436765D01*
X150202227Y-180430804D01*
X150226496Y-180427204D01*
X150251000Y-180426000D01*
X151501000Y-180426000D01*
X151525504Y-180427204D01*
G37*
G36*
X151525504Y-183402204D02*
G01*
X151549773Y-183405804D01*
X151573571Y-183411765D01*
X151596671Y-183420030D01*
X151618849Y-183430520D01*
X151639893Y-183443133D01*
X151659598Y-183457747D01*
X151677777Y-183474223D01*
X151694253Y-183492402D01*
X151708867Y-183512107D01*
X151721480Y-183533151D01*
X151731970Y-183555329D01*
X151740235Y-183578429D01*
X151746196Y-183602227D01*
X151749796Y-183626496D01*
X151751000Y-183651000D01*
X151751000Y-184576000D01*
X151749796Y-184600504D01*
X151746196Y-184624773D01*
X151740235Y-184648571D01*
X151731970Y-184671671D01*
X151721480Y-184693849D01*
X151708867Y-184714893D01*
X151694253Y-184734598D01*
X151677777Y-184752777D01*
X151659598Y-184769253D01*
X151639893Y-184783867D01*
X151618849Y-184796480D01*
X151596671Y-184806970D01*
X151573571Y-184815235D01*
X151549773Y-184821196D01*
X151525504Y-184824796D01*
X151501000Y-184826000D01*
X150251000Y-184826000D01*
X150226496Y-184824796D01*
X150202227Y-184821196D01*
X150178429Y-184815235D01*
X150155329Y-184806970D01*
X150133151Y-184796480D01*
X150112107Y-184783867D01*
X150092402Y-184769253D01*
X150074223Y-184752777D01*
X150057747Y-184734598D01*
X150043133Y-184714893D01*
X150030520Y-184693849D01*
X150020030Y-184671671D01*
X150011765Y-184648571D01*
X150005804Y-184624773D01*
X150002204Y-184600504D01*
X150001000Y-184576000D01*
X150001000Y-183651000D01*
X150002204Y-183626496D01*
X150005804Y-183602227D01*
X150011765Y-183578429D01*
X150020030Y-183555329D01*
X150030520Y-183533151D01*
X150043133Y-183512107D01*
X150057747Y-183492402D01*
X150074223Y-183474223D01*
X150092402Y-183457747D01*
X150112107Y-183443133D01*
X150133151Y-183430520D01*
X150155329Y-183420030D01*
X150178429Y-183411765D01*
X150202227Y-183405804D01*
X150226496Y-183402204D01*
X150251000Y-183401000D01*
X151501000Y-183401000D01*
X151525504Y-183402204D01*
G37*
M02*
