G04 #@! TF.GenerationSoftware,KiCad,Pcbnew,(5.1.5)-3*
G04 #@! TF.CreationDate,2020-07-02T20:41:21-07:00*
G04 #@! TF.ProjectId,daughter,64617567-6874-4657-922e-6b696361645f,rev?*
G04 #@! TF.SameCoordinates,Original*
G04 #@! TF.FileFunction,Legend,Top*
G04 #@! TF.FilePolarity,Positive*
%FSLAX46Y46*%
G04 Gerber Fmt 4.6, Leading zero omitted, Abs format (unit mm)*
G04 Created by KiCad (PCBNEW (5.1.5)-3) date 2020-07-02 20:41:21*
%MOMM*%
%LPD*%
G04 APERTURE LIST*
%ADD10C,0.050000*%
%ADD11C,0.120000*%
%ADD12C,0.150000*%
G04 APERTURE END LIST*
D10*
X143510000Y-186690000D02*
X159512000Y-186690000D01*
X139192000Y-185928000D02*
X138430000Y-186690000D01*
X142748000Y-185928000D02*
X139192000Y-185928000D01*
X143510000Y-186690000D02*
X142748000Y-185928000D01*
X74930000Y-121158000D02*
X74930000Y-117094000D01*
X76454000Y-122682000D02*
X74930000Y-121158000D01*
X76454000Y-136652000D02*
X76454000Y-122682000D01*
X77724000Y-137922000D02*
X76454000Y-136652000D01*
X77724000Y-137922000D02*
X77724001Y-186690001D01*
X81534000Y-186690000D02*
X81536221Y-189928213D01*
X98806000Y-186690000D02*
X81534000Y-186690000D01*
X99568000Y-185928000D02*
X98806000Y-186690000D01*
X103124000Y-185928000D02*
X99568000Y-185928000D01*
X103886000Y-186690000D02*
X103124000Y-185928000D01*
X118618000Y-186690000D02*
X103886000Y-186690000D01*
X119380000Y-185928000D02*
X118618000Y-186690000D01*
X122936000Y-185928000D02*
X119380000Y-185928000D01*
X123698000Y-186690000D02*
X122936000Y-185928000D01*
X138430000Y-186690000D02*
X123698000Y-186690000D01*
X159512000Y-192151000D02*
X159512000Y-186690000D01*
X159512000Y-192151000D02*
X163576000Y-192151000D01*
X165735000Y-122301000D02*
X165735000Y-187579000D01*
X167386000Y-120650000D02*
X165735000Y-122301000D01*
X167386000Y-116840000D02*
X167386000Y-120650000D01*
X159258000Y-116840000D02*
X167386000Y-116840000D01*
X159258000Y-118872000D02*
X159258000Y-116840000D01*
X157988000Y-120142000D02*
X159258000Y-118872000D01*
X148336000Y-120142000D02*
X157988000Y-120142000D01*
X148336000Y-126238000D02*
X148336000Y-120142000D01*
X157988000Y-126238000D02*
X148336000Y-126238000D01*
X159258000Y-127508000D02*
X157988000Y-126238000D01*
X159258000Y-129286000D02*
X159258000Y-127508000D01*
X160655000Y-130683000D02*
X159258000Y-129286000D01*
X160655000Y-134620000D02*
X160655000Y-130683000D01*
X159512000Y-135763000D02*
X160655000Y-134620000D01*
X159512000Y-138684000D02*
X159512000Y-135763000D01*
X158242000Y-139954000D02*
X159512000Y-138684000D01*
X148336000Y-139954000D02*
X158242000Y-139954000D01*
X148336000Y-146050000D02*
X148336000Y-139954000D01*
X158242000Y-146050000D02*
X148336000Y-146050000D01*
X159512000Y-147320000D02*
X158242000Y-146050000D01*
X159512000Y-158496000D02*
X159512000Y-147320000D01*
X158242000Y-159766000D02*
X159512000Y-158496000D01*
X146812000Y-159766000D02*
X158242000Y-159766000D01*
X146812000Y-165862000D02*
X146812000Y-159766000D01*
X158242000Y-165862000D02*
X146812000Y-165862000D01*
X159512000Y-167132000D02*
X158242000Y-165862000D01*
X159512000Y-178308000D02*
X159512000Y-167132000D01*
X158242000Y-179578000D02*
X159512000Y-178308000D01*
X143510000Y-179578000D02*
X158242000Y-179578000D01*
X142748000Y-180340000D02*
X143510000Y-179578000D01*
X139192000Y-180340000D02*
X142748000Y-180340000D01*
X138430000Y-179578000D02*
X139192000Y-180340000D01*
X123190000Y-179578000D02*
X138430000Y-179578000D01*
X123190000Y-176530000D02*
X123190000Y-179578000D01*
X121920000Y-176530000D02*
X123190000Y-176530000D01*
X121920000Y-172974000D02*
X121920000Y-176530000D01*
X121539000Y-172593000D02*
X121920000Y-172974000D01*
X121539000Y-168783000D02*
X121539000Y-172593000D01*
X121920000Y-168402000D02*
X121539000Y-168783000D01*
X121920000Y-167132000D02*
X121920000Y-168402000D01*
X123190000Y-165862000D02*
X121920000Y-167132000D01*
X135128000Y-165862000D02*
X123190000Y-165862000D01*
X135128000Y-159766000D02*
X135128000Y-165862000D01*
X107188000Y-159766000D02*
X135128000Y-159766000D01*
X107188000Y-165862000D02*
X107188000Y-159766000D01*
X117856000Y-165862000D02*
X107188000Y-165862000D01*
X119126000Y-167132000D02*
X117856000Y-165862000D01*
X119126000Y-178308000D02*
X119126000Y-167132000D01*
X117856000Y-179578000D02*
X119126000Y-178308000D01*
X103886000Y-179578000D02*
X117856000Y-179578000D01*
X103124000Y-180340000D02*
X103886000Y-179578000D01*
X99568000Y-180340000D02*
X103124000Y-180340000D01*
X98806000Y-179578000D02*
X99568000Y-180340000D01*
X82804000Y-179578000D02*
X98806000Y-179578000D01*
X81534000Y-178308000D02*
X82804000Y-179578000D01*
X81534000Y-167132000D02*
X81534000Y-178308000D01*
X82804000Y-165862000D02*
X81534000Y-167132000D01*
X95504000Y-165862000D02*
X82804000Y-165862000D01*
X95504000Y-159766000D02*
X95504000Y-165862000D01*
X82804000Y-159766000D02*
X95504000Y-159766000D01*
X81534000Y-158496000D02*
X82804000Y-159766000D01*
X81534000Y-147320000D02*
X81534000Y-158496000D01*
X82804000Y-146050000D02*
X81534000Y-147320000D01*
X93726000Y-146050000D02*
X82804000Y-146050000D01*
X93726000Y-139954000D02*
X93726000Y-146050000D01*
X82804000Y-139954000D02*
X93726000Y-139954000D01*
X81534000Y-138684000D02*
X82804000Y-139954000D01*
X81534000Y-137922000D02*
X81534000Y-138684000D01*
X80264000Y-136652000D02*
X81534000Y-137922000D01*
X80264000Y-133604000D02*
X80264000Y-136652000D01*
X81534000Y-132334000D02*
X80264000Y-133604000D01*
X81534000Y-125984000D02*
X81534000Y-132334000D01*
X82042000Y-125476000D02*
X81534000Y-125984000D01*
X84836000Y-125476000D02*
X82042000Y-125476000D01*
X85598000Y-126238000D02*
X84836000Y-125476000D01*
X93726000Y-126238000D02*
X85598000Y-126238000D01*
X93726000Y-120142000D02*
X93726000Y-126238000D01*
X84074000Y-120142000D02*
X93726000Y-120142000D01*
X82804000Y-118872000D02*
X84074000Y-120142000D01*
X82804000Y-117094000D02*
X82804000Y-118872000D01*
X74930000Y-117094000D02*
X82804000Y-117094000D01*
D11*
X165731919Y-187579797D02*
G75*
G02X163576000Y-192151000I-2155919J-1777203D01*
G01*
D12*
X81536221Y-189928213D02*
G75*
G02X77724001Y-186690001I-2796221J571213D01*
G01*
D11*
X87790000Y-179876000D02*
X95090000Y-179876000D01*
X87790000Y-185376000D02*
X95090000Y-185376000D01*
X95090000Y-185376000D02*
X95090000Y-184226000D01*
X95090000Y-165564000D02*
X95090000Y-164414000D01*
X87790000Y-165564000D02*
X95090000Y-165564000D01*
X87790000Y-160064000D02*
X95090000Y-160064000D01*
X86139000Y-140252000D02*
X93439000Y-140252000D01*
X86139000Y-145752000D02*
X93439000Y-145752000D01*
X93439000Y-145752000D02*
X93439000Y-144602000D01*
X86139000Y-120440000D02*
X93439000Y-120440000D01*
X86139000Y-125940000D02*
X93439000Y-125940000D01*
X93439000Y-125940000D02*
X93439000Y-124790000D01*
X134714000Y-185376000D02*
X134714000Y-184226000D01*
X127414000Y-185376000D02*
X134714000Y-185376000D01*
X127414000Y-179876000D02*
X134714000Y-179876000D01*
X134714000Y-165564000D02*
X134714000Y-164414000D01*
X127414000Y-165564000D02*
X134714000Y-165564000D01*
X127414000Y-160064000D02*
X134714000Y-160064000D01*
X114902000Y-165564000D02*
X107602000Y-165564000D01*
X114902000Y-160064000D02*
X107602000Y-160064000D01*
X107602000Y-160064000D02*
X107602000Y-161214000D01*
X114902000Y-185376000D02*
X107602000Y-185376000D01*
X114902000Y-179876000D02*
X107602000Y-179876000D01*
X107602000Y-179876000D02*
X107602000Y-181026000D01*
X148877000Y-120440000D02*
X148877000Y-121590000D01*
X156177000Y-120440000D02*
X148877000Y-120440000D01*
X156177000Y-125940000D02*
X148877000Y-125940000D01*
X148877000Y-140252000D02*
X148877000Y-141402000D01*
X156177000Y-140252000D02*
X148877000Y-140252000D01*
X156177000Y-145752000D02*
X148877000Y-145752000D01*
X154526000Y-165437000D02*
X147226000Y-165437000D01*
X154526000Y-159937000D02*
X147226000Y-159937000D01*
X147226000Y-159937000D02*
X147226000Y-161087000D01*
X147226000Y-179876000D02*
X147226000Y-181026000D01*
X154526000Y-179876000D02*
X147226000Y-179876000D01*
X154526000Y-185376000D02*
X147226000Y-185376000D01*
X82864000Y-120456000D02*
X82864000Y-117796000D01*
X77724000Y-120456000D02*
X82864000Y-120456000D01*
X77724000Y-117796000D02*
X82864000Y-117796000D01*
X77724000Y-120456000D02*
X77724000Y-117796000D01*
X76454000Y-120456000D02*
X75124000Y-120456000D01*
X75124000Y-120456000D02*
X75124000Y-119126000D01*
X167192000Y-120456000D02*
X167192000Y-117796000D01*
X162052000Y-120456000D02*
X167192000Y-120456000D01*
X162052000Y-117796000D02*
X167192000Y-117796000D01*
X162052000Y-120456000D02*
X162052000Y-117796000D01*
X160782000Y-120456000D02*
X159452000Y-120456000D01*
X159452000Y-120456000D02*
X159452000Y-119126000D01*
D12*
X87575714Y-181478380D02*
X87004285Y-181478380D01*
X87290000Y-181478380D02*
X87290000Y-180478380D01*
X87194761Y-180621238D01*
X87099523Y-180716476D01*
X87004285Y-180764095D01*
X87575714Y-161666380D02*
X87004285Y-161666380D01*
X87290000Y-161666380D02*
X87290000Y-160666380D01*
X87194761Y-160809238D01*
X87099523Y-160904476D01*
X87004285Y-160952095D01*
X85924714Y-141854380D02*
X85353285Y-141854380D01*
X85639000Y-141854380D02*
X85639000Y-140854380D01*
X85543761Y-140997238D01*
X85448523Y-141092476D01*
X85353285Y-141140095D01*
X85924714Y-122042380D02*
X85353285Y-122042380D01*
X85639000Y-122042380D02*
X85639000Y-121042380D01*
X85543761Y-121185238D01*
X85448523Y-121280476D01*
X85353285Y-121328095D01*
X127199714Y-181478380D02*
X126628285Y-181478380D01*
X126914000Y-181478380D02*
X126914000Y-180478380D01*
X126818761Y-180621238D01*
X126723523Y-180716476D01*
X126628285Y-180764095D01*
X127199714Y-161666380D02*
X126628285Y-161666380D01*
X126914000Y-161666380D02*
X126914000Y-160666380D01*
X126818761Y-160809238D01*
X126723523Y-160904476D01*
X126628285Y-160952095D01*
X115687714Y-164866380D02*
X115116285Y-164866380D01*
X115402000Y-164866380D02*
X115402000Y-163866380D01*
X115306761Y-164009238D01*
X115211523Y-164104476D01*
X115116285Y-164152095D01*
X115687714Y-184678380D02*
X115116285Y-184678380D01*
X115402000Y-184678380D02*
X115402000Y-183678380D01*
X115306761Y-183821238D01*
X115211523Y-183916476D01*
X115116285Y-183964095D01*
X156962714Y-125242380D02*
X156391285Y-125242380D01*
X156677000Y-125242380D02*
X156677000Y-124242380D01*
X156581761Y-124385238D01*
X156486523Y-124480476D01*
X156391285Y-124528095D01*
X156962714Y-145054380D02*
X156391285Y-145054380D01*
X156677000Y-145054380D02*
X156677000Y-144054380D01*
X156581761Y-144197238D01*
X156486523Y-144292476D01*
X156391285Y-144340095D01*
X155311714Y-164739380D02*
X154740285Y-164739380D01*
X155026000Y-164739380D02*
X155026000Y-163739380D01*
X154930761Y-163882238D01*
X154835523Y-163977476D01*
X154740285Y-164025095D01*
X155311714Y-184678380D02*
X154740285Y-184678380D01*
X155026000Y-184678380D02*
X155026000Y-183678380D01*
X154930761Y-183821238D01*
X154835523Y-183916476D01*
X154740285Y-183964095D01*
M02*
