M48
; DRILL file {KiCad (5.1.5)-3} date 7/2/2020 8:41:23 PM
; FORMAT={-:-/ absolute / inch / decimal}
; #@! TF.CreationDate,2020-07-02T20:41:23-07:00
; #@! TF.GenerationSoftware,Kicad,Pcbnew,(5.1.5)-3
; #@! TF.FileFunction,Plated,1,2,PTH
FMAT,2
INCH
T1C0.0118
T2C0.0157
T3C0.0394
%
G90
G05
T1
X3.6315Y-4.787
T2
X3.2114Y-4.84
X3.53Y-5.5714
X3.53Y-5.6886
X3.535Y-4.7914
X3.535Y-4.9086
X3.6Y-6.3514
X3.6Y-6.4686
X3.6Y-7.1314
X3.6Y-7.2486
X4.375Y-6.3514
X4.375Y-6.4686
X4.38Y-7.1329
X4.38Y-7.25
X5.155Y-6.3514
X5.155Y-6.4686
X5.16Y-7.1314
X5.16Y-7.2486
X5.94Y-6.3464
X5.94Y-6.4636
X5.94Y-7.1314
X5.94Y-7.2486
X6.0Y-4.7914
X6.0Y-4.9086
X6.005Y-5.5714
X6.005Y-5.6886
T3
X3.01Y-4.69
X3.11Y-4.69
X3.21Y-4.69
X6.33Y-4.69
X6.43Y-4.69
X6.53Y-4.69
T0
M30
