G04 #@! TF.GenerationSoftware,KiCad,Pcbnew,(5.1.5)-3*
G04 #@! TF.CreationDate,2020-07-02T20:41:21-07:00*
G04 #@! TF.ProjectId,daughter,64617567-6874-4657-922e-6b696361645f,rev?*
G04 #@! TF.SameCoordinates,Original*
G04 #@! TF.FileFunction,Copper,L1,Top*
G04 #@! TF.FilePolarity,Positive*
%FSLAX46Y46*%
G04 Gerber Fmt 4.6, Leading zero omitted, Abs format (unit mm)*
G04 Created by KiCad (PCBNEW (5.1.5)-3) date 2020-07-02 20:41:21*
%MOMM*%
%LPD*%
G04 APERTURE LIST*
%ADD10C,0.050000*%
%ADD11C,0.120000*%
%ADD12C,0.150000*%
%ADD13R,1.500000X1.000000*%
%ADD14R,1.700000X1.700000*%
%ADD15O,1.700000X1.700000*%
%ADD16C,0.800000*%
%ADD17C,0.600000*%
%ADD18C,0.500000*%
%ADD19C,0.135000*%
%ADD20C,0.250000*%
G04 APERTURE END LIST*
D10*
X143510000Y-186690000D02*
X159512000Y-186690000D01*
X139192000Y-185928000D02*
X138430000Y-186690000D01*
X142748000Y-185928000D02*
X139192000Y-185928000D01*
X143510000Y-186690000D02*
X142748000Y-185928000D01*
X74930000Y-121158000D02*
X74930000Y-117094000D01*
X76454000Y-122682000D02*
X74930000Y-121158000D01*
X76454000Y-136652000D02*
X76454000Y-122682000D01*
X77724000Y-137922000D02*
X76454000Y-136652000D01*
X77724000Y-137922000D02*
X77724001Y-186690001D01*
X81534000Y-186690000D02*
X81536221Y-189928213D01*
X98806000Y-186690000D02*
X81534000Y-186690000D01*
X99568000Y-185928000D02*
X98806000Y-186690000D01*
X103124000Y-185928000D02*
X99568000Y-185928000D01*
X103886000Y-186690000D02*
X103124000Y-185928000D01*
X118618000Y-186690000D02*
X103886000Y-186690000D01*
X119380000Y-185928000D02*
X118618000Y-186690000D01*
X122936000Y-185928000D02*
X119380000Y-185928000D01*
X123698000Y-186690000D02*
X122936000Y-185928000D01*
X138430000Y-186690000D02*
X123698000Y-186690000D01*
X159512000Y-192151000D02*
X159512000Y-186690000D01*
X159512000Y-192151000D02*
X163576000Y-192151000D01*
X165735000Y-122301000D02*
X165735000Y-187579000D01*
X167386000Y-120650000D02*
X165735000Y-122301000D01*
X167386000Y-116840000D02*
X167386000Y-120650000D01*
X159258000Y-116840000D02*
X167386000Y-116840000D01*
X159258000Y-118872000D02*
X159258000Y-116840000D01*
X157988000Y-120142000D02*
X159258000Y-118872000D01*
X148336000Y-120142000D02*
X157988000Y-120142000D01*
X148336000Y-126238000D02*
X148336000Y-120142000D01*
X157988000Y-126238000D02*
X148336000Y-126238000D01*
X159258000Y-127508000D02*
X157988000Y-126238000D01*
X159258000Y-129286000D02*
X159258000Y-127508000D01*
X160655000Y-130683000D02*
X159258000Y-129286000D01*
X160655000Y-134620000D02*
X160655000Y-130683000D01*
X159512000Y-135763000D02*
X160655000Y-134620000D01*
X159512000Y-138684000D02*
X159512000Y-135763000D01*
X158242000Y-139954000D02*
X159512000Y-138684000D01*
X148336000Y-139954000D02*
X158242000Y-139954000D01*
X148336000Y-146050000D02*
X148336000Y-139954000D01*
X158242000Y-146050000D02*
X148336000Y-146050000D01*
X159512000Y-147320000D02*
X158242000Y-146050000D01*
X159512000Y-158496000D02*
X159512000Y-147320000D01*
X158242000Y-159766000D02*
X159512000Y-158496000D01*
X146812000Y-159766000D02*
X158242000Y-159766000D01*
X146812000Y-165862000D02*
X146812000Y-159766000D01*
X158242000Y-165862000D02*
X146812000Y-165862000D01*
X159512000Y-167132000D02*
X158242000Y-165862000D01*
X159512000Y-178308000D02*
X159512000Y-167132000D01*
X158242000Y-179578000D02*
X159512000Y-178308000D01*
X143510000Y-179578000D02*
X158242000Y-179578000D01*
X142748000Y-180340000D02*
X143510000Y-179578000D01*
X139192000Y-180340000D02*
X142748000Y-180340000D01*
X138430000Y-179578000D02*
X139192000Y-180340000D01*
X123190000Y-179578000D02*
X138430000Y-179578000D01*
X123190000Y-176530000D02*
X123190000Y-179578000D01*
X121920000Y-176530000D02*
X123190000Y-176530000D01*
X121920000Y-172974000D02*
X121920000Y-176530000D01*
X121539000Y-172593000D02*
X121920000Y-172974000D01*
X121539000Y-168783000D02*
X121539000Y-172593000D01*
X121920000Y-168402000D02*
X121539000Y-168783000D01*
X121920000Y-167132000D02*
X121920000Y-168402000D01*
X123190000Y-165862000D02*
X121920000Y-167132000D01*
X135128000Y-165862000D02*
X123190000Y-165862000D01*
X135128000Y-159766000D02*
X135128000Y-165862000D01*
X107188000Y-159766000D02*
X135128000Y-159766000D01*
X107188000Y-165862000D02*
X107188000Y-159766000D01*
X117856000Y-165862000D02*
X107188000Y-165862000D01*
X119126000Y-167132000D02*
X117856000Y-165862000D01*
X119126000Y-178308000D02*
X119126000Y-167132000D01*
X117856000Y-179578000D02*
X119126000Y-178308000D01*
X103886000Y-179578000D02*
X117856000Y-179578000D01*
X103124000Y-180340000D02*
X103886000Y-179578000D01*
X99568000Y-180340000D02*
X103124000Y-180340000D01*
X98806000Y-179578000D02*
X99568000Y-180340000D01*
X82804000Y-179578000D02*
X98806000Y-179578000D01*
X81534000Y-178308000D02*
X82804000Y-179578000D01*
X81534000Y-167132000D02*
X81534000Y-178308000D01*
X82804000Y-165862000D02*
X81534000Y-167132000D01*
X95504000Y-165862000D02*
X82804000Y-165862000D01*
X95504000Y-159766000D02*
X95504000Y-165862000D01*
X82804000Y-159766000D02*
X95504000Y-159766000D01*
X81534000Y-158496000D02*
X82804000Y-159766000D01*
X81534000Y-147320000D02*
X81534000Y-158496000D01*
X82804000Y-146050000D02*
X81534000Y-147320000D01*
X93726000Y-146050000D02*
X82804000Y-146050000D01*
X93726000Y-139954000D02*
X93726000Y-146050000D01*
X82804000Y-139954000D02*
X93726000Y-139954000D01*
X81534000Y-138684000D02*
X82804000Y-139954000D01*
X81534000Y-137922000D02*
X81534000Y-138684000D01*
X80264000Y-136652000D02*
X81534000Y-137922000D01*
X80264000Y-133604000D02*
X80264000Y-136652000D01*
X81534000Y-132334000D02*
X80264000Y-133604000D01*
X81534000Y-125984000D02*
X81534000Y-132334000D01*
X82042000Y-125476000D02*
X81534000Y-125984000D01*
X84836000Y-125476000D02*
X82042000Y-125476000D01*
X85598000Y-126238000D02*
X84836000Y-125476000D01*
X93726000Y-126238000D02*
X85598000Y-126238000D01*
X93726000Y-120142000D02*
X93726000Y-126238000D01*
X84074000Y-120142000D02*
X93726000Y-120142000D01*
X82804000Y-118872000D02*
X84074000Y-120142000D01*
X82804000Y-117094000D02*
X82804000Y-118872000D01*
X74930000Y-117094000D02*
X82804000Y-117094000D01*
D11*
X165731919Y-187579797D02*
G75*
G02X163576000Y-192151000I-2155919J-1777203D01*
G01*
D12*
X81536221Y-189928213D02*
G75*
G02X77724001Y-186690001I-2796221J571213D01*
G01*
D13*
X93890000Y-184226000D03*
X93890000Y-181026000D03*
X88990000Y-184226000D03*
X88990000Y-181026000D03*
X88990000Y-161214000D03*
X88990000Y-164414000D03*
X93890000Y-161214000D03*
X93890000Y-164414000D03*
X92239000Y-144602000D03*
X92239000Y-141402000D03*
X87339000Y-144602000D03*
X87339000Y-141402000D03*
X92239000Y-124790000D03*
X92239000Y-121590000D03*
X87339000Y-124790000D03*
X87339000Y-121590000D03*
X128614000Y-181026000D03*
X128614000Y-184226000D03*
X133514000Y-181026000D03*
X133514000Y-184226000D03*
X128614000Y-161214000D03*
X128614000Y-164414000D03*
X133514000Y-161214000D03*
X133514000Y-164414000D03*
X108802000Y-161214000D03*
X108802000Y-164414000D03*
X113702000Y-161214000D03*
X113702000Y-164414000D03*
X108802000Y-181026000D03*
X108802000Y-184226000D03*
X113702000Y-181026000D03*
X113702000Y-184226000D03*
X154977000Y-124790000D03*
X154977000Y-121590000D03*
X150077000Y-124790000D03*
X150077000Y-121590000D03*
X154977000Y-144602000D03*
X154977000Y-141402000D03*
X150077000Y-144602000D03*
X150077000Y-141402000D03*
X148426000Y-161087000D03*
X148426000Y-164287000D03*
X153326000Y-161087000D03*
X153326000Y-164287000D03*
X153326000Y-184226000D03*
X153326000Y-181026000D03*
X148426000Y-184226000D03*
X148426000Y-181026000D03*
D14*
X76454000Y-119126000D03*
D15*
X78994000Y-119126000D03*
X81534000Y-119126000D03*
D14*
X160782000Y-119126000D03*
D15*
X163322000Y-119126000D03*
X165862000Y-119126000D03*
D16*
X152400000Y-121702500D03*
X152527000Y-141514500D03*
X150876000Y-161199500D03*
X150876000Y-181138500D03*
X131064000Y-184113500D03*
X130937000Y-164301500D03*
X111125000Y-161326500D03*
X111252000Y-181175000D03*
X91440000Y-184113500D03*
X91440000Y-164301500D03*
X89662000Y-144489500D03*
X89789000Y-124677500D03*
X89662000Y-141514500D03*
X91440000Y-161326500D03*
X111125000Y-164301500D03*
X130937000Y-161326500D03*
X111252000Y-184150000D03*
X131064000Y-181138500D03*
X150876000Y-184113500D03*
X150876000Y-164174500D03*
X152527000Y-144489500D03*
X152400000Y-124677500D03*
X91440000Y-181138500D03*
X89789000Y-121702500D03*
D17*
X92239000Y-121590000D03*
D16*
X81570500Y-122936000D03*
D18*
X150077000Y-121590000D02*
X152287500Y-121590000D01*
X152287500Y-121590000D02*
X152400000Y-121702500D01*
X150077000Y-141402000D02*
X152414500Y-141402000D01*
X152414500Y-141402000D02*
X152527000Y-141514500D01*
X148426000Y-161087000D02*
X150763500Y-161087000D01*
X150763500Y-161087000D02*
X150876000Y-161199500D01*
X148426000Y-181026000D02*
X150763500Y-181026000D01*
X150763500Y-181026000D02*
X150876000Y-181138500D01*
X133514000Y-184226000D02*
X131176500Y-184226000D01*
X131176500Y-184226000D02*
X131064000Y-184113500D01*
X133514000Y-164414000D02*
X131049500Y-164414000D01*
X131049500Y-164414000D02*
X130937000Y-164301500D01*
X108802000Y-161214000D02*
X111012500Y-161214000D01*
X111012500Y-161214000D02*
X111125000Y-161326500D01*
X108802000Y-181026000D02*
X111103000Y-181026000D01*
X111103000Y-181026000D02*
X111252000Y-181175000D01*
X93890000Y-184226000D02*
X91552500Y-184226000D01*
X91552500Y-184226000D02*
X91440000Y-184113500D01*
X93890000Y-164414000D02*
X91552500Y-164414000D01*
X91552500Y-164414000D02*
X91440000Y-164301500D01*
X92239000Y-144602000D02*
X89774500Y-144602000D01*
X89774500Y-144602000D02*
X89662000Y-144489500D01*
X92239000Y-124790000D02*
X89901500Y-124790000D01*
X89901500Y-124790000D02*
X89789000Y-124677500D01*
D19*
X87339000Y-121590000D02*
X87325000Y-121590000D01*
D18*
X76454000Y-120476000D02*
X80264000Y-124286000D01*
X76454000Y-119126000D02*
X76454000Y-120476000D01*
X80264000Y-124286000D02*
X80264000Y-131648200D01*
X80264000Y-131648200D02*
X78994000Y-132918200D01*
X78994000Y-132918200D02*
X78994000Y-137896600D01*
X82499400Y-141402000D02*
X87339000Y-141402000D01*
X78994000Y-137896600D02*
X82499400Y-141402000D01*
X87339000Y-141402000D02*
X89549500Y-141402000D01*
X89549500Y-141402000D02*
X89662000Y-141514500D01*
X82499400Y-141402000D02*
X82499400Y-144119400D01*
X82499400Y-144119400D02*
X80010000Y-146608800D01*
X80010000Y-146608800D02*
X80010000Y-159105600D01*
X82118400Y-161214000D02*
X88990000Y-161214000D01*
X80010000Y-159105600D02*
X82118400Y-161214000D01*
X88990000Y-161214000D02*
X91327500Y-161214000D01*
X91327500Y-161214000D02*
X91440000Y-161326500D01*
X113702000Y-164414000D02*
X111237500Y-164414000D01*
X111237500Y-164414000D02*
X111125000Y-164301500D01*
X128614000Y-161214000D02*
X130824500Y-161214000D01*
X130824500Y-161214000D02*
X130937000Y-161326500D01*
X113702000Y-184226000D02*
X111328000Y-184226000D01*
X111328000Y-184226000D02*
X111252000Y-184150000D01*
X128614000Y-181026000D02*
X130951500Y-181026000D01*
X130951500Y-181026000D02*
X131064000Y-181138500D01*
X153326000Y-184226000D02*
X150988500Y-184226000D01*
X150988500Y-184226000D02*
X150876000Y-184113500D01*
X153326000Y-164287000D02*
X150988500Y-164287000D01*
X150988500Y-164287000D02*
X150876000Y-164174500D01*
X154977000Y-144602000D02*
X152639500Y-144602000D01*
X152639500Y-144602000D02*
X152527000Y-144489500D01*
X154977000Y-124790000D02*
X152512500Y-124790000D01*
X152512500Y-124790000D02*
X152400000Y-124677500D01*
X82118400Y-161214000D02*
X82118400Y-164795000D01*
X82118400Y-164795000D02*
X80238600Y-166674800D01*
X80238600Y-166674800D02*
X80238600Y-179222400D01*
X82042200Y-181026000D02*
X88990000Y-181026000D01*
X80238600Y-179222400D02*
X82042200Y-181026000D01*
X88990000Y-181026000D02*
X91327500Y-181026000D01*
X91327500Y-181026000D02*
X91440000Y-181138500D01*
X91440000Y-181851000D02*
X91986400Y-182397400D01*
X91440000Y-181138500D02*
X91440000Y-181851000D01*
X91986400Y-182397400D02*
X95123000Y-182397400D01*
X95123000Y-182397400D02*
X95758000Y-183032400D01*
X111252000Y-183437500D02*
X111252000Y-184150000D01*
X110846900Y-183032400D02*
X111252000Y-183437500D01*
X95758000Y-183032400D02*
X110846900Y-183032400D01*
X114952000Y-184226000D02*
X120396000Y-178782000D01*
X113702000Y-184226000D02*
X114952000Y-184226000D01*
X120396000Y-178782000D02*
X120396000Y-166319200D01*
X118490800Y-164414000D02*
X113702000Y-164414000D01*
X120396000Y-166319200D02*
X118490800Y-164414000D01*
X120396000Y-166319200D02*
X120446800Y-166319200D01*
X120446800Y-166319200D02*
X122301000Y-164465000D01*
X122301000Y-164465000D02*
X126136400Y-164465000D01*
X126136400Y-164465000D02*
X127558800Y-163042600D01*
X128614000Y-162214000D02*
X128614000Y-161214000D01*
X127785400Y-163042600D02*
X128614000Y-162214000D01*
X127558800Y-163042600D02*
X127785400Y-163042600D01*
X120396000Y-178785868D02*
X120472200Y-178862068D01*
X120396000Y-178782000D02*
X120396000Y-178785868D01*
X120472200Y-178862068D02*
X120472200Y-179222400D01*
X122275800Y-181026000D02*
X128614000Y-181026000D01*
X120472200Y-179222400D02*
X122275800Y-181026000D01*
X131064000Y-181138500D02*
X131075100Y-181138500D01*
X131075100Y-181138500D02*
X133045200Y-183108600D01*
X131127800Y-183108600D02*
X148666200Y-183108600D01*
X150876000Y-184113500D02*
X150876000Y-184099200D01*
X149885400Y-183108600D02*
X148666200Y-183108600D01*
X150876000Y-184099200D02*
X149885400Y-183108600D01*
X153326000Y-184226000D02*
X155880000Y-184226000D01*
X155880000Y-184226000D02*
X160985200Y-179120800D01*
X160985200Y-179120800D02*
X160985200Y-166547800D01*
X158724400Y-164287000D02*
X153326000Y-164287000D01*
X160985200Y-166547800D02*
X158724400Y-164287000D01*
X158724400Y-164287000D02*
X158724400Y-164236600D01*
X158724400Y-164236600D02*
X160832800Y-162128200D01*
X160832800Y-162128200D02*
X160832800Y-146532600D01*
X158902200Y-144602000D02*
X154977000Y-144602000D01*
X160832800Y-146532600D02*
X158902200Y-144602000D01*
X158902200Y-144602000D02*
X158902200Y-142164000D01*
X158902200Y-142164000D02*
X161975800Y-139090400D01*
X161975800Y-139090400D02*
X161975800Y-127660400D01*
X159105400Y-124790000D02*
X154977000Y-124790000D01*
X161975800Y-127660400D02*
X159105400Y-124790000D01*
X87339000Y-121590000D02*
X89676500Y-121590000D01*
X89676500Y-121590000D02*
X89789000Y-121702500D01*
X87325000Y-121590000D02*
X85979000Y-122936000D01*
X85979000Y-122936000D02*
X85979000Y-123063000D01*
X84756000Y-124286000D02*
X80264000Y-124286000D01*
X85979000Y-123063000D02*
X84756000Y-124286000D01*
D19*
X88105000Y-164414000D02*
X87376000Y-165143000D01*
X88990000Y-164414000D02*
X88105000Y-164414000D01*
X87376000Y-165143000D02*
X82761000Y-165143000D01*
X82761000Y-165143000D02*
X80899000Y-167005000D01*
X80899000Y-167005000D02*
X80899000Y-178816000D01*
X80899000Y-178816000D02*
X82042000Y-179959000D01*
X93890000Y-180391000D02*
X93890000Y-181026000D01*
X93458000Y-179959000D02*
X93890000Y-180391000D01*
X82042000Y-179959000D02*
X93458000Y-179959000D01*
X88990000Y-184861000D02*
X89422000Y-185293000D01*
X88990000Y-184226000D02*
X88990000Y-184861000D01*
X108802000Y-184861000D02*
X108802000Y-184226000D01*
X108370000Y-185293000D02*
X108802000Y-184861000D01*
X89422000Y-185293000D02*
X108370000Y-185293000D01*
X87339000Y-144602000D02*
X83109000Y-144602000D01*
X83109000Y-144602000D02*
X80772000Y-146939000D01*
X80772000Y-146939000D02*
X80772000Y-158623000D01*
X80772000Y-158623000D02*
X82423000Y-160274000D01*
X93890000Y-160579000D02*
X93890000Y-161214000D01*
X93585000Y-160274000D02*
X93890000Y-160579000D01*
X82423000Y-160274000D02*
X93585000Y-160274000D01*
X91934000Y-140462000D02*
X92239000Y-140767000D01*
X82550000Y-140462000D02*
X91934000Y-140462000D01*
X79756000Y-137668000D02*
X82550000Y-140462000D01*
X92239000Y-140767000D02*
X92239000Y-141402000D01*
X80899000Y-131953000D02*
X79756000Y-133096000D01*
X79756000Y-133096000D02*
X79756000Y-137668000D01*
X84887000Y-124790000D02*
X84493510Y-125183490D01*
X84493510Y-125183490D02*
X81318510Y-125183490D01*
X87339000Y-124790000D02*
X84887000Y-124790000D01*
X81318510Y-125183490D02*
X80899000Y-125603000D01*
X80899000Y-125603000D02*
X80899000Y-131953000D01*
X128614000Y-184861000D02*
X129909600Y-186156600D01*
X128614000Y-184226000D02*
X128614000Y-184861000D01*
X129909600Y-186156600D02*
X137693400Y-186156600D01*
X137693400Y-186156600D02*
X138531600Y-185318400D01*
X138531600Y-185318400D02*
X144729200Y-185318400D01*
X145821600Y-184226000D02*
X148426000Y-184226000D01*
X144729200Y-185318400D02*
X145821600Y-184226000D01*
X133514000Y-180391000D02*
X133514000Y-181026000D01*
X122453400Y-180111400D02*
X133234400Y-180111400D01*
X128614000Y-164414000D02*
X128614000Y-165049000D01*
X128614000Y-165049000D02*
X128334400Y-165328600D01*
X128334400Y-165328600D02*
X122707400Y-165328600D01*
X121081800Y-178739800D02*
X122453400Y-180111400D01*
X122707400Y-165328600D02*
X121081800Y-166954200D01*
X133234400Y-180111400D02*
X133514000Y-180391000D01*
X121081800Y-166954200D02*
X121081800Y-178739800D01*
X133514000Y-160579000D02*
X133514000Y-161214000D01*
X115552400Y-160248600D02*
X133183600Y-160248600D01*
X114587000Y-161214000D02*
X115552400Y-160248600D01*
X133183600Y-160248600D02*
X133514000Y-160579000D01*
X113702000Y-161214000D02*
X114587000Y-161214000D01*
X108802000Y-165049000D02*
X108802000Y-164414000D01*
X119659400Y-178435000D02*
X119659400Y-166751000D01*
X113702000Y-181026000D02*
X117068400Y-181026000D01*
X118237000Y-165328600D02*
X109081600Y-165328600D01*
X117068400Y-181026000D02*
X119659400Y-178435000D01*
X109081600Y-165328600D02*
X108802000Y-165049000D01*
X119659400Y-166751000D02*
X118237000Y-165328600D01*
X155862000Y-141402000D02*
X156649600Y-140614400D01*
X154977000Y-141402000D02*
X155862000Y-141402000D01*
X156649600Y-140614400D02*
X158877000Y-140614400D01*
X158877000Y-140614400D02*
X161213800Y-138277600D01*
X161213800Y-138277600D02*
X161213800Y-127990600D01*
X161213800Y-127990600D02*
X158978600Y-125755400D01*
X150077000Y-125425000D02*
X150077000Y-124790000D01*
X150407400Y-125755400D02*
X150077000Y-125425000D01*
X158978600Y-125755400D02*
X150407400Y-125755400D01*
X154211000Y-161087000D02*
X154846200Y-160451800D01*
X153326000Y-161087000D02*
X154211000Y-161087000D01*
X154846200Y-160451800D02*
X158521400Y-160451800D01*
X158521400Y-160451800D02*
X160197800Y-158775400D01*
X160197800Y-158775400D02*
X160197800Y-147015200D01*
X160197800Y-147015200D02*
X158724600Y-145542000D01*
X150077000Y-145237000D02*
X150077000Y-144602000D01*
X150382000Y-145542000D02*
X150077000Y-145237000D01*
X158724600Y-145542000D02*
X150382000Y-145542000D01*
X154211000Y-181026000D02*
X154973200Y-180263800D01*
X153326000Y-181026000D02*
X154211000Y-181026000D01*
X154973200Y-180263800D02*
X158800800Y-180263800D01*
X158800800Y-180263800D02*
X160299400Y-178765200D01*
X160299400Y-178765200D02*
X160299400Y-166878000D01*
X160299400Y-166878000D02*
X158750000Y-165328600D01*
X148426000Y-164922000D02*
X148426000Y-164287000D01*
X148832600Y-165328600D02*
X148426000Y-164922000D01*
X158750000Y-165328600D02*
X148832600Y-165328600D01*
D20*
X78994000Y-119126000D02*
X78994000Y-120359500D01*
X78994000Y-120359500D02*
X81570500Y-122936000D01*
D19*
X155862000Y-121590000D02*
X155862200Y-121589800D01*
X154977000Y-121590000D02*
X155862000Y-121590000D01*
X160858200Y-121589800D02*
X163322000Y-119126000D01*
X155862200Y-121589800D02*
X160858200Y-121589800D01*
M02*
