G04 #@! TF.GenerationSoftware,KiCad,Pcbnew,(5.1.5)-3*
G04 #@! TF.CreationDate,2020-07-02T20:41:21-07:00*
G04 #@! TF.ProjectId,daughter,64617567-6874-4657-922e-6b696361645f,rev?*
G04 #@! TF.SameCoordinates,Original*
G04 #@! TF.FileFunction,Soldermask,Bot*
G04 #@! TF.FilePolarity,Negative*
%FSLAX46Y46*%
G04 Gerber Fmt 4.6, Leading zero omitted, Abs format (unit mm)*
G04 Created by KiCad (PCBNEW (5.1.5)-3) date 2020-07-02 20:41:21*
%MOMM*%
%LPD*%
G04 APERTURE LIST*
%ADD10C,0.050000*%
%ADD11C,0.120000*%
%ADD12C,0.150000*%
%ADD13C,0.100000*%
G04 APERTURE END LIST*
D10*
X143510000Y-186690000D02*
X159512000Y-186690000D01*
X139192000Y-185928000D02*
X138430000Y-186690000D01*
X142748000Y-185928000D02*
X139192000Y-185928000D01*
X143510000Y-186690000D02*
X142748000Y-185928000D01*
X74930000Y-121158000D02*
X74930000Y-117094000D01*
X76454000Y-122682000D02*
X74930000Y-121158000D01*
X76454000Y-136652000D02*
X76454000Y-122682000D01*
X77724000Y-137922000D02*
X76454000Y-136652000D01*
X77724000Y-137922000D02*
X77724001Y-186690001D01*
X81534000Y-186690000D02*
X81536221Y-189928213D01*
X98806000Y-186690000D02*
X81534000Y-186690000D01*
X99568000Y-185928000D02*
X98806000Y-186690000D01*
X103124000Y-185928000D02*
X99568000Y-185928000D01*
X103886000Y-186690000D02*
X103124000Y-185928000D01*
X118618000Y-186690000D02*
X103886000Y-186690000D01*
X119380000Y-185928000D02*
X118618000Y-186690000D01*
X122936000Y-185928000D02*
X119380000Y-185928000D01*
X123698000Y-186690000D02*
X122936000Y-185928000D01*
X138430000Y-186690000D02*
X123698000Y-186690000D01*
X159512000Y-192151000D02*
X159512000Y-186690000D01*
X159512000Y-192151000D02*
X163576000Y-192151000D01*
X165735000Y-122301000D02*
X165735000Y-187579000D01*
X167386000Y-120650000D02*
X165735000Y-122301000D01*
X167386000Y-116840000D02*
X167386000Y-120650000D01*
X159258000Y-116840000D02*
X167386000Y-116840000D01*
X159258000Y-118872000D02*
X159258000Y-116840000D01*
X157988000Y-120142000D02*
X159258000Y-118872000D01*
X148336000Y-120142000D02*
X157988000Y-120142000D01*
X148336000Y-126238000D02*
X148336000Y-120142000D01*
X157988000Y-126238000D02*
X148336000Y-126238000D01*
X159258000Y-127508000D02*
X157988000Y-126238000D01*
X159258000Y-129286000D02*
X159258000Y-127508000D01*
X160655000Y-130683000D02*
X159258000Y-129286000D01*
X160655000Y-134620000D02*
X160655000Y-130683000D01*
X159512000Y-135763000D02*
X160655000Y-134620000D01*
X159512000Y-138684000D02*
X159512000Y-135763000D01*
X158242000Y-139954000D02*
X159512000Y-138684000D01*
X148336000Y-139954000D02*
X158242000Y-139954000D01*
X148336000Y-146050000D02*
X148336000Y-139954000D01*
X158242000Y-146050000D02*
X148336000Y-146050000D01*
X159512000Y-147320000D02*
X158242000Y-146050000D01*
X159512000Y-158496000D02*
X159512000Y-147320000D01*
X158242000Y-159766000D02*
X159512000Y-158496000D01*
X146812000Y-159766000D02*
X158242000Y-159766000D01*
X146812000Y-165862000D02*
X146812000Y-159766000D01*
X158242000Y-165862000D02*
X146812000Y-165862000D01*
X159512000Y-167132000D02*
X158242000Y-165862000D01*
X159512000Y-178308000D02*
X159512000Y-167132000D01*
X158242000Y-179578000D02*
X159512000Y-178308000D01*
X143510000Y-179578000D02*
X158242000Y-179578000D01*
X142748000Y-180340000D02*
X143510000Y-179578000D01*
X139192000Y-180340000D02*
X142748000Y-180340000D01*
X138430000Y-179578000D02*
X139192000Y-180340000D01*
X123190000Y-179578000D02*
X138430000Y-179578000D01*
X123190000Y-176530000D02*
X123190000Y-179578000D01*
X121920000Y-176530000D02*
X123190000Y-176530000D01*
X121920000Y-172974000D02*
X121920000Y-176530000D01*
X121539000Y-172593000D02*
X121920000Y-172974000D01*
X121539000Y-168783000D02*
X121539000Y-172593000D01*
X121920000Y-168402000D02*
X121539000Y-168783000D01*
X121920000Y-167132000D02*
X121920000Y-168402000D01*
X123190000Y-165862000D02*
X121920000Y-167132000D01*
X135128000Y-165862000D02*
X123190000Y-165862000D01*
X135128000Y-159766000D02*
X135128000Y-165862000D01*
X107188000Y-159766000D02*
X135128000Y-159766000D01*
X107188000Y-165862000D02*
X107188000Y-159766000D01*
X117856000Y-165862000D02*
X107188000Y-165862000D01*
X119126000Y-167132000D02*
X117856000Y-165862000D01*
X119126000Y-178308000D02*
X119126000Y-167132000D01*
X117856000Y-179578000D02*
X119126000Y-178308000D01*
X103886000Y-179578000D02*
X117856000Y-179578000D01*
X103124000Y-180340000D02*
X103886000Y-179578000D01*
X99568000Y-180340000D02*
X103124000Y-180340000D01*
X98806000Y-179578000D02*
X99568000Y-180340000D01*
X82804000Y-179578000D02*
X98806000Y-179578000D01*
X81534000Y-178308000D02*
X82804000Y-179578000D01*
X81534000Y-167132000D02*
X81534000Y-178308000D01*
X82804000Y-165862000D02*
X81534000Y-167132000D01*
X95504000Y-165862000D02*
X82804000Y-165862000D01*
X95504000Y-159766000D02*
X95504000Y-165862000D01*
X82804000Y-159766000D02*
X95504000Y-159766000D01*
X81534000Y-158496000D02*
X82804000Y-159766000D01*
X81534000Y-147320000D02*
X81534000Y-158496000D01*
X82804000Y-146050000D02*
X81534000Y-147320000D01*
X93726000Y-146050000D02*
X82804000Y-146050000D01*
X93726000Y-139954000D02*
X93726000Y-146050000D01*
X82804000Y-139954000D02*
X93726000Y-139954000D01*
X81534000Y-138684000D02*
X82804000Y-139954000D01*
X81534000Y-137922000D02*
X81534000Y-138684000D01*
X80264000Y-136652000D02*
X81534000Y-137922000D01*
X80264000Y-133604000D02*
X80264000Y-136652000D01*
X81534000Y-132334000D02*
X80264000Y-133604000D01*
X81534000Y-125984000D02*
X81534000Y-132334000D01*
X82042000Y-125476000D02*
X81534000Y-125984000D01*
X84836000Y-125476000D02*
X82042000Y-125476000D01*
X85598000Y-126238000D02*
X84836000Y-125476000D01*
X93726000Y-126238000D02*
X85598000Y-126238000D01*
X93726000Y-120142000D02*
X93726000Y-126238000D01*
X84074000Y-120142000D02*
X93726000Y-120142000D01*
X82804000Y-118872000D02*
X84074000Y-120142000D01*
X82804000Y-117094000D02*
X82804000Y-118872000D01*
X74930000Y-117094000D02*
X82804000Y-117094000D01*
D11*
X165731919Y-187579797D02*
G75*
G02X163576000Y-192151000I-2155919J-1777203D01*
G01*
D12*
X81536221Y-189928213D02*
G75*
G02X77724001Y-186690001I-2796221J571213D01*
G01*
D13*
G36*
X163951256Y-187748298D02*
G01*
X164057579Y-187769447D01*
X164358042Y-187893903D01*
X164628451Y-188074585D01*
X164858415Y-188304549D01*
X165039097Y-188574958D01*
X165163553Y-188875421D01*
X165227000Y-189194391D01*
X165227000Y-189519609D01*
X165163553Y-189838579D01*
X165039097Y-190139042D01*
X164858415Y-190409451D01*
X164628451Y-190639415D01*
X164358042Y-190820097D01*
X164057579Y-190944553D01*
X163951256Y-190965702D01*
X163738611Y-191008000D01*
X163413389Y-191008000D01*
X163200744Y-190965702D01*
X163094421Y-190944553D01*
X162793958Y-190820097D01*
X162523549Y-190639415D01*
X162293585Y-190409451D01*
X162112903Y-190139042D01*
X161988447Y-189838579D01*
X161925000Y-189519609D01*
X161925000Y-189194391D01*
X161988447Y-188875421D01*
X162112903Y-188574958D01*
X162293585Y-188304549D01*
X162523549Y-188074585D01*
X162793958Y-187893903D01*
X163094421Y-187769447D01*
X163200744Y-187748298D01*
X163413389Y-187706000D01*
X163738611Y-187706000D01*
X163951256Y-187748298D01*
G37*
G36*
X79115256Y-187748298D02*
G01*
X79221579Y-187769447D01*
X79522042Y-187893903D01*
X79792451Y-188074585D01*
X80022415Y-188304549D01*
X80203097Y-188574958D01*
X80327553Y-188875421D01*
X80391000Y-189194391D01*
X80391000Y-189519609D01*
X80327553Y-189838579D01*
X80203097Y-190139042D01*
X80022415Y-190409451D01*
X79792451Y-190639415D01*
X79522042Y-190820097D01*
X79221579Y-190944553D01*
X79115256Y-190965702D01*
X78902611Y-191008000D01*
X78577389Y-191008000D01*
X78364744Y-190965702D01*
X78258421Y-190944553D01*
X77957958Y-190820097D01*
X77687549Y-190639415D01*
X77457585Y-190409451D01*
X77276903Y-190139042D01*
X77152447Y-189838579D01*
X77089000Y-189519609D01*
X77089000Y-189194391D01*
X77152447Y-188875421D01*
X77276903Y-188574958D01*
X77457585Y-188304549D01*
X77687549Y-188074585D01*
X77957958Y-187893903D01*
X78258421Y-187769447D01*
X78364744Y-187748298D01*
X78577389Y-187706000D01*
X78902611Y-187706000D01*
X79115256Y-187748298D01*
G37*
G36*
X112027562Y-183390681D02*
G01*
X112062481Y-183401274D01*
X112094663Y-183418476D01*
X112122873Y-183441627D01*
X112146024Y-183469837D01*
X112163226Y-183502019D01*
X112173819Y-183536938D01*
X112178000Y-183579395D01*
X112178000Y-184720605D01*
X112173819Y-184763062D01*
X112163226Y-184797981D01*
X112146024Y-184830163D01*
X112122873Y-184858373D01*
X112094663Y-184881524D01*
X112062481Y-184898726D01*
X112027562Y-184909319D01*
X111985105Y-184913500D01*
X110518895Y-184913500D01*
X110476438Y-184909319D01*
X110441519Y-184898726D01*
X110409337Y-184881524D01*
X110381127Y-184858373D01*
X110357976Y-184830163D01*
X110340774Y-184797981D01*
X110330181Y-184763062D01*
X110326000Y-184720605D01*
X110326000Y-183579395D01*
X110330181Y-183536938D01*
X110340774Y-183502019D01*
X110357976Y-183469837D01*
X110381127Y-183441627D01*
X110409337Y-183418476D01*
X110441519Y-183401274D01*
X110476438Y-183390681D01*
X110518895Y-183386500D01*
X111985105Y-183386500D01*
X112027562Y-183390681D01*
G37*
G36*
X131839562Y-183354181D02*
G01*
X131874481Y-183364774D01*
X131906663Y-183381976D01*
X131934873Y-183405127D01*
X131958024Y-183433337D01*
X131975226Y-183465519D01*
X131985819Y-183500438D01*
X131990000Y-183542895D01*
X131990000Y-184684105D01*
X131985819Y-184726562D01*
X131975226Y-184761481D01*
X131958024Y-184793663D01*
X131934873Y-184821873D01*
X131906663Y-184845024D01*
X131874481Y-184862226D01*
X131839562Y-184872819D01*
X131797105Y-184877000D01*
X130330895Y-184877000D01*
X130288438Y-184872819D01*
X130253519Y-184862226D01*
X130221337Y-184845024D01*
X130193127Y-184821873D01*
X130169976Y-184793663D01*
X130152774Y-184761481D01*
X130142181Y-184726562D01*
X130138000Y-184684105D01*
X130138000Y-183542895D01*
X130142181Y-183500438D01*
X130152774Y-183465519D01*
X130169976Y-183433337D01*
X130193127Y-183405127D01*
X130221337Y-183381976D01*
X130253519Y-183364774D01*
X130288438Y-183354181D01*
X130330895Y-183350000D01*
X131797105Y-183350000D01*
X131839562Y-183354181D01*
G37*
G36*
X151651562Y-183354181D02*
G01*
X151686481Y-183364774D01*
X151718663Y-183381976D01*
X151746873Y-183405127D01*
X151770024Y-183433337D01*
X151787226Y-183465519D01*
X151797819Y-183500438D01*
X151802000Y-183542895D01*
X151802000Y-184684105D01*
X151797819Y-184726562D01*
X151787226Y-184761481D01*
X151770024Y-184793663D01*
X151746873Y-184821873D01*
X151718663Y-184845024D01*
X151686481Y-184862226D01*
X151651562Y-184872819D01*
X151609105Y-184877000D01*
X150142895Y-184877000D01*
X150100438Y-184872819D01*
X150065519Y-184862226D01*
X150033337Y-184845024D01*
X150005127Y-184821873D01*
X149981976Y-184793663D01*
X149964774Y-184761481D01*
X149954181Y-184726562D01*
X149950000Y-184684105D01*
X149950000Y-183542895D01*
X149954181Y-183500438D01*
X149964774Y-183465519D01*
X149981976Y-183433337D01*
X150005127Y-183405127D01*
X150033337Y-183381976D01*
X150065519Y-183364774D01*
X150100438Y-183354181D01*
X150142895Y-183350000D01*
X151609105Y-183350000D01*
X151651562Y-183354181D01*
G37*
G36*
X92215562Y-183354181D02*
G01*
X92250481Y-183364774D01*
X92282663Y-183381976D01*
X92310873Y-183405127D01*
X92334024Y-183433337D01*
X92351226Y-183465519D01*
X92361819Y-183500438D01*
X92366000Y-183542895D01*
X92366000Y-184684105D01*
X92361819Y-184726562D01*
X92351226Y-184761481D01*
X92334024Y-184793663D01*
X92310873Y-184821873D01*
X92282663Y-184845024D01*
X92250481Y-184862226D01*
X92215562Y-184872819D01*
X92173105Y-184877000D01*
X90706895Y-184877000D01*
X90664438Y-184872819D01*
X90629519Y-184862226D01*
X90597337Y-184845024D01*
X90569127Y-184821873D01*
X90545976Y-184793663D01*
X90528774Y-184761481D01*
X90518181Y-184726562D01*
X90514000Y-184684105D01*
X90514000Y-183542895D01*
X90518181Y-183500438D01*
X90528774Y-183465519D01*
X90545976Y-183433337D01*
X90569127Y-183405127D01*
X90597337Y-183381976D01*
X90629519Y-183364774D01*
X90664438Y-183354181D01*
X90706895Y-183350000D01*
X92173105Y-183350000D01*
X92215562Y-183354181D01*
G37*
G36*
X112027562Y-180415681D02*
G01*
X112062481Y-180426274D01*
X112094663Y-180443476D01*
X112122873Y-180466627D01*
X112146024Y-180494837D01*
X112163226Y-180527019D01*
X112173819Y-180561938D01*
X112178000Y-180604395D01*
X112178000Y-181745605D01*
X112173819Y-181788062D01*
X112163226Y-181822981D01*
X112146024Y-181855163D01*
X112122873Y-181883373D01*
X112094663Y-181906524D01*
X112062481Y-181923726D01*
X112027562Y-181934319D01*
X111985105Y-181938500D01*
X110518895Y-181938500D01*
X110476438Y-181934319D01*
X110441519Y-181923726D01*
X110409337Y-181906524D01*
X110381127Y-181883373D01*
X110357976Y-181855163D01*
X110340774Y-181822981D01*
X110330181Y-181788062D01*
X110326000Y-181745605D01*
X110326000Y-180604395D01*
X110330181Y-180561938D01*
X110340774Y-180527019D01*
X110357976Y-180494837D01*
X110381127Y-180466627D01*
X110409337Y-180443476D01*
X110441519Y-180426274D01*
X110476438Y-180415681D01*
X110518895Y-180411500D01*
X111985105Y-180411500D01*
X112027562Y-180415681D01*
G37*
G36*
X151651562Y-180379181D02*
G01*
X151686481Y-180389774D01*
X151718663Y-180406976D01*
X151746873Y-180430127D01*
X151770024Y-180458337D01*
X151787226Y-180490519D01*
X151797819Y-180525438D01*
X151802000Y-180567895D01*
X151802000Y-181709105D01*
X151797819Y-181751562D01*
X151787226Y-181786481D01*
X151770024Y-181818663D01*
X151746873Y-181846873D01*
X151718663Y-181870024D01*
X151686481Y-181887226D01*
X151651562Y-181897819D01*
X151609105Y-181902000D01*
X150142895Y-181902000D01*
X150100438Y-181897819D01*
X150065519Y-181887226D01*
X150033337Y-181870024D01*
X150005127Y-181846873D01*
X149981976Y-181818663D01*
X149964774Y-181786481D01*
X149954181Y-181751562D01*
X149950000Y-181709105D01*
X149950000Y-180567895D01*
X149954181Y-180525438D01*
X149964774Y-180490519D01*
X149981976Y-180458337D01*
X150005127Y-180430127D01*
X150033337Y-180406976D01*
X150065519Y-180389774D01*
X150100438Y-180379181D01*
X150142895Y-180375000D01*
X151609105Y-180375000D01*
X151651562Y-180379181D01*
G37*
G36*
X131839562Y-180379181D02*
G01*
X131874481Y-180389774D01*
X131906663Y-180406976D01*
X131934873Y-180430127D01*
X131958024Y-180458337D01*
X131975226Y-180490519D01*
X131985819Y-180525438D01*
X131990000Y-180567895D01*
X131990000Y-181709105D01*
X131985819Y-181751562D01*
X131975226Y-181786481D01*
X131958024Y-181818663D01*
X131934873Y-181846873D01*
X131906663Y-181870024D01*
X131874481Y-181887226D01*
X131839562Y-181897819D01*
X131797105Y-181902000D01*
X130330895Y-181902000D01*
X130288438Y-181897819D01*
X130253519Y-181887226D01*
X130221337Y-181870024D01*
X130193127Y-181846873D01*
X130169976Y-181818663D01*
X130152774Y-181786481D01*
X130142181Y-181751562D01*
X130138000Y-181709105D01*
X130138000Y-180567895D01*
X130142181Y-180525438D01*
X130152774Y-180490519D01*
X130169976Y-180458337D01*
X130193127Y-180430127D01*
X130221337Y-180406976D01*
X130253519Y-180389774D01*
X130288438Y-180379181D01*
X130330895Y-180375000D01*
X131797105Y-180375000D01*
X131839562Y-180379181D01*
G37*
G36*
X92215562Y-180379181D02*
G01*
X92250481Y-180389774D01*
X92282663Y-180406976D01*
X92310873Y-180430127D01*
X92334024Y-180458337D01*
X92351226Y-180490519D01*
X92361819Y-180525438D01*
X92366000Y-180567895D01*
X92366000Y-181709105D01*
X92361819Y-181751562D01*
X92351226Y-181786481D01*
X92334024Y-181818663D01*
X92310873Y-181846873D01*
X92282663Y-181870024D01*
X92250481Y-181887226D01*
X92215562Y-181897819D01*
X92173105Y-181902000D01*
X90706895Y-181902000D01*
X90664438Y-181897819D01*
X90629519Y-181887226D01*
X90597337Y-181870024D01*
X90569127Y-181846873D01*
X90545976Y-181818663D01*
X90528774Y-181786481D01*
X90518181Y-181751562D01*
X90514000Y-181709105D01*
X90514000Y-180567895D01*
X90518181Y-180525438D01*
X90528774Y-180490519D01*
X90545976Y-180458337D01*
X90569127Y-180430127D01*
X90597337Y-180406976D01*
X90629519Y-180389774D01*
X90664438Y-180379181D01*
X90706895Y-180375000D01*
X92173105Y-180375000D01*
X92215562Y-180379181D01*
G37*
G36*
X111900562Y-163542181D02*
G01*
X111935481Y-163552774D01*
X111967663Y-163569976D01*
X111995873Y-163593127D01*
X112019024Y-163621337D01*
X112036226Y-163653519D01*
X112046819Y-163688438D01*
X112051000Y-163730895D01*
X112051000Y-164872105D01*
X112046819Y-164914562D01*
X112036226Y-164949481D01*
X112019024Y-164981663D01*
X111995873Y-165009873D01*
X111967663Y-165033024D01*
X111935481Y-165050226D01*
X111900562Y-165060819D01*
X111858105Y-165065000D01*
X110391895Y-165065000D01*
X110349438Y-165060819D01*
X110314519Y-165050226D01*
X110282337Y-165033024D01*
X110254127Y-165009873D01*
X110230976Y-164981663D01*
X110213774Y-164949481D01*
X110203181Y-164914562D01*
X110199000Y-164872105D01*
X110199000Y-163730895D01*
X110203181Y-163688438D01*
X110213774Y-163653519D01*
X110230976Y-163621337D01*
X110254127Y-163593127D01*
X110282337Y-163569976D01*
X110314519Y-163552774D01*
X110349438Y-163542181D01*
X110391895Y-163538000D01*
X111858105Y-163538000D01*
X111900562Y-163542181D01*
G37*
G36*
X131712562Y-163542181D02*
G01*
X131747481Y-163552774D01*
X131779663Y-163569976D01*
X131807873Y-163593127D01*
X131831024Y-163621337D01*
X131848226Y-163653519D01*
X131858819Y-163688438D01*
X131863000Y-163730895D01*
X131863000Y-164872105D01*
X131858819Y-164914562D01*
X131848226Y-164949481D01*
X131831024Y-164981663D01*
X131807873Y-165009873D01*
X131779663Y-165033024D01*
X131747481Y-165050226D01*
X131712562Y-165060819D01*
X131670105Y-165065000D01*
X130203895Y-165065000D01*
X130161438Y-165060819D01*
X130126519Y-165050226D01*
X130094337Y-165033024D01*
X130066127Y-165009873D01*
X130042976Y-164981663D01*
X130025774Y-164949481D01*
X130015181Y-164914562D01*
X130011000Y-164872105D01*
X130011000Y-163730895D01*
X130015181Y-163688438D01*
X130025774Y-163653519D01*
X130042976Y-163621337D01*
X130066127Y-163593127D01*
X130094337Y-163569976D01*
X130126519Y-163552774D01*
X130161438Y-163542181D01*
X130203895Y-163538000D01*
X131670105Y-163538000D01*
X131712562Y-163542181D01*
G37*
G36*
X92215562Y-163542181D02*
G01*
X92250481Y-163552774D01*
X92282663Y-163569976D01*
X92310873Y-163593127D01*
X92334024Y-163621337D01*
X92351226Y-163653519D01*
X92361819Y-163688438D01*
X92366000Y-163730895D01*
X92366000Y-164872105D01*
X92361819Y-164914562D01*
X92351226Y-164949481D01*
X92334024Y-164981663D01*
X92310873Y-165009873D01*
X92282663Y-165033024D01*
X92250481Y-165050226D01*
X92215562Y-165060819D01*
X92173105Y-165065000D01*
X90706895Y-165065000D01*
X90664438Y-165060819D01*
X90629519Y-165050226D01*
X90597337Y-165033024D01*
X90569127Y-165009873D01*
X90545976Y-164981663D01*
X90528774Y-164949481D01*
X90518181Y-164914562D01*
X90514000Y-164872105D01*
X90514000Y-163730895D01*
X90518181Y-163688438D01*
X90528774Y-163653519D01*
X90545976Y-163621337D01*
X90569127Y-163593127D01*
X90597337Y-163569976D01*
X90629519Y-163552774D01*
X90664438Y-163542181D01*
X90706895Y-163538000D01*
X92173105Y-163538000D01*
X92215562Y-163542181D01*
G37*
G36*
X151651562Y-163415181D02*
G01*
X151686481Y-163425774D01*
X151718663Y-163442976D01*
X151746873Y-163466127D01*
X151770024Y-163494337D01*
X151787226Y-163526519D01*
X151797819Y-163561438D01*
X151802000Y-163603895D01*
X151802000Y-164745105D01*
X151797819Y-164787562D01*
X151787226Y-164822481D01*
X151770024Y-164854663D01*
X151746873Y-164882873D01*
X151718663Y-164906024D01*
X151686481Y-164923226D01*
X151651562Y-164933819D01*
X151609105Y-164938000D01*
X150142895Y-164938000D01*
X150100438Y-164933819D01*
X150065519Y-164923226D01*
X150033337Y-164906024D01*
X150005127Y-164882873D01*
X149981976Y-164854663D01*
X149964774Y-164822481D01*
X149954181Y-164787562D01*
X149950000Y-164745105D01*
X149950000Y-163603895D01*
X149954181Y-163561438D01*
X149964774Y-163526519D01*
X149981976Y-163494337D01*
X150005127Y-163466127D01*
X150033337Y-163442976D01*
X150065519Y-163425774D01*
X150100438Y-163415181D01*
X150142895Y-163411000D01*
X151609105Y-163411000D01*
X151651562Y-163415181D01*
G37*
G36*
X111900562Y-160567181D02*
G01*
X111935481Y-160577774D01*
X111967663Y-160594976D01*
X111995873Y-160618127D01*
X112019024Y-160646337D01*
X112036226Y-160678519D01*
X112046819Y-160713438D01*
X112051000Y-160755895D01*
X112051000Y-161897105D01*
X112046819Y-161939562D01*
X112036226Y-161974481D01*
X112019024Y-162006663D01*
X111995873Y-162034873D01*
X111967663Y-162058024D01*
X111935481Y-162075226D01*
X111900562Y-162085819D01*
X111858105Y-162090000D01*
X110391895Y-162090000D01*
X110349438Y-162085819D01*
X110314519Y-162075226D01*
X110282337Y-162058024D01*
X110254127Y-162034873D01*
X110230976Y-162006663D01*
X110213774Y-161974481D01*
X110203181Y-161939562D01*
X110199000Y-161897105D01*
X110199000Y-160755895D01*
X110203181Y-160713438D01*
X110213774Y-160678519D01*
X110230976Y-160646337D01*
X110254127Y-160618127D01*
X110282337Y-160594976D01*
X110314519Y-160577774D01*
X110349438Y-160567181D01*
X110391895Y-160563000D01*
X111858105Y-160563000D01*
X111900562Y-160567181D01*
G37*
G36*
X131712562Y-160567181D02*
G01*
X131747481Y-160577774D01*
X131779663Y-160594976D01*
X131807873Y-160618127D01*
X131831024Y-160646337D01*
X131848226Y-160678519D01*
X131858819Y-160713438D01*
X131863000Y-160755895D01*
X131863000Y-161897105D01*
X131858819Y-161939562D01*
X131848226Y-161974481D01*
X131831024Y-162006663D01*
X131807873Y-162034873D01*
X131779663Y-162058024D01*
X131747481Y-162075226D01*
X131712562Y-162085819D01*
X131670105Y-162090000D01*
X130203895Y-162090000D01*
X130161438Y-162085819D01*
X130126519Y-162075226D01*
X130094337Y-162058024D01*
X130066127Y-162034873D01*
X130042976Y-162006663D01*
X130025774Y-161974481D01*
X130015181Y-161939562D01*
X130011000Y-161897105D01*
X130011000Y-160755895D01*
X130015181Y-160713438D01*
X130025774Y-160678519D01*
X130042976Y-160646337D01*
X130066127Y-160618127D01*
X130094337Y-160594976D01*
X130126519Y-160577774D01*
X130161438Y-160567181D01*
X130203895Y-160563000D01*
X131670105Y-160563000D01*
X131712562Y-160567181D01*
G37*
G36*
X92215562Y-160567181D02*
G01*
X92250481Y-160577774D01*
X92282663Y-160594976D01*
X92310873Y-160618127D01*
X92334024Y-160646337D01*
X92351226Y-160678519D01*
X92361819Y-160713438D01*
X92366000Y-160755895D01*
X92366000Y-161897105D01*
X92361819Y-161939562D01*
X92351226Y-161974481D01*
X92334024Y-162006663D01*
X92310873Y-162034873D01*
X92282663Y-162058024D01*
X92250481Y-162075226D01*
X92215562Y-162085819D01*
X92173105Y-162090000D01*
X90706895Y-162090000D01*
X90664438Y-162085819D01*
X90629519Y-162075226D01*
X90597337Y-162058024D01*
X90569127Y-162034873D01*
X90545976Y-162006663D01*
X90528774Y-161974481D01*
X90518181Y-161939562D01*
X90514000Y-161897105D01*
X90514000Y-160755895D01*
X90518181Y-160713438D01*
X90528774Y-160678519D01*
X90545976Y-160646337D01*
X90569127Y-160618127D01*
X90597337Y-160594976D01*
X90629519Y-160577774D01*
X90664438Y-160567181D01*
X90706895Y-160563000D01*
X92173105Y-160563000D01*
X92215562Y-160567181D01*
G37*
G36*
X151651562Y-160440181D02*
G01*
X151686481Y-160450774D01*
X151718663Y-160467976D01*
X151746873Y-160491127D01*
X151770024Y-160519337D01*
X151787226Y-160551519D01*
X151797819Y-160586438D01*
X151802000Y-160628895D01*
X151802000Y-161770105D01*
X151797819Y-161812562D01*
X151787226Y-161847481D01*
X151770024Y-161879663D01*
X151746873Y-161907873D01*
X151718663Y-161931024D01*
X151686481Y-161948226D01*
X151651562Y-161958819D01*
X151609105Y-161963000D01*
X150142895Y-161963000D01*
X150100438Y-161958819D01*
X150065519Y-161948226D01*
X150033337Y-161931024D01*
X150005127Y-161907873D01*
X149981976Y-161879663D01*
X149964774Y-161847481D01*
X149954181Y-161812562D01*
X149950000Y-161770105D01*
X149950000Y-160628895D01*
X149954181Y-160586438D01*
X149964774Y-160551519D01*
X149981976Y-160519337D01*
X150005127Y-160491127D01*
X150033337Y-160467976D01*
X150065519Y-160450774D01*
X150100438Y-160440181D01*
X150142895Y-160436000D01*
X151609105Y-160436000D01*
X151651562Y-160440181D01*
G37*
G36*
X90437562Y-143730181D02*
G01*
X90472481Y-143740774D01*
X90504663Y-143757976D01*
X90532873Y-143781127D01*
X90556024Y-143809337D01*
X90573226Y-143841519D01*
X90583819Y-143876438D01*
X90588000Y-143918895D01*
X90588000Y-145060105D01*
X90583819Y-145102562D01*
X90573226Y-145137481D01*
X90556024Y-145169663D01*
X90532873Y-145197873D01*
X90504663Y-145221024D01*
X90472481Y-145238226D01*
X90437562Y-145248819D01*
X90395105Y-145253000D01*
X88928895Y-145253000D01*
X88886438Y-145248819D01*
X88851519Y-145238226D01*
X88819337Y-145221024D01*
X88791127Y-145197873D01*
X88767976Y-145169663D01*
X88750774Y-145137481D01*
X88740181Y-145102562D01*
X88736000Y-145060105D01*
X88736000Y-143918895D01*
X88740181Y-143876438D01*
X88750774Y-143841519D01*
X88767976Y-143809337D01*
X88791127Y-143781127D01*
X88819337Y-143757976D01*
X88851519Y-143740774D01*
X88886438Y-143730181D01*
X88928895Y-143726000D01*
X90395105Y-143726000D01*
X90437562Y-143730181D01*
G37*
G36*
X153302562Y-143730181D02*
G01*
X153337481Y-143740774D01*
X153369663Y-143757976D01*
X153397873Y-143781127D01*
X153421024Y-143809337D01*
X153438226Y-143841519D01*
X153448819Y-143876438D01*
X153453000Y-143918895D01*
X153453000Y-145060105D01*
X153448819Y-145102562D01*
X153438226Y-145137481D01*
X153421024Y-145169663D01*
X153397873Y-145197873D01*
X153369663Y-145221024D01*
X153337481Y-145238226D01*
X153302562Y-145248819D01*
X153260105Y-145253000D01*
X151793895Y-145253000D01*
X151751438Y-145248819D01*
X151716519Y-145238226D01*
X151684337Y-145221024D01*
X151656127Y-145197873D01*
X151632976Y-145169663D01*
X151615774Y-145137481D01*
X151605181Y-145102562D01*
X151601000Y-145060105D01*
X151601000Y-143918895D01*
X151605181Y-143876438D01*
X151615774Y-143841519D01*
X151632976Y-143809337D01*
X151656127Y-143781127D01*
X151684337Y-143757976D01*
X151716519Y-143740774D01*
X151751438Y-143730181D01*
X151793895Y-143726000D01*
X153260105Y-143726000D01*
X153302562Y-143730181D01*
G37*
G36*
X90437562Y-140755181D02*
G01*
X90472481Y-140765774D01*
X90504663Y-140782976D01*
X90532873Y-140806127D01*
X90556024Y-140834337D01*
X90573226Y-140866519D01*
X90583819Y-140901438D01*
X90588000Y-140943895D01*
X90588000Y-142085105D01*
X90583819Y-142127562D01*
X90573226Y-142162481D01*
X90556024Y-142194663D01*
X90532873Y-142222873D01*
X90504663Y-142246024D01*
X90472481Y-142263226D01*
X90437562Y-142273819D01*
X90395105Y-142278000D01*
X88928895Y-142278000D01*
X88886438Y-142273819D01*
X88851519Y-142263226D01*
X88819337Y-142246024D01*
X88791127Y-142222873D01*
X88767976Y-142194663D01*
X88750774Y-142162481D01*
X88740181Y-142127562D01*
X88736000Y-142085105D01*
X88736000Y-140943895D01*
X88740181Y-140901438D01*
X88750774Y-140866519D01*
X88767976Y-140834337D01*
X88791127Y-140806127D01*
X88819337Y-140782976D01*
X88851519Y-140765774D01*
X88886438Y-140755181D01*
X88928895Y-140751000D01*
X90395105Y-140751000D01*
X90437562Y-140755181D01*
G37*
G36*
X153302562Y-140755181D02*
G01*
X153337481Y-140765774D01*
X153369663Y-140782976D01*
X153397873Y-140806127D01*
X153421024Y-140834337D01*
X153438226Y-140866519D01*
X153448819Y-140901438D01*
X153453000Y-140943895D01*
X153453000Y-142085105D01*
X153448819Y-142127562D01*
X153438226Y-142162481D01*
X153421024Y-142194663D01*
X153397873Y-142222873D01*
X153369663Y-142246024D01*
X153337481Y-142263226D01*
X153302562Y-142273819D01*
X153260105Y-142278000D01*
X151793895Y-142278000D01*
X151751438Y-142273819D01*
X151716519Y-142263226D01*
X151684337Y-142246024D01*
X151656127Y-142222873D01*
X151632976Y-142194663D01*
X151615774Y-142162481D01*
X151605181Y-142127562D01*
X151601000Y-142085105D01*
X151601000Y-140943895D01*
X151605181Y-140901438D01*
X151615774Y-140866519D01*
X151632976Y-140834337D01*
X151656127Y-140806127D01*
X151684337Y-140782976D01*
X151716519Y-140765774D01*
X151751438Y-140755181D01*
X151793895Y-140751000D01*
X153260105Y-140751000D01*
X153302562Y-140755181D01*
G37*
G36*
X90564562Y-123918181D02*
G01*
X90599481Y-123928774D01*
X90631663Y-123945976D01*
X90659873Y-123969127D01*
X90683024Y-123997337D01*
X90700226Y-124029519D01*
X90710819Y-124064438D01*
X90715000Y-124106895D01*
X90715000Y-125248105D01*
X90710819Y-125290562D01*
X90700226Y-125325481D01*
X90683024Y-125357663D01*
X90659873Y-125385873D01*
X90631663Y-125409024D01*
X90599481Y-125426226D01*
X90564562Y-125436819D01*
X90522105Y-125441000D01*
X89055895Y-125441000D01*
X89013438Y-125436819D01*
X88978519Y-125426226D01*
X88946337Y-125409024D01*
X88918127Y-125385873D01*
X88894976Y-125357663D01*
X88877774Y-125325481D01*
X88867181Y-125290562D01*
X88863000Y-125248105D01*
X88863000Y-124106895D01*
X88867181Y-124064438D01*
X88877774Y-124029519D01*
X88894976Y-123997337D01*
X88918127Y-123969127D01*
X88946337Y-123945976D01*
X88978519Y-123928774D01*
X89013438Y-123918181D01*
X89055895Y-123914000D01*
X90522105Y-123914000D01*
X90564562Y-123918181D01*
G37*
G36*
X153175562Y-123918181D02*
G01*
X153210481Y-123928774D01*
X153242663Y-123945976D01*
X153270873Y-123969127D01*
X153294024Y-123997337D01*
X153311226Y-124029519D01*
X153321819Y-124064438D01*
X153326000Y-124106895D01*
X153326000Y-125248105D01*
X153321819Y-125290562D01*
X153311226Y-125325481D01*
X153294024Y-125357663D01*
X153270873Y-125385873D01*
X153242663Y-125409024D01*
X153210481Y-125426226D01*
X153175562Y-125436819D01*
X153133105Y-125441000D01*
X151666895Y-125441000D01*
X151624438Y-125436819D01*
X151589519Y-125426226D01*
X151557337Y-125409024D01*
X151529127Y-125385873D01*
X151505976Y-125357663D01*
X151488774Y-125325481D01*
X151478181Y-125290562D01*
X151474000Y-125248105D01*
X151474000Y-124106895D01*
X151478181Y-124064438D01*
X151488774Y-124029519D01*
X151505976Y-123997337D01*
X151529127Y-123969127D01*
X151557337Y-123945976D01*
X151589519Y-123928774D01*
X151624438Y-123918181D01*
X151666895Y-123914000D01*
X153133105Y-123914000D01*
X153175562Y-123918181D01*
G37*
G36*
X82183562Y-122014181D02*
G01*
X82218481Y-122024774D01*
X82250663Y-122041976D01*
X82278873Y-122065127D01*
X82302024Y-122093337D01*
X82319226Y-122125519D01*
X82329819Y-122160438D01*
X82334000Y-122202895D01*
X82334000Y-123669105D01*
X82329819Y-123711562D01*
X82319226Y-123746481D01*
X82302024Y-123778663D01*
X82278873Y-123806873D01*
X82250663Y-123830024D01*
X82218481Y-123847226D01*
X82183562Y-123857819D01*
X82141105Y-123862000D01*
X80999895Y-123862000D01*
X80957438Y-123857819D01*
X80922519Y-123847226D01*
X80890337Y-123830024D01*
X80862127Y-123806873D01*
X80838976Y-123778663D01*
X80821774Y-123746481D01*
X80811181Y-123711562D01*
X80807000Y-123669105D01*
X80807000Y-122202895D01*
X80811181Y-122160438D01*
X80821774Y-122125519D01*
X80838976Y-122093337D01*
X80862127Y-122065127D01*
X80890337Y-122041976D01*
X80922519Y-122024774D01*
X80957438Y-122014181D01*
X80999895Y-122010000D01*
X82141105Y-122010000D01*
X82183562Y-122014181D01*
G37*
G36*
X85158562Y-122014181D02*
G01*
X85193481Y-122024774D01*
X85225663Y-122041976D01*
X85253873Y-122065127D01*
X85277024Y-122093337D01*
X85294226Y-122125519D01*
X85304819Y-122160438D01*
X85309000Y-122202895D01*
X85309000Y-123669105D01*
X85304819Y-123711562D01*
X85294226Y-123746481D01*
X85277024Y-123778663D01*
X85253873Y-123806873D01*
X85225663Y-123830024D01*
X85193481Y-123847226D01*
X85158562Y-123857819D01*
X85116105Y-123862000D01*
X83974895Y-123862000D01*
X83932438Y-123857819D01*
X83897519Y-123847226D01*
X83865337Y-123830024D01*
X83837127Y-123806873D01*
X83813976Y-123778663D01*
X83796774Y-123746481D01*
X83786181Y-123711562D01*
X83782000Y-123669105D01*
X83782000Y-122202895D01*
X83786181Y-122160438D01*
X83796774Y-122125519D01*
X83813976Y-122093337D01*
X83837127Y-122065127D01*
X83865337Y-122041976D01*
X83897519Y-122024774D01*
X83932438Y-122014181D01*
X83974895Y-122010000D01*
X85116105Y-122010000D01*
X85158562Y-122014181D01*
G37*
G36*
X90564562Y-120943181D02*
G01*
X90599481Y-120953774D01*
X90631663Y-120970976D01*
X90659873Y-120994127D01*
X90683024Y-121022337D01*
X90700226Y-121054519D01*
X90710819Y-121089438D01*
X90715000Y-121131895D01*
X90715000Y-122273105D01*
X90710819Y-122315562D01*
X90700226Y-122350481D01*
X90683024Y-122382663D01*
X90659873Y-122410873D01*
X90631663Y-122434024D01*
X90599481Y-122451226D01*
X90564562Y-122461819D01*
X90522105Y-122466000D01*
X89055895Y-122466000D01*
X89013438Y-122461819D01*
X88978519Y-122451226D01*
X88946337Y-122434024D01*
X88918127Y-122410873D01*
X88894976Y-122382663D01*
X88877774Y-122350481D01*
X88867181Y-122315562D01*
X88863000Y-122273105D01*
X88863000Y-121131895D01*
X88867181Y-121089438D01*
X88877774Y-121054519D01*
X88894976Y-121022337D01*
X88918127Y-120994127D01*
X88946337Y-120970976D01*
X88978519Y-120953774D01*
X89013438Y-120943181D01*
X89055895Y-120939000D01*
X90522105Y-120939000D01*
X90564562Y-120943181D01*
G37*
G36*
X153175562Y-120943181D02*
G01*
X153210481Y-120953774D01*
X153242663Y-120970976D01*
X153270873Y-120994127D01*
X153294024Y-121022337D01*
X153311226Y-121054519D01*
X153321819Y-121089438D01*
X153326000Y-121131895D01*
X153326000Y-122273105D01*
X153321819Y-122315562D01*
X153311226Y-122350481D01*
X153294024Y-122382663D01*
X153270873Y-122410873D01*
X153242663Y-122434024D01*
X153210481Y-122451226D01*
X153175562Y-122461819D01*
X153133105Y-122466000D01*
X151666895Y-122466000D01*
X151624438Y-122461819D01*
X151589519Y-122451226D01*
X151557337Y-122434024D01*
X151529127Y-122410873D01*
X151505976Y-122382663D01*
X151488774Y-122350481D01*
X151478181Y-122315562D01*
X151474000Y-122273105D01*
X151474000Y-121131895D01*
X151478181Y-121089438D01*
X151488774Y-121054519D01*
X151505976Y-121022337D01*
X151529127Y-120994127D01*
X151557337Y-120970976D01*
X151589519Y-120953774D01*
X151624438Y-120943181D01*
X151666895Y-120939000D01*
X153133105Y-120939000D01*
X153175562Y-120943181D01*
G37*
G36*
X165975512Y-118229927D02*
G01*
X166124812Y-118259624D01*
X166288784Y-118327544D01*
X166436354Y-118426147D01*
X166561853Y-118551646D01*
X166660456Y-118699216D01*
X166728376Y-118863188D01*
X166763000Y-119037259D01*
X166763000Y-119214741D01*
X166728376Y-119388812D01*
X166660456Y-119552784D01*
X166561853Y-119700354D01*
X166436354Y-119825853D01*
X166288784Y-119924456D01*
X166124812Y-119992376D01*
X165975512Y-120022073D01*
X165950742Y-120027000D01*
X165773258Y-120027000D01*
X165748488Y-120022073D01*
X165599188Y-119992376D01*
X165435216Y-119924456D01*
X165287646Y-119825853D01*
X165162147Y-119700354D01*
X165063544Y-119552784D01*
X164995624Y-119388812D01*
X164961000Y-119214741D01*
X164961000Y-119037259D01*
X164995624Y-118863188D01*
X165063544Y-118699216D01*
X165162147Y-118551646D01*
X165287646Y-118426147D01*
X165435216Y-118327544D01*
X165599188Y-118259624D01*
X165748488Y-118229927D01*
X165773258Y-118225000D01*
X165950742Y-118225000D01*
X165975512Y-118229927D01*
G37*
G36*
X163435512Y-118229927D02*
G01*
X163584812Y-118259624D01*
X163748784Y-118327544D01*
X163896354Y-118426147D01*
X164021853Y-118551646D01*
X164120456Y-118699216D01*
X164188376Y-118863188D01*
X164223000Y-119037259D01*
X164223000Y-119214741D01*
X164188376Y-119388812D01*
X164120456Y-119552784D01*
X164021853Y-119700354D01*
X163896354Y-119825853D01*
X163748784Y-119924456D01*
X163584812Y-119992376D01*
X163435512Y-120022073D01*
X163410742Y-120027000D01*
X163233258Y-120027000D01*
X163208488Y-120022073D01*
X163059188Y-119992376D01*
X162895216Y-119924456D01*
X162747646Y-119825853D01*
X162622147Y-119700354D01*
X162523544Y-119552784D01*
X162455624Y-119388812D01*
X162421000Y-119214741D01*
X162421000Y-119037259D01*
X162455624Y-118863188D01*
X162523544Y-118699216D01*
X162622147Y-118551646D01*
X162747646Y-118426147D01*
X162895216Y-118327544D01*
X163059188Y-118259624D01*
X163208488Y-118229927D01*
X163233258Y-118225000D01*
X163410742Y-118225000D01*
X163435512Y-118229927D01*
G37*
G36*
X161683000Y-120027000D02*
G01*
X159881000Y-120027000D01*
X159881000Y-118225000D01*
X161683000Y-118225000D01*
X161683000Y-120027000D01*
G37*
G36*
X81647512Y-118229927D02*
G01*
X81796812Y-118259624D01*
X81960784Y-118327544D01*
X82108354Y-118426147D01*
X82233853Y-118551646D01*
X82332456Y-118699216D01*
X82400376Y-118863188D01*
X82435000Y-119037259D01*
X82435000Y-119214741D01*
X82400376Y-119388812D01*
X82332456Y-119552784D01*
X82233853Y-119700354D01*
X82108354Y-119825853D01*
X81960784Y-119924456D01*
X81796812Y-119992376D01*
X81647512Y-120022073D01*
X81622742Y-120027000D01*
X81445258Y-120027000D01*
X81420488Y-120022073D01*
X81271188Y-119992376D01*
X81107216Y-119924456D01*
X80959646Y-119825853D01*
X80834147Y-119700354D01*
X80735544Y-119552784D01*
X80667624Y-119388812D01*
X80633000Y-119214741D01*
X80633000Y-119037259D01*
X80667624Y-118863188D01*
X80735544Y-118699216D01*
X80834147Y-118551646D01*
X80959646Y-118426147D01*
X81107216Y-118327544D01*
X81271188Y-118259624D01*
X81420488Y-118229927D01*
X81445258Y-118225000D01*
X81622742Y-118225000D01*
X81647512Y-118229927D01*
G37*
G36*
X79107512Y-118229927D02*
G01*
X79256812Y-118259624D01*
X79420784Y-118327544D01*
X79568354Y-118426147D01*
X79693853Y-118551646D01*
X79792456Y-118699216D01*
X79860376Y-118863188D01*
X79895000Y-119037259D01*
X79895000Y-119214741D01*
X79860376Y-119388812D01*
X79792456Y-119552784D01*
X79693853Y-119700354D01*
X79568354Y-119825853D01*
X79420784Y-119924456D01*
X79256812Y-119992376D01*
X79107512Y-120022073D01*
X79082742Y-120027000D01*
X78905258Y-120027000D01*
X78880488Y-120022073D01*
X78731188Y-119992376D01*
X78567216Y-119924456D01*
X78419646Y-119825853D01*
X78294147Y-119700354D01*
X78195544Y-119552784D01*
X78127624Y-119388812D01*
X78093000Y-119214741D01*
X78093000Y-119037259D01*
X78127624Y-118863188D01*
X78195544Y-118699216D01*
X78294147Y-118551646D01*
X78419646Y-118426147D01*
X78567216Y-118327544D01*
X78731188Y-118259624D01*
X78880488Y-118229927D01*
X78905258Y-118225000D01*
X79082742Y-118225000D01*
X79107512Y-118229927D01*
G37*
G36*
X77355000Y-120027000D02*
G01*
X75553000Y-120027000D01*
X75553000Y-118225000D01*
X77355000Y-118225000D01*
X77355000Y-120027000D01*
G37*
M02*
