G04 #@! TF.GenerationSoftware,KiCad,Pcbnew,(5.1.5)-3*
G04 #@! TF.CreationDate,2020-07-02T20:41:21-07:00*
G04 #@! TF.ProjectId,daughter,64617567-6874-4657-922e-6b696361645f,rev?*
G04 #@! TF.SameCoordinates,Original*
G04 #@! TF.FileFunction,Copper,L2,Bot*
G04 #@! TF.FilePolarity,Positive*
%FSLAX46Y46*%
G04 Gerber Fmt 4.6, Leading zero omitted, Abs format (unit mm)*
G04 Created by KiCad (PCBNEW (5.1.5)-3) date 2020-07-02 20:41:21*
%MOMM*%
%LPD*%
G04 APERTURE LIST*
%ADD10C,0.050000*%
%ADD11C,0.120000*%
%ADD12C,0.150000*%
%ADD13C,0.100000*%
%ADD14R,1.700000X1.700000*%
%ADD15O,1.700000X1.700000*%
%ADD16C,0.800000*%
%ADD17C,0.600000*%
%ADD18C,0.135000*%
%ADD19C,0.254000*%
G04 APERTURE END LIST*
D10*
X143510000Y-186690000D02*
X159512000Y-186690000D01*
X139192000Y-185928000D02*
X138430000Y-186690000D01*
X142748000Y-185928000D02*
X139192000Y-185928000D01*
X143510000Y-186690000D02*
X142748000Y-185928000D01*
X74930000Y-121158000D02*
X74930000Y-117094000D01*
X76454000Y-122682000D02*
X74930000Y-121158000D01*
X76454000Y-136652000D02*
X76454000Y-122682000D01*
X77724000Y-137922000D02*
X76454000Y-136652000D01*
X77724000Y-137922000D02*
X77724001Y-186690001D01*
X81534000Y-186690000D02*
X81536221Y-189928213D01*
X98806000Y-186690000D02*
X81534000Y-186690000D01*
X99568000Y-185928000D02*
X98806000Y-186690000D01*
X103124000Y-185928000D02*
X99568000Y-185928000D01*
X103886000Y-186690000D02*
X103124000Y-185928000D01*
X118618000Y-186690000D02*
X103886000Y-186690000D01*
X119380000Y-185928000D02*
X118618000Y-186690000D01*
X122936000Y-185928000D02*
X119380000Y-185928000D01*
X123698000Y-186690000D02*
X122936000Y-185928000D01*
X138430000Y-186690000D02*
X123698000Y-186690000D01*
X159512000Y-192151000D02*
X159512000Y-186690000D01*
X159512000Y-192151000D02*
X163576000Y-192151000D01*
X165735000Y-122301000D02*
X165735000Y-187579000D01*
X167386000Y-120650000D02*
X165735000Y-122301000D01*
X167386000Y-116840000D02*
X167386000Y-120650000D01*
X159258000Y-116840000D02*
X167386000Y-116840000D01*
X159258000Y-118872000D02*
X159258000Y-116840000D01*
X157988000Y-120142000D02*
X159258000Y-118872000D01*
X148336000Y-120142000D02*
X157988000Y-120142000D01*
X148336000Y-126238000D02*
X148336000Y-120142000D01*
X157988000Y-126238000D02*
X148336000Y-126238000D01*
X159258000Y-127508000D02*
X157988000Y-126238000D01*
X159258000Y-129286000D02*
X159258000Y-127508000D01*
X160655000Y-130683000D02*
X159258000Y-129286000D01*
X160655000Y-134620000D02*
X160655000Y-130683000D01*
X159512000Y-135763000D02*
X160655000Y-134620000D01*
X159512000Y-138684000D02*
X159512000Y-135763000D01*
X158242000Y-139954000D02*
X159512000Y-138684000D01*
X148336000Y-139954000D02*
X158242000Y-139954000D01*
X148336000Y-146050000D02*
X148336000Y-139954000D01*
X158242000Y-146050000D02*
X148336000Y-146050000D01*
X159512000Y-147320000D02*
X158242000Y-146050000D01*
X159512000Y-158496000D02*
X159512000Y-147320000D01*
X158242000Y-159766000D02*
X159512000Y-158496000D01*
X146812000Y-159766000D02*
X158242000Y-159766000D01*
X146812000Y-165862000D02*
X146812000Y-159766000D01*
X158242000Y-165862000D02*
X146812000Y-165862000D01*
X159512000Y-167132000D02*
X158242000Y-165862000D01*
X159512000Y-178308000D02*
X159512000Y-167132000D01*
X158242000Y-179578000D02*
X159512000Y-178308000D01*
X143510000Y-179578000D02*
X158242000Y-179578000D01*
X142748000Y-180340000D02*
X143510000Y-179578000D01*
X139192000Y-180340000D02*
X142748000Y-180340000D01*
X138430000Y-179578000D02*
X139192000Y-180340000D01*
X123190000Y-179578000D02*
X138430000Y-179578000D01*
X123190000Y-176530000D02*
X123190000Y-179578000D01*
X121920000Y-176530000D02*
X123190000Y-176530000D01*
X121920000Y-172974000D02*
X121920000Y-176530000D01*
X121539000Y-172593000D02*
X121920000Y-172974000D01*
X121539000Y-168783000D02*
X121539000Y-172593000D01*
X121920000Y-168402000D02*
X121539000Y-168783000D01*
X121920000Y-167132000D02*
X121920000Y-168402000D01*
X123190000Y-165862000D02*
X121920000Y-167132000D01*
X135128000Y-165862000D02*
X123190000Y-165862000D01*
X135128000Y-159766000D02*
X135128000Y-165862000D01*
X107188000Y-159766000D02*
X135128000Y-159766000D01*
X107188000Y-165862000D02*
X107188000Y-159766000D01*
X117856000Y-165862000D02*
X107188000Y-165862000D01*
X119126000Y-167132000D02*
X117856000Y-165862000D01*
X119126000Y-178308000D02*
X119126000Y-167132000D01*
X117856000Y-179578000D02*
X119126000Y-178308000D01*
X103886000Y-179578000D02*
X117856000Y-179578000D01*
X103124000Y-180340000D02*
X103886000Y-179578000D01*
X99568000Y-180340000D02*
X103124000Y-180340000D01*
X98806000Y-179578000D02*
X99568000Y-180340000D01*
X82804000Y-179578000D02*
X98806000Y-179578000D01*
X81534000Y-178308000D02*
X82804000Y-179578000D01*
X81534000Y-167132000D02*
X81534000Y-178308000D01*
X82804000Y-165862000D02*
X81534000Y-167132000D01*
X95504000Y-165862000D02*
X82804000Y-165862000D01*
X95504000Y-159766000D02*
X95504000Y-165862000D01*
X82804000Y-159766000D02*
X95504000Y-159766000D01*
X81534000Y-158496000D02*
X82804000Y-159766000D01*
X81534000Y-147320000D02*
X81534000Y-158496000D01*
X82804000Y-146050000D02*
X81534000Y-147320000D01*
X93726000Y-146050000D02*
X82804000Y-146050000D01*
X93726000Y-139954000D02*
X93726000Y-146050000D01*
X82804000Y-139954000D02*
X93726000Y-139954000D01*
X81534000Y-138684000D02*
X82804000Y-139954000D01*
X81534000Y-137922000D02*
X81534000Y-138684000D01*
X80264000Y-136652000D02*
X81534000Y-137922000D01*
X80264000Y-133604000D02*
X80264000Y-136652000D01*
X81534000Y-132334000D02*
X80264000Y-133604000D01*
X81534000Y-125984000D02*
X81534000Y-132334000D01*
X82042000Y-125476000D02*
X81534000Y-125984000D01*
X84836000Y-125476000D02*
X82042000Y-125476000D01*
X85598000Y-126238000D02*
X84836000Y-125476000D01*
X93726000Y-126238000D02*
X85598000Y-126238000D01*
X93726000Y-120142000D02*
X93726000Y-126238000D01*
X84074000Y-120142000D02*
X93726000Y-120142000D01*
X82804000Y-118872000D02*
X84074000Y-120142000D01*
X82804000Y-117094000D02*
X82804000Y-118872000D01*
X74930000Y-117094000D02*
X82804000Y-117094000D01*
D11*
X165731919Y-187579797D02*
G75*
G02X163576000Y-192151000I-2155919J-1777203D01*
G01*
D12*
X81536221Y-189928213D02*
G75*
G02X77724001Y-186690001I-2796221J571213D01*
G01*
G04 #@! TA.AperFunction,SMDPad,CuDef*
D13*
G36*
X85032504Y-122062204D02*
G01*
X85056773Y-122065804D01*
X85080571Y-122071765D01*
X85103671Y-122080030D01*
X85125849Y-122090520D01*
X85146893Y-122103133D01*
X85166598Y-122117747D01*
X85184777Y-122134223D01*
X85201253Y-122152402D01*
X85215867Y-122172107D01*
X85228480Y-122193151D01*
X85238970Y-122215329D01*
X85247235Y-122238429D01*
X85253196Y-122262227D01*
X85256796Y-122286496D01*
X85258000Y-122311000D01*
X85258000Y-123561000D01*
X85256796Y-123585504D01*
X85253196Y-123609773D01*
X85247235Y-123633571D01*
X85238970Y-123656671D01*
X85228480Y-123678849D01*
X85215867Y-123699893D01*
X85201253Y-123719598D01*
X85184777Y-123737777D01*
X85166598Y-123754253D01*
X85146893Y-123768867D01*
X85125849Y-123781480D01*
X85103671Y-123791970D01*
X85080571Y-123800235D01*
X85056773Y-123806196D01*
X85032504Y-123809796D01*
X85008000Y-123811000D01*
X84083000Y-123811000D01*
X84058496Y-123809796D01*
X84034227Y-123806196D01*
X84010429Y-123800235D01*
X83987329Y-123791970D01*
X83965151Y-123781480D01*
X83944107Y-123768867D01*
X83924402Y-123754253D01*
X83906223Y-123737777D01*
X83889747Y-123719598D01*
X83875133Y-123699893D01*
X83862520Y-123678849D01*
X83852030Y-123656671D01*
X83843765Y-123633571D01*
X83837804Y-123609773D01*
X83834204Y-123585504D01*
X83833000Y-123561000D01*
X83833000Y-122311000D01*
X83834204Y-122286496D01*
X83837804Y-122262227D01*
X83843765Y-122238429D01*
X83852030Y-122215329D01*
X83862520Y-122193151D01*
X83875133Y-122172107D01*
X83889747Y-122152402D01*
X83906223Y-122134223D01*
X83924402Y-122117747D01*
X83944107Y-122103133D01*
X83965151Y-122090520D01*
X83987329Y-122080030D01*
X84010429Y-122071765D01*
X84034227Y-122065804D01*
X84058496Y-122062204D01*
X84083000Y-122061000D01*
X85008000Y-122061000D01*
X85032504Y-122062204D01*
G37*
G04 #@! TD.AperFunction*
G04 #@! TA.AperFunction,SMDPad,CuDef*
G36*
X82057504Y-122062204D02*
G01*
X82081773Y-122065804D01*
X82105571Y-122071765D01*
X82128671Y-122080030D01*
X82150849Y-122090520D01*
X82171893Y-122103133D01*
X82191598Y-122117747D01*
X82209777Y-122134223D01*
X82226253Y-122152402D01*
X82240867Y-122172107D01*
X82253480Y-122193151D01*
X82263970Y-122215329D01*
X82272235Y-122238429D01*
X82278196Y-122262227D01*
X82281796Y-122286496D01*
X82283000Y-122311000D01*
X82283000Y-123561000D01*
X82281796Y-123585504D01*
X82278196Y-123609773D01*
X82272235Y-123633571D01*
X82263970Y-123656671D01*
X82253480Y-123678849D01*
X82240867Y-123699893D01*
X82226253Y-123719598D01*
X82209777Y-123737777D01*
X82191598Y-123754253D01*
X82171893Y-123768867D01*
X82150849Y-123781480D01*
X82128671Y-123791970D01*
X82105571Y-123800235D01*
X82081773Y-123806196D01*
X82057504Y-123809796D01*
X82033000Y-123811000D01*
X81108000Y-123811000D01*
X81083496Y-123809796D01*
X81059227Y-123806196D01*
X81035429Y-123800235D01*
X81012329Y-123791970D01*
X80990151Y-123781480D01*
X80969107Y-123768867D01*
X80949402Y-123754253D01*
X80931223Y-123737777D01*
X80914747Y-123719598D01*
X80900133Y-123699893D01*
X80887520Y-123678849D01*
X80877030Y-123656671D01*
X80868765Y-123633571D01*
X80862804Y-123609773D01*
X80859204Y-123585504D01*
X80858000Y-123561000D01*
X80858000Y-122311000D01*
X80859204Y-122286496D01*
X80862804Y-122262227D01*
X80868765Y-122238429D01*
X80877030Y-122215329D01*
X80887520Y-122193151D01*
X80900133Y-122172107D01*
X80914747Y-122152402D01*
X80931223Y-122134223D01*
X80949402Y-122117747D01*
X80969107Y-122103133D01*
X80990151Y-122090520D01*
X81012329Y-122080030D01*
X81035429Y-122071765D01*
X81059227Y-122065804D01*
X81083496Y-122062204D01*
X81108000Y-122061000D01*
X82033000Y-122061000D01*
X82057504Y-122062204D01*
G37*
G04 #@! TD.AperFunction*
G04 #@! TA.AperFunction,SMDPad,CuDef*
G36*
X92089504Y-183402204D02*
G01*
X92113773Y-183405804D01*
X92137571Y-183411765D01*
X92160671Y-183420030D01*
X92182849Y-183430520D01*
X92203893Y-183443133D01*
X92223598Y-183457747D01*
X92241777Y-183474223D01*
X92258253Y-183492402D01*
X92272867Y-183512107D01*
X92285480Y-183533151D01*
X92295970Y-183555329D01*
X92304235Y-183578429D01*
X92310196Y-183602227D01*
X92313796Y-183626496D01*
X92315000Y-183651000D01*
X92315000Y-184576000D01*
X92313796Y-184600504D01*
X92310196Y-184624773D01*
X92304235Y-184648571D01*
X92295970Y-184671671D01*
X92285480Y-184693849D01*
X92272867Y-184714893D01*
X92258253Y-184734598D01*
X92241777Y-184752777D01*
X92223598Y-184769253D01*
X92203893Y-184783867D01*
X92182849Y-184796480D01*
X92160671Y-184806970D01*
X92137571Y-184815235D01*
X92113773Y-184821196D01*
X92089504Y-184824796D01*
X92065000Y-184826000D01*
X90815000Y-184826000D01*
X90790496Y-184824796D01*
X90766227Y-184821196D01*
X90742429Y-184815235D01*
X90719329Y-184806970D01*
X90697151Y-184796480D01*
X90676107Y-184783867D01*
X90656402Y-184769253D01*
X90638223Y-184752777D01*
X90621747Y-184734598D01*
X90607133Y-184714893D01*
X90594520Y-184693849D01*
X90584030Y-184671671D01*
X90575765Y-184648571D01*
X90569804Y-184624773D01*
X90566204Y-184600504D01*
X90565000Y-184576000D01*
X90565000Y-183651000D01*
X90566204Y-183626496D01*
X90569804Y-183602227D01*
X90575765Y-183578429D01*
X90584030Y-183555329D01*
X90594520Y-183533151D01*
X90607133Y-183512107D01*
X90621747Y-183492402D01*
X90638223Y-183474223D01*
X90656402Y-183457747D01*
X90676107Y-183443133D01*
X90697151Y-183430520D01*
X90719329Y-183420030D01*
X90742429Y-183411765D01*
X90766227Y-183405804D01*
X90790496Y-183402204D01*
X90815000Y-183401000D01*
X92065000Y-183401000D01*
X92089504Y-183402204D01*
G37*
G04 #@! TD.AperFunction*
G04 #@! TA.AperFunction,SMDPad,CuDef*
G36*
X92089504Y-180427204D02*
G01*
X92113773Y-180430804D01*
X92137571Y-180436765D01*
X92160671Y-180445030D01*
X92182849Y-180455520D01*
X92203893Y-180468133D01*
X92223598Y-180482747D01*
X92241777Y-180499223D01*
X92258253Y-180517402D01*
X92272867Y-180537107D01*
X92285480Y-180558151D01*
X92295970Y-180580329D01*
X92304235Y-180603429D01*
X92310196Y-180627227D01*
X92313796Y-180651496D01*
X92315000Y-180676000D01*
X92315000Y-181601000D01*
X92313796Y-181625504D01*
X92310196Y-181649773D01*
X92304235Y-181673571D01*
X92295970Y-181696671D01*
X92285480Y-181718849D01*
X92272867Y-181739893D01*
X92258253Y-181759598D01*
X92241777Y-181777777D01*
X92223598Y-181794253D01*
X92203893Y-181808867D01*
X92182849Y-181821480D01*
X92160671Y-181831970D01*
X92137571Y-181840235D01*
X92113773Y-181846196D01*
X92089504Y-181849796D01*
X92065000Y-181851000D01*
X90815000Y-181851000D01*
X90790496Y-181849796D01*
X90766227Y-181846196D01*
X90742429Y-181840235D01*
X90719329Y-181831970D01*
X90697151Y-181821480D01*
X90676107Y-181808867D01*
X90656402Y-181794253D01*
X90638223Y-181777777D01*
X90621747Y-181759598D01*
X90607133Y-181739893D01*
X90594520Y-181718849D01*
X90584030Y-181696671D01*
X90575765Y-181673571D01*
X90569804Y-181649773D01*
X90566204Y-181625504D01*
X90565000Y-181601000D01*
X90565000Y-180676000D01*
X90566204Y-180651496D01*
X90569804Y-180627227D01*
X90575765Y-180603429D01*
X90584030Y-180580329D01*
X90594520Y-180558151D01*
X90607133Y-180537107D01*
X90621747Y-180517402D01*
X90638223Y-180499223D01*
X90656402Y-180482747D01*
X90676107Y-180468133D01*
X90697151Y-180455520D01*
X90719329Y-180445030D01*
X90742429Y-180436765D01*
X90766227Y-180430804D01*
X90790496Y-180427204D01*
X90815000Y-180426000D01*
X92065000Y-180426000D01*
X92089504Y-180427204D01*
G37*
G04 #@! TD.AperFunction*
G04 #@! TA.AperFunction,SMDPad,CuDef*
G36*
X92089504Y-163590204D02*
G01*
X92113773Y-163593804D01*
X92137571Y-163599765D01*
X92160671Y-163608030D01*
X92182849Y-163618520D01*
X92203893Y-163631133D01*
X92223598Y-163645747D01*
X92241777Y-163662223D01*
X92258253Y-163680402D01*
X92272867Y-163700107D01*
X92285480Y-163721151D01*
X92295970Y-163743329D01*
X92304235Y-163766429D01*
X92310196Y-163790227D01*
X92313796Y-163814496D01*
X92315000Y-163839000D01*
X92315000Y-164764000D01*
X92313796Y-164788504D01*
X92310196Y-164812773D01*
X92304235Y-164836571D01*
X92295970Y-164859671D01*
X92285480Y-164881849D01*
X92272867Y-164902893D01*
X92258253Y-164922598D01*
X92241777Y-164940777D01*
X92223598Y-164957253D01*
X92203893Y-164971867D01*
X92182849Y-164984480D01*
X92160671Y-164994970D01*
X92137571Y-165003235D01*
X92113773Y-165009196D01*
X92089504Y-165012796D01*
X92065000Y-165014000D01*
X90815000Y-165014000D01*
X90790496Y-165012796D01*
X90766227Y-165009196D01*
X90742429Y-165003235D01*
X90719329Y-164994970D01*
X90697151Y-164984480D01*
X90676107Y-164971867D01*
X90656402Y-164957253D01*
X90638223Y-164940777D01*
X90621747Y-164922598D01*
X90607133Y-164902893D01*
X90594520Y-164881849D01*
X90584030Y-164859671D01*
X90575765Y-164836571D01*
X90569804Y-164812773D01*
X90566204Y-164788504D01*
X90565000Y-164764000D01*
X90565000Y-163839000D01*
X90566204Y-163814496D01*
X90569804Y-163790227D01*
X90575765Y-163766429D01*
X90584030Y-163743329D01*
X90594520Y-163721151D01*
X90607133Y-163700107D01*
X90621747Y-163680402D01*
X90638223Y-163662223D01*
X90656402Y-163645747D01*
X90676107Y-163631133D01*
X90697151Y-163618520D01*
X90719329Y-163608030D01*
X90742429Y-163599765D01*
X90766227Y-163593804D01*
X90790496Y-163590204D01*
X90815000Y-163589000D01*
X92065000Y-163589000D01*
X92089504Y-163590204D01*
G37*
G04 #@! TD.AperFunction*
G04 #@! TA.AperFunction,SMDPad,CuDef*
G36*
X92089504Y-160615204D02*
G01*
X92113773Y-160618804D01*
X92137571Y-160624765D01*
X92160671Y-160633030D01*
X92182849Y-160643520D01*
X92203893Y-160656133D01*
X92223598Y-160670747D01*
X92241777Y-160687223D01*
X92258253Y-160705402D01*
X92272867Y-160725107D01*
X92285480Y-160746151D01*
X92295970Y-160768329D01*
X92304235Y-160791429D01*
X92310196Y-160815227D01*
X92313796Y-160839496D01*
X92315000Y-160864000D01*
X92315000Y-161789000D01*
X92313796Y-161813504D01*
X92310196Y-161837773D01*
X92304235Y-161861571D01*
X92295970Y-161884671D01*
X92285480Y-161906849D01*
X92272867Y-161927893D01*
X92258253Y-161947598D01*
X92241777Y-161965777D01*
X92223598Y-161982253D01*
X92203893Y-161996867D01*
X92182849Y-162009480D01*
X92160671Y-162019970D01*
X92137571Y-162028235D01*
X92113773Y-162034196D01*
X92089504Y-162037796D01*
X92065000Y-162039000D01*
X90815000Y-162039000D01*
X90790496Y-162037796D01*
X90766227Y-162034196D01*
X90742429Y-162028235D01*
X90719329Y-162019970D01*
X90697151Y-162009480D01*
X90676107Y-161996867D01*
X90656402Y-161982253D01*
X90638223Y-161965777D01*
X90621747Y-161947598D01*
X90607133Y-161927893D01*
X90594520Y-161906849D01*
X90584030Y-161884671D01*
X90575765Y-161861571D01*
X90569804Y-161837773D01*
X90566204Y-161813504D01*
X90565000Y-161789000D01*
X90565000Y-160864000D01*
X90566204Y-160839496D01*
X90569804Y-160815227D01*
X90575765Y-160791429D01*
X90584030Y-160768329D01*
X90594520Y-160746151D01*
X90607133Y-160725107D01*
X90621747Y-160705402D01*
X90638223Y-160687223D01*
X90656402Y-160670747D01*
X90676107Y-160656133D01*
X90697151Y-160643520D01*
X90719329Y-160633030D01*
X90742429Y-160624765D01*
X90766227Y-160618804D01*
X90790496Y-160615204D01*
X90815000Y-160614000D01*
X92065000Y-160614000D01*
X92089504Y-160615204D01*
G37*
G04 #@! TD.AperFunction*
G04 #@! TA.AperFunction,SMDPad,CuDef*
G36*
X90311504Y-140803204D02*
G01*
X90335773Y-140806804D01*
X90359571Y-140812765D01*
X90382671Y-140821030D01*
X90404849Y-140831520D01*
X90425893Y-140844133D01*
X90445598Y-140858747D01*
X90463777Y-140875223D01*
X90480253Y-140893402D01*
X90494867Y-140913107D01*
X90507480Y-140934151D01*
X90517970Y-140956329D01*
X90526235Y-140979429D01*
X90532196Y-141003227D01*
X90535796Y-141027496D01*
X90537000Y-141052000D01*
X90537000Y-141977000D01*
X90535796Y-142001504D01*
X90532196Y-142025773D01*
X90526235Y-142049571D01*
X90517970Y-142072671D01*
X90507480Y-142094849D01*
X90494867Y-142115893D01*
X90480253Y-142135598D01*
X90463777Y-142153777D01*
X90445598Y-142170253D01*
X90425893Y-142184867D01*
X90404849Y-142197480D01*
X90382671Y-142207970D01*
X90359571Y-142216235D01*
X90335773Y-142222196D01*
X90311504Y-142225796D01*
X90287000Y-142227000D01*
X89037000Y-142227000D01*
X89012496Y-142225796D01*
X88988227Y-142222196D01*
X88964429Y-142216235D01*
X88941329Y-142207970D01*
X88919151Y-142197480D01*
X88898107Y-142184867D01*
X88878402Y-142170253D01*
X88860223Y-142153777D01*
X88843747Y-142135598D01*
X88829133Y-142115893D01*
X88816520Y-142094849D01*
X88806030Y-142072671D01*
X88797765Y-142049571D01*
X88791804Y-142025773D01*
X88788204Y-142001504D01*
X88787000Y-141977000D01*
X88787000Y-141052000D01*
X88788204Y-141027496D01*
X88791804Y-141003227D01*
X88797765Y-140979429D01*
X88806030Y-140956329D01*
X88816520Y-140934151D01*
X88829133Y-140913107D01*
X88843747Y-140893402D01*
X88860223Y-140875223D01*
X88878402Y-140858747D01*
X88898107Y-140844133D01*
X88919151Y-140831520D01*
X88941329Y-140821030D01*
X88964429Y-140812765D01*
X88988227Y-140806804D01*
X89012496Y-140803204D01*
X89037000Y-140802000D01*
X90287000Y-140802000D01*
X90311504Y-140803204D01*
G37*
G04 #@! TD.AperFunction*
G04 #@! TA.AperFunction,SMDPad,CuDef*
G36*
X90311504Y-143778204D02*
G01*
X90335773Y-143781804D01*
X90359571Y-143787765D01*
X90382671Y-143796030D01*
X90404849Y-143806520D01*
X90425893Y-143819133D01*
X90445598Y-143833747D01*
X90463777Y-143850223D01*
X90480253Y-143868402D01*
X90494867Y-143888107D01*
X90507480Y-143909151D01*
X90517970Y-143931329D01*
X90526235Y-143954429D01*
X90532196Y-143978227D01*
X90535796Y-144002496D01*
X90537000Y-144027000D01*
X90537000Y-144952000D01*
X90535796Y-144976504D01*
X90532196Y-145000773D01*
X90526235Y-145024571D01*
X90517970Y-145047671D01*
X90507480Y-145069849D01*
X90494867Y-145090893D01*
X90480253Y-145110598D01*
X90463777Y-145128777D01*
X90445598Y-145145253D01*
X90425893Y-145159867D01*
X90404849Y-145172480D01*
X90382671Y-145182970D01*
X90359571Y-145191235D01*
X90335773Y-145197196D01*
X90311504Y-145200796D01*
X90287000Y-145202000D01*
X89037000Y-145202000D01*
X89012496Y-145200796D01*
X88988227Y-145197196D01*
X88964429Y-145191235D01*
X88941329Y-145182970D01*
X88919151Y-145172480D01*
X88898107Y-145159867D01*
X88878402Y-145145253D01*
X88860223Y-145128777D01*
X88843747Y-145110598D01*
X88829133Y-145090893D01*
X88816520Y-145069849D01*
X88806030Y-145047671D01*
X88797765Y-145024571D01*
X88791804Y-145000773D01*
X88788204Y-144976504D01*
X88787000Y-144952000D01*
X88787000Y-144027000D01*
X88788204Y-144002496D01*
X88791804Y-143978227D01*
X88797765Y-143954429D01*
X88806030Y-143931329D01*
X88816520Y-143909151D01*
X88829133Y-143888107D01*
X88843747Y-143868402D01*
X88860223Y-143850223D01*
X88878402Y-143833747D01*
X88898107Y-143819133D01*
X88919151Y-143806520D01*
X88941329Y-143796030D01*
X88964429Y-143787765D01*
X88988227Y-143781804D01*
X89012496Y-143778204D01*
X89037000Y-143777000D01*
X90287000Y-143777000D01*
X90311504Y-143778204D01*
G37*
G04 #@! TD.AperFunction*
G04 #@! TA.AperFunction,SMDPad,CuDef*
G36*
X90438504Y-123966204D02*
G01*
X90462773Y-123969804D01*
X90486571Y-123975765D01*
X90509671Y-123984030D01*
X90531849Y-123994520D01*
X90552893Y-124007133D01*
X90572598Y-124021747D01*
X90590777Y-124038223D01*
X90607253Y-124056402D01*
X90621867Y-124076107D01*
X90634480Y-124097151D01*
X90644970Y-124119329D01*
X90653235Y-124142429D01*
X90659196Y-124166227D01*
X90662796Y-124190496D01*
X90664000Y-124215000D01*
X90664000Y-125140000D01*
X90662796Y-125164504D01*
X90659196Y-125188773D01*
X90653235Y-125212571D01*
X90644970Y-125235671D01*
X90634480Y-125257849D01*
X90621867Y-125278893D01*
X90607253Y-125298598D01*
X90590777Y-125316777D01*
X90572598Y-125333253D01*
X90552893Y-125347867D01*
X90531849Y-125360480D01*
X90509671Y-125370970D01*
X90486571Y-125379235D01*
X90462773Y-125385196D01*
X90438504Y-125388796D01*
X90414000Y-125390000D01*
X89164000Y-125390000D01*
X89139496Y-125388796D01*
X89115227Y-125385196D01*
X89091429Y-125379235D01*
X89068329Y-125370970D01*
X89046151Y-125360480D01*
X89025107Y-125347867D01*
X89005402Y-125333253D01*
X88987223Y-125316777D01*
X88970747Y-125298598D01*
X88956133Y-125278893D01*
X88943520Y-125257849D01*
X88933030Y-125235671D01*
X88924765Y-125212571D01*
X88918804Y-125188773D01*
X88915204Y-125164504D01*
X88914000Y-125140000D01*
X88914000Y-124215000D01*
X88915204Y-124190496D01*
X88918804Y-124166227D01*
X88924765Y-124142429D01*
X88933030Y-124119329D01*
X88943520Y-124097151D01*
X88956133Y-124076107D01*
X88970747Y-124056402D01*
X88987223Y-124038223D01*
X89005402Y-124021747D01*
X89025107Y-124007133D01*
X89046151Y-123994520D01*
X89068329Y-123984030D01*
X89091429Y-123975765D01*
X89115227Y-123969804D01*
X89139496Y-123966204D01*
X89164000Y-123965000D01*
X90414000Y-123965000D01*
X90438504Y-123966204D01*
G37*
G04 #@! TD.AperFunction*
G04 #@! TA.AperFunction,SMDPad,CuDef*
G36*
X90438504Y-120991204D02*
G01*
X90462773Y-120994804D01*
X90486571Y-121000765D01*
X90509671Y-121009030D01*
X90531849Y-121019520D01*
X90552893Y-121032133D01*
X90572598Y-121046747D01*
X90590777Y-121063223D01*
X90607253Y-121081402D01*
X90621867Y-121101107D01*
X90634480Y-121122151D01*
X90644970Y-121144329D01*
X90653235Y-121167429D01*
X90659196Y-121191227D01*
X90662796Y-121215496D01*
X90664000Y-121240000D01*
X90664000Y-122165000D01*
X90662796Y-122189504D01*
X90659196Y-122213773D01*
X90653235Y-122237571D01*
X90644970Y-122260671D01*
X90634480Y-122282849D01*
X90621867Y-122303893D01*
X90607253Y-122323598D01*
X90590777Y-122341777D01*
X90572598Y-122358253D01*
X90552893Y-122372867D01*
X90531849Y-122385480D01*
X90509671Y-122395970D01*
X90486571Y-122404235D01*
X90462773Y-122410196D01*
X90438504Y-122413796D01*
X90414000Y-122415000D01*
X89164000Y-122415000D01*
X89139496Y-122413796D01*
X89115227Y-122410196D01*
X89091429Y-122404235D01*
X89068329Y-122395970D01*
X89046151Y-122385480D01*
X89025107Y-122372867D01*
X89005402Y-122358253D01*
X88987223Y-122341777D01*
X88970747Y-122323598D01*
X88956133Y-122303893D01*
X88943520Y-122282849D01*
X88933030Y-122260671D01*
X88924765Y-122237571D01*
X88918804Y-122213773D01*
X88915204Y-122189504D01*
X88914000Y-122165000D01*
X88914000Y-121240000D01*
X88915204Y-121215496D01*
X88918804Y-121191227D01*
X88924765Y-121167429D01*
X88933030Y-121144329D01*
X88943520Y-121122151D01*
X88956133Y-121101107D01*
X88970747Y-121081402D01*
X88987223Y-121063223D01*
X89005402Y-121046747D01*
X89025107Y-121032133D01*
X89046151Y-121019520D01*
X89068329Y-121009030D01*
X89091429Y-121000765D01*
X89115227Y-120994804D01*
X89139496Y-120991204D01*
X89164000Y-120990000D01*
X90414000Y-120990000D01*
X90438504Y-120991204D01*
G37*
G04 #@! TD.AperFunction*
G04 #@! TA.AperFunction,SMDPad,CuDef*
G36*
X131586504Y-163590204D02*
G01*
X131610773Y-163593804D01*
X131634571Y-163599765D01*
X131657671Y-163608030D01*
X131679849Y-163618520D01*
X131700893Y-163631133D01*
X131720598Y-163645747D01*
X131738777Y-163662223D01*
X131755253Y-163680402D01*
X131769867Y-163700107D01*
X131782480Y-163721151D01*
X131792970Y-163743329D01*
X131801235Y-163766429D01*
X131807196Y-163790227D01*
X131810796Y-163814496D01*
X131812000Y-163839000D01*
X131812000Y-164764000D01*
X131810796Y-164788504D01*
X131807196Y-164812773D01*
X131801235Y-164836571D01*
X131792970Y-164859671D01*
X131782480Y-164881849D01*
X131769867Y-164902893D01*
X131755253Y-164922598D01*
X131738777Y-164940777D01*
X131720598Y-164957253D01*
X131700893Y-164971867D01*
X131679849Y-164984480D01*
X131657671Y-164994970D01*
X131634571Y-165003235D01*
X131610773Y-165009196D01*
X131586504Y-165012796D01*
X131562000Y-165014000D01*
X130312000Y-165014000D01*
X130287496Y-165012796D01*
X130263227Y-165009196D01*
X130239429Y-165003235D01*
X130216329Y-164994970D01*
X130194151Y-164984480D01*
X130173107Y-164971867D01*
X130153402Y-164957253D01*
X130135223Y-164940777D01*
X130118747Y-164922598D01*
X130104133Y-164902893D01*
X130091520Y-164881849D01*
X130081030Y-164859671D01*
X130072765Y-164836571D01*
X130066804Y-164812773D01*
X130063204Y-164788504D01*
X130062000Y-164764000D01*
X130062000Y-163839000D01*
X130063204Y-163814496D01*
X130066804Y-163790227D01*
X130072765Y-163766429D01*
X130081030Y-163743329D01*
X130091520Y-163721151D01*
X130104133Y-163700107D01*
X130118747Y-163680402D01*
X130135223Y-163662223D01*
X130153402Y-163645747D01*
X130173107Y-163631133D01*
X130194151Y-163618520D01*
X130216329Y-163608030D01*
X130239429Y-163599765D01*
X130263227Y-163593804D01*
X130287496Y-163590204D01*
X130312000Y-163589000D01*
X131562000Y-163589000D01*
X131586504Y-163590204D01*
G37*
G04 #@! TD.AperFunction*
G04 #@! TA.AperFunction,SMDPad,CuDef*
G36*
X131586504Y-160615204D02*
G01*
X131610773Y-160618804D01*
X131634571Y-160624765D01*
X131657671Y-160633030D01*
X131679849Y-160643520D01*
X131700893Y-160656133D01*
X131720598Y-160670747D01*
X131738777Y-160687223D01*
X131755253Y-160705402D01*
X131769867Y-160725107D01*
X131782480Y-160746151D01*
X131792970Y-160768329D01*
X131801235Y-160791429D01*
X131807196Y-160815227D01*
X131810796Y-160839496D01*
X131812000Y-160864000D01*
X131812000Y-161789000D01*
X131810796Y-161813504D01*
X131807196Y-161837773D01*
X131801235Y-161861571D01*
X131792970Y-161884671D01*
X131782480Y-161906849D01*
X131769867Y-161927893D01*
X131755253Y-161947598D01*
X131738777Y-161965777D01*
X131720598Y-161982253D01*
X131700893Y-161996867D01*
X131679849Y-162009480D01*
X131657671Y-162019970D01*
X131634571Y-162028235D01*
X131610773Y-162034196D01*
X131586504Y-162037796D01*
X131562000Y-162039000D01*
X130312000Y-162039000D01*
X130287496Y-162037796D01*
X130263227Y-162034196D01*
X130239429Y-162028235D01*
X130216329Y-162019970D01*
X130194151Y-162009480D01*
X130173107Y-161996867D01*
X130153402Y-161982253D01*
X130135223Y-161965777D01*
X130118747Y-161947598D01*
X130104133Y-161927893D01*
X130091520Y-161906849D01*
X130081030Y-161884671D01*
X130072765Y-161861571D01*
X130066804Y-161837773D01*
X130063204Y-161813504D01*
X130062000Y-161789000D01*
X130062000Y-160864000D01*
X130063204Y-160839496D01*
X130066804Y-160815227D01*
X130072765Y-160791429D01*
X130081030Y-160768329D01*
X130091520Y-160746151D01*
X130104133Y-160725107D01*
X130118747Y-160705402D01*
X130135223Y-160687223D01*
X130153402Y-160670747D01*
X130173107Y-160656133D01*
X130194151Y-160643520D01*
X130216329Y-160633030D01*
X130239429Y-160624765D01*
X130263227Y-160618804D01*
X130287496Y-160615204D01*
X130312000Y-160614000D01*
X131562000Y-160614000D01*
X131586504Y-160615204D01*
G37*
G04 #@! TD.AperFunction*
G04 #@! TA.AperFunction,SMDPad,CuDef*
G36*
X111774504Y-163590204D02*
G01*
X111798773Y-163593804D01*
X111822571Y-163599765D01*
X111845671Y-163608030D01*
X111867849Y-163618520D01*
X111888893Y-163631133D01*
X111908598Y-163645747D01*
X111926777Y-163662223D01*
X111943253Y-163680402D01*
X111957867Y-163700107D01*
X111970480Y-163721151D01*
X111980970Y-163743329D01*
X111989235Y-163766429D01*
X111995196Y-163790227D01*
X111998796Y-163814496D01*
X112000000Y-163839000D01*
X112000000Y-164764000D01*
X111998796Y-164788504D01*
X111995196Y-164812773D01*
X111989235Y-164836571D01*
X111980970Y-164859671D01*
X111970480Y-164881849D01*
X111957867Y-164902893D01*
X111943253Y-164922598D01*
X111926777Y-164940777D01*
X111908598Y-164957253D01*
X111888893Y-164971867D01*
X111867849Y-164984480D01*
X111845671Y-164994970D01*
X111822571Y-165003235D01*
X111798773Y-165009196D01*
X111774504Y-165012796D01*
X111750000Y-165014000D01*
X110500000Y-165014000D01*
X110475496Y-165012796D01*
X110451227Y-165009196D01*
X110427429Y-165003235D01*
X110404329Y-164994970D01*
X110382151Y-164984480D01*
X110361107Y-164971867D01*
X110341402Y-164957253D01*
X110323223Y-164940777D01*
X110306747Y-164922598D01*
X110292133Y-164902893D01*
X110279520Y-164881849D01*
X110269030Y-164859671D01*
X110260765Y-164836571D01*
X110254804Y-164812773D01*
X110251204Y-164788504D01*
X110250000Y-164764000D01*
X110250000Y-163839000D01*
X110251204Y-163814496D01*
X110254804Y-163790227D01*
X110260765Y-163766429D01*
X110269030Y-163743329D01*
X110279520Y-163721151D01*
X110292133Y-163700107D01*
X110306747Y-163680402D01*
X110323223Y-163662223D01*
X110341402Y-163645747D01*
X110361107Y-163631133D01*
X110382151Y-163618520D01*
X110404329Y-163608030D01*
X110427429Y-163599765D01*
X110451227Y-163593804D01*
X110475496Y-163590204D01*
X110500000Y-163589000D01*
X111750000Y-163589000D01*
X111774504Y-163590204D01*
G37*
G04 #@! TD.AperFunction*
G04 #@! TA.AperFunction,SMDPad,CuDef*
G36*
X111774504Y-160615204D02*
G01*
X111798773Y-160618804D01*
X111822571Y-160624765D01*
X111845671Y-160633030D01*
X111867849Y-160643520D01*
X111888893Y-160656133D01*
X111908598Y-160670747D01*
X111926777Y-160687223D01*
X111943253Y-160705402D01*
X111957867Y-160725107D01*
X111970480Y-160746151D01*
X111980970Y-160768329D01*
X111989235Y-160791429D01*
X111995196Y-160815227D01*
X111998796Y-160839496D01*
X112000000Y-160864000D01*
X112000000Y-161789000D01*
X111998796Y-161813504D01*
X111995196Y-161837773D01*
X111989235Y-161861571D01*
X111980970Y-161884671D01*
X111970480Y-161906849D01*
X111957867Y-161927893D01*
X111943253Y-161947598D01*
X111926777Y-161965777D01*
X111908598Y-161982253D01*
X111888893Y-161996867D01*
X111867849Y-162009480D01*
X111845671Y-162019970D01*
X111822571Y-162028235D01*
X111798773Y-162034196D01*
X111774504Y-162037796D01*
X111750000Y-162039000D01*
X110500000Y-162039000D01*
X110475496Y-162037796D01*
X110451227Y-162034196D01*
X110427429Y-162028235D01*
X110404329Y-162019970D01*
X110382151Y-162009480D01*
X110361107Y-161996867D01*
X110341402Y-161982253D01*
X110323223Y-161965777D01*
X110306747Y-161947598D01*
X110292133Y-161927893D01*
X110279520Y-161906849D01*
X110269030Y-161884671D01*
X110260765Y-161861571D01*
X110254804Y-161837773D01*
X110251204Y-161813504D01*
X110250000Y-161789000D01*
X110250000Y-160864000D01*
X110251204Y-160839496D01*
X110254804Y-160815227D01*
X110260765Y-160791429D01*
X110269030Y-160768329D01*
X110279520Y-160746151D01*
X110292133Y-160725107D01*
X110306747Y-160705402D01*
X110323223Y-160687223D01*
X110341402Y-160670747D01*
X110361107Y-160656133D01*
X110382151Y-160643520D01*
X110404329Y-160633030D01*
X110427429Y-160624765D01*
X110451227Y-160618804D01*
X110475496Y-160615204D01*
X110500000Y-160614000D01*
X111750000Y-160614000D01*
X111774504Y-160615204D01*
G37*
G04 #@! TD.AperFunction*
G04 #@! TA.AperFunction,SMDPad,CuDef*
G36*
X131713504Y-183402204D02*
G01*
X131737773Y-183405804D01*
X131761571Y-183411765D01*
X131784671Y-183420030D01*
X131806849Y-183430520D01*
X131827893Y-183443133D01*
X131847598Y-183457747D01*
X131865777Y-183474223D01*
X131882253Y-183492402D01*
X131896867Y-183512107D01*
X131909480Y-183533151D01*
X131919970Y-183555329D01*
X131928235Y-183578429D01*
X131934196Y-183602227D01*
X131937796Y-183626496D01*
X131939000Y-183651000D01*
X131939000Y-184576000D01*
X131937796Y-184600504D01*
X131934196Y-184624773D01*
X131928235Y-184648571D01*
X131919970Y-184671671D01*
X131909480Y-184693849D01*
X131896867Y-184714893D01*
X131882253Y-184734598D01*
X131865777Y-184752777D01*
X131847598Y-184769253D01*
X131827893Y-184783867D01*
X131806849Y-184796480D01*
X131784671Y-184806970D01*
X131761571Y-184815235D01*
X131737773Y-184821196D01*
X131713504Y-184824796D01*
X131689000Y-184826000D01*
X130439000Y-184826000D01*
X130414496Y-184824796D01*
X130390227Y-184821196D01*
X130366429Y-184815235D01*
X130343329Y-184806970D01*
X130321151Y-184796480D01*
X130300107Y-184783867D01*
X130280402Y-184769253D01*
X130262223Y-184752777D01*
X130245747Y-184734598D01*
X130231133Y-184714893D01*
X130218520Y-184693849D01*
X130208030Y-184671671D01*
X130199765Y-184648571D01*
X130193804Y-184624773D01*
X130190204Y-184600504D01*
X130189000Y-184576000D01*
X130189000Y-183651000D01*
X130190204Y-183626496D01*
X130193804Y-183602227D01*
X130199765Y-183578429D01*
X130208030Y-183555329D01*
X130218520Y-183533151D01*
X130231133Y-183512107D01*
X130245747Y-183492402D01*
X130262223Y-183474223D01*
X130280402Y-183457747D01*
X130300107Y-183443133D01*
X130321151Y-183430520D01*
X130343329Y-183420030D01*
X130366429Y-183411765D01*
X130390227Y-183405804D01*
X130414496Y-183402204D01*
X130439000Y-183401000D01*
X131689000Y-183401000D01*
X131713504Y-183402204D01*
G37*
G04 #@! TD.AperFunction*
G04 #@! TA.AperFunction,SMDPad,CuDef*
G36*
X131713504Y-180427204D02*
G01*
X131737773Y-180430804D01*
X131761571Y-180436765D01*
X131784671Y-180445030D01*
X131806849Y-180455520D01*
X131827893Y-180468133D01*
X131847598Y-180482747D01*
X131865777Y-180499223D01*
X131882253Y-180517402D01*
X131896867Y-180537107D01*
X131909480Y-180558151D01*
X131919970Y-180580329D01*
X131928235Y-180603429D01*
X131934196Y-180627227D01*
X131937796Y-180651496D01*
X131939000Y-180676000D01*
X131939000Y-181601000D01*
X131937796Y-181625504D01*
X131934196Y-181649773D01*
X131928235Y-181673571D01*
X131919970Y-181696671D01*
X131909480Y-181718849D01*
X131896867Y-181739893D01*
X131882253Y-181759598D01*
X131865777Y-181777777D01*
X131847598Y-181794253D01*
X131827893Y-181808867D01*
X131806849Y-181821480D01*
X131784671Y-181831970D01*
X131761571Y-181840235D01*
X131737773Y-181846196D01*
X131713504Y-181849796D01*
X131689000Y-181851000D01*
X130439000Y-181851000D01*
X130414496Y-181849796D01*
X130390227Y-181846196D01*
X130366429Y-181840235D01*
X130343329Y-181831970D01*
X130321151Y-181821480D01*
X130300107Y-181808867D01*
X130280402Y-181794253D01*
X130262223Y-181777777D01*
X130245747Y-181759598D01*
X130231133Y-181739893D01*
X130218520Y-181718849D01*
X130208030Y-181696671D01*
X130199765Y-181673571D01*
X130193804Y-181649773D01*
X130190204Y-181625504D01*
X130189000Y-181601000D01*
X130189000Y-180676000D01*
X130190204Y-180651496D01*
X130193804Y-180627227D01*
X130199765Y-180603429D01*
X130208030Y-180580329D01*
X130218520Y-180558151D01*
X130231133Y-180537107D01*
X130245747Y-180517402D01*
X130262223Y-180499223D01*
X130280402Y-180482747D01*
X130300107Y-180468133D01*
X130321151Y-180455520D01*
X130343329Y-180445030D01*
X130366429Y-180436765D01*
X130390227Y-180430804D01*
X130414496Y-180427204D01*
X130439000Y-180426000D01*
X131689000Y-180426000D01*
X131713504Y-180427204D01*
G37*
G04 #@! TD.AperFunction*
G04 #@! TA.AperFunction,SMDPad,CuDef*
G36*
X111901504Y-180463704D02*
G01*
X111925773Y-180467304D01*
X111949571Y-180473265D01*
X111972671Y-180481530D01*
X111994849Y-180492020D01*
X112015893Y-180504633D01*
X112035598Y-180519247D01*
X112053777Y-180535723D01*
X112070253Y-180553902D01*
X112084867Y-180573607D01*
X112097480Y-180594651D01*
X112107970Y-180616829D01*
X112116235Y-180639929D01*
X112122196Y-180663727D01*
X112125796Y-180687996D01*
X112127000Y-180712500D01*
X112127000Y-181637500D01*
X112125796Y-181662004D01*
X112122196Y-181686273D01*
X112116235Y-181710071D01*
X112107970Y-181733171D01*
X112097480Y-181755349D01*
X112084867Y-181776393D01*
X112070253Y-181796098D01*
X112053777Y-181814277D01*
X112035598Y-181830753D01*
X112015893Y-181845367D01*
X111994849Y-181857980D01*
X111972671Y-181868470D01*
X111949571Y-181876735D01*
X111925773Y-181882696D01*
X111901504Y-181886296D01*
X111877000Y-181887500D01*
X110627000Y-181887500D01*
X110602496Y-181886296D01*
X110578227Y-181882696D01*
X110554429Y-181876735D01*
X110531329Y-181868470D01*
X110509151Y-181857980D01*
X110488107Y-181845367D01*
X110468402Y-181830753D01*
X110450223Y-181814277D01*
X110433747Y-181796098D01*
X110419133Y-181776393D01*
X110406520Y-181755349D01*
X110396030Y-181733171D01*
X110387765Y-181710071D01*
X110381804Y-181686273D01*
X110378204Y-181662004D01*
X110377000Y-181637500D01*
X110377000Y-180712500D01*
X110378204Y-180687996D01*
X110381804Y-180663727D01*
X110387765Y-180639929D01*
X110396030Y-180616829D01*
X110406520Y-180594651D01*
X110419133Y-180573607D01*
X110433747Y-180553902D01*
X110450223Y-180535723D01*
X110468402Y-180519247D01*
X110488107Y-180504633D01*
X110509151Y-180492020D01*
X110531329Y-180481530D01*
X110554429Y-180473265D01*
X110578227Y-180467304D01*
X110602496Y-180463704D01*
X110627000Y-180462500D01*
X111877000Y-180462500D01*
X111901504Y-180463704D01*
G37*
G04 #@! TD.AperFunction*
G04 #@! TA.AperFunction,SMDPad,CuDef*
G36*
X111901504Y-183438704D02*
G01*
X111925773Y-183442304D01*
X111949571Y-183448265D01*
X111972671Y-183456530D01*
X111994849Y-183467020D01*
X112015893Y-183479633D01*
X112035598Y-183494247D01*
X112053777Y-183510723D01*
X112070253Y-183528902D01*
X112084867Y-183548607D01*
X112097480Y-183569651D01*
X112107970Y-183591829D01*
X112116235Y-183614929D01*
X112122196Y-183638727D01*
X112125796Y-183662996D01*
X112127000Y-183687500D01*
X112127000Y-184612500D01*
X112125796Y-184637004D01*
X112122196Y-184661273D01*
X112116235Y-184685071D01*
X112107970Y-184708171D01*
X112097480Y-184730349D01*
X112084867Y-184751393D01*
X112070253Y-184771098D01*
X112053777Y-184789277D01*
X112035598Y-184805753D01*
X112015893Y-184820367D01*
X111994849Y-184832980D01*
X111972671Y-184843470D01*
X111949571Y-184851735D01*
X111925773Y-184857696D01*
X111901504Y-184861296D01*
X111877000Y-184862500D01*
X110627000Y-184862500D01*
X110602496Y-184861296D01*
X110578227Y-184857696D01*
X110554429Y-184851735D01*
X110531329Y-184843470D01*
X110509151Y-184832980D01*
X110488107Y-184820367D01*
X110468402Y-184805753D01*
X110450223Y-184789277D01*
X110433747Y-184771098D01*
X110419133Y-184751393D01*
X110406520Y-184730349D01*
X110396030Y-184708171D01*
X110387765Y-184685071D01*
X110381804Y-184661273D01*
X110378204Y-184637004D01*
X110377000Y-184612500D01*
X110377000Y-183687500D01*
X110378204Y-183662996D01*
X110381804Y-183638727D01*
X110387765Y-183614929D01*
X110396030Y-183591829D01*
X110406520Y-183569651D01*
X110419133Y-183548607D01*
X110433747Y-183528902D01*
X110450223Y-183510723D01*
X110468402Y-183494247D01*
X110488107Y-183479633D01*
X110509151Y-183467020D01*
X110531329Y-183456530D01*
X110554429Y-183448265D01*
X110578227Y-183442304D01*
X110602496Y-183438704D01*
X110627000Y-183437500D01*
X111877000Y-183437500D01*
X111901504Y-183438704D01*
G37*
G04 #@! TD.AperFunction*
G04 #@! TA.AperFunction,SMDPad,CuDef*
G36*
X153049504Y-123966204D02*
G01*
X153073773Y-123969804D01*
X153097571Y-123975765D01*
X153120671Y-123984030D01*
X153142849Y-123994520D01*
X153163893Y-124007133D01*
X153183598Y-124021747D01*
X153201777Y-124038223D01*
X153218253Y-124056402D01*
X153232867Y-124076107D01*
X153245480Y-124097151D01*
X153255970Y-124119329D01*
X153264235Y-124142429D01*
X153270196Y-124166227D01*
X153273796Y-124190496D01*
X153275000Y-124215000D01*
X153275000Y-125140000D01*
X153273796Y-125164504D01*
X153270196Y-125188773D01*
X153264235Y-125212571D01*
X153255970Y-125235671D01*
X153245480Y-125257849D01*
X153232867Y-125278893D01*
X153218253Y-125298598D01*
X153201777Y-125316777D01*
X153183598Y-125333253D01*
X153163893Y-125347867D01*
X153142849Y-125360480D01*
X153120671Y-125370970D01*
X153097571Y-125379235D01*
X153073773Y-125385196D01*
X153049504Y-125388796D01*
X153025000Y-125390000D01*
X151775000Y-125390000D01*
X151750496Y-125388796D01*
X151726227Y-125385196D01*
X151702429Y-125379235D01*
X151679329Y-125370970D01*
X151657151Y-125360480D01*
X151636107Y-125347867D01*
X151616402Y-125333253D01*
X151598223Y-125316777D01*
X151581747Y-125298598D01*
X151567133Y-125278893D01*
X151554520Y-125257849D01*
X151544030Y-125235671D01*
X151535765Y-125212571D01*
X151529804Y-125188773D01*
X151526204Y-125164504D01*
X151525000Y-125140000D01*
X151525000Y-124215000D01*
X151526204Y-124190496D01*
X151529804Y-124166227D01*
X151535765Y-124142429D01*
X151544030Y-124119329D01*
X151554520Y-124097151D01*
X151567133Y-124076107D01*
X151581747Y-124056402D01*
X151598223Y-124038223D01*
X151616402Y-124021747D01*
X151636107Y-124007133D01*
X151657151Y-123994520D01*
X151679329Y-123984030D01*
X151702429Y-123975765D01*
X151726227Y-123969804D01*
X151750496Y-123966204D01*
X151775000Y-123965000D01*
X153025000Y-123965000D01*
X153049504Y-123966204D01*
G37*
G04 #@! TD.AperFunction*
G04 #@! TA.AperFunction,SMDPad,CuDef*
G36*
X153049504Y-120991204D02*
G01*
X153073773Y-120994804D01*
X153097571Y-121000765D01*
X153120671Y-121009030D01*
X153142849Y-121019520D01*
X153163893Y-121032133D01*
X153183598Y-121046747D01*
X153201777Y-121063223D01*
X153218253Y-121081402D01*
X153232867Y-121101107D01*
X153245480Y-121122151D01*
X153255970Y-121144329D01*
X153264235Y-121167429D01*
X153270196Y-121191227D01*
X153273796Y-121215496D01*
X153275000Y-121240000D01*
X153275000Y-122165000D01*
X153273796Y-122189504D01*
X153270196Y-122213773D01*
X153264235Y-122237571D01*
X153255970Y-122260671D01*
X153245480Y-122282849D01*
X153232867Y-122303893D01*
X153218253Y-122323598D01*
X153201777Y-122341777D01*
X153183598Y-122358253D01*
X153163893Y-122372867D01*
X153142849Y-122385480D01*
X153120671Y-122395970D01*
X153097571Y-122404235D01*
X153073773Y-122410196D01*
X153049504Y-122413796D01*
X153025000Y-122415000D01*
X151775000Y-122415000D01*
X151750496Y-122413796D01*
X151726227Y-122410196D01*
X151702429Y-122404235D01*
X151679329Y-122395970D01*
X151657151Y-122385480D01*
X151636107Y-122372867D01*
X151616402Y-122358253D01*
X151598223Y-122341777D01*
X151581747Y-122323598D01*
X151567133Y-122303893D01*
X151554520Y-122282849D01*
X151544030Y-122260671D01*
X151535765Y-122237571D01*
X151529804Y-122213773D01*
X151526204Y-122189504D01*
X151525000Y-122165000D01*
X151525000Y-121240000D01*
X151526204Y-121215496D01*
X151529804Y-121191227D01*
X151535765Y-121167429D01*
X151544030Y-121144329D01*
X151554520Y-121122151D01*
X151567133Y-121101107D01*
X151581747Y-121081402D01*
X151598223Y-121063223D01*
X151616402Y-121046747D01*
X151636107Y-121032133D01*
X151657151Y-121019520D01*
X151679329Y-121009030D01*
X151702429Y-121000765D01*
X151726227Y-120994804D01*
X151750496Y-120991204D01*
X151775000Y-120990000D01*
X153025000Y-120990000D01*
X153049504Y-120991204D01*
G37*
G04 #@! TD.AperFunction*
G04 #@! TA.AperFunction,SMDPad,CuDef*
G36*
X153176504Y-143778204D02*
G01*
X153200773Y-143781804D01*
X153224571Y-143787765D01*
X153247671Y-143796030D01*
X153269849Y-143806520D01*
X153290893Y-143819133D01*
X153310598Y-143833747D01*
X153328777Y-143850223D01*
X153345253Y-143868402D01*
X153359867Y-143888107D01*
X153372480Y-143909151D01*
X153382970Y-143931329D01*
X153391235Y-143954429D01*
X153397196Y-143978227D01*
X153400796Y-144002496D01*
X153402000Y-144027000D01*
X153402000Y-144952000D01*
X153400796Y-144976504D01*
X153397196Y-145000773D01*
X153391235Y-145024571D01*
X153382970Y-145047671D01*
X153372480Y-145069849D01*
X153359867Y-145090893D01*
X153345253Y-145110598D01*
X153328777Y-145128777D01*
X153310598Y-145145253D01*
X153290893Y-145159867D01*
X153269849Y-145172480D01*
X153247671Y-145182970D01*
X153224571Y-145191235D01*
X153200773Y-145197196D01*
X153176504Y-145200796D01*
X153152000Y-145202000D01*
X151902000Y-145202000D01*
X151877496Y-145200796D01*
X151853227Y-145197196D01*
X151829429Y-145191235D01*
X151806329Y-145182970D01*
X151784151Y-145172480D01*
X151763107Y-145159867D01*
X151743402Y-145145253D01*
X151725223Y-145128777D01*
X151708747Y-145110598D01*
X151694133Y-145090893D01*
X151681520Y-145069849D01*
X151671030Y-145047671D01*
X151662765Y-145024571D01*
X151656804Y-145000773D01*
X151653204Y-144976504D01*
X151652000Y-144952000D01*
X151652000Y-144027000D01*
X151653204Y-144002496D01*
X151656804Y-143978227D01*
X151662765Y-143954429D01*
X151671030Y-143931329D01*
X151681520Y-143909151D01*
X151694133Y-143888107D01*
X151708747Y-143868402D01*
X151725223Y-143850223D01*
X151743402Y-143833747D01*
X151763107Y-143819133D01*
X151784151Y-143806520D01*
X151806329Y-143796030D01*
X151829429Y-143787765D01*
X151853227Y-143781804D01*
X151877496Y-143778204D01*
X151902000Y-143777000D01*
X153152000Y-143777000D01*
X153176504Y-143778204D01*
G37*
G04 #@! TD.AperFunction*
G04 #@! TA.AperFunction,SMDPad,CuDef*
G36*
X153176504Y-140803204D02*
G01*
X153200773Y-140806804D01*
X153224571Y-140812765D01*
X153247671Y-140821030D01*
X153269849Y-140831520D01*
X153290893Y-140844133D01*
X153310598Y-140858747D01*
X153328777Y-140875223D01*
X153345253Y-140893402D01*
X153359867Y-140913107D01*
X153372480Y-140934151D01*
X153382970Y-140956329D01*
X153391235Y-140979429D01*
X153397196Y-141003227D01*
X153400796Y-141027496D01*
X153402000Y-141052000D01*
X153402000Y-141977000D01*
X153400796Y-142001504D01*
X153397196Y-142025773D01*
X153391235Y-142049571D01*
X153382970Y-142072671D01*
X153372480Y-142094849D01*
X153359867Y-142115893D01*
X153345253Y-142135598D01*
X153328777Y-142153777D01*
X153310598Y-142170253D01*
X153290893Y-142184867D01*
X153269849Y-142197480D01*
X153247671Y-142207970D01*
X153224571Y-142216235D01*
X153200773Y-142222196D01*
X153176504Y-142225796D01*
X153152000Y-142227000D01*
X151902000Y-142227000D01*
X151877496Y-142225796D01*
X151853227Y-142222196D01*
X151829429Y-142216235D01*
X151806329Y-142207970D01*
X151784151Y-142197480D01*
X151763107Y-142184867D01*
X151743402Y-142170253D01*
X151725223Y-142153777D01*
X151708747Y-142135598D01*
X151694133Y-142115893D01*
X151681520Y-142094849D01*
X151671030Y-142072671D01*
X151662765Y-142049571D01*
X151656804Y-142025773D01*
X151653204Y-142001504D01*
X151652000Y-141977000D01*
X151652000Y-141052000D01*
X151653204Y-141027496D01*
X151656804Y-141003227D01*
X151662765Y-140979429D01*
X151671030Y-140956329D01*
X151681520Y-140934151D01*
X151694133Y-140913107D01*
X151708747Y-140893402D01*
X151725223Y-140875223D01*
X151743402Y-140858747D01*
X151763107Y-140844133D01*
X151784151Y-140831520D01*
X151806329Y-140821030D01*
X151829429Y-140812765D01*
X151853227Y-140806804D01*
X151877496Y-140803204D01*
X151902000Y-140802000D01*
X153152000Y-140802000D01*
X153176504Y-140803204D01*
G37*
G04 #@! TD.AperFunction*
G04 #@! TA.AperFunction,SMDPad,CuDef*
G36*
X151525504Y-160488204D02*
G01*
X151549773Y-160491804D01*
X151573571Y-160497765D01*
X151596671Y-160506030D01*
X151618849Y-160516520D01*
X151639893Y-160529133D01*
X151659598Y-160543747D01*
X151677777Y-160560223D01*
X151694253Y-160578402D01*
X151708867Y-160598107D01*
X151721480Y-160619151D01*
X151731970Y-160641329D01*
X151740235Y-160664429D01*
X151746196Y-160688227D01*
X151749796Y-160712496D01*
X151751000Y-160737000D01*
X151751000Y-161662000D01*
X151749796Y-161686504D01*
X151746196Y-161710773D01*
X151740235Y-161734571D01*
X151731970Y-161757671D01*
X151721480Y-161779849D01*
X151708867Y-161800893D01*
X151694253Y-161820598D01*
X151677777Y-161838777D01*
X151659598Y-161855253D01*
X151639893Y-161869867D01*
X151618849Y-161882480D01*
X151596671Y-161892970D01*
X151573571Y-161901235D01*
X151549773Y-161907196D01*
X151525504Y-161910796D01*
X151501000Y-161912000D01*
X150251000Y-161912000D01*
X150226496Y-161910796D01*
X150202227Y-161907196D01*
X150178429Y-161901235D01*
X150155329Y-161892970D01*
X150133151Y-161882480D01*
X150112107Y-161869867D01*
X150092402Y-161855253D01*
X150074223Y-161838777D01*
X150057747Y-161820598D01*
X150043133Y-161800893D01*
X150030520Y-161779849D01*
X150020030Y-161757671D01*
X150011765Y-161734571D01*
X150005804Y-161710773D01*
X150002204Y-161686504D01*
X150001000Y-161662000D01*
X150001000Y-160737000D01*
X150002204Y-160712496D01*
X150005804Y-160688227D01*
X150011765Y-160664429D01*
X150020030Y-160641329D01*
X150030520Y-160619151D01*
X150043133Y-160598107D01*
X150057747Y-160578402D01*
X150074223Y-160560223D01*
X150092402Y-160543747D01*
X150112107Y-160529133D01*
X150133151Y-160516520D01*
X150155329Y-160506030D01*
X150178429Y-160497765D01*
X150202227Y-160491804D01*
X150226496Y-160488204D01*
X150251000Y-160487000D01*
X151501000Y-160487000D01*
X151525504Y-160488204D01*
G37*
G04 #@! TD.AperFunction*
G04 #@! TA.AperFunction,SMDPad,CuDef*
G36*
X151525504Y-163463204D02*
G01*
X151549773Y-163466804D01*
X151573571Y-163472765D01*
X151596671Y-163481030D01*
X151618849Y-163491520D01*
X151639893Y-163504133D01*
X151659598Y-163518747D01*
X151677777Y-163535223D01*
X151694253Y-163553402D01*
X151708867Y-163573107D01*
X151721480Y-163594151D01*
X151731970Y-163616329D01*
X151740235Y-163639429D01*
X151746196Y-163663227D01*
X151749796Y-163687496D01*
X151751000Y-163712000D01*
X151751000Y-164637000D01*
X151749796Y-164661504D01*
X151746196Y-164685773D01*
X151740235Y-164709571D01*
X151731970Y-164732671D01*
X151721480Y-164754849D01*
X151708867Y-164775893D01*
X151694253Y-164795598D01*
X151677777Y-164813777D01*
X151659598Y-164830253D01*
X151639893Y-164844867D01*
X151618849Y-164857480D01*
X151596671Y-164867970D01*
X151573571Y-164876235D01*
X151549773Y-164882196D01*
X151525504Y-164885796D01*
X151501000Y-164887000D01*
X150251000Y-164887000D01*
X150226496Y-164885796D01*
X150202227Y-164882196D01*
X150178429Y-164876235D01*
X150155329Y-164867970D01*
X150133151Y-164857480D01*
X150112107Y-164844867D01*
X150092402Y-164830253D01*
X150074223Y-164813777D01*
X150057747Y-164795598D01*
X150043133Y-164775893D01*
X150030520Y-164754849D01*
X150020030Y-164732671D01*
X150011765Y-164709571D01*
X150005804Y-164685773D01*
X150002204Y-164661504D01*
X150001000Y-164637000D01*
X150001000Y-163712000D01*
X150002204Y-163687496D01*
X150005804Y-163663227D01*
X150011765Y-163639429D01*
X150020030Y-163616329D01*
X150030520Y-163594151D01*
X150043133Y-163573107D01*
X150057747Y-163553402D01*
X150074223Y-163535223D01*
X150092402Y-163518747D01*
X150112107Y-163504133D01*
X150133151Y-163491520D01*
X150155329Y-163481030D01*
X150178429Y-163472765D01*
X150202227Y-163466804D01*
X150226496Y-163463204D01*
X150251000Y-163462000D01*
X151501000Y-163462000D01*
X151525504Y-163463204D01*
G37*
G04 #@! TD.AperFunction*
G04 #@! TA.AperFunction,SMDPad,CuDef*
G36*
X151525504Y-180427204D02*
G01*
X151549773Y-180430804D01*
X151573571Y-180436765D01*
X151596671Y-180445030D01*
X151618849Y-180455520D01*
X151639893Y-180468133D01*
X151659598Y-180482747D01*
X151677777Y-180499223D01*
X151694253Y-180517402D01*
X151708867Y-180537107D01*
X151721480Y-180558151D01*
X151731970Y-180580329D01*
X151740235Y-180603429D01*
X151746196Y-180627227D01*
X151749796Y-180651496D01*
X151751000Y-180676000D01*
X151751000Y-181601000D01*
X151749796Y-181625504D01*
X151746196Y-181649773D01*
X151740235Y-181673571D01*
X151731970Y-181696671D01*
X151721480Y-181718849D01*
X151708867Y-181739893D01*
X151694253Y-181759598D01*
X151677777Y-181777777D01*
X151659598Y-181794253D01*
X151639893Y-181808867D01*
X151618849Y-181821480D01*
X151596671Y-181831970D01*
X151573571Y-181840235D01*
X151549773Y-181846196D01*
X151525504Y-181849796D01*
X151501000Y-181851000D01*
X150251000Y-181851000D01*
X150226496Y-181849796D01*
X150202227Y-181846196D01*
X150178429Y-181840235D01*
X150155329Y-181831970D01*
X150133151Y-181821480D01*
X150112107Y-181808867D01*
X150092402Y-181794253D01*
X150074223Y-181777777D01*
X150057747Y-181759598D01*
X150043133Y-181739893D01*
X150030520Y-181718849D01*
X150020030Y-181696671D01*
X150011765Y-181673571D01*
X150005804Y-181649773D01*
X150002204Y-181625504D01*
X150001000Y-181601000D01*
X150001000Y-180676000D01*
X150002204Y-180651496D01*
X150005804Y-180627227D01*
X150011765Y-180603429D01*
X150020030Y-180580329D01*
X150030520Y-180558151D01*
X150043133Y-180537107D01*
X150057747Y-180517402D01*
X150074223Y-180499223D01*
X150092402Y-180482747D01*
X150112107Y-180468133D01*
X150133151Y-180455520D01*
X150155329Y-180445030D01*
X150178429Y-180436765D01*
X150202227Y-180430804D01*
X150226496Y-180427204D01*
X150251000Y-180426000D01*
X151501000Y-180426000D01*
X151525504Y-180427204D01*
G37*
G04 #@! TD.AperFunction*
G04 #@! TA.AperFunction,SMDPad,CuDef*
G36*
X151525504Y-183402204D02*
G01*
X151549773Y-183405804D01*
X151573571Y-183411765D01*
X151596671Y-183420030D01*
X151618849Y-183430520D01*
X151639893Y-183443133D01*
X151659598Y-183457747D01*
X151677777Y-183474223D01*
X151694253Y-183492402D01*
X151708867Y-183512107D01*
X151721480Y-183533151D01*
X151731970Y-183555329D01*
X151740235Y-183578429D01*
X151746196Y-183602227D01*
X151749796Y-183626496D01*
X151751000Y-183651000D01*
X151751000Y-184576000D01*
X151749796Y-184600504D01*
X151746196Y-184624773D01*
X151740235Y-184648571D01*
X151731970Y-184671671D01*
X151721480Y-184693849D01*
X151708867Y-184714893D01*
X151694253Y-184734598D01*
X151677777Y-184752777D01*
X151659598Y-184769253D01*
X151639893Y-184783867D01*
X151618849Y-184796480D01*
X151596671Y-184806970D01*
X151573571Y-184815235D01*
X151549773Y-184821196D01*
X151525504Y-184824796D01*
X151501000Y-184826000D01*
X150251000Y-184826000D01*
X150226496Y-184824796D01*
X150202227Y-184821196D01*
X150178429Y-184815235D01*
X150155329Y-184806970D01*
X150133151Y-184796480D01*
X150112107Y-184783867D01*
X150092402Y-184769253D01*
X150074223Y-184752777D01*
X150057747Y-184734598D01*
X150043133Y-184714893D01*
X150030520Y-184693849D01*
X150020030Y-184671671D01*
X150011765Y-184648571D01*
X150005804Y-184624773D01*
X150002204Y-184600504D01*
X150001000Y-184576000D01*
X150001000Y-183651000D01*
X150002204Y-183626496D01*
X150005804Y-183602227D01*
X150011765Y-183578429D01*
X150020030Y-183555329D01*
X150030520Y-183533151D01*
X150043133Y-183512107D01*
X150057747Y-183492402D01*
X150074223Y-183474223D01*
X150092402Y-183457747D01*
X150112107Y-183443133D01*
X150133151Y-183430520D01*
X150155329Y-183420030D01*
X150178429Y-183411765D01*
X150202227Y-183405804D01*
X150226496Y-183402204D01*
X150251000Y-183401000D01*
X151501000Y-183401000D01*
X151525504Y-183402204D01*
G37*
G04 #@! TD.AperFunction*
D14*
X76454000Y-119126000D03*
D15*
X78994000Y-119126000D03*
X81534000Y-119126000D03*
D14*
X160782000Y-119126000D03*
D15*
X163322000Y-119126000D03*
X165862000Y-119126000D03*
D16*
X152400000Y-121702500D03*
X152527000Y-141514500D03*
X150876000Y-161199500D03*
X150876000Y-181138500D03*
X131064000Y-184113500D03*
X130937000Y-164301500D03*
X111125000Y-161326500D03*
X111252000Y-181175000D03*
X91440000Y-184113500D03*
X91440000Y-164301500D03*
X89662000Y-144489500D03*
X89789000Y-124677500D03*
X89662000Y-141514500D03*
X91440000Y-161326500D03*
X111125000Y-164301500D03*
X130937000Y-161326500D03*
X111252000Y-184150000D03*
X131064000Y-181138500D03*
X150876000Y-184113500D03*
X150876000Y-164174500D03*
X152527000Y-144489500D03*
X152400000Y-124677500D03*
X91440000Y-181138500D03*
X89789000Y-121702500D03*
D17*
X92239000Y-121590000D03*
D16*
X81570500Y-122936000D03*
D18*
X84545500Y-122936000D02*
X90893000Y-122936000D01*
X90893000Y-122936000D02*
X92239000Y-121590000D01*
D19*
G36*
X81661000Y-118999000D02*
G01*
X81681000Y-118999000D01*
X81681000Y-119253000D01*
X81661000Y-119253000D01*
X81661000Y-120446155D01*
X81890890Y-120567476D01*
X82038099Y-120522825D01*
X82300920Y-120397641D01*
X82534269Y-120223588D01*
X82729178Y-120007355D01*
X82832507Y-119833888D01*
X83584388Y-120585769D01*
X83605052Y-120610948D01*
X83630231Y-120631612D01*
X83630233Y-120631614D01*
X83705549Y-120693425D01*
X83745487Y-120714772D01*
X83820207Y-120754710D01*
X83944617Y-120792450D01*
X84041581Y-120802000D01*
X84041590Y-120802000D01*
X84073999Y-120805192D01*
X84106408Y-120802000D01*
X88395990Y-120802000D01*
X88343528Y-120900150D01*
X88292992Y-121066746D01*
X88275928Y-121240000D01*
X88275928Y-122165000D01*
X88282675Y-122233500D01*
X85888439Y-122233500D01*
X85879008Y-122137746D01*
X85828472Y-121971150D01*
X85746405Y-121817614D01*
X85635962Y-121683038D01*
X85501386Y-121572595D01*
X85347850Y-121490528D01*
X85181254Y-121439992D01*
X85008000Y-121422928D01*
X84083000Y-121422928D01*
X83909746Y-121439992D01*
X83743150Y-121490528D01*
X83589614Y-121572595D01*
X83455038Y-121683038D01*
X83344595Y-121817614D01*
X83262528Y-121971150D01*
X83211992Y-122137746D01*
X83194928Y-122311000D01*
X83194928Y-123561000D01*
X83211992Y-123734254D01*
X83262528Y-123900850D01*
X83344595Y-124054386D01*
X83455038Y-124188962D01*
X83589614Y-124299405D01*
X83743150Y-124381472D01*
X83909746Y-124432008D01*
X84083000Y-124449072D01*
X85008000Y-124449072D01*
X85181254Y-124432008D01*
X85347850Y-124381472D01*
X85501386Y-124299405D01*
X85635962Y-124188962D01*
X85746405Y-124054386D01*
X85828472Y-123900850D01*
X85879008Y-123734254D01*
X85888439Y-123638500D01*
X88368500Y-123638500D01*
X88324498Y-123720820D01*
X88288188Y-123840518D01*
X88275928Y-123965000D01*
X88279000Y-124391750D01*
X88437750Y-124550500D01*
X89662000Y-124550500D01*
X89662000Y-124530500D01*
X89916000Y-124530500D01*
X89916000Y-124550500D01*
X91140250Y-124550500D01*
X91299000Y-124391750D01*
X91302072Y-123965000D01*
X91289812Y-123840518D01*
X91253502Y-123720820D01*
X91194537Y-123610506D01*
X91172219Y-123583311D01*
X91285176Y-123522934D01*
X91392146Y-123435146D01*
X91414150Y-123408334D01*
X92297485Y-122525000D01*
X92331089Y-122525000D01*
X92511729Y-122489068D01*
X92681889Y-122418586D01*
X92835028Y-122316262D01*
X92965262Y-122186028D01*
X93066000Y-122035262D01*
X93066001Y-125578000D01*
X91270544Y-125578000D01*
X91289812Y-125514482D01*
X91302072Y-125390000D01*
X91299000Y-124963250D01*
X91140250Y-124804500D01*
X89916000Y-124804500D01*
X89916000Y-124824500D01*
X89662000Y-124824500D01*
X89662000Y-124804500D01*
X88437750Y-124804500D01*
X88279000Y-124963250D01*
X88275928Y-125390000D01*
X88288188Y-125514482D01*
X88307456Y-125578000D01*
X85871381Y-125578000D01*
X85325616Y-125032236D01*
X85304948Y-125007052D01*
X85204450Y-124924575D01*
X85089793Y-124863290D01*
X84965383Y-124825550D01*
X84868419Y-124816000D01*
X84868409Y-124816000D01*
X84836000Y-124812808D01*
X84803591Y-124816000D01*
X82074408Y-124816000D01*
X82041999Y-124812808D01*
X82009590Y-124816000D01*
X82009581Y-124816000D01*
X81912617Y-124825550D01*
X81788207Y-124863290D01*
X81673550Y-124924575D01*
X81573052Y-125007052D01*
X81552388Y-125032231D01*
X81090236Y-125494384D01*
X81065052Y-125515052D01*
X81044386Y-125540234D01*
X80982575Y-125615550D01*
X80944612Y-125686575D01*
X80921290Y-125730208D01*
X80883550Y-125854618D01*
X80874000Y-125951582D01*
X80874000Y-125951591D01*
X80870808Y-125984000D01*
X80874000Y-126016409D01*
X80874001Y-132060618D01*
X79820236Y-133114384D01*
X79795052Y-133135052D01*
X79774386Y-133160234D01*
X79712575Y-133235550D01*
X79651291Y-133350207D01*
X79651290Y-133350208D01*
X79613550Y-133474618D01*
X79604000Y-133571582D01*
X79604000Y-133571591D01*
X79600808Y-133604000D01*
X79604000Y-133636409D01*
X79604001Y-136619581D01*
X79600808Y-136652000D01*
X79613551Y-136781382D01*
X79651290Y-136905792D01*
X79712575Y-137020450D01*
X79774386Y-137095766D01*
X79774389Y-137095769D01*
X79795053Y-137120948D01*
X79820232Y-137141612D01*
X80874000Y-138195381D01*
X80874000Y-138651591D01*
X80870808Y-138684000D01*
X80874000Y-138716409D01*
X80874000Y-138716419D01*
X80883550Y-138813383D01*
X80908145Y-138894458D01*
X80921290Y-138937792D01*
X80982575Y-139052450D01*
X81044386Y-139127766D01*
X81044387Y-139127767D01*
X81065053Y-139152948D01*
X81090232Y-139173612D01*
X82314388Y-140397769D01*
X82335052Y-140422948D01*
X82360231Y-140443612D01*
X82360233Y-140443614D01*
X82435549Y-140505425D01*
X82475487Y-140526772D01*
X82550207Y-140566710D01*
X82674617Y-140604450D01*
X82771581Y-140614000D01*
X82771590Y-140614000D01*
X82803999Y-140617192D01*
X82836408Y-140614000D01*
X88268990Y-140614000D01*
X88216528Y-140712150D01*
X88165992Y-140878746D01*
X88148928Y-141052000D01*
X88148928Y-141977000D01*
X88165992Y-142150254D01*
X88216528Y-142316850D01*
X88298595Y-142470386D01*
X88409038Y-142604962D01*
X88543614Y-142715405D01*
X88697150Y-142797472D01*
X88863746Y-142848008D01*
X89037000Y-142865072D01*
X90287000Y-142865072D01*
X90460254Y-142848008D01*
X90626850Y-142797472D01*
X90780386Y-142715405D01*
X90914962Y-142604962D01*
X91025405Y-142470386D01*
X91107472Y-142316850D01*
X91158008Y-142150254D01*
X91175072Y-141977000D01*
X91175072Y-141052000D01*
X91158008Y-140878746D01*
X91107472Y-140712150D01*
X91055010Y-140614000D01*
X93066000Y-140614000D01*
X93066001Y-145390000D01*
X91143544Y-145390000D01*
X91162812Y-145326482D01*
X91175072Y-145202000D01*
X91172000Y-144775250D01*
X91013250Y-144616500D01*
X89789000Y-144616500D01*
X89789000Y-144636500D01*
X89535000Y-144636500D01*
X89535000Y-144616500D01*
X88310750Y-144616500D01*
X88152000Y-144775250D01*
X88148928Y-145202000D01*
X88161188Y-145326482D01*
X88180456Y-145390000D01*
X82836408Y-145390000D01*
X82803999Y-145386808D01*
X82771590Y-145390000D01*
X82771581Y-145390000D01*
X82674617Y-145399550D01*
X82550207Y-145437290D01*
X82475487Y-145477228D01*
X82435549Y-145498575D01*
X82360233Y-145560386D01*
X82335052Y-145581052D01*
X82314388Y-145606231D01*
X81090236Y-146830384D01*
X81065052Y-146851052D01*
X81044387Y-146876233D01*
X81044386Y-146876234D01*
X80982575Y-146951550D01*
X80921291Y-147066207D01*
X80921290Y-147066208D01*
X80883550Y-147190618D01*
X80874000Y-147287582D01*
X80874000Y-147287591D01*
X80870808Y-147320000D01*
X80874000Y-147352409D01*
X80874001Y-158463581D01*
X80870808Y-158496000D01*
X80874001Y-158528418D01*
X80874001Y-158528419D01*
X80883551Y-158625383D01*
X80894999Y-158663122D01*
X80921290Y-158749792D01*
X80982575Y-158864450D01*
X81044386Y-158939766D01*
X81044387Y-158939767D01*
X81065053Y-158964948D01*
X81090232Y-158985612D01*
X82314388Y-160209769D01*
X82335052Y-160234948D01*
X82360231Y-160255612D01*
X82360233Y-160255614D01*
X82435549Y-160317425D01*
X82475487Y-160338772D01*
X82550207Y-160378710D01*
X82674617Y-160416450D01*
X82771581Y-160426000D01*
X82771590Y-160426000D01*
X82803999Y-160429192D01*
X82836408Y-160426000D01*
X90046990Y-160426000D01*
X89994528Y-160524150D01*
X89943992Y-160690746D01*
X89926928Y-160864000D01*
X89926928Y-161789000D01*
X89943992Y-161962254D01*
X89994528Y-162128850D01*
X90076595Y-162282386D01*
X90187038Y-162416962D01*
X90321614Y-162527405D01*
X90475150Y-162609472D01*
X90641746Y-162660008D01*
X90815000Y-162677072D01*
X92065000Y-162677072D01*
X92238254Y-162660008D01*
X92404850Y-162609472D01*
X92558386Y-162527405D01*
X92692962Y-162416962D01*
X92803405Y-162282386D01*
X92885472Y-162128850D01*
X92936008Y-161962254D01*
X92953072Y-161789000D01*
X92953072Y-160864000D01*
X92936008Y-160690746D01*
X92885472Y-160524150D01*
X92833010Y-160426000D01*
X94844000Y-160426000D01*
X94844001Y-165202000D01*
X92921544Y-165202000D01*
X92940812Y-165138482D01*
X92953072Y-165014000D01*
X92950000Y-164587250D01*
X92791250Y-164428500D01*
X91567000Y-164428500D01*
X91567000Y-164448500D01*
X91313000Y-164448500D01*
X91313000Y-164428500D01*
X90088750Y-164428500D01*
X89930000Y-164587250D01*
X89926928Y-165014000D01*
X89939188Y-165138482D01*
X89958456Y-165202000D01*
X82836408Y-165202000D01*
X82803999Y-165198808D01*
X82771590Y-165202000D01*
X82771581Y-165202000D01*
X82674617Y-165211550D01*
X82550207Y-165249290D01*
X82475487Y-165289228D01*
X82435549Y-165310575D01*
X82360233Y-165372386D01*
X82335052Y-165393052D01*
X82314388Y-165418231D01*
X81090236Y-166642384D01*
X81065052Y-166663052D01*
X81044387Y-166688233D01*
X81044386Y-166688234D01*
X80982575Y-166763550D01*
X80921291Y-166878207D01*
X80921290Y-166878208D01*
X80883550Y-167002618D01*
X80874000Y-167099582D01*
X80874000Y-167099591D01*
X80870808Y-167132000D01*
X80874000Y-167164409D01*
X80874001Y-178275581D01*
X80870808Y-178308000D01*
X80874001Y-178340418D01*
X80874001Y-178340419D01*
X80883551Y-178437383D01*
X80894999Y-178475122D01*
X80921290Y-178561792D01*
X80982575Y-178676450D01*
X81044386Y-178751766D01*
X81044387Y-178751767D01*
X81065053Y-178776948D01*
X81090232Y-178797612D01*
X82314386Y-180021767D01*
X82335052Y-180046948D01*
X82360231Y-180067612D01*
X82360233Y-180067614D01*
X82435549Y-180129425D01*
X82475487Y-180150772D01*
X82550207Y-180190710D01*
X82674617Y-180228450D01*
X82771581Y-180238000D01*
X82771590Y-180238000D01*
X82803999Y-180241192D01*
X82836408Y-180238000D01*
X90046990Y-180238000D01*
X89994528Y-180336150D01*
X89943992Y-180502746D01*
X89926928Y-180676000D01*
X89926928Y-181601000D01*
X89943992Y-181774254D01*
X89994528Y-181940850D01*
X90076595Y-182094386D01*
X90187038Y-182228962D01*
X90321614Y-182339405D01*
X90475150Y-182421472D01*
X90641746Y-182472008D01*
X90815000Y-182489072D01*
X92065000Y-182489072D01*
X92238254Y-182472008D01*
X92404850Y-182421472D01*
X92558386Y-182339405D01*
X92692962Y-182228962D01*
X92803405Y-182094386D01*
X92885472Y-181940850D01*
X92901655Y-181887500D01*
X109738928Y-181887500D01*
X109751188Y-182011982D01*
X109787498Y-182131680D01*
X109846463Y-182241994D01*
X109925815Y-182338685D01*
X110022506Y-182418037D01*
X110132820Y-182477002D01*
X110252518Y-182513312D01*
X110377000Y-182525572D01*
X110966250Y-182522500D01*
X111125000Y-182363750D01*
X111125000Y-181302000D01*
X111379000Y-181302000D01*
X111379000Y-182363750D01*
X111537750Y-182522500D01*
X112127000Y-182525572D01*
X112251482Y-182513312D01*
X112371180Y-182477002D01*
X112481494Y-182418037D01*
X112578185Y-182338685D01*
X112657537Y-182241994D01*
X112716502Y-182131680D01*
X112752812Y-182011982D01*
X112765072Y-181887500D01*
X112762000Y-181460750D01*
X112603250Y-181302000D01*
X111379000Y-181302000D01*
X111125000Y-181302000D01*
X109900750Y-181302000D01*
X109742000Y-181460750D01*
X109738928Y-181887500D01*
X92901655Y-181887500D01*
X92936008Y-181774254D01*
X92953072Y-181601000D01*
X92953072Y-180676000D01*
X92936008Y-180502746D01*
X92885472Y-180336150D01*
X92833010Y-180238000D01*
X98532620Y-180238000D01*
X99078388Y-180783769D01*
X99099052Y-180808948D01*
X99124231Y-180829612D01*
X99124233Y-180829614D01*
X99196900Y-180889250D01*
X99199550Y-180891425D01*
X99314207Y-180952710D01*
X99438617Y-180990450D01*
X99535581Y-181000000D01*
X99535588Y-181000000D01*
X99568000Y-181003192D01*
X99600412Y-181000000D01*
X103091591Y-181000000D01*
X103124000Y-181003192D01*
X103156409Y-181000000D01*
X103156419Y-181000000D01*
X103253383Y-180990450D01*
X103377793Y-180952710D01*
X103492450Y-180891425D01*
X103592948Y-180808948D01*
X103613616Y-180783764D01*
X104159381Y-180238000D01*
X109781528Y-180238000D01*
X109751188Y-180338018D01*
X109738928Y-180462500D01*
X109742000Y-180889250D01*
X109900750Y-181048000D01*
X111125000Y-181048000D01*
X111125000Y-181028000D01*
X111379000Y-181028000D01*
X111379000Y-181048000D01*
X112603250Y-181048000D01*
X112762000Y-180889250D01*
X112765072Y-180462500D01*
X112752812Y-180338018D01*
X112722472Y-180238000D01*
X117823591Y-180238000D01*
X117856000Y-180241192D01*
X117888409Y-180238000D01*
X117888419Y-180238000D01*
X117985383Y-180228450D01*
X118109793Y-180190710D01*
X118224450Y-180129425D01*
X118324948Y-180046948D01*
X118345616Y-180021764D01*
X119569770Y-178797611D01*
X119594948Y-178776948D01*
X119615614Y-178751767D01*
X119677425Y-178676451D01*
X119698772Y-178636513D01*
X119738710Y-178561793D01*
X119776450Y-178437383D01*
X119786000Y-178340419D01*
X119786000Y-178340410D01*
X119789192Y-178308001D01*
X119786000Y-178275592D01*
X119786000Y-167164408D01*
X119789192Y-167131999D01*
X119786000Y-167099590D01*
X119786000Y-167099581D01*
X119776450Y-167002617D01*
X119738710Y-166878207D01*
X119677426Y-166763551D01*
X119677425Y-166763549D01*
X119615614Y-166688233D01*
X119615612Y-166688231D01*
X119594948Y-166663052D01*
X119569769Y-166642388D01*
X118345616Y-165418236D01*
X118324948Y-165393052D01*
X118224450Y-165310575D01*
X118109793Y-165249290D01*
X117985383Y-165211550D01*
X117888419Y-165202000D01*
X117888409Y-165202000D01*
X117856000Y-165198808D01*
X117823591Y-165202000D01*
X112518010Y-165202000D01*
X112570472Y-165103850D01*
X112621008Y-164937254D01*
X112638072Y-164764000D01*
X112638072Y-163839000D01*
X112621008Y-163665746D01*
X112597728Y-163589000D01*
X129423928Y-163589000D01*
X129427000Y-164015750D01*
X129585750Y-164174500D01*
X130810000Y-164174500D01*
X130810000Y-163112750D01*
X131064000Y-163112750D01*
X131064000Y-164174500D01*
X132288250Y-164174500D01*
X132447000Y-164015750D01*
X132450072Y-163589000D01*
X132437812Y-163464518D01*
X132401502Y-163344820D01*
X132342537Y-163234506D01*
X132263185Y-163137815D01*
X132166494Y-163058463D01*
X132056180Y-162999498D01*
X131936482Y-162963188D01*
X131812000Y-162950928D01*
X131222750Y-162954000D01*
X131064000Y-163112750D01*
X130810000Y-163112750D01*
X130651250Y-162954000D01*
X130062000Y-162950928D01*
X129937518Y-162963188D01*
X129817820Y-162999498D01*
X129707506Y-163058463D01*
X129610815Y-163137815D01*
X129531463Y-163234506D01*
X129472498Y-163344820D01*
X129436188Y-163464518D01*
X129423928Y-163589000D01*
X112597728Y-163589000D01*
X112570472Y-163499150D01*
X112488405Y-163345614D01*
X112377962Y-163211038D01*
X112243386Y-163100595D01*
X112089850Y-163018528D01*
X111923254Y-162967992D01*
X111750000Y-162950928D01*
X110500000Y-162950928D01*
X110326746Y-162967992D01*
X110160150Y-163018528D01*
X110006614Y-163100595D01*
X109872038Y-163211038D01*
X109761595Y-163345614D01*
X109679528Y-163499150D01*
X109628992Y-163665746D01*
X109611928Y-163839000D01*
X109611928Y-164764000D01*
X109628992Y-164937254D01*
X109679528Y-165103850D01*
X109731990Y-165202000D01*
X107848000Y-165202000D01*
X107848000Y-162039000D01*
X109611928Y-162039000D01*
X109624188Y-162163482D01*
X109660498Y-162283180D01*
X109719463Y-162393494D01*
X109798815Y-162490185D01*
X109895506Y-162569537D01*
X110005820Y-162628502D01*
X110125518Y-162664812D01*
X110250000Y-162677072D01*
X110839250Y-162674000D01*
X110998000Y-162515250D01*
X110998000Y-161453500D01*
X111252000Y-161453500D01*
X111252000Y-162515250D01*
X111410750Y-162674000D01*
X112000000Y-162677072D01*
X112124482Y-162664812D01*
X112244180Y-162628502D01*
X112354494Y-162569537D01*
X112451185Y-162490185D01*
X112530537Y-162393494D01*
X112589502Y-162283180D01*
X112625812Y-162163482D01*
X112638072Y-162039000D01*
X112635000Y-161612250D01*
X112476250Y-161453500D01*
X111252000Y-161453500D01*
X110998000Y-161453500D01*
X109773750Y-161453500D01*
X109615000Y-161612250D01*
X109611928Y-162039000D01*
X107848000Y-162039000D01*
X107848000Y-160426000D01*
X109643456Y-160426000D01*
X109624188Y-160489518D01*
X109611928Y-160614000D01*
X109615000Y-161040750D01*
X109773750Y-161199500D01*
X110998000Y-161199500D01*
X110998000Y-161179500D01*
X111252000Y-161179500D01*
X111252000Y-161199500D01*
X112476250Y-161199500D01*
X112635000Y-161040750D01*
X112638072Y-160614000D01*
X112625812Y-160489518D01*
X112606544Y-160426000D01*
X129543990Y-160426000D01*
X129491528Y-160524150D01*
X129440992Y-160690746D01*
X129423928Y-160864000D01*
X129423928Y-161789000D01*
X129440992Y-161962254D01*
X129491528Y-162128850D01*
X129573595Y-162282386D01*
X129684038Y-162416962D01*
X129818614Y-162527405D01*
X129972150Y-162609472D01*
X130138746Y-162660008D01*
X130312000Y-162677072D01*
X131562000Y-162677072D01*
X131735254Y-162660008D01*
X131901850Y-162609472D01*
X132055386Y-162527405D01*
X132189962Y-162416962D01*
X132300405Y-162282386D01*
X132382472Y-162128850D01*
X132433008Y-161962254D01*
X132450072Y-161789000D01*
X132450072Y-160864000D01*
X132433008Y-160690746D01*
X132382472Y-160524150D01*
X132330010Y-160426000D01*
X134468000Y-160426000D01*
X134468001Y-165202000D01*
X132418544Y-165202000D01*
X132437812Y-165138482D01*
X132450072Y-165014000D01*
X132447000Y-164587250D01*
X132288250Y-164428500D01*
X131064000Y-164428500D01*
X131064000Y-164448500D01*
X130810000Y-164448500D01*
X130810000Y-164428500D01*
X129585750Y-164428500D01*
X129427000Y-164587250D01*
X129423928Y-165014000D01*
X129436188Y-165138482D01*
X129455456Y-165202000D01*
X123222408Y-165202000D01*
X123189999Y-165198808D01*
X123157590Y-165202000D01*
X123157581Y-165202000D01*
X123060617Y-165211550D01*
X122936207Y-165249290D01*
X122861487Y-165289228D01*
X122821549Y-165310575D01*
X122746233Y-165372386D01*
X122721052Y-165393052D01*
X122700388Y-165418231D01*
X121476236Y-166642384D01*
X121451052Y-166663052D01*
X121430387Y-166688233D01*
X121430386Y-166688234D01*
X121368575Y-166763550D01*
X121307291Y-166878207D01*
X121307290Y-166878208D01*
X121269550Y-167002618D01*
X121260000Y-167099582D01*
X121260000Y-167099591D01*
X121256808Y-167132000D01*
X121260000Y-167164409D01*
X121260001Y-168128619D01*
X121095236Y-168293384D01*
X121070052Y-168314052D01*
X121049386Y-168339234D01*
X120987575Y-168414550D01*
X120976955Y-168434419D01*
X120926290Y-168529208D01*
X120888550Y-168653618D01*
X120879000Y-168750582D01*
X120879000Y-168750591D01*
X120875808Y-168783000D01*
X120879000Y-168815409D01*
X120879001Y-172560581D01*
X120875808Y-172593000D01*
X120888551Y-172722382D01*
X120926290Y-172846792D01*
X120987575Y-172961450D01*
X121049386Y-173036766D01*
X121049389Y-173036769D01*
X121070053Y-173061948D01*
X121095232Y-173082612D01*
X121260000Y-173247380D01*
X121260001Y-176497571D01*
X121256807Y-176530000D01*
X121269550Y-176659383D01*
X121307290Y-176783793D01*
X121368575Y-176898450D01*
X121451052Y-176998948D01*
X121551550Y-177081425D01*
X121666207Y-177142710D01*
X121790617Y-177180450D01*
X121887581Y-177190000D01*
X121920000Y-177193193D01*
X121952419Y-177190000D01*
X122530000Y-177190000D01*
X122530001Y-179545571D01*
X122526807Y-179578000D01*
X122539550Y-179707383D01*
X122577290Y-179831793D01*
X122638575Y-179946450D01*
X122721052Y-180046948D01*
X122821550Y-180129425D01*
X122936207Y-180190710D01*
X123060617Y-180228450D01*
X123157581Y-180238000D01*
X123190000Y-180241193D01*
X123222419Y-180238000D01*
X129670990Y-180238000D01*
X129618528Y-180336150D01*
X129567992Y-180502746D01*
X129550928Y-180676000D01*
X129550928Y-181601000D01*
X129567992Y-181774254D01*
X129618528Y-181940850D01*
X129700595Y-182094386D01*
X129811038Y-182228962D01*
X129945614Y-182339405D01*
X130099150Y-182421472D01*
X130265746Y-182472008D01*
X130439000Y-182489072D01*
X131689000Y-182489072D01*
X131862254Y-182472008D01*
X132028850Y-182421472D01*
X132182386Y-182339405D01*
X132316962Y-182228962D01*
X132427405Y-182094386D01*
X132509472Y-181940850D01*
X132536727Y-181851000D01*
X149362928Y-181851000D01*
X149375188Y-181975482D01*
X149411498Y-182095180D01*
X149470463Y-182205494D01*
X149549815Y-182302185D01*
X149646506Y-182381537D01*
X149756820Y-182440502D01*
X149876518Y-182476812D01*
X150001000Y-182489072D01*
X150590250Y-182486000D01*
X150749000Y-182327250D01*
X150749000Y-181265500D01*
X151003000Y-181265500D01*
X151003000Y-182327250D01*
X151161750Y-182486000D01*
X151751000Y-182489072D01*
X151875482Y-182476812D01*
X151995180Y-182440502D01*
X152105494Y-182381537D01*
X152202185Y-182302185D01*
X152281537Y-182205494D01*
X152340502Y-182095180D01*
X152376812Y-181975482D01*
X152389072Y-181851000D01*
X152386000Y-181424250D01*
X152227250Y-181265500D01*
X151003000Y-181265500D01*
X150749000Y-181265500D01*
X149524750Y-181265500D01*
X149366000Y-181424250D01*
X149362928Y-181851000D01*
X132536727Y-181851000D01*
X132560008Y-181774254D01*
X132577072Y-181601000D01*
X132577072Y-180676000D01*
X132560008Y-180502746D01*
X132509472Y-180336150D01*
X132457010Y-180238000D01*
X138156620Y-180238000D01*
X138702388Y-180783769D01*
X138723052Y-180808948D01*
X138748231Y-180829612D01*
X138748233Y-180829614D01*
X138820900Y-180889250D01*
X138823550Y-180891425D01*
X138938207Y-180952710D01*
X139062617Y-180990450D01*
X139159581Y-181000000D01*
X139159588Y-181000000D01*
X139192000Y-181003192D01*
X139224412Y-181000000D01*
X142715591Y-181000000D01*
X142748000Y-181003192D01*
X142780409Y-181000000D01*
X142780419Y-181000000D01*
X142877383Y-180990450D01*
X143001793Y-180952710D01*
X143116450Y-180891425D01*
X143216948Y-180808948D01*
X143237616Y-180783764D01*
X143783381Y-180238000D01*
X149394456Y-180238000D01*
X149375188Y-180301518D01*
X149362928Y-180426000D01*
X149366000Y-180852750D01*
X149524750Y-181011500D01*
X150749000Y-181011500D01*
X150749000Y-180991500D01*
X151003000Y-180991500D01*
X151003000Y-181011500D01*
X152227250Y-181011500D01*
X152386000Y-180852750D01*
X152389072Y-180426000D01*
X152376812Y-180301518D01*
X152357544Y-180238000D01*
X158209591Y-180238000D01*
X158242000Y-180241192D01*
X158274409Y-180238000D01*
X158274419Y-180238000D01*
X158371383Y-180228450D01*
X158495793Y-180190710D01*
X158610450Y-180129425D01*
X158710948Y-180046948D01*
X158731616Y-180021764D01*
X159955770Y-178797611D01*
X159980948Y-178776948D01*
X160001614Y-178751767D01*
X160063425Y-178676451D01*
X160084772Y-178636513D01*
X160124710Y-178561793D01*
X160162450Y-178437383D01*
X160172000Y-178340419D01*
X160172000Y-178340410D01*
X160175192Y-178308001D01*
X160172000Y-178275592D01*
X160172000Y-167164408D01*
X160175192Y-167131999D01*
X160172000Y-167099590D01*
X160172000Y-167099581D01*
X160162450Y-167002617D01*
X160124710Y-166878207D01*
X160063426Y-166763551D01*
X160063425Y-166763549D01*
X160001614Y-166688233D01*
X160001612Y-166688231D01*
X159980948Y-166663052D01*
X159955769Y-166642388D01*
X158731616Y-165418236D01*
X158710948Y-165393052D01*
X158610450Y-165310575D01*
X158495793Y-165249290D01*
X158371383Y-165211550D01*
X158274419Y-165202000D01*
X158274409Y-165202000D01*
X158242000Y-165198808D01*
X158209591Y-165202000D01*
X152180633Y-165202000D01*
X152239405Y-165130386D01*
X152321472Y-164976850D01*
X152372008Y-164810254D01*
X152389072Y-164637000D01*
X152389072Y-163712000D01*
X152372008Y-163538746D01*
X152321472Y-163372150D01*
X152239405Y-163218614D01*
X152128962Y-163084038D01*
X151994386Y-162973595D01*
X151840850Y-162891528D01*
X151674254Y-162840992D01*
X151501000Y-162823928D01*
X150251000Y-162823928D01*
X150077746Y-162840992D01*
X149911150Y-162891528D01*
X149757614Y-162973595D01*
X149623038Y-163084038D01*
X149512595Y-163218614D01*
X149430528Y-163372150D01*
X149379992Y-163538746D01*
X149362928Y-163712000D01*
X149362928Y-164637000D01*
X149379992Y-164810254D01*
X149430528Y-164976850D01*
X149512595Y-165130386D01*
X149571367Y-165202000D01*
X147472000Y-165202000D01*
X147472000Y-161912000D01*
X149362928Y-161912000D01*
X149375188Y-162036482D01*
X149411498Y-162156180D01*
X149470463Y-162266494D01*
X149549815Y-162363185D01*
X149646506Y-162442537D01*
X149756820Y-162501502D01*
X149876518Y-162537812D01*
X150001000Y-162550072D01*
X150590250Y-162547000D01*
X150749000Y-162388250D01*
X150749000Y-161326500D01*
X151003000Y-161326500D01*
X151003000Y-162388250D01*
X151161750Y-162547000D01*
X151751000Y-162550072D01*
X151875482Y-162537812D01*
X151995180Y-162501502D01*
X152105494Y-162442537D01*
X152202185Y-162363185D01*
X152281537Y-162266494D01*
X152340502Y-162156180D01*
X152376812Y-162036482D01*
X152389072Y-161912000D01*
X152386000Y-161485250D01*
X152227250Y-161326500D01*
X151003000Y-161326500D01*
X150749000Y-161326500D01*
X149524750Y-161326500D01*
X149366000Y-161485250D01*
X149362928Y-161912000D01*
X147472000Y-161912000D01*
X147472000Y-160426000D01*
X149368936Y-160426000D01*
X149362928Y-160487000D01*
X149366000Y-160913750D01*
X149524750Y-161072500D01*
X150749000Y-161072500D01*
X150749000Y-161052500D01*
X151003000Y-161052500D01*
X151003000Y-161072500D01*
X152227250Y-161072500D01*
X152386000Y-160913750D01*
X152389072Y-160487000D01*
X152383064Y-160426000D01*
X158209591Y-160426000D01*
X158242000Y-160429192D01*
X158274409Y-160426000D01*
X158274419Y-160426000D01*
X158371383Y-160416450D01*
X158495793Y-160378710D01*
X158610450Y-160317425D01*
X158710948Y-160234948D01*
X158731616Y-160209764D01*
X159955770Y-158985611D01*
X159980948Y-158964948D01*
X160001614Y-158939767D01*
X160063425Y-158864451D01*
X160084772Y-158824513D01*
X160124710Y-158749793D01*
X160162450Y-158625383D01*
X160172000Y-158528419D01*
X160172000Y-158528410D01*
X160175192Y-158496001D01*
X160172000Y-158463592D01*
X160172000Y-147352408D01*
X160175192Y-147319999D01*
X160172000Y-147287590D01*
X160172000Y-147287581D01*
X160162450Y-147190617D01*
X160124710Y-147066207D01*
X160063426Y-146951551D01*
X160063425Y-146951549D01*
X160001614Y-146876233D01*
X160001612Y-146876231D01*
X159980948Y-146851052D01*
X159955769Y-146830388D01*
X158731616Y-145606236D01*
X158710948Y-145581052D01*
X158610450Y-145498575D01*
X158495793Y-145437290D01*
X158371383Y-145399550D01*
X158274419Y-145390000D01*
X158274409Y-145390000D01*
X158242000Y-145386808D01*
X158209591Y-145390000D01*
X153920010Y-145390000D01*
X153972472Y-145291850D01*
X154023008Y-145125254D01*
X154040072Y-144952000D01*
X154040072Y-144027000D01*
X154023008Y-143853746D01*
X153972472Y-143687150D01*
X153890405Y-143533614D01*
X153779962Y-143399038D01*
X153645386Y-143288595D01*
X153491850Y-143206528D01*
X153325254Y-143155992D01*
X153152000Y-143138928D01*
X151902000Y-143138928D01*
X151728746Y-143155992D01*
X151562150Y-143206528D01*
X151408614Y-143288595D01*
X151274038Y-143399038D01*
X151163595Y-143533614D01*
X151081528Y-143687150D01*
X151030992Y-143853746D01*
X151013928Y-144027000D01*
X151013928Y-144952000D01*
X151030992Y-145125254D01*
X151081528Y-145291850D01*
X151133990Y-145390000D01*
X148996000Y-145390000D01*
X148996000Y-142227000D01*
X151013928Y-142227000D01*
X151026188Y-142351482D01*
X151062498Y-142471180D01*
X151121463Y-142581494D01*
X151200815Y-142678185D01*
X151297506Y-142757537D01*
X151407820Y-142816502D01*
X151527518Y-142852812D01*
X151652000Y-142865072D01*
X152241250Y-142862000D01*
X152400000Y-142703250D01*
X152400000Y-141641500D01*
X152654000Y-141641500D01*
X152654000Y-142703250D01*
X152812750Y-142862000D01*
X153402000Y-142865072D01*
X153526482Y-142852812D01*
X153646180Y-142816502D01*
X153756494Y-142757537D01*
X153853185Y-142678185D01*
X153932537Y-142581494D01*
X153991502Y-142471180D01*
X154027812Y-142351482D01*
X154040072Y-142227000D01*
X154037000Y-141800250D01*
X153878250Y-141641500D01*
X152654000Y-141641500D01*
X152400000Y-141641500D01*
X151175750Y-141641500D01*
X151017000Y-141800250D01*
X151013928Y-142227000D01*
X148996000Y-142227000D01*
X148996000Y-140614000D01*
X151045456Y-140614000D01*
X151026188Y-140677518D01*
X151013928Y-140802000D01*
X151017000Y-141228750D01*
X151175750Y-141387500D01*
X152400000Y-141387500D01*
X152400000Y-141367500D01*
X152654000Y-141367500D01*
X152654000Y-141387500D01*
X153878250Y-141387500D01*
X154037000Y-141228750D01*
X154040072Y-140802000D01*
X154027812Y-140677518D01*
X154008544Y-140614000D01*
X158209591Y-140614000D01*
X158242000Y-140617192D01*
X158274409Y-140614000D01*
X158274419Y-140614000D01*
X158371383Y-140604450D01*
X158495793Y-140566710D01*
X158610450Y-140505425D01*
X158710948Y-140422948D01*
X158731616Y-140397764D01*
X159955770Y-139173611D01*
X159980948Y-139152948D01*
X160001614Y-139127767D01*
X160063425Y-139052451D01*
X160084772Y-139012513D01*
X160124710Y-138937793D01*
X160162450Y-138813383D01*
X160172000Y-138716419D01*
X160172000Y-138716410D01*
X160175192Y-138684001D01*
X160172000Y-138651592D01*
X160172000Y-136036380D01*
X161098770Y-135109611D01*
X161123948Y-135088948D01*
X161144614Y-135063767D01*
X161206425Y-134988451D01*
X161267710Y-134873793D01*
X161267710Y-134873792D01*
X161305450Y-134749383D01*
X161315000Y-134652419D01*
X161315000Y-134652410D01*
X161318192Y-134620001D01*
X161315000Y-134587592D01*
X161315000Y-130715408D01*
X161318192Y-130682999D01*
X161315000Y-130650590D01*
X161315000Y-130650581D01*
X161305450Y-130553617D01*
X161267710Y-130429207D01*
X161206425Y-130314550D01*
X161123948Y-130214052D01*
X161098769Y-130193388D01*
X159918000Y-129012620D01*
X159918000Y-127540408D01*
X159921192Y-127507999D01*
X159918000Y-127475590D01*
X159918000Y-127475581D01*
X159908450Y-127378617D01*
X159870710Y-127254207D01*
X159830772Y-127179487D01*
X159809425Y-127139549D01*
X159747614Y-127064233D01*
X159747612Y-127064231D01*
X159726948Y-127039052D01*
X159701769Y-127018388D01*
X158477616Y-125794236D01*
X158456948Y-125769052D01*
X158356450Y-125686575D01*
X158241793Y-125625290D01*
X158117383Y-125587550D01*
X158020419Y-125578000D01*
X158020409Y-125578000D01*
X157988000Y-125574808D01*
X157955591Y-125578000D01*
X153793010Y-125578000D01*
X153845472Y-125479850D01*
X153896008Y-125313254D01*
X153913072Y-125140000D01*
X153913072Y-124215000D01*
X153896008Y-124041746D01*
X153845472Y-123875150D01*
X153763405Y-123721614D01*
X153652962Y-123587038D01*
X153518386Y-123476595D01*
X153364850Y-123394528D01*
X153198254Y-123343992D01*
X153025000Y-123326928D01*
X151775000Y-123326928D01*
X151601746Y-123343992D01*
X151435150Y-123394528D01*
X151281614Y-123476595D01*
X151147038Y-123587038D01*
X151036595Y-123721614D01*
X150954528Y-123875150D01*
X150903992Y-124041746D01*
X150886928Y-124215000D01*
X150886928Y-125140000D01*
X150903992Y-125313254D01*
X150954528Y-125479850D01*
X151006990Y-125578000D01*
X148996000Y-125578000D01*
X148996000Y-122415000D01*
X150886928Y-122415000D01*
X150899188Y-122539482D01*
X150935498Y-122659180D01*
X150994463Y-122769494D01*
X151073815Y-122866185D01*
X151170506Y-122945537D01*
X151280820Y-123004502D01*
X151400518Y-123040812D01*
X151525000Y-123053072D01*
X152114250Y-123050000D01*
X152273000Y-122891250D01*
X152273000Y-121829500D01*
X152527000Y-121829500D01*
X152527000Y-122891250D01*
X152685750Y-123050000D01*
X153275000Y-123053072D01*
X153399482Y-123040812D01*
X153519180Y-123004502D01*
X153629494Y-122945537D01*
X153726185Y-122866185D01*
X153805537Y-122769494D01*
X153864502Y-122659180D01*
X153900812Y-122539482D01*
X153913072Y-122415000D01*
X153910000Y-121988250D01*
X153751250Y-121829500D01*
X152527000Y-121829500D01*
X152273000Y-121829500D01*
X151048750Y-121829500D01*
X150890000Y-121988250D01*
X150886928Y-122415000D01*
X148996000Y-122415000D01*
X148996000Y-120802000D01*
X150918456Y-120802000D01*
X150899188Y-120865518D01*
X150886928Y-120990000D01*
X150890000Y-121416750D01*
X151048750Y-121575500D01*
X152273000Y-121575500D01*
X152273000Y-121555500D01*
X152527000Y-121555500D01*
X152527000Y-121575500D01*
X153751250Y-121575500D01*
X153910000Y-121416750D01*
X153913072Y-120990000D01*
X153900812Y-120865518D01*
X153881544Y-120802000D01*
X157955591Y-120802000D01*
X157988000Y-120805192D01*
X158020409Y-120802000D01*
X158020419Y-120802000D01*
X158117383Y-120792450D01*
X158241793Y-120754710D01*
X158356450Y-120693425D01*
X158456948Y-120610948D01*
X158477616Y-120585764D01*
X159293928Y-119769453D01*
X159293928Y-119976000D01*
X159306188Y-120100482D01*
X159342498Y-120220180D01*
X159401463Y-120330494D01*
X159480815Y-120427185D01*
X159577506Y-120506537D01*
X159687820Y-120565502D01*
X159807518Y-120601812D01*
X159932000Y-120614072D01*
X161632000Y-120614072D01*
X161756482Y-120601812D01*
X161876180Y-120565502D01*
X161986494Y-120506537D01*
X162083185Y-120427185D01*
X162162537Y-120330494D01*
X162221502Y-120220180D01*
X162243513Y-120147620D01*
X162375368Y-120279475D01*
X162618589Y-120441990D01*
X162888842Y-120553932D01*
X163175740Y-120611000D01*
X163468260Y-120611000D01*
X163755158Y-120553932D01*
X164025411Y-120441990D01*
X164268632Y-120279475D01*
X164475475Y-120072632D01*
X164592000Y-119898240D01*
X164708525Y-120072632D01*
X164915368Y-120279475D01*
X165158589Y-120441990D01*
X165428842Y-120553932D01*
X165715740Y-120611000D01*
X166008260Y-120611000D01*
X166295158Y-120553932D01*
X166565411Y-120441990D01*
X166726001Y-120334687D01*
X166726001Y-120376618D01*
X165291236Y-121811384D01*
X165266052Y-121832052D01*
X165240876Y-121862729D01*
X165183575Y-121932550D01*
X165130659Y-122031550D01*
X165122290Y-122047208D01*
X165084550Y-122171618D01*
X165075000Y-122268582D01*
X165075000Y-122268591D01*
X165071808Y-122301000D01*
X165075000Y-122333409D01*
X165075001Y-187362954D01*
X165051359Y-187438860D01*
X165036945Y-187573733D01*
X165045122Y-187665355D01*
X165000729Y-187620962D01*
X164634669Y-187376369D01*
X164227925Y-187207890D01*
X163796128Y-187122000D01*
X163355872Y-187122000D01*
X162924075Y-187207890D01*
X162517331Y-187376369D01*
X162151271Y-187620962D01*
X161839962Y-187932271D01*
X161595369Y-188298331D01*
X161426890Y-188705075D01*
X161341000Y-189136872D01*
X161341000Y-189577128D01*
X161426890Y-190008925D01*
X161595369Y-190415669D01*
X161839962Y-190781729D01*
X162151271Y-191093038D01*
X162517331Y-191337631D01*
X162887596Y-191491000D01*
X160172000Y-191491000D01*
X160172000Y-186722419D01*
X160175193Y-186690000D01*
X160162450Y-186560617D01*
X160124710Y-186436207D01*
X160063425Y-186321550D01*
X159980948Y-186221052D01*
X159880450Y-186138575D01*
X159765793Y-186077290D01*
X159641383Y-186039550D01*
X159636946Y-186039113D01*
X159512000Y-186026807D01*
X159479581Y-186030000D01*
X143783381Y-186030000D01*
X143237616Y-185484236D01*
X143216948Y-185459052D01*
X143116450Y-185376575D01*
X143001793Y-185315290D01*
X142877383Y-185277550D01*
X142780419Y-185268000D01*
X142780409Y-185268000D01*
X142748000Y-185264808D01*
X142715591Y-185268000D01*
X139224412Y-185268000D01*
X139192000Y-185264808D01*
X139159588Y-185268000D01*
X139159581Y-185268000D01*
X139066323Y-185277185D01*
X139062617Y-185277550D01*
X138938207Y-185315290D01*
X138823550Y-185376575D01*
X138776118Y-185415502D01*
X138723052Y-185459052D01*
X138702388Y-185484231D01*
X138156620Y-186030000D01*
X123971381Y-186030000D01*
X123425616Y-185484236D01*
X123404948Y-185459052D01*
X123304450Y-185376575D01*
X123189793Y-185315290D01*
X123065383Y-185277550D01*
X122968419Y-185268000D01*
X122968409Y-185268000D01*
X122936000Y-185264808D01*
X122903591Y-185268000D01*
X119412412Y-185268000D01*
X119380000Y-185264808D01*
X119347588Y-185268000D01*
X119347581Y-185268000D01*
X119254323Y-185277185D01*
X119250617Y-185277550D01*
X119126207Y-185315290D01*
X119011550Y-185376575D01*
X118964118Y-185415502D01*
X118911052Y-185459052D01*
X118890388Y-185484231D01*
X118344620Y-186030000D01*
X104159381Y-186030000D01*
X103613616Y-185484236D01*
X103592948Y-185459052D01*
X103492450Y-185376575D01*
X103377793Y-185315290D01*
X103253383Y-185277550D01*
X103156419Y-185268000D01*
X103156409Y-185268000D01*
X103124000Y-185264808D01*
X103091591Y-185268000D01*
X99600412Y-185268000D01*
X99568000Y-185264808D01*
X99535588Y-185268000D01*
X99535581Y-185268000D01*
X99442323Y-185277185D01*
X99438617Y-185277550D01*
X99314207Y-185315290D01*
X99199550Y-185376575D01*
X99152118Y-185415502D01*
X99099052Y-185459052D01*
X99078388Y-185484231D01*
X98532620Y-186030000D01*
X81566185Y-186030000D01*
X81533546Y-186026808D01*
X81469813Y-186033129D01*
X81404617Y-186039550D01*
X81404398Y-186039617D01*
X81404171Y-186039639D01*
X81342838Y-186058291D01*
X81280207Y-186077290D01*
X81280002Y-186077400D01*
X81279787Y-186077465D01*
X81223314Y-186107700D01*
X81165550Y-186138575D01*
X81165373Y-186138721D01*
X81165172Y-186138828D01*
X81115534Y-186179622D01*
X81065052Y-186221052D01*
X81064905Y-186221231D01*
X81064731Y-186221374D01*
X81024345Y-186270653D01*
X80982575Y-186321550D01*
X80982465Y-186321756D01*
X80982323Y-186321929D01*
X80952878Y-186377109D01*
X80921290Y-186436207D01*
X80921222Y-186436431D01*
X80921117Y-186436628D01*
X80902758Y-186497299D01*
X80883550Y-186560617D01*
X80883527Y-186560849D01*
X80883462Y-186561064D01*
X80877202Y-186625066D01*
X80870807Y-186690000D01*
X80874022Y-186722646D01*
X80875360Y-188671879D01*
X80720631Y-188298331D01*
X80476038Y-187932271D01*
X80164729Y-187620962D01*
X79798669Y-187376369D01*
X79391925Y-187207890D01*
X78960128Y-187122000D01*
X78519872Y-187122000D01*
X78236722Y-187178322D01*
X78310213Y-187090571D01*
X78376852Y-186969079D01*
X78418626Y-186836958D01*
X78433941Y-186699239D01*
X78422214Y-186561169D01*
X78384001Y-186428377D01*
X78384001Y-184826000D01*
X89926928Y-184826000D01*
X89939188Y-184950482D01*
X89975498Y-185070180D01*
X90034463Y-185180494D01*
X90113815Y-185277185D01*
X90210506Y-185356537D01*
X90320820Y-185415502D01*
X90440518Y-185451812D01*
X90565000Y-185464072D01*
X91154250Y-185461000D01*
X91313000Y-185302250D01*
X91313000Y-184240500D01*
X91567000Y-184240500D01*
X91567000Y-185302250D01*
X91725750Y-185461000D01*
X92315000Y-185464072D01*
X92439482Y-185451812D01*
X92559180Y-185415502D01*
X92669494Y-185356537D01*
X92766185Y-185277185D01*
X92845537Y-185180494D01*
X92904502Y-185070180D01*
X92940812Y-184950482D01*
X92953072Y-184826000D01*
X92950000Y-184399250D01*
X92791250Y-184240500D01*
X91567000Y-184240500D01*
X91313000Y-184240500D01*
X90088750Y-184240500D01*
X89930000Y-184399250D01*
X89926928Y-184826000D01*
X78384001Y-184826000D01*
X78384001Y-183401000D01*
X89926928Y-183401000D01*
X89930000Y-183827750D01*
X90088750Y-183986500D01*
X91313000Y-183986500D01*
X91313000Y-182924750D01*
X91567000Y-182924750D01*
X91567000Y-183986500D01*
X92791250Y-183986500D01*
X92950000Y-183827750D01*
X92951009Y-183687500D01*
X109738928Y-183687500D01*
X109738928Y-184612500D01*
X109755992Y-184785754D01*
X109806528Y-184952350D01*
X109888595Y-185105886D01*
X109999038Y-185240462D01*
X110133614Y-185350905D01*
X110287150Y-185432972D01*
X110453746Y-185483508D01*
X110627000Y-185500572D01*
X111877000Y-185500572D01*
X112050254Y-185483508D01*
X112216850Y-185432972D01*
X112370386Y-185350905D01*
X112504962Y-185240462D01*
X112615405Y-185105886D01*
X112697472Y-184952350D01*
X112735799Y-184826000D01*
X129550928Y-184826000D01*
X129563188Y-184950482D01*
X129599498Y-185070180D01*
X129658463Y-185180494D01*
X129737815Y-185277185D01*
X129834506Y-185356537D01*
X129944820Y-185415502D01*
X130064518Y-185451812D01*
X130189000Y-185464072D01*
X130778250Y-185461000D01*
X130937000Y-185302250D01*
X130937000Y-184240500D01*
X131191000Y-184240500D01*
X131191000Y-185302250D01*
X131349750Y-185461000D01*
X131939000Y-185464072D01*
X132063482Y-185451812D01*
X132183180Y-185415502D01*
X132293494Y-185356537D01*
X132390185Y-185277185D01*
X132469537Y-185180494D01*
X132528502Y-185070180D01*
X132564812Y-184950482D01*
X132577072Y-184826000D01*
X132574000Y-184399250D01*
X132415250Y-184240500D01*
X131191000Y-184240500D01*
X130937000Y-184240500D01*
X129712750Y-184240500D01*
X129554000Y-184399250D01*
X129550928Y-184826000D01*
X112735799Y-184826000D01*
X112748008Y-184785754D01*
X112765072Y-184612500D01*
X112765072Y-183687500D01*
X112748008Y-183514246D01*
X112713656Y-183401000D01*
X129550928Y-183401000D01*
X129554000Y-183827750D01*
X129712750Y-183986500D01*
X130937000Y-183986500D01*
X130937000Y-182924750D01*
X131191000Y-182924750D01*
X131191000Y-183986500D01*
X132415250Y-183986500D01*
X132574000Y-183827750D01*
X132575272Y-183651000D01*
X149362928Y-183651000D01*
X149362928Y-184576000D01*
X149379992Y-184749254D01*
X149430528Y-184915850D01*
X149512595Y-185069386D01*
X149623038Y-185203962D01*
X149757614Y-185314405D01*
X149911150Y-185396472D01*
X150077746Y-185447008D01*
X150251000Y-185464072D01*
X151501000Y-185464072D01*
X151674254Y-185447008D01*
X151840850Y-185396472D01*
X151994386Y-185314405D01*
X152128962Y-185203962D01*
X152239405Y-185069386D01*
X152321472Y-184915850D01*
X152372008Y-184749254D01*
X152389072Y-184576000D01*
X152389072Y-183651000D01*
X152372008Y-183477746D01*
X152321472Y-183311150D01*
X152239405Y-183157614D01*
X152128962Y-183023038D01*
X151994386Y-182912595D01*
X151840850Y-182830528D01*
X151674254Y-182779992D01*
X151501000Y-182762928D01*
X150251000Y-182762928D01*
X150077746Y-182779992D01*
X149911150Y-182830528D01*
X149757614Y-182912595D01*
X149623038Y-183023038D01*
X149512595Y-183157614D01*
X149430528Y-183311150D01*
X149379992Y-183477746D01*
X149362928Y-183651000D01*
X132575272Y-183651000D01*
X132577072Y-183401000D01*
X132564812Y-183276518D01*
X132528502Y-183156820D01*
X132469537Y-183046506D01*
X132390185Y-182949815D01*
X132293494Y-182870463D01*
X132183180Y-182811498D01*
X132063482Y-182775188D01*
X131939000Y-182762928D01*
X131349750Y-182766000D01*
X131191000Y-182924750D01*
X130937000Y-182924750D01*
X130778250Y-182766000D01*
X130189000Y-182762928D01*
X130064518Y-182775188D01*
X129944820Y-182811498D01*
X129834506Y-182870463D01*
X129737815Y-182949815D01*
X129658463Y-183046506D01*
X129599498Y-183156820D01*
X129563188Y-183276518D01*
X129550928Y-183401000D01*
X112713656Y-183401000D01*
X112697472Y-183347650D01*
X112615405Y-183194114D01*
X112504962Y-183059538D01*
X112370386Y-182949095D01*
X112216850Y-182867028D01*
X112050254Y-182816492D01*
X111877000Y-182799428D01*
X110627000Y-182799428D01*
X110453746Y-182816492D01*
X110287150Y-182867028D01*
X110133614Y-182949095D01*
X109999038Y-183059538D01*
X109888595Y-183194114D01*
X109806528Y-183347650D01*
X109755992Y-183514246D01*
X109738928Y-183687500D01*
X92951009Y-183687500D01*
X92953072Y-183401000D01*
X92940812Y-183276518D01*
X92904502Y-183156820D01*
X92845537Y-183046506D01*
X92766185Y-182949815D01*
X92669494Y-182870463D01*
X92559180Y-182811498D01*
X92439482Y-182775188D01*
X92315000Y-182762928D01*
X91725750Y-182766000D01*
X91567000Y-182924750D01*
X91313000Y-182924750D01*
X91154250Y-182766000D01*
X90565000Y-182762928D01*
X90440518Y-182775188D01*
X90320820Y-182811498D01*
X90210506Y-182870463D01*
X90113815Y-182949815D01*
X90034463Y-183046506D01*
X89975498Y-183156820D01*
X89939188Y-183276518D01*
X89926928Y-183401000D01*
X78384001Y-183401000D01*
X78384001Y-163589000D01*
X89926928Y-163589000D01*
X89930000Y-164015750D01*
X90088750Y-164174500D01*
X91313000Y-164174500D01*
X91313000Y-163112750D01*
X91567000Y-163112750D01*
X91567000Y-164174500D01*
X92791250Y-164174500D01*
X92950000Y-164015750D01*
X92953072Y-163589000D01*
X92940812Y-163464518D01*
X92904502Y-163344820D01*
X92845537Y-163234506D01*
X92766185Y-163137815D01*
X92669494Y-163058463D01*
X92559180Y-162999498D01*
X92439482Y-162963188D01*
X92315000Y-162950928D01*
X91725750Y-162954000D01*
X91567000Y-163112750D01*
X91313000Y-163112750D01*
X91154250Y-162954000D01*
X90565000Y-162950928D01*
X90440518Y-162963188D01*
X90320820Y-162999498D01*
X90210506Y-163058463D01*
X90113815Y-163137815D01*
X90034463Y-163234506D01*
X89975498Y-163344820D01*
X89939188Y-163464518D01*
X89926928Y-163589000D01*
X78384001Y-163589000D01*
X78384000Y-143777000D01*
X88148928Y-143777000D01*
X88152000Y-144203750D01*
X88310750Y-144362500D01*
X89535000Y-144362500D01*
X89535000Y-143300750D01*
X89789000Y-143300750D01*
X89789000Y-144362500D01*
X91013250Y-144362500D01*
X91172000Y-144203750D01*
X91175072Y-143777000D01*
X91162812Y-143652518D01*
X91126502Y-143532820D01*
X91067537Y-143422506D01*
X90988185Y-143325815D01*
X90891494Y-143246463D01*
X90781180Y-143187498D01*
X90661482Y-143151188D01*
X90537000Y-143138928D01*
X89947750Y-143142000D01*
X89789000Y-143300750D01*
X89535000Y-143300750D01*
X89376250Y-143142000D01*
X88787000Y-143138928D01*
X88662518Y-143151188D01*
X88542820Y-143187498D01*
X88432506Y-143246463D01*
X88335815Y-143325815D01*
X88256463Y-143422506D01*
X88197498Y-143532820D01*
X88161188Y-143652518D01*
X88148928Y-143777000D01*
X78384000Y-143777000D01*
X78383999Y-137954418D01*
X78387192Y-137921999D01*
X78374449Y-137792616D01*
X78336709Y-137668207D01*
X78275425Y-137553549D01*
X78213614Y-137478233D01*
X78213606Y-137478225D01*
X78192947Y-137453052D01*
X78167774Y-137432393D01*
X77114000Y-136378620D01*
X77114000Y-122714408D01*
X77117192Y-122681999D01*
X77114000Y-122649590D01*
X77114000Y-122649581D01*
X77104450Y-122552617D01*
X77066710Y-122428207D01*
X77005425Y-122313550D01*
X77003333Y-122311000D01*
X80219928Y-122311000D01*
X80219928Y-123561000D01*
X80236992Y-123734254D01*
X80287528Y-123900850D01*
X80369595Y-124054386D01*
X80480038Y-124188962D01*
X80614614Y-124299405D01*
X80768150Y-124381472D01*
X80934746Y-124432008D01*
X81108000Y-124449072D01*
X82033000Y-124449072D01*
X82206254Y-124432008D01*
X82372850Y-124381472D01*
X82526386Y-124299405D01*
X82660962Y-124188962D01*
X82771405Y-124054386D01*
X82853472Y-123900850D01*
X82904008Y-123734254D01*
X82921072Y-123561000D01*
X82921072Y-122311000D01*
X82904008Y-122137746D01*
X82853472Y-121971150D01*
X82771405Y-121817614D01*
X82660962Y-121683038D01*
X82526386Y-121572595D01*
X82372850Y-121490528D01*
X82206254Y-121439992D01*
X82033000Y-121422928D01*
X81108000Y-121422928D01*
X80934746Y-121439992D01*
X80768150Y-121490528D01*
X80614614Y-121572595D01*
X80480038Y-121683038D01*
X80369595Y-121817614D01*
X80287528Y-121971150D01*
X80236992Y-122137746D01*
X80219928Y-122311000D01*
X77003333Y-122311000D01*
X76922948Y-122213052D01*
X76897769Y-122192388D01*
X75590000Y-120884620D01*
X75590000Y-120612693D01*
X75604000Y-120614072D01*
X77304000Y-120614072D01*
X77428482Y-120601812D01*
X77548180Y-120565502D01*
X77658494Y-120506537D01*
X77755185Y-120427185D01*
X77834537Y-120330494D01*
X77893502Y-120220180D01*
X77915513Y-120147620D01*
X78047368Y-120279475D01*
X78290589Y-120441990D01*
X78560842Y-120553932D01*
X78847740Y-120611000D01*
X79140260Y-120611000D01*
X79427158Y-120553932D01*
X79697411Y-120441990D01*
X79940632Y-120279475D01*
X80147475Y-120072632D01*
X80269195Y-119890466D01*
X80338822Y-120007355D01*
X80533731Y-120223588D01*
X80767080Y-120397641D01*
X81029901Y-120522825D01*
X81177110Y-120567476D01*
X81407000Y-120446155D01*
X81407000Y-119253000D01*
X81387000Y-119253000D01*
X81387000Y-118999000D01*
X81407000Y-118999000D01*
X81407000Y-118979000D01*
X81661000Y-118979000D01*
X81661000Y-118999000D01*
G37*
X81661000Y-118999000D02*
X81681000Y-118999000D01*
X81681000Y-119253000D01*
X81661000Y-119253000D01*
X81661000Y-120446155D01*
X81890890Y-120567476D01*
X82038099Y-120522825D01*
X82300920Y-120397641D01*
X82534269Y-120223588D01*
X82729178Y-120007355D01*
X82832507Y-119833888D01*
X83584388Y-120585769D01*
X83605052Y-120610948D01*
X83630231Y-120631612D01*
X83630233Y-120631614D01*
X83705549Y-120693425D01*
X83745487Y-120714772D01*
X83820207Y-120754710D01*
X83944617Y-120792450D01*
X84041581Y-120802000D01*
X84041590Y-120802000D01*
X84073999Y-120805192D01*
X84106408Y-120802000D01*
X88395990Y-120802000D01*
X88343528Y-120900150D01*
X88292992Y-121066746D01*
X88275928Y-121240000D01*
X88275928Y-122165000D01*
X88282675Y-122233500D01*
X85888439Y-122233500D01*
X85879008Y-122137746D01*
X85828472Y-121971150D01*
X85746405Y-121817614D01*
X85635962Y-121683038D01*
X85501386Y-121572595D01*
X85347850Y-121490528D01*
X85181254Y-121439992D01*
X85008000Y-121422928D01*
X84083000Y-121422928D01*
X83909746Y-121439992D01*
X83743150Y-121490528D01*
X83589614Y-121572595D01*
X83455038Y-121683038D01*
X83344595Y-121817614D01*
X83262528Y-121971150D01*
X83211992Y-122137746D01*
X83194928Y-122311000D01*
X83194928Y-123561000D01*
X83211992Y-123734254D01*
X83262528Y-123900850D01*
X83344595Y-124054386D01*
X83455038Y-124188962D01*
X83589614Y-124299405D01*
X83743150Y-124381472D01*
X83909746Y-124432008D01*
X84083000Y-124449072D01*
X85008000Y-124449072D01*
X85181254Y-124432008D01*
X85347850Y-124381472D01*
X85501386Y-124299405D01*
X85635962Y-124188962D01*
X85746405Y-124054386D01*
X85828472Y-123900850D01*
X85879008Y-123734254D01*
X85888439Y-123638500D01*
X88368500Y-123638500D01*
X88324498Y-123720820D01*
X88288188Y-123840518D01*
X88275928Y-123965000D01*
X88279000Y-124391750D01*
X88437750Y-124550500D01*
X89662000Y-124550500D01*
X89662000Y-124530500D01*
X89916000Y-124530500D01*
X89916000Y-124550500D01*
X91140250Y-124550500D01*
X91299000Y-124391750D01*
X91302072Y-123965000D01*
X91289812Y-123840518D01*
X91253502Y-123720820D01*
X91194537Y-123610506D01*
X91172219Y-123583311D01*
X91285176Y-123522934D01*
X91392146Y-123435146D01*
X91414150Y-123408334D01*
X92297485Y-122525000D01*
X92331089Y-122525000D01*
X92511729Y-122489068D01*
X92681889Y-122418586D01*
X92835028Y-122316262D01*
X92965262Y-122186028D01*
X93066000Y-122035262D01*
X93066001Y-125578000D01*
X91270544Y-125578000D01*
X91289812Y-125514482D01*
X91302072Y-125390000D01*
X91299000Y-124963250D01*
X91140250Y-124804500D01*
X89916000Y-124804500D01*
X89916000Y-124824500D01*
X89662000Y-124824500D01*
X89662000Y-124804500D01*
X88437750Y-124804500D01*
X88279000Y-124963250D01*
X88275928Y-125390000D01*
X88288188Y-125514482D01*
X88307456Y-125578000D01*
X85871381Y-125578000D01*
X85325616Y-125032236D01*
X85304948Y-125007052D01*
X85204450Y-124924575D01*
X85089793Y-124863290D01*
X84965383Y-124825550D01*
X84868419Y-124816000D01*
X84868409Y-124816000D01*
X84836000Y-124812808D01*
X84803591Y-124816000D01*
X82074408Y-124816000D01*
X82041999Y-124812808D01*
X82009590Y-124816000D01*
X82009581Y-124816000D01*
X81912617Y-124825550D01*
X81788207Y-124863290D01*
X81673550Y-124924575D01*
X81573052Y-125007052D01*
X81552388Y-125032231D01*
X81090236Y-125494384D01*
X81065052Y-125515052D01*
X81044386Y-125540234D01*
X80982575Y-125615550D01*
X80944612Y-125686575D01*
X80921290Y-125730208D01*
X80883550Y-125854618D01*
X80874000Y-125951582D01*
X80874000Y-125951591D01*
X80870808Y-125984000D01*
X80874000Y-126016409D01*
X80874001Y-132060618D01*
X79820236Y-133114384D01*
X79795052Y-133135052D01*
X79774386Y-133160234D01*
X79712575Y-133235550D01*
X79651291Y-133350207D01*
X79651290Y-133350208D01*
X79613550Y-133474618D01*
X79604000Y-133571582D01*
X79604000Y-133571591D01*
X79600808Y-133604000D01*
X79604000Y-133636409D01*
X79604001Y-136619581D01*
X79600808Y-136652000D01*
X79613551Y-136781382D01*
X79651290Y-136905792D01*
X79712575Y-137020450D01*
X79774386Y-137095766D01*
X79774389Y-137095769D01*
X79795053Y-137120948D01*
X79820232Y-137141612D01*
X80874000Y-138195381D01*
X80874000Y-138651591D01*
X80870808Y-138684000D01*
X80874000Y-138716409D01*
X80874000Y-138716419D01*
X80883550Y-138813383D01*
X80908145Y-138894458D01*
X80921290Y-138937792D01*
X80982575Y-139052450D01*
X81044386Y-139127766D01*
X81044387Y-139127767D01*
X81065053Y-139152948D01*
X81090232Y-139173612D01*
X82314388Y-140397769D01*
X82335052Y-140422948D01*
X82360231Y-140443612D01*
X82360233Y-140443614D01*
X82435549Y-140505425D01*
X82475487Y-140526772D01*
X82550207Y-140566710D01*
X82674617Y-140604450D01*
X82771581Y-140614000D01*
X82771590Y-140614000D01*
X82803999Y-140617192D01*
X82836408Y-140614000D01*
X88268990Y-140614000D01*
X88216528Y-140712150D01*
X88165992Y-140878746D01*
X88148928Y-141052000D01*
X88148928Y-141977000D01*
X88165992Y-142150254D01*
X88216528Y-142316850D01*
X88298595Y-142470386D01*
X88409038Y-142604962D01*
X88543614Y-142715405D01*
X88697150Y-142797472D01*
X88863746Y-142848008D01*
X89037000Y-142865072D01*
X90287000Y-142865072D01*
X90460254Y-142848008D01*
X90626850Y-142797472D01*
X90780386Y-142715405D01*
X90914962Y-142604962D01*
X91025405Y-142470386D01*
X91107472Y-142316850D01*
X91158008Y-142150254D01*
X91175072Y-141977000D01*
X91175072Y-141052000D01*
X91158008Y-140878746D01*
X91107472Y-140712150D01*
X91055010Y-140614000D01*
X93066000Y-140614000D01*
X93066001Y-145390000D01*
X91143544Y-145390000D01*
X91162812Y-145326482D01*
X91175072Y-145202000D01*
X91172000Y-144775250D01*
X91013250Y-144616500D01*
X89789000Y-144616500D01*
X89789000Y-144636500D01*
X89535000Y-144636500D01*
X89535000Y-144616500D01*
X88310750Y-144616500D01*
X88152000Y-144775250D01*
X88148928Y-145202000D01*
X88161188Y-145326482D01*
X88180456Y-145390000D01*
X82836408Y-145390000D01*
X82803999Y-145386808D01*
X82771590Y-145390000D01*
X82771581Y-145390000D01*
X82674617Y-145399550D01*
X82550207Y-145437290D01*
X82475487Y-145477228D01*
X82435549Y-145498575D01*
X82360233Y-145560386D01*
X82335052Y-145581052D01*
X82314388Y-145606231D01*
X81090236Y-146830384D01*
X81065052Y-146851052D01*
X81044387Y-146876233D01*
X81044386Y-146876234D01*
X80982575Y-146951550D01*
X80921291Y-147066207D01*
X80921290Y-147066208D01*
X80883550Y-147190618D01*
X80874000Y-147287582D01*
X80874000Y-147287591D01*
X80870808Y-147320000D01*
X80874000Y-147352409D01*
X80874001Y-158463581D01*
X80870808Y-158496000D01*
X80874001Y-158528418D01*
X80874001Y-158528419D01*
X80883551Y-158625383D01*
X80894999Y-158663122D01*
X80921290Y-158749792D01*
X80982575Y-158864450D01*
X81044386Y-158939766D01*
X81044387Y-158939767D01*
X81065053Y-158964948D01*
X81090232Y-158985612D01*
X82314388Y-160209769D01*
X82335052Y-160234948D01*
X82360231Y-160255612D01*
X82360233Y-160255614D01*
X82435549Y-160317425D01*
X82475487Y-160338772D01*
X82550207Y-160378710D01*
X82674617Y-160416450D01*
X82771581Y-160426000D01*
X82771590Y-160426000D01*
X82803999Y-160429192D01*
X82836408Y-160426000D01*
X90046990Y-160426000D01*
X89994528Y-160524150D01*
X89943992Y-160690746D01*
X89926928Y-160864000D01*
X89926928Y-161789000D01*
X89943992Y-161962254D01*
X89994528Y-162128850D01*
X90076595Y-162282386D01*
X90187038Y-162416962D01*
X90321614Y-162527405D01*
X90475150Y-162609472D01*
X90641746Y-162660008D01*
X90815000Y-162677072D01*
X92065000Y-162677072D01*
X92238254Y-162660008D01*
X92404850Y-162609472D01*
X92558386Y-162527405D01*
X92692962Y-162416962D01*
X92803405Y-162282386D01*
X92885472Y-162128850D01*
X92936008Y-161962254D01*
X92953072Y-161789000D01*
X92953072Y-160864000D01*
X92936008Y-160690746D01*
X92885472Y-160524150D01*
X92833010Y-160426000D01*
X94844000Y-160426000D01*
X94844001Y-165202000D01*
X92921544Y-165202000D01*
X92940812Y-165138482D01*
X92953072Y-165014000D01*
X92950000Y-164587250D01*
X92791250Y-164428500D01*
X91567000Y-164428500D01*
X91567000Y-164448500D01*
X91313000Y-164448500D01*
X91313000Y-164428500D01*
X90088750Y-164428500D01*
X89930000Y-164587250D01*
X89926928Y-165014000D01*
X89939188Y-165138482D01*
X89958456Y-165202000D01*
X82836408Y-165202000D01*
X82803999Y-165198808D01*
X82771590Y-165202000D01*
X82771581Y-165202000D01*
X82674617Y-165211550D01*
X82550207Y-165249290D01*
X82475487Y-165289228D01*
X82435549Y-165310575D01*
X82360233Y-165372386D01*
X82335052Y-165393052D01*
X82314388Y-165418231D01*
X81090236Y-166642384D01*
X81065052Y-166663052D01*
X81044387Y-166688233D01*
X81044386Y-166688234D01*
X80982575Y-166763550D01*
X80921291Y-166878207D01*
X80921290Y-166878208D01*
X80883550Y-167002618D01*
X80874000Y-167099582D01*
X80874000Y-167099591D01*
X80870808Y-167132000D01*
X80874000Y-167164409D01*
X80874001Y-178275581D01*
X80870808Y-178308000D01*
X80874001Y-178340418D01*
X80874001Y-178340419D01*
X80883551Y-178437383D01*
X80894999Y-178475122D01*
X80921290Y-178561792D01*
X80982575Y-178676450D01*
X81044386Y-178751766D01*
X81044387Y-178751767D01*
X81065053Y-178776948D01*
X81090232Y-178797612D01*
X82314386Y-180021767D01*
X82335052Y-180046948D01*
X82360231Y-180067612D01*
X82360233Y-180067614D01*
X82435549Y-180129425D01*
X82475487Y-180150772D01*
X82550207Y-180190710D01*
X82674617Y-180228450D01*
X82771581Y-180238000D01*
X82771590Y-180238000D01*
X82803999Y-180241192D01*
X82836408Y-180238000D01*
X90046990Y-180238000D01*
X89994528Y-180336150D01*
X89943992Y-180502746D01*
X89926928Y-180676000D01*
X89926928Y-181601000D01*
X89943992Y-181774254D01*
X89994528Y-181940850D01*
X90076595Y-182094386D01*
X90187038Y-182228962D01*
X90321614Y-182339405D01*
X90475150Y-182421472D01*
X90641746Y-182472008D01*
X90815000Y-182489072D01*
X92065000Y-182489072D01*
X92238254Y-182472008D01*
X92404850Y-182421472D01*
X92558386Y-182339405D01*
X92692962Y-182228962D01*
X92803405Y-182094386D01*
X92885472Y-181940850D01*
X92901655Y-181887500D01*
X109738928Y-181887500D01*
X109751188Y-182011982D01*
X109787498Y-182131680D01*
X109846463Y-182241994D01*
X109925815Y-182338685D01*
X110022506Y-182418037D01*
X110132820Y-182477002D01*
X110252518Y-182513312D01*
X110377000Y-182525572D01*
X110966250Y-182522500D01*
X111125000Y-182363750D01*
X111125000Y-181302000D01*
X111379000Y-181302000D01*
X111379000Y-182363750D01*
X111537750Y-182522500D01*
X112127000Y-182525572D01*
X112251482Y-182513312D01*
X112371180Y-182477002D01*
X112481494Y-182418037D01*
X112578185Y-182338685D01*
X112657537Y-182241994D01*
X112716502Y-182131680D01*
X112752812Y-182011982D01*
X112765072Y-181887500D01*
X112762000Y-181460750D01*
X112603250Y-181302000D01*
X111379000Y-181302000D01*
X111125000Y-181302000D01*
X109900750Y-181302000D01*
X109742000Y-181460750D01*
X109738928Y-181887500D01*
X92901655Y-181887500D01*
X92936008Y-181774254D01*
X92953072Y-181601000D01*
X92953072Y-180676000D01*
X92936008Y-180502746D01*
X92885472Y-180336150D01*
X92833010Y-180238000D01*
X98532620Y-180238000D01*
X99078388Y-180783769D01*
X99099052Y-180808948D01*
X99124231Y-180829612D01*
X99124233Y-180829614D01*
X99196900Y-180889250D01*
X99199550Y-180891425D01*
X99314207Y-180952710D01*
X99438617Y-180990450D01*
X99535581Y-181000000D01*
X99535588Y-181000000D01*
X99568000Y-181003192D01*
X99600412Y-181000000D01*
X103091591Y-181000000D01*
X103124000Y-181003192D01*
X103156409Y-181000000D01*
X103156419Y-181000000D01*
X103253383Y-180990450D01*
X103377793Y-180952710D01*
X103492450Y-180891425D01*
X103592948Y-180808948D01*
X103613616Y-180783764D01*
X104159381Y-180238000D01*
X109781528Y-180238000D01*
X109751188Y-180338018D01*
X109738928Y-180462500D01*
X109742000Y-180889250D01*
X109900750Y-181048000D01*
X111125000Y-181048000D01*
X111125000Y-181028000D01*
X111379000Y-181028000D01*
X111379000Y-181048000D01*
X112603250Y-181048000D01*
X112762000Y-180889250D01*
X112765072Y-180462500D01*
X112752812Y-180338018D01*
X112722472Y-180238000D01*
X117823591Y-180238000D01*
X117856000Y-180241192D01*
X117888409Y-180238000D01*
X117888419Y-180238000D01*
X117985383Y-180228450D01*
X118109793Y-180190710D01*
X118224450Y-180129425D01*
X118324948Y-180046948D01*
X118345616Y-180021764D01*
X119569770Y-178797611D01*
X119594948Y-178776948D01*
X119615614Y-178751767D01*
X119677425Y-178676451D01*
X119698772Y-178636513D01*
X119738710Y-178561793D01*
X119776450Y-178437383D01*
X119786000Y-178340419D01*
X119786000Y-178340410D01*
X119789192Y-178308001D01*
X119786000Y-178275592D01*
X119786000Y-167164408D01*
X119789192Y-167131999D01*
X119786000Y-167099590D01*
X119786000Y-167099581D01*
X119776450Y-167002617D01*
X119738710Y-166878207D01*
X119677426Y-166763551D01*
X119677425Y-166763549D01*
X119615614Y-166688233D01*
X119615612Y-166688231D01*
X119594948Y-166663052D01*
X119569769Y-166642388D01*
X118345616Y-165418236D01*
X118324948Y-165393052D01*
X118224450Y-165310575D01*
X118109793Y-165249290D01*
X117985383Y-165211550D01*
X117888419Y-165202000D01*
X117888409Y-165202000D01*
X117856000Y-165198808D01*
X117823591Y-165202000D01*
X112518010Y-165202000D01*
X112570472Y-165103850D01*
X112621008Y-164937254D01*
X112638072Y-164764000D01*
X112638072Y-163839000D01*
X112621008Y-163665746D01*
X112597728Y-163589000D01*
X129423928Y-163589000D01*
X129427000Y-164015750D01*
X129585750Y-164174500D01*
X130810000Y-164174500D01*
X130810000Y-163112750D01*
X131064000Y-163112750D01*
X131064000Y-164174500D01*
X132288250Y-164174500D01*
X132447000Y-164015750D01*
X132450072Y-163589000D01*
X132437812Y-163464518D01*
X132401502Y-163344820D01*
X132342537Y-163234506D01*
X132263185Y-163137815D01*
X132166494Y-163058463D01*
X132056180Y-162999498D01*
X131936482Y-162963188D01*
X131812000Y-162950928D01*
X131222750Y-162954000D01*
X131064000Y-163112750D01*
X130810000Y-163112750D01*
X130651250Y-162954000D01*
X130062000Y-162950928D01*
X129937518Y-162963188D01*
X129817820Y-162999498D01*
X129707506Y-163058463D01*
X129610815Y-163137815D01*
X129531463Y-163234506D01*
X129472498Y-163344820D01*
X129436188Y-163464518D01*
X129423928Y-163589000D01*
X112597728Y-163589000D01*
X112570472Y-163499150D01*
X112488405Y-163345614D01*
X112377962Y-163211038D01*
X112243386Y-163100595D01*
X112089850Y-163018528D01*
X111923254Y-162967992D01*
X111750000Y-162950928D01*
X110500000Y-162950928D01*
X110326746Y-162967992D01*
X110160150Y-163018528D01*
X110006614Y-163100595D01*
X109872038Y-163211038D01*
X109761595Y-163345614D01*
X109679528Y-163499150D01*
X109628992Y-163665746D01*
X109611928Y-163839000D01*
X109611928Y-164764000D01*
X109628992Y-164937254D01*
X109679528Y-165103850D01*
X109731990Y-165202000D01*
X107848000Y-165202000D01*
X107848000Y-162039000D01*
X109611928Y-162039000D01*
X109624188Y-162163482D01*
X109660498Y-162283180D01*
X109719463Y-162393494D01*
X109798815Y-162490185D01*
X109895506Y-162569537D01*
X110005820Y-162628502D01*
X110125518Y-162664812D01*
X110250000Y-162677072D01*
X110839250Y-162674000D01*
X110998000Y-162515250D01*
X110998000Y-161453500D01*
X111252000Y-161453500D01*
X111252000Y-162515250D01*
X111410750Y-162674000D01*
X112000000Y-162677072D01*
X112124482Y-162664812D01*
X112244180Y-162628502D01*
X112354494Y-162569537D01*
X112451185Y-162490185D01*
X112530537Y-162393494D01*
X112589502Y-162283180D01*
X112625812Y-162163482D01*
X112638072Y-162039000D01*
X112635000Y-161612250D01*
X112476250Y-161453500D01*
X111252000Y-161453500D01*
X110998000Y-161453500D01*
X109773750Y-161453500D01*
X109615000Y-161612250D01*
X109611928Y-162039000D01*
X107848000Y-162039000D01*
X107848000Y-160426000D01*
X109643456Y-160426000D01*
X109624188Y-160489518D01*
X109611928Y-160614000D01*
X109615000Y-161040750D01*
X109773750Y-161199500D01*
X110998000Y-161199500D01*
X110998000Y-161179500D01*
X111252000Y-161179500D01*
X111252000Y-161199500D01*
X112476250Y-161199500D01*
X112635000Y-161040750D01*
X112638072Y-160614000D01*
X112625812Y-160489518D01*
X112606544Y-160426000D01*
X129543990Y-160426000D01*
X129491528Y-160524150D01*
X129440992Y-160690746D01*
X129423928Y-160864000D01*
X129423928Y-161789000D01*
X129440992Y-161962254D01*
X129491528Y-162128850D01*
X129573595Y-162282386D01*
X129684038Y-162416962D01*
X129818614Y-162527405D01*
X129972150Y-162609472D01*
X130138746Y-162660008D01*
X130312000Y-162677072D01*
X131562000Y-162677072D01*
X131735254Y-162660008D01*
X131901850Y-162609472D01*
X132055386Y-162527405D01*
X132189962Y-162416962D01*
X132300405Y-162282386D01*
X132382472Y-162128850D01*
X132433008Y-161962254D01*
X132450072Y-161789000D01*
X132450072Y-160864000D01*
X132433008Y-160690746D01*
X132382472Y-160524150D01*
X132330010Y-160426000D01*
X134468000Y-160426000D01*
X134468001Y-165202000D01*
X132418544Y-165202000D01*
X132437812Y-165138482D01*
X132450072Y-165014000D01*
X132447000Y-164587250D01*
X132288250Y-164428500D01*
X131064000Y-164428500D01*
X131064000Y-164448500D01*
X130810000Y-164448500D01*
X130810000Y-164428500D01*
X129585750Y-164428500D01*
X129427000Y-164587250D01*
X129423928Y-165014000D01*
X129436188Y-165138482D01*
X129455456Y-165202000D01*
X123222408Y-165202000D01*
X123189999Y-165198808D01*
X123157590Y-165202000D01*
X123157581Y-165202000D01*
X123060617Y-165211550D01*
X122936207Y-165249290D01*
X122861487Y-165289228D01*
X122821549Y-165310575D01*
X122746233Y-165372386D01*
X122721052Y-165393052D01*
X122700388Y-165418231D01*
X121476236Y-166642384D01*
X121451052Y-166663052D01*
X121430387Y-166688233D01*
X121430386Y-166688234D01*
X121368575Y-166763550D01*
X121307291Y-166878207D01*
X121307290Y-166878208D01*
X121269550Y-167002618D01*
X121260000Y-167099582D01*
X121260000Y-167099591D01*
X121256808Y-167132000D01*
X121260000Y-167164409D01*
X121260001Y-168128619D01*
X121095236Y-168293384D01*
X121070052Y-168314052D01*
X121049386Y-168339234D01*
X120987575Y-168414550D01*
X120976955Y-168434419D01*
X120926290Y-168529208D01*
X120888550Y-168653618D01*
X120879000Y-168750582D01*
X120879000Y-168750591D01*
X120875808Y-168783000D01*
X120879000Y-168815409D01*
X120879001Y-172560581D01*
X120875808Y-172593000D01*
X120888551Y-172722382D01*
X120926290Y-172846792D01*
X120987575Y-172961450D01*
X121049386Y-173036766D01*
X121049389Y-173036769D01*
X121070053Y-173061948D01*
X121095232Y-173082612D01*
X121260000Y-173247380D01*
X121260001Y-176497571D01*
X121256807Y-176530000D01*
X121269550Y-176659383D01*
X121307290Y-176783793D01*
X121368575Y-176898450D01*
X121451052Y-176998948D01*
X121551550Y-177081425D01*
X121666207Y-177142710D01*
X121790617Y-177180450D01*
X121887581Y-177190000D01*
X121920000Y-177193193D01*
X121952419Y-177190000D01*
X122530000Y-177190000D01*
X122530001Y-179545571D01*
X122526807Y-179578000D01*
X122539550Y-179707383D01*
X122577290Y-179831793D01*
X122638575Y-179946450D01*
X122721052Y-180046948D01*
X122821550Y-180129425D01*
X122936207Y-180190710D01*
X123060617Y-180228450D01*
X123157581Y-180238000D01*
X123190000Y-180241193D01*
X123222419Y-180238000D01*
X129670990Y-180238000D01*
X129618528Y-180336150D01*
X129567992Y-180502746D01*
X129550928Y-180676000D01*
X129550928Y-181601000D01*
X129567992Y-181774254D01*
X129618528Y-181940850D01*
X129700595Y-182094386D01*
X129811038Y-182228962D01*
X129945614Y-182339405D01*
X130099150Y-182421472D01*
X130265746Y-182472008D01*
X130439000Y-182489072D01*
X131689000Y-182489072D01*
X131862254Y-182472008D01*
X132028850Y-182421472D01*
X132182386Y-182339405D01*
X132316962Y-182228962D01*
X132427405Y-182094386D01*
X132509472Y-181940850D01*
X132536727Y-181851000D01*
X149362928Y-181851000D01*
X149375188Y-181975482D01*
X149411498Y-182095180D01*
X149470463Y-182205494D01*
X149549815Y-182302185D01*
X149646506Y-182381537D01*
X149756820Y-182440502D01*
X149876518Y-182476812D01*
X150001000Y-182489072D01*
X150590250Y-182486000D01*
X150749000Y-182327250D01*
X150749000Y-181265500D01*
X151003000Y-181265500D01*
X151003000Y-182327250D01*
X151161750Y-182486000D01*
X151751000Y-182489072D01*
X151875482Y-182476812D01*
X151995180Y-182440502D01*
X152105494Y-182381537D01*
X152202185Y-182302185D01*
X152281537Y-182205494D01*
X152340502Y-182095180D01*
X152376812Y-181975482D01*
X152389072Y-181851000D01*
X152386000Y-181424250D01*
X152227250Y-181265500D01*
X151003000Y-181265500D01*
X150749000Y-181265500D01*
X149524750Y-181265500D01*
X149366000Y-181424250D01*
X149362928Y-181851000D01*
X132536727Y-181851000D01*
X132560008Y-181774254D01*
X132577072Y-181601000D01*
X132577072Y-180676000D01*
X132560008Y-180502746D01*
X132509472Y-180336150D01*
X132457010Y-180238000D01*
X138156620Y-180238000D01*
X138702388Y-180783769D01*
X138723052Y-180808948D01*
X138748231Y-180829612D01*
X138748233Y-180829614D01*
X138820900Y-180889250D01*
X138823550Y-180891425D01*
X138938207Y-180952710D01*
X139062617Y-180990450D01*
X139159581Y-181000000D01*
X139159588Y-181000000D01*
X139192000Y-181003192D01*
X139224412Y-181000000D01*
X142715591Y-181000000D01*
X142748000Y-181003192D01*
X142780409Y-181000000D01*
X142780419Y-181000000D01*
X142877383Y-180990450D01*
X143001793Y-180952710D01*
X143116450Y-180891425D01*
X143216948Y-180808948D01*
X143237616Y-180783764D01*
X143783381Y-180238000D01*
X149394456Y-180238000D01*
X149375188Y-180301518D01*
X149362928Y-180426000D01*
X149366000Y-180852750D01*
X149524750Y-181011500D01*
X150749000Y-181011500D01*
X150749000Y-180991500D01*
X151003000Y-180991500D01*
X151003000Y-181011500D01*
X152227250Y-181011500D01*
X152386000Y-180852750D01*
X152389072Y-180426000D01*
X152376812Y-180301518D01*
X152357544Y-180238000D01*
X158209591Y-180238000D01*
X158242000Y-180241192D01*
X158274409Y-180238000D01*
X158274419Y-180238000D01*
X158371383Y-180228450D01*
X158495793Y-180190710D01*
X158610450Y-180129425D01*
X158710948Y-180046948D01*
X158731616Y-180021764D01*
X159955770Y-178797611D01*
X159980948Y-178776948D01*
X160001614Y-178751767D01*
X160063425Y-178676451D01*
X160084772Y-178636513D01*
X160124710Y-178561793D01*
X160162450Y-178437383D01*
X160172000Y-178340419D01*
X160172000Y-178340410D01*
X160175192Y-178308001D01*
X160172000Y-178275592D01*
X160172000Y-167164408D01*
X160175192Y-167131999D01*
X160172000Y-167099590D01*
X160172000Y-167099581D01*
X160162450Y-167002617D01*
X160124710Y-166878207D01*
X160063426Y-166763551D01*
X160063425Y-166763549D01*
X160001614Y-166688233D01*
X160001612Y-166688231D01*
X159980948Y-166663052D01*
X159955769Y-166642388D01*
X158731616Y-165418236D01*
X158710948Y-165393052D01*
X158610450Y-165310575D01*
X158495793Y-165249290D01*
X158371383Y-165211550D01*
X158274419Y-165202000D01*
X158274409Y-165202000D01*
X158242000Y-165198808D01*
X158209591Y-165202000D01*
X152180633Y-165202000D01*
X152239405Y-165130386D01*
X152321472Y-164976850D01*
X152372008Y-164810254D01*
X152389072Y-164637000D01*
X152389072Y-163712000D01*
X152372008Y-163538746D01*
X152321472Y-163372150D01*
X152239405Y-163218614D01*
X152128962Y-163084038D01*
X151994386Y-162973595D01*
X151840850Y-162891528D01*
X151674254Y-162840992D01*
X151501000Y-162823928D01*
X150251000Y-162823928D01*
X150077746Y-162840992D01*
X149911150Y-162891528D01*
X149757614Y-162973595D01*
X149623038Y-163084038D01*
X149512595Y-163218614D01*
X149430528Y-163372150D01*
X149379992Y-163538746D01*
X149362928Y-163712000D01*
X149362928Y-164637000D01*
X149379992Y-164810254D01*
X149430528Y-164976850D01*
X149512595Y-165130386D01*
X149571367Y-165202000D01*
X147472000Y-165202000D01*
X147472000Y-161912000D01*
X149362928Y-161912000D01*
X149375188Y-162036482D01*
X149411498Y-162156180D01*
X149470463Y-162266494D01*
X149549815Y-162363185D01*
X149646506Y-162442537D01*
X149756820Y-162501502D01*
X149876518Y-162537812D01*
X150001000Y-162550072D01*
X150590250Y-162547000D01*
X150749000Y-162388250D01*
X150749000Y-161326500D01*
X151003000Y-161326500D01*
X151003000Y-162388250D01*
X151161750Y-162547000D01*
X151751000Y-162550072D01*
X151875482Y-162537812D01*
X151995180Y-162501502D01*
X152105494Y-162442537D01*
X152202185Y-162363185D01*
X152281537Y-162266494D01*
X152340502Y-162156180D01*
X152376812Y-162036482D01*
X152389072Y-161912000D01*
X152386000Y-161485250D01*
X152227250Y-161326500D01*
X151003000Y-161326500D01*
X150749000Y-161326500D01*
X149524750Y-161326500D01*
X149366000Y-161485250D01*
X149362928Y-161912000D01*
X147472000Y-161912000D01*
X147472000Y-160426000D01*
X149368936Y-160426000D01*
X149362928Y-160487000D01*
X149366000Y-160913750D01*
X149524750Y-161072500D01*
X150749000Y-161072500D01*
X150749000Y-161052500D01*
X151003000Y-161052500D01*
X151003000Y-161072500D01*
X152227250Y-161072500D01*
X152386000Y-160913750D01*
X152389072Y-160487000D01*
X152383064Y-160426000D01*
X158209591Y-160426000D01*
X158242000Y-160429192D01*
X158274409Y-160426000D01*
X158274419Y-160426000D01*
X158371383Y-160416450D01*
X158495793Y-160378710D01*
X158610450Y-160317425D01*
X158710948Y-160234948D01*
X158731616Y-160209764D01*
X159955770Y-158985611D01*
X159980948Y-158964948D01*
X160001614Y-158939767D01*
X160063425Y-158864451D01*
X160084772Y-158824513D01*
X160124710Y-158749793D01*
X160162450Y-158625383D01*
X160172000Y-158528419D01*
X160172000Y-158528410D01*
X160175192Y-158496001D01*
X160172000Y-158463592D01*
X160172000Y-147352408D01*
X160175192Y-147319999D01*
X160172000Y-147287590D01*
X160172000Y-147287581D01*
X160162450Y-147190617D01*
X160124710Y-147066207D01*
X160063426Y-146951551D01*
X160063425Y-146951549D01*
X160001614Y-146876233D01*
X160001612Y-146876231D01*
X159980948Y-146851052D01*
X159955769Y-146830388D01*
X158731616Y-145606236D01*
X158710948Y-145581052D01*
X158610450Y-145498575D01*
X158495793Y-145437290D01*
X158371383Y-145399550D01*
X158274419Y-145390000D01*
X158274409Y-145390000D01*
X158242000Y-145386808D01*
X158209591Y-145390000D01*
X153920010Y-145390000D01*
X153972472Y-145291850D01*
X154023008Y-145125254D01*
X154040072Y-144952000D01*
X154040072Y-144027000D01*
X154023008Y-143853746D01*
X153972472Y-143687150D01*
X153890405Y-143533614D01*
X153779962Y-143399038D01*
X153645386Y-143288595D01*
X153491850Y-143206528D01*
X153325254Y-143155992D01*
X153152000Y-143138928D01*
X151902000Y-143138928D01*
X151728746Y-143155992D01*
X151562150Y-143206528D01*
X151408614Y-143288595D01*
X151274038Y-143399038D01*
X151163595Y-143533614D01*
X151081528Y-143687150D01*
X151030992Y-143853746D01*
X151013928Y-144027000D01*
X151013928Y-144952000D01*
X151030992Y-145125254D01*
X151081528Y-145291850D01*
X151133990Y-145390000D01*
X148996000Y-145390000D01*
X148996000Y-142227000D01*
X151013928Y-142227000D01*
X151026188Y-142351482D01*
X151062498Y-142471180D01*
X151121463Y-142581494D01*
X151200815Y-142678185D01*
X151297506Y-142757537D01*
X151407820Y-142816502D01*
X151527518Y-142852812D01*
X151652000Y-142865072D01*
X152241250Y-142862000D01*
X152400000Y-142703250D01*
X152400000Y-141641500D01*
X152654000Y-141641500D01*
X152654000Y-142703250D01*
X152812750Y-142862000D01*
X153402000Y-142865072D01*
X153526482Y-142852812D01*
X153646180Y-142816502D01*
X153756494Y-142757537D01*
X153853185Y-142678185D01*
X153932537Y-142581494D01*
X153991502Y-142471180D01*
X154027812Y-142351482D01*
X154040072Y-142227000D01*
X154037000Y-141800250D01*
X153878250Y-141641500D01*
X152654000Y-141641500D01*
X152400000Y-141641500D01*
X151175750Y-141641500D01*
X151017000Y-141800250D01*
X151013928Y-142227000D01*
X148996000Y-142227000D01*
X148996000Y-140614000D01*
X151045456Y-140614000D01*
X151026188Y-140677518D01*
X151013928Y-140802000D01*
X151017000Y-141228750D01*
X151175750Y-141387500D01*
X152400000Y-141387500D01*
X152400000Y-141367500D01*
X152654000Y-141367500D01*
X152654000Y-141387500D01*
X153878250Y-141387500D01*
X154037000Y-141228750D01*
X154040072Y-140802000D01*
X154027812Y-140677518D01*
X154008544Y-140614000D01*
X158209591Y-140614000D01*
X158242000Y-140617192D01*
X158274409Y-140614000D01*
X158274419Y-140614000D01*
X158371383Y-140604450D01*
X158495793Y-140566710D01*
X158610450Y-140505425D01*
X158710948Y-140422948D01*
X158731616Y-140397764D01*
X159955770Y-139173611D01*
X159980948Y-139152948D01*
X160001614Y-139127767D01*
X160063425Y-139052451D01*
X160084772Y-139012513D01*
X160124710Y-138937793D01*
X160162450Y-138813383D01*
X160172000Y-138716419D01*
X160172000Y-138716410D01*
X160175192Y-138684001D01*
X160172000Y-138651592D01*
X160172000Y-136036380D01*
X161098770Y-135109611D01*
X161123948Y-135088948D01*
X161144614Y-135063767D01*
X161206425Y-134988451D01*
X161267710Y-134873793D01*
X161267710Y-134873792D01*
X161305450Y-134749383D01*
X161315000Y-134652419D01*
X161315000Y-134652410D01*
X161318192Y-134620001D01*
X161315000Y-134587592D01*
X161315000Y-130715408D01*
X161318192Y-130682999D01*
X161315000Y-130650590D01*
X161315000Y-130650581D01*
X161305450Y-130553617D01*
X161267710Y-130429207D01*
X161206425Y-130314550D01*
X161123948Y-130214052D01*
X161098769Y-130193388D01*
X159918000Y-129012620D01*
X159918000Y-127540408D01*
X159921192Y-127507999D01*
X159918000Y-127475590D01*
X159918000Y-127475581D01*
X159908450Y-127378617D01*
X159870710Y-127254207D01*
X159830772Y-127179487D01*
X159809425Y-127139549D01*
X159747614Y-127064233D01*
X159747612Y-127064231D01*
X159726948Y-127039052D01*
X159701769Y-127018388D01*
X158477616Y-125794236D01*
X158456948Y-125769052D01*
X158356450Y-125686575D01*
X158241793Y-125625290D01*
X158117383Y-125587550D01*
X158020419Y-125578000D01*
X158020409Y-125578000D01*
X157988000Y-125574808D01*
X157955591Y-125578000D01*
X153793010Y-125578000D01*
X153845472Y-125479850D01*
X153896008Y-125313254D01*
X153913072Y-125140000D01*
X153913072Y-124215000D01*
X153896008Y-124041746D01*
X153845472Y-123875150D01*
X153763405Y-123721614D01*
X153652962Y-123587038D01*
X153518386Y-123476595D01*
X153364850Y-123394528D01*
X153198254Y-123343992D01*
X153025000Y-123326928D01*
X151775000Y-123326928D01*
X151601746Y-123343992D01*
X151435150Y-123394528D01*
X151281614Y-123476595D01*
X151147038Y-123587038D01*
X151036595Y-123721614D01*
X150954528Y-123875150D01*
X150903992Y-124041746D01*
X150886928Y-124215000D01*
X150886928Y-125140000D01*
X150903992Y-125313254D01*
X150954528Y-125479850D01*
X151006990Y-125578000D01*
X148996000Y-125578000D01*
X148996000Y-122415000D01*
X150886928Y-122415000D01*
X150899188Y-122539482D01*
X150935498Y-122659180D01*
X150994463Y-122769494D01*
X151073815Y-122866185D01*
X151170506Y-122945537D01*
X151280820Y-123004502D01*
X151400518Y-123040812D01*
X151525000Y-123053072D01*
X152114250Y-123050000D01*
X152273000Y-122891250D01*
X152273000Y-121829500D01*
X152527000Y-121829500D01*
X152527000Y-122891250D01*
X152685750Y-123050000D01*
X153275000Y-123053072D01*
X153399482Y-123040812D01*
X153519180Y-123004502D01*
X153629494Y-122945537D01*
X153726185Y-122866185D01*
X153805537Y-122769494D01*
X153864502Y-122659180D01*
X153900812Y-122539482D01*
X153913072Y-122415000D01*
X153910000Y-121988250D01*
X153751250Y-121829500D01*
X152527000Y-121829500D01*
X152273000Y-121829500D01*
X151048750Y-121829500D01*
X150890000Y-121988250D01*
X150886928Y-122415000D01*
X148996000Y-122415000D01*
X148996000Y-120802000D01*
X150918456Y-120802000D01*
X150899188Y-120865518D01*
X150886928Y-120990000D01*
X150890000Y-121416750D01*
X151048750Y-121575500D01*
X152273000Y-121575500D01*
X152273000Y-121555500D01*
X152527000Y-121555500D01*
X152527000Y-121575500D01*
X153751250Y-121575500D01*
X153910000Y-121416750D01*
X153913072Y-120990000D01*
X153900812Y-120865518D01*
X153881544Y-120802000D01*
X157955591Y-120802000D01*
X157988000Y-120805192D01*
X158020409Y-120802000D01*
X158020419Y-120802000D01*
X158117383Y-120792450D01*
X158241793Y-120754710D01*
X158356450Y-120693425D01*
X158456948Y-120610948D01*
X158477616Y-120585764D01*
X159293928Y-119769453D01*
X159293928Y-119976000D01*
X159306188Y-120100482D01*
X159342498Y-120220180D01*
X159401463Y-120330494D01*
X159480815Y-120427185D01*
X159577506Y-120506537D01*
X159687820Y-120565502D01*
X159807518Y-120601812D01*
X159932000Y-120614072D01*
X161632000Y-120614072D01*
X161756482Y-120601812D01*
X161876180Y-120565502D01*
X161986494Y-120506537D01*
X162083185Y-120427185D01*
X162162537Y-120330494D01*
X162221502Y-120220180D01*
X162243513Y-120147620D01*
X162375368Y-120279475D01*
X162618589Y-120441990D01*
X162888842Y-120553932D01*
X163175740Y-120611000D01*
X163468260Y-120611000D01*
X163755158Y-120553932D01*
X164025411Y-120441990D01*
X164268632Y-120279475D01*
X164475475Y-120072632D01*
X164592000Y-119898240D01*
X164708525Y-120072632D01*
X164915368Y-120279475D01*
X165158589Y-120441990D01*
X165428842Y-120553932D01*
X165715740Y-120611000D01*
X166008260Y-120611000D01*
X166295158Y-120553932D01*
X166565411Y-120441990D01*
X166726001Y-120334687D01*
X166726001Y-120376618D01*
X165291236Y-121811384D01*
X165266052Y-121832052D01*
X165240876Y-121862729D01*
X165183575Y-121932550D01*
X165130659Y-122031550D01*
X165122290Y-122047208D01*
X165084550Y-122171618D01*
X165075000Y-122268582D01*
X165075000Y-122268591D01*
X165071808Y-122301000D01*
X165075000Y-122333409D01*
X165075001Y-187362954D01*
X165051359Y-187438860D01*
X165036945Y-187573733D01*
X165045122Y-187665355D01*
X165000729Y-187620962D01*
X164634669Y-187376369D01*
X164227925Y-187207890D01*
X163796128Y-187122000D01*
X163355872Y-187122000D01*
X162924075Y-187207890D01*
X162517331Y-187376369D01*
X162151271Y-187620962D01*
X161839962Y-187932271D01*
X161595369Y-188298331D01*
X161426890Y-188705075D01*
X161341000Y-189136872D01*
X161341000Y-189577128D01*
X161426890Y-190008925D01*
X161595369Y-190415669D01*
X161839962Y-190781729D01*
X162151271Y-191093038D01*
X162517331Y-191337631D01*
X162887596Y-191491000D01*
X160172000Y-191491000D01*
X160172000Y-186722419D01*
X160175193Y-186690000D01*
X160162450Y-186560617D01*
X160124710Y-186436207D01*
X160063425Y-186321550D01*
X159980948Y-186221052D01*
X159880450Y-186138575D01*
X159765793Y-186077290D01*
X159641383Y-186039550D01*
X159636946Y-186039113D01*
X159512000Y-186026807D01*
X159479581Y-186030000D01*
X143783381Y-186030000D01*
X143237616Y-185484236D01*
X143216948Y-185459052D01*
X143116450Y-185376575D01*
X143001793Y-185315290D01*
X142877383Y-185277550D01*
X142780419Y-185268000D01*
X142780409Y-185268000D01*
X142748000Y-185264808D01*
X142715591Y-185268000D01*
X139224412Y-185268000D01*
X139192000Y-185264808D01*
X139159588Y-185268000D01*
X139159581Y-185268000D01*
X139066323Y-185277185D01*
X139062617Y-185277550D01*
X138938207Y-185315290D01*
X138823550Y-185376575D01*
X138776118Y-185415502D01*
X138723052Y-185459052D01*
X138702388Y-185484231D01*
X138156620Y-186030000D01*
X123971381Y-186030000D01*
X123425616Y-185484236D01*
X123404948Y-185459052D01*
X123304450Y-185376575D01*
X123189793Y-185315290D01*
X123065383Y-185277550D01*
X122968419Y-185268000D01*
X122968409Y-185268000D01*
X122936000Y-185264808D01*
X122903591Y-185268000D01*
X119412412Y-185268000D01*
X119380000Y-185264808D01*
X119347588Y-185268000D01*
X119347581Y-185268000D01*
X119254323Y-185277185D01*
X119250617Y-185277550D01*
X119126207Y-185315290D01*
X119011550Y-185376575D01*
X118964118Y-185415502D01*
X118911052Y-185459052D01*
X118890388Y-185484231D01*
X118344620Y-186030000D01*
X104159381Y-186030000D01*
X103613616Y-185484236D01*
X103592948Y-185459052D01*
X103492450Y-185376575D01*
X103377793Y-185315290D01*
X103253383Y-185277550D01*
X103156419Y-185268000D01*
X103156409Y-185268000D01*
X103124000Y-185264808D01*
X103091591Y-185268000D01*
X99600412Y-185268000D01*
X99568000Y-185264808D01*
X99535588Y-185268000D01*
X99535581Y-185268000D01*
X99442323Y-185277185D01*
X99438617Y-185277550D01*
X99314207Y-185315290D01*
X99199550Y-185376575D01*
X99152118Y-185415502D01*
X99099052Y-185459052D01*
X99078388Y-185484231D01*
X98532620Y-186030000D01*
X81566185Y-186030000D01*
X81533546Y-186026808D01*
X81469813Y-186033129D01*
X81404617Y-186039550D01*
X81404398Y-186039617D01*
X81404171Y-186039639D01*
X81342838Y-186058291D01*
X81280207Y-186077290D01*
X81280002Y-186077400D01*
X81279787Y-186077465D01*
X81223314Y-186107700D01*
X81165550Y-186138575D01*
X81165373Y-186138721D01*
X81165172Y-186138828D01*
X81115534Y-186179622D01*
X81065052Y-186221052D01*
X81064905Y-186221231D01*
X81064731Y-186221374D01*
X81024345Y-186270653D01*
X80982575Y-186321550D01*
X80982465Y-186321756D01*
X80982323Y-186321929D01*
X80952878Y-186377109D01*
X80921290Y-186436207D01*
X80921222Y-186436431D01*
X80921117Y-186436628D01*
X80902758Y-186497299D01*
X80883550Y-186560617D01*
X80883527Y-186560849D01*
X80883462Y-186561064D01*
X80877202Y-186625066D01*
X80870807Y-186690000D01*
X80874022Y-186722646D01*
X80875360Y-188671879D01*
X80720631Y-188298331D01*
X80476038Y-187932271D01*
X80164729Y-187620962D01*
X79798669Y-187376369D01*
X79391925Y-187207890D01*
X78960128Y-187122000D01*
X78519872Y-187122000D01*
X78236722Y-187178322D01*
X78310213Y-187090571D01*
X78376852Y-186969079D01*
X78418626Y-186836958D01*
X78433941Y-186699239D01*
X78422214Y-186561169D01*
X78384001Y-186428377D01*
X78384001Y-184826000D01*
X89926928Y-184826000D01*
X89939188Y-184950482D01*
X89975498Y-185070180D01*
X90034463Y-185180494D01*
X90113815Y-185277185D01*
X90210506Y-185356537D01*
X90320820Y-185415502D01*
X90440518Y-185451812D01*
X90565000Y-185464072D01*
X91154250Y-185461000D01*
X91313000Y-185302250D01*
X91313000Y-184240500D01*
X91567000Y-184240500D01*
X91567000Y-185302250D01*
X91725750Y-185461000D01*
X92315000Y-185464072D01*
X92439482Y-185451812D01*
X92559180Y-185415502D01*
X92669494Y-185356537D01*
X92766185Y-185277185D01*
X92845537Y-185180494D01*
X92904502Y-185070180D01*
X92940812Y-184950482D01*
X92953072Y-184826000D01*
X92950000Y-184399250D01*
X92791250Y-184240500D01*
X91567000Y-184240500D01*
X91313000Y-184240500D01*
X90088750Y-184240500D01*
X89930000Y-184399250D01*
X89926928Y-184826000D01*
X78384001Y-184826000D01*
X78384001Y-183401000D01*
X89926928Y-183401000D01*
X89930000Y-183827750D01*
X90088750Y-183986500D01*
X91313000Y-183986500D01*
X91313000Y-182924750D01*
X91567000Y-182924750D01*
X91567000Y-183986500D01*
X92791250Y-183986500D01*
X92950000Y-183827750D01*
X92951009Y-183687500D01*
X109738928Y-183687500D01*
X109738928Y-184612500D01*
X109755992Y-184785754D01*
X109806528Y-184952350D01*
X109888595Y-185105886D01*
X109999038Y-185240462D01*
X110133614Y-185350905D01*
X110287150Y-185432972D01*
X110453746Y-185483508D01*
X110627000Y-185500572D01*
X111877000Y-185500572D01*
X112050254Y-185483508D01*
X112216850Y-185432972D01*
X112370386Y-185350905D01*
X112504962Y-185240462D01*
X112615405Y-185105886D01*
X112697472Y-184952350D01*
X112735799Y-184826000D01*
X129550928Y-184826000D01*
X129563188Y-184950482D01*
X129599498Y-185070180D01*
X129658463Y-185180494D01*
X129737815Y-185277185D01*
X129834506Y-185356537D01*
X129944820Y-185415502D01*
X130064518Y-185451812D01*
X130189000Y-185464072D01*
X130778250Y-185461000D01*
X130937000Y-185302250D01*
X130937000Y-184240500D01*
X131191000Y-184240500D01*
X131191000Y-185302250D01*
X131349750Y-185461000D01*
X131939000Y-185464072D01*
X132063482Y-185451812D01*
X132183180Y-185415502D01*
X132293494Y-185356537D01*
X132390185Y-185277185D01*
X132469537Y-185180494D01*
X132528502Y-185070180D01*
X132564812Y-184950482D01*
X132577072Y-184826000D01*
X132574000Y-184399250D01*
X132415250Y-184240500D01*
X131191000Y-184240500D01*
X130937000Y-184240500D01*
X129712750Y-184240500D01*
X129554000Y-184399250D01*
X129550928Y-184826000D01*
X112735799Y-184826000D01*
X112748008Y-184785754D01*
X112765072Y-184612500D01*
X112765072Y-183687500D01*
X112748008Y-183514246D01*
X112713656Y-183401000D01*
X129550928Y-183401000D01*
X129554000Y-183827750D01*
X129712750Y-183986500D01*
X130937000Y-183986500D01*
X130937000Y-182924750D01*
X131191000Y-182924750D01*
X131191000Y-183986500D01*
X132415250Y-183986500D01*
X132574000Y-183827750D01*
X132575272Y-183651000D01*
X149362928Y-183651000D01*
X149362928Y-184576000D01*
X149379992Y-184749254D01*
X149430528Y-184915850D01*
X149512595Y-185069386D01*
X149623038Y-185203962D01*
X149757614Y-185314405D01*
X149911150Y-185396472D01*
X150077746Y-185447008D01*
X150251000Y-185464072D01*
X151501000Y-185464072D01*
X151674254Y-185447008D01*
X151840850Y-185396472D01*
X151994386Y-185314405D01*
X152128962Y-185203962D01*
X152239405Y-185069386D01*
X152321472Y-184915850D01*
X152372008Y-184749254D01*
X152389072Y-184576000D01*
X152389072Y-183651000D01*
X152372008Y-183477746D01*
X152321472Y-183311150D01*
X152239405Y-183157614D01*
X152128962Y-183023038D01*
X151994386Y-182912595D01*
X151840850Y-182830528D01*
X151674254Y-182779992D01*
X151501000Y-182762928D01*
X150251000Y-182762928D01*
X150077746Y-182779992D01*
X149911150Y-182830528D01*
X149757614Y-182912595D01*
X149623038Y-183023038D01*
X149512595Y-183157614D01*
X149430528Y-183311150D01*
X149379992Y-183477746D01*
X149362928Y-183651000D01*
X132575272Y-183651000D01*
X132577072Y-183401000D01*
X132564812Y-183276518D01*
X132528502Y-183156820D01*
X132469537Y-183046506D01*
X132390185Y-182949815D01*
X132293494Y-182870463D01*
X132183180Y-182811498D01*
X132063482Y-182775188D01*
X131939000Y-182762928D01*
X131349750Y-182766000D01*
X131191000Y-182924750D01*
X130937000Y-182924750D01*
X130778250Y-182766000D01*
X130189000Y-182762928D01*
X130064518Y-182775188D01*
X129944820Y-182811498D01*
X129834506Y-182870463D01*
X129737815Y-182949815D01*
X129658463Y-183046506D01*
X129599498Y-183156820D01*
X129563188Y-183276518D01*
X129550928Y-183401000D01*
X112713656Y-183401000D01*
X112697472Y-183347650D01*
X112615405Y-183194114D01*
X112504962Y-183059538D01*
X112370386Y-182949095D01*
X112216850Y-182867028D01*
X112050254Y-182816492D01*
X111877000Y-182799428D01*
X110627000Y-182799428D01*
X110453746Y-182816492D01*
X110287150Y-182867028D01*
X110133614Y-182949095D01*
X109999038Y-183059538D01*
X109888595Y-183194114D01*
X109806528Y-183347650D01*
X109755992Y-183514246D01*
X109738928Y-183687500D01*
X92951009Y-183687500D01*
X92953072Y-183401000D01*
X92940812Y-183276518D01*
X92904502Y-183156820D01*
X92845537Y-183046506D01*
X92766185Y-182949815D01*
X92669494Y-182870463D01*
X92559180Y-182811498D01*
X92439482Y-182775188D01*
X92315000Y-182762928D01*
X91725750Y-182766000D01*
X91567000Y-182924750D01*
X91313000Y-182924750D01*
X91154250Y-182766000D01*
X90565000Y-182762928D01*
X90440518Y-182775188D01*
X90320820Y-182811498D01*
X90210506Y-182870463D01*
X90113815Y-182949815D01*
X90034463Y-183046506D01*
X89975498Y-183156820D01*
X89939188Y-183276518D01*
X89926928Y-183401000D01*
X78384001Y-183401000D01*
X78384001Y-163589000D01*
X89926928Y-163589000D01*
X89930000Y-164015750D01*
X90088750Y-164174500D01*
X91313000Y-164174500D01*
X91313000Y-163112750D01*
X91567000Y-163112750D01*
X91567000Y-164174500D01*
X92791250Y-164174500D01*
X92950000Y-164015750D01*
X92953072Y-163589000D01*
X92940812Y-163464518D01*
X92904502Y-163344820D01*
X92845537Y-163234506D01*
X92766185Y-163137815D01*
X92669494Y-163058463D01*
X92559180Y-162999498D01*
X92439482Y-162963188D01*
X92315000Y-162950928D01*
X91725750Y-162954000D01*
X91567000Y-163112750D01*
X91313000Y-163112750D01*
X91154250Y-162954000D01*
X90565000Y-162950928D01*
X90440518Y-162963188D01*
X90320820Y-162999498D01*
X90210506Y-163058463D01*
X90113815Y-163137815D01*
X90034463Y-163234506D01*
X89975498Y-163344820D01*
X89939188Y-163464518D01*
X89926928Y-163589000D01*
X78384001Y-163589000D01*
X78384000Y-143777000D01*
X88148928Y-143777000D01*
X88152000Y-144203750D01*
X88310750Y-144362500D01*
X89535000Y-144362500D01*
X89535000Y-143300750D01*
X89789000Y-143300750D01*
X89789000Y-144362500D01*
X91013250Y-144362500D01*
X91172000Y-144203750D01*
X91175072Y-143777000D01*
X91162812Y-143652518D01*
X91126502Y-143532820D01*
X91067537Y-143422506D01*
X90988185Y-143325815D01*
X90891494Y-143246463D01*
X90781180Y-143187498D01*
X90661482Y-143151188D01*
X90537000Y-143138928D01*
X89947750Y-143142000D01*
X89789000Y-143300750D01*
X89535000Y-143300750D01*
X89376250Y-143142000D01*
X88787000Y-143138928D01*
X88662518Y-143151188D01*
X88542820Y-143187498D01*
X88432506Y-143246463D01*
X88335815Y-143325815D01*
X88256463Y-143422506D01*
X88197498Y-143532820D01*
X88161188Y-143652518D01*
X88148928Y-143777000D01*
X78384000Y-143777000D01*
X78383999Y-137954418D01*
X78387192Y-137921999D01*
X78374449Y-137792616D01*
X78336709Y-137668207D01*
X78275425Y-137553549D01*
X78213614Y-137478233D01*
X78213606Y-137478225D01*
X78192947Y-137453052D01*
X78167774Y-137432393D01*
X77114000Y-136378620D01*
X77114000Y-122714408D01*
X77117192Y-122681999D01*
X77114000Y-122649590D01*
X77114000Y-122649581D01*
X77104450Y-122552617D01*
X77066710Y-122428207D01*
X77005425Y-122313550D01*
X77003333Y-122311000D01*
X80219928Y-122311000D01*
X80219928Y-123561000D01*
X80236992Y-123734254D01*
X80287528Y-123900850D01*
X80369595Y-124054386D01*
X80480038Y-124188962D01*
X80614614Y-124299405D01*
X80768150Y-124381472D01*
X80934746Y-124432008D01*
X81108000Y-124449072D01*
X82033000Y-124449072D01*
X82206254Y-124432008D01*
X82372850Y-124381472D01*
X82526386Y-124299405D01*
X82660962Y-124188962D01*
X82771405Y-124054386D01*
X82853472Y-123900850D01*
X82904008Y-123734254D01*
X82921072Y-123561000D01*
X82921072Y-122311000D01*
X82904008Y-122137746D01*
X82853472Y-121971150D01*
X82771405Y-121817614D01*
X82660962Y-121683038D01*
X82526386Y-121572595D01*
X82372850Y-121490528D01*
X82206254Y-121439992D01*
X82033000Y-121422928D01*
X81108000Y-121422928D01*
X80934746Y-121439992D01*
X80768150Y-121490528D01*
X80614614Y-121572595D01*
X80480038Y-121683038D01*
X80369595Y-121817614D01*
X80287528Y-121971150D01*
X80236992Y-122137746D01*
X80219928Y-122311000D01*
X77003333Y-122311000D01*
X76922948Y-122213052D01*
X76897769Y-122192388D01*
X75590000Y-120884620D01*
X75590000Y-120612693D01*
X75604000Y-120614072D01*
X77304000Y-120614072D01*
X77428482Y-120601812D01*
X77548180Y-120565502D01*
X77658494Y-120506537D01*
X77755185Y-120427185D01*
X77834537Y-120330494D01*
X77893502Y-120220180D01*
X77915513Y-120147620D01*
X78047368Y-120279475D01*
X78290589Y-120441990D01*
X78560842Y-120553932D01*
X78847740Y-120611000D01*
X79140260Y-120611000D01*
X79427158Y-120553932D01*
X79697411Y-120441990D01*
X79940632Y-120279475D01*
X80147475Y-120072632D01*
X80269195Y-119890466D01*
X80338822Y-120007355D01*
X80533731Y-120223588D01*
X80767080Y-120397641D01*
X81029901Y-120522825D01*
X81177110Y-120567476D01*
X81407000Y-120446155D01*
X81407000Y-119253000D01*
X81387000Y-119253000D01*
X81387000Y-118999000D01*
X81407000Y-118999000D01*
X81407000Y-118979000D01*
X81661000Y-118979000D01*
X81661000Y-118999000D01*
M02*
