G04 #@! TF.GenerationSoftware,KiCad,Pcbnew,(5.1.5)-3*
G04 #@! TF.CreationDate,2020-07-02T20:41:21-07:00*
G04 #@! TF.ProjectId,daughter,64617567-6874-4657-922e-6b696361645f,rev?*
G04 #@! TF.SameCoordinates,Original*
G04 #@! TF.FileFunction,Legend,Bot*
G04 #@! TF.FilePolarity,Positive*
%FSLAX46Y46*%
G04 Gerber Fmt 4.6, Leading zero omitted, Abs format (unit mm)*
G04 Created by KiCad (PCBNEW (5.1.5)-3) date 2020-07-02 20:41:21*
%MOMM*%
%LPD*%
G04 APERTURE LIST*
%ADD10C,0.050000*%
%ADD11C,0.120000*%
%ADD12C,0.150000*%
G04 APERTURE END LIST*
D10*
X143510000Y-186690000D02*
X159512000Y-186690000D01*
X139192000Y-185928000D02*
X138430000Y-186690000D01*
X142748000Y-185928000D02*
X139192000Y-185928000D01*
X143510000Y-186690000D02*
X142748000Y-185928000D01*
X74930000Y-121158000D02*
X74930000Y-117094000D01*
X76454000Y-122682000D02*
X74930000Y-121158000D01*
X76454000Y-136652000D02*
X76454000Y-122682000D01*
X77724000Y-137922000D02*
X76454000Y-136652000D01*
X77724000Y-137922000D02*
X77724001Y-186690001D01*
X81534000Y-186690000D02*
X81536221Y-189928213D01*
X98806000Y-186690000D02*
X81534000Y-186690000D01*
X99568000Y-185928000D02*
X98806000Y-186690000D01*
X103124000Y-185928000D02*
X99568000Y-185928000D01*
X103886000Y-186690000D02*
X103124000Y-185928000D01*
X118618000Y-186690000D02*
X103886000Y-186690000D01*
X119380000Y-185928000D02*
X118618000Y-186690000D01*
X122936000Y-185928000D02*
X119380000Y-185928000D01*
X123698000Y-186690000D02*
X122936000Y-185928000D01*
X138430000Y-186690000D02*
X123698000Y-186690000D01*
X159512000Y-192151000D02*
X159512000Y-186690000D01*
X159512000Y-192151000D02*
X163576000Y-192151000D01*
X165735000Y-122301000D02*
X165735000Y-187579000D01*
X167386000Y-120650000D02*
X165735000Y-122301000D01*
X167386000Y-116840000D02*
X167386000Y-120650000D01*
X159258000Y-116840000D02*
X167386000Y-116840000D01*
X159258000Y-118872000D02*
X159258000Y-116840000D01*
X157988000Y-120142000D02*
X159258000Y-118872000D01*
X148336000Y-120142000D02*
X157988000Y-120142000D01*
X148336000Y-126238000D02*
X148336000Y-120142000D01*
X157988000Y-126238000D02*
X148336000Y-126238000D01*
X159258000Y-127508000D02*
X157988000Y-126238000D01*
X159258000Y-129286000D02*
X159258000Y-127508000D01*
X160655000Y-130683000D02*
X159258000Y-129286000D01*
X160655000Y-134620000D02*
X160655000Y-130683000D01*
X159512000Y-135763000D02*
X160655000Y-134620000D01*
X159512000Y-138684000D02*
X159512000Y-135763000D01*
X158242000Y-139954000D02*
X159512000Y-138684000D01*
X148336000Y-139954000D02*
X158242000Y-139954000D01*
X148336000Y-146050000D02*
X148336000Y-139954000D01*
X158242000Y-146050000D02*
X148336000Y-146050000D01*
X159512000Y-147320000D02*
X158242000Y-146050000D01*
X159512000Y-158496000D02*
X159512000Y-147320000D01*
X158242000Y-159766000D02*
X159512000Y-158496000D01*
X146812000Y-159766000D02*
X158242000Y-159766000D01*
X146812000Y-165862000D02*
X146812000Y-159766000D01*
X158242000Y-165862000D02*
X146812000Y-165862000D01*
X159512000Y-167132000D02*
X158242000Y-165862000D01*
X159512000Y-178308000D02*
X159512000Y-167132000D01*
X158242000Y-179578000D02*
X159512000Y-178308000D01*
X143510000Y-179578000D02*
X158242000Y-179578000D01*
X142748000Y-180340000D02*
X143510000Y-179578000D01*
X139192000Y-180340000D02*
X142748000Y-180340000D01*
X138430000Y-179578000D02*
X139192000Y-180340000D01*
X123190000Y-179578000D02*
X138430000Y-179578000D01*
X123190000Y-176530000D02*
X123190000Y-179578000D01*
X121920000Y-176530000D02*
X123190000Y-176530000D01*
X121920000Y-172974000D02*
X121920000Y-176530000D01*
X121539000Y-172593000D02*
X121920000Y-172974000D01*
X121539000Y-168783000D02*
X121539000Y-172593000D01*
X121920000Y-168402000D02*
X121539000Y-168783000D01*
X121920000Y-167132000D02*
X121920000Y-168402000D01*
X123190000Y-165862000D02*
X121920000Y-167132000D01*
X135128000Y-165862000D02*
X123190000Y-165862000D01*
X135128000Y-159766000D02*
X135128000Y-165862000D01*
X107188000Y-159766000D02*
X135128000Y-159766000D01*
X107188000Y-165862000D02*
X107188000Y-159766000D01*
X117856000Y-165862000D02*
X107188000Y-165862000D01*
X119126000Y-167132000D02*
X117856000Y-165862000D01*
X119126000Y-178308000D02*
X119126000Y-167132000D01*
X117856000Y-179578000D02*
X119126000Y-178308000D01*
X103886000Y-179578000D02*
X117856000Y-179578000D01*
X103124000Y-180340000D02*
X103886000Y-179578000D01*
X99568000Y-180340000D02*
X103124000Y-180340000D01*
X98806000Y-179578000D02*
X99568000Y-180340000D01*
X82804000Y-179578000D02*
X98806000Y-179578000D01*
X81534000Y-178308000D02*
X82804000Y-179578000D01*
X81534000Y-167132000D02*
X81534000Y-178308000D01*
X82804000Y-165862000D02*
X81534000Y-167132000D01*
X95504000Y-165862000D02*
X82804000Y-165862000D01*
X95504000Y-159766000D02*
X95504000Y-165862000D01*
X82804000Y-159766000D02*
X95504000Y-159766000D01*
X81534000Y-158496000D02*
X82804000Y-159766000D01*
X81534000Y-147320000D02*
X81534000Y-158496000D01*
X82804000Y-146050000D02*
X81534000Y-147320000D01*
X93726000Y-146050000D02*
X82804000Y-146050000D01*
X93726000Y-139954000D02*
X93726000Y-146050000D01*
X82804000Y-139954000D02*
X93726000Y-139954000D01*
X81534000Y-138684000D02*
X82804000Y-139954000D01*
X81534000Y-137922000D02*
X81534000Y-138684000D01*
X80264000Y-136652000D02*
X81534000Y-137922000D01*
X80264000Y-133604000D02*
X80264000Y-136652000D01*
X81534000Y-132334000D02*
X80264000Y-133604000D01*
X81534000Y-125984000D02*
X81534000Y-132334000D01*
X82042000Y-125476000D02*
X81534000Y-125984000D01*
X84836000Y-125476000D02*
X82042000Y-125476000D01*
X85598000Y-126238000D02*
X84836000Y-125476000D01*
X93726000Y-126238000D02*
X85598000Y-126238000D01*
X93726000Y-120142000D02*
X93726000Y-126238000D01*
X84074000Y-120142000D02*
X93726000Y-120142000D01*
X82804000Y-118872000D02*
X84074000Y-120142000D01*
X82804000Y-117094000D02*
X82804000Y-118872000D01*
X74930000Y-117094000D02*
X82804000Y-117094000D01*
D11*
X165731919Y-187579797D02*
G75*
G02X163576000Y-192151000I-2155919J-1777203D01*
G01*
D12*
X81536221Y-189928213D02*
G75*
G02X77724001Y-186690001I-2796221J571213D01*
G01*
D11*
X83660064Y-122026000D02*
X82455936Y-122026000D01*
X83660064Y-123846000D02*
X82455936Y-123846000D01*
X92350000Y-182023936D02*
X92350000Y-183228064D01*
X90530000Y-182023936D02*
X90530000Y-183228064D01*
X92350000Y-162211936D02*
X92350000Y-163416064D01*
X90530000Y-162211936D02*
X90530000Y-163416064D01*
X88752000Y-142399936D02*
X88752000Y-143604064D01*
X90572000Y-142399936D02*
X90572000Y-143604064D01*
X90699000Y-122587936D02*
X90699000Y-123792064D01*
X88879000Y-122587936D02*
X88879000Y-123792064D01*
X131847000Y-162211936D02*
X131847000Y-163416064D01*
X130027000Y-162211936D02*
X130027000Y-163416064D01*
X112035000Y-163416064D02*
X112035000Y-162211936D01*
X110215000Y-163416064D02*
X110215000Y-162211936D01*
X131974000Y-182023936D02*
X131974000Y-183228064D01*
X130154000Y-182023936D02*
X130154000Y-183228064D01*
X110342000Y-183264564D02*
X110342000Y-182060436D01*
X112162000Y-183264564D02*
X112162000Y-182060436D01*
X153310000Y-123792064D02*
X153310000Y-122587936D01*
X151490000Y-123792064D02*
X151490000Y-122587936D01*
X153437000Y-143604064D02*
X153437000Y-142399936D01*
X151617000Y-143604064D02*
X151617000Y-142399936D01*
X149966000Y-163289064D02*
X149966000Y-162084936D01*
X151786000Y-163289064D02*
X151786000Y-162084936D01*
X149966000Y-183228064D02*
X149966000Y-182023936D01*
X151786000Y-183228064D02*
X151786000Y-182023936D01*
D12*
X83224666Y-125166380D02*
X83558000Y-124690190D01*
X83796095Y-125166380D02*
X83796095Y-124166380D01*
X83415142Y-124166380D01*
X83319904Y-124214000D01*
X83272285Y-124261619D01*
X83224666Y-124356857D01*
X83224666Y-124499714D01*
X83272285Y-124594952D01*
X83319904Y-124642571D01*
X83415142Y-124690190D01*
X83796095Y-124690190D01*
X82319904Y-124166380D02*
X82796095Y-124166380D01*
X82843714Y-124642571D01*
X82796095Y-124594952D01*
X82700857Y-124547333D01*
X82462761Y-124547333D01*
X82367523Y-124594952D01*
X82319904Y-124642571D01*
X82272285Y-124737809D01*
X82272285Y-124975904D01*
X82319904Y-125071142D01*
X82367523Y-125118761D01*
X82462761Y-125166380D01*
X82700857Y-125166380D01*
X82796095Y-125118761D01*
X82843714Y-125071142D01*
X89977142Y-182459333D02*
X90024761Y-182411714D01*
X90072380Y-182268857D01*
X90072380Y-182173619D01*
X90024761Y-182030761D01*
X89929523Y-181935523D01*
X89834285Y-181887904D01*
X89643809Y-181840285D01*
X89500952Y-181840285D01*
X89310476Y-181887904D01*
X89215238Y-181935523D01*
X89120000Y-182030761D01*
X89072380Y-182173619D01*
X89072380Y-182268857D01*
X89120000Y-182411714D01*
X89167619Y-182459333D01*
X90072380Y-183411714D02*
X90072380Y-182840285D01*
X90072380Y-183126000D02*
X89072380Y-183126000D01*
X89215238Y-183030761D01*
X89310476Y-182935523D01*
X89358095Y-182840285D01*
X89977142Y-162647333D02*
X90024761Y-162599714D01*
X90072380Y-162456857D01*
X90072380Y-162361619D01*
X90024761Y-162218761D01*
X89929523Y-162123523D01*
X89834285Y-162075904D01*
X89643809Y-162028285D01*
X89500952Y-162028285D01*
X89310476Y-162075904D01*
X89215238Y-162123523D01*
X89120000Y-162218761D01*
X89072380Y-162361619D01*
X89072380Y-162456857D01*
X89120000Y-162599714D01*
X89167619Y-162647333D01*
X89167619Y-163028285D02*
X89120000Y-163075904D01*
X89072380Y-163171142D01*
X89072380Y-163409238D01*
X89120000Y-163504476D01*
X89167619Y-163552095D01*
X89262857Y-163599714D01*
X89358095Y-163599714D01*
X89500952Y-163552095D01*
X90072380Y-162980666D01*
X90072380Y-163599714D01*
X88199142Y-142835333D02*
X88246761Y-142787714D01*
X88294380Y-142644857D01*
X88294380Y-142549619D01*
X88246761Y-142406761D01*
X88151523Y-142311523D01*
X88056285Y-142263904D01*
X87865809Y-142216285D01*
X87722952Y-142216285D01*
X87532476Y-142263904D01*
X87437238Y-142311523D01*
X87342000Y-142406761D01*
X87294380Y-142549619D01*
X87294380Y-142644857D01*
X87342000Y-142787714D01*
X87389619Y-142835333D01*
X87294380Y-143168666D02*
X87294380Y-143787714D01*
X87675333Y-143454380D01*
X87675333Y-143597238D01*
X87722952Y-143692476D01*
X87770571Y-143740095D01*
X87865809Y-143787714D01*
X88103904Y-143787714D01*
X88199142Y-143740095D01*
X88246761Y-143692476D01*
X88294380Y-143597238D01*
X88294380Y-143311523D01*
X88246761Y-143216285D01*
X88199142Y-143168666D01*
X88326142Y-123023333D02*
X88373761Y-122975714D01*
X88421380Y-122832857D01*
X88421380Y-122737619D01*
X88373761Y-122594761D01*
X88278523Y-122499523D01*
X88183285Y-122451904D01*
X87992809Y-122404285D01*
X87849952Y-122404285D01*
X87659476Y-122451904D01*
X87564238Y-122499523D01*
X87469000Y-122594761D01*
X87421380Y-122737619D01*
X87421380Y-122832857D01*
X87469000Y-122975714D01*
X87516619Y-123023333D01*
X87754714Y-123880476D02*
X88421380Y-123880476D01*
X87373761Y-123642380D02*
X88088047Y-123404285D01*
X88088047Y-124023333D01*
X129474142Y-162647333D02*
X129521761Y-162599714D01*
X129569380Y-162456857D01*
X129569380Y-162361619D01*
X129521761Y-162218761D01*
X129426523Y-162123523D01*
X129331285Y-162075904D01*
X129140809Y-162028285D01*
X128997952Y-162028285D01*
X128807476Y-162075904D01*
X128712238Y-162123523D01*
X128617000Y-162218761D01*
X128569380Y-162361619D01*
X128569380Y-162456857D01*
X128617000Y-162599714D01*
X128664619Y-162647333D01*
X128569380Y-163552095D02*
X128569380Y-163075904D01*
X129045571Y-163028285D01*
X128997952Y-163075904D01*
X128950333Y-163171142D01*
X128950333Y-163409238D01*
X128997952Y-163504476D01*
X129045571Y-163552095D01*
X129140809Y-163599714D01*
X129378904Y-163599714D01*
X129474142Y-163552095D01*
X129521761Y-163504476D01*
X129569380Y-163409238D01*
X129569380Y-163171142D01*
X129521761Y-163075904D01*
X129474142Y-163028285D01*
X113302142Y-162647333D02*
X113349761Y-162599714D01*
X113397380Y-162456857D01*
X113397380Y-162361619D01*
X113349761Y-162218761D01*
X113254523Y-162123523D01*
X113159285Y-162075904D01*
X112968809Y-162028285D01*
X112825952Y-162028285D01*
X112635476Y-162075904D01*
X112540238Y-162123523D01*
X112445000Y-162218761D01*
X112397380Y-162361619D01*
X112397380Y-162456857D01*
X112445000Y-162599714D01*
X112492619Y-162647333D01*
X112397380Y-163504476D02*
X112397380Y-163314000D01*
X112445000Y-163218761D01*
X112492619Y-163171142D01*
X112635476Y-163075904D01*
X112825952Y-163028285D01*
X113206904Y-163028285D01*
X113302142Y-163075904D01*
X113349761Y-163123523D01*
X113397380Y-163218761D01*
X113397380Y-163409238D01*
X113349761Y-163504476D01*
X113302142Y-163552095D01*
X113206904Y-163599714D01*
X112968809Y-163599714D01*
X112873571Y-163552095D01*
X112825952Y-163504476D01*
X112778333Y-163409238D01*
X112778333Y-163218761D01*
X112825952Y-163123523D01*
X112873571Y-163075904D01*
X112968809Y-163028285D01*
X129601142Y-182459333D02*
X129648761Y-182411714D01*
X129696380Y-182268857D01*
X129696380Y-182173619D01*
X129648761Y-182030761D01*
X129553523Y-181935523D01*
X129458285Y-181887904D01*
X129267809Y-181840285D01*
X129124952Y-181840285D01*
X128934476Y-181887904D01*
X128839238Y-181935523D01*
X128744000Y-182030761D01*
X128696380Y-182173619D01*
X128696380Y-182268857D01*
X128744000Y-182411714D01*
X128791619Y-182459333D01*
X128696380Y-182792666D02*
X128696380Y-183459333D01*
X129696380Y-183030761D01*
X113429142Y-182495833D02*
X113476761Y-182448214D01*
X113524380Y-182305357D01*
X113524380Y-182210119D01*
X113476761Y-182067261D01*
X113381523Y-181972023D01*
X113286285Y-181924404D01*
X113095809Y-181876785D01*
X112952952Y-181876785D01*
X112762476Y-181924404D01*
X112667238Y-181972023D01*
X112572000Y-182067261D01*
X112524380Y-182210119D01*
X112524380Y-182305357D01*
X112572000Y-182448214D01*
X112619619Y-182495833D01*
X112952952Y-183067261D02*
X112905333Y-182972023D01*
X112857714Y-182924404D01*
X112762476Y-182876785D01*
X112714857Y-182876785D01*
X112619619Y-182924404D01*
X112572000Y-182972023D01*
X112524380Y-183067261D01*
X112524380Y-183257738D01*
X112572000Y-183352976D01*
X112619619Y-183400595D01*
X112714857Y-183448214D01*
X112762476Y-183448214D01*
X112857714Y-183400595D01*
X112905333Y-183352976D01*
X112952952Y-183257738D01*
X112952952Y-183067261D01*
X113000571Y-182972023D01*
X113048190Y-182924404D01*
X113143428Y-182876785D01*
X113333904Y-182876785D01*
X113429142Y-182924404D01*
X113476761Y-182972023D01*
X113524380Y-183067261D01*
X113524380Y-183257738D01*
X113476761Y-183352976D01*
X113429142Y-183400595D01*
X113333904Y-183448214D01*
X113143428Y-183448214D01*
X113048190Y-183400595D01*
X113000571Y-183352976D01*
X112952952Y-183257738D01*
X154577142Y-123023333D02*
X154624761Y-122975714D01*
X154672380Y-122832857D01*
X154672380Y-122737619D01*
X154624761Y-122594761D01*
X154529523Y-122499523D01*
X154434285Y-122451904D01*
X154243809Y-122404285D01*
X154100952Y-122404285D01*
X153910476Y-122451904D01*
X153815238Y-122499523D01*
X153720000Y-122594761D01*
X153672380Y-122737619D01*
X153672380Y-122832857D01*
X153720000Y-122975714D01*
X153767619Y-123023333D01*
X154672380Y-123499523D02*
X154672380Y-123690000D01*
X154624761Y-123785238D01*
X154577142Y-123832857D01*
X154434285Y-123928095D01*
X154243809Y-123975714D01*
X153862857Y-123975714D01*
X153767619Y-123928095D01*
X153720000Y-123880476D01*
X153672380Y-123785238D01*
X153672380Y-123594761D01*
X153720000Y-123499523D01*
X153767619Y-123451904D01*
X153862857Y-123404285D01*
X154100952Y-123404285D01*
X154196190Y-123451904D01*
X154243809Y-123499523D01*
X154291428Y-123594761D01*
X154291428Y-123785238D01*
X154243809Y-123880476D01*
X154196190Y-123928095D01*
X154100952Y-123975714D01*
X154704142Y-142359142D02*
X154751761Y-142311523D01*
X154799380Y-142168666D01*
X154799380Y-142073428D01*
X154751761Y-141930571D01*
X154656523Y-141835333D01*
X154561285Y-141787714D01*
X154370809Y-141740095D01*
X154227952Y-141740095D01*
X154037476Y-141787714D01*
X153942238Y-141835333D01*
X153847000Y-141930571D01*
X153799380Y-142073428D01*
X153799380Y-142168666D01*
X153847000Y-142311523D01*
X153894619Y-142359142D01*
X154799380Y-143311523D02*
X154799380Y-142740095D01*
X154799380Y-143025809D02*
X153799380Y-143025809D01*
X153942238Y-142930571D01*
X154037476Y-142835333D01*
X154085095Y-142740095D01*
X153799380Y-143930571D02*
X153799380Y-144025809D01*
X153847000Y-144121047D01*
X153894619Y-144168666D01*
X153989857Y-144216285D01*
X154180333Y-144263904D01*
X154418428Y-144263904D01*
X154608904Y-144216285D01*
X154704142Y-144168666D01*
X154751761Y-144121047D01*
X154799380Y-144025809D01*
X154799380Y-143930571D01*
X154751761Y-143835333D01*
X154704142Y-143787714D01*
X154608904Y-143740095D01*
X154418428Y-143692476D01*
X154180333Y-143692476D01*
X153989857Y-143740095D01*
X153894619Y-143787714D01*
X153847000Y-143835333D01*
X153799380Y-143930571D01*
X153053142Y-162044142D02*
X153100761Y-161996523D01*
X153148380Y-161853666D01*
X153148380Y-161758428D01*
X153100761Y-161615571D01*
X153005523Y-161520333D01*
X152910285Y-161472714D01*
X152719809Y-161425095D01*
X152576952Y-161425095D01*
X152386476Y-161472714D01*
X152291238Y-161520333D01*
X152196000Y-161615571D01*
X152148380Y-161758428D01*
X152148380Y-161853666D01*
X152196000Y-161996523D01*
X152243619Y-162044142D01*
X153148380Y-162996523D02*
X153148380Y-162425095D01*
X153148380Y-162710809D02*
X152148380Y-162710809D01*
X152291238Y-162615571D01*
X152386476Y-162520333D01*
X152434095Y-162425095D01*
X153148380Y-163948904D02*
X153148380Y-163377476D01*
X153148380Y-163663190D02*
X152148380Y-163663190D01*
X152291238Y-163567952D01*
X152386476Y-163472714D01*
X152434095Y-163377476D01*
X153053142Y-181983142D02*
X153100761Y-181935523D01*
X153148380Y-181792666D01*
X153148380Y-181697428D01*
X153100761Y-181554571D01*
X153005523Y-181459333D01*
X152910285Y-181411714D01*
X152719809Y-181364095D01*
X152576952Y-181364095D01*
X152386476Y-181411714D01*
X152291238Y-181459333D01*
X152196000Y-181554571D01*
X152148380Y-181697428D01*
X152148380Y-181792666D01*
X152196000Y-181935523D01*
X152243619Y-181983142D01*
X153148380Y-182935523D02*
X153148380Y-182364095D01*
X153148380Y-182649809D02*
X152148380Y-182649809D01*
X152291238Y-182554571D01*
X152386476Y-182459333D01*
X152434095Y-182364095D01*
X152243619Y-183316476D02*
X152196000Y-183364095D01*
X152148380Y-183459333D01*
X152148380Y-183697428D01*
X152196000Y-183792666D01*
X152243619Y-183840285D01*
X152338857Y-183887904D01*
X152434095Y-183887904D01*
X152576952Y-183840285D01*
X153148380Y-183268857D01*
X153148380Y-183887904D01*
X87828285Y-183078380D02*
X87828285Y-182078380D01*
X87590190Y-182078380D01*
X87447333Y-182126000D01*
X87352095Y-182221238D01*
X87304476Y-182316476D01*
X87256857Y-182506952D01*
X87256857Y-182649809D01*
X87304476Y-182840285D01*
X87352095Y-182935523D01*
X87447333Y-183030761D01*
X87590190Y-183078380D01*
X87828285Y-183078380D01*
X86304476Y-183078380D02*
X86875904Y-183078380D01*
X86590190Y-183078380D02*
X86590190Y-182078380D01*
X86685428Y-182221238D01*
X86780666Y-182316476D01*
X86875904Y-182364095D01*
X85447333Y-182411714D02*
X85447333Y-183078380D01*
X85685428Y-182030761D02*
X85923523Y-182745047D01*
X85304476Y-182745047D01*
X87828285Y-163266380D02*
X87828285Y-162266380D01*
X87590190Y-162266380D01*
X87447333Y-162314000D01*
X87352095Y-162409238D01*
X87304476Y-162504476D01*
X87256857Y-162694952D01*
X87256857Y-162837809D01*
X87304476Y-163028285D01*
X87352095Y-163123523D01*
X87447333Y-163218761D01*
X87590190Y-163266380D01*
X87828285Y-163266380D01*
X86304476Y-163266380D02*
X86875904Y-163266380D01*
X86590190Y-163266380D02*
X86590190Y-162266380D01*
X86685428Y-162409238D01*
X86780666Y-162504476D01*
X86875904Y-162552095D01*
X85399714Y-162266380D02*
X85875904Y-162266380D01*
X85923523Y-162742571D01*
X85875904Y-162694952D01*
X85780666Y-162647333D01*
X85542571Y-162647333D01*
X85447333Y-162694952D01*
X85399714Y-162742571D01*
X85352095Y-162837809D01*
X85352095Y-163075904D01*
X85399714Y-163171142D01*
X85447333Y-163218761D01*
X85542571Y-163266380D01*
X85780666Y-163266380D01*
X85875904Y-163218761D01*
X85923523Y-163171142D01*
X86177285Y-143454380D02*
X86177285Y-142454380D01*
X85939190Y-142454380D01*
X85796333Y-142502000D01*
X85701095Y-142597238D01*
X85653476Y-142692476D01*
X85605857Y-142882952D01*
X85605857Y-143025809D01*
X85653476Y-143216285D01*
X85701095Y-143311523D01*
X85796333Y-143406761D01*
X85939190Y-143454380D01*
X86177285Y-143454380D01*
X84653476Y-143454380D02*
X85224904Y-143454380D01*
X84939190Y-143454380D02*
X84939190Y-142454380D01*
X85034428Y-142597238D01*
X85129666Y-142692476D01*
X85224904Y-142740095D01*
X83796333Y-142454380D02*
X83986809Y-142454380D01*
X84082047Y-142502000D01*
X84129666Y-142549619D01*
X84224904Y-142692476D01*
X84272523Y-142882952D01*
X84272523Y-143263904D01*
X84224904Y-143359142D01*
X84177285Y-143406761D01*
X84082047Y-143454380D01*
X83891571Y-143454380D01*
X83796333Y-143406761D01*
X83748714Y-143359142D01*
X83701095Y-143263904D01*
X83701095Y-143025809D01*
X83748714Y-142930571D01*
X83796333Y-142882952D01*
X83891571Y-142835333D01*
X84082047Y-142835333D01*
X84177285Y-142882952D01*
X84224904Y-142930571D01*
X84272523Y-143025809D01*
X85923285Y-121356380D02*
X85923285Y-120356380D01*
X85685190Y-120356380D01*
X85542333Y-120404000D01*
X85447095Y-120499238D01*
X85399476Y-120594476D01*
X85351857Y-120784952D01*
X85351857Y-120927809D01*
X85399476Y-121118285D01*
X85447095Y-121213523D01*
X85542333Y-121308761D01*
X85685190Y-121356380D01*
X85923285Y-121356380D01*
X84399476Y-121356380D02*
X84970904Y-121356380D01*
X84685190Y-121356380D02*
X84685190Y-120356380D01*
X84780428Y-120499238D01*
X84875666Y-120594476D01*
X84970904Y-120642095D01*
X84066142Y-120356380D02*
X83399476Y-120356380D01*
X83828047Y-121356380D01*
X127452285Y-183078380D02*
X127452285Y-182078380D01*
X127214190Y-182078380D01*
X127071333Y-182126000D01*
X126976095Y-182221238D01*
X126928476Y-182316476D01*
X126880857Y-182506952D01*
X126880857Y-182649809D01*
X126928476Y-182840285D01*
X126976095Y-182935523D01*
X127071333Y-183030761D01*
X127214190Y-183078380D01*
X127452285Y-183078380D01*
X125928476Y-183078380D02*
X126499904Y-183078380D01*
X126214190Y-183078380D02*
X126214190Y-182078380D01*
X126309428Y-182221238D01*
X126404666Y-182316476D01*
X126499904Y-182364095D01*
X125357047Y-182506952D02*
X125452285Y-182459333D01*
X125499904Y-182411714D01*
X125547523Y-182316476D01*
X125547523Y-182268857D01*
X125499904Y-182173619D01*
X125452285Y-182126000D01*
X125357047Y-182078380D01*
X125166571Y-182078380D01*
X125071333Y-182126000D01*
X125023714Y-182173619D01*
X124976095Y-182268857D01*
X124976095Y-182316476D01*
X125023714Y-182411714D01*
X125071333Y-182459333D01*
X125166571Y-182506952D01*
X125357047Y-182506952D01*
X125452285Y-182554571D01*
X125499904Y-182602190D01*
X125547523Y-182697428D01*
X125547523Y-182887904D01*
X125499904Y-182983142D01*
X125452285Y-183030761D01*
X125357047Y-183078380D01*
X125166571Y-183078380D01*
X125071333Y-183030761D01*
X125023714Y-182983142D01*
X124976095Y-182887904D01*
X124976095Y-182697428D01*
X125023714Y-182602190D01*
X125071333Y-182554571D01*
X125166571Y-182506952D01*
X127452285Y-163266380D02*
X127452285Y-162266380D01*
X127214190Y-162266380D01*
X127071333Y-162314000D01*
X126976095Y-162409238D01*
X126928476Y-162504476D01*
X126880857Y-162694952D01*
X126880857Y-162837809D01*
X126928476Y-163028285D01*
X126976095Y-163123523D01*
X127071333Y-163218761D01*
X127214190Y-163266380D01*
X127452285Y-163266380D01*
X125928476Y-163266380D02*
X126499904Y-163266380D01*
X126214190Y-163266380D02*
X126214190Y-162266380D01*
X126309428Y-162409238D01*
X126404666Y-162504476D01*
X126499904Y-162552095D01*
X125452285Y-163266380D02*
X125261809Y-163266380D01*
X125166571Y-163218761D01*
X125118952Y-163171142D01*
X125023714Y-163028285D01*
X124976095Y-162837809D01*
X124976095Y-162456857D01*
X125023714Y-162361619D01*
X125071333Y-162314000D01*
X125166571Y-162266380D01*
X125357047Y-162266380D01*
X125452285Y-162314000D01*
X125499904Y-162361619D01*
X125547523Y-162456857D01*
X125547523Y-162694952D01*
X125499904Y-162790190D01*
X125452285Y-162837809D01*
X125357047Y-162885428D01*
X125166571Y-162885428D01*
X125071333Y-162837809D01*
X125023714Y-162790190D01*
X124976095Y-162694952D01*
X117292285Y-163266380D02*
X117292285Y-162266380D01*
X117054190Y-162266380D01*
X116911333Y-162314000D01*
X116816095Y-162409238D01*
X116768476Y-162504476D01*
X116720857Y-162694952D01*
X116720857Y-162837809D01*
X116768476Y-163028285D01*
X116816095Y-163123523D01*
X116911333Y-163218761D01*
X117054190Y-163266380D01*
X117292285Y-163266380D01*
X116339904Y-162361619D02*
X116292285Y-162314000D01*
X116197047Y-162266380D01*
X115958952Y-162266380D01*
X115863714Y-162314000D01*
X115816095Y-162361619D01*
X115768476Y-162456857D01*
X115768476Y-162552095D01*
X115816095Y-162694952D01*
X116387523Y-163266380D01*
X115768476Y-163266380D01*
X115149428Y-162266380D02*
X115054190Y-162266380D01*
X114958952Y-162314000D01*
X114911333Y-162361619D01*
X114863714Y-162456857D01*
X114816095Y-162647333D01*
X114816095Y-162885428D01*
X114863714Y-163075904D01*
X114911333Y-163171142D01*
X114958952Y-163218761D01*
X115054190Y-163266380D01*
X115149428Y-163266380D01*
X115244666Y-163218761D01*
X115292285Y-163171142D01*
X115339904Y-163075904D01*
X115387523Y-162885428D01*
X115387523Y-162647333D01*
X115339904Y-162456857D01*
X115292285Y-162361619D01*
X115244666Y-162314000D01*
X115149428Y-162266380D01*
X107513285Y-183078380D02*
X107513285Y-182078380D01*
X107275190Y-182078380D01*
X107132333Y-182126000D01*
X107037095Y-182221238D01*
X106989476Y-182316476D01*
X106941857Y-182506952D01*
X106941857Y-182649809D01*
X106989476Y-182840285D01*
X107037095Y-182935523D01*
X107132333Y-183030761D01*
X107275190Y-183078380D01*
X107513285Y-183078380D01*
X106560904Y-182173619D02*
X106513285Y-182126000D01*
X106418047Y-182078380D01*
X106179952Y-182078380D01*
X106084714Y-182126000D01*
X106037095Y-182173619D01*
X105989476Y-182268857D01*
X105989476Y-182364095D01*
X106037095Y-182506952D01*
X106608523Y-183078380D01*
X105989476Y-183078380D01*
X105037095Y-183078380D02*
X105608523Y-183078380D01*
X105322809Y-183078380D02*
X105322809Y-182078380D01*
X105418047Y-182221238D01*
X105513285Y-182316476D01*
X105608523Y-182364095D01*
X158567285Y-123769380D02*
X158567285Y-122769380D01*
X158329190Y-122769380D01*
X158186333Y-122817000D01*
X158091095Y-122912238D01*
X158043476Y-123007476D01*
X157995857Y-123197952D01*
X157995857Y-123340809D01*
X158043476Y-123531285D01*
X158091095Y-123626523D01*
X158186333Y-123721761D01*
X158329190Y-123769380D01*
X158567285Y-123769380D01*
X157614904Y-122864619D02*
X157567285Y-122817000D01*
X157472047Y-122769380D01*
X157233952Y-122769380D01*
X157138714Y-122817000D01*
X157091095Y-122864619D01*
X157043476Y-122959857D01*
X157043476Y-123055095D01*
X157091095Y-123197952D01*
X157662523Y-123769380D01*
X157043476Y-123769380D01*
X156662523Y-122864619D02*
X156614904Y-122817000D01*
X156519666Y-122769380D01*
X156281571Y-122769380D01*
X156186333Y-122817000D01*
X156138714Y-122864619D01*
X156091095Y-122959857D01*
X156091095Y-123055095D01*
X156138714Y-123197952D01*
X156710142Y-123769380D01*
X156091095Y-123769380D01*
X158567285Y-143454380D02*
X158567285Y-142454380D01*
X158329190Y-142454380D01*
X158186333Y-142502000D01*
X158091095Y-142597238D01*
X158043476Y-142692476D01*
X157995857Y-142882952D01*
X157995857Y-143025809D01*
X158043476Y-143216285D01*
X158091095Y-143311523D01*
X158186333Y-143406761D01*
X158329190Y-143454380D01*
X158567285Y-143454380D01*
X157614904Y-142549619D02*
X157567285Y-142502000D01*
X157472047Y-142454380D01*
X157233952Y-142454380D01*
X157138714Y-142502000D01*
X157091095Y-142549619D01*
X157043476Y-142644857D01*
X157043476Y-142740095D01*
X157091095Y-142882952D01*
X157662523Y-143454380D01*
X157043476Y-143454380D01*
X156710142Y-142454380D02*
X156091095Y-142454380D01*
X156424428Y-142835333D01*
X156281571Y-142835333D01*
X156186333Y-142882952D01*
X156138714Y-142930571D01*
X156091095Y-143025809D01*
X156091095Y-143263904D01*
X156138714Y-143359142D01*
X156186333Y-143406761D01*
X156281571Y-143454380D01*
X156567285Y-143454380D01*
X156662523Y-143406761D01*
X156710142Y-143359142D01*
X156916285Y-163012380D02*
X156916285Y-162012380D01*
X156678190Y-162012380D01*
X156535333Y-162060000D01*
X156440095Y-162155238D01*
X156392476Y-162250476D01*
X156344857Y-162440952D01*
X156344857Y-162583809D01*
X156392476Y-162774285D01*
X156440095Y-162869523D01*
X156535333Y-162964761D01*
X156678190Y-163012380D01*
X156916285Y-163012380D01*
X155963904Y-162107619D02*
X155916285Y-162060000D01*
X155821047Y-162012380D01*
X155582952Y-162012380D01*
X155487714Y-162060000D01*
X155440095Y-162107619D01*
X155392476Y-162202857D01*
X155392476Y-162298095D01*
X155440095Y-162440952D01*
X156011523Y-163012380D01*
X155392476Y-163012380D01*
X154535333Y-162345714D02*
X154535333Y-163012380D01*
X154773428Y-161964761D02*
X155011523Y-162679047D01*
X154392476Y-162679047D01*
X157043285Y-183078380D02*
X157043285Y-182078380D01*
X156805190Y-182078380D01*
X156662333Y-182126000D01*
X156567095Y-182221238D01*
X156519476Y-182316476D01*
X156471857Y-182506952D01*
X156471857Y-182649809D01*
X156519476Y-182840285D01*
X156567095Y-182935523D01*
X156662333Y-183030761D01*
X156805190Y-183078380D01*
X157043285Y-183078380D01*
X156090904Y-182173619D02*
X156043285Y-182126000D01*
X155948047Y-182078380D01*
X155709952Y-182078380D01*
X155614714Y-182126000D01*
X155567095Y-182173619D01*
X155519476Y-182268857D01*
X155519476Y-182364095D01*
X155567095Y-182506952D01*
X156138523Y-183078380D01*
X155519476Y-183078380D01*
X154614714Y-182078380D02*
X155090904Y-182078380D01*
X155138523Y-182554571D01*
X155090904Y-182506952D01*
X154995666Y-182459333D01*
X154757571Y-182459333D01*
X154662333Y-182506952D01*
X154614714Y-182554571D01*
X154567095Y-182649809D01*
X154567095Y-182887904D01*
X154614714Y-182983142D01*
X154662333Y-183030761D01*
X154757571Y-183078380D01*
X154995666Y-183078380D01*
X155090904Y-183030761D01*
X155138523Y-182983142D01*
X79327333Y-121118380D02*
X79327333Y-121832666D01*
X79374952Y-121975523D01*
X79470190Y-122070761D01*
X79613047Y-122118380D01*
X79708285Y-122118380D01*
X78946380Y-121118380D02*
X78327333Y-121118380D01*
X78660666Y-121499333D01*
X78517809Y-121499333D01*
X78422571Y-121546952D01*
X78374952Y-121594571D01*
X78327333Y-121689809D01*
X78327333Y-121927904D01*
X78374952Y-122023142D01*
X78422571Y-122070761D01*
X78517809Y-122118380D01*
X78803523Y-122118380D01*
X78898761Y-122070761D01*
X78946380Y-122023142D01*
X163655333Y-121118380D02*
X163655333Y-121832666D01*
X163702952Y-121975523D01*
X163798190Y-122070761D01*
X163941047Y-122118380D01*
X164036285Y-122118380D01*
X162750571Y-121118380D02*
X162941047Y-121118380D01*
X163036285Y-121166000D01*
X163083904Y-121213619D01*
X163179142Y-121356476D01*
X163226761Y-121546952D01*
X163226761Y-121927904D01*
X163179142Y-122023142D01*
X163131523Y-122070761D01*
X163036285Y-122118380D01*
X162845809Y-122118380D01*
X162750571Y-122070761D01*
X162702952Y-122023142D01*
X162655333Y-121927904D01*
X162655333Y-121689809D01*
X162702952Y-121594571D01*
X162750571Y-121546952D01*
X162845809Y-121499333D01*
X163036285Y-121499333D01*
X163131523Y-121546952D01*
X163179142Y-121594571D01*
X163226761Y-121689809D01*
M02*
