G04 #@! TF.GenerationSoftware,KiCad,Pcbnew,(5.1.5)-3*
G04 #@! TF.CreationDate,2020-07-02T20:41:21-07:00*
G04 #@! TF.ProjectId,daughter,64617567-6874-4657-922e-6b696361645f,rev?*
G04 #@! TF.SameCoordinates,Original*
G04 #@! TF.FileFunction,Paste,Top*
G04 #@! TF.FilePolarity,Positive*
%FSLAX46Y46*%
G04 Gerber Fmt 4.6, Leading zero omitted, Abs format (unit mm)*
G04 Created by KiCad (PCBNEW (5.1.5)-3) date 2020-07-02 20:41:21*
%MOMM*%
%LPD*%
G04 APERTURE LIST*
%ADD10C,0.050000*%
%ADD11C,0.120000*%
%ADD12C,0.150000*%
%ADD13R,1.500000X1.000000*%
G04 APERTURE END LIST*
D10*
X143510000Y-186690000D02*
X159512000Y-186690000D01*
X139192000Y-185928000D02*
X138430000Y-186690000D01*
X142748000Y-185928000D02*
X139192000Y-185928000D01*
X143510000Y-186690000D02*
X142748000Y-185928000D01*
X74930000Y-121158000D02*
X74930000Y-117094000D01*
X76454000Y-122682000D02*
X74930000Y-121158000D01*
X76454000Y-136652000D02*
X76454000Y-122682000D01*
X77724000Y-137922000D02*
X76454000Y-136652000D01*
X77724000Y-137922000D02*
X77724001Y-186690001D01*
X81534000Y-186690000D02*
X81536221Y-189928213D01*
X98806000Y-186690000D02*
X81534000Y-186690000D01*
X99568000Y-185928000D02*
X98806000Y-186690000D01*
X103124000Y-185928000D02*
X99568000Y-185928000D01*
X103886000Y-186690000D02*
X103124000Y-185928000D01*
X118618000Y-186690000D02*
X103886000Y-186690000D01*
X119380000Y-185928000D02*
X118618000Y-186690000D01*
X122936000Y-185928000D02*
X119380000Y-185928000D01*
X123698000Y-186690000D02*
X122936000Y-185928000D01*
X138430000Y-186690000D02*
X123698000Y-186690000D01*
X159512000Y-192151000D02*
X159512000Y-186690000D01*
X159512000Y-192151000D02*
X163576000Y-192151000D01*
X165735000Y-122301000D02*
X165735000Y-187579000D01*
X167386000Y-120650000D02*
X165735000Y-122301000D01*
X167386000Y-116840000D02*
X167386000Y-120650000D01*
X159258000Y-116840000D02*
X167386000Y-116840000D01*
X159258000Y-118872000D02*
X159258000Y-116840000D01*
X157988000Y-120142000D02*
X159258000Y-118872000D01*
X148336000Y-120142000D02*
X157988000Y-120142000D01*
X148336000Y-126238000D02*
X148336000Y-120142000D01*
X157988000Y-126238000D02*
X148336000Y-126238000D01*
X159258000Y-127508000D02*
X157988000Y-126238000D01*
X159258000Y-129286000D02*
X159258000Y-127508000D01*
X160655000Y-130683000D02*
X159258000Y-129286000D01*
X160655000Y-134620000D02*
X160655000Y-130683000D01*
X159512000Y-135763000D02*
X160655000Y-134620000D01*
X159512000Y-138684000D02*
X159512000Y-135763000D01*
X158242000Y-139954000D02*
X159512000Y-138684000D01*
X148336000Y-139954000D02*
X158242000Y-139954000D01*
X148336000Y-146050000D02*
X148336000Y-139954000D01*
X158242000Y-146050000D02*
X148336000Y-146050000D01*
X159512000Y-147320000D02*
X158242000Y-146050000D01*
X159512000Y-158496000D02*
X159512000Y-147320000D01*
X158242000Y-159766000D02*
X159512000Y-158496000D01*
X146812000Y-159766000D02*
X158242000Y-159766000D01*
X146812000Y-165862000D02*
X146812000Y-159766000D01*
X158242000Y-165862000D02*
X146812000Y-165862000D01*
X159512000Y-167132000D02*
X158242000Y-165862000D01*
X159512000Y-178308000D02*
X159512000Y-167132000D01*
X158242000Y-179578000D02*
X159512000Y-178308000D01*
X143510000Y-179578000D02*
X158242000Y-179578000D01*
X142748000Y-180340000D02*
X143510000Y-179578000D01*
X139192000Y-180340000D02*
X142748000Y-180340000D01*
X138430000Y-179578000D02*
X139192000Y-180340000D01*
X123190000Y-179578000D02*
X138430000Y-179578000D01*
X123190000Y-176530000D02*
X123190000Y-179578000D01*
X121920000Y-176530000D02*
X123190000Y-176530000D01*
X121920000Y-172974000D02*
X121920000Y-176530000D01*
X121539000Y-172593000D02*
X121920000Y-172974000D01*
X121539000Y-168783000D02*
X121539000Y-172593000D01*
X121920000Y-168402000D02*
X121539000Y-168783000D01*
X121920000Y-167132000D02*
X121920000Y-168402000D01*
X123190000Y-165862000D02*
X121920000Y-167132000D01*
X135128000Y-165862000D02*
X123190000Y-165862000D01*
X135128000Y-159766000D02*
X135128000Y-165862000D01*
X107188000Y-159766000D02*
X135128000Y-159766000D01*
X107188000Y-165862000D02*
X107188000Y-159766000D01*
X117856000Y-165862000D02*
X107188000Y-165862000D01*
X119126000Y-167132000D02*
X117856000Y-165862000D01*
X119126000Y-178308000D02*
X119126000Y-167132000D01*
X117856000Y-179578000D02*
X119126000Y-178308000D01*
X103886000Y-179578000D02*
X117856000Y-179578000D01*
X103124000Y-180340000D02*
X103886000Y-179578000D01*
X99568000Y-180340000D02*
X103124000Y-180340000D01*
X98806000Y-179578000D02*
X99568000Y-180340000D01*
X82804000Y-179578000D02*
X98806000Y-179578000D01*
X81534000Y-178308000D02*
X82804000Y-179578000D01*
X81534000Y-167132000D02*
X81534000Y-178308000D01*
X82804000Y-165862000D02*
X81534000Y-167132000D01*
X95504000Y-165862000D02*
X82804000Y-165862000D01*
X95504000Y-159766000D02*
X95504000Y-165862000D01*
X82804000Y-159766000D02*
X95504000Y-159766000D01*
X81534000Y-158496000D02*
X82804000Y-159766000D01*
X81534000Y-147320000D02*
X81534000Y-158496000D01*
X82804000Y-146050000D02*
X81534000Y-147320000D01*
X93726000Y-146050000D02*
X82804000Y-146050000D01*
X93726000Y-139954000D02*
X93726000Y-146050000D01*
X82804000Y-139954000D02*
X93726000Y-139954000D01*
X81534000Y-138684000D02*
X82804000Y-139954000D01*
X81534000Y-137922000D02*
X81534000Y-138684000D01*
X80264000Y-136652000D02*
X81534000Y-137922000D01*
X80264000Y-133604000D02*
X80264000Y-136652000D01*
X81534000Y-132334000D02*
X80264000Y-133604000D01*
X81534000Y-125984000D02*
X81534000Y-132334000D01*
X82042000Y-125476000D02*
X81534000Y-125984000D01*
X84836000Y-125476000D02*
X82042000Y-125476000D01*
X85598000Y-126238000D02*
X84836000Y-125476000D01*
X93726000Y-126238000D02*
X85598000Y-126238000D01*
X93726000Y-120142000D02*
X93726000Y-126238000D01*
X84074000Y-120142000D02*
X93726000Y-120142000D01*
X82804000Y-118872000D02*
X84074000Y-120142000D01*
X82804000Y-117094000D02*
X82804000Y-118872000D01*
X74930000Y-117094000D02*
X82804000Y-117094000D01*
D11*
X165731919Y-187579797D02*
G75*
G02X163576000Y-192151000I-2155919J-1777203D01*
G01*
D12*
X81536221Y-189928213D02*
G75*
G02X77724001Y-186690001I-2796221J571213D01*
G01*
D13*
X93890000Y-184226000D03*
X93890000Y-181026000D03*
X88990000Y-184226000D03*
X88990000Y-181026000D03*
X88990000Y-161214000D03*
X88990000Y-164414000D03*
X93890000Y-161214000D03*
X93890000Y-164414000D03*
X92239000Y-144602000D03*
X92239000Y-141402000D03*
X87339000Y-144602000D03*
X87339000Y-141402000D03*
X92239000Y-124790000D03*
X92239000Y-121590000D03*
X87339000Y-124790000D03*
X87339000Y-121590000D03*
X128614000Y-181026000D03*
X128614000Y-184226000D03*
X133514000Y-181026000D03*
X133514000Y-184226000D03*
X128614000Y-161214000D03*
X128614000Y-164414000D03*
X133514000Y-161214000D03*
X133514000Y-164414000D03*
X108802000Y-161214000D03*
X108802000Y-164414000D03*
X113702000Y-161214000D03*
X113702000Y-164414000D03*
X108802000Y-181026000D03*
X108802000Y-184226000D03*
X113702000Y-181026000D03*
X113702000Y-184226000D03*
X154977000Y-124790000D03*
X154977000Y-121590000D03*
X150077000Y-124790000D03*
X150077000Y-121590000D03*
X154977000Y-144602000D03*
X154977000Y-141402000D03*
X150077000Y-144602000D03*
X150077000Y-141402000D03*
X148426000Y-161087000D03*
X148426000Y-164287000D03*
X153326000Y-161087000D03*
X153326000Y-164287000D03*
X153326000Y-184226000D03*
X153326000Y-181026000D03*
X148426000Y-184226000D03*
X148426000Y-181026000D03*
M02*
